<?xml version="1.0" encoding="UTF-8"?>
<!-- Generator: CustomSymbols v2.6.7.45 by @serious_bret https://bretlester.com/app_content/CustomSymbols/ -->
<!-- Guides: Left/Right 0.0/0.0 Cap/Base 0.032/0.032 -->
<!-- Settings: RefScale 1.0 Min/Max Stroke Scales 0.5/2.21 -->
<!DOCTYPE svg
PUBLIC "-//W3C//DTD SVG 1.1//EN"
       "http://www.w3.org/Graphics/SVG/1.1/DTD/svg11.dtd">
<svg version="1.1" xmlns="http://www.w3.org/2000/svg" xmlns:xlink="http://www.w3.org/1999/xlink" width="3300" height="2200">
<![CDATA[<svg width="35" height="18" viewBox="0 0 35 18" fill="none" xmlns="http://www.w3.org/2000/svg">
<g clip-path="url(#clip0_211_2954)">
<path d="M16.6 9.50002C16.1 10.2 15.6 10.8 15.2 11.5C13.8 13.9 13.9 14.1 16.6 14.4C17.1 14.5 18.1 15.3 18 15.5C17.8 16.2 17.3 17.1 16.7 17.3C14 18.2 10.8 15.9 10.5 13.1C10.4 12.2 10 11.9 9.1 11.9C7.4 11.9 5.8 11.9 4.1 11.6C2.9 11.4 1.7 10.8 0.6 10.3C0.3 10.1 0.2 9.40002 0 9.00002C0.5 9.00002 1.2 8.70002 1.5 9.00002C3.1 10.3 4.9 9.80002 6.6 9.70002C7 9.70002 7.7 9.00002 7.7 8.50002C8.3 3.80002 10.6 1.10002 15.2 0.600017C17.6 0.300017 20.1 0.900017 22.6 1.00002C22.9 1.00002 23.4 1.10002 23.6 1.00002C26.7 -0.699983 30.1 0.100017 32 3.10002C32.4 3.80002 32.9 4.40002 33.5 4.90002C34.2 5.60002 34.5 6.50002 33.8 7.20002C33.3 7.80002 32.4 8.30002 31.6 8.30002C30.1 8.20002 28.5 7.80002 27 7.50002C26.1 7.30002 25.5 7.50002 24.7 8.10002C22.7 9.80002 21.1 11.6 21.8 14.5C22 15.2 21.6 16.1 21.4 16.9C21.3 17.2 20.8 17.7 20.5 17.6C20.1 17.6 19.6 17.2 19.5 16.8C19.3 16 19 15 19.2 14.2C19.6 11.9 18.4 10.7 16.6 9.50002Z" fill="#421A73"/>
</g>
<defs>
<clipPath id="clip0_211_2954">
<rect width="34.3" height="17.5" fill="white"/>
</clipPath>
</defs>
</svg>
]]>
 <g id="Notes">
  <rect height="2200" id="artboard" style="fill:white;opacity:1" width="3300" x="0" y="0"/>
  <line id="" style="fill:none;stroke:black;opacity:1;stroke-width:0.5;" x1="263" x2="3036" y1="292" y2="292"/>
  <text id="reftext1" style="stroke:none;fill:black;font-family:-apple-system,&quot;SF Pro Display&quot;,&quot;SF Pro Text&quot;,Helvetica,sans-serif;font-weight:bold;" transform="matrix(1 0 0 1 263 322)">Weight/Scale Variations</text>
  <text id="reftext2" style="stroke:none;fill:black;font-family:-apple-system,&quot;SF Pro Display&quot;,&quot;SF Pro Text&quot;,Helvetica,sans-serif;text-anchor:middle;" transform="matrix(1 0 0 1 559.711 322)">Ultralight</text>
  <text style="stroke:none;fill:black;font-family:-apple-system,&quot;SF Pro Display&quot;,&quot;SF Pro Text&quot;,Helvetica,sans-serif;text-anchor:middle;" transform="matrix(1 0 0 1 856.422 322)">Thin</text>
  <text style="stroke:none;fill:black;font-family:-apple-system,&quot;SF Pro Display&quot;,&quot;SF Pro Text&quot;,Helvetica,sans-serif;text-anchor:middle;" transform="matrix(1 0 0 1 1153.13 322)">Light</text>
  <text style="stroke:none;fill:black;font-family:-apple-system,&quot;SF Pro Display&quot;,&quot;SF Pro Text&quot;,Helvetica,sans-serif;text-anchor:middle;" transform="matrix(1 0 0 1 1449.84 322)">Regular</text>
  <text style="stroke:none;fill:black;font-family:-apple-system,&quot;SF Pro Display&quot;,&quot;SF Pro Text&quot;,Helvetica,sans-serif;text-anchor:middle;" transform="matrix(1 0 0 1 1746.56 322)">Medium</text>
  <text style="stroke:none;fill:black;font-family:-apple-system,&quot;SF Pro Display&quot;,&quot;SF Pro Text&quot;,Helvetica,sans-serif;text-anchor:middle;" transform="matrix(1 0 0 1 2043.27 322)">Semibold</text>
  <text style="stroke:none;fill:black;font-family:-apple-system,&quot;SF Pro Display&quot;,&quot;SF Pro Text&quot;,Helvetica,sans-serif;text-anchor:middle;" transform="matrix(1 0 0 1 2339.98 322)">Bold</text>
  <text style="stroke:none;fill:black;font-family:-apple-system,&quot;SF Pro Display&quot;,&quot;SF Pro Text&quot;,Helvetica,sans-serif;text-anchor:middle;" transform="matrix(1 0 0 1 2636.69 322)">Heavy</text>
  <text style="stroke:none;fill:black;font-family:-apple-system,&quot;SF Pro Display&quot;,&quot;SF Pro Text&quot;,Helvetica,sans-serif;text-anchor:middle;" transform="matrix(1 0 0 1 2933.4 322)">Black</text>
  <line id="" style="fill:none;stroke:black;opacity:1;stroke-width:0.5;" x1="263" x2="3036" y1="1903" y2="1903"/>
  <g id="" transform="matrix(1 0 0 1 263 1933)">
   <path d="M9.24805 0.830078C13.5547 0.830078 17.1387-2.74414 17.1387-7.05078C17.1387-11.3574 13.5449-14.9316 9.23828-14.9316C4.94141-14.9316 1.36719-11.3574 1.36719-7.05078C1.36719-2.74414 4.95117 0.830078 9.24805 0.830078ZM9.24805-0.654297C5.70312-0.654297 2.87109-3.49609 2.87109-7.05078C2.87109-10.6055 5.69336-13.4473 9.23828-13.4473C12.793-13.4473 15.6348-10.6055 15.6445-7.05078C15.6543-3.49609 12.8027-0.654297 9.24805-0.654297ZM6.39648-6.31836L8.50586-6.31836L8.50586-4.19922C8.50586-3.75977 8.79883-3.45703 9.22852-3.45703C9.67773-3.45703 9.9707-3.75977 9.9707-4.19922L9.9707-6.31836L12.0996-6.31836C12.5391-6.31836 12.8418-6.61133 12.8418-7.04102C12.8418-7.48047 12.5391-7.7832 12.0996-7.7832L9.9707-7.7832L9.9707-9.89258C9.9707-10.3418 9.67773-10.6445 9.22852-10.6445C8.79883-10.6445 8.50586-10.3418 8.50586-9.89258L8.50586-7.7832L6.39648-7.7832C5.94727-7.7832 5.64453-7.48047 5.64453-7.04102C5.64453-6.61133 5.94727-6.31836 6.39648-6.31836Z"/>
  </g>
  <g id="" transform="matrix(1 0 0 1 281.506 1933)">
   <path d="M11.709 2.91016C17.1582 2.91016 21.6699-1.61133 21.6699-7.05078C21.6699-12.5 17.1484-17.0117 11.6992-17.0117C6.25977-17.0117 1.74805-12.5 1.74805-7.05078C1.74805-1.61133 6.26953 2.91016 11.709 2.91016ZM11.709 1.25C7.09961 1.25 3.41797-2.44141 3.41797-7.05078C3.41797-11.6602 7.08984-15.3516 11.6992-15.3516C16.3086-15.3516 20-11.6602 20.0098-7.05078C20.0195-2.44141 16.3184 1.25 11.709 1.25ZM7.98828-6.23047L10.8789-6.23047L10.8789-3.32031C10.8789-2.83203 11.2109-2.5 11.6895-2.5C12.1777-2.5 12.5195-2.83203 12.5195-3.32031L12.5195-6.23047L15.4297-6.23047C15.918-6.23047 16.25-6.5625 16.25-7.04102C16.25-7.5293 15.918-7.87109 15.4297-7.87109L12.5195-7.87109L12.5195-10.7617C12.5195-11.2695 12.1777-11.6016 11.6895-11.6016C11.2109-11.6016 10.8789-11.2598 10.8789-10.7617L10.8789-7.87109L7.98828-7.87109C7.48047-7.87109 7.14844-7.5293 7.14844-7.04102C7.14844-6.5625 7.49023-6.23047 7.98828-6.23047Z"/>
  </g>
  <g id="" transform="matrix(1 0 0 1 304.924 1933)">
   <path d="M14.9707 5.66406C21.9336 5.66406 27.6953-0.0976562 27.6953-7.05078C27.6953-14.0137 21.9238-19.7754 14.9609-19.7754C8.00781-19.7754 2.25586-14.0137 2.25586-7.05078C2.25586-0.0976562 8.01758 5.66406 14.9707 5.66406ZM14.9707 3.84766C8.93555 3.84766 4.08203-1.01562 4.08203-7.05078C4.08203-13.0957 8.92578-17.9492 14.9609-17.9492C21.0059-17.9492 25.8594-13.0957 25.8691-7.05078C25.8789-1.01562 21.0156 3.84766 14.9707 3.84766ZM10.0586-6.14258L14.0625-6.14258L14.0625-2.12891C14.0625-1.5918 14.4336-1.2207 14.9512-1.2207C15.4883-1.2207 15.8594-1.5918 15.8594-2.12891L15.8594-6.14258L19.8828-6.14258C20.4102-6.14258 20.791-6.51367 20.791-7.03125C20.791-7.56836 20.4199-7.94922 19.8828-7.94922L15.8594-7.94922L15.8594-11.9531C15.8594-12.5098 15.4883-12.8809 14.9512-12.8809C14.4336-12.8809 14.0625-12.5 14.0625-11.9531L14.0625-7.94922L10.0586-7.94922C9.50195-7.94922 9.13086-7.56836 9.13086-7.03125C9.13086-6.51367 9.51172-6.14258 10.0586-6.14258Z"/>
  </g>
  <text style="stroke:none;fill:black;font-family:-apple-system,&quot;SF Pro Display&quot;,&quot;SF Pro Text&quot;,Helvetica,sans-serif;font-weight:bold;" transform="matrix(1 0 0 1 263 1953)">Design Variations</text>
  <text style="stroke:none;fill:black;font-family:-apple-system,&quot;SF Pro Display&quot;,&quot;SF Pro Text&quot;,Helvetica,sans-serif;" transform="matrix(1 0 0 1 263 1971)">Symbols are supported in up to nine weights and three scales.</text>
  <text style="stroke:none;fill:black;font-family:-apple-system,&quot;SF Pro Display&quot;,&quot;SF Pro Text&quot;,Helvetica,sans-serif;" transform="matrix(1 0 0 1 263 1989)">For optimal layout with text and other symbols, vertically align</text>
  <text style="stroke:none;fill:black;font-family:-apple-system,&quot;SF Pro Display&quot;,&quot;SF Pro Text&quot;,Helvetica,sans-serif;" transform="matrix(1 0 0 1 263 2007)">symbols with the adjacent text.</text>
  <line id="" style="fill:none;stroke:#00AEEF;stroke-width:0.5;opacity:1.0;" x1="776" x2="776" y1="1919" y2="1933"/>
  <g id="" transform="matrix(1 0 0 1 776 1933)">
   <path d="M3.31055 0.126953C3.82812 0.126953 4.08203-0.0683594 4.26758-0.605469L5.52734-4.0625L11.2891-4.0625L12.5488-0.605469C12.7344-0.0683594 12.9883 0.126953 13.4961 0.126953C14.0137 0.126953 14.3457-0.185547 14.3457-0.673828C14.3457-0.839844 14.3164-0.986328 14.2383-1.20117L9.6582-13.3887C9.43359-13.9941 9.0332-14.2871 8.4082-14.2871C7.80273-14.2871 7.39258-13.9941 7.17773-13.3984L2.59766-1.19141C2.51953-0.976562 2.49023-0.830078 2.49023-0.664062C2.49023-0.175781 2.80273 0.126953 3.31055 0.126953ZM6.00586-5.53711L8.37891-12.1094L8.42773-12.1094L10.8008-5.53711Z"/>
  </g>
  <line id="" style="fill:none;stroke:#00AEEF;stroke-width:0.5;opacity:1.0;" x1="792.836" x2="792.836" y1="1919" y2="1933"/>
  <text style="stroke:none;fill:black;font-family:-apple-system,&quot;SF Pro Display&quot;,&quot;SF Pro Text&quot;,Helvetica,sans-serif;font-weight:bold;" transform="matrix(1 0 0 1 776 1953)">Margins</text>
  <text style="stroke:none;fill:black;font-family:-apple-system,&quot;SF Pro Display&quot;,&quot;SF Pro Text&quot;,Helvetica,sans-serif;" transform="matrix(1 0 0 1 776 1971)">Leading and trailing margins on the left and right side of each symbol</text>
  <text style="stroke:none;fill:black;font-family:-apple-system,&quot;SF Pro Display&quot;,&quot;SF Pro Text&quot;,Helvetica,sans-serif;" transform="matrix(1 0 0 1 776 1989)">can be adjusted by modifying the x-location of the margin guidelines.</text>
  <text style="stroke:none;fill:black;font-family:-apple-system,&quot;SF Pro Display&quot;,&quot;SF Pro Text&quot;,Helvetica,sans-serif;" transform="matrix(1 0 0 1 776 2007)">Modifications are automatically applied proportionally to all</text>
  <text style="stroke:none;fill:black;font-family:-apple-system,&quot;SF Pro Display&quot;,&quot;SF Pro Text&quot;,Helvetica,sans-serif;" transform="matrix(1 0 0 1 776 2025)">scales and weights.</text>
  <g id="" transform="matrix(1 0 0 1 1289 1933)">
   <path d="M2.8418 1.86523L4.54102 3.57422C5.40039 4.44336 6.38672 4.38477 7.31445 3.35938L17.4902-7.85156C17.7539-7.76367 18.0273-7.7832 18.3398-7.8418L19.4043-8.03711L20.0684-7.36328L20.0293-6.80664C19.9902-6.30859 20.1172-5.92773 20.6055-5.44922L21.3672-4.70703C21.8457-4.22852 22.4609-4.19922 22.9297-4.66797L25.8398-7.58789C26.3086-8.05664 26.2891-8.65234 25.8105-9.13086L25.0391-9.89258C24.5605-10.3711 24.1895-10.5273 23.7109-10.4883L23.1348-10.4395L22.4902-11.0742L22.7344-12.1973C22.8613-12.7637 22.7051-13.2031 22.1191-13.7891L19.9219-15.9766C16.582-19.2969 12.1484-19.2188 9.25781-16.3281C8.83789-15.918 8.80859-15.3418 9.04297-14.9512C9.27734-14.5898 9.73633-14.3555 10.3809-14.5215C11.8457-14.8633 13.3691-14.9219 14.7949-13.9844L14.209-12.5293C14.0137-12.0508 13.9844-11.6504 14.1113-11.2891L3.04688-0.898438C2.06055 0.0195312 1.98242 0.996094 2.8418 1.86523ZM10.752-15.957C13.1836-17.7344 16.4746-17.4316 18.7012-15.2051L21.1328-12.793C21.3672-12.5586 21.4062-12.373 21.3379-12.0312L21.0156-10.5469L22.5195-9.0625L23.5059-9.12109C23.7598-9.13086 23.8379-9.11133 24.0332-8.91602L24.6094-8.33984L22.168-5.89844L21.5918-6.47461C21.3965-6.66992 21.3672-6.74805 21.377-7.01172L21.4453-7.98828L19.9512-9.47266L18.4277-9.21875C18.1055-9.15039 17.959-9.17969 17.7148-9.41406L15.7129-11.416C15.459-11.6504 15.4297-11.8164 15.5859-12.1875L16.4648-14.2773C14.9023-15.7324 12.8711-16.3574 10.8398-15.7617C10.6836-15.7227 10.625-15.8496 10.752-15.957ZM5.27344 2.30469L4.10156 1.14258C3.63281 0.683594 3.74023 0.341797 4.14062-0.0195312L14.9512-10.1953L16.416-8.71094L6.42578 2.27539C6.07422 2.67578 5.74219 2.77344 5.27344 2.30469Z"/>
  </g>
  <text style="stroke:none;fill:black;font-family:-apple-system,&quot;SF Pro Display&quot;,&quot;SF Pro Text&quot;,Helvetica,sans-serif;font-weight:bold;" transform="matrix(1 0 0 1 1289 1953)">Exporting</text>
  <text style="stroke:none;fill:black;font-family:-apple-system,&quot;SF Pro Display&quot;,&quot;SF Pro Text&quot;,Helvetica,sans-serif;" transform="matrix(1 0 0 1 1289 1971)">Symbols should be outlined when exporting to ensure the</text>
  <text style="stroke:none;fill:black;font-family:-apple-system,&quot;SF Pro Display&quot;,&quot;SF Pro Text&quot;,Helvetica,sans-serif;" transform="matrix(1 0 0 1 1289 1989)">design is preserved when submitting to Xcode.</text>
  <text id="template-version" style="stroke:none;fill:black;font-family:-apple-system,&quot;SF Pro Display&quot;,&quot;SF Pro Text&quot;,Helvetica,sans-serif;text-anchor:end;" transform="matrix(1 0 0 1 3036 1933)">Template v.2.0</text>
  <text style="stroke:none;fill:black;font-family:-apple-system,&quot;SF Pro Display&quot;,&quot;SF Pro Text&quot;,Helvetica,sans-serif;text-anchor:end;" transform="matrix(1 0 0 1 3036 1951)">Requires Xcode 12 or greater</text>
  <text style="stroke:none;fill:black;font-family:-apple-system,&quot;SF Pro Display&quot;,&quot;SF Pro Text&quot;,Helvetica,sans-serif;" transform="matrix(1 0 0 1 263 726)">Small</text>
  <text style="stroke:none;fill:black;font-family:-apple-system,&quot;SF Pro Display&quot;,&quot;SF Pro Text&quot;,Helvetica,sans-serif;" transform="matrix(1 0 0 1 263 1156)">Medium</text>
  <text style="stroke:none;fill:black;font-family:-apple-system,&quot;SF Pro Display&quot;,&quot;SF Pro Text&quot;,Helvetica,sans-serif;" transform="matrix(1 0 0 1 263 1586)">Large</text>
 </g>
 <g id="Guides">
  <g id="H-reference" style="fill:#27AAE1;stroke:none;" transform="matrix(1 0 0 1 339 696)">
   <path d="M0.976562 0L3.66211 0L12.9883-24.4629L45.752-24.4629L55.127 0L57.7637 0L30.6152-70.459L28.125-70.459ZM29.3457-67.1387L29.4434-67.1387L44.873-26.709L13.8672-26.709Z"/>
  </g>
  <line id="Baseline-S" style="fill:none;stroke:#27AAE1;opacity:1;stroke-width:0.5;" x1="263" x2="3036" y1="696" y2="696"/>
  <line id="Capline-S" style="fill:none;stroke:#27AAE1;opacity:1;stroke-width:0.5;" x1="263" x2="3036" y1="625.541" y2="625.541"/>
  <g id="H-reference" style="fill:#27AAE1;stroke:none;" transform="matrix(1 0 0 1 339 1126)">
   <path d="M0.976562 0L3.66211 0L12.9883-24.4629L45.752-24.4629L55.127 0L57.7637 0L30.6152-70.459L28.125-70.459ZM29.3457-67.1387L29.4434-67.1387L44.873-26.709L13.8672-26.709Z"/>
  </g>
  <line id="Baseline-M" style="fill:none;stroke:#27AAE1;opacity:1;stroke-width:0.5;" x1="263" x2="3036" y1="1126" y2="1126"/>
  <line id="Capline-M" style="fill:none;stroke:#27AAE1;opacity:1;stroke-width:0.5;" x1="263" x2="3036" y1="1055.54" y2="1055.54"/>
  <g id="H-reference" style="fill:#27AAE1;stroke:none;" transform="matrix(1 0 0 1 339 1556)">
   <path d="M0.976562 0L3.66211 0L12.9883-24.4629L45.752-24.4629L55.127 0L57.7637 0L30.6152-70.459L28.125-70.459ZM29.3457-67.1387L29.4434-67.1387L44.873-26.709L13.8672-26.709Z"/>
  </g>
  <line id="Baseline-L" style="fill:none;stroke:#27AAE1;opacity:1;stroke-width:0.5;" x1="263" x2="3036" y1="1556" y2="1556"/>
  <line id="Capline-L" style="fill:none;stroke:#27AAE1;opacity:1;stroke-width:0.5;" x1="263" x2="3036" y1="1485.54" y2="1485.54"/>
  <line id="left-margin" x1="1377.9433121791162" x2="1377.9433121791162" y1="1030.79" y2="1150.12" style="fill:none;stroke:#00AEEF;stroke-width:0.5;opacity:1.0;"/>
  <line id="right-margin" x1="1524.3166878208835" x2="1524.3166878208835" y1="1030.79" y2="1150.12" style="fill:none;stroke:#00AEEF;stroke-width:0.5;opacity:1.0;"/>
 </g>
 <g id="Symbols">
  <g id="Black-L" transform="matrix(1.0,0.0,0.0,1.0,2840.2691727110596,1472.2158797826523)">  <path stroke-linecap="butt" fill-rule="nonzero" clip-path="url(#clip0_211_2954)" stroke-linejoin="miter" stroke-width="1px" stroke-opacity="1" fill-opacity="1" stroke-miterlimit="4" fill="#000000" stroke="none" stroke-dasharray="none" d="M89.555,51.252C86.858,55.028,84.161,58.265,82.003,62.041C74.45,74.989,74.989,76.068,89.555,77.687C92.253,78.226,97.648,82.542,97.108,83.621C96.029,87.397,93.332,92.253,90.095,93.332C75.529,98.187,58.265,85.779,56.646,70.673C56.107,65.818,53.949,64.199,49.094,64.199C39.922,64.199,31.29,64.199,22.119,62.581C15.645,61.502,9.171,58.265,3.237,55.568C1.618,54.489,1.079,50.712,0,48.554C2.697,48.554,6.474,46.936,8.092,48.554C16.724,55.568,26.435,52.87,35.606,52.331C37.764,52.331,41.541,48.554,41.541,45.857C44.778,20.501,57.186,5.935,82.003,3.237C94.95,1.619,108.438,4.856,121.925,5.395C123.543,5.395,126.241,5.935,127.32,5.395C144.044,-3.776,162.387,0.54,172.637,16.724C174.795,20.501,177.492,23.738,180.729,26.435C184.506,30.212,186.124,35.067,182.348,38.843C179.65,42.08,174.795,44.778,170.479,44.778C162.387,44.238,153.755,42.08,145.662,40.462C140.807,39.383,137.57,40.462,133.254,43.699C122.464,52.87,113.832,62.581,117.609,78.226C118.688,82.003,116.53,86.858,115.451,91.174C114.911,92.792,112.214,95.49,110.596,94.95C108.438,94.95,105.74,92.792,105.201,90.634C104.122,86.318,102.503,80.924,103.582,76.608C105.74,64.199,99.266,57.725,89.555,51.252ZM89.555,51.252"/>
</g>
  <g id="Heavy-L" transform="matrix(1.0,0.0,0.0,1.0,2543.5591727110595,1472.2158797826523)">  <path clip-path="url(#clip0_211_2954)" stroke-dasharray="none" stroke-linejoin="miter" fill="#000000" stroke-linecap="butt" stroke-opacity="1" stroke="none" stroke-width="1px" fill-rule="nonzero" fill-opacity="1" stroke-miterlimit="4" d="M89.555,51.252C86.858,55.028,84.161,58.265,82.003,62.041C74.45,74.989,74.989,76.068,89.555,77.687C92.253,78.226,97.648,82.542,97.108,83.621C96.029,87.397,93.332,92.253,90.095,93.332C75.529,98.187,58.265,85.779,56.646,70.673C56.107,65.818,53.949,64.199,49.094,64.199C39.922,64.199,31.29,64.199,22.119,62.581C15.645,61.502,9.171,58.265,3.237,55.568C1.618,54.489,1.079,50.712,0,48.554C2.697,48.554,6.474,46.936,8.092,48.554C16.724,55.568,26.435,52.87,35.606,52.331C37.764,52.331,41.541,48.554,41.541,45.857C44.778,20.501,57.186,5.935,82.003,3.237C94.95,1.619,108.438,4.856,121.925,5.395C123.543,5.395,126.241,5.935,127.32,5.395C144.044,-3.776,162.387,0.54,172.637,16.724C174.795,20.501,177.492,23.738,180.729,26.435C184.506,30.212,186.124,35.067,182.348,38.843C179.65,42.08,174.795,44.778,170.479,44.778C162.387,44.238,153.755,42.08,145.662,40.462C140.807,39.383,137.57,40.462,133.254,43.699C122.464,52.87,113.832,62.581,117.609,78.226C118.688,82.003,116.53,86.858,115.451,91.174C114.911,92.792,112.214,95.49,110.596,94.95C108.438,94.95,105.74,92.792,105.201,90.634C104.122,86.318,102.503,80.924,103.582,76.608C105.74,64.199,99.266,57.725,89.555,51.252ZM89.555,51.252"/>
</g>
  <g id="Bold-L" transform="matrix(1.0,0.0,0.0,1.0,2246.8491727110595,1472.2158797826523)">  <path stroke-opacity="1" stroke-linecap="butt" stroke-width="1px" stroke-linejoin="miter" fill-opacity="1" fill="#000000" clip-path="url(#clip0_211_2954)" stroke-dasharray="none" fill-rule="nonzero" stroke="none" stroke-miterlimit="4" d="M89.555,51.252C86.858,55.028,84.161,58.265,82.003,62.041C74.45,74.989,74.989,76.068,89.555,77.687C92.253,78.226,97.648,82.542,97.108,83.621C96.029,87.397,93.332,92.253,90.095,93.332C75.529,98.187,58.265,85.779,56.646,70.673C56.107,65.818,53.949,64.199,49.094,64.199C39.922,64.199,31.29,64.199,22.119,62.581C15.645,61.502,9.171,58.265,3.237,55.568C1.618,54.489,1.079,50.712,0,48.554C2.697,48.554,6.474,46.936,8.092,48.554C16.724,55.568,26.435,52.87,35.606,52.331C37.764,52.331,41.541,48.554,41.541,45.857C44.778,20.501,57.186,5.935,82.003,3.237C94.95,1.619,108.438,4.856,121.925,5.395C123.543,5.395,126.241,5.935,127.32,5.395C144.044,-3.776,162.387,0.54,172.637,16.724C174.795,20.501,177.492,23.738,180.729,26.435C184.506,30.212,186.124,35.067,182.348,38.843C179.65,42.08,174.795,44.778,170.479,44.778C162.387,44.238,153.755,42.08,145.662,40.462C140.807,39.383,137.57,40.462,133.254,43.699C122.464,52.87,113.832,62.581,117.609,78.226C118.688,82.003,116.53,86.858,115.451,91.174C114.911,92.792,112.214,95.49,110.596,94.95C108.438,94.95,105.74,92.792,105.201,90.634C104.122,86.318,102.503,80.924,103.582,76.608C105.74,64.199,99.266,57.725,89.555,51.252ZM89.555,51.252"/>
</g>
  <g id="Semibold-L" transform="matrix(1.0,0.0,0.0,1.0,1950.13917271106,1472.2158797826523)">  <path stroke-width="1px" stroke="none" fill-rule="nonzero" stroke-miterlimit="4" stroke-dasharray="none" fill-opacity="1" clip-path="url(#clip0_211_2954)" fill="#000000" stroke-opacity="1" stroke-linecap="butt" stroke-linejoin="miter" d="M89.555,51.252C86.858,55.028,84.161,58.265,82.003,62.041C74.45,74.989,74.989,76.068,89.555,77.687C92.253,78.226,97.648,82.542,97.108,83.621C96.029,87.397,93.332,92.253,90.095,93.332C75.529,98.187,58.265,85.779,56.646,70.673C56.107,65.818,53.949,64.199,49.094,64.199C39.922,64.199,31.29,64.199,22.119,62.581C15.645,61.502,9.171,58.265,3.237,55.568C1.618,54.489,1.079,50.712,0,48.554C2.697,48.554,6.474,46.936,8.092,48.554C16.724,55.568,26.435,52.87,35.606,52.331C37.764,52.331,41.541,48.554,41.541,45.857C44.778,20.501,57.186,5.935,82.003,3.237C94.95,1.619,108.438,4.856,121.925,5.395C123.543,5.395,126.241,5.935,127.32,5.395C144.044,-3.776,162.387,0.54,172.637,16.724C174.795,20.501,177.492,23.738,180.729,26.435C184.506,30.212,186.124,35.067,182.348,38.843C179.65,42.08,174.795,44.778,170.479,44.778C162.387,44.238,153.755,42.08,145.662,40.462C140.807,39.383,137.57,40.462,133.254,43.699C122.464,52.87,113.832,62.581,117.609,78.226C118.688,82.003,116.53,86.858,115.451,91.174C114.911,92.792,112.214,95.49,110.596,94.95C108.438,94.95,105.74,92.792,105.201,90.634C104.122,86.318,102.503,80.924,103.582,76.608C105.74,64.199,99.266,57.725,89.555,51.252ZM89.555,51.252"/>
</g>
  <g id="Medium-L" transform="matrix(1.0,0.0,0.0,1.0,1653.42917271106,1472.2158797826523)">  <path fill-opacity="1" fill-rule="nonzero" stroke-linecap="butt" clip-path="url(#clip0_211_2954)" fill="#000000" stroke-width="1px" stroke-dasharray="none" stroke-linejoin="miter" stroke-opacity="1" stroke="none" stroke-miterlimit="4" d="M89.555,51.252C86.858,55.028,84.161,58.265,82.003,62.041C74.45,74.989,74.989,76.068,89.555,77.687C92.253,78.226,97.648,82.542,97.108,83.621C96.029,87.397,93.332,92.253,90.095,93.332C75.529,98.187,58.265,85.779,56.646,70.673C56.107,65.818,53.949,64.199,49.094,64.199C39.922,64.199,31.29,64.199,22.119,62.581C15.645,61.502,9.171,58.265,3.237,55.568C1.618,54.489,1.079,50.712,0,48.554C2.697,48.554,6.474,46.936,8.092,48.554C16.724,55.568,26.435,52.87,35.606,52.331C37.764,52.331,41.541,48.554,41.541,45.857C44.778,20.501,57.186,5.935,82.003,3.237C94.95,1.619,108.438,4.856,121.925,5.395C123.543,5.395,126.241,5.935,127.32,5.395C144.044,-3.776,162.387,0.54,172.637,16.724C174.795,20.501,177.492,23.738,180.729,26.435C184.506,30.212,186.124,35.067,182.348,38.843C179.65,42.08,174.795,44.778,170.479,44.778C162.387,44.238,153.755,42.08,145.662,40.462C140.807,39.383,137.57,40.462,133.254,43.699C122.464,52.87,113.832,62.581,117.609,78.226C118.688,82.003,116.53,86.858,115.451,91.174C114.911,92.792,112.214,95.49,110.596,94.95C108.438,94.95,105.74,92.792,105.201,90.634C104.122,86.318,102.503,80.924,103.582,76.608C105.74,64.199,99.266,57.725,89.555,51.252ZM89.555,51.252"/>
</g>
  <g id="Regular-L" transform="matrix(1.0,0.0,0.0,1.0,1356.7191727110599,1472.2158797826523)">  <path clip-path="url(#clip0_211_2954)" stroke="none" fill-opacity="1" stroke-linecap="butt" stroke-miterlimit="4" fill="#000000" stroke-linejoin="miter" stroke-width="1px" fill-rule="nonzero" stroke-dasharray="none" stroke-opacity="1" d="M89.555,51.252C86.858,55.028,84.161,58.265,82.003,62.041C74.45,74.989,74.989,76.068,89.555,77.687C92.253,78.226,97.648,82.542,97.108,83.621C96.029,87.397,93.332,92.253,90.095,93.332C75.529,98.187,58.265,85.779,56.646,70.673C56.107,65.818,53.949,64.199,49.094,64.199C39.922,64.199,31.29,64.199,22.119,62.581C15.645,61.502,9.171,58.265,3.237,55.568C1.618,54.489,1.079,50.712,0,48.554C2.697,48.554,6.474,46.936,8.092,48.554C16.724,55.568,26.435,52.87,35.606,52.331C37.764,52.331,41.541,48.554,41.541,45.857C44.778,20.501,57.186,5.935,82.003,3.237C94.95,1.619,108.438,4.856,121.925,5.395C123.543,5.395,126.241,5.935,127.32,5.395C144.044,-3.776,162.387,0.54,172.637,16.724C174.795,20.501,177.492,23.738,180.729,26.435C184.506,30.212,186.124,35.067,182.348,38.843C179.65,42.08,174.795,44.778,170.479,44.778C162.387,44.238,153.755,42.08,145.662,40.462C140.807,39.383,137.57,40.462,133.254,43.699C122.464,52.87,113.832,62.581,117.609,78.226C118.688,82.003,116.53,86.858,115.451,91.174C114.911,92.792,112.214,95.49,110.596,94.95C108.438,94.95,105.74,92.792,105.201,90.634C104.122,86.318,102.503,80.924,103.582,76.608C105.74,64.199,99.266,57.725,89.555,51.252ZM89.555,51.252"/>
</g>
  <g id="Light-L" transform="matrix(1.0,0.0,0.0,1.0,1060.00917271106,1472.2158797826523)">  <path fill-rule="nonzero" stroke-miterlimit="4" stroke-dasharray="none" stroke-linejoin="miter" stroke="none" stroke-width="1px" fill="#000000" stroke-linecap="butt" stroke-opacity="1" clip-path="url(#clip0_211_2954)" fill-opacity="1" d="M89.555,51.252C86.858,55.028,84.161,58.265,82.003,62.041C74.45,74.989,74.989,76.068,89.555,77.687C92.253,78.226,97.648,82.542,97.108,83.621C96.029,87.397,93.332,92.253,90.095,93.332C75.529,98.187,58.265,85.779,56.646,70.673C56.107,65.818,53.949,64.199,49.094,64.199C39.922,64.199,31.29,64.199,22.119,62.581C15.645,61.502,9.171,58.265,3.237,55.568C1.618,54.489,1.079,50.712,0,48.554C2.697,48.554,6.474,46.936,8.092,48.554C16.724,55.568,26.435,52.87,35.606,52.331C37.764,52.331,41.541,48.554,41.541,45.857C44.778,20.501,57.186,5.935,82.003,3.237C94.95,1.619,108.438,4.856,121.925,5.395C123.543,5.395,126.241,5.935,127.32,5.395C144.044,-3.776,162.387,0.54,172.637,16.724C174.795,20.501,177.492,23.738,180.729,26.435C184.506,30.212,186.124,35.067,182.348,38.843C179.65,42.08,174.795,44.778,170.479,44.778C162.387,44.238,153.755,42.08,145.662,40.462C140.807,39.383,137.57,40.462,133.254,43.699C122.464,52.87,113.832,62.581,117.609,78.226C118.688,82.003,116.53,86.858,115.451,91.174C114.911,92.792,112.214,95.49,110.596,94.95C108.438,94.95,105.74,92.792,105.201,90.634C104.122,86.318,102.503,80.924,103.582,76.608C105.74,64.199,99.266,57.725,89.555,51.252ZM89.555,51.252"/>
</g>
  <g id="Thin-L" transform="matrix(1.0,0.0,0.0,1.0,763.29917271106,1472.2158797826523)">  <path stroke-dasharray="none" stroke-width="1px" fill-opacity="1" stroke="none" stroke-linejoin="miter" stroke-miterlimit="4" fill-rule="nonzero" stroke-linecap="butt" stroke-opacity="1" fill="#000000" clip-path="url(#clip0_211_2954)" d="M89.555,51.252C86.858,55.028,84.161,58.265,82.003,62.041C74.45,74.989,74.989,76.068,89.555,77.687C92.253,78.226,97.648,82.542,97.108,83.621C96.029,87.397,93.332,92.253,90.095,93.332C75.529,98.187,58.265,85.779,56.646,70.673C56.107,65.818,53.949,64.199,49.094,64.199C39.922,64.199,31.29,64.199,22.119,62.581C15.645,61.502,9.171,58.265,3.237,55.568C1.618,54.489,1.079,50.712,0,48.554C2.697,48.554,6.474,46.936,8.092,48.554C16.724,55.568,26.435,52.87,35.606,52.331C37.764,52.331,41.541,48.554,41.541,45.857C44.778,20.501,57.186,5.935,82.003,3.237C94.95,1.619,108.438,4.856,121.925,5.395C123.543,5.395,126.241,5.935,127.32,5.395C144.044,-3.776,162.387,0.54,172.637,16.724C174.795,20.501,177.492,23.738,180.729,26.435C184.506,30.212,186.124,35.067,182.348,38.843C179.65,42.08,174.795,44.778,170.479,44.778C162.387,44.238,153.755,42.08,145.662,40.462C140.807,39.383,137.57,40.462,133.254,43.699C122.464,52.87,113.832,62.581,117.609,78.226C118.688,82.003,116.53,86.858,115.451,91.174C114.911,92.792,112.214,95.49,110.596,94.95C108.438,94.95,105.74,92.792,105.201,90.634C104.122,86.318,102.503,80.924,103.582,76.608C105.74,64.199,99.266,57.725,89.555,51.252ZM89.555,51.252"/>
</g>
  <g id="Ultralight-L" transform="matrix(1.0,0.0,0.0,1.0,466.5891727110599,1472.2158797826523)">  <path stroke-miterlimit="4" fill="#000000" fill-rule="nonzero" stroke-linejoin="miter" stroke-dasharray="none" stroke="none" stroke-linecap="butt" stroke-opacity="1" clip-path="url(#clip0_211_2954)" fill-opacity="1" stroke-width="1px" d="M89.555,51.252C86.858,55.028,84.161,58.265,82.003,62.041C74.45,74.989,74.989,76.068,89.555,77.687C92.253,78.226,97.648,82.542,97.108,83.621C96.029,87.397,93.332,92.253,90.095,93.332C75.529,98.187,58.265,85.779,56.646,70.673C56.107,65.818,53.949,64.199,49.094,64.199C39.922,64.199,31.29,64.199,22.119,62.581C15.645,61.502,9.171,58.265,3.237,55.568C1.618,54.489,1.079,50.712,0,48.554C2.697,48.554,6.474,46.936,8.092,48.554C16.724,55.568,26.435,52.87,35.606,52.331C37.764,52.331,41.541,48.554,41.541,45.857C44.778,20.501,57.186,5.935,82.003,3.237C94.95,1.619,108.438,4.856,121.925,5.395C123.543,5.395,126.241,5.935,127.32,5.395C144.044,-3.776,162.387,0.54,172.637,16.724C174.795,20.501,177.492,23.738,180.729,26.435C184.506,30.212,186.124,35.067,182.348,38.843C179.65,42.08,174.795,44.778,170.479,44.778C162.387,44.238,153.755,42.08,145.662,40.462C140.807,39.383,137.57,40.462,133.254,43.699C122.464,52.87,113.832,62.581,117.609,78.226C118.688,82.003,116.53,86.858,115.451,91.174C114.911,92.792,112.214,95.49,110.596,94.95C108.438,94.95,105.74,92.792,105.201,90.634C104.122,86.318,102.503,80.924,103.582,76.608C105.74,64.199,99.266,57.725,89.555,51.252ZM89.555,51.252"/>
</g>
  <g id="Black-M" transform="matrix(1.0,0.0,0.0,1.0,2861.493312179116,1053.1311515090813)">  <path stroke-linecap="butt" fill-rule="nonzero" clip-path="url(#clip0_211_2954)" stroke-linejoin="miter" stroke-width="1px" stroke-opacity="1" fill-opacity="1" stroke-miterlimit="4" fill="#000000" stroke="none" stroke-dasharray="none" d="M69.423,39.73C67.332,42.657,65.241,45.167,63.568,48.094C57.713,58.131,58.131,58.968,69.423,60.222C71.514,60.64,75.696,63.986,75.278,64.822C74.441,67.75,72.35,71.514,69.841,72.35C58.549,76.114,45.167,66.495,43.912,54.785C43.494,51.022,41.821,49.767,38.057,49.767C30.948,49.767,24.256,49.767,17.147,48.512C12.128,47.676,7.11,45.167,2.509,43.076C1.255,42.239,0.836,39.312,0,37.639C2.091,37.639,5.019,36.384,6.273,37.639C12.964,43.076,20.492,40.985,27.602,40.566C29.275,40.566,32.202,37.639,32.202,35.548C34.711,15.892,44.33,4.6,63.568,2.509C73.605,1.255,84.06,3.764,94.515,4.182C95.77,4.182,97.861,4.6,98.697,4.182C111.662,-2.927,125.881,0.418,133.827,12.965C135.5,15.892,137.591,18.401,140.1,20.492C143.028,23.42,144.282,27.184,141.355,30.111C139.264,32.62,135.5,34.711,132.154,34.711C125.881,34.293,119.19,32.62,112.917,31.366C109.153,30.529,106.643,31.366,103.298,33.875C94.934,40.985,88.242,48.512,91.17,60.64C92.006,63.568,90.333,67.332,89.497,70.677C89.079,71.932,86.988,74.023,85.733,73.605C84.06,73.605,81.969,71.932,81.551,70.259C80.714,66.914,79.46,62.731,80.296,59.386C81.969,49.767,76.951,44.748,69.423,39.73ZM69.423,39.73"/>
</g>
  <g id="Heavy-M" transform="matrix(1.0,0.0,0.0,1.0,2564.783312179116,1053.1311515090813)">  <path clip-path="url(#clip0_211_2954)" stroke-dasharray="none" stroke-linejoin="miter" fill="#000000" stroke-linecap="butt" stroke-opacity="1" stroke="none" stroke-width="1px" fill-rule="nonzero" fill-opacity="1" stroke-miterlimit="4" d="M69.423,39.73C67.332,42.657,65.241,45.167,63.568,48.094C57.713,58.131,58.131,58.968,69.423,60.222C71.514,60.64,75.696,63.986,75.278,64.822C74.441,67.75,72.35,71.514,69.841,72.35C58.549,76.114,45.167,66.495,43.912,54.785C43.494,51.022,41.821,49.767,38.057,49.767C30.948,49.767,24.256,49.767,17.147,48.512C12.128,47.676,7.11,45.167,2.509,43.076C1.255,42.239,0.836,39.312,0,37.639C2.091,37.639,5.019,36.384,6.273,37.639C12.964,43.076,20.492,40.985,27.602,40.566C29.275,40.566,32.202,37.639,32.202,35.548C34.711,15.892,44.33,4.6,63.568,2.509C73.605,1.255,84.06,3.764,94.515,4.182C95.77,4.182,97.861,4.6,98.697,4.182C111.662,-2.927,125.881,0.418,133.827,12.965C135.5,15.892,137.591,18.401,140.1,20.492C143.028,23.42,144.282,27.184,141.355,30.111C139.264,32.62,135.5,34.711,132.154,34.711C125.881,34.293,119.19,32.62,112.917,31.366C109.153,30.529,106.643,31.366,103.298,33.875C94.934,40.985,88.242,48.512,91.17,60.64C92.006,63.568,90.333,67.332,89.497,70.677C89.079,71.932,86.988,74.023,85.733,73.605C84.06,73.605,81.969,71.932,81.551,70.259C80.714,66.914,79.46,62.731,80.296,59.386C81.969,49.767,76.951,44.748,69.423,39.73ZM69.423,39.73"/>
</g>
  <g id="Bold-M" transform="matrix(1.0,0.0,0.0,1.0,2268.073312179116,1053.1311515090813)">  <path stroke-opacity="1" stroke-linecap="butt" stroke-width="1px" stroke-linejoin="miter" fill-opacity="1" fill="#000000" clip-path="url(#clip0_211_2954)" stroke-dasharray="none" fill-rule="nonzero" stroke="none" stroke-miterlimit="4" d="M69.423,39.73C67.332,42.657,65.241,45.167,63.568,48.094C57.713,58.131,58.131,58.968,69.423,60.222C71.514,60.64,75.696,63.986,75.278,64.822C74.441,67.75,72.35,71.514,69.841,72.35C58.549,76.114,45.167,66.495,43.912,54.785C43.494,51.022,41.821,49.767,38.057,49.767C30.948,49.767,24.256,49.767,17.147,48.512C12.128,47.676,7.11,45.167,2.509,43.076C1.255,42.239,0.836,39.312,0,37.639C2.091,37.639,5.019,36.384,6.273,37.639C12.964,43.076,20.492,40.985,27.602,40.566C29.275,40.566,32.202,37.639,32.202,35.548C34.711,15.892,44.33,4.6,63.568,2.509C73.605,1.255,84.06,3.764,94.515,4.182C95.77,4.182,97.861,4.6,98.697,4.182C111.662,-2.927,125.881,0.418,133.827,12.965C135.5,15.892,137.591,18.401,140.1,20.492C143.028,23.42,144.282,27.184,141.355,30.111C139.264,32.62,135.5,34.711,132.154,34.711C125.881,34.293,119.19,32.62,112.917,31.366C109.153,30.529,106.643,31.366,103.298,33.875C94.934,40.985,88.242,48.512,91.17,60.64C92.006,63.568,90.333,67.332,89.497,70.677C89.079,71.932,86.988,74.023,85.733,73.605C84.06,73.605,81.969,71.932,81.551,70.259C80.714,66.914,79.46,62.731,80.296,59.386C81.969,49.767,76.951,44.748,69.423,39.73ZM69.423,39.73"/>
</g>
  <g id="Semibold-M" transform="matrix(1.0,0.0,0.0,1.0,1971.3633121791163,1053.1311515090813)">  <path stroke-width="1px" stroke="none" fill-rule="nonzero" stroke-miterlimit="4" stroke-dasharray="none" fill-opacity="1" clip-path="url(#clip0_211_2954)" fill="#000000" stroke-opacity="1" stroke-linecap="butt" stroke-linejoin="miter" d="M69.423,39.73C67.332,42.657,65.241,45.167,63.568,48.094C57.713,58.131,58.131,58.968,69.423,60.222C71.514,60.64,75.696,63.986,75.278,64.822C74.441,67.75,72.35,71.514,69.841,72.35C58.549,76.114,45.167,66.495,43.912,54.785C43.494,51.022,41.821,49.767,38.057,49.767C30.948,49.767,24.256,49.767,17.147,48.512C12.128,47.676,7.11,45.167,2.509,43.076C1.255,42.239,0.836,39.312,0,37.639C2.091,37.639,5.019,36.384,6.273,37.639C12.964,43.076,20.492,40.985,27.602,40.566C29.275,40.566,32.202,37.639,32.202,35.548C34.711,15.892,44.33,4.6,63.568,2.509C73.605,1.255,84.06,3.764,94.515,4.182C95.77,4.182,97.861,4.6,98.697,4.182C111.662,-2.927,125.881,0.418,133.827,12.965C135.5,15.892,137.591,18.401,140.1,20.492C143.028,23.42,144.282,27.184,141.355,30.111C139.264,32.62,135.5,34.711,132.154,34.711C125.881,34.293,119.19,32.62,112.917,31.366C109.153,30.529,106.643,31.366,103.298,33.875C94.934,40.985,88.242,48.512,91.17,60.64C92.006,63.568,90.333,67.332,89.497,70.677C89.079,71.932,86.988,74.023,85.733,73.605C84.06,73.605,81.969,71.932,81.551,70.259C80.714,66.914,79.46,62.731,80.296,59.386C81.969,49.767,76.951,44.748,69.423,39.73ZM69.423,39.73"/>
</g>
  <g id="Medium-M" transform="matrix(1.0,0.0,0.0,1.0,1674.6533121791163,1053.1311515090813)">  <path fill-opacity="1" fill-rule="nonzero" stroke-linecap="butt" clip-path="url(#clip0_211_2954)" fill="#000000" stroke-width="1px" stroke-dasharray="none" stroke-linejoin="miter" stroke-opacity="1" stroke="none" stroke-miterlimit="4" d="M69.423,39.73C67.332,42.657,65.241,45.167,63.568,48.094C57.713,58.131,58.131,58.968,69.423,60.222C71.514,60.64,75.696,63.986,75.278,64.822C74.441,67.75,72.35,71.514,69.841,72.35C58.549,76.114,45.167,66.495,43.912,54.785C43.494,51.022,41.821,49.767,38.057,49.767C30.948,49.767,24.256,49.767,17.147,48.512C12.128,47.676,7.11,45.167,2.509,43.076C1.255,42.239,0.836,39.312,0,37.639C2.091,37.639,5.019,36.384,6.273,37.639C12.964,43.076,20.492,40.985,27.602,40.566C29.275,40.566,32.202,37.639,32.202,35.548C34.711,15.892,44.33,4.6,63.568,2.509C73.605,1.255,84.06,3.764,94.515,4.182C95.77,4.182,97.861,4.6,98.697,4.182C111.662,-2.927,125.881,0.418,133.827,12.965C135.5,15.892,137.591,18.401,140.1,20.492C143.028,23.42,144.282,27.184,141.355,30.111C139.264,32.62,135.5,34.711,132.154,34.711C125.881,34.293,119.19,32.62,112.917,31.366C109.153,30.529,106.643,31.366,103.298,33.875C94.934,40.985,88.242,48.512,91.17,60.64C92.006,63.568,90.333,67.332,89.497,70.677C89.079,71.932,86.988,74.023,85.733,73.605C84.06,73.605,81.969,71.932,81.551,70.259C80.714,66.914,79.46,62.731,80.296,59.386C81.969,49.767,76.951,44.748,69.423,39.73ZM69.423,39.73"/>
</g>
  <g id="Regular-M" transform="matrix(1.0,0.0,0.0,1.0,1377.9433121791162,1053.1311515090813)">  <path clip-path="url(#clip0_211_2954)" stroke="none" fill-opacity="1" stroke-linecap="butt" stroke-miterlimit="4" fill="#000000" stroke-linejoin="miter" stroke-width="1px" fill-rule="nonzero" stroke-dasharray="none" stroke-opacity="1" d="M69.423,39.73C67.332,42.657,65.241,45.167,63.568,48.094C57.713,58.131,58.131,58.968,69.423,60.222C71.514,60.64,75.696,63.986,75.278,64.822C74.441,67.75,72.35,71.514,69.841,72.35C58.549,76.114,45.167,66.495,43.912,54.785C43.494,51.022,41.821,49.767,38.057,49.767C30.948,49.767,24.256,49.767,17.147,48.512C12.128,47.676,7.11,45.167,2.509,43.076C1.255,42.239,0.836,39.312,0,37.639C2.091,37.639,5.019,36.384,6.273,37.639C12.964,43.076,20.492,40.985,27.602,40.566C29.275,40.566,32.202,37.639,32.202,35.548C34.711,15.892,44.33,4.6,63.568,2.509C73.605,1.255,84.06,3.764,94.515,4.182C95.77,4.182,97.861,4.6,98.697,4.182C111.662,-2.927,125.881,0.418,133.827,12.965C135.5,15.892,137.591,18.401,140.1,20.492C143.028,23.42,144.282,27.184,141.355,30.111C139.264,32.62,135.5,34.711,132.154,34.711C125.881,34.293,119.19,32.62,112.917,31.366C109.153,30.529,106.643,31.366,103.298,33.875C94.934,40.985,88.242,48.512,91.17,60.64C92.006,63.568,90.333,67.332,89.497,70.677C89.079,71.932,86.988,74.023,85.733,73.605C84.06,73.605,81.969,71.932,81.551,70.259C80.714,66.914,79.46,62.731,80.296,59.386C81.969,49.767,76.951,44.748,69.423,39.73ZM69.423,39.73"/>
</g>
  <g id="Light-M" transform="matrix(1.0,0.0,0.0,1.0,1081.2333121791162,1053.1311515090813)">  <path fill-rule="nonzero" stroke-miterlimit="4" stroke-dasharray="none" stroke-linejoin="miter" stroke="none" stroke-width="1px" fill="#000000" stroke-linecap="butt" stroke-opacity="1" clip-path="url(#clip0_211_2954)" fill-opacity="1" d="M69.423,39.73C67.332,42.657,65.241,45.167,63.568,48.094C57.713,58.131,58.131,58.968,69.423,60.222C71.514,60.64,75.696,63.986,75.278,64.822C74.441,67.75,72.35,71.514,69.841,72.35C58.549,76.114,45.167,66.495,43.912,54.785C43.494,51.022,41.821,49.767,38.057,49.767C30.948,49.767,24.256,49.767,17.147,48.512C12.128,47.676,7.11,45.167,2.509,43.076C1.255,42.239,0.836,39.312,0,37.639C2.091,37.639,5.019,36.384,6.273,37.639C12.964,43.076,20.492,40.985,27.602,40.566C29.275,40.566,32.202,37.639,32.202,35.548C34.711,15.892,44.33,4.6,63.568,2.509C73.605,1.255,84.06,3.764,94.515,4.182C95.77,4.182,97.861,4.6,98.697,4.182C111.662,-2.927,125.881,0.418,133.827,12.965C135.5,15.892,137.591,18.401,140.1,20.492C143.028,23.42,144.282,27.184,141.355,30.111C139.264,32.62,135.5,34.711,132.154,34.711C125.881,34.293,119.19,32.62,112.917,31.366C109.153,30.529,106.643,31.366,103.298,33.875C94.934,40.985,88.242,48.512,91.17,60.64C92.006,63.568,90.333,67.332,89.497,70.677C89.079,71.932,86.988,74.023,85.733,73.605C84.06,73.605,81.969,71.932,81.551,70.259C80.714,66.914,79.46,62.731,80.296,59.386C81.969,49.767,76.951,44.748,69.423,39.73ZM69.423,39.73"/>
</g>
  <g id="Thin-M" transform="matrix(1.0,0.0,0.0,1.0,784.5233121791163,1053.1311515090813)">  <path stroke-dasharray="none" stroke-width="1px" fill-opacity="1" stroke="none" stroke-linejoin="miter" stroke-miterlimit="4" fill-rule="nonzero" stroke-linecap="butt" stroke-opacity="1" fill="#000000" clip-path="url(#clip0_211_2954)" d="M69.423,39.73C67.332,42.657,65.241,45.167,63.568,48.094C57.713,58.131,58.131,58.968,69.423,60.222C71.514,60.64,75.696,63.986,75.278,64.822C74.441,67.75,72.35,71.514,69.841,72.35C58.549,76.114,45.167,66.495,43.912,54.785C43.494,51.022,41.821,49.767,38.057,49.767C30.948,49.767,24.256,49.767,17.147,48.512C12.128,47.676,7.11,45.167,2.509,43.076C1.255,42.239,0.836,39.312,0,37.639C2.091,37.639,5.019,36.384,6.273,37.639C12.964,43.076,20.492,40.985,27.602,40.566C29.275,40.566,32.202,37.639,32.202,35.548C34.711,15.892,44.33,4.6,63.568,2.509C73.605,1.255,84.06,3.764,94.515,4.182C95.77,4.182,97.861,4.6,98.697,4.182C111.662,-2.927,125.881,0.418,133.827,12.965C135.5,15.892,137.591,18.401,140.1,20.492C143.028,23.42,144.282,27.184,141.355,30.111C139.264,32.62,135.5,34.711,132.154,34.711C125.881,34.293,119.19,32.62,112.917,31.366C109.153,30.529,106.643,31.366,103.298,33.875C94.934,40.985,88.242,48.512,91.17,60.64C92.006,63.568,90.333,67.332,89.497,70.677C89.079,71.932,86.988,74.023,85.733,73.605C84.06,73.605,81.969,71.932,81.551,70.259C80.714,66.914,79.46,62.731,80.296,59.386C81.969,49.767,76.951,44.748,69.423,39.73ZM69.423,39.73"/>
</g>
  <g id="Ultralight-M" transform="matrix(1.0,0.0,0.0,1.0,487.8133121791162,1053.1311515090813)">  <path stroke-miterlimit="4" fill="#000000" fill-rule="nonzero" stroke-linejoin="miter" stroke-dasharray="none" stroke="none" stroke-linecap="butt" stroke-opacity="1" clip-path="url(#clip0_211_2954)" fill-opacity="1" stroke-width="1px" d="M69.423,39.73C67.332,42.657,65.241,45.167,63.568,48.094C57.713,58.131,58.131,58.968,69.423,60.222C71.514,60.64,75.696,63.986,75.278,64.822C74.441,67.75,72.35,71.514,69.841,72.35C58.549,76.114,45.167,66.495,43.912,54.785C43.494,51.022,41.821,49.767,38.057,49.767C30.948,49.767,24.256,49.767,17.147,48.512C12.128,47.676,7.11,45.167,2.509,43.076C1.255,42.239,0.836,39.312,0,37.639C2.091,37.639,5.019,36.384,6.273,37.639C12.964,43.076,20.492,40.985,27.602,40.566C29.275,40.566,32.202,37.639,32.202,35.548C34.711,15.892,44.33,4.6,63.568,2.509C73.605,1.255,84.06,3.764,94.515,4.182C95.77,4.182,97.861,4.6,98.697,4.182C111.662,-2.927,125.881,0.418,133.827,12.965C135.5,15.892,137.591,18.401,140.1,20.492C143.028,23.42,144.282,27.184,141.355,30.111C139.264,32.62,135.5,34.711,132.154,34.711C125.881,34.293,119.19,32.62,112.917,31.366C109.153,30.529,106.643,31.366,103.298,33.875C94.934,40.985,88.242,48.512,91.17,60.64C92.006,63.568,90.333,67.332,89.497,70.677C89.079,71.932,86.988,74.023,85.733,73.605C84.06,73.605,81.969,71.932,81.551,70.259C80.714,66.914,79.46,62.731,80.296,59.386C81.969,49.767,76.951,44.748,69.423,39.73ZM69.423,39.73"/>
</g>
  <g id="Black-S" transform="matrix(1.0,0.0,0.0,1.0,2877.374823436248,631.2987858698918)">  <path stroke-linecap="butt" fill-rule="nonzero" clip-path="url(#clip0_211_2954)" stroke-linejoin="miter" stroke-width="1px" stroke-opacity="1" fill-opacity="1" stroke-miterlimit="4" fill="#000000" stroke="none" stroke-dasharray="none" d="M54.358,31.109C52.721,33.401,51.083,35.365,49.774,37.658C45.189,45.517,45.517,46.172,54.358,47.154C55.995,47.481,59.27,50.101,58.942,50.756C58.288,53.048,56.65,55.995,54.686,56.65C45.844,59.597,35.365,52.066,34.383,42.897C34.056,39.95,32.746,38.968,29.799,38.968C24.232,38.968,18.993,38.968,13.426,37.985C9.496,37.33,5.567,35.365,1.965,33.728C0.982,33.073,0.655,30.781,0,29.471C1.637,29.471,3.929,28.489,4.912,29.471C10.151,33.728,16.045,32.091,21.612,31.764C22.922,31.764,25.214,29.471,25.214,27.834C27.179,12.443,34.711,3.602,49.774,1.965C57.633,0.982,65.819,2.947,74.006,3.275C74.988,3.275,76.625,3.602,77.28,3.275C87.431,-2.292,98.565,0.328,104.787,10.151C106.096,12.443,107.734,14.408,109.698,16.046C111.991,18.338,112.973,21.285,110.681,23.577C109.044,25.542,106.096,27.179,103.477,27.179C98.565,26.852,93.326,25.542,88.414,24.559C85.467,23.905,83.502,24.559,80.882,26.524C74.333,32.091,69.094,37.985,71.386,47.481C72.041,49.774,70.731,52.721,70.076,55.34C69.749,56.323,68.111,57.96,67.129,57.633C65.819,57.633,64.182,56.323,63.854,55.013C63.199,52.393,62.217,49.119,62.872,46.499C64.182,38.968,60.252,35.038,54.358,31.109ZM54.358,31.109"/>
</g>
  <g id="Heavy-S" transform="matrix(1.0,0.0,0.0,1.0,2580.664823436248,631.2987858698918)">  <path clip-path="url(#clip0_211_2954)" stroke-dasharray="none" stroke-linejoin="miter" fill="#000000" stroke-linecap="butt" stroke-opacity="1" stroke="none" stroke-width="1px" fill-rule="nonzero" fill-opacity="1" stroke-miterlimit="4" d="M54.358,31.109C52.721,33.401,51.083,35.365,49.774,37.658C45.189,45.517,45.517,46.172,54.358,47.154C55.995,47.481,59.27,50.101,58.942,50.756C58.288,53.048,56.65,55.995,54.686,56.65C45.844,59.597,35.365,52.066,34.383,42.897C34.056,39.95,32.746,38.968,29.799,38.968C24.232,38.968,18.993,38.968,13.426,37.985C9.496,37.33,5.567,35.365,1.965,33.728C0.982,33.073,0.655,30.781,0,29.471C1.637,29.471,3.929,28.489,4.912,29.471C10.151,33.728,16.045,32.091,21.612,31.764C22.922,31.764,25.214,29.471,25.214,27.834C27.179,12.443,34.711,3.602,49.774,1.965C57.633,0.982,65.819,2.947,74.006,3.275C74.988,3.275,76.625,3.602,77.28,3.275C87.431,-2.292,98.565,0.328,104.787,10.151C106.096,12.443,107.734,14.408,109.698,16.046C111.991,18.338,112.973,21.285,110.681,23.577C109.044,25.542,106.096,27.179,103.477,27.179C98.565,26.852,93.326,25.542,88.414,24.559C85.467,23.905,83.502,24.559,80.882,26.524C74.333,32.091,69.094,37.985,71.386,47.481C72.041,49.774,70.731,52.721,70.076,55.34C69.749,56.323,68.111,57.96,67.129,57.633C65.819,57.633,64.182,56.323,63.854,55.013C63.199,52.393,62.217,49.119,62.872,46.499C64.182,38.968,60.252,35.038,54.358,31.109ZM54.358,31.109"/>
</g>
  <g id="Bold-S" transform="matrix(1.0,0.0,0.0,1.0,2283.954823436248,631.2987858698918)">  <path stroke-opacity="1" stroke-linecap="butt" stroke-width="1px" stroke-linejoin="miter" fill-opacity="1" fill="#000000" clip-path="url(#clip0_211_2954)" stroke-dasharray="none" fill-rule="nonzero" stroke="none" stroke-miterlimit="4" d="M54.358,31.109C52.721,33.401,51.083,35.365,49.774,37.658C45.189,45.517,45.517,46.172,54.358,47.154C55.995,47.481,59.27,50.101,58.942,50.756C58.288,53.048,56.65,55.995,54.686,56.65C45.844,59.597,35.365,52.066,34.383,42.897C34.056,39.95,32.746,38.968,29.799,38.968C24.232,38.968,18.993,38.968,13.426,37.985C9.496,37.33,5.567,35.365,1.965,33.728C0.982,33.073,0.655,30.781,0,29.471C1.637,29.471,3.929,28.489,4.912,29.471C10.151,33.728,16.045,32.091,21.612,31.764C22.922,31.764,25.214,29.471,25.214,27.834C27.179,12.443,34.711,3.602,49.774,1.965C57.633,0.982,65.819,2.947,74.006,3.275C74.988,3.275,76.625,3.602,77.28,3.275C87.431,-2.292,98.565,0.328,104.787,10.151C106.096,12.443,107.734,14.408,109.698,16.046C111.991,18.338,112.973,21.285,110.681,23.577C109.044,25.542,106.096,27.179,103.477,27.179C98.565,26.852,93.326,25.542,88.414,24.559C85.467,23.905,83.502,24.559,80.882,26.524C74.333,32.091,69.094,37.985,71.386,47.481C72.041,49.774,70.731,52.721,70.076,55.34C69.749,56.323,68.111,57.96,67.129,57.633C65.819,57.633,64.182,56.323,63.854,55.013C63.199,52.393,62.217,49.119,62.872,46.499C64.182,38.968,60.252,35.038,54.358,31.109ZM54.358,31.109"/>
</g>
  <g id="Semibold-S" transform="matrix(1.0,0.0,0.0,1.0,1987.244823436248,631.2987858698918)">  <path stroke-width="1px" stroke="none" fill-rule="nonzero" stroke-miterlimit="4" stroke-dasharray="none" fill-opacity="1" clip-path="url(#clip0_211_2954)" fill="#000000" stroke-opacity="1" stroke-linecap="butt" stroke-linejoin="miter" d="M54.358,31.109C52.721,33.401,51.083,35.365,49.774,37.658C45.189,45.517,45.517,46.172,54.358,47.154C55.995,47.481,59.27,50.101,58.942,50.756C58.288,53.048,56.65,55.995,54.686,56.65C45.844,59.597,35.365,52.066,34.383,42.897C34.056,39.95,32.746,38.968,29.799,38.968C24.232,38.968,18.993,38.968,13.426,37.985C9.496,37.33,5.567,35.365,1.965,33.728C0.982,33.073,0.655,30.781,0,29.471C1.637,29.471,3.929,28.489,4.912,29.471C10.151,33.728,16.045,32.091,21.612,31.764C22.922,31.764,25.214,29.471,25.214,27.834C27.179,12.443,34.711,3.602,49.774,1.965C57.633,0.982,65.819,2.947,74.006,3.275C74.988,3.275,76.625,3.602,77.28,3.275C87.431,-2.292,98.565,0.328,104.787,10.151C106.096,12.443,107.734,14.408,109.698,16.046C111.991,18.338,112.973,21.285,110.681,23.577C109.044,25.542,106.096,27.179,103.477,27.179C98.565,26.852,93.326,25.542,88.414,24.559C85.467,23.905,83.502,24.559,80.882,26.524C74.333,32.091,69.094,37.985,71.386,47.481C72.041,49.774,70.731,52.721,70.076,55.34C69.749,56.323,68.111,57.96,67.129,57.633C65.819,57.633,64.182,56.323,63.854,55.013C63.199,52.393,62.217,49.119,62.872,46.499C64.182,38.968,60.252,35.038,54.358,31.109ZM54.358,31.109"/>
</g>
  <g id="Medium-S" transform="matrix(1.0,0.0,0.0,1.0,1690.534823436248,631.2987858698918)">  <path fill-opacity="1" fill-rule="nonzero" stroke-linecap="butt" clip-path="url(#clip0_211_2954)" fill="#000000" stroke-width="1px" stroke-dasharray="none" stroke-linejoin="miter" stroke-opacity="1" stroke="none" stroke-miterlimit="4" d="M54.358,31.109C52.721,33.401,51.083,35.365,49.774,37.658C45.189,45.517,45.517,46.172,54.358,47.154C55.995,47.481,59.27,50.101,58.942,50.756C58.288,53.048,56.65,55.995,54.686,56.65C45.844,59.597,35.365,52.066,34.383,42.897C34.056,39.95,32.746,38.968,29.799,38.968C24.232,38.968,18.993,38.968,13.426,37.985C9.496,37.33,5.567,35.365,1.965,33.728C0.982,33.073,0.655,30.781,0,29.471C1.637,29.471,3.929,28.489,4.912,29.471C10.151,33.728,16.045,32.091,21.612,31.764C22.922,31.764,25.214,29.471,25.214,27.834C27.179,12.443,34.711,3.602,49.774,1.965C57.633,0.982,65.819,2.947,74.006,3.275C74.988,3.275,76.625,3.602,77.28,3.275C87.431,-2.292,98.565,0.328,104.787,10.151C106.096,12.443,107.734,14.408,109.698,16.046C111.991,18.338,112.973,21.285,110.681,23.577C109.044,25.542,106.096,27.179,103.477,27.179C98.565,26.852,93.326,25.542,88.414,24.559C85.467,23.905,83.502,24.559,80.882,26.524C74.333,32.091,69.094,37.985,71.386,47.481C72.041,49.774,70.731,52.721,70.076,55.34C69.749,56.323,68.111,57.96,67.129,57.633C65.819,57.633,64.182,56.323,63.854,55.013C63.199,52.393,62.217,49.119,62.872,46.499C64.182,38.968,60.252,35.038,54.358,31.109ZM54.358,31.109"/>
</g>
  <g id="Regular-S" transform="matrix(1.0,0.0,0.0,1.0,1393.824823436248,631.2987858698918)">  <path clip-path="url(#clip0_211_2954)" stroke="none" fill-opacity="1" stroke-linecap="butt" stroke-miterlimit="4" fill="#000000" stroke-linejoin="miter" stroke-width="1px" fill-rule="nonzero" stroke-dasharray="none" stroke-opacity="1" d="M54.358,31.109C52.721,33.401,51.083,35.365,49.774,37.658C45.189,45.517,45.517,46.172,54.358,47.154C55.995,47.481,59.27,50.101,58.942,50.756C58.288,53.048,56.65,55.995,54.686,56.65C45.844,59.597,35.365,52.066,34.383,42.897C34.056,39.95,32.746,38.968,29.799,38.968C24.232,38.968,18.993,38.968,13.426,37.985C9.496,37.33,5.567,35.365,1.965,33.728C0.982,33.073,0.655,30.781,0,29.471C1.637,29.471,3.929,28.489,4.912,29.471C10.151,33.728,16.045,32.091,21.612,31.764C22.922,31.764,25.214,29.471,25.214,27.834C27.179,12.443,34.711,3.602,49.774,1.965C57.633,0.982,65.819,2.947,74.006,3.275C74.988,3.275,76.625,3.602,77.28,3.275C87.431,-2.292,98.565,0.328,104.787,10.151C106.096,12.443,107.734,14.408,109.698,16.046C111.991,18.338,112.973,21.285,110.681,23.577C109.044,25.542,106.096,27.179,103.477,27.179C98.565,26.852,93.326,25.542,88.414,24.559C85.467,23.905,83.502,24.559,80.882,26.524C74.333,32.091,69.094,37.985,71.386,47.481C72.041,49.774,70.731,52.721,70.076,55.34C69.749,56.323,68.111,57.96,67.129,57.633C65.819,57.633,64.182,56.323,63.854,55.013C63.199,52.393,62.217,49.119,62.872,46.499C64.182,38.968,60.252,35.038,54.358,31.109ZM54.358,31.109"/>
</g>
  <g id="Light-S" transform="matrix(1.0,0.0,0.0,1.0,1097.1148234362481,631.2987858698918)">  <path fill-rule="nonzero" stroke-miterlimit="4" stroke-dasharray="none" stroke-linejoin="miter" stroke="none" stroke-width="1px" fill="#000000" stroke-linecap="butt" stroke-opacity="1" clip-path="url(#clip0_211_2954)" fill-opacity="1" d="M54.358,31.109C52.721,33.401,51.083,35.365,49.774,37.658C45.189,45.517,45.517,46.172,54.358,47.154C55.995,47.481,59.27,50.101,58.942,50.756C58.288,53.048,56.65,55.995,54.686,56.65C45.844,59.597,35.365,52.066,34.383,42.897C34.056,39.95,32.746,38.968,29.799,38.968C24.232,38.968,18.993,38.968,13.426,37.985C9.496,37.33,5.567,35.365,1.965,33.728C0.982,33.073,0.655,30.781,0,29.471C1.637,29.471,3.929,28.489,4.912,29.471C10.151,33.728,16.045,32.091,21.612,31.764C22.922,31.764,25.214,29.471,25.214,27.834C27.179,12.443,34.711,3.602,49.774,1.965C57.633,0.982,65.819,2.947,74.006,3.275C74.988,3.275,76.625,3.602,77.28,3.275C87.431,-2.292,98.565,0.328,104.787,10.151C106.096,12.443,107.734,14.408,109.698,16.046C111.991,18.338,112.973,21.285,110.681,23.577C109.044,25.542,106.096,27.179,103.477,27.179C98.565,26.852,93.326,25.542,88.414,24.559C85.467,23.905,83.502,24.559,80.882,26.524C74.333,32.091,69.094,37.985,71.386,47.481C72.041,49.774,70.731,52.721,70.076,55.34C69.749,56.323,68.111,57.96,67.129,57.633C65.819,57.633,64.182,56.323,63.854,55.013C63.199,52.393,62.217,49.119,62.872,46.499C64.182,38.968,60.252,35.038,54.358,31.109ZM54.358,31.109"/>
</g>
  <g id="Thin-S" transform="matrix(1.0,0.0,0.0,1.0,800.4048234362481,631.2987858698918)">  <path stroke-dasharray="none" stroke-width="1px" fill-opacity="1" stroke="none" stroke-linejoin="miter" stroke-miterlimit="4" fill-rule="nonzero" stroke-linecap="butt" stroke-opacity="1" fill="#000000" clip-path="url(#clip0_211_2954)" d="M54.358,31.109C52.721,33.401,51.083,35.365,49.774,37.658C45.189,45.517,45.517,46.172,54.358,47.154C55.995,47.481,59.27,50.101,58.942,50.756C58.288,53.048,56.65,55.995,54.686,56.65C45.844,59.597,35.365,52.066,34.383,42.897C34.056,39.95,32.746,38.968,29.799,38.968C24.232,38.968,18.993,38.968,13.426,37.985C9.496,37.33,5.567,35.365,1.965,33.728C0.982,33.073,0.655,30.781,0,29.471C1.637,29.471,3.929,28.489,4.912,29.471C10.151,33.728,16.045,32.091,21.612,31.764C22.922,31.764,25.214,29.471,25.214,27.834C27.179,12.443,34.711,3.602,49.774,1.965C57.633,0.982,65.819,2.947,74.006,3.275C74.988,3.275,76.625,3.602,77.28,3.275C87.431,-2.292,98.565,0.328,104.787,10.151C106.096,12.443,107.734,14.408,109.698,16.046C111.991,18.338,112.973,21.285,110.681,23.577C109.044,25.542,106.096,27.179,103.477,27.179C98.565,26.852,93.326,25.542,88.414,24.559C85.467,23.905,83.502,24.559,80.882,26.524C74.333,32.091,69.094,37.985,71.386,47.481C72.041,49.774,70.731,52.721,70.076,55.34C69.749,56.323,68.111,57.96,67.129,57.633C65.819,57.633,64.182,56.323,63.854,55.013C63.199,52.393,62.217,49.119,62.872,46.499C64.182,38.968,60.252,35.038,54.358,31.109ZM54.358,31.109"/>
</g>
  <g id="Ultralight-S" transform="matrix(1.0,0.0,0.0,1.0,503.694823436248,631.2987858698918)">  <path stroke-miterlimit="4" fill="#000000" fill-rule="nonzero" stroke-linejoin="miter" stroke-dasharray="none" stroke="none" stroke-linecap="butt" stroke-opacity="1" clip-path="url(#clip0_211_2954)" fill-opacity="1" stroke-width="1px" d="M54.358,31.109C52.721,33.401,51.083,35.365,49.774,37.658C45.189,45.517,45.517,46.172,54.358,47.154C55.995,47.481,59.27,50.101,58.942,50.756C58.288,53.048,56.65,55.995,54.686,56.65C45.844,59.597,35.365,52.066,34.383,42.897C34.056,39.95,32.746,38.968,29.799,38.968C24.232,38.968,18.993,38.968,13.426,37.985C9.496,37.33,5.567,35.365,1.965,33.728C0.982,33.073,0.655,30.781,0,29.471C1.637,29.471,3.929,28.489,4.912,29.471C10.151,33.728,16.045,32.091,21.612,31.764C22.922,31.764,25.214,29.471,25.214,27.834C27.179,12.443,34.711,3.602,49.774,1.965C57.633,0.982,65.819,2.947,74.006,3.275C74.988,3.275,76.625,3.602,77.28,3.275C87.431,-2.292,98.565,0.328,104.787,10.151C106.096,12.443,107.734,14.408,109.698,16.046C111.991,18.338,112.973,21.285,110.681,23.577C109.044,25.542,106.096,27.179,103.477,27.179C98.565,26.852,93.326,25.542,88.414,24.559C85.467,23.905,83.502,24.559,80.882,26.524C74.333,32.091,69.094,37.985,71.386,47.481C72.041,49.774,70.731,52.721,70.076,55.34C69.749,56.323,68.111,57.96,67.129,57.633C65.819,57.633,64.182,56.323,63.854,55.013C63.199,52.393,62.217,49.119,62.872,46.499C64.182,38.968,60.252,35.038,54.358,31.109ZM54.358,31.109"/>
</g>
 </g>
</svg>
