<?xml version="1.0" encoding="UTF-8"?>
<!-- Generator: CustomSymbols v2.6.7.45 by @serious_bret https://bretlester.com/app_content/CustomSymbols/ -->
<!-- Guides: Left/Right 0.0/0.0 Cap/Base 0.032/0.032 -->
<!-- Settings: RefScale 1.0 Min/Max Stroke Scales 0.5/2.21 -->
<!DOCTYPE svg
PUBLIC "-//W3C//DTD SVG 1.1//EN"
       "http://www.w3.org/Graphics/SVG/1.1/DTD/svg11.dtd">
<svg version="1.1" xmlns="http://www.w3.org/2000/svg" xmlns:xlink="http://www.w3.org/1999/xlink" width="3300" height="2200">
<![CDATA[<svg width="29" height="27" viewBox="0 0 29 27" fill="none" xmlns="http://www.w3.org/2000/svg">
<path d="M5.8254 0.5C6.51593 0.5 7.75469 0.713435 7.75469 2.41359C7.75469 4.11375 6.52848 4.76766 5.8254 4.76766C5.12232 4.76766 4.04364 4.10015 4.04364 2.41359C4.04364 0.72599 5.22904 0.5 5.8254 0.5ZM2.03274 2.63435C2.72327 2.63435 3.96203 2.84674 3.96203 4.5469C3.96203 6.24706 2.73582 6.90096 2.03274 6.90096C1.32966 6.90096 0.250977 6.2345 0.250977 4.5469C0.250977 2.86034 1.43638 2.63435 2.03274 2.63435ZM12.332 2.41359C12.332 0.713435 11.0933 0.501046 10.4027 0.501046C9.80638 0.501046 8.62098 0.72599 8.62098 2.41359C8.62098 4.10015 9.69967 4.76766 10.4027 4.76766C11.1058 4.76766 12.332 4.11375 12.332 2.41359ZM14.1138 2.63435C14.8043 2.63435 16.0431 2.84674 16.0431 4.5469C16.0431 6.24706 14.8169 6.90096 14.1138 6.90096C13.4107 6.90096 12.332 6.2345 12.332 4.5469C12.332 2.86034 13.5174 2.63435 14.1138 2.63435ZM13.3615 10.9719C13.3615 7.91478 11.3841 5.26672 8.14703 5.26672C4.90993 5.26672 2.96495 7.84887 2.96495 10.9719C2.96495 13.5708 6.0629 13.5708 8.13971 13.5708H8.14703C10.4519 13.5708 13.3615 13.4892 13.3615 10.9719ZM14.5878 15.2385C15.2783 15.2385 16.517 15.4509 16.517 17.1511C16.517 18.8512 15.2908 19.5052 14.5878 19.5052C13.8847 19.5052 12.806 18.8376 12.806 17.1511C12.806 15.4635 13.9914 15.2385 14.5878 15.2385ZM20.3097 15.0178C20.3097 13.3176 19.0709 13.1052 18.3804 13.1052C17.784 13.1052 16.5986 13.3302 16.5986 15.0178C16.5986 16.7043 17.6773 17.3718 18.3804 17.3718C19.0835 17.3718 20.3097 16.7179 20.3097 15.0178ZM22.9578 13.1052C23.6483 13.1052 24.887 13.3176 24.887 15.0178C24.887 16.7179 23.6608 17.3718 22.9578 17.3718C22.2547 17.3718 21.176 16.7043 21.176 15.0178C21.176 13.3302 22.3614 13.1052 22.9578 13.1052ZM28.5981 17.1511C28.5981 15.4509 27.3593 15.2385 26.6688 15.2385C26.0724 15.2385 24.887 15.4635 24.887 17.1511C24.887 18.8376 25.9657 19.5052 26.6688 19.5052C27.3719 19.5052 28.5981 18.8512 28.5981 17.1511ZM20.702 17.8709C23.9391 17.8709 25.9166 20.5179 25.9166 23.5761C25.9166 26.0934 23.008 26.175 20.702 26.175H20.6937C18.6179 26.175 15.52 26.175 15.52 23.5761C15.52 20.4531 17.466 17.8709 20.702 17.8709Z" fill="#421A73"/>
</svg>
]]>
 <g id="Notes">
  <rect height="2200" id="artboard" style="fill:white;opacity:1" width="3300" x="0" y="0"/>
  <line id="" style="fill:none;stroke:black;opacity:1;stroke-width:0.5;" x1="263" x2="3036" y1="292" y2="292"/>
  <text id="reftext1" style="stroke:none;fill:black;font-family:-apple-system,&quot;SF Pro Display&quot;,&quot;SF Pro Text&quot;,Helvetica,sans-serif;font-weight:bold;" transform="matrix(1 0 0 1 263 322)">Weight/Scale Variations</text>
  <text id="reftext2" style="stroke:none;fill:black;font-family:-apple-system,&quot;SF Pro Display&quot;,&quot;SF Pro Text&quot;,Helvetica,sans-serif;text-anchor:middle;" transform="matrix(1 0 0 1 559.711 322)">Ultralight</text>
  <text style="stroke:none;fill:black;font-family:-apple-system,&quot;SF Pro Display&quot;,&quot;SF Pro Text&quot;,Helvetica,sans-serif;text-anchor:middle;" transform="matrix(1 0 0 1 856.422 322)">Thin</text>
  <text style="stroke:none;fill:black;font-family:-apple-system,&quot;SF Pro Display&quot;,&quot;SF Pro Text&quot;,Helvetica,sans-serif;text-anchor:middle;" transform="matrix(1 0 0 1 1153.13 322)">Light</text>
  <text style="stroke:none;fill:black;font-family:-apple-system,&quot;SF Pro Display&quot;,&quot;SF Pro Text&quot;,Helvetica,sans-serif;text-anchor:middle;" transform="matrix(1 0 0 1 1449.84 322)">Regular</text>
  <text style="stroke:none;fill:black;font-family:-apple-system,&quot;SF Pro Display&quot;,&quot;SF Pro Text&quot;,Helvetica,sans-serif;text-anchor:middle;" transform="matrix(1 0 0 1 1746.56 322)">Medium</text>
  <text style="stroke:none;fill:black;font-family:-apple-system,&quot;SF Pro Display&quot;,&quot;SF Pro Text&quot;,Helvetica,sans-serif;text-anchor:middle;" transform="matrix(1 0 0 1 2043.27 322)">Semibold</text>
  <text style="stroke:none;fill:black;font-family:-apple-system,&quot;SF Pro Display&quot;,&quot;SF Pro Text&quot;,Helvetica,sans-serif;text-anchor:middle;" transform="matrix(1 0 0 1 2339.98 322)">Bold</text>
  <text style="stroke:none;fill:black;font-family:-apple-system,&quot;SF Pro Display&quot;,&quot;SF Pro Text&quot;,Helvetica,sans-serif;text-anchor:middle;" transform="matrix(1 0 0 1 2636.69 322)">Heavy</text>
  <text style="stroke:none;fill:black;font-family:-apple-system,&quot;SF Pro Display&quot;,&quot;SF Pro Text&quot;,Helvetica,sans-serif;text-anchor:middle;" transform="matrix(1 0 0 1 2933.4 322)">Black</text>
  <line id="" style="fill:none;stroke:black;opacity:1;stroke-width:0.5;" x1="263" x2="3036" y1="1903" y2="1903"/>
  <g id="" transform="matrix(1 0 0 1 263 1933)">
   <path d="M9.24805 0.830078C13.5547 0.830078 17.1387-2.74414 17.1387-7.05078C17.1387-11.3574 13.5449-14.9316 9.23828-14.9316C4.94141-14.9316 1.36719-11.3574 1.36719-7.05078C1.36719-2.74414 4.95117 0.830078 9.24805 0.830078ZM9.24805-0.654297C5.70312-0.654297 2.87109-3.49609 2.87109-7.05078C2.87109-10.6055 5.69336-13.4473 9.23828-13.4473C12.793-13.4473 15.6348-10.6055 15.6445-7.05078C15.6543-3.49609 12.8027-0.654297 9.24805-0.654297ZM6.39648-6.31836L8.50586-6.31836L8.50586-4.19922C8.50586-3.75977 8.79883-3.45703 9.22852-3.45703C9.67773-3.45703 9.9707-3.75977 9.9707-4.19922L9.9707-6.31836L12.0996-6.31836C12.5391-6.31836 12.8418-6.61133 12.8418-7.04102C12.8418-7.48047 12.5391-7.7832 12.0996-7.7832L9.9707-7.7832L9.9707-9.89258C9.9707-10.3418 9.67773-10.6445 9.22852-10.6445C8.79883-10.6445 8.50586-10.3418 8.50586-9.89258L8.50586-7.7832L6.39648-7.7832C5.94727-7.7832 5.64453-7.48047 5.64453-7.04102C5.64453-6.61133 5.94727-6.31836 6.39648-6.31836Z"/>
  </g>
  <g id="" transform="matrix(1 0 0 1 281.506 1933)">
   <path d="M11.709 2.91016C17.1582 2.91016 21.6699-1.61133 21.6699-7.05078C21.6699-12.5 17.1484-17.0117 11.6992-17.0117C6.25977-17.0117 1.74805-12.5 1.74805-7.05078C1.74805-1.61133 6.26953 2.91016 11.709 2.91016ZM11.709 1.25C7.09961 1.25 3.41797-2.44141 3.41797-7.05078C3.41797-11.6602 7.08984-15.3516 11.6992-15.3516C16.3086-15.3516 20-11.6602 20.0098-7.05078C20.0195-2.44141 16.3184 1.25 11.709 1.25ZM7.98828-6.23047L10.8789-6.23047L10.8789-3.32031C10.8789-2.83203 11.2109-2.5 11.6895-2.5C12.1777-2.5 12.5195-2.83203 12.5195-3.32031L12.5195-6.23047L15.4297-6.23047C15.918-6.23047 16.25-6.5625 16.25-7.04102C16.25-7.5293 15.918-7.87109 15.4297-7.87109L12.5195-7.87109L12.5195-10.7617C12.5195-11.2695 12.1777-11.6016 11.6895-11.6016C11.2109-11.6016 10.8789-11.2598 10.8789-10.7617L10.8789-7.87109L7.98828-7.87109C7.48047-7.87109 7.14844-7.5293 7.14844-7.04102C7.14844-6.5625 7.49023-6.23047 7.98828-6.23047Z"/>
  </g>
  <g id="" transform="matrix(1 0 0 1 304.924 1933)">
   <path d="M14.9707 5.66406C21.9336 5.66406 27.6953-0.0976562 27.6953-7.05078C27.6953-14.0137 21.9238-19.7754 14.9609-19.7754C8.00781-19.7754 2.25586-14.0137 2.25586-7.05078C2.25586-0.0976562 8.01758 5.66406 14.9707 5.66406ZM14.9707 3.84766C8.93555 3.84766 4.08203-1.01562 4.08203-7.05078C4.08203-13.0957 8.92578-17.9492 14.9609-17.9492C21.0059-17.9492 25.8594-13.0957 25.8691-7.05078C25.8789-1.01562 21.0156 3.84766 14.9707 3.84766ZM10.0586-6.14258L14.0625-6.14258L14.0625-2.12891C14.0625-1.5918 14.4336-1.2207 14.9512-1.2207C15.4883-1.2207 15.8594-1.5918 15.8594-2.12891L15.8594-6.14258L19.8828-6.14258C20.4102-6.14258 20.791-6.51367 20.791-7.03125C20.791-7.56836 20.4199-7.94922 19.8828-7.94922L15.8594-7.94922L15.8594-11.9531C15.8594-12.5098 15.4883-12.8809 14.9512-12.8809C14.4336-12.8809 14.0625-12.5 14.0625-11.9531L14.0625-7.94922L10.0586-7.94922C9.50195-7.94922 9.13086-7.56836 9.13086-7.03125C9.13086-6.51367 9.51172-6.14258 10.0586-6.14258Z"/>
  </g>
  <text style="stroke:none;fill:black;font-family:-apple-system,&quot;SF Pro Display&quot;,&quot;SF Pro Text&quot;,Helvetica,sans-serif;font-weight:bold;" transform="matrix(1 0 0 1 263 1953)">Design Variations</text>
  <text style="stroke:none;fill:black;font-family:-apple-system,&quot;SF Pro Display&quot;,&quot;SF Pro Text&quot;,Helvetica,sans-serif;" transform="matrix(1 0 0 1 263 1971)">Symbols are supported in up to nine weights and three scales.</text>
  <text style="stroke:none;fill:black;font-family:-apple-system,&quot;SF Pro Display&quot;,&quot;SF Pro Text&quot;,Helvetica,sans-serif;" transform="matrix(1 0 0 1 263 1989)">For optimal layout with text and other symbols, vertically align</text>
  <text style="stroke:none;fill:black;font-family:-apple-system,&quot;SF Pro Display&quot;,&quot;SF Pro Text&quot;,Helvetica,sans-serif;" transform="matrix(1 0 0 1 263 2007)">symbols with the adjacent text.</text>
  <line id="" style="fill:none;stroke:#00AEEF;stroke-width:0.5;opacity:1.0;" x1="776" x2="776" y1="1919" y2="1933"/>
  <g id="" transform="matrix(1 0 0 1 776 1933)">
   <path d="M3.31055 0.126953C3.82812 0.126953 4.08203-0.0683594 4.26758-0.605469L5.52734-4.0625L11.2891-4.0625L12.5488-0.605469C12.7344-0.0683594 12.9883 0.126953 13.4961 0.126953C14.0137 0.126953 14.3457-0.185547 14.3457-0.673828C14.3457-0.839844 14.3164-0.986328 14.2383-1.20117L9.6582-13.3887C9.43359-13.9941 9.0332-14.2871 8.4082-14.2871C7.80273-14.2871 7.39258-13.9941 7.17773-13.3984L2.59766-1.19141C2.51953-0.976562 2.49023-0.830078 2.49023-0.664062C2.49023-0.175781 2.80273 0.126953 3.31055 0.126953ZM6.00586-5.53711L8.37891-12.1094L8.42773-12.1094L10.8008-5.53711Z"/>
  </g>
  <line id="" style="fill:none;stroke:#00AEEF;stroke-width:0.5;opacity:1.0;" x1="792.836" x2="792.836" y1="1919" y2="1933"/>
  <text style="stroke:none;fill:black;font-family:-apple-system,&quot;SF Pro Display&quot;,&quot;SF Pro Text&quot;,Helvetica,sans-serif;font-weight:bold;" transform="matrix(1 0 0 1 776 1953)">Margins</text>
  <text style="stroke:none;fill:black;font-family:-apple-system,&quot;SF Pro Display&quot;,&quot;SF Pro Text&quot;,Helvetica,sans-serif;" transform="matrix(1 0 0 1 776 1971)">Leading and trailing margins on the left and right side of each symbol</text>
  <text style="stroke:none;fill:black;font-family:-apple-system,&quot;SF Pro Display&quot;,&quot;SF Pro Text&quot;,Helvetica,sans-serif;" transform="matrix(1 0 0 1 776 1989)">can be adjusted by modifying the x-location of the margin guidelines.</text>
  <text style="stroke:none;fill:black;font-family:-apple-system,&quot;SF Pro Display&quot;,&quot;SF Pro Text&quot;,Helvetica,sans-serif;" transform="matrix(1 0 0 1 776 2007)">Modifications are automatically applied proportionally to all</text>
  <text style="stroke:none;fill:black;font-family:-apple-system,&quot;SF Pro Display&quot;,&quot;SF Pro Text&quot;,Helvetica,sans-serif;" transform="matrix(1 0 0 1 776 2025)">scales and weights.</text>
  <g id="" transform="matrix(1 0 0 1 1289 1933)">
   <path d="M2.8418 1.86523L4.54102 3.57422C5.40039 4.44336 6.38672 4.38477 7.31445 3.35938L17.4902-7.85156C17.7539-7.76367 18.0273-7.7832 18.3398-7.8418L19.4043-8.03711L20.0684-7.36328L20.0293-6.80664C19.9902-6.30859 20.1172-5.92773 20.6055-5.44922L21.3672-4.70703C21.8457-4.22852 22.4609-4.19922 22.9297-4.66797L25.8398-7.58789C26.3086-8.05664 26.2891-8.65234 25.8105-9.13086L25.0391-9.89258C24.5605-10.3711 24.1895-10.5273 23.7109-10.4883L23.1348-10.4395L22.4902-11.0742L22.7344-12.1973C22.8613-12.7637 22.7051-13.2031 22.1191-13.7891L19.9219-15.9766C16.582-19.2969 12.1484-19.2188 9.25781-16.3281C8.83789-15.918 8.80859-15.3418 9.04297-14.9512C9.27734-14.5898 9.73633-14.3555 10.3809-14.5215C11.8457-14.8633 13.3691-14.9219 14.7949-13.9844L14.209-12.5293C14.0137-12.0508 13.9844-11.6504 14.1113-11.2891L3.04688-0.898438C2.06055 0.0195312 1.98242 0.996094 2.8418 1.86523ZM10.752-15.957C13.1836-17.7344 16.4746-17.4316 18.7012-15.2051L21.1328-12.793C21.3672-12.5586 21.4062-12.373 21.3379-12.0312L21.0156-10.5469L22.5195-9.0625L23.5059-9.12109C23.7598-9.13086 23.8379-9.11133 24.0332-8.91602L24.6094-8.33984L22.168-5.89844L21.5918-6.47461C21.3965-6.66992 21.3672-6.74805 21.377-7.01172L21.4453-7.98828L19.9512-9.47266L18.4277-9.21875C18.1055-9.15039 17.959-9.17969 17.7148-9.41406L15.7129-11.416C15.459-11.6504 15.4297-11.8164 15.5859-12.1875L16.4648-14.2773C14.9023-15.7324 12.8711-16.3574 10.8398-15.7617C10.6836-15.7227 10.625-15.8496 10.752-15.957ZM5.27344 2.30469L4.10156 1.14258C3.63281 0.683594 3.74023 0.341797 4.14062-0.0195312L14.9512-10.1953L16.416-8.71094L6.42578 2.27539C6.07422 2.67578 5.74219 2.77344 5.27344 2.30469Z"/>
  </g>
  <text style="stroke:none;fill:black;font-family:-apple-system,&quot;SF Pro Display&quot;,&quot;SF Pro Text&quot;,Helvetica,sans-serif;font-weight:bold;" transform="matrix(1 0 0 1 1289 1953)">Exporting</text>
  <text style="stroke:none;fill:black;font-family:-apple-system,&quot;SF Pro Display&quot;,&quot;SF Pro Text&quot;,Helvetica,sans-serif;" transform="matrix(1 0 0 1 1289 1971)">Symbols should be outlined when exporting to ensure the</text>
  <text style="stroke:none;fill:black;font-family:-apple-system,&quot;SF Pro Display&quot;,&quot;SF Pro Text&quot;,Helvetica,sans-serif;" transform="matrix(1 0 0 1 1289 1989)">design is preserved when submitting to Xcode.</text>
  <text id="template-version" style="stroke:none;fill:black;font-family:-apple-system,&quot;SF Pro Display&quot;,&quot;SF Pro Text&quot;,Helvetica,sans-serif;text-anchor:end;" transform="matrix(1 0 0 1 3036 1933)">Template v.2.0</text>
  <text style="stroke:none;fill:black;font-family:-apple-system,&quot;SF Pro Display&quot;,&quot;SF Pro Text&quot;,Helvetica,sans-serif;text-anchor:end;" transform="matrix(1 0 0 1 3036 1951)">Requires Xcode 12 or greater</text>
  <text style="stroke:none;fill:black;font-family:-apple-system,&quot;SF Pro Display&quot;,&quot;SF Pro Text&quot;,Helvetica,sans-serif;" transform="matrix(1 0 0 1 263 726)">Small</text>
  <text style="stroke:none;fill:black;font-family:-apple-system,&quot;SF Pro Display&quot;,&quot;SF Pro Text&quot;,Helvetica,sans-serif;" transform="matrix(1 0 0 1 263 1156)">Medium</text>
  <text style="stroke:none;fill:black;font-family:-apple-system,&quot;SF Pro Display&quot;,&quot;SF Pro Text&quot;,Helvetica,sans-serif;" transform="matrix(1 0 0 1 263 1586)">Large</text>
 </g>
 <g id="Guides">
  <g id="H-reference" style="fill:#27AAE1;stroke:none;" transform="matrix(1 0 0 1 339 696)">
   <path d="M0.976562 0L3.66211 0L12.9883-24.4629L45.752-24.4629L55.127 0L57.7637 0L30.6152-70.459L28.125-70.459ZM29.3457-67.1387L29.4434-67.1387L44.873-26.709L13.8672-26.709Z"/>
  </g>
  <line id="Baseline-S" style="fill:none;stroke:#27AAE1;opacity:1;stroke-width:0.5;" x1="263" x2="3036" y1="696" y2="696"/>
  <line id="Capline-S" style="fill:none;stroke:#27AAE1;opacity:1;stroke-width:0.5;" x1="263" x2="3036" y1="625.541" y2="625.541"/>
  <g id="H-reference" style="fill:#27AAE1;stroke:none;" transform="matrix(1 0 0 1 339 1126)">
   <path d="M0.976562 0L3.66211 0L12.9883-24.4629L45.752-24.4629L55.127 0L57.7637 0L30.6152-70.459L28.125-70.459ZM29.3457-67.1387L29.4434-67.1387L44.873-26.709L13.8672-26.709Z"/>
  </g>
  <line id="Baseline-M" style="fill:none;stroke:#27AAE1;opacity:1;stroke-width:0.5;" x1="263" x2="3036" y1="1126" y2="1126"/>
  <line id="Capline-M" style="fill:none;stroke:#27AAE1;opacity:1;stroke-width:0.5;" x1="263" x2="3036" y1="1055.54" y2="1055.54"/>
  <g id="H-reference" style="fill:#27AAE1;stroke:none;" transform="matrix(1 0 0 1 339 1556)">
   <path d="M0.976562 0L3.66211 0L12.9883-24.4629L45.752-24.4629L55.127 0L57.7637 0L30.6152-70.459L28.125-70.459ZM29.3457-67.1387L29.4434-67.1387L44.873-26.709L13.8672-26.709Z"/>
  </g>
  <line id="Baseline-L" style="fill:none;stroke:#27AAE1;opacity:1;stroke-width:0.5;" x1="263" x2="3036" y1="1556" y2="1556"/>
  <line id="Capline-L" style="fill:none;stroke:#27AAE1;opacity:1;stroke-width:0.5;" x1="263" x2="3036" y1="1485.54" y2="1485.54"/>
  <line id="left-margin" x1="1410.7030676798927" x2="1410.7030676798927" y1="1030.79" y2="1150.12" style="fill:none;stroke:#00AEEF;stroke-width:0.5;opacity:1.0;"/>
  <line id="right-margin" x1="1491.556932320107" x2="1491.556932320107" y1="1030.79" y2="1150.12" style="fill:none;stroke:#00AEEF;stroke-width:0.5;opacity:1.0;"/>
 </g>
 <g id="Symbols">
  <g id="Black-L" transform="matrix(1.0,0.0,0.0,1.0,2882.5292573070615,1472.2158797826523)">  <path stroke-width="1px" stroke-linecap="butt" stroke-opacity="1" stroke-linejoin="miter" fill="#000000" fill-rule="nonzero" stroke="none" fill-opacity="1" stroke-miterlimit="4" stroke-dasharray="none" d="M20.952,1.798C23.435,1.798,27.891,2.566,27.891,8.681C27.891,14.796,23.48,17.147,20.952,17.147C18.423,17.147,14.543,14.747,14.543,8.681C14.543,2.611,18.807,1.798,20.952,1.798ZM7.311,9.475C9.795,9.475,14.25,10.239,14.25,16.353C14.25,22.468,9.84,24.82,7.311,24.82C4.782,24.82,0.903,22.423,0.903,16.353C0.903,10.288,5.166,9.475,7.311,9.475ZM44.353,8.681C44.353,2.566,39.898,1.802,37.414,1.802C35.27,1.802,31.006,2.611,31.006,8.681C31.006,14.747,34.886,17.147,37.414,17.147C39.943,17.147,44.353,14.796,44.353,8.681ZM50.762,9.475C53.245,9.475,57.701,10.239,57.701,16.353C57.701,22.468,53.291,24.82,50.762,24.82C48.233,24.82,44.353,22.423,44.353,16.353C44.353,10.288,48.617,9.475,50.762,9.475ZM48.056,39.462C48.056,28.466,40.944,18.942,29.302,18.942C17.659,18.942,10.664,28.229,10.664,39.462C10.664,48.809,21.806,48.809,29.275,48.809L29.302,48.809C37.591,48.809,48.056,48.515,48.056,39.462ZM52.467,54.807C54.95,54.807,59.405,55.571,59.405,61.686C59.405,67.8,54.995,70.152,52.467,70.152C49.938,70.152,46.058,67.751,46.058,61.686C46.058,55.616,50.322,54.807,52.467,54.807ZM73.046,54.013C73.046,47.898,68.59,47.134,66.107,47.134C63.962,47.134,59.699,47.943,59.699,54.013C59.699,60.079,63.578,62.479,66.107,62.479C68.636,62.479,73.046,60.128,73.046,54.013ZM82.57,47.134C85.054,47.134,89.509,47.898,89.509,54.013C89.509,60.128,85.099,62.479,82.57,62.479C80.041,62.479,76.162,60.079,76.162,54.013C76.162,47.943,80.425,47.134,82.57,47.134ZM102.856,61.686C102.856,55.571,98.401,54.807,95.917,54.807C93.772,54.807,89.509,55.616,89.509,61.686C89.509,67.751,93.388,70.152,95.917,70.152C98.446,70.152,102.856,67.8,102.856,61.686ZM74.457,64.275C86.099,64.275,93.212,73.795,93.212,84.794C93.212,93.848,82.751,94.141,74.457,94.141L74.427,94.141C66.961,94.141,55.819,94.141,55.819,84.794C55.819,73.562,62.818,64.275,74.457,64.275ZM74.457,64.275"/>
</g>
  <g id="Heavy-L" transform="matrix(1.0,0.0,0.0,1.0,2585.8192573070614,1472.2158797826523)">  <path fill="#000000" stroke-linejoin="miter" stroke-miterlimit="4" stroke-linecap="butt" fill-opacity="1" stroke-opacity="1" stroke-dasharray="none" fill-rule="nonzero" stroke-width="1px" stroke="none" d="M20.952,1.798C23.435,1.798,27.891,2.566,27.891,8.681C27.891,14.796,23.48,17.147,20.952,17.147C18.423,17.147,14.543,14.747,14.543,8.681C14.543,2.611,18.807,1.798,20.952,1.798ZM7.311,9.475C9.795,9.475,14.25,10.239,14.25,16.353C14.25,22.468,9.84,24.82,7.311,24.82C4.782,24.82,0.903,22.423,0.903,16.353C0.903,10.288,5.166,9.475,7.311,9.475ZM44.353,8.681C44.353,2.566,39.898,1.802,37.414,1.802C35.27,1.802,31.006,2.611,31.006,8.681C31.006,14.747,34.886,17.147,37.414,17.147C39.943,17.147,44.353,14.796,44.353,8.681ZM50.762,9.475C53.245,9.475,57.701,10.239,57.701,16.353C57.701,22.468,53.291,24.82,50.762,24.82C48.233,24.82,44.353,22.423,44.353,16.353C44.353,10.288,48.617,9.475,50.762,9.475ZM48.056,39.462C48.056,28.466,40.944,18.942,29.302,18.942C17.659,18.942,10.664,28.229,10.664,39.462C10.664,48.809,21.806,48.809,29.275,48.809L29.302,48.809C37.591,48.809,48.056,48.515,48.056,39.462ZM52.467,54.807C54.95,54.807,59.405,55.571,59.405,61.686C59.405,67.8,54.995,70.152,52.467,70.152C49.938,70.152,46.058,67.751,46.058,61.686C46.058,55.616,50.322,54.807,52.467,54.807ZM73.046,54.013C73.046,47.898,68.59,47.134,66.107,47.134C63.962,47.134,59.699,47.943,59.699,54.013C59.699,60.079,63.578,62.479,66.107,62.479C68.636,62.479,73.046,60.128,73.046,54.013ZM82.57,47.134C85.054,47.134,89.509,47.898,89.509,54.013C89.509,60.128,85.099,62.479,82.57,62.479C80.041,62.479,76.162,60.079,76.162,54.013C76.162,47.943,80.425,47.134,82.57,47.134ZM102.856,61.686C102.856,55.571,98.401,54.807,95.917,54.807C93.772,54.807,89.509,55.616,89.509,61.686C89.509,67.751,93.388,70.152,95.917,70.152C98.446,70.152,102.856,67.8,102.856,61.686ZM74.457,64.275C86.099,64.275,93.212,73.795,93.212,84.794C93.212,93.848,82.751,94.141,74.457,94.141L74.427,94.141C66.961,94.141,55.819,94.141,55.819,84.794C55.819,73.562,62.818,64.275,74.457,64.275ZM74.457,64.275"/>
</g>
  <g id="Bold-L" transform="matrix(1.0,0.0,0.0,1.0,2289.1092573070614,1472.2158797826523)">  <path stroke-opacity="1" stroke="none" stroke-width="1px" stroke-dasharray="none" stroke-linejoin="miter" stroke-linecap="butt" fill-opacity="1" fill-rule="nonzero" stroke-miterlimit="4" fill="#000000" d="M20.952,1.798C23.435,1.798,27.891,2.566,27.891,8.681C27.891,14.796,23.48,17.147,20.952,17.147C18.423,17.147,14.543,14.747,14.543,8.681C14.543,2.611,18.807,1.798,20.952,1.798ZM7.311,9.475C9.795,9.475,14.25,10.239,14.25,16.353C14.25,22.468,9.84,24.82,7.311,24.82C4.782,24.82,0.903,22.423,0.903,16.353C0.903,10.288,5.166,9.475,7.311,9.475ZM44.353,8.681C44.353,2.566,39.898,1.802,37.414,1.802C35.27,1.802,31.006,2.611,31.006,8.681C31.006,14.747,34.886,17.147,37.414,17.147C39.943,17.147,44.353,14.796,44.353,8.681ZM50.762,9.475C53.245,9.475,57.701,10.239,57.701,16.353C57.701,22.468,53.291,24.82,50.762,24.82C48.233,24.82,44.353,22.423,44.353,16.353C44.353,10.288,48.617,9.475,50.762,9.475ZM48.056,39.462C48.056,28.466,40.944,18.942,29.302,18.942C17.659,18.942,10.664,28.229,10.664,39.462C10.664,48.809,21.806,48.809,29.275,48.809L29.302,48.809C37.591,48.809,48.056,48.515,48.056,39.462ZM52.467,54.807C54.95,54.807,59.405,55.571,59.405,61.686C59.405,67.8,54.995,70.152,52.467,70.152C49.938,70.152,46.058,67.751,46.058,61.686C46.058,55.616,50.322,54.807,52.467,54.807ZM73.046,54.013C73.046,47.898,68.59,47.134,66.107,47.134C63.962,47.134,59.699,47.943,59.699,54.013C59.699,60.079,63.578,62.479,66.107,62.479C68.636,62.479,73.046,60.128,73.046,54.013ZM82.57,47.134C85.054,47.134,89.509,47.898,89.509,54.013C89.509,60.128,85.099,62.479,82.57,62.479C80.041,62.479,76.162,60.079,76.162,54.013C76.162,47.943,80.425,47.134,82.57,47.134ZM102.856,61.686C102.856,55.571,98.401,54.807,95.917,54.807C93.772,54.807,89.509,55.616,89.509,61.686C89.509,67.751,93.388,70.152,95.917,70.152C98.446,70.152,102.856,67.8,102.856,61.686ZM74.457,64.275C86.099,64.275,93.212,73.795,93.212,84.794C93.212,93.848,82.751,94.141,74.457,94.141L74.427,94.141C66.961,94.141,55.819,94.141,55.819,84.794C55.819,73.562,62.818,64.275,74.457,64.275ZM74.457,64.275"/>
</g>
  <g id="Semibold-L" transform="matrix(1.0,0.0,0.0,1.0,1992.3992573070616,1472.2158797826523)">  <path stroke-width="1px" stroke="none" stroke-linejoin="miter" fill-rule="nonzero" stroke-opacity="1" stroke-miterlimit="4" fill-opacity="1" fill="#000000" stroke-linecap="butt" stroke-dasharray="none" d="M20.952,1.798C23.435,1.798,27.891,2.566,27.891,8.681C27.891,14.796,23.48,17.147,20.952,17.147C18.423,17.147,14.543,14.747,14.543,8.681C14.543,2.611,18.807,1.798,20.952,1.798ZM7.311,9.475C9.795,9.475,14.25,10.239,14.25,16.353C14.25,22.468,9.84,24.82,7.311,24.82C4.782,24.82,0.903,22.423,0.903,16.353C0.903,10.288,5.166,9.475,7.311,9.475ZM44.353,8.681C44.353,2.566,39.898,1.802,37.414,1.802C35.27,1.802,31.006,2.611,31.006,8.681C31.006,14.747,34.886,17.147,37.414,17.147C39.943,17.147,44.353,14.796,44.353,8.681ZM50.762,9.475C53.245,9.475,57.701,10.239,57.701,16.353C57.701,22.468,53.291,24.82,50.762,24.82C48.233,24.82,44.353,22.423,44.353,16.353C44.353,10.288,48.617,9.475,50.762,9.475ZM48.056,39.462C48.056,28.466,40.944,18.942,29.302,18.942C17.659,18.942,10.664,28.229,10.664,39.462C10.664,48.809,21.806,48.809,29.275,48.809L29.302,48.809C37.591,48.809,48.056,48.515,48.056,39.462ZM52.467,54.807C54.95,54.807,59.405,55.571,59.405,61.686C59.405,67.8,54.995,70.152,52.467,70.152C49.938,70.152,46.058,67.751,46.058,61.686C46.058,55.616,50.322,54.807,52.467,54.807ZM73.046,54.013C73.046,47.898,68.59,47.134,66.107,47.134C63.962,47.134,59.699,47.943,59.699,54.013C59.699,60.079,63.578,62.479,66.107,62.479C68.636,62.479,73.046,60.128,73.046,54.013ZM82.57,47.134C85.054,47.134,89.509,47.898,89.509,54.013C89.509,60.128,85.099,62.479,82.57,62.479C80.041,62.479,76.162,60.079,76.162,54.013C76.162,47.943,80.425,47.134,82.57,47.134ZM102.856,61.686C102.856,55.571,98.401,54.807,95.917,54.807C93.772,54.807,89.509,55.616,89.509,61.686C89.509,67.751,93.388,70.152,95.917,70.152C98.446,70.152,102.856,67.8,102.856,61.686ZM74.457,64.275C86.099,64.275,93.212,73.795,93.212,84.794C93.212,93.848,82.751,94.141,74.457,94.141L74.427,94.141C66.961,94.141,55.819,94.141,55.819,84.794C55.819,73.562,62.818,64.275,74.457,64.275ZM74.457,64.275"/>
</g>
  <g id="Medium-L" transform="matrix(1.0,0.0,0.0,1.0,1695.6892573070616,1472.2158797826523)">  <path stroke-opacity="1" stroke-linecap="butt" fill="#000000" stroke="none" stroke-dasharray="none" fill-opacity="1" stroke-width="1px" fill-rule="nonzero" stroke-miterlimit="4" stroke-linejoin="miter" d="M20.952,1.798C23.435,1.798,27.891,2.566,27.891,8.681C27.891,14.796,23.48,17.147,20.952,17.147C18.423,17.147,14.543,14.747,14.543,8.681C14.543,2.611,18.807,1.798,20.952,1.798ZM7.311,9.475C9.795,9.475,14.25,10.239,14.25,16.353C14.25,22.468,9.84,24.82,7.311,24.82C4.782,24.82,0.903,22.423,0.903,16.353C0.903,10.288,5.166,9.475,7.311,9.475ZM44.353,8.681C44.353,2.566,39.898,1.802,37.414,1.802C35.27,1.802,31.006,2.611,31.006,8.681C31.006,14.747,34.886,17.147,37.414,17.147C39.943,17.147,44.353,14.796,44.353,8.681ZM50.762,9.475C53.245,9.475,57.701,10.239,57.701,16.353C57.701,22.468,53.291,24.82,50.762,24.82C48.233,24.82,44.353,22.423,44.353,16.353C44.353,10.288,48.617,9.475,50.762,9.475ZM48.056,39.462C48.056,28.466,40.944,18.942,29.302,18.942C17.659,18.942,10.664,28.229,10.664,39.462C10.664,48.809,21.806,48.809,29.275,48.809L29.302,48.809C37.591,48.809,48.056,48.515,48.056,39.462ZM52.467,54.807C54.95,54.807,59.405,55.571,59.405,61.686C59.405,67.8,54.995,70.152,52.467,70.152C49.938,70.152,46.058,67.751,46.058,61.686C46.058,55.616,50.322,54.807,52.467,54.807ZM73.046,54.013C73.046,47.898,68.59,47.134,66.107,47.134C63.962,47.134,59.699,47.943,59.699,54.013C59.699,60.079,63.578,62.479,66.107,62.479C68.636,62.479,73.046,60.128,73.046,54.013ZM82.57,47.134C85.054,47.134,89.509,47.898,89.509,54.013C89.509,60.128,85.099,62.479,82.57,62.479C80.041,62.479,76.162,60.079,76.162,54.013C76.162,47.943,80.425,47.134,82.57,47.134ZM102.856,61.686C102.856,55.571,98.401,54.807,95.917,54.807C93.772,54.807,89.509,55.616,89.509,61.686C89.509,67.751,93.388,70.152,95.917,70.152C98.446,70.152,102.856,67.8,102.856,61.686ZM74.457,64.275C86.099,64.275,93.212,73.795,93.212,84.794C93.212,93.848,82.751,94.141,74.457,94.141L74.427,94.141C66.961,94.141,55.819,94.141,55.819,84.794C55.819,73.562,62.818,64.275,74.457,64.275ZM74.457,64.275"/>
</g>
  <g id="Regular-L" transform="matrix(1.0,0.0,0.0,1.0,1398.9792573070615,1472.2158797826523)">  <path fill-rule="nonzero" stroke-linecap="butt" stroke-opacity="1" fill-opacity="1" stroke-miterlimit="4" stroke="none" stroke-dasharray="none" stroke-width="1px" fill="#000000" stroke-linejoin="miter" d="M20.952,1.798C23.435,1.798,27.891,2.566,27.891,8.681C27.891,14.796,23.48,17.147,20.952,17.147C18.423,17.147,14.543,14.747,14.543,8.681C14.543,2.611,18.807,1.798,20.952,1.798ZM7.311,9.475C9.795,9.475,14.25,10.239,14.25,16.353C14.25,22.468,9.84,24.82,7.311,24.82C4.782,24.82,0.903,22.423,0.903,16.353C0.903,10.288,5.166,9.475,7.311,9.475ZM44.353,8.681C44.353,2.566,39.898,1.802,37.414,1.802C35.27,1.802,31.006,2.611,31.006,8.681C31.006,14.747,34.886,17.147,37.414,17.147C39.943,17.147,44.353,14.796,44.353,8.681ZM50.762,9.475C53.245,9.475,57.701,10.239,57.701,16.353C57.701,22.468,53.291,24.82,50.762,24.82C48.233,24.82,44.353,22.423,44.353,16.353C44.353,10.288,48.617,9.475,50.762,9.475ZM48.056,39.462C48.056,28.466,40.944,18.942,29.302,18.942C17.659,18.942,10.664,28.229,10.664,39.462C10.664,48.809,21.806,48.809,29.275,48.809L29.302,48.809C37.591,48.809,48.056,48.515,48.056,39.462ZM52.467,54.807C54.95,54.807,59.405,55.571,59.405,61.686C59.405,67.8,54.995,70.152,52.467,70.152C49.938,70.152,46.058,67.751,46.058,61.686C46.058,55.616,50.322,54.807,52.467,54.807ZM73.046,54.013C73.046,47.898,68.59,47.134,66.107,47.134C63.962,47.134,59.699,47.943,59.699,54.013C59.699,60.079,63.578,62.479,66.107,62.479C68.636,62.479,73.046,60.128,73.046,54.013ZM82.57,47.134C85.054,47.134,89.509,47.898,89.509,54.013C89.509,60.128,85.099,62.479,82.57,62.479C80.041,62.479,76.162,60.079,76.162,54.013C76.162,47.943,80.425,47.134,82.57,47.134ZM102.856,61.686C102.856,55.571,98.401,54.807,95.917,54.807C93.772,54.807,89.509,55.616,89.509,61.686C89.509,67.751,93.388,70.152,95.917,70.152C98.446,70.152,102.856,67.8,102.856,61.686ZM74.457,64.275C86.099,64.275,93.212,73.795,93.212,84.794C93.212,93.848,82.751,94.141,74.457,94.141L74.427,94.141C66.961,94.141,55.819,94.141,55.819,84.794C55.819,73.562,62.818,64.275,74.457,64.275ZM74.457,64.275"/>
</g>
  <g id="Light-L" transform="matrix(1.0,0.0,0.0,1.0,1102.2692573070617,1472.2158797826523)">  <path stroke-linejoin="miter" stroke-width="1px" stroke-opacity="1" fill-rule="nonzero" stroke-miterlimit="4" fill="#000000" stroke-linecap="butt" stroke-dasharray="none" stroke="none" fill-opacity="1" d="M20.952,1.798C23.435,1.798,27.891,2.566,27.891,8.681C27.891,14.796,23.48,17.147,20.952,17.147C18.423,17.147,14.543,14.747,14.543,8.681C14.543,2.611,18.807,1.798,20.952,1.798ZM7.311,9.475C9.795,9.475,14.25,10.239,14.25,16.353C14.25,22.468,9.84,24.82,7.311,24.82C4.782,24.82,0.903,22.423,0.903,16.353C0.903,10.288,5.166,9.475,7.311,9.475ZM44.353,8.681C44.353,2.566,39.898,1.802,37.414,1.802C35.27,1.802,31.006,2.611,31.006,8.681C31.006,14.747,34.886,17.147,37.414,17.147C39.943,17.147,44.353,14.796,44.353,8.681ZM50.762,9.475C53.245,9.475,57.701,10.239,57.701,16.353C57.701,22.468,53.291,24.82,50.762,24.82C48.233,24.82,44.353,22.423,44.353,16.353C44.353,10.288,48.617,9.475,50.762,9.475ZM48.056,39.462C48.056,28.466,40.944,18.942,29.302,18.942C17.659,18.942,10.664,28.229,10.664,39.462C10.664,48.809,21.806,48.809,29.275,48.809L29.302,48.809C37.591,48.809,48.056,48.515,48.056,39.462ZM52.467,54.807C54.95,54.807,59.405,55.571,59.405,61.686C59.405,67.8,54.995,70.152,52.467,70.152C49.938,70.152,46.058,67.751,46.058,61.686C46.058,55.616,50.322,54.807,52.467,54.807ZM73.046,54.013C73.046,47.898,68.59,47.134,66.107,47.134C63.962,47.134,59.699,47.943,59.699,54.013C59.699,60.079,63.578,62.479,66.107,62.479C68.636,62.479,73.046,60.128,73.046,54.013ZM82.57,47.134C85.054,47.134,89.509,47.898,89.509,54.013C89.509,60.128,85.099,62.479,82.57,62.479C80.041,62.479,76.162,60.079,76.162,54.013C76.162,47.943,80.425,47.134,82.57,47.134ZM102.856,61.686C102.856,55.571,98.401,54.807,95.917,54.807C93.772,54.807,89.509,55.616,89.509,61.686C89.509,67.751,93.388,70.152,95.917,70.152C98.446,70.152,102.856,67.8,102.856,61.686ZM74.457,64.275C86.099,64.275,93.212,73.795,93.212,84.794C93.212,93.848,82.751,94.141,74.457,94.141L74.427,94.141C66.961,94.141,55.819,94.141,55.819,84.794C55.819,73.562,62.818,64.275,74.457,64.275ZM74.457,64.275"/>
</g>
  <g id="Thin-L" transform="matrix(1.0,0.0,0.0,1.0,805.5592573070617,1472.2158797826523)">  <path stroke-linecap="butt" stroke-miterlimit="4" stroke-linejoin="miter" stroke-opacity="1" stroke-dasharray="none" stroke="none" fill-opacity="1" fill="#000000" fill-rule="nonzero" stroke-width="1px" d="M20.952,1.798C23.435,1.798,27.891,2.566,27.891,8.681C27.891,14.796,23.48,17.147,20.952,17.147C18.423,17.147,14.543,14.747,14.543,8.681C14.543,2.611,18.807,1.798,20.952,1.798ZM7.311,9.475C9.795,9.475,14.25,10.239,14.25,16.353C14.25,22.468,9.84,24.82,7.311,24.82C4.782,24.82,0.903,22.423,0.903,16.353C0.903,10.288,5.166,9.475,7.311,9.475ZM44.353,8.681C44.353,2.566,39.898,1.802,37.414,1.802C35.27,1.802,31.006,2.611,31.006,8.681C31.006,14.747,34.886,17.147,37.414,17.147C39.943,17.147,44.353,14.796,44.353,8.681ZM50.762,9.475C53.245,9.475,57.701,10.239,57.701,16.353C57.701,22.468,53.291,24.82,50.762,24.82C48.233,24.82,44.353,22.423,44.353,16.353C44.353,10.288,48.617,9.475,50.762,9.475ZM48.056,39.462C48.056,28.466,40.944,18.942,29.302,18.942C17.659,18.942,10.664,28.229,10.664,39.462C10.664,48.809,21.806,48.809,29.275,48.809L29.302,48.809C37.591,48.809,48.056,48.515,48.056,39.462ZM52.467,54.807C54.95,54.807,59.405,55.571,59.405,61.686C59.405,67.8,54.995,70.152,52.467,70.152C49.938,70.152,46.058,67.751,46.058,61.686C46.058,55.616,50.322,54.807,52.467,54.807ZM73.046,54.013C73.046,47.898,68.59,47.134,66.107,47.134C63.962,47.134,59.699,47.943,59.699,54.013C59.699,60.079,63.578,62.479,66.107,62.479C68.636,62.479,73.046,60.128,73.046,54.013ZM82.57,47.134C85.054,47.134,89.509,47.898,89.509,54.013C89.509,60.128,85.099,62.479,82.57,62.479C80.041,62.479,76.162,60.079,76.162,54.013C76.162,47.943,80.425,47.134,82.57,47.134ZM102.856,61.686C102.856,55.571,98.401,54.807,95.917,54.807C93.772,54.807,89.509,55.616,89.509,61.686C89.509,67.751,93.388,70.152,95.917,70.152C98.446,70.152,102.856,67.8,102.856,61.686ZM74.457,64.275C86.099,64.275,93.212,73.795,93.212,84.794C93.212,93.848,82.751,94.141,74.457,94.141L74.427,94.141C66.961,94.141,55.819,94.141,55.819,84.794C55.819,73.562,62.818,64.275,74.457,64.275ZM74.457,64.275"/>
</g>
  <g id="Ultralight-L" transform="matrix(1.0,0.0,0.0,1.0,508.8492573070617,1472.2158797826523)">  <path stroke-opacity="1" fill-opacity="1" stroke-linecap="butt" stroke-linejoin="miter" stroke="none" fill-rule="nonzero" stroke-miterlimit="4" stroke-width="1px" fill="#000000" stroke-dasharray="none" d="M20.952,1.798C23.435,1.798,27.891,2.566,27.891,8.681C27.891,14.796,23.48,17.147,20.952,17.147C18.423,17.147,14.543,14.747,14.543,8.681C14.543,2.611,18.807,1.798,20.952,1.798ZM7.311,9.475C9.795,9.475,14.25,10.239,14.25,16.353C14.25,22.468,9.84,24.82,7.311,24.82C4.782,24.82,0.903,22.423,0.903,16.353C0.903,10.288,5.166,9.475,7.311,9.475ZM44.353,8.681C44.353,2.566,39.898,1.802,37.414,1.802C35.27,1.802,31.006,2.611,31.006,8.681C31.006,14.747,34.886,17.147,37.414,17.147C39.943,17.147,44.353,14.796,44.353,8.681ZM50.762,9.475C53.245,9.475,57.701,10.239,57.701,16.353C57.701,22.468,53.291,24.82,50.762,24.82C48.233,24.82,44.353,22.423,44.353,16.353C44.353,10.288,48.617,9.475,50.762,9.475ZM48.056,39.462C48.056,28.466,40.944,18.942,29.302,18.942C17.659,18.942,10.664,28.229,10.664,39.462C10.664,48.809,21.806,48.809,29.275,48.809L29.302,48.809C37.591,48.809,48.056,48.515,48.056,39.462ZM52.467,54.807C54.95,54.807,59.405,55.571,59.405,61.686C59.405,67.8,54.995,70.152,52.467,70.152C49.938,70.152,46.058,67.751,46.058,61.686C46.058,55.616,50.322,54.807,52.467,54.807ZM73.046,54.013C73.046,47.898,68.59,47.134,66.107,47.134C63.962,47.134,59.699,47.943,59.699,54.013C59.699,60.079,63.578,62.479,66.107,62.479C68.636,62.479,73.046,60.128,73.046,54.013ZM82.57,47.134C85.054,47.134,89.509,47.898,89.509,54.013C89.509,60.128,85.099,62.479,82.57,62.479C80.041,62.479,76.162,60.079,76.162,54.013C76.162,47.943,80.425,47.134,82.57,47.134ZM102.856,61.686C102.856,55.571,98.401,54.807,95.917,54.807C93.772,54.807,89.509,55.616,89.509,61.686C89.509,67.751,93.388,70.152,95.917,70.152C98.446,70.152,102.856,67.8,102.856,61.686ZM74.457,64.275C86.099,64.275,93.212,73.795,93.212,84.794C93.212,93.848,82.751,94.141,74.457,94.141L74.427,94.141C66.961,94.141,55.819,94.141,55.819,84.794C55.819,73.562,62.818,64.275,74.457,64.275ZM74.457,64.275"/>
</g>
  <g id="Black-M" transform="matrix(1.0,0.0,0.0,1.0,2894.2530676798924,1053.1311515090813)">  <path stroke-width="1px" stroke-linecap="butt" stroke-opacity="1" stroke-linejoin="miter" fill="#000000" fill-rule="nonzero" stroke="none" fill-opacity="1" stroke-miterlimit="4" stroke-dasharray="none" d="M16.242,1.394C18.167,1.394,21.621,1.989,21.621,6.729C21.621,11.469,18.202,13.293,16.242,13.293C14.281,13.293,11.274,11.431,11.274,6.729C11.274,2.024,14.579,1.394,16.242,1.394ZM5.667,7.345C7.593,7.345,11.046,7.937,11.046,12.677C11.046,17.417,7.628,19.24,5.667,19.24C3.707,19.24,0.7,17.382,0.7,12.677C0.7,7.975,4.005,7.345,5.667,7.345ZM34.382,6.729C34.382,1.989,30.929,1.397,29.003,1.397C27.341,1.397,24.036,2.024,24.036,6.729C24.036,11.431,27.043,13.293,29.003,13.293C30.964,13.293,34.382,11.469,34.382,6.729ZM39.35,7.345C41.275,7.345,44.729,7.937,44.729,12.677C44.729,17.417,41.31,19.24,39.35,19.24C37.39,19.24,34.382,17.382,34.382,12.677C34.382,7.975,37.687,7.345,39.35,7.345ZM37.253,30.59C37.253,22.067,31.74,14.684,22.714,14.684C13.689,14.684,8.266,21.883,8.266,30.59C8.266,37.836,16.904,37.836,22.694,37.836L22.714,37.836C29.141,37.836,37.253,37.609,37.253,30.59ZM40.672,42.486C42.597,42.486,46.05,43.078,46.05,47.818C46.05,52.558,42.632,54.382,40.672,54.382C38.711,54.382,35.704,52.52,35.704,47.818C35.704,43.113,39.009,42.486,40.672,42.486ZM56.625,41.871C56.625,37.13,53.171,36.538,51.246,36.538C49.583,36.538,46.278,37.165,46.278,41.871C46.278,46.573,49.285,48.434,51.246,48.434C53.206,48.434,56.625,46.611,56.625,41.871ZM64.008,36.538C65.933,36.538,69.387,37.13,69.387,41.871C69.387,46.611,65.968,48.434,64.008,48.434C62.048,48.434,59.04,46.573,59.04,41.871C59.04,37.165,62.345,36.538,64.008,36.538ZM79.733,47.818C79.733,43.078,76.279,42.486,74.354,42.486C72.692,42.486,69.387,43.113,69.387,47.818C69.387,52.52,72.394,54.382,74.354,54.382C76.315,54.382,79.733,52.558,79.733,47.818ZM57.719,49.825C66.744,49.825,72.257,57.205,72.257,65.732C72.257,72.75,64.148,72.978,57.719,72.978L57.695,72.978C51.908,72.978,43.271,72.978,43.271,65.732C43.271,57.025,48.696,49.825,57.719,49.825ZM57.719,49.825"/>
</g>
  <g id="Heavy-M" transform="matrix(1.0,0.0,0.0,1.0,2597.5430676798924,1053.1311515090813)">  <path fill="#000000" stroke-linejoin="miter" stroke-miterlimit="4" stroke-linecap="butt" fill-opacity="1" stroke-opacity="1" stroke-dasharray="none" fill-rule="nonzero" stroke-width="1px" stroke="none" d="M16.242,1.394C18.167,1.394,21.621,1.989,21.621,6.729C21.621,11.469,18.202,13.293,16.242,13.293C14.281,13.293,11.274,11.431,11.274,6.729C11.274,2.024,14.579,1.394,16.242,1.394ZM5.667,7.345C7.593,7.345,11.046,7.937,11.046,12.677C11.046,17.417,7.628,19.24,5.667,19.24C3.707,19.24,0.7,17.382,0.7,12.677C0.7,7.975,4.005,7.345,5.667,7.345ZM34.382,6.729C34.382,1.989,30.929,1.397,29.003,1.397C27.341,1.397,24.036,2.024,24.036,6.729C24.036,11.431,27.043,13.293,29.003,13.293C30.964,13.293,34.382,11.469,34.382,6.729ZM39.35,7.345C41.275,7.345,44.729,7.937,44.729,12.677C44.729,17.417,41.31,19.24,39.35,19.24C37.39,19.24,34.382,17.382,34.382,12.677C34.382,7.975,37.687,7.345,39.35,7.345ZM37.253,30.59C37.253,22.067,31.74,14.684,22.714,14.684C13.689,14.684,8.266,21.883,8.266,30.59C8.266,37.836,16.904,37.836,22.694,37.836L22.714,37.836C29.141,37.836,37.253,37.609,37.253,30.59ZM40.672,42.486C42.597,42.486,46.05,43.078,46.05,47.818C46.05,52.558,42.632,54.382,40.672,54.382C38.711,54.382,35.704,52.52,35.704,47.818C35.704,43.113,39.009,42.486,40.672,42.486ZM56.625,41.871C56.625,37.13,53.171,36.538,51.246,36.538C49.583,36.538,46.278,37.165,46.278,41.871C46.278,46.573,49.285,48.434,51.246,48.434C53.206,48.434,56.625,46.611,56.625,41.871ZM64.008,36.538C65.933,36.538,69.387,37.13,69.387,41.871C69.387,46.611,65.968,48.434,64.008,48.434C62.048,48.434,59.04,46.573,59.04,41.871C59.04,37.165,62.345,36.538,64.008,36.538ZM79.733,47.818C79.733,43.078,76.279,42.486,74.354,42.486C72.692,42.486,69.387,43.113,69.387,47.818C69.387,52.52,72.394,54.382,74.354,54.382C76.315,54.382,79.733,52.558,79.733,47.818ZM57.719,49.825C66.744,49.825,72.257,57.205,72.257,65.732C72.257,72.75,64.148,72.978,57.719,72.978L57.695,72.978C51.908,72.978,43.271,72.978,43.271,65.732C43.271,57.025,48.696,49.825,57.719,49.825ZM57.719,49.825"/>
</g>
  <g id="Bold-M" transform="matrix(1.0,0.0,0.0,1.0,2300.8330676798923,1053.1311515090813)">  <path stroke-opacity="1" stroke="none" stroke-width="1px" stroke-dasharray="none" stroke-linejoin="miter" stroke-linecap="butt" fill-opacity="1" fill-rule="nonzero" stroke-miterlimit="4" fill="#000000" d="M16.242,1.394C18.167,1.394,21.621,1.989,21.621,6.729C21.621,11.469,18.202,13.293,16.242,13.293C14.281,13.293,11.274,11.431,11.274,6.729C11.274,2.024,14.579,1.394,16.242,1.394ZM5.667,7.345C7.593,7.345,11.046,7.937,11.046,12.677C11.046,17.417,7.628,19.24,5.667,19.24C3.707,19.24,0.7,17.382,0.7,12.677C0.7,7.975,4.005,7.345,5.667,7.345ZM34.382,6.729C34.382,1.989,30.929,1.397,29.003,1.397C27.341,1.397,24.036,2.024,24.036,6.729C24.036,11.431,27.043,13.293,29.003,13.293C30.964,13.293,34.382,11.469,34.382,6.729ZM39.35,7.345C41.275,7.345,44.729,7.937,44.729,12.677C44.729,17.417,41.31,19.24,39.35,19.24C37.39,19.24,34.382,17.382,34.382,12.677C34.382,7.975,37.687,7.345,39.35,7.345ZM37.253,30.59C37.253,22.067,31.74,14.684,22.714,14.684C13.689,14.684,8.266,21.883,8.266,30.59C8.266,37.836,16.904,37.836,22.694,37.836L22.714,37.836C29.141,37.836,37.253,37.609,37.253,30.59ZM40.672,42.486C42.597,42.486,46.05,43.078,46.05,47.818C46.05,52.558,42.632,54.382,40.672,54.382C38.711,54.382,35.704,52.52,35.704,47.818C35.704,43.113,39.009,42.486,40.672,42.486ZM56.625,41.871C56.625,37.13,53.171,36.538,51.246,36.538C49.583,36.538,46.278,37.165,46.278,41.871C46.278,46.573,49.285,48.434,51.246,48.434C53.206,48.434,56.625,46.611,56.625,41.871ZM64.008,36.538C65.933,36.538,69.387,37.13,69.387,41.871C69.387,46.611,65.968,48.434,64.008,48.434C62.048,48.434,59.04,46.573,59.04,41.871C59.04,37.165,62.345,36.538,64.008,36.538ZM79.733,47.818C79.733,43.078,76.279,42.486,74.354,42.486C72.692,42.486,69.387,43.113,69.387,47.818C69.387,52.52,72.394,54.382,74.354,54.382C76.315,54.382,79.733,52.558,79.733,47.818ZM57.719,49.825C66.744,49.825,72.257,57.205,72.257,65.732C72.257,72.75,64.148,72.978,57.719,72.978L57.695,72.978C51.908,72.978,43.271,72.978,43.271,65.732C43.271,57.025,48.696,49.825,57.719,49.825ZM57.719,49.825"/>
</g>
  <g id="Semibold-M" transform="matrix(1.0,0.0,0.0,1.0,2004.1230676798928,1053.1311515090813)">  <path stroke-width="1px" stroke="none" stroke-linejoin="miter" fill-rule="nonzero" stroke-opacity="1" stroke-miterlimit="4" fill-opacity="1" fill="#000000" stroke-linecap="butt" stroke-dasharray="none" d="M16.242,1.394C18.167,1.394,21.621,1.989,21.621,6.729C21.621,11.469,18.202,13.293,16.242,13.293C14.281,13.293,11.274,11.431,11.274,6.729C11.274,2.024,14.579,1.394,16.242,1.394ZM5.667,7.345C7.593,7.345,11.046,7.937,11.046,12.677C11.046,17.417,7.628,19.24,5.667,19.24C3.707,19.24,0.7,17.382,0.7,12.677C0.7,7.975,4.005,7.345,5.667,7.345ZM34.382,6.729C34.382,1.989,30.929,1.397,29.003,1.397C27.341,1.397,24.036,2.024,24.036,6.729C24.036,11.431,27.043,13.293,29.003,13.293C30.964,13.293,34.382,11.469,34.382,6.729ZM39.35,7.345C41.275,7.345,44.729,7.937,44.729,12.677C44.729,17.417,41.31,19.24,39.35,19.24C37.39,19.24,34.382,17.382,34.382,12.677C34.382,7.975,37.687,7.345,39.35,7.345ZM37.253,30.59C37.253,22.067,31.74,14.684,22.714,14.684C13.689,14.684,8.266,21.883,8.266,30.59C8.266,37.836,16.904,37.836,22.694,37.836L22.714,37.836C29.141,37.836,37.253,37.609,37.253,30.59ZM40.672,42.486C42.597,42.486,46.05,43.078,46.05,47.818C46.05,52.558,42.632,54.382,40.672,54.382C38.711,54.382,35.704,52.52,35.704,47.818C35.704,43.113,39.009,42.486,40.672,42.486ZM56.625,41.871C56.625,37.13,53.171,36.538,51.246,36.538C49.583,36.538,46.278,37.165,46.278,41.871C46.278,46.573,49.285,48.434,51.246,48.434C53.206,48.434,56.625,46.611,56.625,41.871ZM64.008,36.538C65.933,36.538,69.387,37.13,69.387,41.871C69.387,46.611,65.968,48.434,64.008,48.434C62.048,48.434,59.04,46.573,59.04,41.871C59.04,37.165,62.345,36.538,64.008,36.538ZM79.733,47.818C79.733,43.078,76.279,42.486,74.354,42.486C72.692,42.486,69.387,43.113,69.387,47.818C69.387,52.52,72.394,54.382,74.354,54.382C76.315,54.382,79.733,52.558,79.733,47.818ZM57.719,49.825C66.744,49.825,72.257,57.205,72.257,65.732C72.257,72.75,64.148,72.978,57.719,72.978L57.695,72.978C51.908,72.978,43.271,72.978,43.271,65.732C43.271,57.025,48.696,49.825,57.719,49.825ZM57.719,49.825"/>
</g>
  <g id="Medium-M" transform="matrix(1.0,0.0,0.0,1.0,1707.4130676798927,1053.1311515090813)">  <path stroke-opacity="1" stroke-linecap="butt" fill="#000000" stroke="none" stroke-dasharray="none" fill-opacity="1" stroke-width="1px" fill-rule="nonzero" stroke-miterlimit="4" stroke-linejoin="miter" d="M16.242,1.394C18.167,1.394,21.621,1.989,21.621,6.729C21.621,11.469,18.202,13.293,16.242,13.293C14.281,13.293,11.274,11.431,11.274,6.729C11.274,2.024,14.579,1.394,16.242,1.394ZM5.667,7.345C7.593,7.345,11.046,7.937,11.046,12.677C11.046,17.417,7.628,19.24,5.667,19.24C3.707,19.24,0.7,17.382,0.7,12.677C0.7,7.975,4.005,7.345,5.667,7.345ZM34.382,6.729C34.382,1.989,30.929,1.397,29.003,1.397C27.341,1.397,24.036,2.024,24.036,6.729C24.036,11.431,27.043,13.293,29.003,13.293C30.964,13.293,34.382,11.469,34.382,6.729ZM39.35,7.345C41.275,7.345,44.729,7.937,44.729,12.677C44.729,17.417,41.31,19.24,39.35,19.24C37.39,19.24,34.382,17.382,34.382,12.677C34.382,7.975,37.687,7.345,39.35,7.345ZM37.253,30.59C37.253,22.067,31.74,14.684,22.714,14.684C13.689,14.684,8.266,21.883,8.266,30.59C8.266,37.836,16.904,37.836,22.694,37.836L22.714,37.836C29.141,37.836,37.253,37.609,37.253,30.59ZM40.672,42.486C42.597,42.486,46.05,43.078,46.05,47.818C46.05,52.558,42.632,54.382,40.672,54.382C38.711,54.382,35.704,52.52,35.704,47.818C35.704,43.113,39.009,42.486,40.672,42.486ZM56.625,41.871C56.625,37.13,53.171,36.538,51.246,36.538C49.583,36.538,46.278,37.165,46.278,41.871C46.278,46.573,49.285,48.434,51.246,48.434C53.206,48.434,56.625,46.611,56.625,41.871ZM64.008,36.538C65.933,36.538,69.387,37.13,69.387,41.871C69.387,46.611,65.968,48.434,64.008,48.434C62.048,48.434,59.04,46.573,59.04,41.871C59.04,37.165,62.345,36.538,64.008,36.538ZM79.733,47.818C79.733,43.078,76.279,42.486,74.354,42.486C72.692,42.486,69.387,43.113,69.387,47.818C69.387,52.52,72.394,54.382,74.354,54.382C76.315,54.382,79.733,52.558,79.733,47.818ZM57.719,49.825C66.744,49.825,72.257,57.205,72.257,65.732C72.257,72.75,64.148,72.978,57.719,72.978L57.695,72.978C51.908,72.978,43.271,72.978,43.271,65.732C43.271,57.025,48.696,49.825,57.719,49.825ZM57.719,49.825"/>
</g>
  <g id="Regular-M" transform="matrix(1.0,0.0,0.0,1.0,1410.7030676798927,1053.1311515090813)">  <path fill-rule="nonzero" stroke-linecap="butt" stroke-opacity="1" fill-opacity="1" stroke-miterlimit="4" stroke="none" stroke-dasharray="none" stroke-width="1px" fill="#000000" stroke-linejoin="miter" d="M16.242,1.394C18.167,1.394,21.621,1.989,21.621,6.729C21.621,11.469,18.202,13.293,16.242,13.293C14.281,13.293,11.274,11.431,11.274,6.729C11.274,2.024,14.579,1.394,16.242,1.394ZM5.667,7.345C7.593,7.345,11.046,7.937,11.046,12.677C11.046,17.417,7.628,19.24,5.667,19.24C3.707,19.24,0.7,17.382,0.7,12.677C0.7,7.975,4.005,7.345,5.667,7.345ZM34.382,6.729C34.382,1.989,30.929,1.397,29.003,1.397C27.341,1.397,24.036,2.024,24.036,6.729C24.036,11.431,27.043,13.293,29.003,13.293C30.964,13.293,34.382,11.469,34.382,6.729ZM39.35,7.345C41.275,7.345,44.729,7.937,44.729,12.677C44.729,17.417,41.31,19.24,39.35,19.24C37.39,19.24,34.382,17.382,34.382,12.677C34.382,7.975,37.687,7.345,39.35,7.345ZM37.253,30.59C37.253,22.067,31.74,14.684,22.714,14.684C13.689,14.684,8.266,21.883,8.266,30.59C8.266,37.836,16.904,37.836,22.694,37.836L22.714,37.836C29.141,37.836,37.253,37.609,37.253,30.59ZM40.672,42.486C42.597,42.486,46.05,43.078,46.05,47.818C46.05,52.558,42.632,54.382,40.672,54.382C38.711,54.382,35.704,52.52,35.704,47.818C35.704,43.113,39.009,42.486,40.672,42.486ZM56.625,41.871C56.625,37.13,53.171,36.538,51.246,36.538C49.583,36.538,46.278,37.165,46.278,41.871C46.278,46.573,49.285,48.434,51.246,48.434C53.206,48.434,56.625,46.611,56.625,41.871ZM64.008,36.538C65.933,36.538,69.387,37.13,69.387,41.871C69.387,46.611,65.968,48.434,64.008,48.434C62.048,48.434,59.04,46.573,59.04,41.871C59.04,37.165,62.345,36.538,64.008,36.538ZM79.733,47.818C79.733,43.078,76.279,42.486,74.354,42.486C72.692,42.486,69.387,43.113,69.387,47.818C69.387,52.52,72.394,54.382,74.354,54.382C76.315,54.382,79.733,52.558,79.733,47.818ZM57.719,49.825C66.744,49.825,72.257,57.205,72.257,65.732C72.257,72.75,64.148,72.978,57.719,72.978L57.695,72.978C51.908,72.978,43.271,72.978,43.271,65.732C43.271,57.025,48.696,49.825,57.719,49.825ZM57.719,49.825"/>
</g>
  <g id="Light-M" transform="matrix(1.0,0.0,0.0,1.0,1113.9930676798929,1053.1311515090813)">  <path stroke-linejoin="miter" stroke-width="1px" stroke-opacity="1" fill-rule="nonzero" stroke-miterlimit="4" fill="#000000" stroke-linecap="butt" stroke-dasharray="none" stroke="none" fill-opacity="1" d="M16.242,1.394C18.167,1.394,21.621,1.989,21.621,6.729C21.621,11.469,18.202,13.293,16.242,13.293C14.281,13.293,11.274,11.431,11.274,6.729C11.274,2.024,14.579,1.394,16.242,1.394ZM5.667,7.345C7.593,7.345,11.046,7.937,11.046,12.677C11.046,17.417,7.628,19.24,5.667,19.24C3.707,19.24,0.7,17.382,0.7,12.677C0.7,7.975,4.005,7.345,5.667,7.345ZM34.382,6.729C34.382,1.989,30.929,1.397,29.003,1.397C27.341,1.397,24.036,2.024,24.036,6.729C24.036,11.431,27.043,13.293,29.003,13.293C30.964,13.293,34.382,11.469,34.382,6.729ZM39.35,7.345C41.275,7.345,44.729,7.937,44.729,12.677C44.729,17.417,41.31,19.24,39.35,19.24C37.39,19.24,34.382,17.382,34.382,12.677C34.382,7.975,37.687,7.345,39.35,7.345ZM37.253,30.59C37.253,22.067,31.74,14.684,22.714,14.684C13.689,14.684,8.266,21.883,8.266,30.59C8.266,37.836,16.904,37.836,22.694,37.836L22.714,37.836C29.141,37.836,37.253,37.609,37.253,30.59ZM40.672,42.486C42.597,42.486,46.05,43.078,46.05,47.818C46.05,52.558,42.632,54.382,40.672,54.382C38.711,54.382,35.704,52.52,35.704,47.818C35.704,43.113,39.009,42.486,40.672,42.486ZM56.625,41.871C56.625,37.13,53.171,36.538,51.246,36.538C49.583,36.538,46.278,37.165,46.278,41.871C46.278,46.573,49.285,48.434,51.246,48.434C53.206,48.434,56.625,46.611,56.625,41.871ZM64.008,36.538C65.933,36.538,69.387,37.13,69.387,41.871C69.387,46.611,65.968,48.434,64.008,48.434C62.048,48.434,59.04,46.573,59.04,41.871C59.04,37.165,62.345,36.538,64.008,36.538ZM79.733,47.818C79.733,43.078,76.279,42.486,74.354,42.486C72.692,42.486,69.387,43.113,69.387,47.818C69.387,52.52,72.394,54.382,74.354,54.382C76.315,54.382,79.733,52.558,79.733,47.818ZM57.719,49.825C66.744,49.825,72.257,57.205,72.257,65.732C72.257,72.75,64.148,72.978,57.719,72.978L57.695,72.978C51.908,72.978,43.271,72.978,43.271,65.732C43.271,57.025,48.696,49.825,57.719,49.825ZM57.719,49.825"/>
</g>
  <g id="Thin-M" transform="matrix(1.0,0.0,0.0,1.0,817.2830676798928,1053.1311515090813)">  <path stroke-linecap="butt" stroke-miterlimit="4" stroke-linejoin="miter" stroke-opacity="1" stroke-dasharray="none" stroke="none" fill-opacity="1" fill="#000000" fill-rule="nonzero" stroke-width="1px" d="M16.242,1.394C18.167,1.394,21.621,1.989,21.621,6.729C21.621,11.469,18.202,13.293,16.242,13.293C14.281,13.293,11.274,11.431,11.274,6.729C11.274,2.024,14.579,1.394,16.242,1.394ZM5.667,7.345C7.593,7.345,11.046,7.937,11.046,12.677C11.046,17.417,7.628,19.24,5.667,19.24C3.707,19.24,0.7,17.382,0.7,12.677C0.7,7.975,4.005,7.345,5.667,7.345ZM34.382,6.729C34.382,1.989,30.929,1.397,29.003,1.397C27.341,1.397,24.036,2.024,24.036,6.729C24.036,11.431,27.043,13.293,29.003,13.293C30.964,13.293,34.382,11.469,34.382,6.729ZM39.35,7.345C41.275,7.345,44.729,7.937,44.729,12.677C44.729,17.417,41.31,19.24,39.35,19.24C37.39,19.24,34.382,17.382,34.382,12.677C34.382,7.975,37.687,7.345,39.35,7.345ZM37.253,30.59C37.253,22.067,31.74,14.684,22.714,14.684C13.689,14.684,8.266,21.883,8.266,30.59C8.266,37.836,16.904,37.836,22.694,37.836L22.714,37.836C29.141,37.836,37.253,37.609,37.253,30.59ZM40.672,42.486C42.597,42.486,46.05,43.078,46.05,47.818C46.05,52.558,42.632,54.382,40.672,54.382C38.711,54.382,35.704,52.52,35.704,47.818C35.704,43.113,39.009,42.486,40.672,42.486ZM56.625,41.871C56.625,37.13,53.171,36.538,51.246,36.538C49.583,36.538,46.278,37.165,46.278,41.871C46.278,46.573,49.285,48.434,51.246,48.434C53.206,48.434,56.625,46.611,56.625,41.871ZM64.008,36.538C65.933,36.538,69.387,37.13,69.387,41.871C69.387,46.611,65.968,48.434,64.008,48.434C62.048,48.434,59.04,46.573,59.04,41.871C59.04,37.165,62.345,36.538,64.008,36.538ZM79.733,47.818C79.733,43.078,76.279,42.486,74.354,42.486C72.692,42.486,69.387,43.113,69.387,47.818C69.387,52.52,72.394,54.382,74.354,54.382C76.315,54.382,79.733,52.558,79.733,47.818ZM57.719,49.825C66.744,49.825,72.257,57.205,72.257,65.732C72.257,72.75,64.148,72.978,57.719,72.978L57.695,72.978C51.908,72.978,43.271,72.978,43.271,65.732C43.271,57.025,48.696,49.825,57.719,49.825ZM57.719,49.825"/>
</g>
  <g id="Ultralight-M" transform="matrix(1.0,0.0,0.0,1.0,520.5730676798928,1053.1311515090813)">  <path stroke-opacity="1" fill-opacity="1" stroke-linecap="butt" stroke-linejoin="miter" stroke="none" fill-rule="nonzero" stroke-miterlimit="4" stroke-width="1px" fill="#000000" stroke-dasharray="none" d="M16.242,1.394C18.167,1.394,21.621,1.989,21.621,6.729C21.621,11.469,18.202,13.293,16.242,13.293C14.281,13.293,11.274,11.431,11.274,6.729C11.274,2.024,14.579,1.394,16.242,1.394ZM5.667,7.345C7.593,7.345,11.046,7.937,11.046,12.677C11.046,17.417,7.628,19.24,5.667,19.24C3.707,19.24,0.7,17.382,0.7,12.677C0.7,7.975,4.005,7.345,5.667,7.345ZM34.382,6.729C34.382,1.989,30.929,1.397,29.003,1.397C27.341,1.397,24.036,2.024,24.036,6.729C24.036,11.431,27.043,13.293,29.003,13.293C30.964,13.293,34.382,11.469,34.382,6.729ZM39.35,7.345C41.275,7.345,44.729,7.937,44.729,12.677C44.729,17.417,41.31,19.24,39.35,19.24C37.39,19.24,34.382,17.382,34.382,12.677C34.382,7.975,37.687,7.345,39.35,7.345ZM37.253,30.59C37.253,22.067,31.74,14.684,22.714,14.684C13.689,14.684,8.266,21.883,8.266,30.59C8.266,37.836,16.904,37.836,22.694,37.836L22.714,37.836C29.141,37.836,37.253,37.609,37.253,30.59ZM40.672,42.486C42.597,42.486,46.05,43.078,46.05,47.818C46.05,52.558,42.632,54.382,40.672,54.382C38.711,54.382,35.704,52.52,35.704,47.818C35.704,43.113,39.009,42.486,40.672,42.486ZM56.625,41.871C56.625,37.13,53.171,36.538,51.246,36.538C49.583,36.538,46.278,37.165,46.278,41.871C46.278,46.573,49.285,48.434,51.246,48.434C53.206,48.434,56.625,46.611,56.625,41.871ZM64.008,36.538C65.933,36.538,69.387,37.13,69.387,41.871C69.387,46.611,65.968,48.434,64.008,48.434C62.048,48.434,59.04,46.573,59.04,41.871C59.04,37.165,62.345,36.538,64.008,36.538ZM79.733,47.818C79.733,43.078,76.279,42.486,74.354,42.486C72.692,42.486,69.387,43.113,69.387,47.818C69.387,52.52,72.394,54.382,74.354,54.382C76.315,54.382,79.733,52.558,79.733,47.818ZM57.719,49.825C66.744,49.825,72.257,57.205,72.257,65.732C72.257,72.75,64.148,72.978,57.719,72.978L57.695,72.978C51.908,72.978,43.271,72.978,43.271,65.732C43.271,57.025,48.696,49.825,57.719,49.825ZM57.719,49.825"/>
</g>
  <g id="Black-S" transform="matrix(1.0,0.0,0.0,1.0,2903.025711993356,631.2987858698918)">  <path stroke-width="1px" stroke-linecap="butt" stroke-opacity="1" stroke-linejoin="miter" fill="#000000" fill-rule="nonzero" stroke="none" fill-opacity="1" stroke-miterlimit="4" stroke-dasharray="none" d="M12.717,1.092C14.225,1.092,16.929,1.557,16.929,5.269C16.929,8.981,14.252,10.408,12.717,10.408C11.182,10.408,8.827,8.951,8.827,5.269C8.827,1.585,11.415,1.092,12.717,1.092ZM4.438,5.751C5.945,5.751,8.649,6.215,8.649,9.926C8.649,13.638,5.972,15.065,4.438,15.065C2.903,15.065,0.548,13.61,0.548,9.926C0.548,6.244,3.136,5.751,4.438,5.751ZM26.921,5.269C26.921,1.557,24.217,1.094,22.71,1.094C21.408,1.094,18.82,1.585,18.82,5.269C18.82,8.951,21.175,10.408,22.71,10.408C24.245,10.408,26.921,8.981,26.921,5.269ZM30.811,5.751C32.319,5.751,35.023,6.215,35.023,9.926C35.023,13.638,32.346,15.065,30.811,15.065C29.276,15.065,26.921,13.61,26.921,9.926C26.921,6.244,29.509,5.751,30.811,5.751ZM29.169,23.952C29.169,17.278,24.852,11.498,17.785,11.498C10.719,11.498,6.473,17.135,6.473,23.952C6.473,29.626,13.236,29.626,17.769,29.626L17.785,29.626C22.817,29.626,29.169,29.448,29.169,23.952ZM31.846,33.266C33.353,33.266,36.058,33.73,36.058,37.442C36.058,41.153,33.381,42.581,31.846,42.581C30.311,42.581,27.956,41.124,27.956,37.442C27.956,33.758,30.544,33.266,31.846,33.266ZM44.337,32.785C44.337,29.073,41.633,28.609,40.125,28.609C38.823,28.609,36.236,29.101,36.236,32.785C36.236,36.466,38.591,37.924,40.125,37.924C41.66,37.924,44.337,36.496,44.337,32.785ZM50.118,28.609C51.626,28.609,54.33,29.073,54.33,32.785C54.33,36.496,51.653,37.924,50.118,37.924C48.583,37.924,46.228,36.466,46.228,32.785C46.228,29.101,48.816,28.609,50.118,28.609ZM62.431,37.442C62.431,33.73,59.727,33.266,58.219,33.266C56.917,33.266,54.33,33.758,54.33,37.442C54.33,41.124,56.685,42.581,58.219,42.581C59.754,42.581,62.431,41.153,62.431,37.442ZM45.194,39.013C52.26,39.013,56.577,44.792,56.577,51.468C56.577,56.963,50.228,57.141,45.194,57.141L45.175,57.141C40.644,57.141,33.881,57.141,33.881,51.468C33.881,44.65,38.129,39.013,45.194,39.013ZM45.194,39.013"/>
</g>
  <g id="Heavy-S" transform="matrix(1.0,0.0,0.0,1.0,2606.3157119933558,631.2987858698918)">  <path fill="#000000" stroke-linejoin="miter" stroke-miterlimit="4" stroke-linecap="butt" fill-opacity="1" stroke-opacity="1" stroke-dasharray="none" fill-rule="nonzero" stroke-width="1px" stroke="none" d="M12.717,1.092C14.225,1.092,16.929,1.557,16.929,5.269C16.929,8.981,14.252,10.408,12.717,10.408C11.182,10.408,8.827,8.951,8.827,5.269C8.827,1.585,11.415,1.092,12.717,1.092ZM4.438,5.751C5.945,5.751,8.649,6.215,8.649,9.926C8.649,13.638,5.972,15.065,4.438,15.065C2.903,15.065,0.548,13.61,0.548,9.926C0.548,6.244,3.136,5.751,4.438,5.751ZM26.921,5.269C26.921,1.557,24.217,1.094,22.71,1.094C21.408,1.094,18.82,1.585,18.82,5.269C18.82,8.951,21.175,10.408,22.71,10.408C24.245,10.408,26.921,8.981,26.921,5.269ZM30.811,5.751C32.319,5.751,35.023,6.215,35.023,9.926C35.023,13.638,32.346,15.065,30.811,15.065C29.276,15.065,26.921,13.61,26.921,9.926C26.921,6.244,29.509,5.751,30.811,5.751ZM29.169,23.952C29.169,17.278,24.852,11.498,17.785,11.498C10.719,11.498,6.473,17.135,6.473,23.952C6.473,29.626,13.236,29.626,17.769,29.626L17.785,29.626C22.817,29.626,29.169,29.448,29.169,23.952ZM31.846,33.266C33.353,33.266,36.058,33.73,36.058,37.442C36.058,41.153,33.381,42.581,31.846,42.581C30.311,42.581,27.956,41.124,27.956,37.442C27.956,33.758,30.544,33.266,31.846,33.266ZM44.337,32.785C44.337,29.073,41.633,28.609,40.125,28.609C38.823,28.609,36.236,29.101,36.236,32.785C36.236,36.466,38.591,37.924,40.125,37.924C41.66,37.924,44.337,36.496,44.337,32.785ZM50.118,28.609C51.626,28.609,54.33,29.073,54.33,32.785C54.33,36.496,51.653,37.924,50.118,37.924C48.583,37.924,46.228,36.466,46.228,32.785C46.228,29.101,48.816,28.609,50.118,28.609ZM62.431,37.442C62.431,33.73,59.727,33.266,58.219,33.266C56.917,33.266,54.33,33.758,54.33,37.442C54.33,41.124,56.685,42.581,58.219,42.581C59.754,42.581,62.431,41.153,62.431,37.442ZM45.194,39.013C52.26,39.013,56.577,44.792,56.577,51.468C56.577,56.963,50.228,57.141,45.194,57.141L45.175,57.141C40.644,57.141,33.881,57.141,33.881,51.468C33.881,44.65,38.129,39.013,45.194,39.013ZM45.194,39.013"/>
</g>
  <g id="Bold-S" transform="matrix(1.0,0.0,0.0,1.0,2309.6057119933557,631.2987858698918)">  <path stroke-opacity="1" stroke="none" stroke-width="1px" stroke-dasharray="none" stroke-linejoin="miter" stroke-linecap="butt" fill-opacity="1" fill-rule="nonzero" stroke-miterlimit="4" fill="#000000" d="M12.717,1.092C14.225,1.092,16.929,1.557,16.929,5.269C16.929,8.981,14.252,10.408,12.717,10.408C11.182,10.408,8.827,8.951,8.827,5.269C8.827,1.585,11.415,1.092,12.717,1.092ZM4.438,5.751C5.945,5.751,8.649,6.215,8.649,9.926C8.649,13.638,5.972,15.065,4.438,15.065C2.903,15.065,0.548,13.61,0.548,9.926C0.548,6.244,3.136,5.751,4.438,5.751ZM26.921,5.269C26.921,1.557,24.217,1.094,22.71,1.094C21.408,1.094,18.82,1.585,18.82,5.269C18.82,8.951,21.175,10.408,22.71,10.408C24.245,10.408,26.921,8.981,26.921,5.269ZM30.811,5.751C32.319,5.751,35.023,6.215,35.023,9.926C35.023,13.638,32.346,15.065,30.811,15.065C29.276,15.065,26.921,13.61,26.921,9.926C26.921,6.244,29.509,5.751,30.811,5.751ZM29.169,23.952C29.169,17.278,24.852,11.498,17.785,11.498C10.719,11.498,6.473,17.135,6.473,23.952C6.473,29.626,13.236,29.626,17.769,29.626L17.785,29.626C22.817,29.626,29.169,29.448,29.169,23.952ZM31.846,33.266C33.353,33.266,36.058,33.73,36.058,37.442C36.058,41.153,33.381,42.581,31.846,42.581C30.311,42.581,27.956,41.124,27.956,37.442C27.956,33.758,30.544,33.266,31.846,33.266ZM44.337,32.785C44.337,29.073,41.633,28.609,40.125,28.609C38.823,28.609,36.236,29.101,36.236,32.785C36.236,36.466,38.591,37.924,40.125,37.924C41.66,37.924,44.337,36.496,44.337,32.785ZM50.118,28.609C51.626,28.609,54.33,29.073,54.33,32.785C54.33,36.496,51.653,37.924,50.118,37.924C48.583,37.924,46.228,36.466,46.228,32.785C46.228,29.101,48.816,28.609,50.118,28.609ZM62.431,37.442C62.431,33.73,59.727,33.266,58.219,33.266C56.917,33.266,54.33,33.758,54.33,37.442C54.33,41.124,56.685,42.581,58.219,42.581C59.754,42.581,62.431,41.153,62.431,37.442ZM45.194,39.013C52.26,39.013,56.577,44.792,56.577,51.468C56.577,56.963,50.228,57.141,45.194,57.141L45.175,57.141C40.644,57.141,33.881,57.141,33.881,51.468C33.881,44.65,38.129,39.013,45.194,39.013ZM45.194,39.013"/>
</g>
  <g id="Semibold-S" transform="matrix(1.0,0.0,0.0,1.0,2012.895711993356,631.2987858698918)">  <path stroke-width="1px" stroke="none" stroke-linejoin="miter" fill-rule="nonzero" stroke-opacity="1" stroke-miterlimit="4" fill-opacity="1" fill="#000000" stroke-linecap="butt" stroke-dasharray="none" d="M12.717,1.092C14.225,1.092,16.929,1.557,16.929,5.269C16.929,8.981,14.252,10.408,12.717,10.408C11.182,10.408,8.827,8.951,8.827,5.269C8.827,1.585,11.415,1.092,12.717,1.092ZM4.438,5.751C5.945,5.751,8.649,6.215,8.649,9.926C8.649,13.638,5.972,15.065,4.438,15.065C2.903,15.065,0.548,13.61,0.548,9.926C0.548,6.244,3.136,5.751,4.438,5.751ZM26.921,5.269C26.921,1.557,24.217,1.094,22.71,1.094C21.408,1.094,18.82,1.585,18.82,5.269C18.82,8.951,21.175,10.408,22.71,10.408C24.245,10.408,26.921,8.981,26.921,5.269ZM30.811,5.751C32.319,5.751,35.023,6.215,35.023,9.926C35.023,13.638,32.346,15.065,30.811,15.065C29.276,15.065,26.921,13.61,26.921,9.926C26.921,6.244,29.509,5.751,30.811,5.751ZM29.169,23.952C29.169,17.278,24.852,11.498,17.785,11.498C10.719,11.498,6.473,17.135,6.473,23.952C6.473,29.626,13.236,29.626,17.769,29.626L17.785,29.626C22.817,29.626,29.169,29.448,29.169,23.952ZM31.846,33.266C33.353,33.266,36.058,33.73,36.058,37.442C36.058,41.153,33.381,42.581,31.846,42.581C30.311,42.581,27.956,41.124,27.956,37.442C27.956,33.758,30.544,33.266,31.846,33.266ZM44.337,32.785C44.337,29.073,41.633,28.609,40.125,28.609C38.823,28.609,36.236,29.101,36.236,32.785C36.236,36.466,38.591,37.924,40.125,37.924C41.66,37.924,44.337,36.496,44.337,32.785ZM50.118,28.609C51.626,28.609,54.33,29.073,54.33,32.785C54.33,36.496,51.653,37.924,50.118,37.924C48.583,37.924,46.228,36.466,46.228,32.785C46.228,29.101,48.816,28.609,50.118,28.609ZM62.431,37.442C62.431,33.73,59.727,33.266,58.219,33.266C56.917,33.266,54.33,33.758,54.33,37.442C54.33,41.124,56.685,42.581,58.219,42.581C59.754,42.581,62.431,41.153,62.431,37.442ZM45.194,39.013C52.26,39.013,56.577,44.792,56.577,51.468C56.577,56.963,50.228,57.141,45.194,57.141L45.175,57.141C40.644,57.141,33.881,57.141,33.881,51.468C33.881,44.65,38.129,39.013,45.194,39.013ZM45.194,39.013"/>
</g>
  <g id="Medium-S" transform="matrix(1.0,0.0,0.0,1.0,1716.1857119933559,631.2987858698918)">  <path stroke-opacity="1" stroke-linecap="butt" fill="#000000" stroke="none" stroke-dasharray="none" fill-opacity="1" stroke-width="1px" fill-rule="nonzero" stroke-miterlimit="4" stroke-linejoin="miter" d="M12.717,1.092C14.225,1.092,16.929,1.557,16.929,5.269C16.929,8.981,14.252,10.408,12.717,10.408C11.182,10.408,8.827,8.951,8.827,5.269C8.827,1.585,11.415,1.092,12.717,1.092ZM4.438,5.751C5.945,5.751,8.649,6.215,8.649,9.926C8.649,13.638,5.972,15.065,4.438,15.065C2.903,15.065,0.548,13.61,0.548,9.926C0.548,6.244,3.136,5.751,4.438,5.751ZM26.921,5.269C26.921,1.557,24.217,1.094,22.71,1.094C21.408,1.094,18.82,1.585,18.82,5.269C18.82,8.951,21.175,10.408,22.71,10.408C24.245,10.408,26.921,8.981,26.921,5.269ZM30.811,5.751C32.319,5.751,35.023,6.215,35.023,9.926C35.023,13.638,32.346,15.065,30.811,15.065C29.276,15.065,26.921,13.61,26.921,9.926C26.921,6.244,29.509,5.751,30.811,5.751ZM29.169,23.952C29.169,17.278,24.852,11.498,17.785,11.498C10.719,11.498,6.473,17.135,6.473,23.952C6.473,29.626,13.236,29.626,17.769,29.626L17.785,29.626C22.817,29.626,29.169,29.448,29.169,23.952ZM31.846,33.266C33.353,33.266,36.058,33.73,36.058,37.442C36.058,41.153,33.381,42.581,31.846,42.581C30.311,42.581,27.956,41.124,27.956,37.442C27.956,33.758,30.544,33.266,31.846,33.266ZM44.337,32.785C44.337,29.073,41.633,28.609,40.125,28.609C38.823,28.609,36.236,29.101,36.236,32.785C36.236,36.466,38.591,37.924,40.125,37.924C41.66,37.924,44.337,36.496,44.337,32.785ZM50.118,28.609C51.626,28.609,54.33,29.073,54.33,32.785C54.33,36.496,51.653,37.924,50.118,37.924C48.583,37.924,46.228,36.466,46.228,32.785C46.228,29.101,48.816,28.609,50.118,28.609ZM62.431,37.442C62.431,33.73,59.727,33.266,58.219,33.266C56.917,33.266,54.33,33.758,54.33,37.442C54.33,41.124,56.685,42.581,58.219,42.581C59.754,42.581,62.431,41.153,62.431,37.442ZM45.194,39.013C52.26,39.013,56.577,44.792,56.577,51.468C56.577,56.963,50.228,57.141,45.194,57.141L45.175,57.141C40.644,57.141,33.881,57.141,33.881,51.468C33.881,44.65,38.129,39.013,45.194,39.013ZM45.194,39.013"/>
</g>
  <g id="Regular-S" transform="matrix(1.0,0.0,0.0,1.0,1419.4757119933558,631.2987858698918)">  <path fill-rule="nonzero" stroke-linecap="butt" stroke-opacity="1" fill-opacity="1" stroke-miterlimit="4" stroke="none" stroke-dasharray="none" stroke-width="1px" fill="#000000" stroke-linejoin="miter" d="M12.717,1.092C14.225,1.092,16.929,1.557,16.929,5.269C16.929,8.981,14.252,10.408,12.717,10.408C11.182,10.408,8.827,8.951,8.827,5.269C8.827,1.585,11.415,1.092,12.717,1.092ZM4.438,5.751C5.945,5.751,8.649,6.215,8.649,9.926C8.649,13.638,5.972,15.065,4.438,15.065C2.903,15.065,0.548,13.61,0.548,9.926C0.548,6.244,3.136,5.751,4.438,5.751ZM26.921,5.269C26.921,1.557,24.217,1.094,22.71,1.094C21.408,1.094,18.82,1.585,18.82,5.269C18.82,8.951,21.175,10.408,22.71,10.408C24.245,10.408,26.921,8.981,26.921,5.269ZM30.811,5.751C32.319,5.751,35.023,6.215,35.023,9.926C35.023,13.638,32.346,15.065,30.811,15.065C29.276,15.065,26.921,13.61,26.921,9.926C26.921,6.244,29.509,5.751,30.811,5.751ZM29.169,23.952C29.169,17.278,24.852,11.498,17.785,11.498C10.719,11.498,6.473,17.135,6.473,23.952C6.473,29.626,13.236,29.626,17.769,29.626L17.785,29.626C22.817,29.626,29.169,29.448,29.169,23.952ZM31.846,33.266C33.353,33.266,36.058,33.73,36.058,37.442C36.058,41.153,33.381,42.581,31.846,42.581C30.311,42.581,27.956,41.124,27.956,37.442C27.956,33.758,30.544,33.266,31.846,33.266ZM44.337,32.785C44.337,29.073,41.633,28.609,40.125,28.609C38.823,28.609,36.236,29.101,36.236,32.785C36.236,36.466,38.591,37.924,40.125,37.924C41.66,37.924,44.337,36.496,44.337,32.785ZM50.118,28.609C51.626,28.609,54.33,29.073,54.33,32.785C54.33,36.496,51.653,37.924,50.118,37.924C48.583,37.924,46.228,36.466,46.228,32.785C46.228,29.101,48.816,28.609,50.118,28.609ZM62.431,37.442C62.431,33.73,59.727,33.266,58.219,33.266C56.917,33.266,54.33,33.758,54.33,37.442C54.33,41.124,56.685,42.581,58.219,42.581C59.754,42.581,62.431,41.153,62.431,37.442ZM45.194,39.013C52.26,39.013,56.577,44.792,56.577,51.468C56.577,56.963,50.228,57.141,45.194,57.141L45.175,57.141C40.644,57.141,33.881,57.141,33.881,51.468C33.881,44.65,38.129,39.013,45.194,39.013ZM45.194,39.013"/>
</g>
  <g id="Light-S" transform="matrix(1.0,0.0,0.0,1.0,1122.765711993356,631.2987858698918)">  <path stroke-linejoin="miter" stroke-width="1px" stroke-opacity="1" fill-rule="nonzero" stroke-miterlimit="4" fill="#000000" stroke-linecap="butt" stroke-dasharray="none" stroke="none" fill-opacity="1" d="M12.717,1.092C14.225,1.092,16.929,1.557,16.929,5.269C16.929,8.981,14.252,10.408,12.717,10.408C11.182,10.408,8.827,8.951,8.827,5.269C8.827,1.585,11.415,1.092,12.717,1.092ZM4.438,5.751C5.945,5.751,8.649,6.215,8.649,9.926C8.649,13.638,5.972,15.065,4.438,15.065C2.903,15.065,0.548,13.61,0.548,9.926C0.548,6.244,3.136,5.751,4.438,5.751ZM26.921,5.269C26.921,1.557,24.217,1.094,22.71,1.094C21.408,1.094,18.82,1.585,18.82,5.269C18.82,8.951,21.175,10.408,22.71,10.408C24.245,10.408,26.921,8.981,26.921,5.269ZM30.811,5.751C32.319,5.751,35.023,6.215,35.023,9.926C35.023,13.638,32.346,15.065,30.811,15.065C29.276,15.065,26.921,13.61,26.921,9.926C26.921,6.244,29.509,5.751,30.811,5.751ZM29.169,23.952C29.169,17.278,24.852,11.498,17.785,11.498C10.719,11.498,6.473,17.135,6.473,23.952C6.473,29.626,13.236,29.626,17.769,29.626L17.785,29.626C22.817,29.626,29.169,29.448,29.169,23.952ZM31.846,33.266C33.353,33.266,36.058,33.73,36.058,37.442C36.058,41.153,33.381,42.581,31.846,42.581C30.311,42.581,27.956,41.124,27.956,37.442C27.956,33.758,30.544,33.266,31.846,33.266ZM44.337,32.785C44.337,29.073,41.633,28.609,40.125,28.609C38.823,28.609,36.236,29.101,36.236,32.785C36.236,36.466,38.591,37.924,40.125,37.924C41.66,37.924,44.337,36.496,44.337,32.785ZM50.118,28.609C51.626,28.609,54.33,29.073,54.33,32.785C54.33,36.496,51.653,37.924,50.118,37.924C48.583,37.924,46.228,36.466,46.228,32.785C46.228,29.101,48.816,28.609,50.118,28.609ZM62.431,37.442C62.431,33.73,59.727,33.266,58.219,33.266C56.917,33.266,54.33,33.758,54.33,37.442C54.33,41.124,56.685,42.581,58.219,42.581C59.754,42.581,62.431,41.153,62.431,37.442ZM45.194,39.013C52.26,39.013,56.577,44.792,56.577,51.468C56.577,56.963,50.228,57.141,45.194,57.141L45.175,57.141C40.644,57.141,33.881,57.141,33.881,51.468C33.881,44.65,38.129,39.013,45.194,39.013ZM45.194,39.013"/>
</g>
  <g id="Thin-S" transform="matrix(1.0,0.0,0.0,1.0,826.0557119933561,631.2987858698918)">  <path stroke-linecap="butt" stroke-miterlimit="4" stroke-linejoin="miter" stroke-opacity="1" stroke-dasharray="none" stroke="none" fill-opacity="1" fill="#000000" fill-rule="nonzero" stroke-width="1px" d="M12.717,1.092C14.225,1.092,16.929,1.557,16.929,5.269C16.929,8.981,14.252,10.408,12.717,10.408C11.182,10.408,8.827,8.951,8.827,5.269C8.827,1.585,11.415,1.092,12.717,1.092ZM4.438,5.751C5.945,5.751,8.649,6.215,8.649,9.926C8.649,13.638,5.972,15.065,4.438,15.065C2.903,15.065,0.548,13.61,0.548,9.926C0.548,6.244,3.136,5.751,4.438,5.751ZM26.921,5.269C26.921,1.557,24.217,1.094,22.71,1.094C21.408,1.094,18.82,1.585,18.82,5.269C18.82,8.951,21.175,10.408,22.71,10.408C24.245,10.408,26.921,8.981,26.921,5.269ZM30.811,5.751C32.319,5.751,35.023,6.215,35.023,9.926C35.023,13.638,32.346,15.065,30.811,15.065C29.276,15.065,26.921,13.61,26.921,9.926C26.921,6.244,29.509,5.751,30.811,5.751ZM29.169,23.952C29.169,17.278,24.852,11.498,17.785,11.498C10.719,11.498,6.473,17.135,6.473,23.952C6.473,29.626,13.236,29.626,17.769,29.626L17.785,29.626C22.817,29.626,29.169,29.448,29.169,23.952ZM31.846,33.266C33.353,33.266,36.058,33.73,36.058,37.442C36.058,41.153,33.381,42.581,31.846,42.581C30.311,42.581,27.956,41.124,27.956,37.442C27.956,33.758,30.544,33.266,31.846,33.266ZM44.337,32.785C44.337,29.073,41.633,28.609,40.125,28.609C38.823,28.609,36.236,29.101,36.236,32.785C36.236,36.466,38.591,37.924,40.125,37.924C41.66,37.924,44.337,36.496,44.337,32.785ZM50.118,28.609C51.626,28.609,54.33,29.073,54.33,32.785C54.33,36.496,51.653,37.924,50.118,37.924C48.583,37.924,46.228,36.466,46.228,32.785C46.228,29.101,48.816,28.609,50.118,28.609ZM62.431,37.442C62.431,33.73,59.727,33.266,58.219,33.266C56.917,33.266,54.33,33.758,54.33,37.442C54.33,41.124,56.685,42.581,58.219,42.581C59.754,42.581,62.431,41.153,62.431,37.442ZM45.194,39.013C52.26,39.013,56.577,44.792,56.577,51.468C56.577,56.963,50.228,57.141,45.194,57.141L45.175,57.141C40.644,57.141,33.881,57.141,33.881,51.468C33.881,44.65,38.129,39.013,45.194,39.013ZM45.194,39.013"/>
</g>
  <g id="Ultralight-S" transform="matrix(1.0,0.0,0.0,1.0,529.3457119933561,631.2987858698918)">  <path stroke-opacity="1" fill-opacity="1" stroke-linecap="butt" stroke-linejoin="miter" stroke="none" fill-rule="nonzero" stroke-miterlimit="4" stroke-width="1px" fill="#000000" stroke-dasharray="none" d="M12.717,1.092C14.225,1.092,16.929,1.557,16.929,5.269C16.929,8.981,14.252,10.408,12.717,10.408C11.182,10.408,8.827,8.951,8.827,5.269C8.827,1.585,11.415,1.092,12.717,1.092ZM4.438,5.751C5.945,5.751,8.649,6.215,8.649,9.926C8.649,13.638,5.972,15.065,4.438,15.065C2.903,15.065,0.548,13.61,0.548,9.926C0.548,6.244,3.136,5.751,4.438,5.751ZM26.921,5.269C26.921,1.557,24.217,1.094,22.71,1.094C21.408,1.094,18.82,1.585,18.82,5.269C18.82,8.951,21.175,10.408,22.71,10.408C24.245,10.408,26.921,8.981,26.921,5.269ZM30.811,5.751C32.319,5.751,35.023,6.215,35.023,9.926C35.023,13.638,32.346,15.065,30.811,15.065C29.276,15.065,26.921,13.61,26.921,9.926C26.921,6.244,29.509,5.751,30.811,5.751ZM29.169,23.952C29.169,17.278,24.852,11.498,17.785,11.498C10.719,11.498,6.473,17.135,6.473,23.952C6.473,29.626,13.236,29.626,17.769,29.626L17.785,29.626C22.817,29.626,29.169,29.448,29.169,23.952ZM31.846,33.266C33.353,33.266,36.058,33.73,36.058,37.442C36.058,41.153,33.381,42.581,31.846,42.581C30.311,42.581,27.956,41.124,27.956,37.442C27.956,33.758,30.544,33.266,31.846,33.266ZM44.337,32.785C44.337,29.073,41.633,28.609,40.125,28.609C38.823,28.609,36.236,29.101,36.236,32.785C36.236,36.466,38.591,37.924,40.125,37.924C41.66,37.924,44.337,36.496,44.337,32.785ZM50.118,28.609C51.626,28.609,54.33,29.073,54.33,32.785C54.33,36.496,51.653,37.924,50.118,37.924C48.583,37.924,46.228,36.466,46.228,32.785C46.228,29.101,48.816,28.609,50.118,28.609ZM62.431,37.442C62.431,33.73,59.727,33.266,58.219,33.266C56.917,33.266,54.33,33.758,54.33,37.442C54.33,41.124,56.685,42.581,58.219,42.581C59.754,42.581,62.431,41.153,62.431,37.442ZM45.194,39.013C52.26,39.013,56.577,44.792,56.577,51.468C56.577,56.963,50.228,57.141,45.194,57.141L45.175,57.141C40.644,57.141,33.881,57.141,33.881,51.468C33.881,44.65,38.129,39.013,45.194,39.013ZM45.194,39.013"/>
</g>
 </g>
</svg>
