<svg width="211" height="122" viewBox="0 0 211 122" fill="none" xmlns="http://www.w3.org/2000/svg">
<path d="M155.19 32.3164L154.684 31.3037C154.684 31.3037 142.532 45.2277 140 46.2404C137.469 47.2531 126.836 42.1898 126.836 42.1898L125.063 47.7594L142.532 56.367L160 34.848L155.19 32.3164Z" fill="#001533"/>
<path d="M129.367 43.2025C129.367 43.2025 127.595 43.7088 127.342 42.6962C126.835 41.9367 120 37.8861 118.481 39.405C116.709 40.924 117.975 40.6708 119.747 41.6835C121.519 42.9493 123.291 43.962 122.532 44.7215C121.772 45.481 121.013 43.7088 119.747 44.2151C118.987 44.4683 120 45.481 121.013 46.4937C121.519 47 122.532 47.7595 122.785 48.0126C125.063 49.7848 125.823 49.2785 126.582 50.2911C127.089 51.3038 129.367 43.2025 129.367 43.2025Z" fill="#EDAB72"/>
<path d="M92.9116 82.6961C92.9116 82.6961 100 98.3923 102.026 103.962C104.051 109.532 105.57 116.873 108.101 117.38C113.671 118.392 115.443 116.114 112.152 113.835C111.393 113.329 110.38 114.089 110.127 113.835C108.861 113.076 109.114 111.81 108.608 109.785C108.101 107 106.583 96.6202 106.836 92.8227C107.089 89.0252 107.342 77.1265 107.342 74.848C107.089 73.0759 92.9116 82.6961 92.9116 82.6961Z" fill="#4A1F02"/>
<path d="M40.0002 70.0379C41.7723 74.0886 43.0381 87.7594 43.0381 90.0379C43.0381 92.3164 39.2407 95.6076 37.9748 97.1266C36.709 98.3924 36.4559 100.165 42.2786 107C47.0888 112.57 48.1014 114.848 50.3799 115.354C52.4052 115.861 56.2027 115.354 55.9495 114.595C55.4432 111.557 51.3926 111.81 51.3926 111.81C51.3926 111.81 49.8736 109.785 47.5951 106.747C43.7976 101.684 43.0381 101.43 46.5824 97.3798C50.1267 93.3291 59.4938 86.2405 60.0002 78.6455C60.5065 71.0506 60.0002 66.4937 60.0002 66.4937L40.0002 70.0379Z" fill="#4A1F02"/>
<path d="M137.722 44.2152C137.469 47.7595 136.456 50.038 133.165 51.8101C129.874 53.5823 128.355 54.8481 126.076 53.5823C123.798 52.3165 124.81 52.8228 123.038 53.3291C121.266 53.8355 119.241 52.5696 117.722 55.8607C116.203 59.1519 115.696 70.038 113.671 74.8481C111.646 79.6582 106.836 82.6962 101.772 84.2152C96.7091 85.9874 92.9116 90.038 90.3799 93.076C87.8483 96.1139 79.4939 108.013 77.2154 111.051C75.1901 114.089 75.4432 114.342 76.709 115.861C78.7344 118.139 76.9622 119.152 74.1774 119.152C71.6458 119.152 69.8736 118.392 69.8736 116.62C69.8736 114.848 69.8736 114.848 72.1521 110.797C73.6711 108.013 74.9369 101.177 76.4559 98.6456C77.9749 96.114 81.0129 85.481 82.0255 83.962C83.0382 82.443 74.1774 81.6836 71.8989 79.1519C69.6204 76.6203 60.2533 72.5696 57.9749 72.5696C55.6964 72.3165 50.1268 73.076 46.8356 77.8861C43.5445 82.6962 41.7723 91.0506 32.9116 95.3544C24.0508 99.4051 25.0635 98.3924 22.0255 101.684C18.7344 104.975 17.2154 111.557 16.9622 113.076C16.709 114.595 18.228 114.595 18.7344 115.861C19.2407 117.127 18.228 117.886 15.1901 118.139C10.1268 118.392 11.8989 114.089 12.4053 111.304C13.1647 108.519 16.2027 99.4051 17.9749 95.8608C19.747 92.3165 22.2787 92.3165 26.3293 89.5317C30.3799 86.7469 28.6078 75.8608 29.6204 72.0633C30.6331 68.2659 31.3926 60.6709 35.4432 57.8861C35.4432 57.8861 5.82297 54.8481 2.02551 39.9114C-2.02513 24.9747 3.03816 37.6329 4.30399 39.9114C5.82297 42.1899 11.8989 48.519 18.7344 49.7848C25.5698 51.0506 29.8736 52.3165 34.6837 52.5696C39.4939 52.8228 44.8103 49.5317 48.8609 48.7722C52.6584 48.0127 58.4812 46.7468 71.6458 49.2785C84.5571 51.8101 94.4306 51.8102 98.228 50.7975C102.026 49.7848 109.114 33.8355 113.165 31.557C117.215 29.2785 118.988 30.2912 121.519 30.2912C124.304 30.5443 129.874 33.5823 129.874 35.6076C129.874 37.3798 131.139 42.1899 133.165 42.1899C134.684 42.443 137.722 42.6962 137.722 44.2152Z" fill="#6B2F07"/>
<path d="M116.962 48.519C118.988 47.7595 118.735 44.7215 118.228 41.9367C118.228 41.9367 118.988 45.481 115.697 46.2405C112.659 47 110.127 40.9241 110.127 40.6709C111.393 45.2279 114.431 49.5316 116.962 48.519Z" fill="#16171A"/>
<path d="M110.38 38.6455C110.38 38.6455 111.393 42.1898 112.659 42.1898C113.924 42.1898 115.697 42.6961 116.456 42.9493C117.469 43.2025 117.975 39.6582 117.975 39.6582C117.975 39.6582 118.735 49.0253 116.709 48.7721C114.937 48.2658 109.874 43.962 110.38 38.6455Z" fill="#4A1F02"/>
<path d="M110.38 35.3545C110.127 37.8861 110.633 40.1646 111.393 42.1899C111.899 43.2026 112.405 44.2153 112.912 45.2279C113.671 46.2406 114.177 47.0001 115.19 47.5064C115.95 48.0127 116.962 47.7595 117.469 47.2532C117.975 46.4937 117.975 45.2279 117.975 44.2153C117.975 42.9494 117.722 41.9368 117.722 40.671C117.722 40.1646 117.722 39.4051 117.975 38.8988C118.228 38.3925 118.481 37.633 119.241 37.633C118.734 37.8862 118.481 38.3925 118.481 38.8988C118.481 39.4051 118.481 40.1646 118.481 40.671C118.734 41.9368 118.988 42.9494 118.988 44.2153C118.988 45.4811 119.241 46.7469 118.734 48.2659C117.975 49.7849 115.696 50.038 114.431 49.2785C113.165 48.519 112.405 47.5064 111.646 46.4938C110.886 45.4811 110.38 44.2153 110.127 42.9494C109.62 40.4178 109.62 37.633 110.38 35.3545Z" fill="#16171A"/>
<path d="M132.659 42.443C130.633 42.1899 129.367 37.6329 129.367 35.8607V35.6076C129.367 35.6076 129.367 35.6076 129.367 35.3544V35.1013C129.367 35.1013 129.367 34.8481 129.114 34.8481C129.114 34.8481 129.114 34.8481 129.114 34.5949L128.861 34.3418L128.608 34.0886C128.355 34.0886 128.355 33.8354 128.102 33.8354C127.848 33.5823 127.849 33.5822 127.595 33.3291C127.342 33.0759 127.089 33.0759 127.089 32.8228C127.089 32.8228 125.064 34.5949 124.811 36.3671C124.557 38.1392 125.823 40.4177 125.57 42.1898C125.317 43.2025 133.418 46.4937 130.886 49.0253C129.874 50.038 129.874 52.0633 130.127 53.8354C131.14 53.3291 132.152 52.8228 133.671 51.8101C136.962 50.0379 137.975 47.7595 138.228 44.2152C137.722 42.6962 134.684 42.443 132.659 42.443Z" fill="#141414"/>
<path d="M126.835 37.8861C126.582 38.1393 125.57 40.6709 128.101 41.9368C130.633 43.2026 132.152 43.7089 132.658 42.1899C130.633 41.9367 129.367 37.3798 129.367 35.6076C128.354 35.3545 127.089 37.8861 126.835 37.8861Z" fill="black"/>
<path d="M128.102 38.6455C129.114 36.367 129.367 39.9113 129.367 39.9113C129.367 39.9113 127.342 39.9113 128.102 38.6455Z" fill="#1E0F06"/>
<path d="M137.722 44.2153C137.722 42.9494 136.456 42.6963 134.684 42.4431C132.911 43.2026 134.177 43.4558 134.684 43.9621C135.19 44.4684 134.43 45.2279 135.19 45.9874C135.949 46.7469 134.937 47.7596 134.684 48.2659C134.43 49.0254 135.443 49.5317 135.696 49.5317C136.962 48.5191 137.468 46.7469 137.722 44.2153Z" fill="#5F6373"/>
<path d="M137.468 46.2406C137.722 45.4811 137.722 45.2279 137.722 44.2153C137.722 43.2026 136.709 42.6963 135.19 42.4431C135.443 43.9621 136.203 44.9748 137.468 46.2406Z" fill="black"/>
<path d="M136.456 42.9493C135.443 42.6961 133.924 42.443 132.912 42.443C131.646 42.443 130.886 40.6708 130.127 38.8987C129.874 38.8987 129.62 40.1645 130.127 40.924C130.633 41.9366 130.633 42.1898 131.139 42.6961C131.899 43.2025 133.924 43.2025 133.924 43.2025C133.924 43.2025 136.203 42.9493 136.456 42.9493Z" fill="#E8DBCE"/>
<path d="M97.2153 78.8987C95.19 81.6835 93.1647 89.5317 90.8862 92.3165C93.4179 89.2785 96.9622 85.9874 101.519 84.4684C106.582 82.6962 111.393 79.9114 113.418 75.1013C115.19 70.5443 115.95 63.4557 117.215 59.6582C117.215 59.6582 108.861 71.3038 105.823 72.0633C102.785 72.8228 99.2407 76.1139 97.2153 78.8987Z" fill="#E8DBCE"/>
<path d="M122.785 55.1013C122.785 55.1013 120 55.1013 118.988 55.3544C117.975 55.6076 110.127 52.5696 110.38 50.038C110.633 47.5063 111.14 48.7722 113.165 49.5316C115.19 50.2911 117.215 51.0506 117.469 50.038C117.722 49.0253 115.696 49.2785 115.19 48.2658C114.937 47.5063 116.203 47.7595 117.975 47.7595C118.734 47.7595 120 48.2658 120.507 48.2658C123.291 49.0253 123.545 50.038 124.81 50.038C126.076 49.7848 122.785 55.1013 122.785 55.1013Z" fill="#F4C297"/>
<path d="M124.81 49.7847C124.304 51.3037 122.532 54.0885 122.532 54.0885C122.532 54.0885 119.747 54.0885 118.734 54.3416C117.975 54.5948 111.899 52.3163 110.633 50.0378C110.38 52.3163 118.228 55.6075 119.241 55.3543C120.253 55.1012 123.038 55.1011 123.038 55.1011C123.038 55.1011 126.076 49.7847 124.81 49.7847Z" fill="#EDAB72"/>
<path d="M149.874 110.544C149.874 110.544 151.14 114.848 150.633 119.152H143.798C143.798 119.152 143.291 116.873 141.266 118.139C139.241 119.152 140.253 120.165 135.19 120.165C130.127 120.165 126.583 120.165 126.583 120.165C126.583 120.165 124.557 115.608 128.861 114.848C133.165 114.089 138.228 112.57 138.734 110.038C138.988 107.506 149.874 110.544 149.874 110.544Z" fill="#001533"/>
<path d="M161.772 89.2783L146.329 83.9619L150.127 110.797H135.95C135.95 110.797 130.886 74.0884 130.886 71.5568C130.886 69.0252 133.418 66.4935 136.709 65.9872C140 65.4808 159.494 69.2783 159.494 69.2783L166.076 76.3669L161.772 89.2783Z" fill="#90B8EB"/>
<path d="M164.051 82.9494L166.33 76.3671L164.051 73.8354V82.9494Z" fill="#78A1D6"/>
<path d="M162.532 86.7468L144.304 80.6709L148.355 110.544H150.38L146.583 83.7088L161.773 89.2785L162.532 86.7468Z" fill="#78A1D6"/>
<path d="M193.165 100.164C193.165 100.164 196.456 97.3796 200.253 96.3669L202.785 102.696C202.785 102.696 201.013 103.962 202.785 105.481C204.557 107 204.81 105.734 206.835 110.544C208.861 115.354 210.127 118.645 210.127 118.645C210.127 118.645 207.089 122.19 204.557 118.392C202.278 114.595 198.734 109.531 196.456 110.291C194.43 110.797 193.165 100.164 193.165 100.164Z" fill="#001533"/>
<path d="M186.836 73.3291L162.785 75.8607C162.785 75.8607 153.671 105.228 152.152 112.57C150.633 119.911 155.696 121.683 155.696 121.683H162.532L197.975 111.557L192.405 99.6582L169.873 106.24C169.873 106.24 186.582 88.7721 187.089 83.2025C188.101 77.886 186.836 73.3291 186.836 73.3291Z" fill="#CAE6F6"/>
<path d="M165.317 118.139H158.481C158.481 118.139 153.418 116.367 154.937 109.025C155.95 103.203 162.026 83.9621 164.304 75.8608L163.038 76.1139C163.038 76.1139 153.924 105.481 152.405 112.823C150.886 120.165 155.95 121.937 155.95 121.937H162.785L198.228 111.81L196.962 109.279L165.317 118.139Z" fill="#90B8EB"/>
<path d="M152.659 5.48096C151.899 5.98729 148.355 6.99997 147.089 10.2911C146.329 12.0633 146.583 12.0632 146.836 12.5696C147.342 13.8354 146.076 14.8481 145.57 15.3544C144.557 16.3671 143.545 16.8734 144.81 17.6329C146.076 18.6455 145.57 18.8987 145.064 19.405C144.81 19.6582 145.317 20.4177 145.317 20.6708C145.317 20.6708 144.557 21.1772 145.064 21.6835C145.57 22.1898 146.076 22.1898 146.076 22.6962C146.076 23.2025 145.317 24.7215 146.076 25.481C146.836 26.2405 148.861 25.9873 149.874 25.9873C150.886 25.9873 151.899 26.2405 152.912 27.2531C155.95 30.5443 155.19 33.3291 155.19 33.3291C155.19 33.3291 156.203 35.1012 160.76 30.2911C161.266 29.5316 164.81 28.7721 164.81 27.2531C165.064 25.2278 167.342 16.6202 163.291 15.8607C163.038 15.8607 155.19 11.5569 155.19 11.5569L152.659 5.48096Z" fill="#F4C297"/>
<path d="M160 30.5442C160.507 30.0378 163.798 29.2784 164.051 28.0125C164.304 27.253 164.811 24.9746 165.317 22.9492C163.038 20.9239 161.013 20.1644 160.76 22.1897C159.747 27.7594 151.14 26.2404 151.14 26.2404C151.899 26.4936 152.659 26.7467 153.165 27.5062C155.697 30.7974 154.684 33.329 154.684 33.329C154.684 33.329 155.697 34.848 160 30.5442Z" fill="url(#paint0_linear_212_1857)"/>
<path d="M169.874 11.8101C168.861 7.25314 167.342 2.44302 162.025 1.93669C156.962 1.1772 151.139 2.6962 150.886 0.164551C150.886 0.164551 147.848 4.72152 149.367 7.25317C149.874 6.49367 155.443 15.3544 156.203 16.8734C156.962 18.1392 156.709 14.3418 158.481 14.8481C160.253 15.3544 161.013 19.1519 160.253 20.924C159.494 22.1899 162.025 24.7215 162.025 24.7215L164.81 27.2532L164.304 30.038L168.101 20.1645C168.355 20.1645 170.886 16.6202 169.874 11.8101Z" fill="#582D11"/>
<path d="M186.836 73.329C186.836 73.329 178.988 39.1518 176.456 34.5948C173.924 30.0378 166.836 24.2151 166.836 24.2151L154.684 30.5442C154.684 30.5442 152.912 59.9113 162.785 76.367C162.785 76.367 161.519 77.6328 186.836 73.329Z" fill="#00265F"/>
<path d="M164.557 48.2658C164.557 48.2658 145.823 61.6835 142.785 62.443C139.747 63.2025 122.025 56.367 122.025 56.367L124.051 48.7721C124.051 48.7721 139.747 52.8227 141.013 52.0632C143.291 50.7974 151.899 40.1645 154.937 32.5696L164.557 48.2658Z" fill="#00265F"/>
<defs>
<linearGradient id="paint0_linear_212_1857" x1="152.996" y1="28.6239" x2="163.28" y2="25.8006" gradientUnits="userSpaceOnUse">
<stop stop-color="#EDB380"/>
<stop offset="1" stop-color="#F4C297"/>
</linearGradient>
</defs>
</svg>
