<svg id="Layer_1" height="512" viewBox="0 0 512 512" width="512" xmlns="http://www.w3.org/2000/svg"><g><g><path d="m64 152.452c0-8.231-6.028-15.467-14.212-16.355-9.637-1.045-17.788 6.477-17.788 15.903v16c0 35.346 28.654 64 64 64h80v-64h-96.452c-8.587 0-15.548-6.961-15.548-15.548z" fill="#f0915a"/></g><g><path d="m384 312v128c8.837 0 16 7.163 16 16 0 8.837-7.163 16-16 16h-32c-8.837 0-16-7.163-16-16v-144z" fill="#f0915a"/></g><g><path d="m128 328v-32h96v16c0 35.346-28.654 64-64 64h-16v64c8.837 0 16 7.163 16 16 0 8.837-7.163 16-16 16h-32c-8.837 0-16-7.163-16-16v-96c0-17.673 14.327-32 32-32z" fill="#f0915a"/></g><path d="m296 144c0 13.255-10.745 24-24 24h-128c-44.183 0-80 35.817-80 80v80c-17.673 0-32 14.327-32 32v96c0 8.837 7.164 16 16 16h32c8.836 0 16-7.163 16-16 0-8.837-7.164-16-16-16v-64h16c35.346 0 64-28.654 64-64h64l10.912 10.912c13.502 13.502 31.816 21.088 50.911 21.088h2.177v112c0 8.837 7.164 16 16 16h32c8.836 0 16-7.163 16-16 0-8.837-7.164-16-16-16v-96c44.183 0 80-35.817 80-80v-120z" fill="#fab991"/><g><g><path d="m440 72h-88v-40h64c13.255 0 24 10.745 24 24z" fill="#fab991"/></g><g><path d="m408 72h32v-16c0-13.255-10.745-24-24-24h-24v24c0 8.837 7.163 16 16 16z" fill="#f0915a"/></g><g><path d="m432 144h-136v-72h176c4.418 0 8 3.582 8 8v16c0 26.51-21.49 48-48 48z" fill="#fab991"/></g><g><path d="m312 136c-22.092 0-40-17.909-40-40 0-35.346 28.654-64 64-64h32c-8.837 0-16 7.163-16 16v48c0 22.091-17.909 40-40 40z" fill="#463c4b"/></g><g><circle cx="376" cy="56" fill="#463c4b" r="8"/></g><g><circle cx="416" cy="56" fill="#463c4b" r="8"/></g><g><path d="m456 80v16c0 13.255-10.745 24-24 24h-48c-13.255 0-24 10.745-24 24h72c26.51 0 48-21.49 48-48v-16c0-4.418-3.582-8-8-8h-8c-4.418 0-8 3.582-8 8z" fill="#f0915a"/></g><g><path d="m468 96c6.627 0 12-5.373 12-12v-4c0-4.418-3.582-8-8-8h-8c-4.418 0-8 3.582-8 8v4c0 6.627 5.373 12 12 12z" fill="#463c4b"/></g><g><path d="m360 144h56v24h-56z" fill="#f0915a"/></g></g><g><path d="m264 160h16c4.418 0 8 3.582 8 8v176c0 4.418-3.582 8-8 8h-16c-4.418 0-8-3.582-8-8v-176c0-4.418 3.582-8 8-8z" fill="#4182c3"/></g><g><path d="m261.164 160h21.672c2.852 0 5.164 2.312 5.164 5.164v69.672c0 2.852-2.312 5.164-5.164 5.164h-21.672c-2.852 0-5.164-2.312-5.164-5.164v-69.672c0-2.852 2.312-5.164 5.164-5.164z" fill="#64afe1"/></g><g><path d="m416 264h-128v-32h128c4.418 0 8 3.582 8 8v16c0 4.418-3.582 8-8 8z" fill="#4182c3"/></g><g><path d="m424 240h-128v-8h120c4.418 0 8 3.582 8 8z" fill="#64afe1"/></g><g><path d="m288 232v32h-32v-32zm0-8h-32c-4.418 0-8 3.582-8 8v32c0 4.418 3.582 8 8 8h32c4.418 0 8-3.582 8-8v-32c0-4.418-3.582-8-8-8z" fill="#463c4b"/></g></g></svg>