<?xml version="1.0" standalone="no"?>
<!DOCTYPE svg PUBLIC "-//W3C//DTD SVG 20010904//EN"
 "http://www.w3.org/TR/2001/REC-SVG-20010904/DTD/svg10.dtd">
<svg version="1.0" xmlns="http://www.w3.org/2000/svg"
 width="512.000000pt" height="512.000000pt" viewBox="0 0 512.000000 512.000000"
 preserveAspectRatio="xMidYMid meet">

<g transform="translate(0.000000,512.000000) scale(0.100000,-0.100000)"
fill="#000000" stroke="none">
<path d="M207 3453 c18 -16 34 -39 36 -53 4 -20 5 -19 6 8 1 35 -27 72 -56 72
-13 0 -9 -7 14 -27z"/>
<path d="M1002 3473 c-16 -6 -46 -63 -33 -63 5 0 13 9 16 20 5 17 37 33 67 35
3 0 10 3 14 8 8 8 -44 8 -64 0z"/>
<path d="M1940 3472 c0 -5 11 -14 25 -20 14 -7 27 -23 31 -39 10 -47 12 -49
13 -11 1 28 -5 41 -25 57 -28 22 -44 27 -44 13z"/>
<path d="M178 3433 c12 -8 22 -24 22 -34 0 -11 5 -19 10 -19 6 0 10 9 10 19 0
20 -35 51 -55 50 -5 0 0 -7 13 -16z"/>
<path d="M1012 3428 c-7 -7 -12 -19 -12 -27 0 -11 4 -9 15 6 8 12 25 24 38 26
20 4 20 4 -3 6 -15 0 -31 -4 -38 -11z"/>
<path d="M1938 3428 c12 -6 22 -19 22 -29 0 -10 5 -21 10 -24 6 -3 10 1 10 10
0 29 -20 55 -43 54 l-22 0 23 -11z"/>
<path d="M78 3333 c2 -38 7 -72 12 -76 4 -4 19 -5 34 -1 24 6 26 10 26 59 0
29 3 60 6 69 5 13 -2 16 -38 16 l-44 0 4 -67z"/>
<path d="M1073 3333 c-1 -71 5 -83 45 -83 20 0 22 4 22 59 0 37 5 61 12 63 24
8 -4 28 -40 28 l-37 0 -2 -67z"/>
<path d="M2855 3390 c-3 -5 -1 -10 4 -10 7 0 11 -24 11 -60 l0 -60 30 0 c30 0
30 1 30 54 0 30 5 58 10 61 6 3 10 10 10 16 0 12 -87 12 -95 -1z"/>
<path d="M3764 3384 c3 -9 6 -40 6 -70 l0 -54 35 0 35 0 0 54 c0 30 3 61 6 70
5 13 -2 16 -41 16 -39 0 -46 -3 -41 -16z"/>
<path d="M4684 3384 c3 -9 6 -40 6 -70 l0 -54 35 0 35 0 0 54 c0 30 3 61 6 70
5 13 -2 16 -41 16 -39 0 -46 -3 -41 -16z"/>
<path d="M1830 3380 c-10 -7 -12 -12 -4 -17 6 -5 13 -32 16 -61 3 -29 7 -55
10 -58 3 -3 18 -2 32 2 26 6 26 8 24 75 l-3 69 -30 0 c-16 0 -37 -5 -45 -10z"/>
<path d="M4140 3302 c-88 -39 -129 -159 -81 -239 17 -28 27 -32 78 -38 32 -4
77 -11 101 -16 34 -7 48 -6 67 7 29 19 28 15 15 48 -6 17 -17 26 -30 26 -12 0
-18 5 -15 10 11 17 34 11 49 -12 8 -13 22 -55 30 -95 18 -86 36 -124 72 -148
31 -20 99 -24 117 -6 8 8 6 11 -10 11 -33 0 -71 53 -78 108 -17 129 -53 187
-126 198 -21 4 -39 11 -39 17 0 6 16 7 40 3 22 -3 40 -3 40 1 -1 22 -50 90
-79 110 -34 23 -115 31 -151 15z"/>
<path d="M94 2958 c3 -128 9 -322 13 -430 l6 -198 -30 0 c-16 0 -38 -7 -49
-15 -17 -13 37 -14 466 -15 l485 0 -86 -85 -86 -85 56 0 56 0 85 85 85 85 523
0 c414 0 523 3 520 13 -3 7 -26 13 -56 15 l-51 3 20 56 c10 31 19 60 19 65 0
4 -18 8 -40 8 -36 0 -40 3 -40 24 l0 24 53 -14 c28 -7 66 -14 83 -14 l31 0 5
-125 c5 -121 6 -127 33 -155 34 -35 60 -38 75 -9 9 16 8 26 -4 44 -10 15 -16
47 -16 85 l0 61 64 -53 c42 -34 65 -61 65 -75 1 -37 12 -53 37 -53 29 0 44 27
44 78 0 37 -6 45 -67 100 -59 52 -65 62 -54 76 9 11 17 13 25 7 8 -7 16 -4 24
9 13 21 156 130 171 130 5 0 31 -11 58 -25 27 -15 60 -27 74 -27 13 -1 30 -6
37 -11 8 -7 12 -5 12 7 0 17 -17 37 -65 74 -20 16 -23 21 -10 17 63 -22 135
-14 135 14 0 4 -25 25 -55 47 -35 25 -56 48 -60 66 -4 17 -21 36 -43 50 -20
12 -51 37 -68 55 -36 38 -54 41 -79 13 -13 -14 -16 -28 -11 -51 6 -30 5 -31
-11 -17 -10 8 -31 18 -48 21 -16 3 -37 8 -46 12 -14 5 -18 -3 -24 -47 -13 -95
-20 -96 -40 -9 l-18 80 -81 0 c-59 0 -106 7 -171 26 -49 14 -93 29 -96 33 -4
4 -11 60 -17 125 -5 65 -13 121 -16 124 -3 3 -17 3 -31 -1 -32 -8 -33 5 14
-456 21 -206 36 -378 34 -382 -2 -5 -195 -8 -429 -8 l-424 0 0 38 c0 20 11
209 26 420 14 211 24 385 22 387 -1 2 -15 6 -30 10 -23 6 -28 3 -32 -17 -3
-12 -17 -205 -31 -428 -15 -223 -28 -406 -29 -408 -2 -1 -179 -1 -395 0 l-392
3 101 60 101 60 -41 3 c-34 3 -55 -5 -118 -41 l-77 -45 -6 47 c-4 26 -9 193
-13 372 -4 178 -9 341 -12 362 -5 33 -9 37 -36 37 l-31 0 7 -232z m2557 -221
c-1 -12 -15 -9 -19 4 -3 6 1 10 8 8 6 -3 11 -8 11 -12z"/>
<path d="M2870 2760 l0 -430 -195 0 c-167 0 -194 -2 -189 -15 5 -12 38 -15
187 -17 l181 -3 24 -82 25 -83 58 0 59 0 -26 68 c-14 37 -28 75 -31 85 -5 16
22 17 461 17 395 0 465 2 460 14 -3 8 -14 16 -25 19 -18 5 -19 15 -19 167 0
147 -2 164 -20 187 -11 14 -20 37 -20 50 0 13 9 41 20 63 18 35 20 59 20 215
l0 176 -32 -3 -33 -3 -5 -388 -5 -389 -24 26 c-19 21 -34 26 -70 26 l-45 0 64
-65 64 -65 -412 0 -412 0 0 430 0 430 -30 0 -30 0 0 -430z"/>
<path d="M4697 3183 c-4 -3 -7 -135 -7 -293 0 -279 1 -287 21 -306 34 -30 41
-60 24 -100 -8 -19 -21 -37 -30 -40 -11 -5 -15 -21 -15 -60 l0 -54 -156 0
c-138 0 -155 -2 -144 -15 10 -12 42 -15 168 -15 l156 0 142 -85 c135 -81 145
-85 201 -85 l58 0 -144 82 c-102 58 -139 84 -126 88 14 5 13 8 -10 18 -14 7
-37 12 -50 12 l-25 0 0 430 0 430 -28 0 c-16 0 -32 -3 -35 -7z"/>
<path d="M1653 3060 c-44 -9 -88 -29 -80 -36 2 -2 21 3 42 12 25 10 60 14 102
12 34 -2 63 0 63 5 0 4 -10 7 -22 7 -13 0 -32 2 -43 4 -11 2 -39 0 -62 -4z"/>
<path d="M1264 3025 c-16 -41 26 -146 75 -188 47 -40 138 -70 194 -64 26 2 47
1 47 -2 0 -3 -16 -29 -36 -58 l-36 -53 -73 0 c-46 0 -76 -5 -82 -12 -6 -7 -18
-49 -28 -93 -10 -44 -19 -85 -22 -91 -2 -7 12 -31 33 -54 30 -33 43 -40 67
-38 43 4 53 39 22 76 -21 25 -22 32 -12 75 8 38 15 47 31 47 53 0 67 -12 106
-90 56 -111 114 -154 154 -114 23 23 20 42 -13 72 -26 24 -81 119 -81 139 0
10 101 63 120 63 34 0 91 -22 120 -47 17 -14 32 -24 34 -22 7 8 -35 374 -44
383 -5 5 -45 10 -88 10 -75 1 -81 -1 -153 -43 -99 -58 -141 -63 -196 -22 -24
17 -56 55 -74 86 -31 55 -54 69 -65 40z"/>
<path d="M1669 3019 c-43 -7 -135 -46 -127 -54 2 -3 24 6 49 18 34 17 61 22
124 22 44 0 94 -4 110 -8 22 -6 26 -5 14 2 -25 16 -120 27 -170 20z"/>
<path d="M4003 2990 c-40 -13 -59 -38 -118 -151 -31 -61 -45 -98 -41 -112 3
-12 33 -41 65 -65 l60 -43 -35 -72 c-47 -98 -45 -136 11 -281 25 -64 45 -122
45 -129 0 -7 -68 -48 -152 -92 -83 -44 -159 -89 -169 -99 -11 -11 -19 -33 -19
-48 0 -35 40 -78 71 -78 25 0 404 195 431 222 26 26 22 56 -17 160 -19 51 -33
93 -32 94 1 1 61 -45 132 -103 l130 -105 58 -207 c41 -147 64 -211 78 -223 41
-35 110 -14 123 37 6 23 -100 430 -123 474 -5 9 -54 52 -108 96 l-98 79 4 140
c3 142 18 212 56 262 13 17 14 11 15 -67 0 -69 3 -89 18 -102 20 -19 244 -107
271 -107 10 0 26 9 36 20 15 16 16 25 7 44 -8 19 -37 34 -121 67 l-111 42 0
69 c0 72 -11 108 -33 108 -19 0 -62 49 -84 94 -15 34 -26 43 -73 59 -63 22
-227 32 -277 17z m6 -227 c1 -36 -17 -44 -39 -18 -11 13 -10 22 5 53 16 33 18
35 26 17 4 -11 8 -35 8 -52z"/>
<path d="M2280 2310 c0 -5 5 -10 11 -10 5 0 7 5 4 10 -3 6 -8 10 -11 10 -2 0
-4 -4 -4 -10z"/>
</g>
</svg>
