<svg width="180" height="167" viewBox="0 0 180 167" fill="none" xmlns="http://www.w3.org/2000/svg">
<path d="M32.9113 28.8733C29.8734 28.6201 27.3417 30.3923 26.3291 35.4556C25.3164 40.5189 23.0379 55.9619 27.8481 57.4809C32.6582 58.9999 47.0885 52.4176 49.1139 50.8986C51.3923 49.3796 53.6708 48.3669 54.9367 47.8606C56.4556 47.3543 57.7215 47.1011 54.9367 43.81C53.1645 41.7847 51.3923 43.3037 50.886 44.3163C49.8734 46.0885 47.0885 47.1011 45.8227 47.3543C42.0252 47.8606 33.1645 50.3923 32.1518 51.1518C32.1518 50.6454 40 29.3796 32.9113 28.8733Z" fill="#EDAB72"/>
<path d="M50.8862 43.8099C50.8862 43.8099 51.6458 41.7845 52.6584 40.7719C53.6711 39.7592 53.9242 38.7466 54.4306 38.7466C55.1901 38.7466 54.4305 40.2656 54.1774 41.2782C53.9242 42.0377 53.671 42.544 54.1774 42.2909C54.6837 42.0377 57.9748 39.7592 59.2407 39.5061C59.747 39.5061 59.747 39.7592 60.0002 40.0124C60.5065 40.0124 60.7596 39.7592 61.0128 40.2656C61.266 40.5187 60.7596 40.7719 61.0128 41.2782C61.266 41.7846 60.7597 42.0377 60.7597 42.5441C60.7597 43.0504 60.7597 43.0504 60.7597 43.5567C60.5065 44.3162 56.709 47.3542 54.9369 47.8605C53.1647 47.8605 50.8862 43.8099 50.8862 43.8099Z" fill="#EDAB72"/>
<path d="M28.1011 105.076C28.6074 107.101 30.1265 113.177 29.1138 114.443C28.1011 115.709 25.8226 121.279 27.0885 130.392C28.3543 139.506 29.1138 145.835 28.3543 147.608C27.3416 149.38 26.5821 151.405 26.8353 152.924C27.0885 154.443 34.9366 159.76 40.253 158.494C40.253 158.494 38.9872 156.722 35.696 153.43C33.1644 150.646 33.9239 138.241 34.4302 133.937C34.9366 129.633 39.7467 116.215 39.2404 113.177C38.734 110.139 41.2657 99.7595 41.2657 99.7595L28.1011 105.076Z" fill="#EDAB72"/>
<path d="M26.8356 150.899C26.8356 150.899 25.0635 153.43 25.823 156.721C26.5825 160.013 26.5825 162.544 26.5825 163.81H28.1015V156.468C28.1015 156.468 31.1394 159.759 31.8989 161.532C32.6584 163.304 31.899 163.81 39.2407 163.81C42.785 163.81 44.304 162.544 43.5445 161.025C43.0382 160.013 41.266 159.253 39.7471 158.494C40.0002 158.494 34.4306 160.772 26.8356 150.899Z" fill="#001533"/>
<path d="M33.9241 0.772133C33.9241 0.772133 39.747 -0.240533 43.7976 5.07592C48.1014 10.3924 46.5824 18.4936 42.2786 26.8481C39.4938 32.1645 37.9748 34.1899 39.7469 34.9493C41.5191 35.962 35.4431 33.9367 34.1773 29.3797C32.9115 24.8228 29.8735 19.5063 29.8735 19.5063C29.8735 19.5063 34.4305 6.59491 34.6836 6.34175C34.6836 5.83542 33.9241 0.772133 33.9241 0.772133Z" fill="#37120B"/>
<path d="M38.7341 3.55688C39.2404 4.31638 42.2784 5.83535 42.7847 9.37966C43.0378 11.405 43.0379 11.1518 42.5315 11.6581C41.772 12.6708 42.5315 13.9366 43.0379 14.6961C43.7974 15.7088 44.5568 16.4683 43.291 16.9746C41.772 17.4809 42.2784 17.9873 42.7847 18.4936C43.0378 18.7468 42.2784 19.2531 42.2784 19.5062C42.2784 19.5062 42.7847 20.2657 42.2784 20.5189C41.772 20.7721 41.2657 20.7721 41.2657 21.2784C41.2657 21.7847 41.2657 23.3037 40.5062 23.81C39.7467 24.3164 37.7214 23.5569 36.7087 23.3037C35.9493 23.0505 34.6834 22.7974 33.6708 23.5569C30.1265 26.0885 30.1265 28.8733 30.1265 28.8733C30.1265 28.8733 28.6075 30.3923 25.8227 24.5695C25.3163 23.81 26.0758 22.2911 26.329 21.0252C26.5822 19.2531 26.5821 17.2278 26.8353 17.2278C27.0885 17.2278 35.6961 8.11384 35.6961 8.11384L38.7341 3.55688Z" fill="#F4C297"/>
<path d="M23.291 103.557C23.7973 105.582 26.5822 113.937 25.8227 115.203C24.81 116.468 22.5315 122.038 23.7973 131.152C25.0632 140.266 25.8227 146.595 25.0632 148.367C24.0505 150.139 23.291 152.165 23.5442 153.684C23.7974 155.203 31.6454 160.519 36.9619 159.253C36.9619 159.253 35.6961 157.481 32.405 153.937C29.8733 151.152 30.6328 138.747 31.1391 134.443C31.6455 130.139 36.2024 115.962 35.9492 112.924C35.4429 109.886 35.6961 100.266 35.6961 100.266L23.291 103.557Z" fill="#F4C297"/>
<path d="M23.291 103.557C23.7973 105.582 26.5822 113.937 25.8227 115.203C25.0632 115.962 24.0505 119 23.5442 123.557L39.2404 109.886L34.6834 100.772L23.291 103.557Z" fill="url(#paint0_linear_212_1372)"/>
<path d="M23.7975 69.8862C23.7975 69.8862 8.86078 90.1393 0.506348 100.013C0.506348 100.013 6.07598 110.139 32.4051 110.646V67.8608L23.7975 69.8862Z" fill="#C90E00"/>
<path d="M0.506348 99.7594C0.506348 99.7594 4.55697 107.354 22.5317 109.633C26.076 94.1898 29.1139 70.6454 29.1139 70.6454L26.8354 68.8733L24.0507 69.6328C23.7975 69.886 8.86078 89.8859 0.506348 99.7594Z" fill="#AB0C00"/>
<path d="M35.19 26.0887C35.19 25.8355 34.9368 23.557 36.4558 23.3038C37.2153 23.3038 37.2153 22.5444 36.9621 22.038L39.2406 20.7722L33.1646 20.519L28.8608 30.3925L37.9748 34.1899C37.9748 34.1899 36.9621 33.4304 35.9495 29.8861C35.4431 28.3672 35.4431 27.1013 35.19 26.0887Z" fill="#F4C297"/>
<path d="M37.7216 33.9368C37.4684 33.6836 36.7089 32.4178 35.9495 29.633C35.6963 28.3671 35.4431 27.1013 35.19 26.0887C35.19 26.0887 35.19 25.8355 35.19 25.5823C35.19 24.8228 35.4431 23.557 36.4558 23.3039C35.4431 22.7975 33.9241 22.038 32.6583 21.0254L28.8608 29.633C28.8608 29.8861 28.8608 29.8861 28.8608 30.1393L37.7216 33.9368Z" fill="url(#paint1_linear_212_1372)"/>
<path d="M40.7594 69.8862C40.7594 69.8862 55.6962 90.1393 64.0506 100.013C64.0506 100.013 58.481 110.139 32.1519 110.646V67.8608L40.7594 69.8862Z" fill="#C90E00"/>
<path d="M30.3797 29.6328C30.3797 29.6328 35.443 32.924 37.4684 33.1771C37.4684 33.1771 43.7975 41.5316 43.7975 45.0759C44.0506 48.367 43.7975 51.1518 41.7722 53.9366C39.7468 56.7214 41.2658 69.3796 41.2658 70.6455C41.2658 70.6455 31.3924 71.6582 23.7975 69.886C23.7975 69.886 23.7974 53.1771 23.038 49.6328C22.2785 45.5822 20.2532 29.886 30.3797 29.6328Z" fill="#90B8EB"/>
<path d="M23.7974 66.3418C23.7974 67.1013 23.7974 67.6076 23.7974 68.1139C26.329 68.6203 30.1265 69.1266 34.4303 69.1266C36.7087 69.1266 38.7341 68.8735 41.0126 68.6203C41.0126 68.114 41.0125 67.6076 40.7594 66.8481C34.6834 67.8608 27.0885 66.8481 23.7974 66.3418Z" fill="#00265F"/>
<path d="M23.5444 62.5442C23.5444 63.0505 23.5444 63.81 23.5444 64.3163C26.0761 64.8227 29.8735 65.329 34.1773 65.329C36.2027 65.329 38.4811 65.0759 40.5065 64.8227C40.5065 64.3164 40.5065 63.81 40.5065 63.0505C34.4305 64.0632 27.0887 63.3037 23.5444 62.5442Z" fill="#00265F"/>
<path d="M23.5444 59C23.5444 59.5063 23.5444 60.2658 23.5444 60.7721C26.0761 61.2785 30.1267 61.7848 34.4305 61.7848C36.4558 61.7848 38.4811 61.5316 40.5065 61.2785C40.5065 60.7721 40.5065 60.2658 40.5065 59.5063C34.1773 60.519 26.8356 59.5063 23.5444 59Z" fill="#00265F"/>
<path d="M23.5444 55.2024C23.5444 55.7087 23.5444 56.215 23.5444 56.9745C26.0761 57.4809 30.1267 57.9872 34.4305 57.9872C36.4558 57.9872 38.4811 57.734 40.5065 57.4809C40.5065 56.7214 40.7596 56.215 40.7596 55.7087C34.4305 56.9745 26.8356 55.9619 23.5444 55.2024Z" fill="#00265F"/>
<path d="M23.291 51.6582C23.291 52.1645 23.291 52.6709 23.291 53.4304C25.5695 53.9367 29.8733 54.443 34.4302 54.443C36.9619 54.443 39.4936 54.1899 41.772 53.6835C42.2784 52.924 42.5315 52.4177 42.7847 51.6582C36.2024 53.4304 26.8353 52.1645 23.291 51.6582Z" fill="#00265F"/>
<path d="M22.7852 47.8606C22.7852 48.3669 23.0383 49.1264 23.0383 49.3796V49.6328C25.3168 50.1391 29.6206 50.6454 34.4307 50.6454C37.4687 50.6454 40.7598 50.3923 43.5446 49.6328C43.5446 49.1264 43.7978 48.3669 43.7978 47.8606C36.4561 50.1391 26.0763 48.3669 22.7852 47.8606Z" fill="#00265F"/>
<path d="M22.5317 44.0632C22.5317 44.5695 22.5317 45.3291 22.5317 45.8354C24.5571 46.3417 29.3672 46.848 34.4305 46.848C37.4684 46.848 40.7596 46.5949 43.7976 45.5822C43.7976 45.329 43.7976 45.0759 43.7976 44.5696C43.7976 44.3164 43.7976 44.0632 43.7976 43.8101C36.2026 46.3417 25.3165 44.8227 22.5317 44.0632Z" fill="#00265F"/>
<path d="M22.5317 40.5188C22.5317 41.0251 22.5317 41.5314 22.5317 42.2909C24.5571 42.5441 29.3672 43.5568 34.4305 43.5568C37.2153 43.5568 40.2533 43.3036 43.0381 42.5441C42.7849 42.0378 42.5317 41.5314 42.2786 41.0251C34.9368 42.5441 25.0634 41.0251 22.5317 40.5188Z" fill="#00265F"/>
<path d="M22.7849 36.9746C22.7849 37.4809 22.5317 37.9873 22.5317 38.7468C24.8102 39.2531 29.3672 39.7594 34.4305 39.7594C36.7089 39.7594 38.9875 39.5063 41.2659 39.2531C41.0128 38.7468 40.7596 38.2404 40.2533 37.7341C33.671 38.7468 25.8229 37.4809 22.7849 36.9746Z" fill="#00265F"/>
<path d="M39.2406 35.7089C38.7343 35.2026 38.4811 34.4431 38.2279 34.1899C32.9115 34.6963 27.3419 33.9367 24.3039 33.4304C24.0507 33.9367 23.7976 34.4431 23.5444 34.9494C25.8229 35.4558 30.1267 35.9621 34.4305 35.9621C35.9495 35.9621 37.4685 35.9621 39.2406 35.7089Z" fill="#00265F"/>
<path d="M35.1898 32.4177C34.1772 31.9113 32.9113 31.1518 31.8987 30.6455C30.1265 30.6455 28.6076 30.3923 27.3417 30.3923C26.5822 30.6455 25.8227 31.1518 25.3164 31.9113C27.8481 32.1645 30.886 32.6708 34.4303 32.6708C34.6835 32.4177 34.9366 32.4177 35.1898 32.4177Z" fill="#00265F"/>
<path d="M30.633 29.886C30.3799 29.6328 30.1267 29.6328 30.1267 29.6328C20.2533 29.886 22.2786 45.5822 22.785 49.3797C23.5444 53.1771 23.5445 69.6328 23.5445 69.6328C25.0634 70.1391 26.8356 70.3923 28.6077 70.3923L30.633 29.886Z" fill="#B6CDE9"/>
<path d="M40.5063 2.03797C40.5063 2.03797 40.2532 11.6582 34.4304 14.9494C31.6456 16.4683 32.9114 19.7595 33.1646 20.7721C33.6709 24.3164 31.1392 35.962 20 32.4177C20 32.4177 27.5949 28.8734 23.038 18.7468C20 12.4177 23.2911 -1.00002 35.1899 0.265804L40.5063 2.03797Z" fill="#37120B"/>
<path d="M29.6203 33.6835C26.3292 33.9367 24.0507 36.2152 24.3038 41.7848C24.557 47.1012 25.3165 63.5569 30.633 64.3164C35.9494 64.8227 49.3672 54.9493 51.3925 52.924C53.4178 50.8987 55.4431 49.3797 56.7089 48.6202C58.2279 47.8607 59.2406 47.1012 55.6963 44.3164C53.4178 42.5443 51.8988 44.5696 51.6456 45.5822C50.8861 47.6076 48.3545 49.1266 47.0887 49.6329C43.2912 50.8987 34.6836 55.4557 33.671 56.4683C33.4178 56.4683 36.9621 32.924 29.6203 33.6835Z" fill="#F4C297"/>
<path d="M23.5442 151.405C23.5442 151.405 21.772 153.937 22.5315 157.228C23.291 160.519 23.291 163.051 23.291 164.316H24.81V156.975C24.81 156.975 27.848 160.266 28.6075 162.038C29.367 163.81 28.6075 164.316 35.9492 164.316C39.4935 164.316 41.0125 163.051 40.253 161.532C39.7467 160.519 37.9745 159.506 36.4556 159C36.4556 159.253 31.1391 161.532 23.5442 151.405Z" fill="#00265F"/>
<path d="M53.671 50.3925C50.1267 52.671 41.266 58.2406 37.2153 60.0127C32.9115 61.7849 31.8989 62.5444 29.8736 58.7469C28.3546 55.7089 26.8356 40.2659 26.3292 34.6963C24.8103 35.9621 24.0508 37.9874 24.0508 41.5317C24.3039 46.8482 25.0634 63.3039 30.3799 64.0634C35.6964 64.5697 49.1141 54.6963 51.1394 52.671C51.3925 52.4178 51.8989 51.9115 52.152 51.6583C52.4052 51.6583 53.4179 50.6456 53.671 50.3925Z" fill="#EDAB72"/>
<path d="M51.3926 45.5824C51.3926 45.5824 51.8989 43.3039 52.6584 42.0381C53.4179 40.7722 53.6711 39.5064 53.9242 39.5064C54.6837 39.5064 54.4305 41.2786 54.1774 42.0381C53.9242 43.0507 53.9242 43.5571 54.1774 43.0507C54.4305 42.5444 57.7217 39.5064 58.7343 39.2533C59.2407 39.0001 59.2406 39.5064 59.747 39.5064C60.2533 39.5064 60.5065 39.2533 61.0128 39.5064C61.5191 39.7596 61.0128 40.0127 61.266 40.7722C61.5191 41.2786 61.266 41.7849 61.266 42.0381C61.266 42.5444 61.5192 42.5444 61.5192 43.0507C61.5192 43.8102 58.228 47.8608 56.4559 48.6203C54.6837 49.1267 51.3926 45.5824 51.3926 45.5824Z" fill="#F4C297"/>
<path d="M20 32.4178C24.3038 33.6836 27.0886 32.9241 29.1139 31.152C31.8987 26.3418 31.8987 21.0254 28.8608 14.4431C24.8101 5.58232 32.1519 0.519034 32.6582 0.265869C22.7848 1.02536 20.2532 12.9241 23.038 18.7469C27.5949 28.8735 20 32.4178 20 32.4178Z" fill="#260D08"/>
<path d="M69.873 92.1645C69.873 92.1645 73.1642 92.924 70.8857 90.6455C68.6072 88.367 79.9996 94.443 79.9996 94.443V97.9873L69.873 92.1645Z" fill="#260C08"/>
<path d="M97.7216 161.025C97.7216 161.025 100.253 161.025 100.76 159.759C101.266 158.494 100.253 148.114 100.76 145.582C101.266 143.051 105.57 134.443 105.57 134.443L95.6963 131.911L97.7216 161.025Z" fill="#380C02"/>
<path d="M141.266 139.759C141.266 139.759 145.569 146.595 146.076 149.127C146.582 151.911 147.088 157.734 146.076 159.253C145.063 160.519 142.025 162.797 146.582 163.304C151.392 163.557 152.658 158.494 152.405 158.241C152.152 157.734 146.835 139.253 146.835 139.253L141.266 139.759Z" fill="#380C02"/>
<path d="M69.1136 92.4177C69.6199 91.9114 70.3794 92.1646 72.6579 93.1772C75.949 94.443 77.2148 95.4557 77.7212 95.2025C78.987 94.6962 74.9364 93.6836 71.8984 91.4051C67.0883 87.8608 68.6073 82.7974 70.8857 83.3038C72.9111 83.8101 75.4427 84.8228 77.7212 85.3291C79.9997 85.8354 81.5186 82.5443 86.5819 84.3165C91.3921 86.0886 93.6705 89.1266 94.6832 93.9367C95.6958 98.7468 96.9617 102.544 101.012 103.81C105.063 105.076 109.367 106.848 118.987 107.354C128.607 107.861 143.038 107.354 146.835 110.392C146.835 110.392 152.405 110.899 157.721 107.608C162.784 104.316 168.607 102.038 171.898 100.772C174.936 99.5063 177.974 97.2278 178.987 95.962C178.987 95.962 180.253 99 178.987 100.772C177.721 102.797 175.443 108.367 174.43 109.127C173.417 110.139 170.379 111.405 170.633 113.177C170.633 114.949 169.367 114.696 166.076 115.962C163.038 117.228 162.025 116.975 160 118.494C157.974 120.013 156.708 119 155.696 118.494C154.683 117.987 150.633 118.24 149.62 116.975C149.62 116.975 152.658 128.367 152.152 135.203C151.645 142.038 154.683 145.582 155.19 147.608C155.696 149.633 155.696 162.291 155.443 163.304C155.443 164.316 155.443 166.342 151.139 166.089C147.088 166.089 148.101 164.063 149.367 162.797C150.633 161.532 150.633 153.43 150.379 150.646C150.126 147.608 135.696 139.759 133.164 133.43C129.114 123.051 127.088 132.924 117.721 135.709C108.101 138.494 103.038 137.228 103.038 137.228C103.038 137.228 101.265 140.772 100.253 143.051C99.2401 145.076 98.7338 153.177 98.4807 157.734C98.2275 162.544 98.7338 164.316 92.911 164.316C87.0883 164.316 91.3921 160.772 92.911 160.266C94.43 159.76 94.43 150.646 94.1769 146.848C93.9237 143.304 93.1642 139.506 89.8731 135.962C86.3288 132.418 83.5439 126.848 83.2908 120.519C83.0376 114.19 85.0629 110.139 84.5566 106.848C83.7971 103.304 82.025 101.278 77.468 98.4936C72.4047 95.962 67.8478 94.443 69.1136 92.4177Z" fill="#731C09"/>
<path d="M80.7592 85.8354C81.2656 85.8354 81.5187 87.1013 80.7592 87.1013C79.9997 87.1013 79.7466 85.8354 80.7592 85.8354Z" fill="#260C08"/>
<path d="M71.3922 83.557C71.1391 83.3038 70.8859 83.3038 70.6327 83.3038C69.3669 83.0507 68.3542 84.3165 68.6074 86.3418C69.3669 86.0887 70.8859 85.5823 71.3922 83.557Z" fill="#260C08"/>
<path d="M87.0884 91.9115C87.0884 91.9115 88.6074 95.7089 87.0884 98.4938C85.5694 101.279 84.3036 108.874 87.0884 110.139C91.3922 112.165 97.4681 108.367 92.1517 88.8735L87.0884 91.9115Z" fill="url(#paint2_linear_212_1372)"/>
<path d="M130.126 129.126C130.126 128.873 129.873 128.873 129.62 128.873C129.62 128.873 129.873 129.126 130.126 129.126Z" fill="#4F1002"/>
<path d="M117.215 135.709C123.291 133.937 126.329 129.127 128.608 128.873C126.076 128.873 120.76 130.899 118.734 132.164C116.203 133.937 112.658 132.164 110.633 132.164C108.608 132.164 99.7469 126.848 100.76 128.62C101.772 130.392 103.544 135.709 102.532 137.228C102.532 137.228 107.595 138.494 117.215 135.709Z" fill="#4F1002"/>
<path d="M167.848 106.342C164.304 109.38 163.038 114.696 158.734 113.683C154.43 112.671 148.607 116.975 148.607 116.975C149.62 118.24 153.418 117.987 154.683 118.494C155.696 119 157.215 120.013 158.987 118.494C161.013 116.975 162.025 117.228 165.063 115.962C168.101 114.696 169.62 114.696 169.62 113.177C169.62 111.405 172.658 110.139 173.418 109.127C174.43 108.114 176.709 102.544 177.975 100.772C179.24 98.9999 177.975 95.9619 177.975 95.9619C172.911 104.57 171.392 103.304 167.848 106.342Z" fill="#4F1002"/>
<path d="M141.266 113.683C142.785 113.683 144.05 111.658 144.81 109.38C139.747 107.101 127.088 107.608 118.481 107.101C108.861 106.595 104.557 104.823 100.506 103.557C97.4682 102.797 95.9492 100.266 94.9365 97.2278C94.9365 97.2278 94.9365 104.57 101.772 111.152C108.607 117.734 105.823 110.899 111.899 113.43C117.721 115.962 122.278 109.633 127.088 111.911C131.899 114.19 137.215 113.937 141.266 113.683Z" fill="#96321B"/>
<path d="M71.8988 82.7973C71.8988 83.0505 71.6456 83.5568 71.1393 83.5568H69.6203C69.3672 83.5568 68.8608 83.3037 68.8608 82.7973C68.8608 82.5442 69.114 82.0378 69.6203 82.0378H71.1393C71.6456 82.291 71.8988 82.5442 71.8988 82.7973Z" fill="#C90E00"/>
<path d="M71.8988 81.5317C71.8988 81.7849 71.6456 82.2912 71.1393 82.2912H69.6203C69.3672 82.2912 68.8608 82.038 68.8608 81.5317C68.8608 81.2786 69.114 80.7722 69.6203 80.7722H71.1393C71.6456 80.7722 71.8988 81.2786 71.8988 81.5317Z" fill="#C90E00"/>
<path d="M71.8988 80.2658C71.8988 80.519 71.6456 81.0254 71.1393 81.0254H69.6203C69.3672 81.0254 68.8608 80.7722 68.8608 80.2658C68.8608 80.0127 69.114 79.5063 69.6203 79.5063H71.1393C71.6456 79.5063 71.8988 79.7595 71.8988 80.2658Z" fill="#C90E00"/>
<path d="M71.8988 79C71.8988 79.2531 71.6456 79.7595 71.1393 79.7595H69.6203C69.3672 79.7595 68.8608 79.5063 68.8608 79C68.8608 78.7468 69.114 78.2405 69.6203 78.2405H71.1393C71.6456 78.2405 71.8988 78.4937 71.8988 79Z" fill="#C90E00"/>
<defs>
<linearGradient id="paint0_linear_212_1372" x1="19.9318" y1="115.646" x2="36.3077" y2="106.093" gradientUnits="userSpaceOnUse">
<stop stop-color="white"/>
<stop offset="1" stop-color="#F4C297"/>
</linearGradient>
<linearGradient id="paint1_linear_212_1372" x1="37.0016" y1="22.6315" x2="33.2786" y2="32.2165" gradientUnits="userSpaceOnUse">
<stop stop-color="#EDB380"/>
<stop offset="1" stop-color="#F4C297"/>
</linearGradient>
<linearGradient id="paint2_linear_212_1372" x1="89.1501" y1="89.6449" x2="90.1942" y2="110.181" gradientUnits="userSpaceOnUse">
<stop offset="0.1515" stop-color="#731C09"/>
<stop offset="0.3407" stop-color="#5E1607"/>
<stop offset="0.6386" stop-color="#420F03"/>
<stop offset="0.8121" stop-color="#380C02"/>
</linearGradient>
</defs>
</svg>
