<svg width="65" height="54" viewBox="0 0 65 54" fill="none" xmlns="http://www.w3.org/2000/svg">
<g clip-path="url(#clip0_211_4935)">
<path fill-rule="evenodd" clip-rule="evenodd" d="M23.3987 12.1652C24.9407 17.0313 25.0748 16.1527 26.818 19.9036C27.4884 21.3567 28.5276 20.0388 28.5276 20.0388C28.5276 20.0388 28.4606 13.99 27.4884 12.8748C26.4827 11.7597 25.4435 10.8811 25.4435 10.8811L23.3987 12.1652Z" fill="#F2AD97"/>
<path fill-rule="evenodd" clip-rule="evenodd" d="M7.03969 5.6095C7.03969 5.6095 8.64877 5.64329 9.48683 5.64329C10.8613 5.67708 14.247 4.83228 14.247 4.83228L13.8783 10.408C13.8783 10.408 11.2635 10.6783 10.526 10.8135C9.78853 10.9487 7.17378 11.05 6.6039 10.2052C6.0005 9.39423 5.39709 7.13015 5.39709 7.13015L7.03969 5.6095Z" fill="#F9B7A2"/>
<path fill-rule="evenodd" clip-rule="evenodd" d="M7.03972 5.60948C7.03972 5.60948 8.6488 5.64327 9.48686 5.64327C9.75504 5.64327 10.0903 5.64327 10.459 5.57568C10.3584 6.08257 10.3249 6.96117 10.8948 7.73839C11.5317 8.65078 12.1016 9.69834 12.3027 10.5769C11.5988 10.6445 10.8613 10.7459 10.5261 10.8135C10.0903 10.9149 8.9505 10.9486 8.01187 10.8135C7.20733 10.1376 6.36927 9.428 6.33575 9.36041C6.30223 9.19145 6.33575 6.58945 6.20166 6.3867L7.03972 5.60948Z" fill="#F2AD97"/>
<path fill-rule="evenodd" clip-rule="evenodd" d="M1.64258 11.9624C1.64258 11.9624 2.31303 12.9086 3.11757 13.4493C3.9221 13.9899 4.55903 13.7872 5.12891 13.821C5.66527 13.821 6.23515 13.7534 6.73799 14.0237C7.24083 14.3279 7.60957 14.5644 7.91127 14.1589C8.21298 13.7196 8.28002 13.6182 8.95047 13.5844C9.5874 13.5506 10.7942 13.6182 11.1965 13.0775C11.5652 12.5369 11.5652 10.7459 11.1294 9.90108C10.6936 9.05627 8.58172 7.90733 7.509 7.53562C6.43629 7.1977 4.72664 7.33287 3.48631 8.17767C2.24598 9.02248 1.94428 9.46178 1.84371 10.0025C1.74315 10.6107 1.64258 11.9624 1.64258 11.9624Z" fill="#F9B7A2"/>
<path fill-rule="evenodd" clip-rule="evenodd" d="M9.48685 5.64334C9.48685 5.64334 7.30789 4.73095 5.73233 4.5282C4.12326 4.32544 2.38009 5.10267 1.67612 5.64334C0.938625 6.18402 0.134087 7.60329 -2.7772e-06 9.09015C-0.10057 10.577 0.335221 11.388 0.87158 12.3004C1.40794 13.2128 2.21248 13.1452 2.74884 12.2328C3.2852 11.2866 3.01702 10.7122 4.29087 10.4756C5.5312 10.2729 6.1346 10.1039 6.77153 9.42807C7.40846 8.75223 7.57607 7.46812 7.57607 7.46812L9.48685 5.64334Z" fill="#7F351A"/>
<path fill-rule="evenodd" clip-rule="evenodd" d="M8.14593 6.75848C7.57605 6.42056 6.93912 6.48814 6.70446 6.85986C6.50333 7.23157 6.77151 7.77225 7.37491 8.11017C7.94479 8.44809 8.58172 8.38051 8.81638 8.0088C9.01751 7.63708 8.71581 7.09641 8.14593 6.75848Z" fill="#F9B7A2"/>
<path fill-rule="evenodd" clip-rule="evenodd" d="M27.5889 23.3504C27.5889 23.3504 26.248 26.7972 26.4156 27.5745C26.5497 28.3517 27.723 32.7447 27.9577 33.2516C28.2258 33.7584 29.5667 37.0025 29.5667 37.0025L33.9917 36.1577C33.9917 36.1577 32.3491 32.373 31.8798 31.5957C31.4105 30.8185 29.7008 27.7434 30.2707 26.6959C30.8741 25.6483 33.3548 22.8773 34.394 21.4919C35.4332 20.1064 37.7462 16.8623 38.1485 15.1389C38.5507 13.4155 32.5167 17.3016 32.5167 17.3016L27.5889 23.3504Z" fill="#647B97"/>
<path fill-rule="evenodd" clip-rule="evenodd" d="M27.7901 14.5306C27.7901 14.5306 26.3821 16.9636 25.5106 18.1464C24.6725 19.3291 22.9293 22.2014 22.4265 22.9787C21.9572 23.7559 21.3538 25.9186 22.1248 28.453C22.8958 30.9536 25.7117 37.9486 25.7117 37.9486L30.8742 37.3404C30.8742 37.3404 28.5611 29.0613 28.3935 28.284C28.1924 27.5068 29.3656 25.6482 30.673 24.4993C31.9804 23.3504 35.7349 18.8898 36.7071 17.8422C37.7127 16.7947 38.7519 15.3416 39.2883 13.9899C39.8582 12.6382 39.59 10.0024 39.59 10.0024L27.7901 14.5306Z" fill="#7C92AC"/>
<path fill-rule="evenodd" clip-rule="evenodd" d="M27.7901 14.5306C27.7901 14.5306 27.2873 15.3754 26.7174 16.3216C31.6452 16.5243 35.2992 16.254 39.2548 14.1927C39.2883 14.1251 39.3218 14.0575 39.3554 13.9899C39.9252 12.6382 39.6571 10.0024 39.6571 10.0024L27.7901 14.5306Z" fill="#6E839E"/>
<path fill-rule="evenodd" clip-rule="evenodd" d="M13.2414 11.5907C13.2414 11.5907 14.4482 12.3679 15.7891 12.6383C17.13 12.9086 19.5101 13.3141 21.0186 13.3141C22.5271 13.3141 24.8401 13.3479 25.7117 13.8548C26.5833 14.3617 27.1196 15.5782 27.1196 15.5782C27.1196 15.5782 31.4776 15.4092 33.556 14.9362C35.6343 14.4631 39.9587 12.9762 40.6627 11.7259C39.0872 3.0075 27.7231 -0.777236 20.0799 0.168947C17.0294 0.540662 14.4817 1.85856 13.3419 4.7309C12.8391 6.015 12.9397 7.43428 12.8726 8.68459C12.8056 9.59698 13.2414 11.5907 13.2414 11.5907Z" fill="#D4E6F1"/>
<path fill-rule="evenodd" clip-rule="evenodd" d="M14.6493 12.3004C14.9845 12.4356 15.3868 12.5707 15.789 12.6721C17.1299 12.9425 19.51 13.348 21.0185 13.348C22.527 13.348 24.8401 13.3818 25.7117 13.8886C26.5833 14.3955 27.1196 15.612 27.1196 15.612C27.1196 15.612 27.9912 15.5783 29.1645 15.5107C27.4213 10.3067 21.1861 7.70466 15.722 8.54946C13.7442 8.85359 13.8783 10.4418 13.8783 10.4418L14.6493 12.3004Z" fill="#C2DAE8"/>
<path fill-rule="evenodd" clip-rule="evenodd" d="M46.5626 51.7021C46.5626 51.7021 48.8422 51.9387 50.4848 52.6145C52.1273 53.2904 54.2393 53.8986 56.15 53.6283C58.0608 53.358 59.1671 52.8849 60.8767 52.8173C62.5863 52.7159 64.1619 52.0063 64.7318 50.6884C65.3017 49.3705 65.1676 49.4719 63.4579 49.4719C61.7483 49.4381 60.4744 49.4719 58.7313 49.0326C56.9881 48.5933 55.7478 48.4919 53.9376 48.5933C52.1273 48.6946 50.0154 48.796 48.5069 49.5394C46.9649 50.2491 46.5626 51.7021 46.5626 51.7021Z" fill="#C38E2C"/>
<path fill-rule="evenodd" clip-rule="evenodd" d="M23.6668 47.174C23.6668 47.174 20.4822 48.0188 19.0743 48.0525C17.6663 48.0863 11.5652 48.2891 10.8948 48.8636C10.2243 49.4718 9.75502 50.1815 11.0289 50.3842C12.3027 50.5532 20.6163 50.3842 22.1918 50.0463C23.7674 49.7422 23.6668 47.174 23.6668 47.174Z" fill="#B47F19"/>
<path fill-rule="evenodd" clip-rule="evenodd" d="M26.6504 34.3329C26.6504 34.3329 30.7066 35.1777 33.0197 35.0087C35.3327 34.8398 39.0537 33.5895 42.2383 35.0763C45.423 36.597 47.8031 38.5231 49.1439 40.0776C51.0882 42.3079 55.5132 50.0801 50.2837 50.6545C48.1718 50.8911 42.5065 51.1276 40.8639 50.7221C39.2213 50.2828 35.7015 50.3842 34.1594 50.2828C32.6174 50.2152 31.1424 50.3166 29.3657 50.1814C27.589 50.0463 24.505 49.438 23.801 48.0525C23.097 46.6333 23.3652 44.0988 22.8624 42.4768C22.326 40.8548 23.6669 39.03 23.6669 39.03L25.9129 35.7184L26.6504 34.3329Z" fill="#C38E2C"/>
<path fill-rule="evenodd" clip-rule="evenodd" d="M42.54 50.8911C41.8361 50.8573 41.2326 50.7897 40.8639 50.6883C39.2213 50.249 35.7014 50.3504 34.1594 50.249C32.6174 50.1814 31.1424 50.2828 29.3657 50.1476C27.589 50.0125 24.505 49.4042 23.801 48.0187C23.5663 47.5119 23.4322 46.8698 23.3317 46.1602C24.4379 45.0112 25.3765 44.0312 25.3765 44.0312C25.3765 44.0312 29.7345 46.025 34.6622 45.7209C39.59 45.4167 42.6741 47.4443 42.6741 47.4443C42.6741 47.4443 42.7747 49.3366 42.54 50.8911Z" fill="#AE7A14"/>
<path fill-rule="evenodd" clip-rule="evenodd" d="M26.7174 34.3667C27.3208 34.5019 30.9077 35.1777 32.9861 35.0426C35.2991 34.8736 39.0201 33.5557 42.2048 35.1102C43.2104 35.617 44.1491 36.1577 44.9871 36.7322C44.6184 37.5094 43.4451 37.8473 41.3667 37.3742C38.0145 36.6308 38.4502 38.4894 34.5616 39.7059C30.7066 40.9224 24.8737 38.0163 24.8737 38.0163L26.3822 34.7384C26.4492 34.7384 26.5498 34.5695 26.7174 34.3667Z" fill="#231F20"/>
<path fill-rule="evenodd" clip-rule="evenodd" d="M39.6235 51.8035C39.6235 51.8035 35.5338 48.4243 35.936 46.3292C36.8411 41.5645 40.5621 40.5845 44.1155 43.6258C45.3223 44.6734 45.9928 46.0251 46.7302 47.343C51.8257 56.4669 43.8808 52.8849 35.6008 53.8649C34.461 54 32.6173 54.1352 32.3826 53.3242C32.148 52.5132 32.4497 52.2766 33.9247 52.0739C35.3997 51.9049 39.6235 51.8035 39.6235 51.8035Z" fill="#C38E2C"/>
<path fill-rule="evenodd" clip-rule="evenodd" d="M22.2925 39.9763C22.2925 39.9763 22.6948 40.8549 23.4322 40.7873C24.1697 40.7535 24.4714 40.1791 25.0078 39.1653C25.3095 38.5908 27.4214 34.4006 27.0191 34.1978C26.4828 33.9275 25.7788 33.2516 25.343 33.7923C24.8402 34.2992 22.2925 39.9763 22.2925 39.9763Z" fill="#00ADEE"/>
<path fill-rule="evenodd" clip-rule="evenodd" d="M18.2027 32.2041C18.2027 32.2041 16.5266 33.7247 16.0238 34.6033C15.5209 35.5157 15.3868 36.0226 14.8169 36.3943C14.2806 36.7998 11.9005 38.1853 11.6323 38.4894C11.3641 38.7936 10.5596 38.8949 11.4982 39.8749C12.4369 40.8211 17.5323 39.6384 18.2362 39.5032C18.8396 39.4018 17.834 40.5507 19.8118 40.2804C19.9459 40.2466 20.08 40.2128 20.1805 40.2128C20.2141 40.2128 20.2811 40.2128 20.3482 40.2128C21.4209 40.0439 22.2925 39.8749 22.3595 39.7735C22.5606 39.3004 22.9629 38.8273 23.1976 38.3543C23.6669 37.3743 24.0021 36.3943 24.7396 35.7185C25.2424 35.2792 25.4436 34.2654 25.2759 33.8937C25.0748 33.4544 24.2368 33.3868 24.0691 33.2178C23.801 32.8799 21.8567 30.582 20.7839 30.8862C19.7112 31.1903 19.0073 31.4606 18.9067 31.5958C18.8396 31.7986 18.2027 32.2041 18.2027 32.2041Z" fill="#CE952F"/>
<path fill-rule="evenodd" clip-rule="evenodd" d="M13.1743 37.4757C12.4704 37.915 11.7664 38.388 11.6323 38.5232C11.3641 38.8273 10.5596 38.9287 11.4982 39.9087C12.4369 40.8549 14.0795 41.2942 14.7499 41.0576C17.6664 39.9763 18.3033 39.6046 18.1357 39.6722C17.8675 39.8073 15.0516 41.0238 14.7499 41.0914C14.5152 41.159 14.0795 41.6997 14.7499 42.0376C15.4204 42.3755 16.0908 41.97 16.7277 41.5645C17.5658 41.0238 18.2698 40.5845 19.309 40.3818C19.5771 40.348 20.1135 40.2466 20.3817 40.2466C20.4152 39.9425 20.2141 38.726 19.8788 38.726C19.5771 38.726 19.2419 38.2867 18.8732 37.746C18.5044 37.2053 17.8675 36.935 17.8675 36.935C17.8675 36.935 18.4709 35.6509 18.1692 35.7185C18.0016 35.7522 16.9959 35.144 16.2249 34.6709C16.0238 35.1778 15.9232 36.8674 14.6158 37.3405C13.8783 37.5432 13.4425 37.5432 13.1743 37.4757Z" fill="#404041"/>
<path fill-rule="evenodd" clip-rule="evenodd" d="M18.0686 29.6696C18.2362 30.582 18.4038 31.4606 18.4038 31.5958C18.4038 31.7647 18.2362 32.4068 19.3089 32.7447C20.3816 33.0826 21.689 32.6096 21.689 31.6972C21.689 30.7848 21.1862 30.1089 20.6833 29.5345C20.1805 28.96 19.51 28.1828 19.2754 27.8448C19.0407 27.5069 18.6384 27 18.2027 27.2028C17.3311 27.6083 17.901 28.6559 18.0686 29.6696Z" fill="#C38E2C"/>
<path fill-rule="evenodd" clip-rule="evenodd" d="M19.6442 32.846C20.6163 32.9812 21.6555 32.5419 21.6555 31.6971C21.6555 30.7847 21.1527 30.1089 20.6498 29.5344C20.147 28.9599 19.4766 28.1827 19.2419 27.8448C19.0408 27.5407 18.672 27.1014 18.3368 27.1689C18.6385 27.4393 18.9067 28.0813 19.0408 28.5544C19.2419 29.1289 19.8118 30.3116 20.2476 30.8523C20.6834 31.393 20.7839 31.8661 20.2476 32.1026C19.9123 32.2378 19.7447 32.6095 19.6442 32.846Z" fill="#70501C"/>
<path fill-rule="evenodd" clip-rule="evenodd" d="M16.2919 35.2792C16.2919 35.2792 17.4317 35.7185 17.1635 35.9212C16.8953 36.0902 16.359 36.3605 16.2584 36.0226C16.1914 35.7185 16.2919 35.2792 16.2919 35.2792Z" fill="#231F20"/>
<path fill-rule="evenodd" clip-rule="evenodd" d="M16.0238 18.9575C16.0238 18.9575 16.7948 21.2891 17.0965 22.2353C17.3982 23.1815 18.0016 25.1076 18.0016 25.1076C18.0016 25.1076 16.2249 27.6421 15.8897 29.3317C15.5545 31.0213 14.5823 35.2453 14.5823 35.2453C14.5823 35.2453 13.5096 36.2253 13.1073 36.5632C12.7386 36.9011 11.867 37.3404 12.2022 38.0501C12.5374 38.7597 12.7051 39.3342 12.7051 40.179C12.7051 41.0238 13.0738 41.5983 13.6102 42.1389C14.1465 42.7134 15.1187 42.9499 15.3198 42.2403C15.5209 41.5307 15.4204 40.7197 15.8562 39.7397C16.2584 38.7597 16.6942 38.4218 16.8618 37.3404C17.0295 36.2929 17.5658 34.6708 18.0351 33.6233C18.538 32.5757 20.0465 29.4668 20.6499 27.98C21.2533 26.4593 21.4544 25.0401 21.4544 23.587C21.4544 22.1339 20.2811 17.3016 20.2811 17.3016L16.0238 18.9575Z" fill="#F9B7A2"/>
<path fill-rule="evenodd" clip-rule="evenodd" d="M16.0237 18.9575L16.6941 20.9512L20.7168 19.2954C20.4822 18.1802 20.2475 17.3016 20.2475 17.3016L16.0237 18.9575Z" fill="#F2AD97"/>
<path fill-rule="evenodd" clip-rule="evenodd" d="M13.2414 12.03C13.2749 13.3817 15.588 20.0388 15.588 20.0388L21.1192 18.0112C21.1192 18.0112 20.6163 15.5444 20.147 14.3279C19.6777 13.1452 19.0743 11.1852 18.4709 10.3066C17.8675 9.42802 16.7948 8.78596 16.0908 8.81976C14.4147 8.92113 13.2079 10.3404 13.2414 12.03Z" fill="#D4E6F1"/>
<path fill-rule="evenodd" clip-rule="evenodd" d="M22.9294 43.9299C22.7953 44.5382 22.5942 46.194 22.0243 47.005C20.8175 48.6946 19.2755 49.6408 17.2976 50.4518C16.359 50.8235 13.6437 51.1615 12.7386 51.3304C11.8335 51.4994 10.6267 51.8711 9.55395 51.7697C8.48123 51.7021 7.00624 51.3304 6.30227 51.9049C5.56478 52.4794 5.36364 53.1552 6.57045 53.4931C7.77726 53.831 8.95054 54.0338 10.0233 53.8648C11.0625 53.6959 12.7051 53.4593 14.2471 53.4255C19.7783 53.2904 27.4549 51.4994 28.2595 44.7409C28.5276 42.4769 27.522 41.632 26.0805 41.3279C24.4379 41.0238 23.5328 41.3617 22.9294 43.9299Z" fill="#C38E2C"/>
</g>
<defs>
<clipPath id="clip0_211_4935">
<rect width="65" height="54" fill="white"/>
</clipPath>
</defs>
</svg>
