<svg width="288" height="204" viewBox="0 0 288 204" fill="none" xmlns="http://www.w3.org/2000/svg">
<path d="M117.184 145.484C111.436 145.223 106.473 144.961 103.077 146.268L65.7206 127.459L45.0832 88.7964L23.6621 98.9845L54.2264 142.61C65.9819 149.402 81.1334 152.798 100.203 156.456C101.771 159.329 108.563 162.203 114.31 164.815L117.184 145.484Z" fill="#FFD2A1"/>
<path d="M117.706 147.051C116.139 150.447 116.661 154.888 119.274 157.762C118.751 154.888 119.535 151.492 121.102 149.141C121.886 148.096 122.931 146.529 122.147 145.484C121.625 144.7 120.319 144.439 119.535 144.962C118.751 145.223 118.229 146.006 117.706 147.051Z" fill="#FFD2A1"/>
<path d="M157.936 95.3271C154.801 97.417 151.667 99.2456 150.622 100.813C146.964 102.903 143.568 104.47 140.434 105.776C139.127 106.299 137.56 107.083 136.254 107.605C135.993 107.605 135.731 107.866 135.47 107.866C134.948 108.128 134.686 108.128 134.164 108.389C132.074 109.434 129.723 110.74 127.372 112.569C127.633 112.046 126.588 109.956 126.066 106.56C125.804 105.254 125.543 103.687 125.282 102.119C125.021 100.552 125.021 98.9844 125.021 97.1557C125.021 89.8412 130.245 84.3553 127.633 81.743C125.804 78.6082 123.192 79.9144 117.445 81.2205C116.4 81.4818 115.355 81.4817 114.31 81.4817C113.788 81.4817 113.527 81.4817 113.004 81.4817C112.743 81.4817 112.482 81.4817 112.22 81.4817C110.131 81.743 108.041 81.2205 106.473 80.1756C105.428 79.3919 104.383 78.6082 103.6 77.302C103.6 77.0408 103.338 77.0408 103.338 76.7795C103.077 76.5183 103.077 76.2571 102.816 75.7346L99.42 70.51L97.5913 67.6364C97.0689 66.3302 97.5913 64.7628 98.8975 63.9791L102.294 62.1505L109.869 57.9708L110.914 57.4483C113.004 56.4034 115.616 53.7911 116.4 51.7012L116.923 49.6113C117.184 49.0889 117.184 48.3052 117.445 47.7827C121.886 38.6395 144.613 38.9008 150.36 46.2153C150.622 46.4765 150.883 47.2602 151.405 48.0439C154.279 54.0523 160.026 69.7263 163.945 79.6531C164.728 81.743 165.512 83.5716 166.034 85.139C166.557 86.7064 167.079 87.7513 167.602 88.0126C168.647 89.0575 163.161 92.1923 157.936 95.3271Z" fill="#F1E3D1"/>
<path d="M179.096 151.231L177.79 150.97H177.006L175.177 150.708L172.826 150.447L170.475 150.186L165.25 149.402L162.116 149.141L158.981 148.619L148.793 147.312L145.397 146.79H144.874L142.262 146.529L121.102 143.916L118.751 143.655L116.4 143.394C117.706 139.998 118.49 136.341 119.273 132.683L124.237 132.422L130.245 132.161L132.596 131.9L141.478 131.377H143.046C143.046 131.377 143.046 131.377 143.307 131.377C143.568 131.377 143.568 131.377 143.829 131.377L160.548 130.332H162.116H163.422L167.079 130.071L172.043 129.81L172.304 131.116L177.006 145.745L177.79 148.357L178.051 149.141L178.312 150.186L179.096 151.231Z" fill="#CAA782"/>
<path d="M107.779 162.725L108.563 162.464L112.22 161.158L113.526 160.635L115.094 160.113L115.878 159.852C115.878 159.852 115.878 159.59 116.139 158.807C116.139 158.545 116.139 158.545 116.4 158.284C116.661 157.762 116.922 156.978 117.184 155.933C117.184 155.672 117.445 155.411 117.445 155.149C117.706 154.104 118.229 152.798 118.751 151.492V151.231C119.012 150.708 119.012 150.186 119.274 149.402C119.274 148.88 119.535 148.619 119.796 148.096C120.057 147.574 120.318 146.79 120.318 146.267L121.102 143.394C121.363 142.349 121.886 141.043 122.147 139.998C123.192 136.602 123.976 133.728 124.237 131.9C122.67 131.9 120.841 131.9 119.012 132.161C115.878 132.422 113.265 134.773 112.743 137.647C112.743 137.908 112.743 138.169 112.481 138.169C111.959 139.737 111.698 141.565 111.175 143.133C110.914 144.178 110.653 145.223 110.392 146.006C110.392 146.529 110.13 146.79 110.13 147.051C110.13 147.574 109.869 147.835 109.869 148.096C109.869 148.096 109.869 148.096 109.869 148.357L109.347 150.97L109.085 152.015L108.824 153.582L108.302 156.456L108.041 157.239L107.257 161.68L107.779 162.725Z" fill="#CAA782"/>
<path d="M107.257 164.815C108.041 170.04 113.526 168.734 116.922 163.77C117.445 162.986 117.967 162.203 118.49 161.158C118.751 160.374 119.274 159.59 119.535 158.546C119.796 157.762 119.535 156.978 119.274 156.194C119.274 155.933 119.274 155.672 119.012 155.672C118.751 154.627 118.49 153.321 118.751 151.492V151.231H117.445H116.922L109.869 150.447L109.608 151.492L109.347 152.537L109.085 154.105L108.563 156.978L108.302 157.762L107.518 161.68C107.518 161.941 107.518 162.203 107.518 162.203C107.257 163.248 107.257 164.031 107.257 164.815Z" fill="#CAA782"/>
<path d="M222.722 188.848V193.289C222.722 193.551 222.722 193.551 222.722 193.812C222.722 194.857 222.461 195.641 222.2 196.424C221.938 196.947 221.677 197.469 221.155 197.992C220.893 198.253 220.632 198.775 220.371 199.037C219.848 199.559 219.065 200.081 218.542 200.343C218.281 200.343 218.02 200.604 218.02 200.604C217.759 200.604 217.759 200.865 217.497 200.865C217.497 200.865 217.497 200.865 217.236 200.865C216.452 201.126 215.669 201.388 214.624 201.388H167.341C164.728 201.388 162.638 201.388 162.638 201.388C156.63 200.343 160.549 191.983 169.692 192.244L179.88 193.028H180.141L193.464 191.722L195.031 191.461L210.183 189.893H210.444H211.489H212.534H213.579L215.146 189.632H215.407L217.497 189.371L219.587 189.11L221.938 188.848H222.722Z" fill="#F1E3D1"/>
<path d="M222.199 188.849C221.938 189.371 221.938 189.632 221.677 190.155C221.154 191.461 220.109 192.767 218.803 193.812C218.281 194.335 217.497 194.857 216.713 195.118C215.93 195.641 215.146 195.902 214.362 196.163C212.534 196.686 210.705 197.208 208.354 197.469C205.219 197.731 201.301 197.731 196.86 197.469C192.419 197.208 188.239 196.163 184.582 194.857C183.014 194.335 181.708 193.551 180.402 192.767C171.781 188.065 166.034 179.967 166.034 170.301C166.034 167.166 166.557 164.293 167.602 161.68C167.863 160.897 168.124 160.113 168.647 159.329C171.259 154.105 175.7 149.925 180.924 147.051C185.627 144.7 191.113 143.133 196.86 143.133C209.66 143.133 217.758 149.925 221.416 159.591C222.199 161.68 222.722 164.032 222.983 166.383C222.983 166.644 222.983 166.905 222.983 167.166C222.983 167.428 222.983 167.689 222.983 167.95C222.983 168.734 222.983 169.256 222.983 170.04C222.722 177.354 224.028 183.885 222.199 188.849Z" fill="#F1E3D1"/>
<path d="M151.928 201.649H147.748C144.874 201.388 143.568 200.604 143.046 199.82C142.262 198.253 143.307 196.424 144.613 194.857C146.442 193.028 148.532 192.245 150.099 190.939C150.622 190.416 151.144 189.894 151.144 189.11H154.279L159.765 189.371C159.765 189.894 159.765 190.677 160.026 191.461C160.287 195.641 160.026 201.388 151.928 201.649Z" fill="#F1E3D1"/>
<path d="M287.769 202.955C286.463 202.955 285.157 203.216 283.85 203.216C270.527 203.739 257.466 203.478 244.143 202.694C236.567 202.433 228.73 200.865 222.461 196.686C222.461 196.686 222.461 196.686 222.199 196.686C222.199 196.686 222.199 196.686 221.938 196.686C220.893 195.902 219.848 195.118 218.803 194.073C217.497 192.767 216.191 191.461 215.146 189.894C214.885 189.371 214.362 188.849 214.101 188.326C212.534 185.714 211.489 182.579 210.444 179.705C210.183 178.661 209.921 177.877 209.66 176.832V176.571C214.624 176.048 217.497 168.734 222.461 167.95C222.461 167.95 222.461 167.95 222.722 167.95C222.722 170.824 224.812 180.489 226.118 183.363C227.685 187.02 230.298 189.632 233.694 191.461C238.396 194.073 242.053 193.551 247.278 194.857C252.241 195.902 257.466 196.163 262.952 196.686C271.311 196.424 279.932 197.469 287.769 202.955Z" fill="#F1E3D1"/>
<path d="M223.767 191.2C223.767 191.461 223.767 191.983 223.506 192.245C223.244 193.812 222.722 195.379 222.2 196.424C221.416 198.253 220.11 199.559 218.281 200.343C218.02 200.343 217.759 200.604 217.759 200.604C217.497 200.604 217.497 200.865 217.236 200.865C217.236 200.865 217.236 200.865 216.975 200.865L214.885 197.469L214.101 196.163L213.579 195.379L210.444 190.155L210.183 189.893L209.138 188.326L207.309 185.191L206.526 183.885L180.925 166.121L171.782 163.248L169.953 162.725C168.908 162.464 168.124 162.203 167.079 161.68H166.818C166.034 161.419 164.989 160.897 164.206 160.635C163.422 160.374 162.638 160.113 161.855 159.59C161.593 159.59 161.593 159.329 161.332 159.329C161.071 159.329 160.81 159.068 160.549 159.068C160.549 159.068 160.287 159.068 160.287 158.807C160.287 158.807 160.287 158.807 160.026 158.807C159.504 158.545 158.981 158.284 158.197 158.023C155.585 156.717 152.973 155.149 150.36 153.321C148.793 152.276 147.487 151.231 146.181 150.186C145.919 150.186 145.919 149.925 145.658 149.925C144.352 148.88 143.046 147.574 141.74 146.529C139.911 144.961 138.344 143.133 136.776 141.565C134.948 139.737 133.38 137.647 132.074 135.557C131.29 134.512 130.507 133.206 129.723 132.161C129.462 131.9 129.201 131.377 128.939 131.116L128.678 130.855C127.372 128.765 126.327 126.414 125.805 124.063C124.498 119.883 124.237 115.703 124.76 111.523C125.021 109.956 125.282 108.65 125.543 107.083V106.821L126.066 105.254L135.209 99.5068L146.964 92.1923L153.756 88.0125L157.936 84.6165L159.765 83.0491L162.116 81.2205L163.683 80.1755L165.773 85.6614L173.871 96.8945C177.267 99.2456 179.88 101.335 182.492 103.425C185.366 105.776 187.978 108.127 190.59 110.74C193.203 113.613 195.815 116.748 198.689 120.928L209.922 137.124C216.714 147.312 218.02 150.97 220.11 160.113C220.632 161.941 220.893 164.031 221.416 166.382C221.416 166.644 221.416 166.905 221.677 166.905C221.677 167.166 221.677 167.427 221.677 167.689C221.677 167.95 221.677 168.211 221.677 168.472C223.506 177.093 224.551 185.191 223.767 191.2Z" fill="#F1E3D1"/>
<path d="M102.294 69.4652L99.6812 70.5101L97.8526 67.6365C97.3301 66.3303 97.8526 64.763 99.1587 63.9793L102.555 62.1506L103.861 64.5017C104.906 66.3303 104.122 68.4202 102.294 69.4652Z" fill="#3C3C3B"/>
<path d="M125.543 75.7345C125.021 76.5182 124.237 76.7795 123.453 77.0407C120.58 78.3469 117.967 79.653 115.094 80.9592C114.833 80.9592 114.833 81.2204 114.571 81.2204C114.049 81.2204 113.788 81.2204 113.265 81.2204C115.877 80.4367 119.273 78.0856 121.102 76.5182C122.408 75.2121 122.408 75.212 123.976 74.1671C124.498 73.9059 125.021 73.9059 125.543 74.1671C126.327 74.6896 126.066 75.2121 125.543 75.7345Z" fill="#3C3C3B"/>
<path opacity="0.8" d="M126.327 53.0074C124.237 51.9624 121.625 50.9175 119.796 49.3501C119.274 48.8276 118.49 48.0439 117.706 47.7827C117.445 48.3052 117.184 48.8276 117.184 49.6113L116.661 51.7012C116.139 53.7911 113.265 56.4034 111.175 57.4483L110.13 57.9708C111.698 57.7096 113.526 57.7096 115.094 58.232C116.922 58.7545 118.751 59.7994 120.58 59.7994C122.67 59.7994 124.498 58.7545 126.327 57.7096C125.804 56.9259 125.282 56.1422 124.759 55.0972C125.804 55.3585 127.111 55.3585 127.372 54.3135C127.633 53.7911 126.849 53.5298 126.327 53.0074Z" fill="#CAA782"/>
<path opacity="0.6" d="M154.279 62.1505C154.801 62.9342 155.846 63.1954 156.369 63.9791C157.152 65.2853 156.369 67.1139 156.107 68.6813C156.107 68.6813 155.846 71.5549 155.846 72.5998C155.846 73.1223 156.107 73.6447 155.846 74.1672C155.846 74.6897 155.846 75.2122 155.585 75.9959C155.324 77.302 155.063 78.8694 155.063 79.9144C155.063 80.1756 155.063 80.4368 155.063 80.698C155.063 80.9593 155.324 80.9593 155.324 81.2205C155.324 81.4818 155.585 81.743 155.585 81.743C155.585 81.743 155.585 81.4818 155.585 81.2205C155.585 80.9593 155.585 80.9593 155.585 80.698C155.585 80.4368 155.585 80.1756 155.846 80.1756C156.107 79.1306 156.891 78.0857 157.675 77.0408C157.675 77.302 157.936 77.5633 157.936 77.8245C158.459 79.9144 158.72 82.5267 158.197 85.4002C157.675 88.0126 156.369 90.8861 155.846 93.2372C155.585 93.7597 155.585 94.2822 155.585 94.8046C155.585 95.3271 155.585 95.5883 155.585 95.8496C155.585 96.372 155.585 96.8945 155.585 96.8945C155.585 96.8945 155.585 96.6333 155.846 95.8496C155.846 95.5883 155.846 95.0659 156.107 94.8046C156.107 94.2822 156.369 94.0209 156.63 93.4985C157.414 91.6698 158.981 89.3187 160.287 86.7064C160.026 89.58 158.981 92.7148 157.936 95.8496C156.369 100.813 154.801 105.776 156.369 110.479C157.152 109.172 157.936 107.866 158.72 106.821C158.72 107.605 158.72 108.389 158.72 108.911C158.72 110.217 158.72 111.262 158.72 111.262C158.72 111.262 158.981 110.479 159.242 109.172C159.503 107.866 160.026 106.56 160.81 105.254C160.81 106.56 160.81 107.605 161.071 108.65C161.332 109.695 161.332 110.479 161.332 110.479C161.332 110.479 161.593 109.695 161.855 108.65C162.116 107.605 162.638 106.038 163.161 104.732C163.161 104.47 163.422 104.47 163.422 104.209C163.422 104.731 163.422 105.254 163.683 105.776C163.944 106.821 163.944 107.344 163.944 107.344C163.944 107.344 164.206 106.56 164.467 105.776C164.728 104.993 164.989 103.948 165.251 103.164C165.251 104.209 165.512 104.993 165.512 105.776C165.512 106.821 165.512 107.344 165.512 107.344C165.512 107.344 165.773 106.821 166.296 105.776C166.557 104.993 166.818 104.209 167.079 103.425C167.34 103.164 167.602 102.642 168.124 102.38C168.385 102.38 168.647 102.38 168.908 102.38C169.43 102.642 170.214 102.642 170.737 103.164C171.52 103.687 172.565 104.209 173.349 104.732C174.133 105.254 174.394 105.515 174.394 105.515C174.394 105.515 174.133 104.993 173.871 104.209C173.61 103.687 173.349 102.903 172.826 102.38C174.394 102.903 175.961 104.209 176.745 104.993C177.79 106.038 178.312 106.56 178.312 106.56C178.312 106.56 177.79 105.776 177.267 104.47C177.267 104.209 177.006 104.209 177.006 103.948C178.312 104.731 179.88 105.254 180.925 105.776C181.97 106.299 182.753 106.56 182.753 106.56C182.753 106.56 182.231 106.038 181.447 105.254C180.925 104.731 180.141 104.209 179.618 103.425C180.663 103.425 181.97 103.425 183.014 103.425C180.402 101.335 177.79 99.2456 174.394 96.8945L166.296 85.6615L164.206 80.1756C160.287 70.2487 154.54 54.3135 151.667 48.5664C152.711 51.1787 153.234 54.0523 153.234 56.9259C153.234 58.4933 152.973 60.8443 154.279 62.1505Z" fill="#CAA782"/>
<path opacity="0.6" d="M215.93 194.073C214.363 192.506 212.534 191.2 210.444 190.416C210.183 190.416 210.183 190.155 209.922 190.155C208.354 189.632 206.526 189.11 204.958 188.848C203.13 188.587 201.301 188.326 199.211 188.065L198.95 187.803L198.689 188.065C196.599 187.803 194.509 187.542 192.419 187.02C191.374 186.759 190.329 186.497 189.284 185.975C189.284 185.714 189.023 185.714 189.023 185.714H188.762C186.672 184.93 184.843 184.146 183.015 183.101C184.06 185.975 186.411 188.326 189.023 189.893V190.155C189.023 190.155 189.284 190.155 189.284 190.416C189.546 190.938 189.807 191.2 189.807 191.722C190.329 191.983 190.852 192.244 191.113 192.767C191.374 193.028 191.635 193.551 191.897 193.812C192.158 194.334 192.419 194.596 192.68 194.857C192.68 194.596 192.419 194.334 192.68 193.812C192.68 193.551 192.68 193.028 192.68 192.244C192.68 192.244 192.942 192.244 192.942 192.506C193.203 192.506 193.464 192.767 193.987 192.767C194.248 193.028 194.77 193.028 195.031 193.289C195.293 193.551 195.554 193.551 196.076 193.812C196.338 194.073 196.599 194.334 196.86 194.596C197.121 194.857 197.383 195.118 197.383 195.379C197.905 196.424 198.427 197.208 198.427 197.208C198.427 197.208 198.427 196.947 198.427 196.685C198.427 196.424 198.427 195.902 198.166 195.118C198.166 194.857 197.905 194.334 197.905 194.073C197.905 193.812 197.644 193.812 197.644 193.551C198.95 193.812 199.734 194.857 200.517 195.64C201.301 196.685 201.824 197.469 201.824 197.469C201.824 197.469 201.562 196.685 201.04 195.379C200.779 195.118 200.779 194.596 200.517 194.334C200.779 194.334 200.779 194.596 201.04 194.596C202.346 195.118 203.391 195.902 204.175 196.424C204.436 196.685 204.697 196.947 204.958 197.208C205.22 197.469 205.22 197.469 205.22 197.469C205.22 197.469 205.22 197.208 205.22 196.947C205.22 196.685 204.958 196.163 204.958 195.64C206.264 196.163 207.309 196.947 208.093 197.992C208.616 198.514 208.877 199.298 209.138 200.081C197.644 201.649 185.366 197.73 174.133 201.649C173.872 201.649 173.61 201.91 173.349 201.91H206.787C209.661 201.126 212.273 199.82 214.624 197.992C215.408 197.469 216.191 196.424 216.191 195.64C216.191 195.379 216.191 195.379 216.191 195.118C216.453 194.334 216.191 194.073 215.93 194.073Z" fill="#CAA782"/>
<path opacity="0.6" d="M143.568 108.65C143.829 109.956 144.091 110.74 144.091 110.74C144.091 110.74 144.091 109.956 144.352 108.65C144.352 107.344 144.874 105.515 145.136 103.948C145.397 102.642 145.919 101.335 146.181 100.29C146.181 100.29 146.181 100.29 146.181 100.552C146.442 101.074 146.703 101.335 146.703 101.335C146.703 101.335 146.964 99.768 147.748 98.4618C148.532 97.1557 149.315 96.1107 149.315 95.8495L148.532 95.5883C149.315 94.5434 150.099 92.976 149.054 92.1923C148.532 91.6698 147.487 91.931 146.964 91.4086C146.442 90.8861 146.703 89.8412 147.226 89.0575C148.009 87.2288 148.27 85.4002 148.009 83.3103C143.307 82.5266 138.344 86.4451 137.821 91.1473C138.344 90.8861 138.605 90.6249 139.127 90.6249C138.605 92.1922 138.082 94.0209 137.56 95.5883C135.993 100.029 134.686 104.731 135.209 109.172C135.47 108.127 136.254 107.344 137.037 106.821C136.776 109.434 137.037 112.046 137.299 114.658C137.56 113.613 137.821 112.83 138.082 111.785C138.082 112.568 138.344 113.352 138.344 114.136C138.605 115.964 139.127 117.009 139.127 117.009C139.127 117.009 139.127 115.703 139.127 114.136C139.389 112.307 139.389 109.956 140.172 107.866V107.605C140.172 107.866 140.172 108.127 140.172 108.389C140.172 108.911 140.172 109.434 140.172 109.695C140.172 110.217 140.433 110.479 140.433 111.001C140.695 112.307 140.956 113.352 140.956 113.352C140.956 113.352 140.956 112.307 141.217 111.001C141.217 110.74 141.217 110.217 141.217 109.956C141.217 109.434 141.478 109.172 141.478 108.65C141.74 107.866 141.74 106.821 142.262 106.038C142.523 105.254 142.785 104.731 143.046 103.948C142.785 106.038 143.046 107.605 143.568 108.65Z" fill="#CAA782"/>
<path d="M123.453 56.1421C121.364 58.4932 118.229 57.187 118.751 53.2686L121.886 54.3135L123.453 56.1421Z" fill="#1D1D1B"/>
<path d="M118.751 53.791C118.751 53.791 118.751 53.791 118.751 54.0522V54.3135C118.751 54.5747 118.751 54.5747 118.751 54.8359C118.751 55.0972 118.751 55.0972 119.012 55.3584C119.012 55.6196 119.273 55.6196 119.273 55.8808C119.273 56.1421 119.535 56.1421 119.796 56.4033L120.057 56.6646L120.318 56.9258C120.58 56.9258 120.841 57.187 120.841 57.187C121.102 57.187 121.363 57.187 121.363 57.187C121.625 57.187 121.886 57.187 121.886 57.187C122.147 57.187 122.147 57.187 122.408 56.9258C122.669 56.9258 122.669 56.6646 122.931 56.6646L123.192 56.4033C123.453 56.4033 123.453 56.1421 123.453 56.1421C123.453 56.1421 123.453 56.1421 123.192 56.4033L122.931 56.6646L122.669 56.9258C122.408 56.9258 122.408 57.187 122.147 57.187C121.886 57.187 121.625 57.4483 121.625 57.4483C121.363 57.4483 121.102 57.4483 120.841 57.4483C120.58 57.4483 120.318 57.4482 120.057 57.187L119.796 56.9258L119.535 56.6646C119.273 56.4033 119.273 56.4033 119.012 56.1421C118.751 55.8809 118.751 55.6196 118.751 55.6196C118.751 55.3584 118.751 55.0972 118.751 55.0972C118.751 54.8359 118.751 54.8359 118.751 54.5747C118.751 54.3134 118.751 54.3135 118.751 54.3135C118.751 53.791 118.751 53.791 118.751 53.791Z" fill="#575756"/>
<path d="M118.49 53.0073C118.49 53.0073 118.49 53.0073 118.751 53.0073C119.012 53.0073 119.273 53.0073 119.535 53.0073C119.796 53.0073 119.796 53.0073 120.057 53.0073C120.318 53.0073 120.318 53.0073 120.58 53.2685C120.841 53.2685 121.102 53.2685 121.102 53.5298C121.363 53.5298 121.363 53.791 121.625 53.791C121.886 53.791 121.886 54.0522 122.147 54.0522C122.408 54.0522 122.408 54.3135 122.669 54.5747C122.931 54.8359 123.192 55.0972 123.453 55.3584C123.714 55.6196 123.714 55.8809 123.976 56.1421C123.976 56.4033 123.976 56.4034 123.976 56.4034C123.976 56.4034 123.976 56.4033 123.714 56.1421C123.453 56.1421 123.453 55.8809 123.192 55.6197C123.192 55.6197 122.931 55.3584 122.669 55.3584C122.408 55.3584 122.408 55.0972 122.147 55.0972C121.886 54.836 121.363 54.5747 121.102 54.3135C120.841 54.0523 120.318 53.791 120.057 53.791C119.796 53.791 119.796 53.5298 119.535 53.5298C119.273 53.5298 119.273 53.2685 119.012 53.2685C118.751 53.0073 118.49 53.0073 118.229 53.0073C118.49 53.0073 118.49 53.0073 118.49 53.0073Z" fill="#575756"/>
<path d="M119.729 55.5952C119.868 55.5576 119.889 55.1883 119.776 54.7705C119.663 54.3527 119.459 54.0446 119.32 54.0822C119.18 54.1199 119.159 54.4891 119.272 54.9069C119.385 55.3247 119.589 55.6329 119.729 55.5952Z" fill="#F6F6F6"/>
<path opacity="0.1" d="M192.158 167.166C191.374 166.382 190.329 165.86 189.546 165.076C188.762 164.554 187.717 163.77 186.933 163.248C186.672 162.986 186.411 162.986 186.15 162.725C184.843 161.942 183.276 161.158 181.709 160.635C180.664 160.113 179.357 159.852 178.051 159.59C175.178 159.068 172.304 159.068 169.692 160.113C168.908 160.374 168.124 160.897 167.341 161.419C167.08 161.419 167.08 161.68 166.818 161.68C166.035 161.419 164.99 160.897 164.206 160.635C163.422 160.374 162.639 160.113 161.855 159.59C161.594 159.59 161.594 159.329 161.332 159.329C161.071 159.329 160.81 159.068 160.549 159.068C160.549 159.068 160.287 159.068 160.287 158.807C160.287 158.807 160.287 158.807 160.026 158.807C159.504 158.545 158.981 158.284 158.198 158.023C155.585 156.717 152.973 155.15 150.361 153.321C148.793 152.276 147.487 151.231 146.181 150.186C145.92 150.186 145.92 149.925 145.658 149.925C144.352 148.88 143.046 147.574 141.74 146.529C139.911 144.961 138.344 143.133 136.776 141.565C134.948 139.737 133.38 137.647 132.074 135.557C131.291 134.512 130.507 133.206 129.723 132.161C129.462 131.9 129.201 131.377 128.939 131.116L128.678 130.855C127.372 128.765 126.327 126.414 125.805 124.063C127.372 125.891 129.723 129.549 132.074 132.161C133.903 133.99 135.732 135.296 137.299 135.296C140.172 135.035 139.911 133.467 140.956 132.422C141.217 132.161 141.74 131.9 142.262 131.638C142.262 131.638 142.262 131.638 142.524 131.638C142.785 131.638 142.785 131.638 143.046 131.638C145.136 131.638 162.9 136.341 164.728 137.124C164.99 137.386 165.251 137.386 165.512 137.647C167.863 139.998 166.557 146.79 169.169 149.925C169.431 150.186 169.431 150.186 169.692 150.447C170.476 150.97 171.259 150.97 172.043 150.709C173.349 150.447 174.916 149.402 176.223 148.619C176.484 148.357 176.745 148.357 176.745 148.357C177.529 147.835 178.313 147.312 179.096 147.051C179.096 147.312 178.835 147.835 178.835 148.096C178.574 148.88 177.79 149.664 177.268 150.186C177.006 150.447 176.745 150.708 176.484 150.97C176.223 151.231 176.223 151.231 175.961 151.492C174.655 152.798 174.655 154.366 175.439 155.933C176.484 156.194 177.529 156.456 178.313 156.717C178.574 156.717 178.835 156.978 179.096 156.978C179.619 157.239 180.141 157.501 180.402 157.762C180.664 158.023 181.186 158.023 181.447 158.284C181.97 158.546 182.231 158.807 182.492 159.068C183.276 159.59 184.321 160.374 185.105 160.897C185.627 161.419 186.15 161.942 186.933 162.464C187.456 162.986 187.717 163.248 187.978 163.77C190.329 164.554 191.113 165.86 192.158 167.166Z" fill="#1D1D1B"/>
<path d="M169.43 111.001L169.169 112.83L167.079 129.81L166.557 133.728L166.296 135.557L166.034 137.124C166.034 137.386 166.034 137.386 166.034 137.647L164.99 149.141L164.728 152.798C164.728 153.321 164.728 153.582 164.728 153.582L164.206 160.374L163.683 165.86C161.855 169.778 160.287 184.93 159.765 191.2C159.504 193.028 159.504 194.073 159.504 194.073L156.369 193.812H155.846H155.063H154.279H153.756L150.099 193.551C150.099 193.551 150.099 192.506 150.099 190.416C150.099 183.624 150.36 167.427 149.838 164.554L146.442 151.231L145.92 149.663L145.658 148.88L145.136 146.79L141.479 131.9L141.217 131.377L140.956 130.332L138.605 112.568H139.65H140.172L153.234 112.046L169.43 111.001Z" fill="#F1E3D1"/>
<path opacity="0.6" d="M159.242 148.619C158.981 148.096 158.981 147.835 158.72 147.312C158.459 147.051 158.197 146.529 158.197 146.267C157.936 146.006 157.675 145.745 157.675 145.484C157.152 144.7 156.63 143.916 156.369 143.394C155.324 142.088 154.54 140.782 153.756 139.737C153.234 138.953 152.45 138.43 151.667 138.169C149.054 135.557 146.442 132.945 143.83 130.594C144.091 134.512 145.136 138.43 146.703 142.088C148.009 144.961 149.838 147.574 150.622 150.708C151.405 153.321 151.667 155.933 151.928 158.545C152.45 166.905 152.973 175.003 152.712 183.363L152.189 183.624C152.189 183.624 152.45 183.885 152.712 184.408C152.712 187.02 152.712 189.632 152.45 192.506C154.279 193.028 155.324 194.857 155.063 196.685C155.324 195.379 155.324 194.073 155.585 192.506C155.846 193.028 155.846 193.289 156.108 193.812C156.63 194.857 156.891 195.641 156.891 195.641C156.891 195.641 156.891 194.857 156.891 193.551C156.891 193.028 156.891 192.244 156.891 191.461C156.891 190.677 156.891 189.893 157.152 189.11C157.152 188.848 157.152 188.326 157.152 188.065C157.675 189.893 158.197 190.938 158.197 190.938C158.197 190.938 157.936 187.542 157.936 183.885C158.197 184.407 158.459 184.669 158.72 185.191C158.981 185.452 159.242 185.714 159.242 185.714C159.242 185.714 159.242 185.452 158.981 184.93C158.72 184.407 158.72 183.885 158.459 183.101C158.197 181.534 158.197 179.705 158.197 177.615C158.197 176.571 158.197 175.264 158.197 174.219C158.459 174.742 158.459 175.264 158.72 175.787C158.981 176.57 158.981 177.354 158.981 177.877C158.981 177.354 159.242 176.57 159.242 175.787C159.242 174.742 159.242 173.436 159.242 171.868C159.242 172.13 159.242 172.13 159.242 172.13C159.242 172.13 159.242 171.085 158.981 169.256C158.981 168.995 158.981 168.734 158.981 168.472C158.981 168.472 158.981 168.734 159.242 168.734C159.504 169.256 159.504 169.517 159.765 170.04C160.026 170.823 160.287 171.607 160.548 172.391C161.071 173.697 161.332 174.481 161.332 174.481C161.332 174.481 161.332 173.436 161.071 172.13C161.071 171.346 161.071 170.562 160.81 169.778C160.81 169.256 160.81 168.995 160.81 168.472C160.81 167.95 160.548 167.427 160.548 167.166C160.287 165.338 159.765 163.248 159.504 161.941C159.765 162.464 159.765 162.986 160.026 163.509C160.549 165.076 161.071 165.86 161.071 165.86C161.071 165.86 161.071 164.815 160.81 163.248C160.549 162.203 160.548 160.635 160.548 159.068C160.81 159.852 161.071 160.113 161.071 160.113C161.071 160.113 161.071 159.852 161.071 159.329C161.332 159.852 161.593 160.374 161.855 160.897C162.638 162.464 163.161 163.509 163.161 163.509C163.161 163.509 162.9 162.203 162.638 160.635C162.377 159.852 162.377 158.807 161.855 157.5V157.239C161.855 157.239 161.855 157.239 161.855 157.5C161.593 156.978 161.332 156.194 161.071 155.149C161.071 154.366 160.81 153.843 160.548 153.06C162.9 155.149 164.728 156.717 164.728 156.717C164.728 156.717 161.855 152.276 159.242 148.619Z" fill="#CAA782"/>
<path opacity="0.1" d="M131.552 86.4453C130.245 91.9312 126.849 96.8946 125.282 102.119C125.021 100.552 125.021 98.9845 125.021 97.1558C125.021 89.8413 130.245 84.3554 127.633 81.7431C125.804 78.6083 123.192 79.9145 117.445 81.2206C116.4 81.4819 115.355 81.4819 114.31 81.4819C113.788 81.4819 113.526 81.4819 113.004 81.4819C112.743 81.4819 112.482 81.4819 112.22 81.4819C110.13 81.7431 108.041 81.2206 106.473 80.1757C111.175 80.6982 115.094 78.8695 119.274 77.0409C121.886 75.7347 123.976 74.1673 125.543 71.8162C127.111 69.4651 128.417 68.4202 130.507 63.9792C132.335 65.8079 129.723 69.2039 129.462 71.8162C129.2 74.4286 128.939 77.0409 129.723 79.6532C130.245 81.2206 131.029 82.2656 131.29 83.833C132.074 84.3554 131.813 85.4004 131.552 86.4453Z" fill="#1D1D1B"/>
<path opacity="0.1" d="M163.945 166.121C162.116 170.04 160.549 185.191 160.026 191.461C160.287 195.902 160.026 201.388 152.189 201.649H148.009C145.136 201.388 143.83 200.604 143.307 199.82C145.658 200.343 148.271 200.343 150.883 199.82C151.928 199.559 153.495 199.298 154.018 198.253C154.54 197.469 154.279 196.424 154.279 195.641C154.279 195.118 154.279 194.596 154.279 194.073C154.279 192.506 154.54 190.938 155.063 189.371C155.063 188.849 155.324 188.587 155.324 188.065C157.152 180.228 158.72 172.391 160.549 164.554C160.81 162.987 161.332 161.158 162.377 159.852C162.9 159.068 162.9 148.619 163.422 147.835C164.206 146.79 167.079 140.259 167.079 137.647C166.818 144.439 165.512 154.105 165.512 154.105L163.945 166.121Z" fill="#1D1D1B"/>
<path d="M151.405 64.5017C151.144 63.718 150.883 62.9343 150.883 62.1506L149.315 52.485C147.487 45.9541 138.082 42.8193 136.515 49.8726C135.993 55.0973 134.164 59.0158 132.335 65.0241C131.552 67.3752 130.245 69.4651 130.768 71.8162C130.768 74.6897 131.552 76.7796 133.38 78.347C133.38 78.6082 133.641 78.8695 133.641 79.1307C133.903 79.9144 134.164 80.4369 134.425 80.9593C134.686 81.4818 134.686 81.743 134.686 81.743C134.686 81.743 134.686 81.4818 134.686 80.9593C134.686 80.4369 134.686 79.9144 134.425 79.3919C134.948 80.1756 135.47 80.6981 135.993 81.2206C136.515 81.7431 136.776 82.0043 137.299 82.0043C137.56 82.2655 137.821 82.2655 137.821 82.2655C137.821 82.2655 137.821 82.0043 137.56 81.743C137.299 81.4818 137.038 81.2206 136.776 80.6981C136.776 80.4369 136.515 80.1757 136.515 79.9144C137.56 81.2206 138.605 82.2655 138.605 82.2655C138.605 82.2655 138.605 81.743 138.344 80.9593L138.605 81.2206C139.389 82.0043 139.911 82.5268 139.911 82.5268C139.911 82.5268 139.65 81.743 139.389 80.9593V80.6981C139.65 80.6981 139.911 80.6981 140.172 80.6981C140.956 81.743 141.478 82.788 141.478 82.788C141.478 82.788 141.478 82.0043 141.478 80.6981C141.74 80.6981 142.262 80.6981 142.523 80.6981C142.523 82.0043 142.262 82.788 142.262 82.788C142.262 82.788 142.785 81.743 143.568 80.4369H143.83C143.568 80.9593 143.568 81.2206 143.307 81.4818C142.785 82.2655 142.262 83.0492 142.262 83.0492C142.262 83.0492 144.091 82.2655 145.658 80.1756C145.658 80.4369 145.658 80.4369 145.397 80.6981C145.136 81.4818 144.875 82.0043 144.875 82.0043C144.875 82.0043 145.397 81.4818 145.919 80.9593C146.703 80.4369 147.487 79.3919 148.271 78.347C148.271 78.347 148.271 78.347 148.271 78.6083C148.009 79.1307 148.009 79.6532 147.748 80.1756C147.487 80.4369 147.487 80.6981 147.487 80.6981C147.487 80.6981 147.748 80.4369 148.009 80.1756C148.271 79.9144 148.793 79.3919 149.054 78.8695C149.315 78.347 149.577 77.8245 149.838 77.0408C150.099 76.7796 150.099 76.7796 150.36 76.5184C150.36 76.7796 150.36 77.0408 150.36 77.0408C150.36 77.8245 150.099 78.6082 149.838 79.1307C149.577 79.6532 149.577 79.9144 149.577 79.9144C149.577 79.9144 149.838 79.6532 150.099 79.1307C150.36 78.6082 150.622 78.0858 151.144 77.3021C151.405 76.5184 151.667 75.4735 151.928 74.6898C152.712 71.8162 152.712 68.4201 151.405 64.5017Z" fill="#CAA782"/>
<path opacity="0.1" d="M144.091 75.9959C144.875 75.9959 144.613 74.4284 145.397 74.1672C145.658 74.1672 145.92 74.1672 146.181 74.1672C146.442 74.1672 146.703 73.6448 146.703 73.3835C147.226 71.5549 147.487 69.7263 147.748 67.8976C148.793 61.628 149.577 55.0972 147.487 49.0889C149.054 51.44 150.099 54.0523 150.622 56.6646C150.883 57.9708 150.883 59.277 151.144 60.8444C151.667 62.673 152.45 64.2404 152.973 66.069C154.54 71.2937 153.234 77.0408 149.838 81.2205C149.577 81.4818 149.577 81.743 149.316 81.743C149.054 81.743 148.793 81.743 148.532 81.743C148.009 81.743 147.748 82.0042 147.487 82.2655C145.658 83.8329 142.785 83.5716 140.434 83.3104C138.605 83.0491 136.515 82.7879 134.687 82.5267C133.38 80.4368 132.597 78.347 132.335 75.9959C133.38 76.7796 134.425 77.5632 135.47 78.0857C135.47 77.8245 135.47 77.302 135.731 77.0408C136.515 77.8245 137.299 78.0857 138.344 78.347C138.605 78.0857 138.605 77.5633 138.866 77.302C139.389 77.8245 140.695 77.5633 141.217 77.0408C142.001 76.5183 142.785 75.9959 143.568 76.2571C143.83 75.9959 143.83 75.9959 144.091 75.9959Z" fill="#1D1D1B"/>
<path opacity="0.1" d="M283.589 203.216C270.266 203.739 257.204 203.478 243.882 202.694C236.306 202.433 228.469 200.865 222.199 196.685C222.199 196.685 222.199 196.685 221.938 196.685C221.677 197.208 221.416 197.73 220.893 198.253C220.632 198.514 220.371 199.037 220.109 199.298C219.587 199.82 218.803 200.343 218.281 200.604C218.02 200.604 217.758 200.865 217.758 200.865C217.497 200.865 217.497 201.126 217.236 201.126C217.236 201.126 217.236 201.126 216.975 201.126C216.191 201.388 215.407 201.649 214.362 201.649H167.34C169.43 200.865 171.52 200.082 173.61 199.559C177.267 198.514 181.186 198.514 185.104 198.514C193.464 198.253 201.823 197.73 209.921 196.947C211.75 196.685 213.84 196.424 214.624 194.596C215.407 192.767 214.101 190.938 212.534 189.893C212.534 189.893 212.272 189.893 212.272 189.632C208.876 187.542 204.697 187.542 201.301 185.714C198.166 184.146 195.815 181.012 195.031 177.615C199.994 182.84 207.309 185.191 214.101 187.804C215.407 188.326 216.452 188.848 217.758 189.371C219.587 190.155 221.154 190.938 222.722 191.722C225.334 193.289 227.685 194.857 230.297 195.902C232.387 196.685 234.477 197.208 236.828 197.469C245.971 198.514 255.115 197.992 264.258 198.514C271.05 199.037 277.842 200.343 283.589 203.216Z" fill="#1D1D1B"/>
<path opacity="0.1" d="M186.41 194.334C185.627 194.596 185.104 194.857 184.321 194.857C182.753 194.334 181.447 193.551 180.141 192.767C171.52 188.065 165.773 179.967 165.773 170.301C165.773 167.166 166.295 164.293 167.34 161.68C167.34 161.419 167.34 161.419 167.602 161.158C168.385 160.635 169.169 160.113 169.953 159.852C172.565 158.807 175.439 158.807 178.312 159.329C178.835 159.59 179.357 159.591 179.618 159.852C181.186 160.635 182.753 161.68 184.582 161.68C181.708 161.419 178.835 161.419 175.961 161.419C174.394 161.419 172.826 161.68 172.043 162.987C171.52 163.77 171.52 164.554 171.781 165.338C172.043 166.644 172.826 167.95 173.871 168.995C173.61 168.734 173.087 168.734 172.565 168.472C171.781 168.211 170.736 168.734 170.214 169.517C169.953 170.04 169.953 170.301 169.953 170.823C170.214 173.958 171.52 176.832 173.349 179.705C177.006 185.453 181.447 190.416 186.41 194.334Z" fill="#1D1D1B"/>
<path opacity="0.6" d="M265.303 199.298C264.78 199.036 264.258 198.514 263.213 198.253C262.168 197.73 260.862 197.208 259.556 196.685C260.601 196.424 261.646 196.163 262.952 195.902C260.601 195.64 258.25 195.64 255.898 195.379C254.07 194.857 252.241 194.857 250.674 194.857C249.629 194.596 248.323 194.596 247.278 194.334C242.053 193.289 238.396 193.812 233.694 190.938C230.559 189.11 227.685 186.497 226.118 182.84C225.073 180.228 222.983 170.301 222.722 167.427C222.722 167.427 222.722 167.427 222.461 167.427C222.461 167.166 222.461 166.905 222.461 166.644C222.199 164.292 221.677 161.941 220.893 159.852C218.803 150.708 217.497 147.051 210.705 136.863L199.472 120.667C196.599 116.487 193.986 113.352 191.374 110.479C190.851 111.262 189.806 111.785 188.762 112.307C186.672 112.83 184.582 112.568 182.492 112.307C182.231 113.091 181.708 114.136 181.447 114.919C176.745 115.181 172.304 112.83 167.863 113.352C163.683 113.875 160.548 117.532 159.765 121.712C159.503 122.495 159.242 123.018 159.242 123.801C159.242 125.369 159.503 127.197 160.026 128.765C160.548 130.593 161.332 131.9 162.116 133.206C162.377 133.728 162.899 134.251 162.899 134.512C162.899 134.251 162.638 133.728 162.638 133.206C162.377 131.9 162.116 130.332 162.377 128.765C162.377 128.504 162.377 128.242 162.377 127.981C162.638 128.504 162.899 129.026 163.161 129.549C163.944 131.377 164.728 133.206 164.989 134.512C165.251 135.296 165.251 135.818 165.251 136.341C165.251 136.863 165.251 137.124 165.251 137.124C165.251 137.124 165.251 136.863 165.512 136.602C165.512 136.079 165.773 135.557 165.773 134.773C165.773 134.251 165.773 133.989 165.773 133.467C166.034 133.989 166.034 134.512 166.295 135.034C167.34 138.692 168.385 142.349 168.385 142.349C168.385 142.349 168.385 139.737 168.385 136.602C168.647 136.602 168.647 136.341 168.908 136.341C169.169 137.124 169.692 137.908 169.692 138.43C169.953 139.214 169.953 139.998 170.214 140.52C170.214 139.998 170.475 139.214 170.214 138.43C170.214 137.386 170.214 136.341 169.692 135.296L169.953 135.034C170.998 136.863 171.781 138.692 171.781 138.692C171.781 138.692 171.781 137.385 171.781 135.557C172.043 136.863 172.304 137.908 172.304 137.908C172.304 137.908 172.304 133.728 172.304 129.81C172.565 131.116 172.826 132.422 173.349 133.206C173.871 134.512 174.132 135.296 174.132 135.296C174.132 135.296 174.132 134.512 174.132 133.206C174.132 131.9 174.394 130.071 174.394 128.504C174.655 127.197 174.916 125.63 175.439 124.585C175.961 126.675 176.745 128.504 176.745 128.504C176.745 128.504 177.267 126.936 177.79 125.108C177.79 126.152 177.79 126.936 177.79 127.72C177.79 128.765 177.79 129.549 177.79 129.549C177.79 129.549 178.051 128.765 178.312 127.981C178.312 127.72 178.573 127.459 178.573 127.459C178.573 127.72 178.573 127.981 178.573 128.242C178.573 129.549 178.835 130.593 178.835 130.593C178.835 130.593 178.835 129.81 179.357 128.504C179.618 127.981 179.618 127.197 180.141 126.675C180.141 126.936 180.141 126.936 180.141 127.197C179.88 128.242 180.141 129.287 180.141 130.071C180.141 131.116 180.402 131.9 180.663 132.422C181.186 133.728 181.447 134.512 181.447 134.512C181.447 134.512 181.447 133.467 181.447 132.161C181.447 131.377 181.447 130.593 181.708 129.81C181.969 129.026 181.969 128.242 182.492 127.459C183.014 125.891 184.059 124.585 184.843 124.063C186.149 124.585 187.717 125.63 189.023 126.675C190.329 127.981 191.374 129.549 191.896 130.855C192.158 131.638 192.158 132.161 192.419 132.422C192.419 131.9 192.68 131.377 192.419 130.593C192.419 129.549 192.158 128.504 191.635 127.197C192.419 128.242 193.202 129.549 193.464 130.593C193.725 131.116 193.725 131.638 193.725 132.161C193.725 132.422 193.725 132.683 193.725 132.683C193.725 132.683 193.725 132.422 193.986 132.161C193.986 131.9 194.247 131.377 194.247 130.593C194.247 129.287 193.986 127.72 193.464 126.152C193.725 126.414 194.247 126.936 194.509 127.197C195.292 128.242 195.815 129.549 196.076 130.332C196.337 130.855 196.337 131.116 196.337 131.638C196.337 131.377 196.599 130.855 196.599 130.332C196.599 129.549 196.599 128.242 196.337 126.936C197.121 127.981 197.643 129.287 197.643 130.855C197.382 134.512 193.986 138.169 196.076 141.043C191.896 140.782 187.717 140.259 183.276 139.998C183.276 139.998 183.276 139.998 183.276 139.737C183.276 139.737 183.276 139.737 183.014 139.998C182.231 139.998 181.447 139.998 180.925 140.259C180.663 140.52 180.663 140.52 180.402 140.782C180.141 140.782 179.88 141.043 179.88 141.043C179.618 141.304 179.357 141.565 179.096 141.826C178.835 142.349 178.573 142.61 178.312 143.133C178.051 143.394 177.79 143.655 177.528 144.178C176.484 146.006 176.745 148.096 177.006 149.663C177.267 150.97 177.267 152.015 177.528 153.06C177.528 153.582 177.528 154.104 177.528 154.627H177.79C178.051 155.411 178.051 156.194 178.051 156.194C178.051 156.194 178.051 155.672 178.312 154.888C178.573 155.933 178.835 156.978 179.096 157.762C179.618 159.852 180.141 161.158 180.141 161.158C180.141 161.158 180.141 159.852 179.88 157.762C179.88 156.978 179.88 156.194 179.88 155.411C179.88 155.411 179.88 155.411 180.141 155.411C180.663 156.978 181.186 158.284 181.708 159.329C182.492 160.896 183.014 162.203 183.014 162.203C183.014 162.203 182.753 160.896 182.492 159.068C182.492 158.807 182.492 158.284 182.231 158.023C182.492 158.284 182.492 158.545 182.492 158.545C182.492 158.545 182.492 158.284 182.753 158.023C184.843 162.464 187.194 166.644 187.194 166.644C187.194 166.644 186.672 164.815 186.149 162.203C186.41 162.464 186.41 162.725 186.41 162.725C186.41 162.725 186.41 161.941 186.149 160.896C185.888 159.852 186.149 158.284 186.149 156.978V156.717C186.149 156.978 186.149 156.978 186.149 157.239C186.149 157.5 186.41 158.023 186.41 158.284C186.41 158.545 186.41 158.807 186.41 158.807C186.672 160.896 187.455 162.725 187.978 164.292C188.239 165.076 188.5 165.599 188.762 165.86C189.023 166.121 189.023 166.382 189.023 166.382C189.023 166.382 189.023 166.121 189.023 165.599C189.023 165.076 188.762 164.554 188.762 163.77C188.762 163.77 188.762 163.509 188.762 163.248C189.023 163.77 189.284 164.293 189.806 164.554C190.329 165.076 190.851 165.599 191.374 166.382C191.896 166.905 192.419 167.427 192.941 167.95C193.986 168.995 194.77 169.778 195.292 170.823C195.554 171.346 195.815 171.607 196.076 172.129C196.076 172.391 196.337 172.391 196.337 172.652C196.337 172.913 196.337 172.913 196.337 173.174C196.337 173.697 196.599 174.219 196.599 174.219C196.599 174.219 196.599 173.958 196.599 173.174C196.599 172.913 196.599 172.913 196.599 172.652C196.599 172.391 196.599 172.391 196.337 172.129C196.337 171.607 196.076 171.085 195.815 170.562C195.292 168.995 193.986 167.166 192.941 165.337C193.202 165.337 193.464 165.599 193.986 165.599C194.247 165.86 194.509 166.121 195.031 166.382L195.554 166.905C195.815 167.166 195.815 167.166 196.076 167.427C196.337 167.689 196.599 168.211 196.86 168.472C197.121 168.995 197.382 169.256 197.382 169.517C197.643 170.301 198.166 170.823 198.166 171.346C198.166 171.607 198.427 171.607 198.427 171.868C198.688 172.913 198.95 173.958 199.472 174.742C200.256 176.309 201.301 176.57 201.039 176.57C201.039 176.57 200.778 176.309 200.517 176.048C200.256 175.787 199.995 175.003 199.995 174.481C199.733 173.436 199.995 171.868 199.733 170.04C199.995 170.562 200.517 170.823 200.778 171.346C201.301 172.13 201.823 172.913 202.346 173.958C202.868 176.048 203.129 178.399 204.174 179.966C204.697 180.75 204.958 181.273 205.48 181.795C205.219 181.273 204.958 180.75 204.697 179.966C204.436 178.66 204.436 176.832 204.436 175.003C204.697 175.526 204.958 176.048 205.219 176.57C205.219 176.832 205.48 176.832 205.48 177.093C206.264 178.922 207.309 180.489 208.354 181.534C208.876 182.056 209.399 182.579 209.66 182.579C209.921 182.84 210.183 182.84 210.183 182.84C210.183 182.84 209.921 182.579 209.921 182.318C209.66 182.056 209.399 181.534 209.138 181.011C208.876 180.489 208.615 179.705 208.354 179.183C209.138 179.444 209.66 179.705 210.444 179.966C210.966 179.966 211.228 180.228 211.75 180.489C212.273 181.534 212.534 182.579 212.795 183.363C213.056 184.407 213.579 185.452 213.84 186.236C214.101 186.497 214.362 186.759 214.362 187.02C214.362 187.281 214.624 187.281 214.624 187.281C214.624 187.281 214.624 187.281 214.362 187.02C214.362 186.759 214.101 186.759 214.101 186.236C213.84 185.714 213.579 184.669 213.579 183.363C213.579 182.84 213.317 182.056 213.317 181.273C213.579 181.534 214.101 181.795 214.362 182.056C215.93 183.885 215.93 186.759 217.497 188.587C218.02 189.371 218.803 189.893 219.587 190.155C220.11 190.416 220.893 190.677 221.677 191.2C221.938 191.461 222.461 191.461 222.722 191.722C222.983 191.983 223.244 191.983 223.767 192.244C224.289 192.506 224.55 193.028 224.812 193.551C225.073 194.073 225.334 194.857 225.857 195.64C226.902 197.469 229.253 197.992 231.343 197.992C231.865 197.992 232.649 197.992 233.171 197.73C234.216 197.992 235.261 197.992 236.306 198.253C236.567 198.253 236.567 198.253 236.828 198.253C237.09 198.514 237.612 198.775 237.612 198.775C238.135 198.775 238.657 198.775 239.18 198.775C239.441 198.775 239.702 198.775 239.702 198.775C240.747 199.037 241.531 199.298 242.314 199.559C243.882 200.343 245.188 200.604 245.188 200.604C245.188 200.604 244.665 200.081 243.62 199.559H243.882C245.71 200.081 247.539 200.865 248.845 201.649C250.151 202.171 250.935 202.694 250.935 202.694C250.935 202.694 250.151 201.91 249.106 201.126C248.323 200.604 247.539 199.559 246.494 198.775C246.755 198.775 247.278 198.775 247.539 198.775C248.061 198.775 248.323 199.037 248.845 199.037C249.89 199.298 250.935 199.559 251.98 199.82C253.809 200.343 254.854 200.604 254.854 200.604C254.854 200.604 253.809 200.081 252.241 199.037C251.98 198.775 251.719 198.775 251.457 198.514C251.719 198.514 251.98 198.514 252.502 198.514C253.547 198.514 254.853 198.514 255.898 198.775C258.511 199.037 260.862 199.298 262.69 199.82C263.997 199.037 264.78 199.298 265.303 199.298Z" fill="#CAA782"/>
<path opacity="0.1" d="M222.461 165.86C221.154 164.293 220.371 162.203 219.587 160.374C218.281 156.717 216.975 153.321 215.668 149.663C214.885 149.663 214.362 150.447 214.101 151.231C213.84 148.096 213.056 144.961 211.75 142.088C210.705 139.737 209.138 137.124 206.525 136.341C203.913 135.296 200.517 137.124 200.517 139.737C198.95 136.602 198.427 133.206 198.95 129.81C199.211 128.242 199.733 126.675 199.211 125.108C198.688 123.54 196.86 122.495 195.554 121.712C194.247 120.667 192.68 119.099 192.941 117.532C192.158 117.532 191.113 117.793 190.59 118.577C191.635 116.226 191.113 113.091 189.545 111.001C187.978 108.911 185.627 107.344 183.537 105.776C180.663 103.686 177.528 101.597 174.655 99.768C173.087 98.7231 170.475 97.4169 169.169 98.9843C169.43 96.8944 168.908 94.8046 168.124 92.7147C167.602 93.2372 167.34 93.7597 166.818 94.2821C166.034 90.8861 165.251 87.49 164.206 84.094C163.683 84.3552 163.161 84.3552 162.377 84.6165C162.377 83.3103 162.638 82.2654 162.638 80.9592L164.206 79.9143L166.295 85.4002L174.394 96.6332C177.79 98.9843 180.402 101.074 183.014 103.164C185.888 105.515 188.5 107.866 191.113 110.479C193.725 113.352 196.337 116.487 199.211 120.667L210.444 136.863C217.236 147.051 218.542 150.708 220.632 159.852C221.416 161.68 221.938 163.509 222.461 165.86Z" fill="#1D1D1B"/>
<path opacity="0.1" d="M118.751 151.231C117.967 154.627 119.796 156.717 119.274 158.545C116.922 167.166 108.302 171.346 107.257 164.815C108.302 165.076 109.347 164.815 110.392 164.031C111.437 163.248 111.959 162.203 112.22 161.158C112.482 160.374 112.482 159.329 112.22 158.545C112.482 159.329 113.004 160.113 113.526 160.635C113.788 160.896 114.31 161.158 114.571 160.896C115.616 160.896 116.139 159.852 116.139 158.545C116.139 158.023 116.139 157.762 116.139 157.239C115.878 155.411 115.616 153.321 115.094 151.492C115.616 152.015 116.4 151.492 116.922 150.97C117.184 150.708 117.184 150.447 117.445 150.186C118.49 148.096 119.012 145.745 119.012 143.133C119.012 141.304 119.012 139.737 118.49 138.169C119.796 138.953 121.102 139.475 122.408 139.998C124.759 141.043 127.111 141.304 129.462 140.259C130.245 139.998 131.29 139.214 132.074 139.214C133.38 139.214 134.164 140.52 135.47 140.782C135.992 141.043 136.776 141.043 137.299 140.782C138.866 142.61 140.433 144.178 142.262 145.745L121.102 143.133C120.318 146.267 119.535 148.88 118.751 151.231Z" fill="#1D1D1B"/>
<path d="M107.257 162.203H107.779H108.563L116.922 163.509C117.445 162.725 117.967 161.941 118.49 160.897C118.751 160.113 119.274 159.329 119.535 158.284L116.661 157.762L109.085 156.456H108.824L108.563 157.239L107.779 161.158C107.257 161.68 107.257 161.941 107.257 162.203Z" fill="white"/>
<path d="M109.085 154.105L117.184 155.933L119.012 156.456C119.012 156.194 119.012 155.933 118.751 155.933C118.49 154.888 118.229 153.582 118.49 151.753V151.492C118.751 150.97 118.751 150.447 119.012 149.664L110.13 147.574C110.13 148.096 109.869 148.357 109.869 148.619C109.869 148.619 109.869 148.619 109.869 148.88L109.347 151.492L109.085 152.537V154.105Z" fill="white"/>
<path d="M110.653 146.268L119.796 148.357C120.057 147.835 120.318 147.051 120.318 146.529L121.102 143.655L112.481 138.431C111.959 139.998 111.698 141.827 111.175 143.394C111.175 144.439 110.914 145.484 110.653 146.268Z" fill="#DADADA"/>
<path d="M108.302 157.762H108.563L115.094 160.113L118.49 161.158C118.751 160.374 119.274 159.59 119.535 158.546C119.796 157.762 119.535 156.978 119.274 156.194C119.274 155.933 119.274 155.672 119.012 155.672L117.445 155.149L109.347 152.276L109.085 153.843L108.563 156.717L108.302 157.762Z" fill="#EDEDED"/>
<path d="M110.13 148.619L117.706 151.231L118.751 151.754V151.492C119.012 150.97 119.012 150.447 119.274 149.664C119.274 149.141 119.535 148.88 119.796 148.357C120.057 147.835 120.318 147.051 120.318 146.529L111.437 143.394C111.175 144.439 110.914 145.484 110.653 146.268C110.653 146.79 110.392 147.051 110.392 147.313C110.13 147.835 110.13 148.357 110.13 148.619Z" fill="#EDEDED"/>
<path d="M79.5664 31.0638C81.1338 25.0554 81.6562 18.0021 77.999 12.7775C74.3417 7.55282 70.162 4.94052 64.4148 2.85066C48.4796 -2.89647 7.20481 -3.41894 16.0867 48.5664C16.8704 53.7911 17.1317 60.8444 16.348 64.7629C13.7356 75.7347 19.744 80.1756 17.9154 83.8329C25.4911 78.6082 38.814 55.3585 46.1285 49.8726C53.4431 44.3867 61.8025 39.6845 70.6844 39.162C74.6029 37.3334 78.5214 35.5048 79.5664 31.0638Z" fill="#21201D"/>
<path d="M55.0101 54.8361L52.9202 62.1506L50.0466 72.6L49.5242 74.4286L48.4792 78.0858L25.4907 63.9793L26.2744 62.1506L34.1114 36.0273L55.0101 54.8361Z" fill="#FFD2A1"/>
<path d="M47.9569 68.4202C55.5327 98.9845 70.9454 98.7232 72.5128 115.965C73.819 128.504 60.7573 133.206 60.7573 133.206C56.8388 150.709 54.2265 166.383 55.2714 178.138C55.2714 178.138 17.3926 171.085 15.0416 170.301C21.3111 152.537 10.3394 133.206 10.3394 100.813C10.3394 83.3105 26.2746 61.6282 26.2746 61.6282C26.2746 61.6282 46.6507 63.4568 47.9569 68.4202Z" fill="#FFD2A1"/>
<path d="M10.0781 101.336C10.0781 104.209 10.0781 106.821 10.3394 109.695C10.3394 111.001 10.6006 112.307 10.6006 113.613C10.8618 116.487 11.1231 119.361 11.6455 121.973C12.168 127.198 13.2129 131.9 13.9966 136.341C15.0416 142.61 16.0865 148.096 16.609 153.321C16.609 154.366 16.8702 155.15 16.8702 156.194C17.1314 159.852 16.8702 163.248 16.0865 166.644C15.8252 167.95 15.564 169.256 15.0416 170.562C16.0865 170.823 21.5724 171.607 28.3644 172.652C30.4543 172.913 32.5442 173.175 34.634 173.436C42.2098 174.481 49.7855 175.526 53.704 176.048C55.2714 176.309 56.3164 176.309 56.3164 176.309C56.3164 175.787 56.5776 175.003 56.5776 174.22C57.1001 169.779 57.6225 164.815 58.4062 159.329C58.9287 154.888 59.7124 150.447 60.2349 145.484C60.4961 141.565 60.7573 137.386 61.0186 132.945C61.0186 132.945 73.2965 128.765 73.819 117.793C73.819 117.01 73.819 116.226 73.819 115.442C72.774 106.299 68.0719 102.38 62.8472 96.1109L53.704 95.3272C49.5243 94.8047 45.6058 92.4536 43.7772 88.7964L37.5076 76.7796L37.2464 76.5184C35.4177 73.3836 32.5442 70.7713 28.8869 69.4651C25.2296 68.159 22.6173 66.5916 22.6173 66.5916C22.6173 66.5916 15.0416 76.5184 11.6455 89.3188C10.6006 93.7598 10.0781 97.4171 10.0781 101.336Z" fill="#488399"/>
<path d="M65.1984 203.478C60.235 186.498 56.5777 175.265 56.5777 175.003H56.3165L53.4429 174.481L33.8504 170.562L30.7156 170.04L15.8253 166.905C12.1681 171.607 9.29452 176.048 7.20465 180.75C3.28616 189.11 1.45752 196.686 0.935059 203.478H65.1984Z" fill="#488399"/>
<path opacity="0.1" d="M52.9207 62.1505L50.0471 72.5999L49.5246 73.1223L49.2634 72.8611C46.9123 71.2937 43.7775 68.9426 42.4714 66.3302C42.2101 65.8078 41.9489 65.0241 41.6877 64.5016C39.3366 59.2769 38.2916 53.2686 38.5529 47.2603C41.1652 52.7461 45.6061 57.4483 50.5696 61.1056C50.5696 61.3668 51.6145 61.8893 52.9207 62.1505Z" fill="#1D1D1B"/>
<path d="M74.6028 49.6114C73.2967 45.6929 72.7742 43.6031 73.0354 40.7295C93.9341 7.03043 15.0417 -8.64358 28.8871 40.207L36.4628 42.0357C36.7241 52.485 40.9038 60.322 51.6143 66.5915C55.5328 67.8977 59.1901 69.2039 62.8474 67.6365C65.4597 65.8078 67.8108 61.8893 69.6394 55.881C70.1619 54.5748 71.2068 53.7911 72.2517 53.5299C73.5579 53.2687 75.3865 52.2237 74.6028 49.6114Z" fill="#FFD2A1"/>
<path d="M35.9405 44.1254C34.8956 47.7826 31.2383 50.9175 27.3198 51.1787C26.0137 46.4765 24.4463 41.7743 23.9238 37.0721C23.4013 32.3699 23.4013 27.1452 24.9687 22.7043C27.5811 15.3897 33.5894 9.64262 40.9039 7.03029C48.2185 4.41796 56.3167 4.94043 63.37 7.81399C70.4233 10.6876 76.4316 15.9122 80.8726 22.4431C77.2153 21.9206 73.8193 23.2267 70.6845 25.3166C67.811 27.4065 65.1986 29.7576 62.3251 32.1087C59.4515 34.1985 56.3167 36.2884 52.6594 36.5496C48.7409 37.5946 44.3 34.9822 40.6427 36.8109C38.0304 38.117 36.9855 41.2518 35.9405 44.1254Z" fill="#21201D"/>
<path d="M121.102 147.574L118.751 146.529C117.706 146.006 116.139 147.051 115.617 148.88L113.265 155.411C112.743 156.978 112.743 158.546 113.527 159.59L116.139 163.77C116.923 165.076 118.229 164.815 119.013 163.509C120.841 159.852 122.147 155.411 122.67 149.925L121.102 147.574Z" fill="#FFD2A1"/>
<path opacity="0.15" d="M61.2799 203.478H64.9371C60.4962 188.326 56.3164 175.264 56.3164 175.003H56.0552C56.5777 170.562 57.1001 165.599 57.8838 160.113C58.4063 155.672 59.19 151.231 59.7125 146.268C59.9737 142.349 60.2349 138.169 60.4962 133.728C60.4962 133.728 72.7741 129.549 73.2966 118.577C68.5944 124.846 61.2799 129.026 53.4429 130.071C54.749 144.961 53.4429 159.59 53.1816 174.481C53.1816 175.264 53.1816 176.048 53.1816 176.571C53.1816 178.661 53.1816 180.75 53.1816 182.84C53.7041 189.632 57.3614 196.686 61.2799 203.478Z" fill="#1D1D1B"/>
<path opacity="0.15" d="M0.935059 203.478H10.3394C10.8619 199.298 11.6456 195.118 13.213 191.2C15.8253 183.624 21.8337 178.138 28.1033 172.913C35.4178 166.905 51.353 173.436 52.6592 173.175C46.9121 162.464 41.9486 165.076 43.2548 152.276C44.561 138.953 30.4544 106.299 34.6341 93.4986C24.9685 100.813 17.3927 80.437 11.6456 90.1026C10.6007 93.7598 10.0782 97.4171 10.0782 101.336C10.0782 104.209 10.0782 106.821 10.3394 109.695C10.3394 111.001 10.6007 112.307 10.6007 113.614C10.8619 116.487 11.1231 119.361 11.6456 121.973C12.1681 127.198 13.213 131.9 13.9967 136.341C15.0416 142.61 16.0866 148.096 16.609 153.321C16.609 154.366 16.8703 155.15 16.8703 156.194C17.1315 159.852 16.8703 163.248 16.0866 166.644C12.4293 171.346 9.55575 175.787 7.46589 180.489C3.28616 188.849 1.45752 196.686 0.935059 203.478Z" fill="#1D1D1B"/>
<path d="M35.1566 91.6699L51.8755 149.402C56.0552 161.158 38.5526 169.779 33.328 154.627L13.213 97.9395C8.2496 78.8695 30.1932 75.9959 35.1566 91.6699Z" fill="#FFD2A1"/>
<path d="M83.7461 176.832L50.3083 147.051C41.1651 137.908 28.6259 151.753 36.2017 160.113C41.4263 166.382 56.5779 173.436 75.6479 180.228L83.7461 176.832Z" fill="#FFD2A1"/>
<path d="M12.1683 99.2457L22.8789 131.9C29.1485 131.639 39.0753 126.936 45.3449 123.802L35.6793 91.9311C30.4546 74.4285 6.15995 78.347 12.1683 99.2457Z" fill="#488399"/>
<path d="M97.3298 175.787L90.2765 173.697L78.5211 172.913C78.5211 172.913 78.5211 172.913 78.5211 173.174L77.4761 174.742L76.9537 175.526H76.4312C75.6475 175.264 74.8638 175.003 74.3413 174.481L73.8189 175.003C73.2964 174.742 72.7739 174.481 72.2515 174.219C72.2515 174.219 73.2964 183.363 78.5211 184.146L85.8356 186.236L94.4563 194.596C94.7175 194.857 94.9787 194.857 94.9787 195.118C94.9787 195.118 95.24 195.118 95.5012 195.379H95.7624C96.0237 195.379 96.0237 195.379 96.2849 195.379C96.5461 195.379 96.8074 195.379 96.8074 195.118C96.8074 195.118 97.0686 195.118 97.0686 195.379H97.3298C97.5911 195.379 97.5911 195.379 97.8523 195.379C98.1135 195.379 98.3748 195.379 98.3748 195.118C98.3748 195.118 98.636 195.118 98.636 194.857C98.8972 195.118 99.1585 195.118 99.1585 195.379C99.1585 195.379 99.4197 195.379 99.6809 195.641H99.9422C100.203 195.641 100.203 195.641 100.465 195.641C100.726 195.641 100.987 195.641 100.987 195.379C101.248 195.379 101.248 195.379 101.51 195.118C101.771 194.857 102.032 194.334 101.771 194.073L101.51 193.812C101.771 193.812 102.032 193.812 102.032 193.551C102.293 193.551 102.293 193.551 102.554 193.289C102.816 193.028 103.077 192.506 102.816 192.245L98.1135 183.885C98.1135 183.624 97.8523 183.624 97.8523 183.363L93.1501 177.877L95.5012 178.399C96.5461 178.66 97.8523 178.138 98.1135 177.354C99.1585 177.093 98.636 176.309 97.3298 175.787Z" fill="#FFD2A1"/>
</svg>
