<svg id="Layer_4" height="512" viewBox="0 0 24 24" width="512" xmlns="http://www.w3.org/2000/svg" xmlns:xlink="http://www.w3.org/1999/xlink" data-name="Layer 4"><linearGradient id="linear-gradient" gradientUnits="userSpaceOnUse" x1="3.074" x2="13.634" y1="9.22" y2="19.78"><stop offset="0" stop-color="#fd0"/><stop offset="1" stop-color="#feb100"/></linearGradient><linearGradient id="linear-gradient-2" gradientUnits="userSpaceOnUse" x1="10.366" x2="20.926" y1="4.22" y2="14.78"><stop offset="0" stop-color="#6be8a7"/><stop offset="1" stop-color="#01b59c"/></linearGradient><g id="Gradient"><g id="spin"><path d="m15.707 16.293-2-2a1 1 0 0 0 -1.414 1.414l.268.268c-.188.007-.368.025-.561.025-4.714 0-8-2.108-8-4 0-1.026.891-2.056 2.443-2.824a1 1 0 0 0 -.886-1.793c-2.257 1.117-3.557 2.801-3.557 4.617 0 3.364 4.393 6 10 6 .21 0 .408-.02.613-.027l-.32.32a1 1 0 1 0 1.414 1.414l2-2a1 1 0 0 0 0-1.414z" fill="url(#linear-gradient)"/><path d="m12 6c-.21 0-.408.02-.613.027l.32-.32a1 1 0 1 0 -1.414-1.414l-2 2a1 1 0 0 0 0 1.414l2 2a1 1 0 0 0 1.414-1.414l-.268-.268c.188-.007.368-.025.561-.025 4.714 0 8 2.108 8 4 0 1.026-.891 2.056-2.443 2.824a1 1 0 0 0 .886 1.793c2.257-1.117 3.557-2.801 3.557-4.617 0-3.364-4.393-6-10-6z" fill="url(#linear-gradient-2)"/></g></g></svg>