<?xml version="1.0" standalone="no"?>
<!DOCTYPE svg PUBLIC "-//W3C//DTD SVG 20010904//EN"
 "http://www.w3.org/TR/2001/REC-SVG-20010904/DTD/svg10.dtd">
<svg version="1.0" xmlns="http://www.w3.org/2000/svg"
 width="512.000000pt" height="512.000000pt" viewBox="0 0 512.000000 512.000000"
 preserveAspectRatio="xMidYMid meet">

<g transform="translate(0.000000,512.000000) scale(0.100000,-0.100000)"
fill="#000000" stroke="none">
<path d="M2276 4255 c-30 -10 -101 -75 -284 -257 -134 -134 -252 -260 -263
-280 -23 -45 -25 -124 -3 -176 21 -51 474 -507 529 -533 83 -39 191 -16 252
54 77 88 69 200 -19 294 l-51 53 155 0 c785 0 1491 -308 1649 -720 29 -75 29
-184 0 -265 -58 -162 -215 -316 -454 -445 -77 -42 -130 -91 -148 -139 -17 -44
-12 -125 10 -169 41 -80 144 -134 223 -117 98 22 346 179 480 305 153 143 269
323 315 490 25 92 25 329 -1 420 -149 539 -817 947 -1716 1050 -52 6 -188 13
-302 17 l-208 6 46 49 c55 59 74 102 74 165 -1 148 -144 248 -284 198z"/>
<path d="M1235 3561 c-50 -13 -166 -76 -276 -149 -266 -179 -451 -420 -510
-667 -18 -76 -20 -109 -16 -215 6 -145 22 -211 81 -335 256 -540 1091 -915
2039 -915 l129 0 -49 -54 c-77 -84 -92 -164 -47 -255 45 -89 140 -133 238
-110 48 11 64 25 300 258 160 159 255 260 267 286 25 54 24 128 -2 181 -22 46
-451 480 -511 519 -24 15 -49 20 -98 20 -80 0 -131 -23 -171 -78 -69 -95 -61
-195 24 -284 l50 -53 -155 0 c-785 0 -1492 309 -1649 720 -27 69 -29 174 -6
252 47 157 217 327 452 454 129 69 172 132 163 239 -10 123 -137 215 -253 186z"/>
</g>
</svg>
