<svg id="Layer_1" enable-background="new 0 0 512 512" height="512" viewBox="0 0 512 512" width="512" xmlns="http://www.w3.org/2000/svg"><g><g><path d="m111.995 248.002c-1.107 0-2.232-.23-3.306-.719-4.022-1.828-5.801-6.571-3.972-10.594l80-176c1.828-4.022 6.572-5.802 10.593-3.973 4.022 1.828 5.801 6.571 3.972 10.594l-80 176c-1.339 2.949-4.246 4.692-7.287 4.692z" fill="#463c4b"/></g><g><path d="m277.703 464.995-175.515-101.334c-53.569-30.928-71.923-99.426-40.995-152.995 30.928-53.569 99.426-71.923 152.995-40.995l175.515 101.333c53.569 30.928 71.923 99.426 40.995 152.995-30.929 53.57-99.427 71.924-152.995 40.996z" fill="#a5c3dc"/></g><g><path d="m368 352h-202.667c-61.856 0-112-50.144-112-112 0-61.856 50.144-112 112-112h202.667c61.856 0 112 50.144 112 112 0 61.856-50.144 112-112 112z" fill="#a5c3dc"/></g><g><path d="m346.667 352h-181.334c-61.856 0-112-50.144-112-112 0-61.856 50.144-112 112-112h181.334c61.856 0 112 50.144 112 112 0 61.856-50.144 112-112 112z" fill="#d7e6f0"/></g><g><path d="m69.333 244c-2.209 0-4-1.791-4-4 0-55.141 44.859-100 100-100h181.334c2.209 0 4 1.791 4 4s-1.791 4-4 4h-181.334c-50.729 0-92 41.271-92 92 0 2.209-1.791 4-4 4z" fill="#fff"/></g><g><circle cx="112" cy="240" fill="#463c4b" r="24"/></g><g><path d="m368 200h-176c-8.837 0-16-7.163-16-16 0-8.837 7.163-16 16-16h176c8.837 0 16 7.163 16 16 0 8.837-7.163 16-16 16z" fill="#a5c3dc"/></g><g><path d="m272 256h-80c-8.837 0-16-7.163-16-16 0-8.837 7.163-16 16-16h80c8.837 0 16 7.163 16 16 0 8.837-7.163 16-16 16z" fill="#a5c3dc"/></g><g><path d="m336 312h-144c-8.837 0-16-7.163-16-16 0-8.837 7.163-16 16-16h144c8.837 0 16 7.163 16 16 0 8.837-7.163 16-16 16z" fill="#a5c3dc"/></g><g><path d="m112.005 248.002c-3.041 0-5.947-1.743-7.288-4.691l-80-176c-1.829-4.022-.05-8.766 3.972-10.594 4.023-1.825 8.765-.049 10.593 3.973l80 176c1.829 4.022.05 8.766-3.972 10.594-1.073.487-2.198.718-3.305.718z" fill="#555a6e"/></g></g></svg>