<svg id="Capa_1" enable-background="new 0 0 512 512" height="512" viewBox="0 0 512 512" width="512" xmlns="http://www.w3.org/2000/svg"><g><path d="m322.823 49.565h-133.643c-56.665 0-102.6 45.936-102.6 102.6v121.225c0 56.665 45.936 102.6 102.6 102.6h133.643c56.665 0 102.6-45.936 102.6-102.6v-121.225c.001-56.665-45.935-102.6-102.6-102.6z" fill="#d09080"/><path d="m298.92 375.988h-109.738c-56.669 0-102.602-45.933-102.602-102.602v-121.221c0-56.656 45.933-102.602 102.602-102.602h109.738c-56.669 0-102.602 45.946-102.602 102.602v121.221c0 56.669 45.933 102.602 102.602 102.602z" fill="#c67d66"/><path d="m489.375 394.725c13.781-10.971 22.625-27.878 22.625-46.862 0-33.07-26.808-59.878-59.878-59.878-32.488 0-58.913 25.878-59.834 58.143h-272.576c-.921-32.265-27.346-58.143-59.834-58.143-33.07 0-59.878 26.809-59.878 59.878 0 18.983 8.844 35.891 22.625 46.861-13.781 10.971-22.625 27.878-22.625 46.862 0 33.07 26.808 59.878 59.878 59.878 32.488 0 58.913-25.877 59.834-58.142h272.576c.921 32.265 27.346 58.142 59.834 58.142 33.07 0 59.878-26.808 59.878-59.878 0-18.984-8.844-35.891-22.625-46.861z" fill="#ffe07d"/><g fill="#ffd064"><path d="m473.716 292.016c-6.701-2.593-13.978-4.03-21.594-4.03-32.488 0-58.913 25.878-59.834 58.143h43.182c.705-24.703 16.368-45.645 38.246-54.113z"/><path d="m43.182 441.586c0-18.983 8.844-35.891 22.625-46.862-13.781-10.97-22.625-27.878-22.625-46.861 0-25.453 15.889-47.182 38.284-55.847-6.699-2.593-13.973-4.03-21.588-4.03-33.07 0-59.878 26.808-59.878 59.877 0 18.983 8.844 35.891 22.625 46.861-13.781 10.971-22.625 27.879-22.625 46.862 0 33.069 26.808 59.878 59.878 59.878 7.615 0 14.889-1.437 21.588-4.03-22.394-8.666-38.284-30.395-38.284-55.848z"/><path d="m435.47 443.321h-43.182c.921 32.265 27.347 58.142 59.834 58.142 7.616 0 14.893-1.437 21.594-4.03-21.878-8.467-37.541-29.41-38.246-54.112z"/></g><path d="m256.002 232.292h-56.292c-30.637 0-55.474 24.836-55.474 55.474v58.953c0 30.863 25.019 55.883 55.883 55.883 30.863 0 55.883-25.019 55.883-55.883 0 30.863 25.02 55.883 55.883 55.883 30.863 0 55.883-25.019 55.883-55.883v-58.953c0-30.637-24.836-55.474-55.474-55.474z" fill="#f9f6f6"/><path d="m229.101 394.505c-8.456 5.135-18.378 8.096-28.981 8.096-30.862 0-55.882-25.02-55.882-55.882v-58.963c0-30.635 24.847-55.469 55.482-55.469h57.95c-30.635 0-55.469 24.834-55.469 55.469v58.963c-.001 20.258 10.762 37.983 26.9 47.786z" fill="#dddaec"/><path d="m231.323 49.558h49.352v182.73h-49.352z" fill="#f9f6f6"/><path d="m280.676 49.558v1.611c-18.701 3.362-35.638 11.786-49.352 23.801v-25.412z" fill="#dddaec"/><path d="m283.5 211.003h-54.996c-15.676 0-28.385 12.708-28.385 28.385 0 15.676 12.708 28.385 28.385 28.385h8.87v16.854c0 10.288 8.34 18.627 18.627 18.627 10.288 0 18.627-8.34 18.627-18.627v-16.854h8.87c15.676 0 28.385-12.708 28.385-28.385.002-15.676-12.707-28.385-28.383-28.385z" fill="#30579d"/><path d="m264.617 301.139c-2.574 1.347-5.495 2.107-8.616 2.107-10.296 0-18.632-8.336-18.632-18.632v-16.844h-8.869c-7.842 0-14.938-3.174-20.072-8.309-5.135-5.148-8.309-12.244-8.309-20.072 0-15.684 12.697-28.395 28.381-28.395h26.114c-15.684 0-28.395 12.71-28.395 28.395 0 7.829 3.174 14.924 8.309 20.072 5.148 5.135 12.243 8.309 20.086 8.309v16.845c.001 7.175 4.055 13.403 10.003 16.524z" fill="#26457d"/><path d="m96.927 22.358-67.12 67.12c-15.759 15.759-15.759 41.31 0 57.07l31.882 31.882c20.961 20.961 56.613 12.924 66.553-15.003l35.238-99.002c5.224-14.677 1.533-31.051-9.483-42.067-15.76-15.759-41.311-15.759-57.07 0z" fill="#f9f6f6"/><path d="m80.954 88.318c-15.764 15.751-15.764 41.305 0 57.069l31.876 31.876c1.187 1.187 2.427 2.294 3.708 3.281-15.204 13.017-39.144 13.59-54.855-2.121l-31.876-31.876c-15.764-15.764-15.764-41.318 0-57.069l67.112-67.126c7.882-7.869 18.218-11.817 28.541-11.817 8.789 0 17.578 2.867 24.86 8.589-.773.64-1.52 1.334-2.254 2.067z" fill="#dddaec"/><path d="m415.077 22.358 67.12 67.12c15.759 15.759 15.759 41.31 0 57.07l-31.882 31.882c-20.961 20.961-56.613 12.924-66.553-15.003l-35.238-99.002c-5.224-14.677-1.533-31.051 9.483-42.067 15.76-15.759 41.311-15.759 57.07 0z" fill="#f9f6f6"/><path d="m442.324 184.659c-21.046 12.564-49.801 3.414-58.563-21.219l-35.237-99.015c-5.228-14.671-1.534-31.049 9.483-42.065 7.869-7.882 18.205-11.817 28.528-11.817 7.122 0 14.231 1.867 20.552 5.615-2.854 1.68-5.535 3.748-7.976 6.202-11.016 11.016-14.711 27.394-9.496 42.065l35.25 99.015c3.375 9.495 9.723 16.684 17.459 21.219z" fill="#dddaec"/><g fill="#26457d"><path d="m175.283 159.46c-8.875 0-16.096 11.597-16.096 25.852s7.22 25.853 16.096 25.853c8.875 0 16.095-11.598 16.095-25.853s-7.221-25.852-16.095-25.852z"/><path d="m336.721 159.46c-8.875 0-16.095 11.597-16.095 25.852s7.22 25.853 16.095 25.853 16.095-11.598 16.095-25.853-7.22-25.852-16.095-25.852z"/></g></g></svg>