<svg width="107" height="84" viewBox="0 0 107 84" fill="none" xmlns="http://www.w3.org/2000/svg">
<path d="M63.2642 71.0477C62.104 71.9664 61.3278 72.429 59.7642 72.6805C58.1967 72.7073 56.8251 72.7307 55.2538 72.5329C56.8559 74.5278 59.0265 75.3894 61.1934 76.0264C64.5435 77.0926 68.4661 77.2502 71.4397 79.2216C71.6357 79.2182 71.8355 79.4395 71.8355 79.4395C73.2224 80.3145 74.2213 81.4209 75.7965 81.8434C76.78 82.0512 77.7597 82.0345 78.7355 81.7931C80.2953 81.317 81.4364 79.2753 81.0138 77.485C80.7986 76.3652 79.9995 75.4801 79.0083 74.8229C78.213 74.1624 77.2256 73.73 76.2306 72.8482C75.0357 71.7452 74.2212 69.9616 72.8305 68.8619C71.4435 67.9868 69.8723 67.789 68.1127 68.0438C66.5529 68.5199 65.0046 69.6698 63.2642 71.0477Z" fill="#7A3400"/>
<path d="M13.8574 35.7172C12.4589 34.1682 10.6724 32.8507 8.88979 31.7577C7.30693 30.886 5.91998 30.0109 4.52922 28.9112C1.93978 26.4839 -0.280808 22.7021 0.82566 18.6387C0.82566 18.6387 0.82177 18.4141 1.01771 18.4107C1.2098 18.1827 1.60556 18.4007 1.80534 18.6219C1.59404 17.7268 1.57867 16.8282 1.75924 15.9264C1.75924 15.9264 1.75535 15.7017 1.95129 15.6984L2.14345 15.4704C2.91952 15.0077 4.1028 15.4369 4.70213 16.1008C5.65877 14.7362 8.42114 15.8124 9.41235 16.4695C10.7993 17.3446 12.19 18.4443 13.1965 19.9999C13.8036 21.113 14.4106 22.2261 15.0138 23.1145C16.0204 24.6702 17.6109 25.9912 19.1976 27.0875C21.5796 28.8443 23.7695 30.8291 25.3831 33.4978C26.5971 35.724 27.4231 38.1815 28.0532 40.6424C28.4796 42.6573 29.102 44.6689 29.1404 46.9152C29.175 48.9368 28.8253 51.4144 27.0811 52.5677C25.917 53.2617 24.1574 53.5165 23.1624 52.6347C21.9714 51.7563 21.3529 49.9694 20.7382 48.407C19.9199 46.3988 19.0977 44.1659 18.0834 42.161C16.6696 39.7135 15.4556 37.4874 13.8574 35.7172Z" fill="#FF903D"/>
<path d="M106.036 73.6865C105.621 72.3454 104.63 71.6883 103.635 70.8066C100.066 68.396 95.9204 66.6693 91.798 66.2904C88.8551 66.1161 85.9199 66.391 82.9809 66.4412C81.8052 66.4613 80.4336 66.4848 79.258 66.5049C78.2783 66.5217 77.0989 66.3171 76.1154 66.1092C75.3278 65.898 74.9282 65.4555 74.1407 65.2442C72.3657 64.6005 71.2247 66.6423 70.6638 68.2247C70.2911 69.3545 70.6983 70.2464 70.9096 71.1416C71.1247 72.2613 71.3323 72.9319 72.1275 73.5924C72.7269 74.2562 73.5221 74.9167 74.3174 75.5771C75.5045 76.2309 76.6916 76.8847 77.8749 77.3138C78.4666 77.5284 79.2503 77.515 79.842 77.7296C83.7684 78.1118 87.668 76.9216 91.7827 76.8512C94.1339 76.811 96.6849 76.9921 98.6251 75.8355C99.7892 75.1415 100.75 74.0016 101.921 73.7569C103.093 73.5121 104.661 73.4853 106.036 73.6865Z" fill="#FF903D"/>
<path d="M106.036 73.6868C105.621 72.3458 104.63 71.6887 103.635 70.8069C100.066 68.3963 95.9204 66.6697 91.798 66.2908C88.8551 66.1164 85.9199 66.3913 82.9809 66.4416C85.3705 68.6476 88.3327 69.9451 91.2832 70.5687C88.348 70.8436 85.4359 72.4663 82.4968 72.5165C84.2718 73.1603 85.8546 74.032 87.4452 75.353C84.7059 75.6245 82.3854 77.4617 79.6461 77.7333C83.5726 78.1155 87.472 76.9253 91.5867 76.8549C93.9379 76.8147 96.489 76.9958 98.4291 75.8392C99.5932 75.1452 100.554 74.0053 101.725 73.7606C103.093 73.5125 104.661 73.4857 106.036 73.6868Z" fill="#262626"/>
<path d="M20.5732 50.2073C18.9481 46.8647 18.8752 42.5968 18.6178 39.0061C18.3757 36.3139 16.5623 33.4239 14.0112 33.2428C13.6194 33.2495 13.2313 33.4809 13.0316 33.2596C12.6358 33.0417 12.8203 32.3645 12.8126 31.9152C12.9893 30.7887 13.5618 29.8801 14.1381 29.1962C16.2473 26.4638 19.3631 25.287 22.4788 24.1103C26.9623 22.6854 31.4535 21.7099 36.1598 21.8541C38.5111 21.8139 40.674 22.2262 43.033 22.6353C45.3957 23.2689 47.5665 24.1306 49.741 25.2169C50.9281 25.8707 52.315 26.7457 53.5021 27.3995C59.6453 31.3389 65.2123 35.9623 71.5437 39.4491C74.3137 40.9746 77.4717 42.2687 79.8613 44.4748C82.4469 46.6775 84.4639 50.0134 84.3295 53.6108C84.3602 55.4078 83.6072 57.2183 83.0463 58.8007C82.2932 60.6111 81.7401 62.6428 80.7912 64.4566C79.8422 66.2704 78.6896 67.6382 77.5409 69.2307C75.0437 72.1944 70.76 73.8406 67.2446 74.5748C63.5334 75.3124 60.1985 75.1447 56.6409 73.408C52.2919 71.2354 48.3194 68.1576 44.5467 65.3011C40.774 62.4447 36.2443 61.174 32.0912 58.9981C30.5083 58.1264 28.9255 57.2547 27.3427 56.383C24.9645 54.8508 21.9947 53.104 20.5732 50.2073Z" fill="#FF6D00"/>
<path d="M38.6876 32.1469C38.0729 30.5846 37.654 29.0189 36.8472 27.6845C36.0366 26.1255 34.8418 25.0225 33.647 23.9194C32.2485 22.3705 30.658 21.0496 29.0675 19.7286C25.0988 16.8755 20.1812 15.8361 16.7811 11.8498C15.5824 10.5221 15.1636 8.95644 14.7372 6.9415C14.9293 6.71352 15.3211 6.70682 15.5209 6.92809C15.1059 5.58703 15.0791 4.01464 15.2481 2.43889C16.224 2.19751 17.2075 2.40535 18.1987 3.06248C18.1949 2.83785 18.1949 2.83789 18.191 2.61327C18.387 2.60991 18.387 2.60991 18.5829 2.60656C19.7586 2.58646 21.1377 3.01223 22.3172 3.21675C23.8885 3.41457 25.4714 4.28625 26.6624 5.16466C28.2491 6.26099 29.4478 7.58866 31.0345 8.68499C33.6162 10.6631 36.7628 11.2833 39.7287 12.8055C45.6645 16.0743 49.6984 22.7462 51.0008 30.1388C51.4311 32.3784 51.4695 34.6246 50.5244 36.6631C49.0069 39.61 45.4801 39.6703 43.1058 38.3627C42.3143 37.9269 41.519 37.2664 40.7238 36.606C39.9208 35.4962 39.3023 33.7093 38.6876 32.1469Z" fill="#FF903D"/>
<path d="M72.2081 43.9313C73.9485 42.5534 76.0961 42.0673 78.2629 42.7043C79.6421 43.1301 80.8331 44.0085 81.8282 44.8903C83.0191 45.7687 84.2102 46.6471 85.2129 47.9781C86.6152 49.7517 87.2376 51.7633 88.2557 53.9928C89.074 56.001 89.681 57.1141 91.8401 57.3019C93.0158 57.2818 94.1837 56.8124 95.1826 57.9188C96.1815 59.0252 96.8078 61.2614 97.0306 62.8305L96.8308 62.6092C97.238 63.501 97.0575 64.4029 96.4812 65.0868C95.9049 65.7707 95.1288 66.2334 94.3489 66.4714C93.569 66.7095 92.9851 66.9441 92.2052 67.1822C90.6415 67.4336 89.4467 66.3305 88.2596 65.6768C86.8726 64.8017 85.1092 64.8319 83.5455 65.0833C82.1778 65.3314 80.8178 66.0288 79.4539 66.5015C78.0862 66.7496 76.707 66.3238 75.516 65.4454C73.1379 63.9132 71.1362 61.4758 69.9107 58.5757C68.2779 54.7838 67.9897 49.3961 70.4792 45.9831C70.8557 45.0779 71.6318 44.6153 72.2081 43.9313Z" fill="#FF903D"/>
<path d="M12.778 52.8119C12.221 54.619 11.8636 56.6473 11.5063 58.6757C11.3411 60.4761 11.176 62.2764 11.4027 64.0701C11.6293 65.8638 12.4477 67.872 13.8308 68.5224C15.2138 69.1729 16.9619 68.2442 18.1222 67.3256C20.0508 65.495 21.3839 63.2253 22.5173 60.7343C23.6468 58.0187 24.3844 55.3097 24.9223 52.3795C25.099 51.253 25.2719 49.9019 25.2527 48.7787C24.2884 49.694 22.9245 50.1668 21.5452 49.741C20.1698 49.5398 19.171 48.4334 18.368 47.3237C17.9646 46.6565 17.7572 45.9859 17.3576 45.5434C15.7671 44.2224 15.6172 46.9213 15.0448 47.8298C14.2879 49.4156 13.3351 51.0048 12.778 52.8119Z" fill="#7A3400"/>
<path d="M12.8008 65.6191C13.0006 65.8404 13.2042 66.2863 13.404 66.5076C13.7997 66.7255 14.5911 67.1613 14.9791 66.93C15.3671 66.6987 15.3518 65.8002 15.5362 65.1229C15.9012 63.5438 16.466 62.186 17.0308 60.8282C18.1564 57.888 19.8776 55.3869 21.0032 52.4466C21.1877 51.7694 21.5603 50.6395 20.961 49.9757C20.7574 49.5298 20.3617 49.3119 20.3578 49.0872C20.354 48.8626 20.3463 48.4134 20.3425 48.1887C20.3271 47.2902 20.1196 46.6197 19.9083 45.7245C19.7047 45.2786 19.5011 44.8327 19.2975 44.3868C18.8979 43.9442 18.5021 43.7263 18.1103 43.733C17.5224 43.7431 17.1422 44.4237 16.758 44.8796C16.5736 45.5569 16.3929 46.4587 16.2085 47.136C16.0279 48.0378 15.6515 48.9431 15.4709 49.8449C14.9139 51.652 14.5527 53.4557 13.9957 55.2628C13.6307 56.8419 13.0735 58.6489 12.9083 60.4493C12.5395 61.8038 12.1861 64.0568 12.8008 65.6191Z" fill="#FFBFBF"/>
<path d="M37.9846 36.8772C37.3584 34.641 36.3481 32.8607 35.1417 31.0838C33.1401 28.6464 30.7543 26.665 28.1764 24.9115C27.3811 24.251 26.3898 23.5939 25.3986 22.9367C23.4162 21.6225 21.4376 20.5328 19.4629 19.6678C18.0836 19.2421 16.7045 18.8163 15.3406 19.289C14.3647 19.5304 13.5925 20.2176 13.0201 21.1262C12.8318 21.5788 12.6436 22.0314 12.4553 22.484C12.2786 23.6105 12.6857 24.5023 12.9009 25.6221C12.9047 25.8467 12.9086 26.0714 12.9086 26.0714C12.9124 26.296 12.7166 26.2993 12.5245 26.5273C11.9443 26.9866 11.1644 27.2247 10.784 27.9053C10.0195 29.0418 10.2385 30.3862 10.6535 31.7273C11.0761 33.5176 11.8829 34.852 12.6935 36.411C12.8933 36.6323 12.9009 37.0815 13.1007 37.3028C14.1188 39.5323 14.9449 41.9898 15.7709 44.4473C16.593 46.6801 17.0232 48.9198 18.6176 50.4653C19.4167 51.3504 20.6039 52.0042 21.5836 51.9875C22.3673 51.9741 23.1473 51.736 23.9272 51.498C25.487 51.0219 27.043 50.3212 28.6066 50.0698C29.5825 49.8284 30.5583 49.5871 31.73 49.3423C33.6856 49.0842 35.6411 48.826 37.1855 47.4514C37.5697 46.9955 38.1499 46.5362 38.3343 45.859C38.7108 44.9538 38.8914 44.0519 38.876 43.1533C38.8568 42.0302 38.6455 41.1351 38.4303 40.0153C38.219 39.1201 38.1998 37.997 37.9846 36.8772Z" fill="#FF903D"/>
<path d="M32.7211 49.9996C33.7162 50.8813 35.0954 51.3072 36.2787 51.7363C37.4658 52.3901 38.653 53.0439 39.6481 53.9256C40.4433 54.5861 41.0427 55.2499 42.0301 55.6824C42.4258 55.9003 42.8176 55.8937 43.2095 55.887C44.1853 55.6456 45.1535 54.9549 45.53 54.0497C46.4636 51.3374 45.8259 48.4273 44.8001 45.7485C43.9818 43.7403 42.9713 41.96 41.9609 40.1798C41.1502 38.6208 40.3435 37.2864 39.3407 35.9554C38.9373 35.2882 38.3419 34.849 37.7502 34.6344C36.7628 34.2019 35.395 34.45 34.6267 35.3619C34.0504 36.0459 33.8698 36.9477 33.6892 37.8496C33.5087 38.7515 33.5241 39.6499 33.3474 40.7764C32.9901 42.8048 32.2371 44.6153 31.0845 45.9831C30.5082 46.6671 30.3199 47.1197 30.7272 48.0115C31.3265 48.6753 31.9259 49.3391 32.7211 49.9996Z" fill="#7A3400"/>
<path d="M40.6242 53.6838C40.2246 53.2412 39.8213 52.574 39.4217 52.1315C37.8235 50.3612 35.4683 50.1768 33.678 48.6346C33.2785 48.192 32.8789 47.7495 32.6714 47.079C32.4601 46.1838 32.6445 45.5066 33.2208 44.8227C33.9892 43.9107 34.7576 42.9988 34.9344 41.8723C35.1149 40.9704 34.7077 40.0787 34.8883 39.1768C34.8767 38.5029 35.0612 37.8256 35.2494 37.373C35.4377 36.9204 35.8219 36.4645 36.2137 36.4578C36.9898 35.9951 37.9809 36.6522 38.5802 37.3161C40.774 39.5255 42.1956 42.4222 43.2252 45.3256C43.8399 46.8879 44.2587 48.4537 44.2855 50.026C44.3086 51.3738 44.3393 53.1708 43.5747 54.3074C43.0061 55.4406 41.2235 54.3476 40.6242 53.6838Z" fill="#FFBFBF"/>
<path d="M25.4024 23.161C23.42 21.8468 21.4415 20.7571 19.4667 19.8921C18.0875 19.4663 16.7083 19.0406 15.3444 19.5133C14.3686 19.7547 13.5963 20.4419 13.0239 21.3505C12.8356 21.8031 12.6474 22.2557 12.4591 22.7083C12.2824 23.8348 12.6896 24.7266 12.9047 25.8464C12.9086 26.071 12.9124 26.2957 12.9124 26.2957C12.9162 26.5203 12.7204 26.5236 12.5283 26.7516C11.9482 27.2109 11.1682 27.449 10.7879 28.1295C10.0233 29.2661 10.2424 30.6105 10.6573 31.9516C11.0799 33.7419 11.8867 35.0762 12.6973 36.6352C12.8971 36.8565 13.2967 37.2991 13.6924 37.517C14.8834 38.3954 16.4586 38.8179 17.6495 39.6963C18.8405 40.5747 19.8432 41.9056 20.4541 43.2433C20.869 44.5844 21.088 45.9289 21.6951 47.0419C22.1061 48.1584 22.7132 49.2715 23.7005 49.704C24.0962 49.9219 24.4881 49.9152 24.6725 49.238C25.0529 48.5574 24.6533 48.1148 24.2537 47.6722C23.0512 46.1199 21.8448 44.3431 21.0303 42.5594C20.212 40.5512 19.7855 38.5363 19.9431 36.2866C20.3004 34.2583 21.2493 32.4445 22.2021 30.8553C23.1549 29.2662 24.3036 27.6737 25.0528 25.6386C25.0413 24.9647 25.4178 24.0595 25.4024 23.161Z" fill="#F2F2F2"/>
<path d="M14.7488 30.5334C14.9485 30.7547 15.1483 30.9759 15.1522 31.2005C15.5556 31.8677 15.7669 32.7629 15.5863 33.6648L15.5902 33.8894C15.3981 34.1174 14.8064 33.9028 14.8025 33.6782C14.6028 33.4569 14.207 33.2389 14.0111 33.2423C13.6192 33.249 13.4233 33.2523 13.0314 33.259C12.6395 33.2657 12.2477 33.2725 11.8596 33.5038C11.6637 33.5071 11.2756 33.7385 11.0835 33.9665C10.8876 33.9698 10.7032 34.647 10.8992 34.6437C10.2998 33.9799 10.4766 32.8534 10.6572 31.9515C10.8416 31.2743 11.2142 30.1445 11.7943 29.6852C12.3745 29.2259 12.9623 29.2158 13.5578 29.655C13.9535 29.8729 14.3492 30.0908 14.7488 30.5334Z" fill="#424242"/>
<path d="M27.8535 40.4205C28.0455 40.1926 28.4298 39.7366 28.4221 39.2873C28.4145 38.8381 28.0149 38.3955 27.623 38.4022C26.6356 37.9697 24.2959 38.6838 24.3228 40.2562C24.3535 42.0532 27.0812 41.1078 27.8535 40.4205Z" fill="#262626"/>
<path d="M17.5419 44.8662C17.7378 44.8628 17.9299 44.6348 18.122 44.4069C18.3179 44.4035 18.3141 44.1789 18.5062 43.9509C18.6944 43.4983 18.4869 42.8278 18.0874 42.3852C17.8876 42.1639 17.488 41.7214 17.1 41.9528C16.7081 41.9595 16.5161 42.1874 16.324 42.4154C15.9398 42.8713 15.3673 43.7799 15.5786 44.6751C15.7899 45.5702 16.7658 45.3288 17.5419 44.8662Z" fill="#262626"/>
<path d="M25.6751 27.65C24.8568 25.6418 23.4584 24.0929 22.0638 22.7686C21.4683 22.3294 20.6731 21.6689 19.8855 21.4576C18.1067 20.5893 16.1473 20.6228 14.1917 20.8809C13.7999 20.8876 13.2159 21.1223 12.824 21.129C12.6357 21.5816 12.4475 22.0342 12.2593 22.4868C12.0825 23.6133 12.4898 24.5051 12.7049 25.6249C12.7088 25.8495 12.7126 26.0742 12.7126 26.0742C12.7165 26.2988 12.5205 26.3021 12.3284 26.5301C11.7483 26.9894 10.9684 27.2275 10.5881 27.908C11.1759 27.898 11.56 27.4421 11.7714 28.3372C11.7752 28.5619 11.7828 29.0111 11.9826 29.2324C11.9865 29.457 12.1825 29.4537 12.1825 29.4537C12.3784 29.4503 12.3669 28.7764 12.559 28.5485C12.7472 28.0959 12.9393 27.8678 13.3273 27.6365C13.9074 27.1772 14.4875 26.7179 15.2675 26.4798C17.9952 25.5344 20.942 25.9334 23.5083 27.013C24.1 27.2276 24.6955 27.6668 25.291 28.106C25.8942 28.9945 25.8749 27.8713 25.6751 27.65Z" fill="#424242"/>
<path d="M11.4217 30.8149C11.4294 31.2641 11.6331 31.71 11.6408 32.1592C11.4526 32.6118 11.2604 32.8398 10.8762 33.2958C10.6841 33.5238 10.6919 33.973 10.6995 34.4223C10.7072 34.8715 11.1029 35.0895 11.3027 35.3108C11.4986 35.3074 11.6984 35.5287 11.8943 35.5253C12.0903 35.522 12.2824 35.294 12.6704 35.0627C13.0585 34.8314 13.2582 35.0526 13.6501 35.0459C14.042 35.0392 14.4338 35.0325 14.8218 34.8012C15.4058 34.5665 15.79 34.1105 15.9782 33.6579C16.1626 32.9807 15.9553 32.3101 15.5595 32.0922C15.1638 31.8743 14.7719 31.881 14.3762 31.6631C13.9843 31.6698 13.5886 31.4518 13.385 31.0059C13.1775 30.3354 13.5502 29.2056 12.7626 28.9944C11.7868 29.2357 11.2143 30.1443 11.4217 30.8149Z" fill="#262626"/>
<path d="M26.9583 45.3792C27.938 45.3625 28.7142 44.8998 29.4864 44.2125L29.6785 43.9846C29.6785 43.9846 29.6785 43.9846 29.4826 43.9879C29.2866 43.9913 29.2828 43.7667 29.0868 43.77C29.2828 43.7667 29.6707 43.5353 29.8628 43.3073C30.635 42.62 31.0078 41.4902 30.9886 40.3671C30.2202 41.279 29.2481 41.745 28.2761 42.211C27.4962 42.449 26.9123 42.6837 26.1324 42.9218C25.3525 43.1598 24.7608 42.9452 23.9809 43.1832C23.5928 43.4145 23.2048 43.6459 23.4123 44.3164C23.6198 44.9869 24.2076 44.9769 24.7993 45.1915C25.583 45.1781 26.1746 45.3926 26.9583 45.3792Z" fill="#7A3400"/>
<path d="M16.6235 48.4773C16.0357 48.4874 15.6439 48.4941 15.056 48.5041C15.2481 48.2761 15.4403 48.0481 15.8322 48.0414C15.8322 48.0414 15.8322 48.0414 15.8283 47.8168C15.8283 47.8168 15.8283 47.8168 15.8245 47.5922C15.6247 47.3709 15.2328 47.3776 15.0292 46.9317C14.8294 46.7104 14.8294 46.7105 14.6296 46.4892L14.426 46.0432C15.4134 46.4757 16.5889 46.4556 17.5609 45.9896C17.949 45.7583 18.3371 45.5269 18.7289 45.5202C19.3129 45.2856 19.5203 45.9561 19.1361 46.4121C18.944 46.6401 18.9479 46.8647 18.7558 47.0927C18.1834 48.0012 17.4034 48.2393 16.6235 48.4773Z" fill="#7A3400"/>
<path d="M26.2515 38.4255C26.9008 38.4144 27.4376 39.0088 27.4503 39.7531C27.463 40.4975 26.9469 41.1099 26.2976 41.121C25.6484 41.1321 25.1117 40.5377 25.099 39.7933C25.0863 39.049 25.6023 38.4366 26.2515 38.4255Z" fill="#FF903D"/>
<path d="M26.2627 39.0997C26.5874 39.0941 26.8557 39.3913 26.862 39.7635C26.8684 40.1357 26.6104 40.4419 26.2858 40.4475C25.9611 40.453 25.6928 40.1558 25.6865 39.7836C25.6801 39.4114 25.9381 39.1052 26.2627 39.0997Z" fill="#424242"/>
<path d="M25.8825 39.7803C26.0989 39.7766 26.2779 39.9747 26.2821 40.2229C26.2863 40.471 26.1143 40.6751 25.8979 40.6788C25.6815 40.6825 25.5027 40.4844 25.4984 40.2363C25.4942 39.9881 25.6661 39.784 25.8825 39.7803Z" fill="white"/>
<path d="M17.7147 43.5149C17.7032 42.841 17.2998 42.1738 16.9117 42.4052C16.5199 42.4119 16.1395 43.0925 16.1548 43.991C16.1664 44.6649 16.5698 45.3321 16.9578 45.1007C17.3459 44.8694 17.7263 44.1888 17.7147 43.5149Z" fill="#FF903D"/>
<path d="M17.3228 43.522C17.3151 43.0727 17.1153 42.8515 16.9193 42.8548C16.7234 42.8582 16.5351 43.3107 16.539 43.5354C16.5466 43.9846 16.7465 44.2059 16.9424 44.2026C17.1422 44.4239 17.3304 43.9712 17.3228 43.522Z" fill="#424242"/>
<path d="M17.1422 44.4239C17.1383 44.1993 16.9386 43.978 16.9386 43.978C16.7426 43.9814 16.7465 44.206 16.7504 44.4306C16.7542 44.6552 16.9539 44.8765 16.9539 44.8765C16.9539 44.8765 17.146 44.6485 17.1422 44.4239Z" fill="white"/>
<path d="M22.8976 25.6755C22.6863 24.7803 22.087 24.1165 21.2955 23.6807C19.1095 21.9205 16.3548 21.2935 13.8114 21.5617C13.4196 21.5684 12.8357 21.8031 12.4477 22.0344C12.4515 22.259 12.2593 22.487 12.2632 22.7117C12.0864 23.8382 12.4937 24.73 12.7089 25.8497C12.7127 26.0744 12.7165 26.299 12.7165 26.299L12.9124 26.2957C13.4964 26.061 14.0804 25.8263 14.8603 25.5882C15.8361 25.3469 16.8158 25.3301 17.7955 25.3133C19.167 25.2899 20.5387 25.2664 21.9179 25.6922C22.1177 25.9135 23.105 26.346 22.8976 25.6755Z" fill="#FF5959"/>
</svg>
