<svg width="157" height="248" viewBox="0 0 157 248" fill="none" xmlns="http://www.w3.org/2000/svg">
<g clip-path="url(#clip0_209_2027)">
<path d="M15.9797 190.557C15.9797 190.557 13.383 191.356 11.3855 191.955C9.38806 192.754 8.58908 189.758 8.58908 189.758C8.58908 189.758 6.59163 191.956 6.19213 195.351C5.5929 198.747 5.5929 199.746 6.79137 201.144C7.98984 202.542 10.3868 201.943 10.3868 201.943C10.3868 201.943 12.1845 206.537 15.3804 209.733C18.7761 212.729 23.57 212.529 26.3664 209.733C28.3639 207.735 22.1718 201.344 19.7748 196.749C17.9771 193.354 15.9797 190.557 15.9797 190.557Z" fill="#8CA2FF"/>
<path d="M17.5776 192.954C17.5776 192.954 13.383 193.953 11.9847 194.952C10.7863 195.751 11.3855 197.548 13.7824 196.55C16.1794 195.751 18.5763 194.952 18.5763 194.952L17.5776 192.954Z" fill="#4F3433"/>
<path d="M20.1744 197.349C20.1744 197.349 15.9797 198.347 14.5815 199.346C13.383 200.145 13.9822 201.943 16.3792 200.944C18.7761 199.945 21.3728 199.146 21.3728 199.146L20.1744 197.349Z" fill="#4F3433"/>
<path d="M35.9542 175.377C35.9542 175.377 35.7545 176.775 35.1552 178.772C34.556 180.77 35.5547 184.365 35.5547 184.365C35.5547 184.365 35.9542 185.564 37.9517 185.963C39.7494 186.363 41.1476 185.963 41.1476 185.963C41.1476 185.963 42.9453 187.961 45.1425 189.559C47.3397 191.157 52.3333 192.155 53.7316 192.155C56.7277 192.155 58.126 190.158 57.9262 188.959C57.7265 187.961 54.93 184.565 53.3321 182.767C48.7379 177.774 46.1412 175.177 44.9427 174.777C44.1438 174.378 41.9466 176.575 40.1489 177.174C38.1514 177.774 37.7519 176.176 35.9542 175.377Z" fill="#8CA2FF"/>
<path d="M46.9402 176.375C46.9402 176.375 44.5432 177.774 43.5445 178.772C42.5458 179.771 43.3448 181.369 45.1425 180.171C46.9402 178.972 48.3384 177.774 48.3384 177.774L46.9402 176.375Z" fill="#4F3433"/>
<path d="M49.9364 179.372C49.9364 179.372 47.7392 180.97 46.9402 181.769C45.542 182.967 46.9402 184.765 48.9377 183.366C50.3359 182.368 51.5344 181.369 51.5344 181.369L49.9364 179.372Z" fill="#4F3433"/>
<path d="M68.5128 24.369C65.1171 23.3703 58.7252 30.1616 56.528 35.9542C55.3295 38.9504 51.1349 49.5369 48.5382 54.3308C47.3397 52.5331 41.9466 36.5535 41.9466 36.5535C41.9466 36.5535 38.1514 35.5547 39.3499 38.1514C40.5484 40.7481 39.9491 64.1184 39.9491 64.1184C39.9491 64.1184 44.5433 72.5077 47.939 72.7074C47.939 72.7074 51.3346 74.5051 54.9301 65.9161C56.3283 62.3206 59.9237 43.7443 61.5217 41.9466C63.1196 39.9491 65.5166 37.9517 66.715 32.7583C67.9135 28.3639 71.9084 25.3677 68.5128 24.369Z" fill="#FFB8A3"/>
<path d="M27.3652 27.1654C27.3652 27.1654 34.556 23.57 40.3486 30.9606C46.1413 38.3512 47.939 44.5433 47.939 44.5433C47.939 44.5433 41.7469 50.3359 35.7545 50.7354C28.1642 51.3346 27.3652 27.1654 27.3652 27.1654Z" fill="#778CFC"/>
<path d="M32.958 175.776C36.1539 180.171 44.9427 178.972 48.5381 175.177C48.3384 160.596 52.1336 151.407 51.1348 136.826C49.9364 119.847 47.1399 96.2775 41.3473 80.0981C41.3473 79.8984 29.9618 84.4925 25.7672 87.2889C23.1705 89.0867 22.5712 90.6846 22.5712 93.8805C22.5712 103.468 31.9593 129.036 35.7544 137.825C31.7595 150.608 32.159 166.388 32.958 175.776Z" fill="#2C1D1B"/>
<path d="M33.757 85.8907C33.5572 85.691 33.3575 85.4912 32.958 85.4912C25.1679 86.2902 17.3778 86.4899 9.58777 86.2902C8.78878 86.2902 8.58904 87.2889 8.98853 87.8882C8.78878 87.8882 8.78878 87.8882 8.58904 88.0879C4.39438 94.28 3.99489 103.868 5.19336 110.459C2.59667 119.847 8.98853 135.228 10.187 144.017C7.9898 151.008 4.19463 157.599 3.99489 166.788C3.79514 170.982 3.5954 187.961 3.5954 192.155C5.7926 197.349 16.7786 195.152 20.1743 191.356C21.972 183.566 24.1692 158.598 26.1666 149.61C27.9644 141.62 29.7621 121.445 31.1603 111.059C36.1539 106.065 36.9529 91.8831 33.757 85.8907Z" fill="#3F2A28"/>
<path d="M17.7773 32.5586C17.7773 32.5586 7.59031 40.3487 5.59286 42.5459C1.79769 46.9403 1.3982 51.3347 1.99744 56.7278C2.59668 62.1209 7.79006 66.3156 8.58904 72.9072C9.58777 80.897 6.39184 90.2851 6.39184 90.2851C6.39184 90.2851 10.986 93.481 16.9784 94.28C21.3728 94.8792 28.1641 94.28 32.3588 93.0815C42.1463 90.2851 42.346 83.0942 42.346 83.0942C42.346 83.0942 41.7468 68.9123 42.9453 54.7304C44.3435 40.5484 34.7557 28.9632 28.7633 28.7634C22.9707 28.9632 17.7773 32.5586 17.7773 32.5586Z" fill="#8CA2FF"/>
<path d="M12.9835 36.3538C12.9835 36.3538 17.9771 42.1464 24.7684 42.9454C31.5598 43.7443 34.556 41.1477 33.9567 36.3538C33.5573 31.3601 30.7608 28.7634 30.7608 28.7634L17.7774 32.5586L12.9835 36.3538Z" fill="#778CFC"/>
<path d="M14.5814 35.5548C17.5776 37.9517 20.7735 39.9492 24.369 40.7482C27.9644 41.3474 30.3613 40.9479 31.7595 38.551C32.958 35.7545 32.159 32.5586 31.5598 30.9606C30.9606 28.9632 29.9618 27.1655 29.5623 25.967C29.1628 24.7685 17.5776 21.1731 17.5776 21.1731C17.5776 21.1731 18.9758 26.9657 16.3791 32.5586C15.7799 33.5573 15.1807 34.556 14.5814 35.5548Z" fill="#FFB8A3"/>
<path d="M37.5522 16.3793C37.3524 13.1834 36.7532 8.9887 34.1565 6.79149C31.7596 4.59429 27.5649 4.1948 24.369 4.59429C19.3753 4.79404 15.7799 10.3869 16.7786 16.579C17.5776 22.3716 21.5725 31.3602 27.9644 32.7584C31.3601 33.3577 33.9568 30.9607 35.355 27.7648C37.1527 23.9696 37.5522 19.1757 37.5522 16.3793Z" fill="#FFC8B5"/>
<path d="M18.7761 3.59552C15.1807 3.79527 11.9848 7.59043 13.383 15.9797C13.9822 19.1757 16.3792 22.9708 17.9771 26.766C18.1769 27.3652 22.3715 20.7736 23.1705 13.9823C28.7634 15.9797 36.3537 14.5815 41.7468 12.3843C39.3499 3.59552 25.3677 -5.19328 18.7761 3.59552Z" fill="#3F2A28"/>
<path d="M22.1718 20.9733C22.1718 20.9733 20.9733 17.5777 18.7761 18.9759C16.7786 20.3741 19.3753 24.9683 19.3753 24.9683L22.1718 20.9733Z" fill="#FFC8B5"/>
<path d="M1.79773 65.9162C1.79773 65.9162 2.79646 70.7101 4.99366 75.7037C7.19086 80.4976 8.58908 80.8971 10.5865 82.6948C11.785 83.6936 13.383 84.6923 14.9809 84.093C17.9771 83.2941 24.1692 81.8958 28.9631 76.1032C33.757 70.3106 33.5573 66.3157 35.5547 65.5167C40.3486 63.5192 41.7468 57.3271 43.1451 56.3284C47.5395 52.733 49.7367 47.5396 44.743 48.5383C39.5496 49.5371 38.9504 50.1363 36.154 53.1325C33.5573 56.1287 33.3575 58.7254 31.3601 60.5231C29.3626 62.5205 19.1756 71.3093 19.1756 71.3093L14.9809 59.3246L1.79773 65.9162Z" fill="#FFC8B5"/>
<path d="M8.98856 39.7495C8.98856 39.7495 0.998735 42.9454 0.199752 52.733C-0.59923 62.5205 1.99746 70.7101 1.99746 70.7101C1.99746 70.7101 6.59161 71.3093 9.58779 70.5103C15.7799 69.1121 18.1769 65.5167 18.1769 65.5167C18.1769 65.5167 16.9784 57.1274 16.1794 50.336C15.3804 42.3462 8.98856 39.7495 8.98856 39.7495Z" fill="#778CFC"/>
<path d="M111.258 210.332C111.458 209.134 111.458 207.735 111.258 206.537C111.059 190.957 108.662 175.976 104.866 160.795C102.869 153.005 102.27 145.215 101.471 137.225C100.872 131.433 99.2736 126.239 95.4784 121.645C95.0789 121.246 94.4797 121.246 94.0802 121.445C89.6858 123.643 84.6921 123.043 79.8982 123.043C75.5038 123.043 71.1094 122.844 66.5153 123.243C66.1158 123.243 65.9161 123.842 66.1158 124.042C59.9237 132.032 57.9262 143.018 59.9237 153.005C61.1222 158.798 63.9186 163.791 66.715 168.985C69.7112 174.578 71.7087 180.57 74.3054 186.363C74.3054 189.359 74.3054 192.355 74.7049 194.752C75.1044 197.748 75.7036 200.944 76.9021 203.741C79.6985 210.732 84.8919 214.727 91.6832 217.323C98.4746 219.92 103.668 220.319 108.861 214.327C109.86 213.328 110.459 212.13 110.859 211.131C111.059 210.931 111.258 210.732 111.258 210.332Z" fill="#D28037"/>
<path d="M61.9211 159.797C64.3181 164.191 69.112 173.379 69.112 173.379C69.112 173.379 80.4975 179.771 82.6947 173.379C84.8919 166.987 78.3003 161.794 78.3003 161.794C78.3003 161.794 64.3181 156.401 61.9211 159.797Z" fill="#AC5F25"/>
<path d="M76.902 154.603C74.9046 149.809 72.3079 145.015 68.9122 141.02C66.1158 137.824 64.3181 132.831 60.5229 134.828C56.7277 136.826 56.7277 142.419 57.327 146.214C55.729 144.416 53.7316 142.618 51.7341 141.22C50.7354 140.421 47.3397 140.821 46.9402 142.818C45.9415 148.011 46.341 155.003 48.3384 159.197C49.5369 161.594 51.9338 164.191 54.7303 163.192C57.5267 162.193 55.5293 157 54.93 154.803C55.729 155.402 59.3244 159.796 60.9224 161.195C63.3193 163.192 63.9186 164.99 66.9148 166.388C70.3104 168.186 74.9046 167.786 76.902 165.789C77.5013 165.389 75.9033 164.59 76.3028 163.991C79.299 161.994 78.3003 158.198 76.902 154.603Z" fill="#D28037"/>
<path d="M94.0801 212.529C93.0814 208.534 91.6832 202.342 90.6845 198.347C89.6857 194.552 89.0865 187.361 83.8931 187.162C83.8931 187.162 83.8931 187.162 83.6934 187.162C79.4987 181.968 69.3117 180.37 65.5165 185.963C60.9224 192.754 68.9122 204.14 74.1056 210.332C71.7086 209.333 64.1183 204.939 61.7214 205.139C59.3244 205.538 54.93 209.533 59.1247 212.13C62.5204 214.327 69.7112 217.922 76.7023 222.117C78.8995 223.515 83.0941 225.113 87.2888 225.513C89.486 225.712 92.2824 224.314 93.2812 223.315C95.6781 220.519 95.2786 217.323 94.0801 212.529Z" fill="#D28037"/>
<path d="M114.654 199.546C112.257 176.575 103.268 160.595 101.271 137.225C100.472 127.438 96.8766 123.443 95.2786 120.447C87.6883 124.641 76.5025 127.637 68.7125 131.433C69.9109 132.431 73.1069 136.426 75.5038 140.821C76.3028 142.419 78.5 146.813 78.5 157.799C78.5 161.794 74.5051 168.385 69.7112 167.387C70.7099 175.576 77.1018 178.772 81.6959 185.564C85.4911 187.561 88.8868 191.156 90.0852 195.551C91.2837 199.945 91.6832 202.142 91.8829 208.534C92.0827 211.531 93.4809 214.527 95.4784 218.322C96.8766 219.121 103.069 220.319 105.865 219.121C113.655 215.725 115.453 206.936 114.654 199.546Z" fill="#513231"/>
<path d="M88.8868 86.4899C87.8881 83.2939 87.4886 79.299 85.8906 76.9021C85.0916 75.7036 83.8932 76.5026 83.0942 77.9008C82.2952 79.4988 81.0967 81.696 80.6972 82.4949C79.8982 85.8906 79.299 89.8855 79.299 93.0815C79.299 96.0776 87.8881 100.672 88.2876 99.8728C90.285 94.8792 90.285 90.8843 88.8868 86.4899Z" fill="#2C1D1B"/>
<path d="M93.4809 115.054C92.4822 110.26 91.883 105.266 89.6858 100.872C88.2875 98.2749 85.8906 93.481 81.0967 92.2825C77.5013 91.2838 73.9059 93.0815 71.3092 95.2787C67.7138 95.878 64.5178 96.2774 60.9224 95.079C58.9249 94.4797 57.9262 94.6795 56.7277 96.4772C54.93 99.4734 54.5305 102.869 56.3283 106.065C57.5267 108.262 59.3244 109.061 61.1221 110.659C64.9173 114.055 63.7188 118.449 63.3194 122.644C62.3206 125.241 61.7214 127.637 63.5191 130.234C66.3155 134.229 69.911 136.626 74.9046 137.425C82.8944 138.424 91.6832 135.028 94.4797 127.438C94.8791 127.438 95.2786 127.238 95.4784 126.639C96.4771 123.443 94.2799 118.649 93.4809 115.054Z" fill="#D28037"/>
<path d="M62.3206 128.836L60.5229 134.828C60.5229 134.828 67.1145 138.623 72.9071 137.425C77.9008 136.426 78.1005 136.227 78.1005 136.227L62.3206 128.836Z" fill="#AC5F25"/>
<path d="M61.1222 110.659C61.1222 110.659 62.1209 107.863 61.9211 104.866C61.7214 103.868 62.7201 102.07 64.3181 101.271C66.9148 99.8728 70.9097 99.6731 72.3079 97.6756C74.3054 94.6794 74.1056 93.481 74.1056 93.481C74.1056 93.481 64.5178 96.2774 60.9224 95.0789C57.327 93.8804 55.1298 94.0802 54.5306 97.8754C53.7316 101.671 54.7303 107.263 61.1222 110.659Z" fill="#513231"/>
<path d="M67.514 108.662C67.7138 109.061 67.9135 109.261 68.313 109.261C71.7087 105.066 76.3028 100.871 76.7023 95.4783C75.7036 93.6806 74.5051 92.0826 73.5064 90.8842C71.7087 89.0865 70.71 88.2875 68.9122 86.6895C66.9148 85.0916 66.3156 83.8931 65.3168 84.6921C64.1184 85.491 65.5166 90.8842 65.7163 93.4809C66.1158 98.6742 65.1171 103.668 67.514 108.662Z" fill="#3F2A28"/>
<path d="M96.6768 125.041C96.4771 123.043 95.2786 121.246 94.6794 119.448C92.8817 113.855 92.4822 106.065 89.6857 101.071C86.6896 95.6782 82.2952 98.0752 81.4962 102.669C81.0967 104.667 81.0967 108.062 81.0967 110.06C81.0967 112.657 80.6972 115.453 79.6985 118.05C78.3002 122.045 75.9033 127.438 71.5089 128.237C68.9122 128.636 65.5165 128.636 62.5203 126.439C61.7214 126.439 61.3219 128.037 62.3206 130.234C64.1183 134.828 68.5127 136.426 73.5064 137.825C78.8995 139.423 83.6934 138.024 88.2875 135.627C92.0827 133.83 97.2761 129.635 96.6768 125.041Z" fill="#513231"/>
<path d="M152.406 225.113C148.211 220.919 141.22 218.522 135.627 217.723C131.832 217.123 128.037 216.924 124.242 216.524C120.646 216.125 118.249 216.524 115.253 214.926C113.855 214.327 112.856 211.93 111.858 211.131C109.461 209.533 106.464 209.933 105.665 214.127C104.467 219.72 107.463 223.715 112.257 226.112C116.851 228.309 126.039 229.508 130.434 233.902C131.632 235.1 131.632 237.697 132.032 239.295C133.23 238.097 134.628 235.5 134.029 233.303C135.028 234.301 135.827 235.5 136.626 236.698C137.824 239.295 137.625 241.492 137.824 244.289C140.621 240.693 140.621 236.898 139.422 233.503C141.22 235.1 142.818 237.098 143.617 239.495C144.616 242.092 144.017 244.489 144.416 247.085C159.197 242.891 159.597 232.504 152.406 225.113Z" fill="#3F2A28"/>
<path d="M54.3308 99.0739C54.3308 99.0739 56.7278 99.8728 58.3257 98.4746C59.9237 97.0764 60.9224 95.079 60.9224 95.079C60.9224 95.079 57.9262 93.6807 55.729 95.079C54.3308 96.0777 54.3308 99.0739 54.3308 99.0739Z" fill="#3F2A28"/>
<path d="M62.3206 130.234C62.3206 130.234 77.1018 137.225 86.6896 131.632C96.4771 126.239 95.0789 120.247 95.0789 120.247L97.4758 124.042C97.4758 124.042 97.6756 129.435 89.0865 135.228C80.4975 141.02 66.3155 138.823 62.3206 130.234Z" fill="#F8AA43"/>
</g>
<defs>
<clipPath id="clip0_209_2027">
<rect width="157" height="247.485" fill="white"/>
</clipPath>
</defs>
</svg>
