<svg id="Layer_1" enable-background="new 0 0 256 256" viewBox="0 0 256 256" xmlns="http://www.w3.org/2000/svg"><g><g><g><path d="m49.186 26.414c-.974 11.564-13.024 13.389-13.024 13.389 10.347.487 12.925 14.059 12.925 14.059.221-9.677 13.321-14.202 13.321-14.202-9.814-.587-13.222-13.246-13.222-13.246z" fill="#d7e057"/></g></g><g><g><path d="m62.497 38.163c-8.604-.515-11.832-12.024-11.863-12.141-.19-.702-.854-1.162-1.584-1.102-.725.066-1.298.642-1.359 1.367-.859 10.215-11.313 11.964-11.754 12.033-.763.115-1.313.79-1.273 1.561.04.77.657 1.384 1.428 1.421 9.027.425 11.498 12.718 11.521 12.842.138.711.76 1.217 1.473 1.217.042 0 .084-.001.126-.005.764-.064 1.358-.693 1.375-1.459.194-8.508 12.191-12.777 12.313-12.819.676-.235 1.092-.914.994-1.622-.1-.709-.683-1.25-1.397-1.293zm-13.566 10.346c-1.356-3.131-3.708-6.908-7.586-8.877 2.931-1.405 6.408-3.913 8.201-8.272 1.551 3.071 4.2 6.88 8.334 8.722-3.007 1.64-6.922 4.406-8.949 8.427z" fill="#3a312a"/></g></g><g><g><path d="m27.487 43.395c-.689 8.179-9.213 9.471-9.213 9.471 7.318.344 9.142 9.944 9.142 9.944.156-6.844 9.422-10.045 9.422-10.045-6.94-.416-9.351-9.37-9.351-9.37z" fill="#d7e057"/></g></g><g><g><path d="m36.929 51.267c-5.767-.345-7.972-8.186-7.993-8.265-.19-.702-.863-1.164-1.582-1.102-.726.065-1.3.642-1.361 1.368-.579 6.871-7.647 8.067-7.942 8.114-.763.115-1.314.79-1.273 1.561.04.77.657 1.384 1.428 1.421 6.035.284 7.724 8.644 7.739 8.726.136.713.759 1.22 1.473 1.22.041 0 .083-.001.125-.005.765-.063 1.358-.694 1.376-1.461.13-5.709 8.331-8.634 8.412-8.662.676-.234 1.093-.913.996-1.622-.099-.709-.684-1.25-1.398-1.293zm-9.585 6.795c-.924-1.885-2.34-3.947-4.447-5.28 1.856-1.041 3.697-2.63 4.871-4.917 1.057 1.874 2.654 3.955 4.941 5.224-1.85 1.101-3.989 2.74-5.365 4.973z" fill="#3a312a"/></g></g><g><g><path d="m27.487 16.737c-.689 8.179-9.213 9.471-9.213 9.471 7.318.344 9.142 9.944 9.142 9.944.156-6.845 9.422-10.045 9.422-10.045-6.94-.416-9.351-9.37-9.351-9.37z" fill="#d7e057"/></g></g><g><g><path d="m36.929 24.609c-5.767-.345-7.972-8.186-7.993-8.265-.19-.702-.863-1.163-1.582-1.101-.726.065-1.3.642-1.361 1.368-.579 6.871-7.647 8.067-7.942 8.114-.763.115-1.314.79-1.273 1.561.04.77.657 1.384 1.428 1.421 6.035.284 7.724 8.644 7.739 8.726.136.713.759 1.22 1.473 1.22.041 0 .083-.001.125-.005.765-.063 1.358-.694 1.376-1.461.13-5.709 8.331-8.634 8.412-8.662.676-.234 1.093-.913.996-1.622-.099-.709-.684-1.251-1.398-1.294zm-9.585 6.795c-.924-1.885-2.34-3.947-4.447-5.28 1.856-1.041 3.697-2.63 4.871-4.917 1.057 1.874 2.654 3.955 4.941 5.224-1.85 1.102-3.989 2.741-5.365 4.973z" fill="#3a312a"/></g></g><g><g><path d="m192.794 49.22v21.108l30.555 25.924v-47.032z" fill="#87796f"/></g></g><g><g><path d="m223.35 47.72h-30.556c-.828 0-1.5.671-1.5 1.5v21.107c0 .44.193.859.529 1.144l30.556 25.924c.276.235.622.356.971.356.214 0 .429-.046.63-.139.53-.246.87-.777.87-1.361v-47.031c0-.828-.672-1.5-1.5-1.5zm-1.5 45.292-27.556-23.379v-18.913h27.556z" fill="#3a312a"/></g></g><g><g><path d="m225.586 35.656h-35.032c-2.113 0-3.826 1.713-3.826 3.826v5.912c0 2.113 1.713 3.825 3.826 3.825h35.032c2.113 0 3.826-1.713 3.826-3.825v-5.912c0-2.113-1.713-3.826-3.826-3.826z" fill="#87796f"/></g></g><g><g><path d="m225.586 34.156h-35.031c-2.937 0-5.325 2.389-5.325 5.326v5.912c0 2.937 2.389 5.325 5.325 5.325h35.031c2.937 0 5.326-2.389 5.326-5.325v-5.912c0-2.937-2.389-5.326-5.326-5.326zm2.326 11.237c0 1.282-1.044 2.325-2.326 2.325h-35.031c-1.282 0-2.325-1.043-2.325-2.325v-5.912c0-1.282 1.043-2.326 2.325-2.326h35.031c1.282 0 2.326 1.043 2.326 2.326z" fill="#3a312a"/></g></g><g><g><path d="m32.799 120.61h190.403v119.145h-190.403z" fill="#f16c7a"/></g></g><g><g><path d="m223.201 119.11h-190.402c-.828 0-1.5.671-1.5 1.5v55.659c0 .829.672 1.5 1.5 1.5s1.5-.671 1.5-1.5v-54.159h187.402v116.144h-187.402v-48.699c0-.829-.672-1.5-1.5-1.5s-1.5.671-1.5 1.5v50.199c0 .829.672 1.5 1.5 1.5h190.402c.828 0 1.5-.671 1.5-1.5v-119.144c0-.829-.672-1.5-1.5-1.5z" fill="#3a312a"/></g></g><g><g><path d="m246.219 115.646-116.397-98.732c-1.051-.892-2.592-.892-3.643 0l-63.924 54.222-9.798 8.311-42.676 36.199c-1.999 1.696-.8 4.964 1.822 4.964h232.796c2.621-.001 3.82-3.269 1.82-4.964z" fill="#87796f"/></g></g><g><g><path d="m247.19 114.502-116.399-98.732c-1.617-1.372-3.964-1.371-5.583 0l-63.924 54.222c-.631.536-.709 1.482-.173 2.114.534.632 1.481.71 2.114.174l63.923-54.222c.494-.418 1.21-.417 1.702 0l116.398 98.731c.65.551.459 1.254.385 1.457-.075.202-.384.863-1.236.863h-232.795c-.852 0-1.161-.661-1.236-.863-.074-.203-.266-.906.385-1.457l42.677-36.199c.631-.536.709-1.482.173-2.114-.533-.632-1.482-.711-2.114-.174l-42.677 36.2c-1.395 1.184-1.89 3.06-1.259 4.779.63 1.719 2.221 2.829 4.052 2.829h232.795c1.831 0 3.422-1.11 4.052-2.829s.136-3.595-1.26-4.779z" fill="#3a312a"/></g></g><g><g><path d="m128 144.531c-22.126 0-40.063 17.937-40.063 40.063v55.151h80.125v-55.151c.001-22.127-17.936-40.063-40.062-40.063z" fill="#d7e057"/></g></g><g><g><path d="m128 143.031c-22.918 0-41.563 18.645-41.563 41.563v55.15c0 .829.672 1.5 1.5 1.5h80.125c.828 0 1.5-.671 1.5-1.5v-55.15c.001-22.918-18.644-41.563-41.562-41.563zm38.563 95.213h-77.125v-53.65c0-21.264 17.299-38.563 38.563-38.563s38.563 17.299 38.563 38.563v53.65z" fill="#3a312a"/></g></g><g><g><path d="m206.85 50.716v29.57l15 12.72v-42.29z" fill="#695b51"/></g></g><g><g><path d="m225.59 37.156h-15c1.28 0 2.32 1.04 2.32 2.33v5.91c0 1.28-1.04 2.32-2.32 2.32h15c1.28 0 2.32-1.04 2.32-2.32v-5.91c0-1.29-1.04-2.33-2.32-2.33z" fill="#695b51"/></g></g><g><g><path d="m206.7 122.106h15v116.15h-15z" fill="#d34e5c"/></g></g><g><g><path d="m168.209 87.066c3.612-2.218 6.03-6.193 6.03-10.742 0-6.965-5.646-12.611-12.611-12.611s-12.611 5.646-12.611 12.611c0 .474.031.941.082 1.401h-42.271c.091-.611.153-1.232.153-1.868 0-6.965-5.646-12.611-12.61-12.611s-12.611 5.646-12.611 12.611c0 4.55 2.417 8.524 6.03 10.742-3.612 2.218-6.03 6.193-6.03 10.742 0 6.965 5.646 12.611 12.611 12.611s12.61-5.646 12.61-12.611c0-.636-.062-1.257-.153-1.868h42.413c-.142.758-.225 1.536-.225 2.335 0 6.965 5.646 12.611 12.611 12.611s12.611-5.646 12.611-12.611c.001-4.55-2.417-8.524-6.029-10.742z" fill="#fce8cb"/></g></g><g><g><path d="m170.763 87.065c3.149-2.661 4.977-6.542 4.977-10.742 0-7.78-6.33-14.11-14.111-14.11-7.748 0-14.057 6.276-14.11 14.012h-39.041c.004-.124.006-.246.006-.368 0-7.781-6.33-14.111-14.11-14.111-7.781 0-14.111 6.33-14.111 14.111 0 4.2 1.827 8.081 4.977 10.742-3.149 2.661-4.977 6.542-4.977 10.742 0 7.781 6.33 14.111 14.111 14.111 7.78 0 14.11-6.33 14.11-14.111 0-.122-.002-.244-.006-.368h39.067c-.018.282-.026.561-.026.835 0 7.78 6.33 14.11 14.11 14.11 7.781 0 14.111-6.33 14.111-14.11-.001-4.2-1.828-8.081-4.977-10.743zm-9.135 21.854c-6.126 0-11.11-4.984-11.11-11.11 0-.669.065-1.343.199-2.06.082-.438-.036-.891-.32-1.234-.285-.343-.708-.541-1.154-.541h-42.413c-.437 0-.851.19-1.136.521-.285.33-.412.769-.348 1.2.093.629.137 1.153.137 1.648 0 6.127-4.984 11.111-11.11 11.111-6.127 0-11.111-4.984-11.111-11.111 0-3.883 1.987-7.42 5.316-9.464.444-.273.715-.757.715-1.278s-.271-1.005-.715-1.278c-3.328-2.043-5.316-5.581-5.316-9.464 0-6.126 4.984-11.111 11.111-11.111 6.126 0 11.11 4.984 11.11 11.111 0 .495-.044 1.019-.137 1.648-.064.431.063.87.348 1.2.285.331.699.521 1.136.521h42.27c.427 0 .833-.182 1.117-.499.284-.318.421-.742.374-1.166-.05-.445-.073-.85-.073-1.237 0-6.126 4.984-11.11 11.11-11.11 6.127 0 11.111 4.984 11.111 11.11 0 3.883-1.987 7.421-5.316 9.464-.444.273-.715.757-.715 1.278s.271 1.005.715 1.278c3.328 2.044 5.316 5.582 5.316 9.464 0 6.125-4.984 11.109-11.111 11.109z" fill="#3a312a"/></g></g><g><g><path d="m116.385 178.719c-4.43-8.058-16.095-10.152-17.653-9.295-1.275.701-6.042 11.827-1.612 19.885 4.429 8.058 10.542 8.962 15.862 6.037 5.319-2.924 7.832-8.569 3.403-16.627z" fill="#87796f"/></g></g><g><g><path d="m117.699 177.997c-4.71-8.567-17.086-11.318-19.69-9.887-2.146 1.18-7.019 13.163-2.203 21.922 2.283 4.153 5.13 6.793 8.46 7.845 1.046.331 2.124.495 3.219.495 2.047 0 4.153-.574 6.22-1.71 3.172-1.744 5.276-4.274 6.085-7.318.896-3.377.192-7.194-2.091-11.347zm-.809 10.576c-.749 2.82-2.932 4.525-4.631 5.459s-4.31 1.862-7.09.984c-2.569-.811-4.835-2.975-6.734-6.429-3.748-6.817-.207-16.198 1.068-17.83 1.908-.257 11.776 1.791 15.567 8.686 1.9 3.453 2.511 6.525 1.82 9.13z" fill="#3a312a"/></g></g><g><g><path d="m111.782 180.322c-2.493-4.535-9.059-5.714-9.936-5.232-.717.395-3.4 6.657-.908 11.192 2.493 4.535 5.934 5.044 8.928 3.398 2.995-1.646 4.409-4.823 1.916-9.358z" fill="#f16c7a"/></g></g><g><g><path d="m113.097 179.599c-2.747-4.997-10.083-6.859-11.973-5.824-1.217.669-2.104 3.6-2.404 5.056-.445 2.167-.65 5.344.905 8.174 2.021 3.676 4.66 5.015 7.153 5.015 1.354 0 2.665-.395 3.812-1.025 1.946-1.07 3.24-2.635 3.742-4.525.55-2.069.134-4.38-1.235-6.871zm-1.664 6.1c-.291 1.095-1.061 1.992-2.288 2.667-2.686 1.478-5.069.507-6.891-2.806-1.837-3.342-.271-7.819.403-9.075 1.495.054 5.998 1.264 7.811 4.56.984 1.791 1.309 3.357.965 4.654z" fill="#3a312a"/></g></g><g><g><path d="m157.268 169.424c-1.558-.857-13.223 1.237-17.653 9.295-4.429 8.058-1.917 13.703 3.403 16.627s11.432 2.021 15.862-6.037-.337-19.184-1.612-19.885z" fill="#87796f"/></g></g><g><g><path d="m157.991 168.109c-2.608-1.432-14.98 1.319-19.69 9.887-2.283 4.153-2.986 7.971-2.09 11.346.809 3.044 2.913 5.574 6.085 7.318 2.066 1.136 4.172 1.71 6.22 1.71 1.095 0 2.173-.164 3.219-.495 3.33-1.052 6.177-3.691 8.46-7.845 4.815-8.758-.058-20.741-2.204-21.921zm-.426 20.477c-1.899 3.455-4.165 5.618-6.734 6.429-2.779.879-5.391-.05-7.09-.984s-3.882-2.639-4.631-5.459c-.691-2.604-.08-5.677 1.819-9.131 3.589-6.529 12.628-8.706 15.197-8.706.145 0 .268.007.37.021 1.277 1.632 4.818 11.013 1.069 17.83z" fill="#3a312a"/></g></g><g><g><path d="m154.153 175.09c-.877-.482-7.443.697-9.936 5.232s-1.079 7.712 1.915 9.359c2.994 1.646 6.435 1.137 8.928-3.398 2.494-4.536-.189-10.799-.907-11.193z" fill="#f16c7a"/></g></g><g><g><path d="m157.28 178.831c-.3-1.456-1.188-4.387-2.404-5.056-1.886-1.037-9.225.826-11.973 5.824-1.369 2.491-1.785 4.802-1.235 6.87.502 1.891 1.796 3.456 3.742 4.525 1.146.63 2.457 1.025 3.811 1.025 2.493 0 5.133-1.339 7.153-5.015 1.557-2.829 1.352-6.006.906-8.173zm-3.534 6.729c-1.821 3.312-4.199 4.285-6.891 2.806-1.228-.675-1.997-1.572-2.288-2.667-.345-1.297-.02-2.863.965-4.655 1.813-3.296 6.316-4.507 7.811-4.56.675 1.256 2.24 5.734.403 9.076z" fill="#3a312a"/></g></g><g><g><path d="m155.461 210.034c-.051-.055-.102-.111-.153-.171.055-.791.083-1.583.083-2.392 0-3.267-.477-6.414-1.37-9.362-2.749-9.149-9.427-16.364-17.863-19.27-2.629-.907-5.424-1.398-8.325-1.398-2.8 0-5.502.454-8.048 1.305-8.561 2.841-15.359 10.111-18.14 19.367-.889 2.948-1.37 6.09-1.37 9.357 0 .879.037 1.745.107 2.601.005.042.005.083.009.125-2.314 2.624-3.628 5.613-3.628 8.793 0 .999.13 1.948.38 2.846 2.341 8.45 15.267 12.592 30.857 12.592s28.516-4.142 30.857-12.592c.25-.898.38-1.846.38-2.846 0-3.249-1.37-6.294-3.776-8.955z" fill="#fce8cb"/></g></g><g><g><path d="m156.843 209.334c.033-.621.049-1.235.049-1.864 0-3.357-.482-6.653-1.434-9.793-2.892-9.622-9.924-17.194-18.81-20.256-5.6-1.934-11.769-1.96-17.334-.099-9.032 2.999-16.175 10.609-19.104 20.358-.951 3.156-1.434 6.45-1.434 9.79 0 .726.024 1.465.075 2.222-2.35 2.849-3.587 6.051-3.587 9.297 0 1.122.146 2.215.434 3.246 2.376 8.573 14.451 13.691 32.303 13.691s29.927-5.118 32.303-13.689c.288-1.033.434-2.126.434-3.248-.002-3.376-1.337-6.695-3.895-9.655zm.569 12.1c-1.965 7.088-13.234 11.492-29.412 11.492s-27.447-4.404-29.412-11.494c-.215-.771-.324-1.594-.324-2.443 0-2.729 1.095-5.354 3.253-7.801.282-.32.418-.708.368-1.131 0-.007-.007-.1-.008-.107-.067-.832-.102-1.666-.102-2.48 0-3.046.439-6.049 1.307-8.925 2.649-8.815 9.07-15.685 17.18-18.376 2.436-.814 4.982-1.227 7.571-1.227 2.671 0 5.308.442 7.837 1.315 7.978 2.749 14.301 9.583 16.916 18.286.866 2.861 1.306 5.865 1.306 8.927 0 .771-.026 1.519-.08 2.287-.027.39.099.775.351 1.074l.187.209c2.248 2.485 3.388 5.16 3.388 7.948-.002.85-.111 1.673-.326 2.446z" fill="#3a312a"/></g></g><g><g><path d="m119.786 178.746c-8.561 2.841-15.359 10.111-18.14 19.367-.889 2.948-1.37 6.09-1.37 9.357 0 .879.037 1.745.107 2.601.005.042.005.083.009.125-2.314 2.624-3.628 5.613-3.628 8.793 0 .999.13 1.948.38 2.846 1.994.861 4.123 1.324 6.331 1.324 11.407 0 20.649-12.328 20.649-27.535-.002-6.359-1.617-12.218-4.338-16.878z" fill="#87796f"/></g></g><g><g><path d="m121.081 177.99c-.357-.612-1.091-.888-1.768-.667-9.032 2.999-16.175 10.609-19.104 20.358-.951 3.156-1.434 6.45-1.434 9.79 0 .726.024 1.465.075 2.222-2.35 2.849-3.587 6.051-3.587 9.297 0 1.122.146 2.214.434 3.248.122.437.434.795.851.975 2.224.96 4.554 1.447 6.926 1.447 12.213 0 22.148-13.025 22.148-29.035 0-6.45-1.57-12.547-4.541-17.635zm-17.607 43.668c-1.719 0-3.413-.311-5.049-.924-.107-.563-.161-1.148-.161-1.746 0-2.729 1.095-5.354 3.253-7.801.282-.32.418-.708.368-1.131 0-.007-.007-.1-.008-.107-.067-.832-.102-1.666-.102-2.48 0-3.046.439-6.049 1.307-8.925 2.521-8.389 8.457-15.015 16.011-17.955 2.313 4.404 3.529 9.573 3.529 15.034 0 14.356-8.59 26.035-19.148 26.035z" fill="#3a312a"/></g></g><g><g><path d="m155.461 210.034c-.051-.055-.102-.111-.153-.171.055-.791.083-1.583.083-2.392 0-3.267-.477-6.414-1.37-9.362-2.749-9.149-9.427-16.364-17.863-19.27-2.684 4.646-4.281 10.468-4.281 16.785 0 15.207 9.242 27.535 20.649 27.535 2.208 0 4.336-.463 6.331-1.324.25-.898.38-1.846.38-2.846 0-3.249-1.37-6.294-3.776-8.955z" fill="#87796f"/></g></g><g><g><path d="m156.843 209.334c.033-.621.049-1.235.049-1.864 0-3.357-.482-6.653-1.434-9.793-2.892-9.622-9.924-17.194-18.811-20.256-.675-.235-1.428.045-1.787.667-2.932 5.076-4.482 11.139-4.482 17.535 0 16.01 9.936 29.035 22.148 29.035 2.372 0 4.702-.487 6.926-1.447.416-.18.729-.538.851-.975.287-1.034.434-2.126.434-3.248-.001-3.375-1.336-6.694-3.894-9.654zm.732 11.4c-1.636.613-3.33.924-5.049.924-10.559 0-19.148-11.679-19.148-26.035 0-5.407 1.197-10.538 3.472-14.925 7.418 2.993 13.252 9.576 15.736 17.845.866 2.861 1.306 5.865 1.306 8.927 0 .771-.026 1.519-.08 2.287-.027.39.099.775.351 1.074l.187.209c2.248 2.485 3.388 5.16 3.388 7.948-.002.599-.055 1.184-.163 1.746z" fill="#3a312a"/></g></g><g><g><path d="m128.012 208.036c-2.446-.011-4.435 1.17-4.441 2.638-.007 1.468 1.966 3.848 4.413 3.858 2.446.011 4.44-2.352 4.446-3.82.006-1.466-1.972-2.665-4.418-2.676z" fill="#3a312a"/></g></g><g><g><path d="m128 213.214c0 3.16-2.394 5.756-5.468 6.076.057 3.807 2.484 6.867 5.468 6.867s5.411-3.06 5.468-6.867c-3.074-.32-5.468-2.916-5.468-6.076z" fill="#f16c7a"/></g></g><g><g><path d="m133.624 217.798c-2.351-.244-4.124-2.215-4.124-4.583 0-.829-.672-1.5-1.5-1.5s-1.5.671-1.5 1.5c0 2.369-1.772 4.339-4.124 4.583-.772.081-1.356.738-1.345 1.515.071 4.679 3.132 8.344 6.969 8.344s6.898-3.665 6.969-8.344c.011-.777-.573-1.435-1.345-1.515zm-5.624 6.859c-1.842 0-3.415-1.785-3.851-4.172 1.567-.482 2.904-1.449 3.851-2.721.946 1.272 2.283 2.239 3.851 2.721-.436 2.387-2.009 4.172-3.851 4.172z" fill="#3a312a"/></g></g><g><g><path d="m128 211.714c-.828 0-1.5.671-1.5 1.5 0 2.369-1.772 4.339-4.147 4.586-.153.018-.309.025-.465.025-2.543 0-4.611-2.069-4.611-4.612 0-.829-.672-1.5-1.5-1.5s-1.5.671-1.5 1.5c0 4.197 3.414 7.612 7.611 7.612.275 0 .552-.014.799-.044 3.885-.404 6.813-3.658 6.813-7.568 0-.827-.672-1.499-1.5-1.499z" fill="#3a312a"/></g></g><g><g><path d="m140.224 211.714c-.828 0-1.5.671-1.5 1.5 0 2.543-2.068 4.612-4.611 4.612-.156 0-.312-.007-.488-.028-2.351-.244-4.124-2.215-4.124-4.583 0-.829-.672-1.5-1.5-1.5s-1.5.671-1.5 1.5c0 3.91 2.929 7.163 6.79 7.565.271.033.547.047.822.047 4.197 0 7.611-3.415 7.611-7.612 0-.829-.672-1.501-1.5-1.501z" fill="#3a312a"/></g></g><g><g><path d="m110.024 206.51c-3.177 0-5.752 1.61-5.752 3.595 0 1.986 2.575 3.595 5.752 3.595s5.752-1.609 5.752-3.595-2.575-3.595-5.752-3.595z" fill="#f5978a"/></g></g><g><g><path d="m145.976 206.51c-3.177 0-5.752 1.61-5.752 3.595 0 1.986 2.575 3.595 5.752 3.595s5.752-1.609 5.752-3.595c.001-1.986-2.575-3.595-5.752-3.595z" fill="#f5978a"/></g></g><g><g><path d="m118.653 200.451c-1.39 0-2.517 1.127-2.517 2.517s1.127 2.517 2.517 2.517 2.516-1.127 2.516-2.517-1.127-2.517-2.516-2.517z" fill="#3a312a"/></g></g><g><g><path d="m137.348 200.451c-1.39 0-2.517 1.127-2.517 2.517s1.126 2.517 2.517 2.517c1.39 0 2.517-1.127 2.517-2.517-.001-1.39-1.127-2.517-2.517-2.517z" fill="#3a312a"/></g></g><g><g><path d="m245.25 116.786-116.4-98.73c-.49-.41-1.21-.42-1.7 0l-6.65 5.64 109.75 93.09c.65.56.46 1.26.38 1.46-.07.2-.38.86-1.23.86h15c.85 0 1.16-.66 1.23-.86.08-.2.27-.9-.38-1.46z" fill="#695b51"/></g></g></g></svg>