<svg xmlns="http://www.w3.org/2000/svg" xmlns:xlink="http://www.w3.org/1999/xlink" width="247" height="234">
  <path stroke="none" fill-opacity="1" fill="#f2e8df" stroke-miterlimit="4" stroke-width="1px" stroke-linejoin="miter" stroke-dasharray="none" stroke-opacity="1" fill-rule="nonzero" stroke-linecap="butt" d="M152.082,221.44C139.69,228.55,119.579,228.55,107.187,221.44C94.796,214.33,94.796,202.751,106.984,195.438C119.376,188.328,139.487,188.328,151.879,195.438C164.474,202.751,164.473,214.33,152.082,221.44ZM152.082,221.44"/>
  <path stroke-opacity="1" fill-opacity="1" stroke-miterlimit="4" fill-rule="nonzero" stroke-width="1px" stroke-linejoin="miter" stroke-linecap="butt" fill="#f2e8df" stroke="none" stroke-dasharray="none" d="M234.761,197.063C222.369,204.173,202.258,204.173,189.866,197.063C177.474,189.953,177.475,178.374,189.663,171.061C202.055,163.951,222.166,163.951,234.557,171.061C246.949,178.171,246.949,189.75,234.761,197.063ZM234.761,197.063"/>
  <path stroke-dasharray="none" fill="#f2e8df" fill-opacity="1" stroke="none" stroke-miterlimit="4" fill-rule="nonzero" stroke-opacity="1" stroke-linejoin="miter" stroke-width="1px" stroke-linecap="butt" d="M85.248,226.925C72.044,234.441,50.511,234.441,37.307,226.925C24.102,219.206,23.899,206.814,37.104,199.298C50.308,191.782,71.841,191.782,85.045,199.298C98.249,206.814,98.452,219.206,85.248,226.925ZM85.248,226.925"/>
  <path stroke="none" stroke-dasharray="none" stroke-linecap="butt" fill-rule="nonzero" fill="#262626" stroke-width="1px" stroke-miterlimit="4" stroke-opacity="1" fill-opacity="1" stroke-linejoin="miter" d="M198.195,170.655C197.382,172.686,197.382,175.124,198.398,176.749C200.226,179.39,204.086,179.796,206.524,181.828C207.539,182.843,208.149,184.062,208.961,185.078C210.993,188.125,213.43,190.766,216.478,192.797C217.9,193.813,219.525,194.626,221.353,195.032C223.181,195.235,225.009,195.032,226.431,193.813C228.057,192.391,228.463,189.75,228.057,187.516C227.447,185.281,226.228,183.453,224.806,181.625C221.962,177.765,218.915,174.311,215.665,171.061C214.04,169.436,212.415,167.811,210.383,166.592C209.164,165.78,207.742,165.17,206.32,164.764C204.695,164.561,202.664,164.561,201.445,165.78C200.226,167.201,198.804,168.827,198.195,170.655ZM198.195,170.655"/>
  <path stroke-width="1px" stroke-linejoin="miter" fill-opacity="1" fill-rule="nonzero" stroke-dasharray="none" stroke-miterlimit="4" stroke="none" stroke-opacity="1" stroke-linecap="butt" fill="#338259" d="M213.634,146.684C213.634,143.231,213.837,139.574,212.821,136.121C212.212,133.683,211.196,131.245,210.18,128.808C208.758,125.354,206.321,119.869,204.899,116.416C200.43,107.071,195.96,97.524,189.663,89.195C186.819,85.538,183.569,82.085,181.74,77.819C180.115,74.162,179.709,69.896,177.271,66.646C175.646,72.334,171.38,77.21,165.895,79.444C164.473,80.054,163.051,80.46,161.833,81.272C159.598,82.898,158.582,85.945,158.785,88.789C158.989,91.633,160.207,94.273,160.817,96.914C161.426,99.758,163.864,101.993,165.692,104.024C173.818,114.181,182.147,124.339,190.272,134.496C190.679,135.105,191.288,135.714,191.898,136.324C192.913,137.543,193.523,138.965,193.726,140.387C193.726,141.199,193.726,141.809,193.929,142.621C194.335,145.262,195.351,147.7,196.164,150.341C197.789,155.419,198.601,160.701,198.804,166.186C198.804,167.201,198.804,168.623,199.211,169.436C199.617,170.249,200.836,170.452,201.648,170.655C204.696,171.264,207.946,170.858,210.587,169.436C212.415,168.623,212.415,167.405,212.618,165.576C212.821,163.545,212.821,161.514,213.024,159.279C213.227,155.013,213.431,150.747,213.634,146.684ZM213.634,146.684"/>
  <path fill-rule="nonzero" stroke-dasharray="none" fill="#404040" stroke-opacity="1" stroke-miterlimit="4" stroke="none" stroke-linejoin="miter" fill-opacity="1" stroke-width="1px" stroke-linecap="butt" d="M126.283,187.719C125.876,188.328,125.47,188.938,125.064,189.75C123.236,193.204,121.814,196.86,120.595,200.517C119.782,202.751,119.173,205.189,118.97,207.627C118.766,210.674,119.173,213.924,120.392,216.768C121.61,219.409,123.845,221.034,126.689,221.237C127.298,221.237,127.908,221.237,128.517,221.034C130.955,220.018,132.377,216.971,133.393,214.533C134.611,211.689,135.018,208.642,135.627,205.798C136.237,202.142,136.44,198.485,136.237,195.032C136.237,193.61,136.034,191.985,135.627,190.563C135.424,189.141,134.408,187.719,133.189,187.109C131.767,186.094,129.736,186.094,128.111,186.703C127.298,186.906,126.689,187.312,126.283,187.719ZM126.283,187.719"/>
  <path stroke-dasharray="none" stroke="none" stroke-opacity="1" fill-opacity="1" fill="#4ba677" stroke-linecap="butt" fill-rule="nonzero" stroke-width="1px" stroke-miterlimit="4" stroke-linejoin="miter" d="M165.083,80.663C164.677,80.663,164.473,80.663,163.864,80.663C161.833,80.257,159.801,80.257,157.77,80.054C153.504,79.85,149.441,78.428,145.581,76.397C144.159,75.584,142.737,74.569,141.518,73.553C140.706,72.944,140.096,72.334,139.081,71.725C138.877,71.522,137.049,70.709,137.252,70.303C135.627,72.74,134.612,75.178,133.596,77.819C131.158,84.116,129.127,90.82,128.314,97.524C127.502,104.634,127.705,111.947,127.095,119.057C126.892,123.932,127.095,128.808,127.298,133.48C127.298,135.714,127.299,138.152,127.502,140.387C127.705,142.215,126.689,143.84,126.08,145.668C125.267,147.903,124.251,150.341,123.642,152.778C121.407,160.701,121.001,169.233,121.204,177.359C121.407,181.625,121.611,185.89,122.017,189.953C122.22,191.172,122.017,192.797,122.829,193.813C123.845,194.829,125.673,195.235,126.892,195.235C129.736,195.235,132.783,194.626,135.018,192.797C136.44,191.375,136.237,190.156,136.44,188.328C136.643,186.297,138.471,173.905,139.081,169.842C139.69,165.983,140.3,161.92,140.706,158.06C140.909,155.825,141.112,153.591,141.315,151.356C141.518,149.325,142.331,147.294,142.737,145.262C144.362,137.949,145.378,130.433,146.597,122.916C147.206,119.26,148.222,115.4,149.238,111.947C150.253,108.697,150.863,105.853,154.113,104.227C154.926,103.821,155.941,103.415,156.754,103.212C159.395,102.399,162.036,101.993,164.067,100.165C165.895,98.539,166.708,96.102,167.114,93.664C168.13,88.382,167.927,83.101,166.505,77.819C166.708,78.428,166.099,79.444,165.692,79.85C165.692,80.46,165.489,80.663,165.083,80.663ZM165.083,80.663"/>
  <path stroke-linejoin="miter" fill="#262626" stroke="none" fill-rule="nonzero" stroke-dasharray="none" stroke-opacity="1" stroke-width="1px" stroke-linecap="butt" stroke-miterlimit="4" fill-opacity="1" d="M133.799,76.803C133.799,78.428,133.596,80.053,134.408,81.475C135.221,82.897,136.643,83.913,138.065,84.929C140.096,86.148,142.331,87.367,144.565,88.179C147.003,88.992,149.644,89.804,152.285,89.601C154.113,89.601,155.941,89.398,157.77,89.195C159.395,88.992,160.817,88.382,162.442,87.773C165.489,86.96,168.333,85.538,170.771,83.71C173.615,81.679,176.256,79.038,178.287,75.991C179.1,74.772,179.506,73.756,179.506,72.334C179.506,71.318,179.303,70.506,179.1,69.693C178.49,67.256,177.881,64.818,176.865,62.583L176.459,63.396C176.459,63.802,176.459,64.005,176.256,64.411C176.053,65.021,175.443,65.427,175.037,65.834C174.224,66.646,173.412,67.256,172.599,67.865C165.286,73.35,155.738,75.787,146.597,74.772C144.159,74.366,141.721,73.959,139.487,72.74C138.471,72.334,137.659,71.521,136.643,71.115C136.034,70.912,135.627,70.912,135.018,70.709C134.611,70.709,134.205,70.1,134.205,69.693C134.002,72.334,133.799,74.569,133.799,76.803ZM133.799,76.803"/>
  <path fill="#4ba677" stroke-dasharray="none" fill-opacity="1" stroke="none" stroke-linejoin="miter" stroke-opacity="1" stroke-miterlimit="4" stroke-width="1px" fill-rule="nonzero" stroke-linecap="butt" d="M150.863,83.71C151.066,83.507,151.472,83.507,151.675,83.507C152.082,83.507,152.691,83.507,153.097,83.507C153.301,83.507,153.504,83.507,153.707,83.71L153.707,83.913C153.707,83.913,153.504,83.913,153.504,84.116C153.504,84.116,153.504,84.319,153.504,84.522C153.504,84.726,153.504,85.132,153.504,85.335C153.504,85.945,153.504,86.554,153.504,87.163C153.504,88.179,153.504,89.398,153.3,90.414C152.285,90.617,151.066,90.82,150.05,90.617C150.05,90.617,150.05,90.617,149.847,90.617L149.847,90.414C149.847,88.382,150.05,86.554,150.253,84.522C150.253,84.116,150.457,83.913,150.863,83.71ZM150.863,83.71"/>
  <path stroke-miterlimit="4" stroke-linecap="butt" stroke-opacity="1" stroke-dasharray="none" stroke="none" stroke-linejoin="miter" fill-opacity="1" stroke-width="1px" fill="#663c33" fill-rule="nonzero" d="M216.071,98.743C215.868,97.524,215.462,96.305,214.853,95.086C213.431,91.43,211.399,79.038,210.993,77.007C210.18,72.537,209.165,67.865,208.149,63.396C207.539,60.755,206.93,58.318,205.914,55.88C205.508,54.458,204.899,53.036,204.492,51.614C204.086,50.395,203.477,49.379,202.664,48.363C202.055,47.754,201.445,46.942,200.836,46.332C199.82,45.316,198.804,44.504,197.586,43.488C195.757,42.066,193.929,40.441,191.694,39.832C192.101,41.66,192.304,43.488,191.288,44.91C190.679,45.723,189.866,46.332,188.85,46.738C188.444,46.942,188.241,47.145,188.038,47.348C187.835,47.551,187.835,47.754,187.835,48.16C188.038,49.785,189.054,51.004,190.069,52.223C190.882,53.239,191.898,54.255,192.71,55.27C193.523,59.333,195.554,63.599,197.179,67.256C197.992,68.881,198.601,70.506,199.211,72.131C201.242,76.803,203.07,81.679,204.492,86.757C204.492,87.164,204.492,87.367,204.492,87.57C204.086,88.992,203.477,90.211,203.07,91.633C202.867,92.445,202.461,93.055,202.055,93.867C201.852,94.274,201.648,94.68,201.648,95.086C201.648,95.492,201.648,95.696,201.648,96.102C201.852,98.133,202.258,100.368,202.461,102.399C202.664,103.821,202.867,105.446,203.274,106.868C203.477,107.275,203.477,107.681,203.68,107.884L203.883,108.087C204.086,108.087,204.086,108.087,204.289,107.884C205.102,106.868,205.102,105.65,205.102,104.431C205.102,103.212,204.899,101.993,205.305,100.774C205.508,100.977,205.508,101.18,205.508,101.587C205.508,103.415,205.305,105.446,205.305,107.275C205.305,107.478,205.305,107.681,205.305,107.681C205.305,107.884,205.508,107.884,205.711,107.884C206.727,108.29,207.946,108.29,208.962,107.884C209.165,107.884,209.368,107.681,209.571,107.681C209.774,107.681,209.977,107.681,210.18,107.884C210.993,108.087,211.806,107.681,212.415,107.275C212.821,107.072,213.227,106.868,213.227,106.462C213.227,106.259,213.227,106.056,213.227,105.853C213.431,105.446,213.837,105.243,214.04,104.837C214.04,104.634,214.04,104.431,214.243,104.228C214.446,104.024,214.649,104.024,214.649,103.821C215.056,103.618,215.056,103.009,215.259,102.602C216.071,101.18,216.275,99.962,216.071,98.743ZM216.071,98.743"/>
  <path fill-opacity="1" stroke-width="1px" stroke-miterlimit="4" stroke-dasharray="none" stroke-linejoin="miter" stroke-linecap="butt" stroke="none" stroke-opacity="1" fill="#f2f2f2" fill-rule="nonzero" d="M185.194,30.284C187.835,32.518,190.272,34.956,192.507,37.394C193.116,38.003,193.726,38.613,194.335,39.425C194.945,40.035,195.554,40.441,195.757,41.254C195.96,42.066,195.757,43.082,195.757,43.894C195.554,45.723,194.944,47.348,193.929,48.973C192.71,50.598,191.085,52.02,189.257,52.833C188.647,53.036,187.631,53.645,186.819,53.645C185.803,53.645,184.787,52.63,183.975,52.223C182.35,51.004,180.725,49.785,179.099,48.567C177.474,47.348,175.849,46.129,174.224,45.113C172.802,44.301,171.177,43.488,169.958,42.066C169.755,41.863,169.552,41.66,169.552,41.254C169.552,41.05,169.552,40.644,169.755,40.441C170.161,39.628,170.974,38.816,171.38,38.003C172.396,36.378,172.396,34.347,172.193,32.315C171.99,30.487,171.583,28.659,171.177,26.83C170.974,26.018,170.568,25.002,170.771,24.19C170.771,23.58,171.177,22.971,171.786,22.768C172.396,22.361,172.802,22.768,173.412,22.971C174.833,23.58,176.255,24.19,177.474,25.002C180.318,26.424,182.959,28.252,185.194,30.284ZM185.194,30.284"/>
  <path stroke-opacity="1" fill="#d9d9d9" stroke-width="1px" stroke-linecap="butt" stroke-dasharray="none" stroke-linejoin="miter" fill-opacity="1" stroke="none" fill-rule="nonzero" stroke-miterlimit="4" d="M127.705,35.362C127.298,35.769,126.689,36.378,126.283,36.987C125.876,37.394,125.47,38.003,125.267,38.612C125.064,39.425,125.267,40.441,125.47,41.253C126.892,46.941,128.72,52.223,130.752,57.505C131.971,60.755,132.986,64.005,133.596,67.459C133.799,68.677,134.205,69.896,134.205,71.115C134.408,72.537,134.205,73.959,134.408,75.584C134.612,76.803,135.627,77.819,136.44,78.632C137.862,80.053,139.69,81.272,141.518,82.288C148.019,85.538,155.941,84.929,162.848,82.491C165.083,81.679,167.317,80.663,169.349,79.444C171.583,78.022,173.615,76.397,175.24,74.366C176.865,72.334,178.693,70.1,178.287,67.256C177.068,54.661,176.256,42.269,175.849,29.674C175.849,27.44,175.646,25.002,173.818,23.58C173.005,22.971,171.787,22.564,170.771,22.361C163.458,20.939,156.145,20.939,148.832,22.158C146.394,22.564,143.956,22.971,141.925,24.393C136.846,27.237,131.971,30.893,127.705,35.362ZM127.705,35.362"/>
  <path fill-rule="nonzero" stroke-linejoin="miter" stroke-opacity="1" stroke-linecap="butt" stroke="none" stroke-dasharray="none" fill="#ffa600" fill-opacity="1" stroke-width="1px" stroke-miterlimit="4" d="M145.988,44.707C145.988,44.91,145.784,45.113,145.784,45.316C145.784,45.519,145.987,45.926,146.191,46.129C146.394,46.738,147.206,48.566,147.41,48.973C147.613,49.379,147.613,49.582,148.019,49.785C149.035,49.988,149.847,49.785,150.863,49.582C151.066,49.379,151.269,49.379,151.472,49.176C151.676,48.973,151.675,48.77,151.675,48.566C152.285,46.738,152.691,45.113,153.301,43.285C153.301,43.082,153.301,43.082,153.301,42.879C153.301,42.675,153.097,42.675,153.097,42.472C152.082,41.66,151.066,40.644,150.253,39.425C149.644,40.238,148.425,40.644,147.41,40.238C147.206,40.035,146.8,40.035,146.8,40.238L146.8,40.441C146.597,41.05,146.8,41.863,146.8,42.472C146.394,43.082,146.191,43.894,145.988,44.707ZM145.988,44.707"/>
  <path fill-rule="nonzero" stroke-width="1px" fill="#ffa600" stroke-linejoin="miter" stroke-miterlimit="4" stroke-opacity="1" stroke-dasharray="none" stroke-linecap="butt" stroke="none" fill-opacity="1" d="M147.409,48.973C146.394,59.333,154.113,91.633,154.113,91.633L160.004,102.196L163.255,92.445L151.269,48.973L147.409,48.973ZM147.409,48.973"/>
  <path stroke-dasharray="none" fill-rule="nonzero" stroke-linecap="butt" fill="#663c33" stroke-linejoin="miter" stroke-width="1px" stroke-opacity="1" stroke-miterlimit="4" fill-opacity="1" stroke="none" d="M147.003,43.285C147.003,43.488,147.003,43.488,147.206,43.691C147.409,43.691,147.613,43.691,147.816,43.691C148.019,43.691,148.222,43.488,148.425,43.285C148.628,43.285,148.628,43.285,148.831,43.082C149.035,43.082,149.238,43.082,149.238,43.082C149.441,43.082,149.441,43.285,149.644,43.082C149.847,42.879,150.253,42.675,150.457,42.472C151.675,41.457,152.894,40.644,153.91,39.222C154.723,38.003,155.129,36.378,155.332,34.753C155.738,32.925,155.941,31.3,155.738,29.471C155.535,28.253,155.129,26.83,154.519,25.612C153.91,24.19,153.301,22.768,151.879,22.158C151.675,23.174,151.066,23.986,150.457,24.596C149.847,25.205,149.034,25.815,148.222,26.221C147.206,26.83,146.394,27.44,145.378,28.049C144.769,28.456,144.362,28.659,143.753,29.268C143.143,29.878,142.737,30.893,142.534,31.909C142.128,33.331,142.128,34.753,142.534,36.175C142.94,37.394,143.956,38.41,144.565,39.628C144.972,40.441,145.581,41.254,145.987,42.066C146.394,42.472,146.597,42.879,147.003,43.285ZM147.003,43.285"/>
  <path stroke-dasharray="none" stroke-miterlimit="4" fill-rule="nonzero" stroke-opacity="1" fill="#f2f2f2" fill-opacity="1" stroke-linejoin="miter" stroke-width="1px" stroke-linecap="butt" stroke="none" d="M150.05,43.488C151.066,43.894,152.285,44.301,153.098,44.707C153.91,45.113,154.926,45.723,155.332,46.738C155.332,44.91,156.145,43.285,156.754,41.66C157.567,39.425,158.176,36.988,158.379,34.55C158.582,32.112,158.379,29.674,157.363,27.44C156.957,26.424,156.348,25.612,155.535,25.205C155.332,25.205,155.332,25.002,155.129,25.002C154.926,25.002,154.723,25.205,154.52,25.409C154.316,25.612,154.316,25.815,154.316,26.221C154.113,27.237,154.113,28.253,154.316,29.268C154.723,30.081,154.52,31.097,154.52,32.112C154.316,34.753,153.707,37.191,152.691,39.628C151.879,41.254,150.863,42.675,149.035,43.488C149.238,43.285,149.644,43.285,150.05,43.488ZM150.05,43.488"/>
  <path fill-rule="nonzero" fill-opacity="1" stroke-miterlimit="4" stroke-opacity="1" stroke-linecap="butt" stroke-linejoin="miter" stroke-width="1px" stroke="none" fill="#f2f2f2" stroke-dasharray="none" d="M146.191,46.738C145.175,47.754,143.753,48.567,142.331,48.77C142.534,48.16,142.737,47.348,142.737,46.738C142.737,46.129,142.534,45.723,142.331,45.113C141.925,43.691,141.518,42.472,141.112,41.05C141.721,41.66,142.737,42.066,143.55,42.269C145.581,42.879,147.816,43.082,150.05,43.082C149.847,43.082,149.238,43.488,149.238,43.488C148.831,43.691,148.628,44.301,148.425,44.504C147.613,45.316,147.003,46.129,146.191,46.738ZM146.191,46.738"/>
  <path stroke-width="1px" stroke-linejoin="miter" stroke-opacity="1" stroke-linecap="butt" stroke="none" fill="#874f43" fill-opacity="1" stroke-dasharray="none" fill-rule="nonzero" stroke-miterlimit="4" d="M129.736,32.315C131.158,37.394,133.393,42.472,137.455,45.926C138.065,46.535,138.878,46.942,139.69,47.145C140.909,47.348,142.128,46.738,142.94,46.129C146.191,43.894,149.035,40.847,151.269,37.597C152.691,35.362,154.113,32.925,153.504,30.284C154.316,30.284,155.332,29.878,155.941,29.065C156.551,28.456,156.754,27.44,157.16,26.627C158.176,23.174,158.176,19.517,157.77,15.861C157.567,14.033,157.16,12.204,156.348,10.579C154.926,7.735,152.285,5.704,149.238,4.688C146.191,3.672,142.94,3.672,139.69,4.079C136.44,4.688,133.393,5.907,131.158,8.345C129.127,10.579,128.111,13.626,127.908,16.47C127.095,21.955,128.314,27.44,129.736,32.315ZM129.736,32.315"/>
  <path fill="#262626" stroke-dasharray="none" stroke-opacity="1" stroke-linecap="butt" stroke-width="1px" fill-opacity="1" fill-rule="nonzero" stroke="none" stroke-linejoin="miter" stroke-miterlimit="4" d="M142.331,19.721C142.534,20.736,143.347,21.752,144.362,21.752C143.347,22.971,143.347,25.002,144.565,26.221C144.972,26.627,145.378,26.627,145.784,26.83C145.987,26.83,146.19,26.627,146.19,26.83C146.19,26.83,146.19,27.44,146.19,27.643C146.394,28.659,147.409,29.268,148.425,29.674C149.644,30.081,151.066,29.674,152.285,29.268C152.082,29.268,152.082,27.237,152.082,27.237C152.082,26.424,152.285,25.815,152.488,25.002C152.894,23.783,153.707,22.565,154.926,22.158C156.754,21.549,157.77,22.971,157.566,24.596C158.176,22.971,158.379,21.346,158.785,19.721C158.988,18.705,158.785,17.486,157.973,17.08C157.77,17.08,157.566,16.876,157.363,16.673C157.363,16.47,157.363,16.267,157.363,16.267C157.566,15.251,157.973,14.236,157.566,13.423C157.566,13.22,157.16,12.814,157.16,12.407C157.16,12.204,156.957,11.798,156.957,11.595C156.754,10.173,156.348,8.751,155.535,7.532C154.926,6.719,154.519,6.11,153.707,5.501C152.488,4.688,151.066,5.094,150.05,5.907C148.222,7.126,145.784,7.126,143.55,7.532C143.143,7.532,142.737,7.735,142.331,7.938C141.925,8.345,141.518,8.954,141.518,9.563C141.112,12.001,142.128,13.829,143.347,15.861C143.753,16.673,143.347,16.876,142.94,17.486C142.534,18.095,142.331,18.908,142.331,19.517L142.331,19.721ZM142.331,19.721"/>
  <path stroke-opacity="1" stroke-width="1px" stroke="none" stroke-dasharray="none" fill-opacity="1" stroke-linejoin="miter" fill-rule="nonzero" fill="#424242" stroke-miterlimit="4" stroke-linecap="butt" d="M149.238,9.97C149.238,10.376,151.066,9.766,151.269,9.563C152.082,9.157,152.691,8.344,153.301,7.735C153.504,7.532,155.332,8.548,155.535,8.751C156.145,9.36,156.551,9.97,156.957,10.782C156.957,9.36,157.16,7.532,156.551,6.313C155.941,5.297,154.926,4.282,153.707,4.078C153.301,3.875,152.691,3.875,152.488,4.485C152.082,3.875,151.472,3.063,150.863,2.656C150.254,2.25,149.238,1.844,148.425,2.047C147.816,1.234,147.206,0.422,146.191,0.219C145.175,0.016,144.159,0.219,143.55,1.031C142.94,0.422,141.925,0.016,140.909,0.016C139.284,0.016,138.471,1.031,138.065,2.453C137.862,1.438,136.846,1.031,135.83,1.031C135.018,1.031,134.205,1.234,133.596,1.641C132.986,2.25,132.58,2.86,132.58,3.672C132.174,3.672,131.768,3.469,131.158,3.672C130.752,3.875,130.346,4.078,129.939,4.282C129.127,4.891,128.517,5.907,128.924,6.922C127.908,7.126,127.095,8.141,126.892,9.36C126.689,10.376,126.892,11.595,127.095,12.61C127.095,12.814,127.095,13.017,127.095,13.22C126.892,13.829,126.283,14.236,126.08,14.845C125.876,15.658,125.876,16.673,126.08,17.283C126.283,17.689,126.486,18.095,126.892,18.298C127.298,18.501,127.705,18.705,128.111,18.501C127.908,18.501,128.111,19.314,128.111,19.517C128.314,19.924,128.517,20.127,128.72,20.33C129.33,20.736,129.939,20.939,130.752,21.142C131.158,21.142,131.564,21.346,131.768,20.939C132.783,21.955,134.002,22.564,135.424,22.564C136.846,22.564,138.268,22.158,139.081,21.142C140.909,21.549,143.143,20.533,144.159,18.908C144.769,19.111,145.581,18.908,146.191,18.501C147.816,17.486,148.425,15.251,147.613,13.423C147.613,13.423,148.831,12.204,149.035,12.001C149.238,11.392,149.441,10.579,149.238,9.97ZM149.238,9.97"/>
  <path stroke="none" stroke-linejoin="miter" stroke-opacity="1" fill="#874f43" stroke-linecap="butt" stroke-miterlimit="4" stroke-dasharray="none" fill-rule="nonzero" stroke-width="1px" fill-opacity="1" d="M97.03,94.07C96.827,94.883,96.624,95.696,97.03,96.305C97.437,96.914,98.046,97.321,98.655,97.321C100.484,97.727,102.515,96.711,104.14,95.492C109.219,91.836,113.485,86.96,116.735,81.679C117.954,79.647,119.173,77.21,118.766,74.975C118.563,74.162,118.36,73.553,118.157,72.741C117.751,71.928,117.344,71.115,116.735,70.506C115.719,69.49,114.297,68.881,112.875,68.881C111.656,68.881,110.031,69.896,109.219,68.475C109.016,68.068,109.016,67.459,108.812,67.052C106.172,69.693,104.343,72.944,102.921,76.194C101.499,79.85,100.077,83.71,98.858,87.367C98.249,89.804,97.64,92.039,97.03,94.07ZM97.03,94.07"/>
  <path fill="#874f43" stroke="none" stroke-linejoin="miter" stroke-dasharray="none" stroke-linecap="butt" fill-rule="nonzero" stroke-width="1px" stroke-opacity="1" fill-opacity="1" stroke-miterlimit="4" d="M98.452,99.758C99.265,100.774,100.28,101.79,101.296,102.602C108,107.884,115.922,112.15,124.048,114.791C125.267,112.556,126.283,110.118,126.892,107.681C126.892,107.478,126.892,107.071,126.892,106.868C126.689,106.462,126.283,106.259,125.876,106.259C120.188,104.024,115.719,99.352,112.063,94.477C111.25,93.258,110.234,92.039,109.016,91.023C106.984,89.195,103.937,88.382,101.296,89.195C99.671,89.804,98.249,91.023,97.64,92.445C97.03,93.664,96.624,95.492,96.827,96.711C97.233,97.727,97.843,98.743,98.452,99.758ZM98.452,99.758"/>
  <path stroke-opacity="1" fill-opacity="1" stroke-linejoin="miter" stroke-linecap="butt" stroke-dasharray="none" stroke-miterlimit="4" fill="#663c33" stroke-width="1px" fill-rule="nonzero" stroke="none" d="M125.876,104.43C126.486,104.024,127.095,103.415,127.705,103.009C127.908,102.805,128.111,102.602,128.517,102.399C129.127,101.993,129.939,101.993,130.752,102.196C131.768,102.399,132.783,102.602,134.002,102.805C134.205,102.805,134.205,102.805,134.408,103.009C134.612,103.009,134.612,103.212,134.612,103.415C134.815,103.821,135.424,104.227,135.83,104.634C136.643,105.446,137.252,106.665,137.862,107.884C138.065,108.087,138.065,108.493,137.862,108.696C137.659,108.696,137.659,108.9,137.456,108.9C136.643,108.9,135.627,108.696,135.018,108.087C134.205,107.478,133.596,106.462,132.783,106.259C131.971,106.056,131.158,106.259,130.346,106.665C129.533,107.071,128.924,107.478,128.111,107.681C127.502,107.884,126.892,107.681,126.283,107.681C125.877,107.681,124.861,107.681,124.658,107.071C123.642,106.056,125.47,104.837,125.876,104.43ZM125.876,104.43"/>
  <path stroke-opacity="1" stroke="none" stroke-dasharray="none" stroke-linecap="butt" fill-opacity="1" stroke-miterlimit="4" fill-rule="nonzero" stroke-linejoin="miter" stroke-width="1px" fill="#874f43" d="M130.346,105.853C132.174,106.056,133.799,105.853,135.627,105.853C136.44,105.853,137.252,105.853,137.862,106.259C138.471,106.665,139.081,107.275,138.878,108.087C138.878,108.29,138.878,108.494,138.878,108.494C138.878,108.697,139.081,108.697,139.284,108.9C139.69,109.306,140.096,109.915,140.096,110.525C140.096,111.134,139.69,111.744,139.284,112.15C139.69,112.759,139.69,113.369,139.487,113.978C139.284,114.588,138.878,114.994,138.471,115.603C138.674,115.807,138.674,115.807,138.674,116.01C138.674,116.619,138.471,117.025,138.065,117.432C137.659,117.838,137.252,118.041,136.846,118.447C135.83,119.057,134.815,119.666,133.799,120.073C132.58,120.479,131.361,120.479,130.346,120.073C129.533,119.666,129.127,119.26,128.517,118.651C127.908,118.041,127.095,117.635,126.486,117.025C125.877,116.619,125.064,116.213,124.658,115.603C123.642,114.385,122.22,113.369,120.798,112.556C120.595,112.353,120.392,112.353,120.188,112.15C120.188,111.947,119.985,111.947,119.985,111.744C119.376,109.915,119.579,107.681,120.595,105.853C120.798,105.446,121.001,105.04,121.61,104.634C121.814,104.634,121.814,104.431,122.017,104.431C122.22,104.431,122.22,104.431,122.423,104.431C124.455,104.837,126.486,105.04,128.72,105.446C128.72,105.65,129.533,105.853,130.346,105.853ZM130.346,105.853"/>
  <path stroke="none" stroke-linecap="butt" stroke-linejoin="miter" fill="#f2f2f2" stroke-miterlimit="4" stroke-opacity="1" fill-opacity="1" fill-rule="nonzero" stroke-width="1px" stroke-dasharray="none" d="M115.313,46.535C113.282,49.379,111.656,52.426,110.031,55.473C108.203,58.927,106.172,62.583,104.953,66.24C104.343,68.271,103.328,71.115,103.734,73.35C104.14,74.975,106.172,76.397,107.594,77.21C109.625,78.428,111.86,79.241,114.094,79.647C115.313,79.851,116.532,80.054,117.548,80.054C118.766,80.054,119.579,80.257,120.392,79.444C121.001,79.038,121.407,78.428,121.813,77.819C123.642,75.178,125.267,72.537,127.095,69.693C128.72,67.256,130.346,64.615,131.564,61.974C132.58,59.739,132.783,57.708,132.377,55.27C131.971,50.395,131.361,45.316,129.939,40.644C129.33,38.613,128.111,36.175,125.673,36.987C121.61,38.206,118.36,42.066,115.922,45.316C115.719,45.926,115.516,46.129,115.313,46.535ZM115.313,46.535"/>
  <path stroke-linecap="butt" fill-opacity="1" fill-rule="nonzero" stroke-opacity="1" stroke-width="1px" stroke-miterlimit="4" fill="#f2f2f2" stroke-linejoin="miter" stroke="none" stroke-dasharray="none" d="M159.801,57.302C159.395,57.098,161.02,66.443,161.02,66.443L168.13,69.287L173.615,62.177L171.99,53.645C171.99,53.645,168.333,59.739,159.801,57.302ZM159.801,57.302"/>
  <path stroke-width="1px" fill="#338259" stroke="none" stroke-linejoin="miter" stroke-miterlimit="4" fill-opacity="1" stroke-dasharray="none" stroke-opacity="1" stroke-linecap="butt" fill-rule="nonzero" d="M175.849,77.616C176.052,78.022,176.256,78.428,176.459,78.835C176.662,79.241,176.662,79.647,176.865,80.054C176.865,80.46,176.865,80.866,176.662,81.272C176.256,81.882,175.646,82.491,175.037,83.101C174.834,83.304,174.63,83.507,174.427,83.507C173.412,83.913,173.818,82.085,173.818,81.476C173.615,80.663,173.412,79.647,173.005,79.038C172.802,78.632,172.396,78.225,171.99,78.022C171.786,77.819,171.583,77.616,171.177,77.819C171.177,77.819,170.974,78.022,170.771,78.022C170.771,77.819,170.974,77.616,171.177,77.413C171.38,77.21,171.583,76.803,171.786,76.6C171.99,76.397,172.193,76.194,172.396,75.991C172.802,75.788,173.615,75.788,174.021,75.788C174.63,75.991,175.037,76.397,175.443,77.007C175.646,77.413,175.646,77.616,175.849,77.616ZM175.849,77.616"/>
  <path stroke-opacity="1" stroke-miterlimit="4" fill="#ffc482" stroke-linecap="butt" stroke-width="1px" stroke-dasharray="none" stroke-linejoin="miter" fill-opacity="1" fill-rule="nonzero" stroke="none" d="M60.262,165.17C57.621,163.139,53.355,163.545,49.495,166.389C45.432,169.233,43.401,172.686,41.369,177.765C39.947,181.625,39.135,185.484,39.541,188.734C39.947,192.188,41.369,194.626,42.994,196.657C43.401,197.063,43.807,197.673,43.807,198.485C43.807,199.095,43.604,199.907,43.401,200.72C42.588,203.564,41.369,206.408,39.947,209.252C39.135,210.877,38.525,212.705,39.541,214.33C40.354,215.752,41.776,216.971,43.198,217.784C46.651,219.612,50.714,219.003,54.167,217.581C55.589,216.971,57.215,215.956,58.433,214.94C59.652,213.721,60.871,212.502,60.871,210.674C60.871,210.268,60.871,209.861,60.668,209.455C60.262,208.642,59.449,207.83,58.433,207.83C57.418,207.627,56.402,207.83,55.589,208.439C54.777,208.846,53.964,209.861,53.152,210.064C52.339,210.268,51.323,209.455,51.12,208.846C50.511,207.83,50.714,206.205,51.323,204.986C51.527,204.58,51.73,204.173,52.136,203.97C54.37,201.329,56.605,198.688,58.637,195.641C60.668,192.797,62.496,189.344,63.309,186.297C63.918,183.656,64.121,181.218,64.121,178.984C63.918,173.093,63.309,167.811,60.262,165.17ZM60.262,165.17"/>
  <path fill-rule="nonzero" stroke-opacity="1" stroke-linecap="butt" stroke-width="1px" fill="#ffc482" stroke="none" stroke-dasharray="none" stroke-miterlimit="4" fill-opacity="1" stroke-linejoin="miter" d="M61.074,122.307C59.855,123.932,59.043,125.76,58.84,127.792C58.433,132.058,60.465,136.73,63.309,139.98C66.153,143.028,69.606,142.215,72.653,139.98C75.701,137.746,78.748,135.105,81.795,132.464C84.842,130.026,88.092,127.589,91.139,126.37C94.186,125.151,97.233,124.948,99.265,126.573C100.077,127.386,101.093,128.401,102.515,128.401C103.328,128.401,103.937,127.995,104.343,127.386C105.156,126.573,105.765,125.557,105.969,124.542C105.969,121.088,101.499,119.666,98.859,118.651C97.64,118.244,96.421,117.838,94.999,118.041C93.374,118.244,91.546,119.26,89.717,120.479C86.67,122.307,83.42,124.135,80.373,125.964C79.154,126.776,76.716,128.401,75.294,127.995C73.872,127.589,73.466,125.151,72.856,124.135C72.247,122.713,71.231,121.495,70.012,120.479C69.403,120.073,68.794,119.666,68.184,119.463C66.762,119.057,65.34,119.26,64.121,119.869C62.903,120.479,61.887,121.291,61.074,122.307ZM61.074,122.307"/>
  <path stroke-linecap="butt" stroke-dasharray="none" fill-rule="nonzero" fill="#ffa645" stroke-linejoin="miter" stroke-miterlimit="4" stroke-opacity="1" fill-opacity="1" stroke="none" stroke-width="1px" d="M83.013,179.796C82.607,177.968,80.779,176.546,80.17,174.921C79.154,172.28,79.56,169.436,80.779,166.795C81.998,164.357,83.826,162.123,85.451,159.888C90.327,153.591,93.983,146.278,93.577,138.152C93.374,134.902,92.561,131.652,92.155,128.401C91.546,124.948,90.53,121.291,88.701,118.244C88.092,117.228,87.889,115.806,87.28,114.791C86.467,113.369,85.451,112.15,84.232,111.134C79.357,107.478,75.091,107.884,70.825,111.947C68.59,113.978,66.356,116.213,64.121,118.447C57.824,125.354,53.152,133.48,49.495,142.012C46.042,150.137,43.401,158.466,41.572,167.201C38.932,179.999,35.478,204.173,53.558,207.22C58.433,208.033,63.512,206.814,67.778,204.173C72.044,201.532,75.294,197.876,78.138,193.813C79.56,191.782,80.779,189.547,81.591,187.312C81.998,185.078,83.42,181.828,83.013,179.796ZM83.013,179.796"/>
  <path stroke-miterlimit="4" fill-rule="nonzero" fill="#262626" stroke-linejoin="miter" stroke-linecap="butt" stroke-dasharray="none" fill-opacity="1" stroke="none" stroke-opacity="1" stroke-width="1px" d="M105.765,92.445C107.797,92.648,107.391,95.492,106.578,96.711C106.375,97.118,105.969,97.321,105.562,97.118C105.359,96.914,105.156,96.711,105.156,96.508C104.953,95.899,104.547,95.289,104.343,94.883C103.937,93.258,104.14,92.242,105.765,92.445ZM105.765,92.445"/>
  <path stroke-linejoin="miter" stroke-dasharray="none" stroke="none" stroke-width="1px" stroke-miterlimit="4" stroke-linecap="butt" stroke-opacity="1" fill-opacity="1" fill="#ffa645" fill-rule="nonzero" d="M67.778,100.368C67.575,102.805,67.575,105.243,67.778,107.478C67.778,107.071,69.2,105.852,69.606,105.649C70.419,105.04,71.028,104.634,71.841,104.227C72.653,103.821,73.466,103.618,74.481,103.415C75.091,103.212,75.7,103.415,76.31,103.415C76.919,103.212,77.529,102.805,77.935,102.196C78.341,101.383,78.341,100.571,78.341,99.758C78.138,96.305,77.732,92.851,76.513,89.804C76.31,89.398,76.107,88.585,75.497,88.382C75.091,88.179,74.481,88.585,74.075,88.789C70.012,90.82,68.387,95.492,67.778,100.368ZM67.778,100.368"/>
  <path stroke-miterlimit="4" fill-opacity="1" stroke-linejoin="miter" fill="#ffc482" stroke-width="1px" stroke="none" stroke-dasharray="none" stroke-opacity="1" stroke-linecap="butt" fill-rule="nonzero" d="M103.734,112.15C102.718,113.166,101.296,114.181,101.093,114.384C99.468,115.4,97.843,116.416,96.015,117.025C94.999,117.432,93.374,117.432,92.561,117.838C91.546,118.447,91.139,120.479,91.546,121.494C91.749,122.51,92.358,123.323,92.561,124.135C92.764,125.151,92.561,126.167,91.546,126.776C90.936,126.979,90.327,126.979,89.717,126.979C86.873,126.573,84.232,125.76,81.591,124.745C81.388,124.745,81.185,124.541,80.982,124.541C80.576,124.541,80.17,124.745,79.763,124.948C78.138,125.557,76.107,125.557,74.481,124.948C72.45,124.135,70.825,122.51,69.2,120.885C68.59,120.072,67.778,119.26,67.981,118.244C65.95,119.26,63.715,120.276,61.684,121.494C62.902,119.057,63.512,116.213,64.324,113.572C65.34,110.118,66.559,106.868,68.387,103.821C71.231,99.149,76.31,94.477,82.404,95.086C84.029,95.289,85.451,95.695,86.873,95.898C92.764,97.117,99.062,95.289,104.546,92.648C104.75,92.648,104.953,92.445,105.156,92.445C105.359,92.445,105.562,92.648,105.562,92.851C106.781,94.68,106.578,97.321,105.765,99.352C104.953,100.977,103.937,102.196,102.718,103.415C101.296,104.634,100.077,105.852,98.655,107.071L98.452,107.274C98.452,107.478,98.655,107.478,98.858,107.478C99.671,107.681,100.281,107.681,101.093,107.681C101.296,107.681,101.703,107.681,101.906,107.681C102.109,107.681,102.312,107.884,102.515,108.087C103.531,108.9,104.547,109.712,105.359,110.525C105.156,110.931,104.547,111.54,103.734,112.15ZM103.734,112.15"/>
  <path fill-opacity="1" stroke-width="1px" stroke="none" fill-rule="nonzero" fill="#ffa645" stroke-linecap="butt" stroke-linejoin="miter" stroke-dasharray="none" stroke-opacity="1" stroke-miterlimit="4" d="M77.732,106.462C77.122,108.29,77.935,109.915,79.357,111.134C80.373,111.947,81.795,112.353,83.013,112.556C84.232,112.759,87.076,112.962,87.889,111.744C88.498,110.931,88.701,109.509,88.905,108.696C89.108,107.478,89.514,106.462,89.514,105.243C89.92,102.805,90.327,97.524,88.092,95.898C85.654,94.07,81.591,99.555,80.373,101.383C79.154,102.805,78.341,104.634,77.732,106.462ZM77.732,106.462"/>
  <path stroke-linecap="butt" stroke-linejoin="miter" stroke-miterlimit="4" stroke="none" stroke-width="1px" fill="#424242" stroke-dasharray="none" fill-opacity="1" fill-rule="nonzero" stroke-opacity="1" d="M93.374,103.821C93.78,104.024,93.983,104.024,94.186,103.821C94.389,103.618,94.389,103.618,94.389,103.415C94.592,103.009,94.796,102.399,94.592,101.79C94.592,101.18,94.186,100.774,93.78,100.368C93.577,100.165,93.374,100.165,93.171,100.165L92.967,100.165C92.764,100.165,92.764,100.368,92.764,100.571C92.764,100.774,92.764,100.774,92.764,100.977C92.764,101.18,92.764,101.18,92.764,101.383C92.764,101.587,92.764,101.993,92.764,102.196C93.17,102.805,93.17,103.415,93.374,103.821ZM93.374,103.821"/>
  <path fill-rule="nonzero" stroke="none" fill="#ffa645" stroke-dasharray="none" stroke-miterlimit="4" fill-opacity="1" stroke-linejoin="miter" stroke-opacity="1" stroke-width="1px" stroke-linecap="butt" d="M94.186,99.758C94.39,100.368,94.39,101.18,94.186,101.79C93.983,101.993,93.983,102.196,93.577,102.399C93.374,102.399,92.967,102.399,92.764,102.196C92.561,101.993,92.561,101.79,92.358,101.586C92.155,100.774,92.155,99.961,91.546,99.352C91.342,99.149,91.139,98.946,90.936,98.743C90.327,97.93,91.546,97.524,92.155,97.93C93.171,98.336,93.78,98.946,94.186,99.758ZM94.186,99.758"/>
  <path stroke-dasharray="none" stroke-linejoin="miter" stroke-linecap="butt" fill-rule="nonzero" stroke-opacity="1" stroke="none" fill="#ffc482" fill-opacity="1" stroke-miterlimit="4" stroke-width="1px" d="M81.185,134.902C79.966,136.527,79.154,138.355,78.951,140.387C78.544,144.653,80.576,149.325,83.42,152.575C86.264,155.622,89.717,154.81,92.764,152.575C95.811,150.341,98.859,147.7,101.906,145.059C104.953,142.418,108.203,140.183,111.25,138.965C114.297,137.746,117.345,137.543,119.376,139.168C120.189,139.98,121.204,140.996,122.626,140.996C123.439,140.996,124.048,140.59,124.455,139.98C125.267,139.168,125.877,138.152,126.08,137.136C126.08,133.683,121.611,132.261,118.97,131.245C117.751,130.839,116.532,130.433,115.11,130.636C113.485,130.839,111.657,131.855,109.828,133.074C106.781,134.902,103.531,136.73,100.484,138.558C99.265,139.371,96.827,140.996,95.405,140.59C93.983,140.183,93.577,137.746,92.967,136.73C92.358,135.308,91.342,134.089,90.123,133.074C89.514,132.667,88.905,132.261,88.295,132.058C86.873,131.652,85.451,131.855,84.232,132.464C83.013,133.074,81.998,133.886,81.185,134.902ZM81.185,134.902"/>
  <path stroke="none" stroke-linecap="butt" stroke-width="1px" stroke-linejoin="miter" stroke-miterlimit="4" fill-rule="nonzero" fill="#ffc482" fill-opacity="1" stroke-dasharray="none" stroke-opacity="1" d="M79.763,172.889C77.122,170.858,72.856,171.264,68.997,174.108C64.934,176.952,62.902,180.406,60.871,185.484C59.449,189.344,58.637,193.203,59.043,196.454C59.449,199.907,60.871,202.345,62.496,204.376C62.903,204.783,63.309,205.392,63.309,206.205C63.309,206.814,63.106,207.627,62.902,208.439C62.09,211.283,60.871,214.127,59.449,216.971C58.637,218.596,58.027,220.424,59.043,222.05C59.855,223.472,61.277,224.69,62.699,225.503C66.153,227.331,70.216,226.722,73.669,225.3C75.091,224.69,76.716,223.675,77.935,222.659C79.154,221.44,80.373,220.221,80.373,218.393C80.373,217.987,80.373,217.58,80.17,217.174C79.763,216.362,78.951,215.549,77.935,215.549C76.919,215.346,75.904,215.549,75.091,216.158C74.278,216.565,73.466,217.58,72.653,217.784C71.841,217.987,70.825,217.174,70.622,216.565C70.012,215.549,70.216,213.924,70.825,212.705C71.028,212.299,71.231,211.893,71.638,211.689C73.872,209.049,76.107,206.408,78.138,203.361C80.17,200.517,81.998,197.063,82.81,194.016C83.42,191.375,83.623,188.937,83.623,186.703C83.623,180.812,82.81,175.53,79.763,172.889ZM79.763,172.889"/>
  <path fill-rule="nonzero" stroke-miterlimit="4" stroke="none" stroke-width="1px" stroke-opacity="1" stroke-dasharray="none" stroke-linejoin="miter" fill="#ffc482" fill-opacity="1" stroke-linecap="butt" d="M28.978,205.798C24.306,207.424,19.227,207.627,14.555,206.002C11.304,204.986,8.257,203.158,5.21,201.532C4.398,201.126,3.585,200.72,2.772,200.72C1.96,200.72,0.944,201.126,0.538,201.939C0.335,202.345,0.335,202.954,0.335,203.361C0.944,209.049,6.835,211.893,11.507,213.315C21.868,216.565,34.056,214.534,42.385,207.627C44.62,205.798,47.057,203.361,47.464,200.314C47.87,197.876,46.651,194.422,43.807,195.641C41.776,196.454,39.947,198.485,38.322,199.907C36.494,201.532,34.463,203.158,32.228,204.376C31.416,204.783,30.197,205.392,28.978,205.798ZM28.978,205.798"/>

</svg>
