<?xml version="1.0" encoding="UTF-8"?>
<!-- Generator: CustomSymbols v2.6.7.45 by @serious_bret https://bretlester.com/app_content/CustomSymbols/ -->
<!-- Guides: Left/Right 0.0/0.0 Cap/Base 0.017/0.017 -->
<!-- Settings: RefScale 1.0 Min/Max Stroke Scales 0.5/2.21 -->
<!DOCTYPE svg
PUBLIC "-//W3C//DTD SVG 1.1//EN"
       "http://www.w3.org/Graphics/SVG/1.1/DTD/svg11.dtd">
<svg version="1.1" xmlns="http://www.w3.org/2000/svg" xmlns:xlink="http://www.w3.org/1999/xlink" width="3300" height="2200">
<![CDATA[<?xml version="1.0" standalone="no"?>
<!DOCTYPE svg PUBLIC "-//W3C//DTD SVG 20010904//EN"
 "http://www.w3.org/TR/2001/REC-SVG-20010904/DTD/svg10.dtd">
<svg version="1.0" xmlns="http://www.w3.org/2000/svg"
 width="512.000000pt" height="512.000000pt" viewBox="0 0 512.000000 512.000000"
 preserveAspectRatio="xMidYMid meet">

<g transform="translate(0.000000,512.000000) scale(0.100000,-0.100000)"
fill="#000000" stroke="none">
<path d="M2615 4361 c-16 -4 -51 -19 -76 -32 -99 -52 -2425 -1576 -2462 -1614
-47 -47 -77 -107 -77 -155 0 -48 30 -108 77 -155 40 -40 2369 -1566 2470
-1618 64 -33 162 -46 216 -28 44 15 108 84 127 138 11 30 15 148 17 561 2 287
6 522 9 522 3 0 413 -266 911 -591 498 -325 926 -600 951 -611 25 -12 74 -23
108 -26 114 -9 186 49 219 175 23 86 23 3180 0 3266 -33 126 -105 184 -219
175 -34 -3 -83 -14 -108 -26 -25 -11 -453 -286 -951 -611 -498 -325 -908 -591
-911 -591 -3 0 -7 235 -9 523 -2 409 -6 530 -17 560 -18 50 -76 116 -117 133
-34 15 -108 17 -158 5z"/>
</g>
</svg>
]]>
 <g id="Notes">
  <rect height="2200" id="artboard" style="fill:white;opacity:1" width="3300" x="0" y="0"/>
  <line id="" style="fill:none;stroke:black;opacity:1;stroke-width:0.5;" x1="263" x2="3036" y1="292" y2="292"/>
  <text id="reftext1" style="stroke:none;fill:black;font-family:-apple-system,&quot;SF Pro Display&quot;,&quot;SF Pro Text&quot;,Helvetica,sans-serif;font-weight:bold;" transform="matrix(1 0 0 1 263 322)">Weight/Scale Variations</text>
  <text id="reftext2" style="stroke:none;fill:black;font-family:-apple-system,&quot;SF Pro Display&quot;,&quot;SF Pro Text&quot;,Helvetica,sans-serif;text-anchor:middle;" transform="matrix(1 0 0 1 559.711 322)">Ultralight</text>
  <text style="stroke:none;fill:black;font-family:-apple-system,&quot;SF Pro Display&quot;,&quot;SF Pro Text&quot;,Helvetica,sans-serif;text-anchor:middle;" transform="matrix(1 0 0 1 856.422 322)">Thin</text>
  <text style="stroke:none;fill:black;font-family:-apple-system,&quot;SF Pro Display&quot;,&quot;SF Pro Text&quot;,Helvetica,sans-serif;text-anchor:middle;" transform="matrix(1 0 0 1 1153.13 322)">Light</text>
  <text style="stroke:none;fill:black;font-family:-apple-system,&quot;SF Pro Display&quot;,&quot;SF Pro Text&quot;,Helvetica,sans-serif;text-anchor:middle;" transform="matrix(1 0 0 1 1449.84 322)">Regular</text>
  <text style="stroke:none;fill:black;font-family:-apple-system,&quot;SF Pro Display&quot;,&quot;SF Pro Text&quot;,Helvetica,sans-serif;text-anchor:middle;" transform="matrix(1 0 0 1 1746.56 322)">Medium</text>
  <text style="stroke:none;fill:black;font-family:-apple-system,&quot;SF Pro Display&quot;,&quot;SF Pro Text&quot;,Helvetica,sans-serif;text-anchor:middle;" transform="matrix(1 0 0 1 2043.27 322)">Semibold</text>
  <text style="stroke:none;fill:black;font-family:-apple-system,&quot;SF Pro Display&quot;,&quot;SF Pro Text&quot;,Helvetica,sans-serif;text-anchor:middle;" transform="matrix(1 0 0 1 2339.98 322)">Bold</text>
  <text style="stroke:none;fill:black;font-family:-apple-system,&quot;SF Pro Display&quot;,&quot;SF Pro Text&quot;,Helvetica,sans-serif;text-anchor:middle;" transform="matrix(1 0 0 1 2636.69 322)">Heavy</text>
  <text style="stroke:none;fill:black;font-family:-apple-system,&quot;SF Pro Display&quot;,&quot;SF Pro Text&quot;,Helvetica,sans-serif;text-anchor:middle;" transform="matrix(1 0 0 1 2933.4 322)">Black</text>
  <line id="" style="fill:none;stroke:black;opacity:1;stroke-width:0.5;" x1="263" x2="3036" y1="1903" y2="1903"/>
  <g id="" transform="matrix(1 0 0 1 263 1933)">
   <path d="M9.24805 0.830078C13.5547 0.830078 17.1387-2.74414 17.1387-7.05078C17.1387-11.3574 13.5449-14.9316 9.23828-14.9316C4.94141-14.9316 1.36719-11.3574 1.36719-7.05078C1.36719-2.74414 4.95117 0.830078 9.24805 0.830078ZM9.24805-0.654297C5.70312-0.654297 2.87109-3.49609 2.87109-7.05078C2.87109-10.6055 5.69336-13.4473 9.23828-13.4473C12.793-13.4473 15.6348-10.6055 15.6445-7.05078C15.6543-3.49609 12.8027-0.654297 9.24805-0.654297ZM6.39648-6.31836L8.50586-6.31836L8.50586-4.19922C8.50586-3.75977 8.79883-3.45703 9.22852-3.45703C9.67773-3.45703 9.9707-3.75977 9.9707-4.19922L9.9707-6.31836L12.0996-6.31836C12.5391-6.31836 12.8418-6.61133 12.8418-7.04102C12.8418-7.48047 12.5391-7.7832 12.0996-7.7832L9.9707-7.7832L9.9707-9.89258C9.9707-10.3418 9.67773-10.6445 9.22852-10.6445C8.79883-10.6445 8.50586-10.3418 8.50586-9.89258L8.50586-7.7832L6.39648-7.7832C5.94727-7.7832 5.64453-7.48047 5.64453-7.04102C5.64453-6.61133 5.94727-6.31836 6.39648-6.31836Z"/>
  </g>
  <g id="" transform="matrix(1 0 0 1 281.506 1933)">
   <path d="M11.709 2.91016C17.1582 2.91016 21.6699-1.61133 21.6699-7.05078C21.6699-12.5 17.1484-17.0117 11.6992-17.0117C6.25977-17.0117 1.74805-12.5 1.74805-7.05078C1.74805-1.61133 6.26953 2.91016 11.709 2.91016ZM11.709 1.25C7.09961 1.25 3.41797-2.44141 3.41797-7.05078C3.41797-11.6602 7.08984-15.3516 11.6992-15.3516C16.3086-15.3516 20-11.6602 20.0098-7.05078C20.0195-2.44141 16.3184 1.25 11.709 1.25ZM7.98828-6.23047L10.8789-6.23047L10.8789-3.32031C10.8789-2.83203 11.2109-2.5 11.6895-2.5C12.1777-2.5 12.5195-2.83203 12.5195-3.32031L12.5195-6.23047L15.4297-6.23047C15.918-6.23047 16.25-6.5625 16.25-7.04102C16.25-7.5293 15.918-7.87109 15.4297-7.87109L12.5195-7.87109L12.5195-10.7617C12.5195-11.2695 12.1777-11.6016 11.6895-11.6016C11.2109-11.6016 10.8789-11.2598 10.8789-10.7617L10.8789-7.87109L7.98828-7.87109C7.48047-7.87109 7.14844-7.5293 7.14844-7.04102C7.14844-6.5625 7.49023-6.23047 7.98828-6.23047Z"/>
  </g>
  <g id="" transform="matrix(1 0 0 1 304.924 1933)">
   <path d="M14.9707 5.66406C21.9336 5.66406 27.6953-0.0976562 27.6953-7.05078C27.6953-14.0137 21.9238-19.7754 14.9609-19.7754C8.00781-19.7754 2.25586-14.0137 2.25586-7.05078C2.25586-0.0976562 8.01758 5.66406 14.9707 5.66406ZM14.9707 3.84766C8.93555 3.84766 4.08203-1.01562 4.08203-7.05078C4.08203-13.0957 8.92578-17.9492 14.9609-17.9492C21.0059-17.9492 25.8594-13.0957 25.8691-7.05078C25.8789-1.01562 21.0156 3.84766 14.9707 3.84766ZM10.0586-6.14258L14.0625-6.14258L14.0625-2.12891C14.0625-1.5918 14.4336-1.2207 14.9512-1.2207C15.4883-1.2207 15.8594-1.5918 15.8594-2.12891L15.8594-6.14258L19.8828-6.14258C20.4102-6.14258 20.791-6.51367 20.791-7.03125C20.791-7.56836 20.4199-7.94922 19.8828-7.94922L15.8594-7.94922L15.8594-11.9531C15.8594-12.5098 15.4883-12.8809 14.9512-12.8809C14.4336-12.8809 14.0625-12.5 14.0625-11.9531L14.0625-7.94922L10.0586-7.94922C9.50195-7.94922 9.13086-7.56836 9.13086-7.03125C9.13086-6.51367 9.51172-6.14258 10.0586-6.14258Z"/>
  </g>
  <text style="stroke:none;fill:black;font-family:-apple-system,&quot;SF Pro Display&quot;,&quot;SF Pro Text&quot;,Helvetica,sans-serif;font-weight:bold;" transform="matrix(1 0 0 1 263 1953)">Design Variations</text>
  <text style="stroke:none;fill:black;font-family:-apple-system,&quot;SF Pro Display&quot;,&quot;SF Pro Text&quot;,Helvetica,sans-serif;" transform="matrix(1 0 0 1 263 1971)">Symbols are supported in up to nine weights and three scales.</text>
  <text style="stroke:none;fill:black;font-family:-apple-system,&quot;SF Pro Display&quot;,&quot;SF Pro Text&quot;,Helvetica,sans-serif;" transform="matrix(1 0 0 1 263 1989)">For optimal layout with text and other symbols, vertically align</text>
  <text style="stroke:none;fill:black;font-family:-apple-system,&quot;SF Pro Display&quot;,&quot;SF Pro Text&quot;,Helvetica,sans-serif;" transform="matrix(1 0 0 1 263 2007)">symbols with the adjacent text.</text>
  <line id="" style="fill:none;stroke:#00AEEF;stroke-width:0.5;opacity:1.0;" x1="776" x2="776" y1="1919" y2="1933"/>
  <g id="" transform="matrix(1 0 0 1 776 1933)">
   <path d="M3.31055 0.126953C3.82812 0.126953 4.08203-0.0683594 4.26758-0.605469L5.52734-4.0625L11.2891-4.0625L12.5488-0.605469C12.7344-0.0683594 12.9883 0.126953 13.4961 0.126953C14.0137 0.126953 14.3457-0.185547 14.3457-0.673828C14.3457-0.839844 14.3164-0.986328 14.2383-1.20117L9.6582-13.3887C9.43359-13.9941 9.0332-14.2871 8.4082-14.2871C7.80273-14.2871 7.39258-13.9941 7.17773-13.3984L2.59766-1.19141C2.51953-0.976562 2.49023-0.830078 2.49023-0.664062C2.49023-0.175781 2.80273 0.126953 3.31055 0.126953ZM6.00586-5.53711L8.37891-12.1094L8.42773-12.1094L10.8008-5.53711Z"/>
  </g>
  <line id="" style="fill:none;stroke:#00AEEF;stroke-width:0.5;opacity:1.0;" x1="792.836" x2="792.836" y1="1919" y2="1933"/>
  <text style="stroke:none;fill:black;font-family:-apple-system,&quot;SF Pro Display&quot;,&quot;SF Pro Text&quot;,Helvetica,sans-serif;font-weight:bold;" transform="matrix(1 0 0 1 776 1953)">Margins</text>
  <text style="stroke:none;fill:black;font-family:-apple-system,&quot;SF Pro Display&quot;,&quot;SF Pro Text&quot;,Helvetica,sans-serif;" transform="matrix(1 0 0 1 776 1971)">Leading and trailing margins on the left and right side of each symbol</text>
  <text style="stroke:none;fill:black;font-family:-apple-system,&quot;SF Pro Display&quot;,&quot;SF Pro Text&quot;,Helvetica,sans-serif;" transform="matrix(1 0 0 1 776 1989)">can be adjusted by modifying the x-location of the margin guidelines.</text>
  <text style="stroke:none;fill:black;font-family:-apple-system,&quot;SF Pro Display&quot;,&quot;SF Pro Text&quot;,Helvetica,sans-serif;" transform="matrix(1 0 0 1 776 2007)">Modifications are automatically applied proportionally to all</text>
  <text style="stroke:none;fill:black;font-family:-apple-system,&quot;SF Pro Display&quot;,&quot;SF Pro Text&quot;,Helvetica,sans-serif;" transform="matrix(1 0 0 1 776 2025)">scales and weights.</text>
  <g id="" transform="matrix(1 0 0 1 1289 1933)">
   <path d="M2.8418 1.86523L4.54102 3.57422C5.40039 4.44336 6.38672 4.38477 7.31445 3.35938L17.4902-7.85156C17.7539-7.76367 18.0273-7.7832 18.3398-7.8418L19.4043-8.03711L20.0684-7.36328L20.0293-6.80664C19.9902-6.30859 20.1172-5.92773 20.6055-5.44922L21.3672-4.70703C21.8457-4.22852 22.4609-4.19922 22.9297-4.66797L25.8398-7.58789C26.3086-8.05664 26.2891-8.65234 25.8105-9.13086L25.0391-9.89258C24.5605-10.3711 24.1895-10.5273 23.7109-10.4883L23.1348-10.4395L22.4902-11.0742L22.7344-12.1973C22.8613-12.7637 22.7051-13.2031 22.1191-13.7891L19.9219-15.9766C16.582-19.2969 12.1484-19.2188 9.25781-16.3281C8.83789-15.918 8.80859-15.3418 9.04297-14.9512C9.27734-14.5898 9.73633-14.3555 10.3809-14.5215C11.8457-14.8633 13.3691-14.9219 14.7949-13.9844L14.209-12.5293C14.0137-12.0508 13.9844-11.6504 14.1113-11.2891L3.04688-0.898438C2.06055 0.0195312 1.98242 0.996094 2.8418 1.86523ZM10.752-15.957C13.1836-17.7344 16.4746-17.4316 18.7012-15.2051L21.1328-12.793C21.3672-12.5586 21.4062-12.373 21.3379-12.0312L21.0156-10.5469L22.5195-9.0625L23.5059-9.12109C23.7598-9.13086 23.8379-9.11133 24.0332-8.91602L24.6094-8.33984L22.168-5.89844L21.5918-6.47461C21.3965-6.66992 21.3672-6.74805 21.377-7.01172L21.4453-7.98828L19.9512-9.47266L18.4277-9.21875C18.1055-9.15039 17.959-9.17969 17.7148-9.41406L15.7129-11.416C15.459-11.6504 15.4297-11.8164 15.5859-12.1875L16.4648-14.2773C14.9023-15.7324 12.8711-16.3574 10.8398-15.7617C10.6836-15.7227 10.625-15.8496 10.752-15.957ZM5.27344 2.30469L4.10156 1.14258C3.63281 0.683594 3.74023 0.341797 4.14062-0.0195312L14.9512-10.1953L16.416-8.71094L6.42578 2.27539C6.07422 2.67578 5.74219 2.77344 5.27344 2.30469Z"/>
  </g>
  <text style="stroke:none;fill:black;font-family:-apple-system,&quot;SF Pro Display&quot;,&quot;SF Pro Text&quot;,Helvetica,sans-serif;font-weight:bold;" transform="matrix(1 0 0 1 1289 1953)">Exporting</text>
  <text style="stroke:none;fill:black;font-family:-apple-system,&quot;SF Pro Display&quot;,&quot;SF Pro Text&quot;,Helvetica,sans-serif;" transform="matrix(1 0 0 1 1289 1971)">Symbols should be outlined when exporting to ensure the</text>
  <text style="stroke:none;fill:black;font-family:-apple-system,&quot;SF Pro Display&quot;,&quot;SF Pro Text&quot;,Helvetica,sans-serif;" transform="matrix(1 0 0 1 1289 1989)">design is preserved when submitting to Xcode.</text>
  <text id="template-version" style="stroke:none;fill:black;font-family:-apple-system,&quot;SF Pro Display&quot;,&quot;SF Pro Text&quot;,Helvetica,sans-serif;text-anchor:end;" transform="matrix(1 0 0 1 3036 1933)">Template v.2.0</text>
  <text style="stroke:none;fill:black;font-family:-apple-system,&quot;SF Pro Display&quot;,&quot;SF Pro Text&quot;,Helvetica,sans-serif;text-anchor:end;" transform="matrix(1 0 0 1 3036 1951)">Requires Xcode 12 or greater</text>
  <text style="stroke:none;fill:black;font-family:-apple-system,&quot;SF Pro Display&quot;,&quot;SF Pro Text&quot;,Helvetica,sans-serif;" transform="matrix(1 0 0 1 263 726)">Small</text>
  <text style="stroke:none;fill:black;font-family:-apple-system,&quot;SF Pro Display&quot;,&quot;SF Pro Text&quot;,Helvetica,sans-serif;" transform="matrix(1 0 0 1 263 1156)">Medium</text>
  <text style="stroke:none;fill:black;font-family:-apple-system,&quot;SF Pro Display&quot;,&quot;SF Pro Text&quot;,Helvetica,sans-serif;" transform="matrix(1 0 0 1 263 1586)">Large</text>
 </g>
 <g id="Guides">
  <g id="H-reference" style="fill:#27AAE1;stroke:none;" transform="matrix(1 0 0 1 339 696)">
   <path d="M0.976562 0L3.66211 0L12.9883-24.4629L45.752-24.4629L55.127 0L57.7637 0L30.6152-70.459L28.125-70.459ZM29.3457-67.1387L29.4434-67.1387L44.873-26.709L13.8672-26.709Z"/>
  </g>
  <line id="Baseline-S" style="fill:none;stroke:#27AAE1;opacity:1;stroke-width:0.5;" x1="263" x2="3036" y1="696" y2="696"/>
  <line id="Capline-S" style="fill:none;stroke:#27AAE1;opacity:1;stroke-width:0.5;" x1="263" x2="3036" y1="625.541" y2="625.541"/>
  <g id="H-reference" style="fill:#27AAE1;stroke:none;" transform="matrix(1 0 0 1 339 1126)">
   <path d="M0.976562 0L3.66211 0L12.9883-24.4629L45.752-24.4629L55.127 0L57.7637 0L30.6152-70.459L28.125-70.459ZM29.3457-67.1387L29.4434-67.1387L44.873-26.709L13.8672-26.709Z"/>
  </g>
  <line id="Baseline-M" style="fill:none;stroke:#27AAE1;opacity:1;stroke-width:0.5;" x1="263" x2="3036" y1="1126" y2="1126"/>
  <line id="Capline-M" style="fill:none;stroke:#27AAE1;opacity:1;stroke-width:0.5;" x1="263" x2="3036" y1="1055.54" y2="1055.54"/>
  <g id="H-reference" style="fill:#27AAE1;stroke:none;" transform="matrix(1 0 0 1 339 1556)">
   <path d="M0.976562 0L3.66211 0L12.9883-24.4629L45.752-24.4629L55.127 0L57.7637 0L30.6152-70.459L28.125-70.459ZM29.3457-67.1387L29.4434-67.1387L44.873-26.709L13.8672-26.709Z"/>
  </g>
  <line id="Baseline-L" style="fill:none;stroke:#27AAE1;opacity:1;stroke-width:0.5;" x1="263" x2="3036" y1="1556" y2="1556"/>
  <line id="Capline-L" style="fill:none;stroke:#27AAE1;opacity:1;stroke-width:0.5;" x1="263" x2="3036" y1="1485.54" y2="1485.54"/>
  <line id="left-margin" x1="1414.660040922619" x2="1414.660040922619" y1="1030.79" y2="1150.12" style="fill:none;stroke:#00AEEF;stroke-width:0.5;opacity:1.0;"/>
  <line id="right-margin" x1="1487.5999590773808" x2="1487.5999590773808" y1="1030.79" y2="1150.12" style="fill:none;stroke:#00AEEF;stroke-width:0.5;opacity:1.0;"/>
 </g>
 <g id="Symbols">
  <g id="Black-L" transform="matrix(1.0,0.0,0.0,1.0,2887.6337527901783,1473.7237723214287)">  <path stroke-width="1px" preserveAspectRatio="xMidYMid meet" fill-opacity="1" stroke-linejoin="miter" stroke-miterlimit="4" stroke-opacity="1" stroke-linecap="butt" fill-rule="nonzero" stroke-dasharray="none" version="1.0" stroke="none" fill="#000000" d="M48.057,13.948C47.763,14.022,47.12,14.298,46.66,14.537C44.841,15.492,2.095,43.499,1.415,44.198C0.551,45.061,0,46.164,0,47.046C0,47.928,0.551,49.031,1.415,49.895C2.15,50.63,44.951,78.674,46.807,79.629C47.983,80.236,49.784,80.475,50.777,80.144C51.585,79.868,52.762,78.6,53.111,77.608C53.313,77.057,53.386,74.888,53.423,67.298C53.46,62.024,53.533,57.705,53.589,57.705C53.644,57.705,61.178,62.594,70.33,68.566C79.482,74.539,87.348,79.593,87.807,79.795C88.267,80.015,89.167,80.218,89.792,80.273C91.887,80.438,93.21,79.372,93.817,77.057C94.24,75.476,94.24,18.616,93.817,17.036C93.21,14.72,91.887,13.654,89.792,13.82C89.167,13.875,88.267,14.077,87.807,14.298C87.348,14.5,79.482,19.554,70.33,25.526C61.178,31.499,53.644,36.387,53.589,36.387C53.533,36.387,53.46,32.069,53.423,26.776C53.386,19.26,53.313,17.036,53.111,16.485C52.78,15.566,51.714,14.353,50.961,14.04C50.336,13.765,48.976,13.728,48.057,13.948ZM48.057,13.948"/>
</g>
  <g id="Heavy-L" transform="matrix(1.0,0.0,0.0,1.0,2590.9237527901782,1473.7237723214287)">  <path stroke-width="1px" version="1.0" fill="#000000" stroke-opacity="1" stroke="none" fill-rule="nonzero" stroke-linecap="butt" preserveAspectRatio="xMidYMid meet" stroke-miterlimit="4" stroke-dasharray="none" stroke-linejoin="miter" fill-opacity="1" d="M48.057,13.948C47.763,14.022,47.12,14.298,46.66,14.537C44.841,15.492,2.095,43.499,1.415,44.198C0.551,45.061,0,46.164,0,47.046C0,47.928,0.551,49.031,1.415,49.895C2.15,50.63,44.951,78.674,46.807,79.629C47.983,80.236,49.784,80.475,50.777,80.144C51.585,79.868,52.762,78.6,53.111,77.608C53.313,77.057,53.386,74.888,53.423,67.298C53.46,62.024,53.533,57.705,53.589,57.705C53.644,57.705,61.178,62.594,70.33,68.566C79.482,74.539,87.348,79.593,87.807,79.795C88.267,80.015,89.167,80.218,89.792,80.273C91.887,80.438,93.21,79.372,93.817,77.057C94.24,75.476,94.24,18.616,93.817,17.036C93.21,14.72,91.887,13.654,89.792,13.82C89.167,13.875,88.267,14.077,87.807,14.298C87.348,14.5,79.482,19.554,70.33,25.526C61.178,31.499,53.644,36.387,53.589,36.387C53.533,36.387,53.46,32.069,53.423,26.776C53.386,19.26,53.313,17.036,53.111,16.485C52.78,15.566,51.714,14.353,50.961,14.04C50.336,13.765,48.976,13.728,48.057,13.948ZM48.057,13.948"/>
</g>
  <g id="Bold-L" transform="matrix(1.0,0.0,0.0,1.0,2294.213752790178,1473.7237723214287)">  <path fill="#000000" stroke-opacity="1" stroke-linecap="butt" fill-rule="nonzero" stroke-linejoin="miter" fill-opacity="1" stroke="none" stroke-miterlimit="4" stroke-width="1px" stroke-dasharray="none" preserveAspectRatio="xMidYMid meet" version="1.0" d="M48.057,13.948C47.763,14.022,47.12,14.298,46.66,14.537C44.841,15.492,2.095,43.499,1.415,44.198C0.551,45.061,0,46.164,0,47.046C0,47.928,0.551,49.031,1.415,49.895C2.15,50.63,44.951,78.674,46.807,79.629C47.983,80.236,49.784,80.475,50.777,80.144C51.585,79.868,52.762,78.6,53.111,77.608C53.313,77.057,53.386,74.888,53.423,67.298C53.46,62.024,53.533,57.705,53.589,57.705C53.644,57.705,61.178,62.594,70.33,68.566C79.482,74.539,87.348,79.593,87.807,79.795C88.267,80.015,89.167,80.218,89.792,80.273C91.887,80.438,93.21,79.372,93.817,77.057C94.24,75.476,94.24,18.616,93.817,17.036C93.21,14.72,91.887,13.654,89.792,13.82C89.167,13.875,88.267,14.077,87.807,14.298C87.348,14.5,79.482,19.554,70.33,25.526C61.178,31.499,53.644,36.387,53.589,36.387C53.533,36.387,53.46,32.069,53.423,26.776C53.386,19.26,53.313,17.036,53.111,16.485C52.78,15.566,51.714,14.353,50.961,14.04C50.336,13.765,48.976,13.728,48.057,13.948ZM48.057,13.948"/>
</g>
  <g id="Semibold-L" transform="matrix(1.0,0.0,0.0,1.0,1997.5037527901786,1473.7237723214287)">  <path stroke-dasharray="none" fill="#000000" stroke-miterlimit="4" fill-opacity="1" version="1.0" stroke-linecap="butt" stroke-width="1px" stroke="none" fill-rule="nonzero" preserveAspectRatio="xMidYMid meet" stroke-linejoin="miter" stroke-opacity="1" d="M48.057,13.948C47.763,14.022,47.12,14.298,46.66,14.537C44.841,15.492,2.095,43.499,1.415,44.198C0.551,45.061,0,46.164,0,47.046C0,47.928,0.551,49.031,1.415,49.895C2.15,50.63,44.951,78.674,46.807,79.629C47.983,80.236,49.784,80.475,50.777,80.144C51.585,79.868,52.762,78.6,53.111,77.608C53.313,77.057,53.386,74.888,53.423,67.298C53.46,62.024,53.533,57.705,53.589,57.705C53.644,57.705,61.178,62.594,70.33,68.566C79.482,74.539,87.348,79.593,87.807,79.795C88.267,80.015,89.167,80.218,89.792,80.273C91.887,80.438,93.21,79.372,93.817,77.057C94.24,75.476,94.24,18.616,93.817,17.036C93.21,14.72,91.887,13.654,89.792,13.82C89.167,13.875,88.267,14.077,87.807,14.298C87.348,14.5,79.482,19.554,70.33,25.526C61.178,31.499,53.644,36.387,53.589,36.387C53.533,36.387,53.46,32.069,53.423,26.776C53.386,19.26,53.313,17.036,53.111,16.485C52.78,15.566,51.714,14.353,50.961,14.04C50.336,13.765,48.976,13.728,48.057,13.948ZM48.057,13.948"/>
</g>
  <g id="Medium-L" transform="matrix(1.0,0.0,0.0,1.0,1700.7937527901786,1473.7237723214287)">  <path fill-rule="nonzero" stroke-miterlimit="4" stroke-opacity="1" preserveAspectRatio="xMidYMid meet" fill="#000000" stroke-width="1px" stroke-linecap="butt" version="1.0" stroke-linejoin="miter" stroke="none" stroke-dasharray="none" fill-opacity="1" d="M48.057,13.948C47.763,14.022,47.12,14.298,46.66,14.537C44.841,15.492,2.095,43.499,1.415,44.198C0.551,45.061,0,46.164,0,47.046C0,47.928,0.551,49.031,1.415,49.895C2.15,50.63,44.951,78.674,46.807,79.629C47.983,80.236,49.784,80.475,50.777,80.144C51.585,79.868,52.762,78.6,53.111,77.608C53.313,77.057,53.386,74.888,53.423,67.298C53.46,62.024,53.533,57.705,53.589,57.705C53.644,57.705,61.178,62.594,70.33,68.566C79.482,74.539,87.348,79.593,87.807,79.795C88.267,80.015,89.167,80.218,89.792,80.273C91.887,80.438,93.21,79.372,93.817,77.057C94.24,75.476,94.24,18.616,93.817,17.036C93.21,14.72,91.887,13.654,89.792,13.82C89.167,13.875,88.267,14.077,87.807,14.298C87.348,14.5,79.482,19.554,70.33,25.526C61.178,31.499,53.644,36.387,53.589,36.387C53.533,36.387,53.46,32.069,53.423,26.776C53.386,19.26,53.313,17.036,53.111,16.485C52.78,15.566,51.714,14.353,50.961,14.04C50.336,13.765,48.976,13.728,48.057,13.948ZM48.057,13.948"/>
</g>
  <g id="Regular-L" transform="matrix(1.0,0.0,0.0,1.0,1404.0837527901786,1473.7237723214287)">  <path fill-opacity="1" stroke-opacity="1" stroke-linejoin="miter" stroke="none" preserveAspectRatio="xMidYMid meet" stroke-linecap="butt" stroke-miterlimit="4" stroke-dasharray="none" stroke-width="1px" fill-rule="nonzero" version="1.0" fill="#000000" d="M48.057,13.948C47.763,14.022,47.12,14.298,46.66,14.537C44.841,15.492,2.095,43.499,1.415,44.198C0.551,45.061,0,46.164,0,47.046C0,47.928,0.551,49.031,1.415,49.895C2.15,50.63,44.951,78.674,46.807,79.629C47.983,80.236,49.784,80.475,50.777,80.144C51.585,79.868,52.762,78.6,53.111,77.608C53.313,77.057,53.386,74.888,53.423,67.298C53.46,62.024,53.533,57.705,53.589,57.705C53.644,57.705,61.178,62.594,70.33,68.566C79.482,74.539,87.348,79.593,87.807,79.795C88.267,80.015,89.167,80.218,89.792,80.273C91.887,80.438,93.21,79.372,93.817,77.057C94.24,75.476,94.24,18.616,93.817,17.036C93.21,14.72,91.887,13.654,89.792,13.82C89.167,13.875,88.267,14.077,87.807,14.298C87.348,14.5,79.482,19.554,70.33,25.526C61.178,31.499,53.644,36.387,53.589,36.387C53.533,36.387,53.46,32.069,53.423,26.776C53.386,19.26,53.313,17.036,53.111,16.485C52.78,15.566,51.714,14.353,50.961,14.04C50.336,13.765,48.976,13.728,48.057,13.948ZM48.057,13.948"/>
</g>
  <g id="Light-L" transform="matrix(1.0,0.0,0.0,1.0,1107.3737527901787,1473.7237723214287)">  <path fill-opacity="1" fill="#000000" stroke-dasharray="none" stroke-linecap="butt" version="1.0" preserveAspectRatio="xMidYMid meet" stroke-linejoin="miter" stroke-opacity="1" stroke="none" stroke-width="1px" stroke-miterlimit="4" fill-rule="nonzero" d="M48.057,13.948C47.763,14.022,47.12,14.298,46.66,14.537C44.841,15.492,2.095,43.499,1.415,44.198C0.551,45.061,0,46.164,0,47.046C0,47.928,0.551,49.031,1.415,49.895C2.15,50.63,44.951,78.674,46.807,79.629C47.983,80.236,49.784,80.475,50.777,80.144C51.585,79.868,52.762,78.6,53.111,77.608C53.313,77.057,53.386,74.888,53.423,67.298C53.46,62.024,53.533,57.705,53.589,57.705C53.644,57.705,61.178,62.594,70.33,68.566C79.482,74.539,87.348,79.593,87.807,79.795C88.267,80.015,89.167,80.218,89.792,80.273C91.887,80.438,93.21,79.372,93.817,77.057C94.24,75.476,94.24,18.616,93.817,17.036C93.21,14.72,91.887,13.654,89.792,13.82C89.167,13.875,88.267,14.077,87.807,14.298C87.348,14.5,79.482,19.554,70.33,25.526C61.178,31.499,53.644,36.387,53.589,36.387C53.533,36.387,53.46,32.069,53.423,26.776C53.386,19.26,53.313,17.036,53.111,16.485C52.78,15.566,51.714,14.353,50.961,14.04C50.336,13.765,48.976,13.728,48.057,13.948ZM48.057,13.948"/>
</g>
  <g id="Thin-L" transform="matrix(1.0,0.0,0.0,1.0,810.6637527901786,1473.7237723214287)">  <path stroke-linecap="butt" stroke-width="1px" stroke-dasharray="none" stroke-opacity="1" preserveAspectRatio="xMidYMid meet" fill-opacity="1" version="1.0" fill-rule="nonzero" fill="#000000" stroke-miterlimit="4" stroke-linejoin="miter" stroke="none" d="M48.057,13.948C47.763,14.022,47.12,14.298,46.66,14.537C44.841,15.492,2.095,43.499,1.415,44.198C0.551,45.061,0,46.164,0,47.046C0,47.928,0.551,49.031,1.415,49.895C2.15,50.63,44.951,78.674,46.807,79.629C47.983,80.236,49.784,80.475,50.777,80.144C51.585,79.868,52.762,78.6,53.111,77.608C53.313,77.057,53.386,74.888,53.423,67.298C53.46,62.024,53.533,57.705,53.589,57.705C53.644,57.705,61.178,62.594,70.33,68.566C79.482,74.539,87.348,79.593,87.807,79.795C88.267,80.015,89.167,80.218,89.792,80.273C91.887,80.438,93.21,79.372,93.817,77.057C94.24,75.476,94.24,18.616,93.817,17.036C93.21,14.72,91.887,13.654,89.792,13.82C89.167,13.875,88.267,14.077,87.807,14.298C87.348,14.5,79.482,19.554,70.33,25.526C61.178,31.499,53.644,36.387,53.589,36.387C53.533,36.387,53.46,32.069,53.423,26.776C53.386,19.26,53.313,17.036,53.111,16.485C52.78,15.566,51.714,14.353,50.961,14.04C50.336,13.765,48.976,13.728,48.057,13.948ZM48.057,13.948"/>
</g>
  <g id="Ultralight-L" transform="matrix(1.0,0.0,0.0,1.0,513.9537527901786,1473.7237723214287)">  <path fill="#000000" fill-opacity="1" stroke-dasharray="none" stroke-width="1px" stroke="none" stroke-linecap="butt" preserveAspectRatio="xMidYMid meet" stroke-opacity="1" stroke-miterlimit="4" fill-rule="nonzero" version="1.0" stroke-linejoin="miter" d="M48.057,13.948C47.763,14.022,47.12,14.298,46.66,14.537C44.841,15.492,2.095,43.499,1.415,44.198C0.551,45.061,0,46.164,0,47.046C0,47.928,0.551,49.031,1.415,49.895C2.15,50.63,44.951,78.674,46.807,79.629C47.983,80.236,49.784,80.475,50.777,80.144C51.585,79.868,52.762,78.6,53.111,77.608C53.313,77.057,53.386,74.888,53.423,67.298C53.46,62.024,53.533,57.705,53.589,57.705C53.644,57.705,61.178,62.594,70.33,68.566C79.482,74.539,87.348,79.593,87.807,79.795C88.267,80.015,89.167,80.218,89.792,80.273C91.887,80.438,93.21,79.372,93.817,77.057C94.24,75.476,94.24,18.616,93.817,17.036C93.21,14.72,91.887,13.654,89.792,13.82C89.167,13.875,88.267,14.077,87.807,14.298C87.348,14.5,79.482,19.554,70.33,25.526C61.178,31.499,53.644,36.387,53.589,36.387C53.533,36.387,53.46,32.069,53.423,26.776C53.386,19.26,53.313,17.036,53.111,16.485C52.78,15.566,51.714,14.353,50.961,14.04C50.336,13.765,48.976,13.728,48.057,13.948ZM48.057,13.948"/>
</g>
  <g id="Black-M" transform="matrix(1.0,0.0,0.0,1.0,2898.210040922619,1054.300060453869)">  <path stroke-width="1px" preserveAspectRatio="xMidYMid meet" fill-opacity="1" stroke-linejoin="miter" stroke-miterlimit="4" stroke-opacity="1" stroke-linecap="butt" fill-rule="nonzero" stroke-dasharray="none" version="1.0" stroke="none" fill="#000000" d="M37.253,10.813C37.026,10.87,36.527,11.083,36.171,11.269C34.76,12.009,1.624,33.72,1.097,34.262C0.427,34.931,0,35.786,0,36.47C0,37.154,0.427,38.009,1.097,38.678C1.667,39.248,34.846,60.987,36.285,61.728C37.197,62.198,38.593,62.384,39.362,62.127C39.989,61.913,40.9,60.93,41.171,60.161C41.328,59.734,41.385,58.053,41.413,52.169C41.442,48.081,41.499,44.733,41.542,44.733C41.584,44.733,47.425,48.522,54.52,53.152C61.614,57.782,67.712,61.7,68.068,61.856C68.424,62.027,69.122,62.184,69.606,62.227C71.23,62.355,72.256,61.529,72.726,59.734C73.054,58.509,73.054,14.431,72.726,13.206C72.256,11.411,71.23,10.585,69.606,10.713C69.122,10.756,68.424,10.912,68.068,11.083C67.712,11.24,61.614,15.158,54.52,19.788C47.425,24.418,41.584,28.207,41.542,28.207C41.499,28.207,41.442,24.859,41.413,20.757C41.385,14.93,41.328,13.206,41.171,12.779C40.915,12.066,40.088,11.126,39.504,10.884C39.02,10.67,37.966,10.642,37.253,10.813ZM37.253,10.813"/>
</g>
  <g id="Heavy-M" transform="matrix(1.0,0.0,0.0,1.0,2601.500040922619,1054.300060453869)">  <path stroke-width="1px" version="1.0" fill="#000000" stroke-opacity="1" stroke="none" fill-rule="nonzero" stroke-linecap="butt" preserveAspectRatio="xMidYMid meet" stroke-miterlimit="4" stroke-dasharray="none" stroke-linejoin="miter" fill-opacity="1" d="M37.253,10.813C37.026,10.87,36.527,11.083,36.171,11.269C34.76,12.009,1.624,33.72,1.097,34.262C0.427,34.931,0,35.786,0,36.47C0,37.154,0.427,38.009,1.097,38.678C1.667,39.248,34.846,60.987,36.285,61.728C37.197,62.198,38.593,62.384,39.362,62.127C39.989,61.913,40.9,60.93,41.171,60.161C41.328,59.734,41.385,58.053,41.413,52.169C41.442,48.081,41.499,44.733,41.542,44.733C41.584,44.733,47.425,48.522,54.52,53.152C61.614,57.782,67.712,61.7,68.068,61.856C68.424,62.027,69.122,62.184,69.606,62.227C71.23,62.355,72.256,61.529,72.726,59.734C73.054,58.509,73.054,14.431,72.726,13.206C72.256,11.411,71.23,10.585,69.606,10.713C69.122,10.756,68.424,10.912,68.068,11.083C67.712,11.24,61.614,15.158,54.52,19.788C47.425,24.418,41.584,28.207,41.542,28.207C41.499,28.207,41.442,24.859,41.413,20.757C41.385,14.93,41.328,13.206,41.171,12.779C40.915,12.066,40.088,11.126,39.504,10.884C39.02,10.67,37.966,10.642,37.253,10.813ZM37.253,10.813"/>
</g>
  <g id="Bold-M" transform="matrix(1.0,0.0,0.0,1.0,2304.790040922619,1054.300060453869)">  <path fill="#000000" stroke-opacity="1" stroke-linecap="butt" fill-rule="nonzero" stroke-linejoin="miter" fill-opacity="1" stroke="none" stroke-miterlimit="4" stroke-width="1px" stroke-dasharray="none" preserveAspectRatio="xMidYMid meet" version="1.0" d="M37.253,10.813C37.026,10.87,36.527,11.083,36.171,11.269C34.76,12.009,1.624,33.72,1.097,34.262C0.427,34.931,0,35.786,0,36.47C0,37.154,0.427,38.009,1.097,38.678C1.667,39.248,34.846,60.987,36.285,61.728C37.197,62.198,38.593,62.384,39.362,62.127C39.989,61.913,40.9,60.93,41.171,60.161C41.328,59.734,41.385,58.053,41.413,52.169C41.442,48.081,41.499,44.733,41.542,44.733C41.584,44.733,47.425,48.522,54.52,53.152C61.614,57.782,67.712,61.7,68.068,61.856C68.424,62.027,69.122,62.184,69.606,62.227C71.23,62.355,72.256,61.529,72.726,59.734C73.054,58.509,73.054,14.431,72.726,13.206C72.256,11.411,71.23,10.585,69.606,10.713C69.122,10.756,68.424,10.912,68.068,11.083C67.712,11.24,61.614,15.158,54.52,19.788C47.425,24.418,41.584,28.207,41.542,28.207C41.499,28.207,41.442,24.859,41.413,20.757C41.385,14.93,41.328,13.206,41.171,12.779C40.915,12.066,40.088,11.126,39.504,10.884C39.02,10.67,37.966,10.642,37.253,10.813ZM37.253,10.813"/>
</g>
  <g id="Semibold-M" transform="matrix(1.0,0.0,0.0,1.0,2008.080040922619,1054.300060453869)">  <path stroke-dasharray="none" fill="#000000" stroke-miterlimit="4" fill-opacity="1" version="1.0" stroke-linecap="butt" stroke-width="1px" stroke="none" fill-rule="nonzero" preserveAspectRatio="xMidYMid meet" stroke-linejoin="miter" stroke-opacity="1" d="M37.253,10.813C37.026,10.87,36.527,11.083,36.171,11.269C34.76,12.009,1.624,33.72,1.097,34.262C0.427,34.931,0,35.786,0,36.47C0,37.154,0.427,38.009,1.097,38.678C1.667,39.248,34.846,60.987,36.285,61.728C37.197,62.198,38.593,62.384,39.362,62.127C39.989,61.913,40.9,60.93,41.171,60.161C41.328,59.734,41.385,58.053,41.413,52.169C41.442,48.081,41.499,44.733,41.542,44.733C41.584,44.733,47.425,48.522,54.52,53.152C61.614,57.782,67.712,61.7,68.068,61.856C68.424,62.027,69.122,62.184,69.606,62.227C71.23,62.355,72.256,61.529,72.726,59.734C73.054,58.509,73.054,14.431,72.726,13.206C72.256,11.411,71.23,10.585,69.606,10.713C69.122,10.756,68.424,10.912,68.068,11.083C67.712,11.24,61.614,15.158,54.52,19.788C47.425,24.418,41.584,28.207,41.542,28.207C41.499,28.207,41.442,24.859,41.413,20.757C41.385,14.93,41.328,13.206,41.171,12.779C40.915,12.066,40.088,11.126,39.504,10.884C39.02,10.67,37.966,10.642,37.253,10.813ZM37.253,10.813"/>
</g>
  <g id="Medium-M" transform="matrix(1.0,0.0,0.0,1.0,1711.370040922619,1054.300060453869)">  <path fill-rule="nonzero" stroke-miterlimit="4" stroke-opacity="1" preserveAspectRatio="xMidYMid meet" fill="#000000" stroke-width="1px" stroke-linecap="butt" version="1.0" stroke-linejoin="miter" stroke="none" stroke-dasharray="none" fill-opacity="1" d="M37.253,10.813C37.026,10.87,36.527,11.083,36.171,11.269C34.76,12.009,1.624,33.72,1.097,34.262C0.427,34.931,0,35.786,0,36.47C0,37.154,0.427,38.009,1.097,38.678C1.667,39.248,34.846,60.987,36.285,61.728C37.197,62.198,38.593,62.384,39.362,62.127C39.989,61.913,40.9,60.93,41.171,60.161C41.328,59.734,41.385,58.053,41.413,52.169C41.442,48.081,41.499,44.733,41.542,44.733C41.584,44.733,47.425,48.522,54.52,53.152C61.614,57.782,67.712,61.7,68.068,61.856C68.424,62.027,69.122,62.184,69.606,62.227C71.23,62.355,72.256,61.529,72.726,59.734C73.054,58.509,73.054,14.431,72.726,13.206C72.256,11.411,71.23,10.585,69.606,10.713C69.122,10.756,68.424,10.912,68.068,11.083C67.712,11.24,61.614,15.158,54.52,19.788C47.425,24.418,41.584,28.207,41.542,28.207C41.499,28.207,41.442,24.859,41.413,20.757C41.385,14.93,41.328,13.206,41.171,12.779C40.915,12.066,40.088,11.126,39.504,10.884C39.02,10.67,37.966,10.642,37.253,10.813ZM37.253,10.813"/>
</g>
  <g id="Regular-M" transform="matrix(1.0,0.0,0.0,1.0,1414.660040922619,1054.300060453869)">  <path fill-opacity="1" stroke-opacity="1" stroke-linejoin="miter" stroke="none" preserveAspectRatio="xMidYMid meet" stroke-linecap="butt" stroke-miterlimit="4" stroke-dasharray="none" stroke-width="1px" fill-rule="nonzero" version="1.0" fill="#000000" d="M37.253,10.813C37.026,10.87,36.527,11.083,36.171,11.269C34.76,12.009,1.624,33.72,1.097,34.262C0.427,34.931,0,35.786,0,36.47C0,37.154,0.427,38.009,1.097,38.678C1.667,39.248,34.846,60.987,36.285,61.728C37.197,62.198,38.593,62.384,39.362,62.127C39.989,61.913,40.9,60.93,41.171,60.161C41.328,59.734,41.385,58.053,41.413,52.169C41.442,48.081,41.499,44.733,41.542,44.733C41.584,44.733,47.425,48.522,54.52,53.152C61.614,57.782,67.712,61.7,68.068,61.856C68.424,62.027,69.122,62.184,69.606,62.227C71.23,62.355,72.256,61.529,72.726,59.734C73.054,58.509,73.054,14.431,72.726,13.206C72.256,11.411,71.23,10.585,69.606,10.713C69.122,10.756,68.424,10.912,68.068,11.083C67.712,11.24,61.614,15.158,54.52,19.788C47.425,24.418,41.584,28.207,41.542,28.207C41.499,28.207,41.442,24.859,41.413,20.757C41.385,14.93,41.328,13.206,41.171,12.779C40.915,12.066,40.088,11.126,39.504,10.884C39.02,10.67,37.966,10.642,37.253,10.813ZM37.253,10.813"/>
</g>
  <g id="Light-M" transform="matrix(1.0,0.0,0.0,1.0,1117.950040922619,1054.300060453869)">  <path fill-opacity="1" fill="#000000" stroke-dasharray="none" stroke-linecap="butt" version="1.0" preserveAspectRatio="xMidYMid meet" stroke-linejoin="miter" stroke-opacity="1" stroke="none" stroke-width="1px" stroke-miterlimit="4" fill-rule="nonzero" d="M37.253,10.813C37.026,10.87,36.527,11.083,36.171,11.269C34.76,12.009,1.624,33.72,1.097,34.262C0.427,34.931,0,35.786,0,36.47C0,37.154,0.427,38.009,1.097,38.678C1.667,39.248,34.846,60.987,36.285,61.728C37.197,62.198,38.593,62.384,39.362,62.127C39.989,61.913,40.9,60.93,41.171,60.161C41.328,59.734,41.385,58.053,41.413,52.169C41.442,48.081,41.499,44.733,41.542,44.733C41.584,44.733,47.425,48.522,54.52,53.152C61.614,57.782,67.712,61.7,68.068,61.856C68.424,62.027,69.122,62.184,69.606,62.227C71.23,62.355,72.256,61.529,72.726,59.734C73.054,58.509,73.054,14.431,72.726,13.206C72.256,11.411,71.23,10.585,69.606,10.713C69.122,10.756,68.424,10.912,68.068,11.083C67.712,11.24,61.614,15.158,54.52,19.788C47.425,24.418,41.584,28.207,41.542,28.207C41.499,28.207,41.442,24.859,41.413,20.757C41.385,14.93,41.328,13.206,41.171,12.779C40.915,12.066,40.088,11.126,39.504,10.884C39.02,10.67,37.966,10.642,37.253,10.813ZM37.253,10.813"/>
</g>
  <g id="Thin-M" transform="matrix(1.0,0.0,0.0,1.0,821.2400409226191,1054.300060453869)">  <path stroke-linecap="butt" stroke-width="1px" stroke-dasharray="none" stroke-opacity="1" preserveAspectRatio="xMidYMid meet" fill-opacity="1" version="1.0" fill-rule="nonzero" fill="#000000" stroke-miterlimit="4" stroke-linejoin="miter" stroke="none" d="M37.253,10.813C37.026,10.87,36.527,11.083,36.171,11.269C34.76,12.009,1.624,33.72,1.097,34.262C0.427,34.931,0,35.786,0,36.47C0,37.154,0.427,38.009,1.097,38.678C1.667,39.248,34.846,60.987,36.285,61.728C37.197,62.198,38.593,62.384,39.362,62.127C39.989,61.913,40.9,60.93,41.171,60.161C41.328,59.734,41.385,58.053,41.413,52.169C41.442,48.081,41.499,44.733,41.542,44.733C41.584,44.733,47.425,48.522,54.52,53.152C61.614,57.782,67.712,61.7,68.068,61.856C68.424,62.027,69.122,62.184,69.606,62.227C71.23,62.355,72.256,61.529,72.726,59.734C73.054,58.509,73.054,14.431,72.726,13.206C72.256,11.411,71.23,10.585,69.606,10.713C69.122,10.756,68.424,10.912,68.068,11.083C67.712,11.24,61.614,15.158,54.52,19.788C47.425,24.418,41.584,28.207,41.542,28.207C41.499,28.207,41.442,24.859,41.413,20.757C41.385,14.93,41.328,13.206,41.171,12.779C40.915,12.066,40.088,11.126,39.504,10.884C39.02,10.67,37.966,10.642,37.253,10.813ZM37.253,10.813"/>
</g>
  <g id="Ultralight-M" transform="matrix(1.0,0.0,0.0,1.0,524.530040922619,1054.300060453869)">  <path fill="#000000" fill-opacity="1" stroke-dasharray="none" stroke-width="1px" stroke="none" stroke-linecap="butt" preserveAspectRatio="xMidYMid meet" stroke-opacity="1" stroke-miterlimit="4" fill-rule="nonzero" version="1.0" stroke-linejoin="miter" d="M37.253,10.813C37.026,10.87,36.527,11.083,36.171,11.269C34.76,12.009,1.624,33.72,1.097,34.262C0.427,34.931,0,35.786,0,36.47C0,37.154,0.427,38.009,1.097,38.678C1.667,39.248,34.846,60.987,36.285,61.728C37.197,62.198,38.593,62.384,39.362,62.127C39.989,61.913,40.9,60.93,41.171,60.161C41.328,59.734,41.385,58.053,41.413,52.169C41.442,48.081,41.499,44.733,41.542,44.733C41.584,44.733,47.425,48.522,54.52,53.152C61.614,57.782,67.712,61.7,68.068,61.856C68.424,62.027,69.122,62.184,69.606,62.227C71.23,62.355,72.256,61.529,72.726,59.734C73.054,58.509,73.054,14.431,72.726,13.206C72.256,11.411,71.23,10.585,69.606,10.713C69.122,10.756,68.424,10.912,68.068,11.083C67.712,11.24,61.614,15.158,54.52,19.788C47.425,24.418,41.584,28.207,41.542,28.207C41.499,28.207,41.442,24.859,41.413,20.757C41.385,14.93,41.328,13.206,41.171,12.779C40.915,12.066,40.088,11.126,39.504,10.884C39.02,10.67,37.966,10.642,37.253,10.813ZM37.253,10.813"/>
</g>
  <g id="Black-S" transform="matrix(1.0,0.0,0.0,1.0,2906.1240220424106,632.2140415736607)">  <path stroke-width="1px" preserveAspectRatio="xMidYMid meet" fill-opacity="1" stroke-linejoin="miter" stroke-miterlimit="4" stroke-opacity="1" stroke-linecap="butt" fill-rule="nonzero" stroke-dasharray="none" version="1.0" stroke="none" fill="#000000" d="M29.169,8.466C28.991,8.511,28.601,8.678,28.322,8.823C27.217,9.403,1.272,26.403,0.859,26.827C0.335,27.351,0,28.021,0,28.556C0,29.091,0.335,29.761,0.859,30.285C1.305,30.731,27.284,47.753,28.411,48.333C29.125,48.701,30.218,48.846,30.82,48.646C31.311,48.478,32.025,47.709,32.237,47.106C32.36,46.772,32.404,45.455,32.427,40.848C32.449,37.647,32.494,35.026,32.527,35.026C32.561,35.026,37.134,37.993,42.689,41.618C48.244,45.243,53.018,48.311,53.297,48.434C53.576,48.567,54.123,48.69,54.502,48.724C55.773,48.824,56.577,48.177,56.945,46.772C57.201,45.812,57.201,11.3,56.945,10.34C56.577,8.935,55.773,8.288,54.502,8.388C54.123,8.422,53.576,8.544,53.297,8.678C53.018,8.801,48.244,11.869,42.689,15.494C37.134,19.119,32.561,22.086,32.527,22.086C32.494,22.086,32.449,19.465,32.427,16.252C32.404,11.69,32.36,10.34,32.237,10.006C32.036,9.448,31.389,8.712,30.932,8.522C30.553,8.355,29.727,8.333,29.169,8.466ZM29.169,8.466"/>
</g>
  <g id="Heavy-S" transform="matrix(1.0,0.0,0.0,1.0,2609.4140220424106,632.2140415736607)">  <path stroke-width="1px" version="1.0" fill="#000000" stroke-opacity="1" stroke="none" fill-rule="nonzero" stroke-linecap="butt" preserveAspectRatio="xMidYMid meet" stroke-miterlimit="4" stroke-dasharray="none" stroke-linejoin="miter" fill-opacity="1" d="M29.169,8.466C28.991,8.511,28.601,8.678,28.322,8.823C27.217,9.403,1.272,26.403,0.859,26.827C0.335,27.351,0,28.021,0,28.556C0,29.091,0.335,29.761,0.859,30.285C1.305,30.731,27.284,47.753,28.411,48.333C29.125,48.701,30.218,48.846,30.82,48.646C31.311,48.478,32.025,47.709,32.237,47.106C32.36,46.772,32.404,45.455,32.427,40.848C32.449,37.647,32.494,35.026,32.527,35.026C32.561,35.026,37.134,37.993,42.689,41.618C48.244,45.243,53.018,48.311,53.297,48.434C53.576,48.567,54.123,48.69,54.502,48.724C55.773,48.824,56.577,48.177,56.945,46.772C57.201,45.812,57.201,11.3,56.945,10.34C56.577,8.935,55.773,8.288,54.502,8.388C54.123,8.422,53.576,8.544,53.297,8.678C53.018,8.801,48.244,11.869,42.689,15.494C37.134,19.119,32.561,22.086,32.527,22.086C32.494,22.086,32.449,19.465,32.427,16.252C32.404,11.69,32.36,10.34,32.237,10.006C32.036,9.448,31.389,8.712,30.932,8.522C30.553,8.355,29.727,8.333,29.169,8.466ZM29.169,8.466"/>
</g>
  <g id="Bold-S" transform="matrix(1.0,0.0,0.0,1.0,2312.7040220424105,632.2140415736607)">  <path fill="#000000" stroke-opacity="1" stroke-linecap="butt" fill-rule="nonzero" stroke-linejoin="miter" fill-opacity="1" stroke="none" stroke-miterlimit="4" stroke-width="1px" stroke-dasharray="none" preserveAspectRatio="xMidYMid meet" version="1.0" d="M29.169,8.466C28.991,8.511,28.601,8.678,28.322,8.823C27.217,9.403,1.272,26.403,0.859,26.827C0.335,27.351,0,28.021,0,28.556C0,29.091,0.335,29.761,0.859,30.285C1.305,30.731,27.284,47.753,28.411,48.333C29.125,48.701,30.218,48.846,30.82,48.646C31.311,48.478,32.025,47.709,32.237,47.106C32.36,46.772,32.404,45.455,32.427,40.848C32.449,37.647,32.494,35.026,32.527,35.026C32.561,35.026,37.134,37.993,42.689,41.618C48.244,45.243,53.018,48.311,53.297,48.434C53.576,48.567,54.123,48.69,54.502,48.724C55.773,48.824,56.577,48.177,56.945,46.772C57.201,45.812,57.201,11.3,56.945,10.34C56.577,8.935,55.773,8.288,54.502,8.388C54.123,8.422,53.576,8.544,53.297,8.678C53.018,8.801,48.244,11.869,42.689,15.494C37.134,19.119,32.561,22.086,32.527,22.086C32.494,22.086,32.449,19.465,32.427,16.252C32.404,11.69,32.36,10.34,32.237,10.006C32.036,9.448,31.389,8.712,30.932,8.522C30.553,8.355,29.727,8.333,29.169,8.466ZM29.169,8.466"/>
</g>
  <g id="Semibold-S" transform="matrix(1.0,0.0,0.0,1.0,2015.9940220424107,632.2140415736607)">  <path stroke-dasharray="none" fill="#000000" stroke-miterlimit="4" fill-opacity="1" version="1.0" stroke-linecap="butt" stroke-width="1px" stroke="none" fill-rule="nonzero" preserveAspectRatio="xMidYMid meet" stroke-linejoin="miter" stroke-opacity="1" d="M29.169,8.466C28.991,8.511,28.601,8.678,28.322,8.823C27.217,9.403,1.272,26.403,0.859,26.827C0.335,27.351,0,28.021,0,28.556C0,29.091,0.335,29.761,0.859,30.285C1.305,30.731,27.284,47.753,28.411,48.333C29.125,48.701,30.218,48.846,30.82,48.646C31.311,48.478,32.025,47.709,32.237,47.106C32.36,46.772,32.404,45.455,32.427,40.848C32.449,37.647,32.494,35.026,32.527,35.026C32.561,35.026,37.134,37.993,42.689,41.618C48.244,45.243,53.018,48.311,53.297,48.434C53.576,48.567,54.123,48.69,54.502,48.724C55.773,48.824,56.577,48.177,56.945,46.772C57.201,45.812,57.201,11.3,56.945,10.34C56.577,8.935,55.773,8.288,54.502,8.388C54.123,8.422,53.576,8.544,53.297,8.678C53.018,8.801,48.244,11.869,42.689,15.494C37.134,19.119,32.561,22.086,32.527,22.086C32.494,22.086,32.449,19.465,32.427,16.252C32.404,11.69,32.36,10.34,32.237,10.006C32.036,9.448,31.389,8.712,30.932,8.522C30.553,8.355,29.727,8.333,29.169,8.466ZM29.169,8.466"/>
</g>
  <g id="Medium-S" transform="matrix(1.0,0.0,0.0,1.0,1719.2840220424107,632.2140415736607)">  <path fill-rule="nonzero" stroke-miterlimit="4" stroke-opacity="1" preserveAspectRatio="xMidYMid meet" fill="#000000" stroke-width="1px" stroke-linecap="butt" version="1.0" stroke-linejoin="miter" stroke="none" stroke-dasharray="none" fill-opacity="1" d="M29.169,8.466C28.991,8.511,28.601,8.678,28.322,8.823C27.217,9.403,1.272,26.403,0.859,26.827C0.335,27.351,0,28.021,0,28.556C0,29.091,0.335,29.761,0.859,30.285C1.305,30.731,27.284,47.753,28.411,48.333C29.125,48.701,30.218,48.846,30.82,48.646C31.311,48.478,32.025,47.709,32.237,47.106C32.36,46.772,32.404,45.455,32.427,40.848C32.449,37.647,32.494,35.026,32.527,35.026C32.561,35.026,37.134,37.993,42.689,41.618C48.244,45.243,53.018,48.311,53.297,48.434C53.576,48.567,54.123,48.69,54.502,48.724C55.773,48.824,56.577,48.177,56.945,46.772C57.201,45.812,57.201,11.3,56.945,10.34C56.577,8.935,55.773,8.288,54.502,8.388C54.123,8.422,53.576,8.544,53.297,8.678C53.018,8.801,48.244,11.869,42.689,15.494C37.134,19.119,32.561,22.086,32.527,22.086C32.494,22.086,32.449,19.465,32.427,16.252C32.404,11.69,32.36,10.34,32.237,10.006C32.036,9.448,31.389,8.712,30.932,8.522C30.553,8.355,29.727,8.333,29.169,8.466ZM29.169,8.466"/>
</g>
  <g id="Regular-S" transform="matrix(1.0,0.0,0.0,1.0,1422.5740220424107,632.2140415736607)">  <path fill-opacity="1" stroke-opacity="1" stroke-linejoin="miter" stroke="none" preserveAspectRatio="xMidYMid meet" stroke-linecap="butt" stroke-miterlimit="4" stroke-dasharray="none" stroke-width="1px" fill-rule="nonzero" version="1.0" fill="#000000" d="M29.169,8.466C28.991,8.511,28.601,8.678,28.322,8.823C27.217,9.403,1.272,26.403,0.859,26.827C0.335,27.351,0,28.021,0,28.556C0,29.091,0.335,29.761,0.859,30.285C1.305,30.731,27.284,47.753,28.411,48.333C29.125,48.701,30.218,48.846,30.82,48.646C31.311,48.478,32.025,47.709,32.237,47.106C32.36,46.772,32.404,45.455,32.427,40.848C32.449,37.647,32.494,35.026,32.527,35.026C32.561,35.026,37.134,37.993,42.689,41.618C48.244,45.243,53.018,48.311,53.297,48.434C53.576,48.567,54.123,48.69,54.502,48.724C55.773,48.824,56.577,48.177,56.945,46.772C57.201,45.812,57.201,11.3,56.945,10.34C56.577,8.935,55.773,8.288,54.502,8.388C54.123,8.422,53.576,8.544,53.297,8.678C53.018,8.801,48.244,11.869,42.689,15.494C37.134,19.119,32.561,22.086,32.527,22.086C32.494,22.086,32.449,19.465,32.427,16.252C32.404,11.69,32.36,10.34,32.237,10.006C32.036,9.448,31.389,8.712,30.932,8.522C30.553,8.355,29.727,8.333,29.169,8.466ZM29.169,8.466"/>
</g>
  <g id="Light-S" transform="matrix(1.0,0.0,0.0,1.0,1125.8640220424109,632.2140415736607)">  <path fill-opacity="1" fill="#000000" stroke-dasharray="none" stroke-linecap="butt" version="1.0" preserveAspectRatio="xMidYMid meet" stroke-linejoin="miter" stroke-opacity="1" stroke="none" stroke-width="1px" stroke-miterlimit="4" fill-rule="nonzero" d="M29.169,8.466C28.991,8.511,28.601,8.678,28.322,8.823C27.217,9.403,1.272,26.403,0.859,26.827C0.335,27.351,0,28.021,0,28.556C0,29.091,0.335,29.761,0.859,30.285C1.305,30.731,27.284,47.753,28.411,48.333C29.125,48.701,30.218,48.846,30.82,48.646C31.311,48.478,32.025,47.709,32.237,47.106C32.36,46.772,32.404,45.455,32.427,40.848C32.449,37.647,32.494,35.026,32.527,35.026C32.561,35.026,37.134,37.993,42.689,41.618C48.244,45.243,53.018,48.311,53.297,48.434C53.576,48.567,54.123,48.69,54.502,48.724C55.773,48.824,56.577,48.177,56.945,46.772C57.201,45.812,57.201,11.3,56.945,10.34C56.577,8.935,55.773,8.288,54.502,8.388C54.123,8.422,53.576,8.544,53.297,8.678C53.018,8.801,48.244,11.869,42.689,15.494C37.134,19.119,32.561,22.086,32.527,22.086C32.494,22.086,32.449,19.465,32.427,16.252C32.404,11.69,32.36,10.34,32.237,10.006C32.036,9.448,31.389,8.712,30.932,8.522C30.553,8.355,29.727,8.333,29.169,8.466ZM29.169,8.466"/>
</g>
  <g id="Thin-S" transform="matrix(1.0,0.0,0.0,1.0,829.1540220424107,632.2140415736607)">  <path stroke-linecap="butt" stroke-width="1px" stroke-dasharray="none" stroke-opacity="1" preserveAspectRatio="xMidYMid meet" fill-opacity="1" version="1.0" fill-rule="nonzero" fill="#000000" stroke-miterlimit="4" stroke-linejoin="miter" stroke="none" d="M29.169,8.466C28.991,8.511,28.601,8.678,28.322,8.823C27.217,9.403,1.272,26.403,0.859,26.827C0.335,27.351,0,28.021,0,28.556C0,29.091,0.335,29.761,0.859,30.285C1.305,30.731,27.284,47.753,28.411,48.333C29.125,48.701,30.218,48.846,30.82,48.646C31.311,48.478,32.025,47.709,32.237,47.106C32.36,46.772,32.404,45.455,32.427,40.848C32.449,37.647,32.494,35.026,32.527,35.026C32.561,35.026,37.134,37.993,42.689,41.618C48.244,45.243,53.018,48.311,53.297,48.434C53.576,48.567,54.123,48.69,54.502,48.724C55.773,48.824,56.577,48.177,56.945,46.772C57.201,45.812,57.201,11.3,56.945,10.34C56.577,8.935,55.773,8.288,54.502,8.388C54.123,8.422,53.576,8.544,53.297,8.678C53.018,8.801,48.244,11.869,42.689,15.494C37.134,19.119,32.561,22.086,32.527,22.086C32.494,22.086,32.449,19.465,32.427,16.252C32.404,11.69,32.36,10.34,32.237,10.006C32.036,9.448,31.389,8.712,30.932,8.522C30.553,8.355,29.727,8.333,29.169,8.466ZM29.169,8.466"/>
</g>
  <g id="Ultralight-S" transform="matrix(1.0,0.0,0.0,1.0,532.4440220424107,632.2140415736607)">  <path fill="#000000" fill-opacity="1" stroke-dasharray="none" stroke-width="1px" stroke="none" stroke-linecap="butt" preserveAspectRatio="xMidYMid meet" stroke-opacity="1" stroke-miterlimit="4" fill-rule="nonzero" version="1.0" stroke-linejoin="miter" d="M29.169,8.466C28.991,8.511,28.601,8.678,28.322,8.823C27.217,9.403,1.272,26.403,0.859,26.827C0.335,27.351,0,28.021,0,28.556C0,29.091,0.335,29.761,0.859,30.285C1.305,30.731,27.284,47.753,28.411,48.333C29.125,48.701,30.218,48.846,30.82,48.646C31.311,48.478,32.025,47.709,32.237,47.106C32.36,46.772,32.404,45.455,32.427,40.848C32.449,37.647,32.494,35.026,32.527,35.026C32.561,35.026,37.134,37.993,42.689,41.618C48.244,45.243,53.018,48.311,53.297,48.434C53.576,48.567,54.123,48.69,54.502,48.724C55.773,48.824,56.577,48.177,56.945,46.772C57.201,45.812,57.201,11.3,56.945,10.34C56.577,8.935,55.773,8.288,54.502,8.388C54.123,8.422,53.576,8.544,53.297,8.678C53.018,8.801,48.244,11.869,42.689,15.494C37.134,19.119,32.561,22.086,32.527,22.086C32.494,22.086,32.449,19.465,32.427,16.252C32.404,11.69,32.36,10.34,32.237,10.006C32.036,9.448,31.389,8.712,30.932,8.522C30.553,8.355,29.727,8.333,29.169,8.466ZM29.169,8.466"/>
</g>
 </g>
</svg>
