<svg id="Layer_1" height="512" viewBox="0 0 512 512" width="512" xmlns="http://www.w3.org/2000/svg"><g><g><g><path d="m432 336h-80v32c0 8.836 7.164 16 16 16h48v24h-12c-11.046 0-20 8.954-20 20 0 11.046 8.954 20 20 20h28c17.673 0 32-14.327 32-32v-48c0-17.673-14.327-32-32-32z" fill="#f0915a"/></g><g><path d="m80 176.452c0-8.231-6.028-15.467-14.212-16.355-9.637-1.045-17.788 6.477-17.788 15.903v16c0 35.346 28.654 64 64 64h80v-64h-96.452c-8.587 0-15.548-6.961-15.548-15.548z" fill="#f0915a"/></g><g><path d="m144 352v-32h96v16c0 35.346-28.654 64-64 64h-16v64c8.837 0 16 7.163 16 16 0 8.837-7.163 16-16 16h-32c-8.837 0-16-7.163-16-16v-96c0-17.673 14.327-32 32-32z" fill="#f0915a"/></g><g><path d="m488 96h-32v-16c0-13.255-10.745-24-24-24h-48c-8.837 0-16 7.163-16 16v24h-56v72c0 13.255-10.745 24-24 24h-128c-44.183 0-80 35.817-80 80v80c-17.673 0-32 14.327-32 32v96c0 8.837 7.163 16 16 16h31.548c8.615 0 16.028-6.621 16.434-15.226.433-9.188-6.889-16.774-15.982-16.774v-64h16c35.346 0 64-28.654 64-64h64l10.912 10.912c13.502 13.502 31.816 21.088 50.911 21.088h2.177v112c0 8.837 7.163 16 16 16h31.548c8.615 0 16.028-6.621 16.434-15.226.433-9.188-6.889-16.774-15.982-16.774v-96c44.183 0 80-35.817 80-80v-120h16c26.51 0 48-21.49 48-48v-16c0-4.418-3.582-8-8-8z" fill="#fab991"/><path d="m488 96h-8c-4.418 0-8 3.582-8 8v16c0 13.255-10.745 24-24 24h-48c-13.255 0-24 10.745-24 24v24h56v-24h16c26.51 0 48-21.49 48-48v-16c0-4.418-3.582-8-8-8z" fill="#f0915a"/><g><path d="m424 96h32v-16c0-13.255-10.745-24-24-24h-24v24c0 8.837 7.163 16 16 16z" fill="#f0915a"/></g><g><path d="m328 160c-22.092 0-40-17.909-40-40 0-35.346 28.654-64 64-64h32c-8.837 0-16 7.163-16 16v48c0 22.091-17.909 40-40 40z" fill="#463c4b"/></g><g><circle cx="392" cy="80" fill="#463c4b" r="8"/></g><g><circle cx="432" cy="80" fill="#463c4b" r="8"/></g><g><path d="m484 120c6.627 0 12-5.373 12-12v-4c0-4.418-3.582-8-8-8h-8c-4.418 0-8 3.582-8 8v4c0 6.627 5.373 12 12 12z" fill="#463c4b"/></g></g></g><g><g><path d="m208 16h80v352h-80z" fill="#4182c3"/></g><g><path d="m208 16h40v352h-40z" fill="#64afe1"/></g><g><path d="m216 408h64v24h-64z" fill="#a5c3dc"/></g><g><path d="m216 416h32v16h-32z" fill="#d7e6f0"/></g><g><path d="m288 368h-80c-4.418 0-8 3.582-8 8v24c0 4.418 3.582 8 8 8h80c4.418 0 8-3.582 8-8v-24c0-4.418-3.582-8-8-8z" fill="#64afe1"/></g><g><path d="m248 368h-40c-4.418 0-8 3.582-8 8v24c0 4.418 3.582 8 8 8h40c4.418 0 8-3.582 8-8v-24c0-4.418-3.582-8-8-8z" fill="#78d2f0"/></g><g><path d="m304 448c-8.836 0-16-7.164-16-16v-8c0-4.418-3.582-8-8-8s-8 3.582-8 8v8h-56c-4.418 0-8 3.582-8 8v48c0 4.418 3.582 8 8 8h112c4.418 0 8-3.582 8-8v-8c0-17.673-14.327-32-32-32z" fill="#e1322d"/></g></g><g><g><path d="m80 16h80v352h-80z" fill="#4182c3"/></g><g><path d="m80 16h40v352h-40z" fill="#64afe1"/></g><g><path d="m88 408h64v24h-64z" fill="#a5c3dc"/></g><g><path d="m88 416h32v16h-32z" fill="#d7e6f0"/></g><g><path d="m160 368h-80c-4.418 0-8 3.582-8 8v24c0 4.418 3.582 8 8 8h80c4.418 0 8-3.582 8-8v-24c0-4.418-3.582-8-8-8z" fill="#64afe1"/></g><g><path d="m120 368h-40c-4.418 0-8 3.582-8 8v24c0 4.418 3.582 8 8 8h40c4.418 0 8-3.582 8-8v-24c0-4.418-3.582-8-8-8z" fill="#78d2f0"/></g><g><path d="m176 448c-8.836 0-16-7.164-16-16v-8c0-4.418-3.582-8-8-8s-8 3.582-8 8v8h-56c-4.418 0-8 3.582-8 8v48c0 4.418 3.582 8 8 8h112c4.418 0 8-3.582 8-8v-8c0-17.673-14.327-32-32-32z" fill="#f04b37"/></g></g></g></svg>