<svg width="190" height="213" viewBox="0 0 190 213" fill="none" xmlns="http://www.w3.org/2000/svg">
<path d="M31.3819 207.187L27.7254 205.155C14.9274 197.639 16.5525 184.841 31.3819 176.106L126.859 122.07C141.688 113.538 164.237 112.523 177.035 120.039L180.691 122.07C193.489 129.587 191.864 142.385 177.035 151.12L81.558 205.155C66.7286 213.687 44.383 214.703 31.3819 207.187Z" fill="#F2E8DF"/>
<path d="M116.702 206.171L34.226 158.433C30.5694 156.401 31.1789 152.745 35.2417 150.307C39.3046 147.869 45.6019 147.666 49.2585 149.698L131.734 197.436C135.391 199.467 134.781 203.124 130.718 205.562C126.452 207.999 120.358 208.406 116.702 206.171Z" fill="#F2E8DF"/>
<path d="M16.9589 11.1548C15.3338 12.3737 13.9118 13.5925 11.8804 16.0302C11.8804 16.0302 9.84894 18.2648 8.42695 20.2962C6.80181 22.7339 6.39551 23.5465 5.17666 26.1873C4.97352 26.5936 2.73899 31.0627 1.52013 37.5633C1.11385 40.001 0.707566 43.4544 0.504424 46.0952C0.301282 47.5172 0.30127 49.3455 0.30127 50.7675C0.30127 51.5801 0.301257 55.8461 1.11382 61.9403C1.72325 67.222 2.73896 71.2848 3.14524 73.1131C3.55153 75.1445 4.7704 79.2074 6.59868 84.2859C8.42696 89.3645 10.0521 93.2242 11.0678 95.2556C12.4898 98.5059 16.5526 106.835 23.0532 115.976C29.5537 125.117 35.0386 130.805 38.2888 133.853C39.3045 134.665 42.7579 138.119 47.0239 141.166C51.2899 144.416 54.337 146.244 56.1653 147.26C57.9936 148.479 60.8375 149.901 62.869 150.713C64.0878 151.12 65.5098 151.932 66.7287 152.338C68.557 152.948 71.1978 153.76 73.0261 154.167C75.4638 154.776 79.3234 155.182 80.7454 155.182C85.0114 155.386 87.4491 154.979 89.2774 154.776C91.9183 154.37 94.5591 153.76 96.3874 152.948C98.0125 152.338 98.4189 152.135 100.653 151.12C101.466 150.713 102.278 150.307 103.091 149.901L104.919 148.885C106.544 147.869 111.826 145.025 116.498 138.728C119.546 134.665 121.983 129.79 123.608 124.508C124.218 122.477 124.827 119.429 125.234 117.398C125.64 115.57 125.843 112.929 125.843 111.101C126.046 108.46 126.046 106.835 125.843 100.537C125.843 100.537 125.64 95.865 124.421 89.5676C123.405 84.4891 122.39 80.8325 121.78 78.3948C118.733 68.4408 114.264 59.2995 112.842 56.4555C112.029 54.8304 110.81 52.7989 109.998 51.1738C109.185 49.5487 107.763 47.5172 106.951 46.0952C105.935 44.4701 104.716 42.6418 103.701 41.2198C103.701 41.2198 100.653 36.7507 96.3874 31.8753C93.1371 28.0156 90.09 24.9685 88.2617 23.1402C83.1832 18.2648 79.3235 15.6239 79.3235 15.4208C78.1047 14.6082 76.2763 13.1862 75.0575 12.3737C73.4323 11.358 71.1978 9.93599 69.5726 9.12342C63.8846 6.07629 62.0564 5.46687 57.7904 4.04487C55.759 3.23231 51.6962 2.41972 49.2585 2.21658C44.3831 1.60715 41.336 1.81031 40.1171 2.01345C36.0543 2.41974 33.0071 3.2323 32.1946 3.43544C30.9757 3.84172 29.3506 4.45114 28.1317 4.85743C26.5066 5.46685 26.5066 5.67 23.8657 6.88885L22.0375 7.90456C19.8029 9.12341 17.9746 10.3423 16.9589 11.1548ZM55.1496 21.3119C84.8083 38.3759 108.779 80.0199 108.779 114.148C108.779 148.479 84.8083 162.496 55.1496 145.635C25.4909 128.571 1.52013 86.9268 1.52013 52.7989C1.52013 18.2648 25.4909 4.24801 55.1496 21.3119Z" fill="#4BA677"/>
<path d="M1.52002 52.5957C1.52002 86.9267 25.4908 128.571 55.1495 145.432C84.8082 162.495 108.779 148.276 108.779 113.945C108.779 79.6136 84.8082 37.9695 55.1495 21.1087C25.4908 4.24793 1.52002 18.2647 1.52002 52.5957ZM55.1495 33.7035C78.9171 47.314 98.0124 80.6293 98.0124 108.053C98.0124 118.82 94.9652 127.149 89.8867 132.43C90.4961 131.821 91.1056 131.212 91.715 130.399C85.2145 131.212 77.6982 129.587 69.5725 124.914C45.8049 111.304 26.5065 77.9884 26.7096 50.5643C26.7096 41.0166 29.1473 33.5004 33.007 28.2187C27.7253 29.0312 23.2562 31.2658 19.5996 35.3286C27.1159 26.3904 40.3201 25.1715 55.1495 33.7035ZM88.0585 134.056C88.6679 133.649 89.2773 133.04 89.6836 132.634C89.0742 133.243 88.4648 133.649 88.0585 134.056Z" fill="#338259"/>
<path d="M32.8041 28.0156C28.7412 33.2973 26.5067 40.8136 26.5067 50.3612C26.5067 77.7854 45.8051 111.101 69.3696 124.711C77.4953 129.383 85.0116 131.009 91.5121 130.196C89.0744 133.446 86.0272 135.681 82.5738 137.103C80.7456 137.915 78.9173 138.322 77.089 138.525C75.4638 138.728 73.6356 138.728 71.8073 138.525C70.5885 138.322 69.1664 138.119 67.9476 137.915C67.3382 137.712 66.5256 137.712 65.9162 137.509C65.3067 137.306 64.4942 137.103 63.8848 136.9C62.4628 136.493 61.0408 135.884 59.6188 135.275C58.1968 134.665 56.7748 133.853 55.3528 133.04C31.5852 119.429 12.2867 86.1142 12.4899 58.69C12.4899 56.0492 12.693 53.6115 12.8962 51.3769C13.0993 49.7518 13.5056 48.3298 13.7087 47.111C14.9276 42.2355 16.959 38.3759 19.803 35.1256C23.0533 31.0628 27.5224 28.8282 32.8041 28.0156Z" fill="#00DB4E"/>
<path d="M32.8041 28.0156C28.7412 33.2973 26.5067 40.8136 26.5067 50.3612C26.5067 77.7854 45.8051 111.101 69.3696 124.711C77.4953 129.383 85.0116 131.009 91.5121 130.196C89.0744 133.446 86.0272 135.681 82.5738 137.103C80.7456 137.915 78.9173 138.322 77.089 138.525C75.4638 138.728 73.6356 138.728 71.8073 138.525C70.5885 138.322 69.1664 138.119 67.9476 137.915C67.3382 137.712 66.5256 137.712 65.9162 137.509C65.3067 137.306 64.4942 137.103 63.8848 136.9C62.4628 136.493 61.0408 135.884 59.6188 135.275C58.1968 134.665 56.7748 133.853 55.3528 133.04C31.5852 119.429 12.2867 86.1142 12.4899 58.69C12.4899 56.0492 12.693 53.6115 12.8962 51.3769C13.0993 49.955 13.5056 48.3298 13.7087 47.111C14.9276 42.2355 16.959 38.3759 19.803 35.1256C23.0533 31.0628 27.5224 28.8282 32.8041 28.0156Z" fill="#4BA677"/>
<path d="M132.343 0.794624C132.953 0.997766 133.765 1.6072 134.172 2.41977C136 5.67004 136 10.3423 134.781 13.9988C133.969 16.8428 131.937 21.1088 128.484 21.312C127.671 21.312 126.859 21.1088 126.046 20.7025C122.593 19.2805 119.749 16.6397 117.717 13.5926C117.311 12.9831 116.905 12.1706 117.108 11.358C117.108 10.7486 117.717 10.1392 118.123 9.73289C121.374 6.07633 125.233 3.0292 129.703 0.997778C130.515 0.388353 131.531 0.38834 132.343 0.794624Z" fill="#424242"/>
<path d="M66.9318 87.7393C65.5099 93.2241 63.6816 98.5058 61.447 103.787C60.2281 106.835 59.0094 109.679 57.5874 112.523C57.3842 113.132 56.9779 113.538 56.5717 113.945C56.1654 114.554 55.3528 114.96 54.7433 115.163C52.1025 116.585 36.8669 123.086 33.0072 124.914C32.804 125.117 32.3977 125.117 32.3977 125.321C31.5852 125.727 30.7726 126.946 31.382 127.961C31.5852 128.165 31.7883 128.368 32.1946 128.571C33.2103 129.383 33.8198 130.602 34.0229 131.821C34.226 133.04 34.0229 134.462 33.6166 135.681C33.2103 137.712 32.1946 139.947 31.1789 141.775C30.1632 143.603 28.7412 145.025 26.9129 146.447C26.9129 146.244 26.7098 146.041 26.5066 145.838C26.3035 146.447 25.8972 147.057 25.4909 147.666C25.2878 147.869 25.0847 148.072 24.8815 148.276C24.4752 148.479 23.8658 148.072 23.6626 147.666C23.2564 147.26 23.0532 146.65 22.8501 146.244C22.8501 146.447 22.8501 146.65 22.8501 146.854C20.4124 145.635 19.8029 142.384 19.5998 139.947C19.3967 137.509 19.5998 135.071 19.5998 132.43C19.8029 129.383 19.803 126.336 20.8187 123.695C22.6469 119.023 26.9129 115.976 30.7726 112.929C31.1789 112.726 31.382 112.523 31.7883 112.319C33.4135 111.101 35.0386 110.085 36.6637 108.866C37.8826 108.053 39.914 106.631 40.5234 105.209C40.7265 104.803 40.7266 104.397 40.7266 103.991C40.9297 101.959 41.7423 99.9278 42.3517 97.8964C44.9926 89.5675 47.6333 81.2387 52.3056 73.9256C53.1182 72.5036 54.1339 71.2848 55.3527 70.2691C56.5716 69.2533 58.3999 68.8471 59.8219 69.2533C61.8533 69.6596 63.2753 71.6911 64.4941 73.7225C67.5412 77.9885 68.3538 82.4576 66.9318 87.7393Z" fill="#424242"/>
<path d="M39.914 112.319C39.914 113.335 39.5077 114.351 38.8983 115.367C38.2889 116.179 37.4763 116.992 36.8669 117.804C35.2417 119.429 33.6166 120.851 33.2103 123.086C33.0072 123.695 33.0072 124.305 33.0072 125.117C32.804 125.321 32.3977 125.321 32.3977 125.524C31.5852 125.93 30.7726 127.149 31.382 128.165C31.5852 128.368 31.7883 128.571 32.1946 128.774C33.2103 129.587 33.8198 130.805 34.0229 132.024C34.226 133.243 34.0229 134.665 33.6166 135.884C33.2103 137.915 32.1946 140.15 31.1789 141.978C30.1632 143.806 28.7412 145.228 26.9129 146.65C26.9129 146.447 26.7098 146.244 26.5066 146.041C26.3035 146.65 25.8972 147.26 25.4909 147.869C25.2878 148.072 25.0847 148.276 24.8815 148.479C24.4752 148.682 23.8658 148.276 23.6626 147.869C23.2564 147.463 23.0532 146.854 22.8501 146.447C22.8501 146.65 22.8501 146.854 22.8501 147.057C20.4124 145.838 19.8029 142.588 19.5998 140.15C19.3967 137.712 19.5998 135.275 19.5998 132.634C19.8029 129.587 19.803 126.539 20.8187 123.899C22.6469 119.226 26.9129 116.179 30.7726 113.132C31.1789 112.929 31.382 112.726 31.7883 112.523C33.8197 111.71 35.8512 111.304 37.8826 110.897C38.2889 110.897 38.8983 110.694 39.3046 111.101C39.914 111.101 39.914 111.71 39.914 112.319Z" fill="#FF6D00"/>
<path d="M102.075 36.954C103.903 39.5949 105.732 41.8294 107.763 44.064C108.373 44.6734 108.982 45.2828 109.795 45.486C110.81 45.6891 112.029 45.2828 113.248 44.8765C115.889 43.8608 118.327 42.8451 120.967 41.4231C125.437 38.9854 130.109 34.9226 134.172 35.1258C135.797 35.1258 137.016 35.9383 138.438 36.5477C139.453 36.954 140.266 37.5634 141.282 37.9697C142.297 38.376 143.719 38.7823 143.922 39.798C144.126 41.0168 144.126 42.0326 145.345 42.8451C146.157 43.4545 147.376 43.8608 148.595 43.8608C152.251 43.6577 153.064 38.7823 152.454 35.9383C152.048 34.3132 151.439 32.2818 150.22 31.0629C146.157 27.2032 141.891 23.3435 136.406 21.9215C135.594 21.7184 134.781 21.5152 133.968 21.7184C132.343 21.9215 130.718 23.1404 129.093 23.9529C126.655 24.9687 123.608 24.9686 121.78 22.7341C120.967 21.7184 121.171 20.7026 120.764 19.4838C120.358 17.6555 119.749 16.0304 119.139 14.4053C118.53 12.7801 117.717 11.155 116.295 9.93613C114.67 8.71728 112.639 8.31102 110.607 8.7173C108.576 9.12358 106.748 10.1393 105.326 11.3581C101.669 14.2021 99.2313 18.4681 98.6219 23.1404C97.6062 28.422 99.2312 32.8912 102.075 36.954Z" fill="#FF6D00"/>
<path d="M71.4009 46.7048C84.6051 60.5185 94.5591 79.817 97.2 97.8966C93.5434 102.569 89.2774 106.632 83.7925 109.273C76.6826 112.726 67.7444 113.539 60.025 110.288C53.7276 107.444 48.649 102.163 44.9925 96.2714C41.5391 90.3803 39.3045 83.6767 37.2731 77.1761C35.8511 72.707 36.6636 68.2379 40.7265 66.0033C44.5862 63.9719 48.2428 61.5342 51.8993 59.0965C52.9151 58.487 53.9308 57.6745 54.9465 57.0651C60.4313 53.8148 66.1192 50.3614 71.4009 46.7048Z" fill="#262626"/>
<path d="M139.25 34.5162C139.047 40.4073 136.609 46.0953 132.547 50.1581C128.687 54.221 123.405 56.8618 118.733 60.1121C117.514 60.9246 116.295 61.9404 115.279 62.9561C114.061 60.1121 112.842 58.0807 112.436 57.0649C111.623 55.4398 110.404 53.4084 109.592 51.7833C108.779 50.1581 107.357 48.1267 106.544 46.7047C105.529 45.0796 104.31 43.2513 103.294 41.8293C103.294 41.8293 100.247 37.3602 95.981 32.4848C93.7464 29.8439 91.715 27.6094 89.8867 25.9843C92.7307 21.5151 95.7779 17.046 100.247 13.7957C105.326 10.1392 111.623 8.51403 118.123 8.92032C121.171 9.12346 124.421 9.93603 127.062 11.5612C129.703 13.1863 131.937 15.2177 133.765 17.8586C137.625 22.5308 139.453 28.6251 139.25 34.5162Z" fill="#262626"/>
<path d="M30.9756 54.0177C30.163 49.5486 27.5222 45.6889 25.0845 41.8292C24.6782 41.4229 24.475 40.8135 23.8656 40.6104C23.0531 42.8449 23.4593 45.2826 23.8656 47.7203C24.2719 49.9549 25.0845 52.3926 25.0845 54.8303C25.0845 57.268 24.6782 59.7057 25.0845 62.1434C25.4908 63.9717 26.5065 65.5968 27.9285 66.8156C28.1316 67.0188 28.5379 67.2219 28.741 67.2219C28.9442 67.2219 29.1473 67.0188 29.1473 67.0188C30.7725 65.3937 31.585 63.1591 31.3818 61.1277C31.3818 58.69 31.3819 56.2523 30.9756 54.0177Z" fill="#262626"/>
<path d="M28.3349 55.846C28.538 55.4397 28.538 55.2366 28.538 54.8303C28.538 54.424 28.3349 54.2208 28.3349 54.0177C27.7254 52.1894 26.9129 50.5643 26.3034 48.736C25.694 47.1109 25.0846 45.2826 23.8658 43.8606C23.6626 46.9077 25.4909 49.9549 26.1003 53.002C26.5066 56.0491 25.694 59.2994 26.3034 62.5497C26.3034 62.956 26.9129 64.5811 27.3191 63.7685C27.5223 63.1591 26.9129 61.7371 26.9129 60.9245C26.9129 59.0963 27.7254 57.268 28.3349 55.846Z" fill="#FF903D"/>
<path d="M53.5244 80.426C53.5244 82.4574 53.3212 84.4889 52.7118 86.3172C51.4929 89.9737 48.8521 92.8177 46.0081 95.2554C45.6018 95.6617 45.1955 96.068 44.7892 96.2711C42.961 97.6931 41.1327 99.1151 39.3045 100.537C38.2887 101.35 37.4761 102.162 36.4604 103.178C35.4447 104.194 34.6322 105.209 33.6164 106.225C30.3662 109.475 26.7096 112.522 22.2405 113.944C20.4122 114.554 18.1777 114.554 16.7557 113.335C16.3494 112.929 15.9431 112.522 15.5368 112.116C15.5368 112.116 15.3337 111.913 15.1305 111.913C14.9274 111.913 14.7243 111.913 14.7243 111.913C13.7086 111.913 12.6929 111.71 11.6771 111.304C8.63001 109.475 10.4583 105.616 11.0677 102.975C11.6771 100.74 12.6929 98.5057 13.7086 96.2711C14.318 95.0522 14.9274 93.6303 15.1305 92.2083C15.1305 92.0051 15.1305 92.0051 15.1305 91.802C15.3337 90.5831 15.3337 89.3643 15.3337 88.3486C15.3337 86.3172 15.1305 84.2857 15.5368 82.2543C15.9431 79.4103 16.5526 76.5663 17.9746 74.1286C19.1934 71.6909 20.6154 69.4564 22.4436 67.425C23.6625 66.003 24.8813 64.7841 26.3033 63.7684C26.7096 63.3621 27.1159 63.159 27.5222 62.9558C28.741 62.5496 29.9599 62.7527 30.9756 63.159C31.9913 63.5652 33.4133 63.159 34.429 63.159C38.8981 62.9558 43.5704 63.7684 47.227 66.4092C50.2741 68.4407 52.5086 71.6909 53.3212 75.1444C53.3212 76.5663 53.3212 78.5977 53.5244 80.426Z" fill="#424242"/>
<path d="M44.383 96.4743C42.5548 97.8963 40.7265 99.3182 38.8982 100.74C37.8825 101.553 37.0699 102.365 36.0542 103.381C35.0385 104.397 34.2259 105.413 33.2102 106.428C29.96 109.678 26.3034 112.726 21.8343 114.148C20.006 114.757 17.7714 114.757 16.3494 113.538C15.9431 113.132 15.5368 112.726 15.1305 112.319C15.1305 112.319 14.9274 112.116 14.7243 112.116C14.5212 112.116 14.318 112.116 14.318 112.116C13.3023 112.116 12.2866 111.913 11.2709 111.507C10.4583 111.1 10.052 110.491 9.84891 109.678C9.64576 109.272 9.64575 108.866 9.64575 108.257C9.64575 106.428 10.4583 104.6 10.8646 102.975C11.474 100.74 12.4897 98.5057 13.5054 96.2711C14.1149 95.0523 14.7243 93.6303 14.9275 92.2083C14.9275 92.0051 14.9275 92.0051 14.9275 91.802C15.1306 92.0051 15.1305 92.2083 15.1305 92.4114C15.3337 93.224 15.3337 94.2397 15.1305 95.0523C15.1305 95.2554 15.1306 95.6617 14.9275 96.068C14.7243 97.0837 14.7243 98.0994 14.5211 99.1151C14.318 100.131 13.7086 102.569 15.3337 102.365C16.7557 102.365 17.7714 101.147 18.584 100.131C23.6625 94.8491 31.1788 92.0051 38.4919 93.224C40.117 93.4271 41.7422 93.8334 42.961 95.0523C43.7736 95.2554 44.1799 95.8648 44.383 96.4743Z" fill="#FF903D"/>
<path d="M35.0385 101.756C35.2417 102.162 34.6322 103.178 34.4291 103.381C34.0228 103.991 33.4134 104.397 33.0071 104.803C31.5851 106.022 30.3662 107.647 28.7411 108.866C27.3191 110.085 26.1003 111.507 24.4751 112.32C24.0688 112.523 23.6625 112.726 23.2563 112.929C21.428 113.742 18.9903 113.945 17.162 113.132C16.1463 112.523 15.1306 111.71 14.1149 110.898C14.1149 110.898 14.1149 110.898 13.9118 110.898C13.7086 110.898 13.7086 110.898 13.5055 110.898C13.3023 110.898 12.8961 111.101 12.6929 111.101C12.2866 111.101 11.8803 111.304 11.474 111.101C10.6615 110.898 10.0521 110.288 9.64578 109.476C9.44264 109.069 9.44263 108.663 9.44263 108.054C9.44263 108.257 9.64578 108.46 9.64578 108.46C9.64578 108.663 9.84894 108.663 9.84894 108.866C10.0521 109.272 10.2552 109.476 10.4583 109.679C10.8646 110.085 11.2709 110.288 11.6772 110.288C11.8803 110.288 12.2866 110.085 12.4898 109.882C12.6929 109.679 12.896 109.476 13.0992 109.272C13.3023 108.866 13.7086 108.257 14.1149 108.866C14.318 109.476 14.5212 110.085 14.9275 110.694C15.3338 111.101 15.74 111.507 16.1463 111.71C16.9589 112.32 18.1777 112.726 19.1934 112.929C20.006 112.929 20.8186 112.929 21.6311 112.523C22.6469 112.32 23.6626 111.913 24.6783 111.101C25.4908 110.491 26.3034 109.679 27.116 108.866C28.1317 107.647 29.1474 106.428 30.1631 105.413C30.5694 104.803 32.3977 102.569 33.0071 101.959C33.4134 101.553 33.8196 101.147 34.4291 100.944C34.8353 101.35 35.0385 101.553 35.0385 101.756Z" fill="#262626"/>
<path d="M22.0376 77.3791C22.2407 77.9885 22.2407 78.598 21.6313 79.2074C21.0218 79.8168 20.2093 80.02 19.5998 80.02C19.1936 80.02 18.381 79.8168 17.9747 79.4105C17.5685 79.2074 17.1621 78.8011 17.1621 78.3948C16.959 77.5822 17.3653 76.5665 18.1778 76.3634C19.3967 75.5508 21.225 76.1603 22.0376 77.3791Z" fill="#FF903D"/>
<path d="M27.3191 82.4576C27.7253 83.2702 29.3505 83.6765 30.1631 83.8796C31.1788 84.0828 32.1945 84.0828 32.8039 83.0671C33.0071 82.8639 33.0071 82.6608 33.0071 82.4576C33.0071 82.2545 33.0071 82.0514 32.8039 81.8482C32.6008 81.4419 32.1945 80.8325 31.7882 80.4262C30.9756 79.8168 29.5536 79.8168 28.7411 80.0199C28.3348 80.2231 27.9285 80.4262 27.7254 80.6294C27.3191 80.8325 27.116 81.2388 27.116 81.6451C27.116 82.0514 27.3191 82.2545 27.3191 82.4576Z" fill="#FF903D"/>
<path d="M19.8028 103.991C19.8028 104.194 19.8028 104.397 19.8028 104.6C19.5996 105.209 19.5996 105.819 19.1933 106.428C18.787 107.038 18.3808 107.444 17.9745 107.85C17.9745 107.85 17.9745 107.85 17.7714 108.053C17.1619 108.663 16.7557 109.069 15.9431 109.475C15.1305 109.882 14.1148 110.288 13.3022 109.882C12.8959 109.679 12.6928 109.272 12.4897 108.866C12.2865 108.46 12.0834 108.053 11.8803 107.647C11.6771 107.241 11.474 106.631 11.6771 106.022V105.819C11.6771 105.616 11.8803 105.413 11.8803 105.209C11.8803 105.006 12.0834 104.803 11.8803 104.6C11.6771 104.397 11.2708 104.194 11.0676 104.194C10.4582 103.991 10.0519 103.584 10.0519 102.975C9.64566 100.943 11.6771 99.7246 13.5054 99.7246C14.7242 99.7246 15.9431 100.131 16.9588 100.537C17.5682 100.74 18.1776 101.147 18.5839 101.553C18.9902 101.959 19.3965 102.569 19.5996 103.178C19.8028 103.381 19.8028 103.584 19.8028 103.991Z" fill="#424242"/>
<path d="M19.8029 103.991C19.8029 104.194 19.8029 104.397 19.8029 104.6C19.5998 105.21 19.5997 105.819 19.1934 106.428C18.7872 107.038 18.3809 107.444 17.9746 107.85C17.9746 107.85 17.9746 107.85 17.7715 108.054C17.5683 107.85 17.5683 107.647 17.3652 107.647C17.162 107.444 16.9589 107.241 16.5526 107.241C15.7401 106.835 14.7243 107.038 14.1149 106.632C13.9118 106.632 13.9118 106.428 13.7087 106.225C13.3024 105.413 14.1149 104.803 14.9275 105.006C15.3338 105.006 15.7401 105.21 15.9432 105.413C16.5526 105.616 17.1621 105.819 17.7715 105.616C18.5841 105.21 19.3966 104.6 19.8029 103.991Z" fill="#262626"/>
<path d="M28.7411 85.7079H28.9442C29.96 85.3016 30.9757 85.0985 32.1945 85.3016C33.2102 85.5048 34.4291 85.7079 35.2417 86.5205C35.4448 86.7236 35.6479 87.1299 35.4447 87.333C34.8353 88.1456 33.6165 88.5519 32.6008 88.755C31.1788 88.9582 29.5537 88.9582 28.1317 88.5519C27.7254 88.3487 26.5065 88.1456 26.7097 87.5362C27.116 86.7236 27.9285 86.1142 28.7411 85.7079Z" fill="#262626"/>
<path d="M30.9758 88.5518C31.8733 88.5518 32.6009 87.8242 32.6009 86.9267C32.6009 86.0291 31.8733 85.3015 30.9758 85.3015C30.0782 85.3015 29.3506 86.0291 29.3506 86.9267C29.3506 87.8242 30.0782 88.5518 30.9758 88.5518Z" fill="#632B00"/>
<path d="M30.9756 87.7392C31.4244 87.7392 31.7882 87.3754 31.7882 86.9266C31.7882 86.4778 31.4244 86.114 30.9756 86.114C30.5269 86.114 30.1631 86.4778 30.1631 86.9266C30.1631 87.3754 30.5269 87.7392 30.9756 87.7392Z" fill="#1A1A1A"/>
<path d="M30.3662 86.9266C30.5906 86.9266 30.7725 86.7447 30.7725 86.5203C30.7725 86.2959 30.5906 86.114 30.3662 86.114C30.1418 86.114 29.96 86.2959 29.96 86.5203C29.96 86.7447 30.1418 86.9266 30.3662 86.9266Z" fill="white"/>
<path d="M16.5527 80.6294C16.3496 80.6294 16.3495 80.6294 16.3495 80.8325C15.9433 81.6451 16.1464 82.864 16.7559 83.6765C17.1621 84.0828 17.5684 84.4891 18.1778 84.8954C18.381 85.0985 18.7872 85.0985 19.1935 85.0985C19.5998 85.0985 19.5998 84.8954 19.5998 84.6922C19.5998 83.6765 18.9904 82.6608 18.5841 82.0514C17.7716 81.2388 17.1621 80.8325 16.5527 80.6294Z" fill="#262626"/>
<path d="M18.5839 82.8639C18.787 83.6765 18.5839 84.2859 17.9745 84.2859C17.3651 84.2859 16.9588 83.8796 16.7556 83.0671C16.5525 82.2545 16.7556 81.6451 17.365 81.6451C17.7713 81.4419 18.3807 82.0514 18.5839 82.8639Z" fill="#632B00"/>
<path d="M18.1775 82.8638C18.1775 83.2701 18.1776 83.4732 17.9745 83.4732C17.7713 83.4732 17.365 83.2701 17.365 82.8638C17.365 82.4575 17.365 82.2544 17.5681 82.2544C17.7713 82.2544 17.9744 82.4575 18.1775 82.8638Z" fill="#1A1A1A"/>
<path d="M17.7713 82.2544C17.7713 82.4576 17.7713 82.6607 17.5682 82.6607C17.365 82.6607 17.1619 82.4576 17.1619 82.2544C17.1619 82.0513 17.1619 81.8481 17.365 81.8481C17.5682 81.8481 17.7713 81.8481 17.7713 82.2544Z" fill="white"/>
<path d="M41.539 66.003C41.3359 65.5968 41.3359 64.9873 41.3359 64.581C41.3359 63.9716 41.7422 63.159 42.1485 62.7528C43.3673 61.1276 44.7893 59.5025 46.0082 57.8774C47.8365 55.2365 49.0553 51.9862 50.6804 49.1422C50.8836 48.736 51.2898 48.736 51.6961 48.9391C52.7118 49.9548 53.5245 51.3768 53.9308 53.0019C54.5402 55.4396 54.337 57.8774 54.5402 60.3151C54.9464 63.5653 54.9464 67.0187 54.3369 70.269C54.1338 71.2847 53.9307 72.5036 53.5245 73.5193C52.915 74.535 51.8993 75.5507 50.8836 76.1601C49.8679 76.7696 48.649 77.379 47.6333 76.1601C46.2113 74.3319 44.7893 72.3004 43.5704 70.269C42.961 69.0501 41.9453 67.6282 41.539 66.003Z" fill="#262626"/>
<path d="M47.4303 59.2993C46.6177 60.7213 45.602 62.1433 45.3989 63.7685C44.9926 65.5967 45.602 67.425 46.4146 69.2533C47.2271 71.2847 48.0397 73.113 49.2585 74.7381C49.4617 74.9413 49.4616 75.1444 49.6648 75.1444C50.2742 75.5507 51.0868 74.9413 51.6962 74.3318C53.1182 72.5036 53.9308 70.269 54.1339 68.0345C54.3371 65.7999 54.1339 63.5653 53.7276 61.1276C53.5245 59.0962 53.1182 57.2679 52.7119 55.2365C52.5088 54.0177 52.3057 52.5957 52.1025 51.3768C51.6962 49.7517 51.0868 51.58 50.8836 52.1894C49.8679 54.8302 48.6491 57.0648 47.4303 59.2993Z" fill="#FF903D"/>
<path d="M92.5277 97.8964C91.1057 101.147 89.2774 104.397 87.4491 107.444C85.824 110.288 85.0113 113.335 83.7925 116.382C82.5736 119.429 81.3548 122.273 79.9328 125.117C79.7297 125.727 79.3234 126.133 79.1202 126.539C78.5108 127.149 77.9014 127.555 77.292 127.758C75.2606 128.774 65.5097 133.04 59.4154 135.681C57.1809 136.697 55.3526 137.509 54.7432 137.712C53.9306 138.119 53.118 139.337 53.7275 140.353C53.9306 140.556 54.1338 140.759 54.5401 140.962C55.5558 141.775 56.1652 142.994 56.3683 144.213C56.5714 145.432 56.3684 146.854 55.9621 148.072C55.5558 150.104 54.5401 152.135 53.5244 154.167C52.5087 155.995 51.0867 157.417 49.2584 158.839C49.2584 158.636 49.0552 158.433 48.8521 158.23C48.6489 158.839 48.2427 159.448 47.8364 160.058C47.6332 160.261 47.4301 160.464 47.227 160.667C46.8207 160.87 46.2112 160.464 46.0081 160.058C45.6018 159.652 45.3987 159.042 45.1955 158.636C45.1955 158.839 45.1955 159.042 45.1955 159.245C42.7578 158.026 42.1484 154.776 41.9453 152.338C41.7421 149.901 41.9453 147.463 41.9453 144.822C42.1484 141.775 42.1484 138.728 43.1641 136.087C44.9924 131.415 49.2584 128.368 53.1181 125.321C54.9463 123.899 56.9777 122.477 58.806 121.258C60.0249 120.445 62.0563 119.023 62.6658 117.601C62.8689 117.195 62.8689 116.789 62.8689 116.382C63.4783 111.913 64.4941 107.647 65.1035 103.178C65.5098 98.9121 65.916 94.443 67.9474 90.3802C69.7757 86.3173 73.026 83.0671 76.8857 80.6294C79.7297 79.0042 82.9799 77.7854 86.2302 78.3948C90.0899 79.2074 92.9339 82.6608 93.7465 86.5205C94.7622 90.177 93.9496 94.2399 92.5277 97.8964Z" fill="#424242"/>
<path d="M170.534 49.3457C170.331 50.5645 169.925 52.1896 168.909 53.0022C168.706 53.2053 168.3 53.4085 167.893 53.6116C167.487 53.8148 167.284 54.0179 166.878 54.221H166.675C166.675 54.221 166.471 54.221 166.471 54.0179C166.268 54.6273 165.862 55.0336 165.253 55.2368H165.049C165.049 55.2368 164.846 55.2367 164.846 55.0336C164.44 54.6273 164.034 54.0179 163.831 53.4085C163.831 53.4085 163.831 53.6116 163.627 53.4085C163.627 53.4085 163.424 53.4085 163.424 53.2053C163.018 52.7991 162.612 52.3928 162.409 51.7834C162.002 50.9708 162.205 49.9551 162.002 49.1425C161.799 47.9236 160.377 47.7205 159.361 47.3142C158.346 46.9079 157.533 46.2985 156.517 45.8922C155.095 45.2828 153.877 44.4702 152.251 44.4702C150.423 44.2671 148.595 45.0797 146.563 46.0954C144.126 47.5174 141.485 49.3456 139.047 50.5645C136.406 51.9865 133.969 53.0022 131.328 54.0179C130.109 54.4242 128.89 55.0336 127.874 54.6273C127.062 54.4242 126.452 53.8148 125.843 53.2053C123.812 50.9708 121.983 48.7362 120.155 46.0954C117.311 42.0325 115.686 37.5634 116.498 32.4849C117.311 28.0157 119.546 23.5466 123.202 20.7026C124.827 19.4838 126.655 18.4681 128.484 18.0618C130.515 17.6555 132.547 18.0618 134.172 19.2806C135.594 20.2964 136.406 22.1246 137.016 23.7498C137.625 25.3749 138.235 27.2032 138.641 28.8283C138.844 30.0472 138.641 31.0629 139.657 32.0786C141.485 34.3132 144.735 34.3131 146.97 33.2974C147.782 32.8911 148.595 32.4849 149.611 32.0786C150.423 31.6723 151.236 31.266 151.845 31.266C152.658 31.0629 153.47 31.266 154.283 31.4692C159.565 32.688 163.83 36.7508 168.096 40.6105C169.315 41.8294 169.925 43.8608 170.331 45.4859C170.941 46.7048 170.94 48.1268 170.534 49.3457Z" fill="#424242"/>
<path d="M170.534 49.3457C170.331 50.5645 169.925 52.1896 168.909 53.0022C168.706 53.2053 168.299 53.4085 167.893 53.6116C167.487 53.8148 167.284 54.0179 166.878 54.221H166.674C166.674 54.221 166.471 54.221 166.471 54.0179C166.268 54.6273 165.862 55.0336 165.252 55.2368H165.049C165.049 55.2368 164.846 55.2367 164.846 55.0336C164.44 54.6273 164.034 54.0179 163.83 53.4085C163.83 53.4085 163.83 53.6116 163.627 53.4085C163.627 53.4085 163.424 53.4085 163.424 53.2053C163.018 52.7991 162.611 52.3928 162.408 51.7833C162.002 50.9708 162.205 49.9551 162.002 49.1425C161.799 47.9236 160.377 47.7205 159.361 47.3142C158.346 46.908 157.533 46.2985 156.517 45.8922C155.095 45.2828 153.876 44.4702 152.251 44.4702C150.423 44.2671 148.595 45.0797 146.563 46.0954V45.8922C146.36 45.2828 147.173 44.6734 147.782 44.2671C149.001 43.4545 150.22 42.642 151.032 41.4231C151.439 40.8137 151.845 40.2043 152.048 39.5948C152.251 38.376 151.845 36.954 151.236 35.7351C150.626 34.5163 150.017 33.5006 149.61 32.2817C150.423 31.8754 151.236 31.4692 151.845 31.4692C152.658 31.266 153.47 31.4691 154.283 31.6723C159.564 32.8911 163.83 36.954 168.096 40.8137C169.315 42.0325 169.925 44.064 170.331 45.6891C170.94 46.7048 170.94 48.1268 170.534 49.3457Z" fill="#FF903D"/>
<path d="M64.494 127.352C62.8689 130.196 60.2281 132.634 59.0093 135.681C56.7747 136.697 54.9464 137.509 54.3369 137.712C53.5244 138.119 52.7118 139.337 53.3212 140.353C53.5244 140.556 53.7276 140.759 54.1338 140.962C55.1496 141.775 55.759 142.994 55.9622 144.213C56.1653 145.432 55.9621 146.854 55.5559 148.072C55.1496 150.104 54.1338 152.135 53.1181 154.167C52.1024 155.995 50.6804 157.417 48.8521 158.839C48.8521 158.636 48.649 158.433 48.4459 158.23C48.2427 158.839 47.8365 159.448 47.4302 160.058C47.227 160.261 47.0239 160.464 46.8207 160.667C46.4144 160.87 45.805 160.464 45.6019 160.058C45.1956 159.652 44.9924 159.042 44.7893 158.636C44.7893 158.839 44.7893 159.042 44.7893 159.245C42.3516 158.026 41.7422 154.776 41.539 152.338C41.3359 149.901 41.539 147.463 41.539 144.822C41.7422 141.775 41.7422 138.728 42.7579 136.087C44.5862 131.415 48.8521 128.368 52.7118 125.321C54.5401 123.899 56.5715 122.477 58.3998 121.258C59.6186 121.055 60.6344 121.258 61.8532 121.461C63.2752 121.867 64.4941 122.68 64.9003 124.102C65.5098 125.321 65.1035 126.539 64.494 127.352Z" fill="#FF903D"/>
</svg>
