<svg xmlns="http://www.w3.org/2000/svg" xmlns:xlink="http://www.w3.org/1999/xlink" width="112" height="181">
  <path stroke="none" stroke-miterlimit="4" fill-opacity="1" stroke-opacity="1" fill="#8ca2ff" clip-path="url(#clip0_209_2095)" fill-rule="nonzero" stroke-width="1px" stroke-dasharray="none" stroke-linejoin="miter" stroke-linecap="butt" d="M82.5,144.833C82.5,144.833,82.167,150.833,80.5,154C78.833,157.167,78,163.667,78.333,165.833C78.667,168,81.5,168.667,84.5,167.5C87.833,166.333,89.5,164.5,89.5,162.5C89.5,160.5,90,152.333,90,148.167C90.167,146,82.5,144.833,82.5,144.833ZM82.5,144.833"/>
  <path stroke-dasharray="none" fill-rule="nonzero" fill-opacity="1" fill="#8ca2ff" stroke-miterlimit="4" stroke-linejoin="miter" stroke-opacity="1" stroke-linecap="butt" clip-path="url(#clip0_209_2095)" stroke-width="1px" stroke="none" d="M67.833,138.5C66,143.667,60.167,144.5,58,147.334C55.833,150.334,56.667,154,59.167,154.167C61.833,154.334,65.5,152.667,68.5,150.167C71.5,147.667,73.667,148.667,76,144.834C77.5,142.167,76.333,137.834,76.5,134.167C76.667,131.667,68.833,135.334,67.833,138.5ZM67.833,138.5"/>
  <path stroke-width="1px" fill-rule="nonzero" stroke="none" fill-opacity="1" clip-path="url(#clip0_209_2095)" fill="#2c1d1b" stroke-linejoin="miter" stroke-dasharray="none" stroke-linecap="butt" stroke-opacity="1" stroke-miterlimit="4" d="M72.667,64.334C72.167,67.834,73,75.5,72.5,78C72,80.5,65.667,95.667,64,100.667C62.333,105.667,62.5,105.5,64.5,116.667C65.667,122.834,67.833,138.5,67.833,138.5C67.833,138.5,69.5,140.667,72.5,140C74.333,139.667,76.5,138.5,76.5,138.5C76.5,138.5,79.833,116.334,76.833,104.667C77.667,100.667,93,79.667,89.667,72.167C86.333,64.334,72.667,64.334,72.667,64.334ZM72.667,64.334"/>
  <path stroke-opacity="1" fill-rule="nonzero" stroke-linejoin="miter" stroke-linecap="butt" fill="#3f2a28" stroke="none" stroke-width="1px" fill-opacity="1" stroke-miterlimit="4" stroke-dasharray="none" clip-path="url(#clip0_209_2095)" d="M79.5,68.167C77.333,78,79.5,83.167,80.833,86.667C79.167,92.667,78.5,101.667,77.167,109.833C75.833,118.167,77.667,120,78.667,128.833C79.667,137.667,81.833,147.5,81.833,147.5C81.833,147.5,82.833,149.5,85.667,149.5C88.167,149.5,90.167,148.333,90.167,148.333C90.167,148.333,92.167,128.833,92.333,123.167C92.5,117.5,90.333,111.5,90.333,111.5C90.333,111.5,95.667,99.667,98,88.667C102.667,81.167,102.5,74,98,65.167C93.667,56.667,79.5,68.167,79.5,68.167ZM79.5,68.167"/>
  <path stroke="none" fill-opacity="1" fill-rule="nonzero" clip-path="url(#clip0_209_2095)" stroke-dasharray="none" fill="#ffb8a3" stroke-opacity="1" stroke-linejoin="miter" stroke-width="1px" stroke-miterlimit="4" stroke-linecap="butt" d="M74.333,26.5C74.333,26.5,71,24.667,69.167,27C66.5,30.167,64.5,36.667,63.667,38C62.833,39.333,59.667,32.667,58.667,29.167C57.667,25.667,58.167,23,57.667,20.333C57.333,17.667,56.667,17.333,56.167,18.833C55.667,20.5,55.667,22.167,55,22.5C54.333,22.667,52.333,20.833,51.833,18C51.333,15.167,49.667,15,47.833,17.333C46.167,19.667,48,23.333,49.5,25.667C50.667,27.167,54,28.5,53.833,29.667C53.833,30.833,54.833,36.5,55.333,40C55.833,43.5,58.833,47,60.5,48.667C62,50.333,65.333,50.667,67.667,48C70.333,45.167,74.333,26.5,74.333,26.5ZM74.333,26.5"/>
  <path stroke-miterlimit="4" stroke-linecap="butt" fill-opacity="1" stroke-linejoin="miter" stroke-dasharray="none" stroke="none" fill-rule="nonzero" clip-path="url(#clip0_209_2095)" stroke-width="1px" stroke-opacity="1" fill="#8ca2ff" d="M95.667,38.167C94.667,32.167,89.167,29.667,86.5,28.333C75.5,23,74.5,24.167,74.833,24.5C74.167,25.167,73.167,26.833,70.333,32.167C68.833,34.833,65.667,39.5,65.667,41C65.833,43.167,67,45.5,68.167,47.167C69.5,49,72,57.5,72.167,62.833C72.833,66,74.833,72,80.667,72.667C91.333,73.834,97.167,67.334,97.833,65C96.167,60.5,93.833,55.667,94.333,50.833C94.833,46,96.167,41.833,95.667,38.167ZM95.667,38.167"/>
  <path fill-rule="nonzero" stroke-dasharray="none" stroke-miterlimit="4" fill-opacity="1" stroke="none" stroke-width="1px" stroke-linejoin="miter" fill="#2c1d1b" clip-path="url(#clip0_209_2095)" stroke-linecap="butt" stroke-opacity="1" d="M78,5.333C78,5.333,82.667,-3.333,89.833,1.5C96.167,5.667,94,12.167,92.167,16.333C90.333,20.5,91.333,22,93.5,21.667C95.667,21.333,96.833,19.5,96.833,19.5C96.833,19.5,96.5,25.833,90.167,25.667C83.833,25.5,83,18.167,83,18.167L78,5.333ZM78,5.333"/>
  <path clip-path="url(#clip0_209_2095)" stroke-dasharray="none" stroke-width="1px" fill-opacity="1" stroke-linejoin="miter" stroke="none" stroke-miterlimit="4" stroke-linecap="butt" fill-rule="nonzero" stroke-opacity="1" fill="#ffb8a3" d="M83.833,21.667C80.667,22.333,77.167,23.333,74.333,23C74.833,25.333,75.667,26,74.333,30.333C73.333,33.333,71,36.5,73.667,37.833C74.833,38.5,79.667,37.333,83,34.833C85.833,32.667,87.5,29.333,86,27.5C84.667,26.167,84.333,23.667,83.833,21.667ZM83.833,21.667"/>
  <path stroke-miterlimit="4" stroke-dasharray="none" stroke="none" fill-rule="nonzero" stroke-opacity="1" stroke-width="1px" stroke-linejoin="miter" fill="#ffc8b5" fill-opacity="1" stroke-linecap="butt" clip-path="url(#clip0_209_2095)" d="M70.5,12C74.667,11,76.833,10.833,80.5,12.333C82.5,12.833,84.5,13.833,86.333,15C86.5,15.167,86.667,15.5,86.667,15.667C85.667,21.167,83.833,27,77.667,29.333C72.667,31.333,69.833,25.833,68.833,22C67.833,17.667,67.5,12.667,70.5,12ZM70.5,12"/>
  <path fill="#3f2a28" stroke-linejoin="miter" fill-opacity="1" stroke-dasharray="none" stroke="none" stroke-opacity="1" fill-rule="nonzero" clip-path="url(#clip0_209_2095)" stroke-linecap="butt" stroke-width="1px" stroke-miterlimit="4" d="M83.833,6.5C79.833,3.333,74.833,3.667,72.167,5.833C69.333,8.167,67,11.667,68.333,15.333C69.667,15.667,71.667,14.333,72.5,13.667C74.167,15.5,77.167,17.667,80.667,17.167C81.333,19.5,82.667,24.667,84.667,24.5C88.833,16,90.167,11.667,83.833,6.5ZM83.833,6.5"/>
  <path stroke-linejoin="miter" stroke="none" fill="#ffc8b5" stroke-miterlimit="4" stroke-linecap="butt" stroke-opacity="1" clip-path="url(#clip0_209_2095)" fill-rule="nonzero" stroke-width="1px" stroke-dasharray="none" fill-opacity="1" d="M79.833,19.833C79.833,19.833,80.833,16.5,83,18.167C85.167,19.833,82.167,23.333,82.167,23.333L79.833,19.833ZM79.833,19.833"/>
  <path fill="#778cfc" fill-rule="nonzero" stroke-miterlimit="4" stroke="none" stroke-width="1px" stroke-dasharray="none" fill-opacity="1" stroke-opacity="1" clip-path="url(#clip0_209_2095)" stroke-linecap="butt" stroke-linejoin="miter" d="M74.333,49.333C74.333,49.333,77,52.5,80.833,52.5C84.667,52.5,87.333,50.833,87.333,50.833C87.333,50.833,86.167,54.833,80.833,54.833C75.667,54.833,74.333,49.333,74.333,49.333ZM74.333,49.333"/>
  <path fill-rule="nonzero" stroke-opacity="1" fill-opacity="1" stroke-miterlimit="4" clip-path="url(#clip0_209_2095)" stroke="none" stroke-width="1px" fill="#ffc8b5" stroke-linejoin="miter" stroke-linecap="butt" stroke-dasharray="none" d="M110.5,22C109.667,21.167,108,21.167,107.167,22.333C106.667,23.167,106.5,24.833,106.5,25.667C106.333,27.833,106.167,29.833,105.167,31.667C105,30.5,104.5,28.333,103,28C102.333,27.833,102.167,28.167,102.5,29.167C103,30.667,102.833,30.333,103,32C103.167,33.333,103.5,35.667,103.5,35.667C102.167,39.833,99.833,43.833,97.833,47.667C98,44,98,38.167,95.5,34.5C94.833,33.333,92.833,31.833,90.833,31C86.5,33.5,85.5,38.333,86.833,43.167C87.5,45.333,87.5,46.333,89.833,48.667C89.833,49.5,92.167,54.833,94.833,57.333C96.5,58.833,97.833,58.667,99.333,57.333C104.667,52.667,107.833,44.167,107.667,37.5C109,34.833,111.5,32.333,111.833,29.5C112.167,27.5,112.167,23.5,110.5,22ZM110.5,22"/>
  <path fill="#ac5f25" fill-opacity="1" stroke-dasharray="none" stroke="none" stroke-miterlimit="4" stroke-linecap="butt" stroke-opacity="1" stroke-linejoin="miter" stroke-width="1px" clip-path="url(#clip0_209_2095)" fill-rule="nonzero" d="M69.833,47.333C71.833,46.167,73.667,48.833,73,52.167C72.333,55.5,69.667,56.833,69,57.833C68.333,59,65.333,65.333,63.5,66.5C61.667,67.667,57.333,61.333,57.333,61.333C57.333,61.333,66.667,49.167,69.833,47.333ZM69.833,47.333"/>
  <path stroke-linejoin="miter" clip-path="url(#clip0_209_2095)" stroke-miterlimit="4" fill-opacity="1" stroke-opacity="1" stroke="none" stroke-linecap="butt" stroke-dasharray="none" fill-rule="nonzero" fill="#ac5f25" stroke-width="1px" d="M40.833,107.5C40,110.667,45.167,118.667,43.167,129.167C41.167,139.667,31,143.5,31,147.667C31,153,31.667,156.667,32.167,160.667C34.833,160,36.5,160,37.167,161.833C38.333,165.333,36.167,165.833,33.333,167.333C31.333,168.333,27.167,167.333,27,164.833C26.833,162,23.833,148.833,23.167,146C22.167,142.333,24.5,141.333,25.667,139C27.167,136,28,131.833,28,126.5C28,116.833,41.833,104.333,40.833,107.5ZM40.833,107.5"/>
  <path stroke-width="1px" clip-path="url(#clip0_209_2095)" fill-rule="nonzero" stroke-linecap="butt" stroke-opacity="1" stroke-miterlimit="4" stroke-linejoin="miter" stroke-dasharray="none" fill="#d28037" fill-opacity="1" stroke="none" d="M27.5,130.333C27.333,129.333,27.333,128.333,27.5,127.333C27.667,115.167,29.5,103.667,32.5,91.833C34,85.833,34.5,79.833,35.167,73.667C35.667,69.167,36.833,65.167,39.833,61.667C40.167,61.333,40.667,61.333,41,61.5C44.333,63.333,48.333,62.667,52,62.667C55.5,62.667,58.833,62.5,62.333,62.833C62.667,62.833,62.833,63.333,62.667,63.5C67.5,69.833,69,78.333,67.5,86C66.667,90.5,64.333,94.333,62.167,98.333C59.833,102.667,58.333,107.333,56.333,111.833C56.333,114.167,56.333,116.5,56,118.333C55.667,120.667,55.167,123,54.167,125.333C52,130.667,48,133.833,42.667,135.833C37.333,137.833,33.333,138.167,29.333,133.5C28.667,132.667,28.167,131.833,27.833,131C27.5,130.833,27.5,130.667,27.5,130.333C27.5,130.5,27.5,130.5,27.5,130.333ZM27.5,130.333"/>
  <path stroke-linecap="butt" fill-opacity="1" stroke="none" stroke-dasharray="none" stroke-width="1px" clip-path="url(#clip0_209_2095)" fill-rule="nonzero" stroke-linejoin="miter" stroke-opacity="1" fill="#ac5f25" stroke-miterlimit="4" d="M65.667,91.333C63.833,94.667,60.167,102,60.167,102C60.167,102,51.333,107,49.5,102C47.833,97,51.667,78.167,51.667,78.167C51.667,78.167,63.833,88.667,65.667,91.333ZM65.667,91.333"/>
  <path stroke-opacity="1" fill-opacity="1" fill="#513231" stroke="none" fill-rule="nonzero" stroke-linejoin="miter" stroke-linecap="butt" stroke-dasharray="none" stroke-miterlimit="4" clip-path="url(#clip0_209_2095)" stroke-width="1px" d="M24.833,122C26.833,104.167,33.667,91.667,35.167,73.667C35.833,66.167,38.667,63,39.833,60.667C45.833,64,54.5,66.167,60.5,69.167C59.5,70,57.167,73,55.167,76.5C54.5,77.667,52.833,81.167,52.833,89.667C52.833,91.5,54.833,93.667,55.833,95.833C58.333,101,55.5,105.167,51.667,109.5C48,113.667,46,115.333,44.5,118.667C43.167,122,42.667,124.167,42.5,129C42.333,131.333,41.167,133.667,39.667,136.667C38.667,137.167,33.833,138.167,31.5,137.167C25.5,134.667,24.167,127.833,24.833,122ZM24.833,122"/>
  <path stroke-width="1px" stroke="none" fill-rule="nonzero" fill="#2c1d1b" clip-path="url(#clip0_209_2095)" fill-opacity="1" stroke-linejoin="miter" stroke-opacity="1" stroke-linecap="butt" stroke-miterlimit="4" stroke-dasharray="none" d="M44.667,34.333C45.333,31.833,45.833,28.667,47,27C47.667,26,48.5,26.667,49.167,27.833C49.667,29,50.833,30.833,51,31.333C51.833,33.833,52.167,36.833,52.167,39.5C52.167,41.833,45.5,45.5,45.167,44.833C43.667,40.833,43.667,37.667,44.667,34.333ZM44.667,34.333"/>
  <path stroke-opacity="1" stroke-linecap="butt" fill-rule="nonzero" stroke-linejoin="miter" fill="#d28037" clip-path="url(#clip0_209_2095)" stroke="none" stroke-width="1px" fill-opacity="1" stroke-dasharray="none" stroke-miterlimit="4" d="M41.167,56.5C42,52.833,42.333,48.833,44,45.5C45,43.5,46.833,39.667,50.667,38.833C53.5,38.167,56.167,39.333,58.333,41.167C61.167,41.667,63.667,41.833,66.5,41C68,40.5,68.833,40.667,69.667,42C71.167,44.333,71.333,47,70,49.333C69,51,67.667,51.667,66.333,53C63.333,55.667,64.333,59,64.667,62.333C65.5,64.333,66,66.167,64.5,68.333C62.333,71.5,59.5,73.333,55.667,73.833C49.333,74.667,42.667,72,40.5,66.167C40.167,66.167,39.833,66,39.667,65.667C38.833,63,40.5,59.333,41.167,56.5ZM41.167,56.5"/>
  <path stroke-linejoin="miter" fill-opacity="1" stroke-linecap="butt" stroke-width="1px" fill-rule="nonzero" stroke-miterlimit="4" stroke-opacity="1" fill="#ac5f25" stroke-dasharray="none" clip-path="url(#clip0_209_2095)" stroke="none" d="M65.333,67.167C65.333,67.167,68.333,74.167,67.667,78.167C67.167,81,61.5,74.833,57,74C53.167,73.333,53,73.167,53,73.167L65.333,67.167ZM65.333,67.167"/>
  <path stroke-opacity="1" fill="#d28037" stroke="none" stroke-linejoin="miter" clip-path="url(#clip0_209_2095)" stroke-miterlimit="4" stroke-dasharray="none" fill-opacity="1" stroke-linecap="butt" fill-rule="nonzero" stroke-width="1px" d="M56.333,72.334C56.333,72.334,63.833,71.5,65.333,74C66.833,76.5,69.667,79,69.667,79C69.667,79,72.5,69.334,72.833,63C73.167,56.667,74.167,56.333,76.667,55.667C79.333,55,81.333,60.667,78.5,65.334C77.667,70.5,78.833,80.334,75.833,85.667C72.667,91,68.667,94.667,64,93.5C59.333,92.334,53.167,84.167,53.167,84.167C53.167,84.167,52.167,75.667,56.333,72.334ZM56.333,72.334"/>
  <path stroke-opacity="1" stroke-linecap="butt" stroke-miterlimit="4" fill-rule="nonzero" fill="#513231" clip-path="url(#clip0_209_2095)" stroke-dasharray="none" stroke-width="1px" stroke="none" fill-opacity="1" stroke-linejoin="miter" d="M66.333,53.167C66.333,53.167,65.5,51,65.833,48.667C66,47.833,65.167,46.5,64,45.833C62,44.667,58.833,44.667,57.833,43.167C56.333,40.833,56.333,39.833,56.333,39.833C56.333,39.833,63.667,42,66.5,41.167C69.333,40.167,71,40.5,71.5,43.333C72,46,71.167,50.5,66.333,53.167ZM66.333,53.167"/>
  <path stroke-opacity="1" stroke-dasharray="none" stroke-linejoin="miter" stroke-width="1px" stroke-miterlimit="4" fill-opacity="1" fill="#3f2a28" fill-rule="nonzero" stroke-linecap="butt" stroke="none" clip-path="url(#clip0_209_2095)" d="M61.5,51.667C61.333,52,61.167,52,60.833,52.167C58.167,48.833,54.667,45.667,54.333,41.5C55,40.167,56,38.833,56.833,38C58.167,36.5,59,36,60.5,34.667C62,33.333,62.5,32.5,63.333,33.167C64.167,33.833,63.167,38,63,40C62.5,43.833,63.167,47.667,61.5,51.667ZM61.5,51.667"/>
  <path stroke-opacity="1" stroke-miterlimit="4" stroke-linecap="butt" fill-opacity="1" fill="#513231" stroke-width="1px" clip-path="url(#clip0_209_2095)" stroke-linejoin="miter" stroke="none" fill-rule="nonzero" stroke-dasharray="none" d="M38.667,64.167C38.833,62.667,39.667,61.333,40.167,59.833C41.5,55.5,41.833,49.5,44,45.667C46.333,41.5,49.667,43.333,50.333,47C50.667,48.5,50.667,51.167,50.667,52.833C50.667,54.833,51,57,51.667,59C52.833,62.167,54.5,66.333,58,66.833C60,67.167,62.667,67.167,65,65.5C65.667,65.5,65.833,66.833,65.167,68.5C63.833,72,60.333,73.333,56.5,74.5C52.333,75.667,48.667,74.667,45,72.833C42.333,71.167,38.167,67.833,38.667,64.167ZM38.667,64.167"/>
  <path stroke-linecap="butt" fill="#3f2a28" clip-path="url(#clip0_209_2095)" stroke-width="1px" stroke-linejoin="miter" stroke-dasharray="none" stroke-opacity="1" stroke-miterlimit="4" fill-rule="nonzero" fill-opacity="1" stroke="none" d="M71.667,44.167C71.667,44.167,69.833,44.833,68.5,43.667C67.167,42.5,66.5,41,66.5,41C66.5,41,68.833,39.833,70.5,41C71.667,41.833,71.667,44.167,71.667,44.167ZM71.667,44.167"/>
  <path stroke-dasharray="none" stroke-width="1px" stroke-opacity="1" clip-path="url(#clip0_209_2095)" stroke-linejoin="miter" fill="#f8aa43" stroke-linecap="butt" stroke="none" fill-opacity="1" stroke-miterlimit="4" fill-rule="nonzero" d="M65.333,68.333C65.333,68.333,54,73.667,46.333,69.5C38.833,65.333,39.833,60.667,39.833,60.667L38,63.667C38,63.667,37.833,67.833,44.5,72.333C51.333,76.667,62.333,75,65.333,68.333ZM65.333,68.333"/>
  <path stroke="none" stroke-linejoin="miter" stroke-linecap="butt" stroke-opacity="1" stroke-dasharray="none" clip-path="url(#clip0_209_2095)" fill-opacity="1" fill-rule="nonzero" fill="#d28037" stroke-width="1px" stroke-miterlimit="4" d="M56,113.834C55.833,117.167,59.333,128.167,57.333,138.667C55.333,149.167,45.167,153,45.167,157.167C45.167,162.5,45.833,166.167,46.333,170.167C49,169.5,50.667,169.5,51.333,171.334C52.5,174.834,50.333,175.334,47.5,176.834C45.5,177.834,41.333,176.834,41.167,174.334C41,171.5,38,158.334,37.333,155.5C36.333,151.834,38.667,150.833,39.833,148.5C41.333,145.5,42.167,141.333,42.167,136C42.167,126.5,56.333,106.834,56,113.834ZM56,113.834"/>
  <path stroke-width="1px" clip-path="url(#clip0_209_2095)" fill-opacity="1" stroke-linecap="butt" stroke="none" stroke-opacity="1" fill-rule="nonzero" stroke-dasharray="none" fill="#513231" stroke-miterlimit="4" stroke-linejoin="miter" d="M33.167,113.667C33.167,113.667,25.833,119.167,24.5,124.333C23.167,129.5,22,145.833,16.333,154.667C10.833,163.667,0,159.5,0,159.5C0,159.5,0.667,168,7.667,169.167C14.667,170.333,18.667,166,18.667,166C18.667,166,18.667,169.167,17,170.833C18.167,171.167,22.167,170,24.5,164.5C27,159,27,154,27.333,147.167C27.5,143.833,28.333,138.333,33,136.333C38,134.167,33.167,113.667,33.167,113.667ZM33.167,113.667"/>

</svg>
