<svg width="150" height="211" viewBox="0 0 150 211" fill="none" xmlns="http://www.w3.org/2000/svg">
<g clip-path="url(#clip0_209_1312)">
<path opacity="0.2" d="M74.9767 210.738C116.385 210.738 149.953 207.101 149.953 202.614C149.953 198.128 116.385 194.491 74.9767 194.491C33.5682 194.491 0 198.128 0 202.614C0 207.101 33.5682 210.738 74.9767 210.738Z" fill="#90C3C8"/>
<path d="M83.1466 34.6406C83.8935 35.9011 84.3137 37.4417 84.1736 42.3437C84.0336 47.2457 85.014 56.4427 80.0653 55.9758C75.1167 55.509 75.7236 50.7004 75.817 50.4203C75.957 50.1402 76.7973 42.0636 76.7973 42.0636L83.1466 34.6406Z" fill="#AD8E4B"/>
<path d="M50.2801 103.548C50.2801 103.548 46.3119 136.928 43.8842 143.137C41.5033 149.346 22.3156 197.572 22.3156 197.572C22.3156 197.572 18.0672 198.506 15.2661 197.012C15.9664 185.714 17.3203 153.782 25.2568 138.469C28.0112 131.793 21.9421 109.384 24.1363 87.4417C26.3305 65.4996 50.2334 77.8712 50.2334 77.8712L52.8945 80.2521C52.8945 80.2521 54.5285 87.1616 54.155 90.6163C53.8282 94.071 50.2801 103.548 50.2801 103.548Z" fill="#677D9F"/>
<path d="M67.7871 89.0758C69.0943 102.054 70.775 131.419 71.3352 138.469C71.8954 145.518 65.7329 187.068 65.1727 197.339C62.4183 197.853 57.6097 198.46 56.676 197.339C55.7423 189.589 49.3931 165.78 54.2016 141.643C55.1354 136.321 48.366 123.763 46.7787 113.446C45.1914 103.128 45.0046 83.2868 45.0046 83.2868L53.3146 78.3381L67.7871 89.0758Z" fill="#677D9F"/>
<path d="M82.3529 34.9673C87.1615 36.8347 89.4491 37.3482 89.4491 37.3482C92.3903 34.6872 104.762 22.9225 106.956 21.9888C109.664 23.7628 110.878 25.6302 110.878 25.6302C110.878 25.6302 99.3464 53.3613 86.6946 53.408C81.3725 53.268 74.7899 51.4939 67.7871 50.14C60.7843 48.7862 78.7114 36.4612 78.7114 36.4612L82.3529 34.9673Z" fill="#F8A87F"/>
<path d="M50.2801 103.548C50.0467 106.909 49.7666 110.224 49.3931 113.539C49.0196 116.853 48.5994 120.168 48.1326 123.483C47.619 126.797 47.1055 130.112 46.4519 133.38C46.3119 134.22 46.1251 135.014 45.9384 135.854C45.7516 136.695 45.5649 137.488 45.3781 138.282L45.0513 139.496C44.958 139.916 44.8179 140.289 44.7246 140.71C44.5845 141.13 44.4911 141.503 44.3511 141.923L43.8842 143.091C44.071 142.297 44.3044 141.457 44.4444 140.663C44.5378 140.243 44.6312 139.869 44.6779 139.449L44.8646 138.235C45.0047 137.395 45.1447 136.601 45.2848 135.761C45.4248 134.921 45.5649 134.127 45.6583 133.287L47.1055 123.389L48.5994 113.492C49.1597 110.177 49.6732 106.863 50.2801 103.548Z" fill="#526989"/>
<path d="M23.6694 99.3465C23.6694 99.3465 31.5593 101.307 34.3137 93.1841" stroke="#526989" stroke-width="2.0393" stroke-miterlimit="10"/>
<path d="M27.0308 99.4866C27.0308 99.4866 30.0653 127.638 29.0382 135.995C27.9645 144.304 20.0747 150.794 16.6666 197.292" stroke="#526989" stroke-width="2.0393" stroke-miterlimit="10"/>
<path d="M59.8973 28.1514C59.8973 28.1514 76.0037 31.4193 83.0999 34.6406C81.3725 35.9478 77.2175 49.6266 80.0653 55.9758C74.183 55.9758 67.4603 53.5015 67.4603 53.5015L62.6517 41.6901L59.8973 28.1514Z" fill="#FFE269"/>
<path d="M59.8973 28.1514C59.8973 28.1514 71.7087 32.1663 71.3352 42.8573C70.2147 51.1206 69.6545 57.7966 70.2147 64.5192C70.7749 71.2419 72.9225 82.2597 72.549 94.0711C55.6956 95.2849 55.5088 93.3241 45.1914 92.9506C33.38 93.1374 30.5322 96.8722 20.8683 94.1644C18.8608 68.4408 25.8636 48.7396 25.8636 48.7396L43.8842 28.1514H59.8973Z" fill="#FFE269"/>
<path d="M71.3352 42.8572C71.1484 43.9776 71.055 45.0514 70.9617 46.1252C70.8683 47.1989 70.7749 48.3194 70.7282 49.3931C70.6349 50.4669 70.5882 51.5873 70.4948 52.6611C70.4015 53.7349 70.2614 54.8553 69.9813 55.9758C69.8879 54.8553 69.7945 53.7815 69.7479 52.6611C69.7012 51.5407 69.7479 50.4669 69.7945 49.3464C69.8879 48.226 69.9813 47.1055 70.2614 46.0318C70.4948 44.9113 70.8216 43.8376 71.3352 42.8572Z" fill="#EDBB3E"/>
<path d="M62.6517 14.0057C63.9589 14.846 66.1064 12.9786 64.986 11.3446C66.1531 10.691 67.3203 7.37636 63.8655 6.02248C64.3324 4.0617 62.5584 1.77412 60.0373 1.21389C58.6835 0.840409 56.9094 0.793724 56.8161 1.12052C55.6489 0.0934433 53.6881 0.0934433 52.7077 1.40063C52.2876 -0.700208 48.8329 -0.139983 48.3193 1.40063C46.9654 1.35395 45.098 3.31473 45.2848 4.57524C43.8842 4.76198 43.0906 7.00287 43.4174 8.02995C41.5966 8.68355 40.7563 11.0178 41.6433 12.325C40.3828 13.8189 42.3903 15.5463 42.8571 15.6863C42.4837 16.6667 42.5303 18.8143 43.9776 19.6079C44.0243 22.5958 46.5453 22.0822 47.0121 21.7554C47.4323 21.382 49.3464 20.3549 49.3464 20.3549L51.4939 18.9076L59.3371 16.2466L62.6517 14.0057Z" fill="#663B3B"/>
<path d="M47.1522 19.748C47.1522 19.748 47.8525 25.1635 46.2185 27.4511C45.6583 28.0114 43.8842 28.1047 43.8842 28.1047C44.9113 30.4857 46.9188 37.1617 54.9486 36.4147C59.2904 35.6677 59.8973 28.805 59.944 28.1047C59.0103 28.058 58.0766 27.7779 58.0766 27.7779C57.6564 26.7508 57.6097 26.3774 58.0766 25.0235C58.5434 23.6696 47.1522 19.748 47.1522 19.748Z" fill="#F8A87F"/>
<path d="M62.6517 14.0056C62.6517 14.0056 63.212 28.7115 53.0345 26.4239C49.9066 25.7703 47.7124 22.9225 47.1989 19.7946C44.4444 19.9346 43.5574 14.239 46.1251 13.6788C47.3856 13.4454 48.4594 14.4724 48.5061 15.4062C48.9262 15.6396 50.887 14.9393 51.3539 12.6517C51.7274 13.8189 54.2017 14.0056 54.4351 12.7451C54.4818 13.7722 56.7694 14.5191 57.1429 13.0719C57.7498 14.0523 60.7843 14.7992 61.0644 12.5583C61.7647 13.6788 62.6517 14.0056 62.6517 14.0056Z" fill="#F8A87F"/>
<g opacity="0.5">
<path d="M57.7498 26.0505C56.9561 26.5173 56.0691 26.7508 55.1354 26.7974C54.2017 26.8441 53.3147 26.7041 52.4277 26.4706C51.5406 26.1905 50.7003 25.7237 50.0467 25.1168C49.3464 24.5099 48.7862 23.7629 48.4127 22.9692C49.4865 24.3698 50.9337 25.5369 52.5677 26.0038C53.4081 26.2372 54.2951 26.3773 55.1354 26.424C56.0224 26.4706 56.9095 26.3773 57.7498 26.0505Z" fill="#CC727D"/>
</g>
<g opacity="0.5">
<path d="M57.0028 16.0598C57.0028 16.5734 57.0028 17.0869 57.0495 17.6004C57.0962 17.8339 57.0962 18.114 57.1896 18.3474C57.2363 18.5808 57.3296 18.8142 57.4697 18.9076C57.5164 18.9076 57.5164 18.9543 57.5631 18.9543C57.6564 19.001 57.7031 19.001 57.7965 19.0477C57.9365 19.141 58.0766 19.2344 58.1233 19.4212C58.2633 19.7013 58.31 20.0281 58.17 20.3549C58.0766 20.635 57.8432 20.8684 57.5631 20.9618C57.2829 21.0551 57.0028 21.0551 56.7694 20.9618C57.0495 20.9618 57.2829 20.9151 57.4697 20.775C57.6564 20.635 57.7965 20.4482 57.8432 20.2615C57.8899 20.0748 57.8432 19.8413 57.7498 19.6546C57.7031 19.5612 57.6097 19.5145 57.5631 19.4678L57.423 19.4212C57.3296 19.3745 57.2363 19.3278 57.1896 19.2811C56.9095 19.0477 56.8161 18.7209 56.7694 18.4875C56.7227 18.2073 56.7227 17.9272 56.7227 17.6938C56.7227 17.0869 56.8161 16.5734 57.0028 16.0598Z" fill="#CC727D"/>
</g>
<path d="M53.1279 18.1139C53.6694 18.1139 54.1083 17.6749 54.1083 17.1335C54.1083 16.592 53.6694 16.1531 53.1279 16.1531C52.5865 16.1531 52.1475 16.592 52.1475 17.1335C52.1475 17.6749 52.5865 18.1139 53.1279 18.1139Z" fill="#2B2928"/>
<path d="M59.8973 17.6471C60.4388 17.6471 60.8777 17.2081 60.8777 16.6667C60.8777 16.1252 60.4388 15.6863 59.8973 15.6863C59.3559 15.6863 58.9169 16.1252 58.9169 16.6667C58.9169 17.2081 59.3559 17.6471 59.8973 17.6471Z" fill="#2B2928"/>
<path d="M58.0766 14.5191C58.6835 13.6788 60.7843 13.0252 61.2979 14.2857C61.3446 14.3791 61.2512 14.4724 61.1578 14.3791C60.691 13.9589 60.2241 13.7722 59.5705 13.9122C59.057 14.0056 58.5901 14.2857 58.1233 14.5658C58.0766 14.5658 58.0299 14.5191 58.0766 14.5191Z" fill="#2B2928"/>
<path d="M50.2801 14.5191C50.8403 13.6788 52.8945 12.8851 53.5014 14.1456C53.5481 14.239 53.4547 14.3324 53.3614 14.2857C52.8478 13.8655 52.4276 13.7254 51.7741 13.9122C51.2605 14.0522 50.7937 14.3324 50.3735 14.6592C50.3268 14.6125 50.2334 14.5658 50.2801 14.5191Z" fill="#2B2928"/>
<path d="M53.4547 17.3203C53.6352 17.3203 53.7815 17.174 53.7815 16.9935C53.7815 16.8131 53.6352 16.6667 53.4547 16.6667C53.2742 16.6667 53.1279 16.8131 53.1279 16.9935C53.1279 17.174 53.2742 17.3203 53.4547 17.3203Z" fill="white"/>
<path d="M60.2708 16.8067C60.4513 16.8067 60.5976 16.6604 60.5976 16.4799C60.5976 16.2994 60.4513 16.1531 60.2708 16.1531C60.0903 16.1531 59.944 16.2994 59.944 16.4799C59.944 16.6604 60.0903 16.8067 60.2708 16.8067Z" fill="white"/>
<path d="M57.6097 22.5024C57.6097 22.5024 55.649 22.0355 54.4818 21.522C54.2484 22.3623 54.3884 24.4165 55.9291 24.4632C57.5631 24.5098 57.6097 22.5024 57.6097 22.5024Z" fill="white"/>
<path d="M63.0719 76.4706C43.1839 83.1933 33.7535 82.9132 28.8982 81.1391C26.704 80.3455 24.9299 78.7582 23.7161 76.7507C21.5686 73.2026 19.4678 68.6741 22.9225 49.5798C25.5369 52.4743 33.9402 52.5677 40.2427 52.8945C39.0289 58.5434 38.3753 67.8338 38.2353 69.5145C43.1839 69.2344 60.3174 70.3548 60.3174 70.3548C60.3174 70.3548 62.1849 72.2222 63.0719 76.4706Z" fill="#F8A87F"/>
<g opacity="0.5">
<path d="M38.2353 69.5146C37.7218 69.748 37.2549 69.7947 36.7414 69.8414C36.2278 69.8881 35.7143 69.8414 35.2007 69.7013C35.6676 69.4679 36.1811 69.4212 36.6947 69.3745C37.2082 69.3745 37.7218 69.3745 38.2353 69.5146Z" fill="#CC727D"/>
</g>
<path d="M59.0569 77.451C60.1774 76.8908 62.6517 77.4044 65.7329 77.6845C68.8142 77.9646 70.028 78.5715 70.8216 77.6845C71.6153 76.7974 66.2465 75.2568 66.2465 75.2568C69.1876 74.79 74.183 75.0234 74.4631 73.3894C74.6498 72.4557 66.9934 72.9693 66.9934 72.9693C73.0158 71.6154 75.3968 71.0085 75.1634 70.0748C74.7432 68.6275 67.7404 70.6817 66.7133 70.6817C71.2885 69.001 73.1559 68.2073 72.7357 67.6938C72.3156 67.1803 66.2932 68.3941 65.5462 68.4408C66.2932 66.3866 67.3202 65.0327 67.7404 64.4725C67.2269 64.1924 65.5462 65.4996 63.0252 67.5071C61.1578 69.0477 59.4771 70.4016 57.9365 70.4016C56.3959 70.4482 55.4622 73.9963 55.4622 73.9963C55.4622 73.9963 55.9757 74.5566 56.4425 74.7433C56.9094 74.93 57.3296 75.4436 57.6564 75.5836C57.9832 75.7237 59.0569 77.451 59.0569 77.451Z" fill="#F8A87F"/>
<path d="M43.8842 28.1514C39.5425 28.7116 27.3576 30.2522 23.6694 39.636C20.2147 48.4128 19.3744 55.509 19.3744 55.509C19.3744 55.509 27.5443 64.4726 40.7096 60.0375C42.2969 53.875 42.1101 45.565 42.1101 45.565L43.8842 28.1514Z" fill="#FFE269"/>
<path d="M21.4752 57.0497C22.7824 58.1234 24.323 58.8704 25.8636 59.4306C27.4509 59.9908 29.0849 60.3176 30.7189 60.5044C32.3529 60.6911 34.0336 60.6444 35.7142 60.4577C37.3482 60.271 39.0289 59.9908 40.6162 59.5707L40.2894 59.9908C40.5228 57.7033 40.8496 55.4157 41.3165 53.1748C41.5499 52.0543 41.7833 50.9339 42.0635 49.8134C42.3436 48.693 42.6237 47.5725 42.9505 46.4988L42.3903 49.9068C42.2502 51.0273 42.0635 52.1477 41.8767 53.3148C41.69 54.4353 41.5966 55.6024 41.4565 56.7229C41.3165 57.8433 41.2231 59.0105 41.1297 60.1309L41.0831 60.4577L40.7563 60.5511C39.1223 61.0179 37.3949 61.3447 35.7142 61.4848C34.8739 61.5781 33.9869 61.5781 33.1466 61.5781C32.3062 61.5315 31.4192 61.4848 30.5789 61.3914C28.8515 61.158 27.1708 60.7378 25.6302 60.0375C24.8366 59.7107 24.0896 59.2906 23.3893 58.8237C22.7357 58.2168 22.0354 57.6566 21.4752 57.0497Z" fill="#EDBB3E"/>
<path d="M119.141 33.1466C125.303 33.1466 130.299 28.1511 130.299 21.9889C130.299 15.8266 125.303 10.8311 119.141 10.8311C112.979 10.8311 107.983 15.8266 107.983 21.9889C107.983 28.1511 112.979 33.1466 119.141 33.1466Z" fill="#CE4E4F"/>
<path opacity="0.25" d="M119.141 30.5324C123.859 30.5324 127.684 26.7074 127.684 21.989C127.684 17.2706 123.859 13.4456 119.141 13.4456C114.423 13.4456 110.598 17.2706 110.598 21.989C110.598 26.7074 114.423 30.5324 119.141 30.5324Z" fill="#D27671"/>
<path d="M107.049 23.3427C107.19 21.5686 106.256 21.1018 106.909 18.394C107.563 15.6863 108.637 15.4061 110.971 15.9197C112.418 16.3399 114.799 18.394 114.612 18.8609C114.379 19.3277 110.878 18.5808 109.944 18.5341C109.617 18.5808 108.217 18.4874 108.217 20.775C108.17 23.3427 108.357 24.5098 108.59 25.3034C108.263 26.2838 107.47 24.93 107.47 24.93L107.049 23.3427Z" fill="#F8A87F"/>
<path d="M106.723 19.6079C106.723 19.6079 106.723 22.0355 105.509 23.0159C105.602 23.9963 106.116 23.9963 106.443 23.7629C106.769 23.5295 107.096 22.6425 107.096 22.6425C107.096 22.6425 107.143 21.4286 107.19 21.1018C107.236 20.775 107.19 20.2148 107.19 20.2148L106.723 19.6079Z" fill="#F8A87F"/>
<g opacity="0.5">
<path d="M89.4491 37.3484C89.2623 37.6285 89.0756 37.9086 88.8888 38.1887C88.7021 38.4688 88.5154 38.7023 88.3286 38.9357C87.9551 39.4492 87.535 39.9161 87.0681 40.4296C87.1148 40.1028 87.2549 39.776 87.4416 39.4959C87.5817 39.2158 87.7684 38.9357 88.0018 38.6556C88.422 38.142 88.8888 37.6752 89.4491 37.3484Z" fill="#CC727D"/>
</g>
<path d="M14.4258 196.639L13.7722 203.035H32.6797C32.6797 203.035 31.0924 199.16 27.6844 198.599C25.4902 198.553 23.9029 198.599 23.9029 198.599L23.9962 197.292L14.4258 196.639Z" fill="#241526"/>
<path d="M23.9029 198.599L23.2026 199.813" stroke="white" stroke-width="1.0196" stroke-miterlimit="10" stroke-linecap="round" stroke-linejoin="round"/>
<path d="M26.3772 198.599L25.6769 199.813" stroke="white" stroke-width="1.0196" stroke-miterlimit="10" stroke-linecap="round" stroke-linejoin="round"/>
<path d="M55.6956 196.639L55.789 203.035H74.6966C74.6966 203.035 73.1092 199.16 69.7012 198.599C67.507 198.553 65.9197 198.599 65.9197 198.599L65.6863 196.405L55.6956 196.639Z" fill="#241526"/>
<path d="M65.9197 198.599L65.2194 199.813" stroke="white" stroke-width="1.0196" stroke-miterlimit="10" stroke-linecap="round" stroke-linejoin="round"/>
<path d="M68.4407 198.599L67.7404 199.813" stroke="white" stroke-width="1.0196" stroke-miterlimit="10" stroke-linecap="round" stroke-linejoin="round"/>
<path d="M120.168 105.182C119.421 107.937 116.2 110.178 116.2 110.178L111.578 111.952H107.143L102.988 111.345C102.988 111.345 101.587 107.89 101.681 103.828C101.494 101.541 99.2997 97.8993 98.9262 96.4987C98.5527 95.0981 103.641 97.199 103.641 97.199C104.949 95.9852 107.143 94.4445 107.143 94.4445C107.236 94.2111 109.804 89.4959 111.298 87.7219C111.625 87.3484 111.905 87.0683 112.091 87.0683C112.512 86.9749 113.492 87.0683 114.519 87.7219C116.2 88.7956 117.927 91.3633 117.367 97.2924C117.6 98.5529 121.288 101.774 120.168 105.182Z" fill="#C59474"/>
<path d="M103.081 112.418C103.081 112.418 105.182 119.748 100.887 127.451C97.3389 133.847 96.5453 143.418 96.6387 150.794C96.6853 153.782 96.2652 156.723 95.3781 159.571C94.3044 163.025 93.1372 167.881 93.6041 173.996C93.6041 177.731 93.4174 184.221 91.5966 187.348C89.7759 190.476 96.4986 192.437 99.5798 180.392C102.661 168.348 103.035 164.052 108.917 165.266C114.799 166.48 115.546 168.814 117.04 177.078C118.534 185.294 121.942 191.55 124.883 189.729C126.704 188.376 122.782 181.653 123.669 176.237C124.51 170.822 126.517 164.193 123.529 155.602C120.588 147.012 124.37 138.142 124.65 133.754C127.218 136.835 131.513 143.091 134.967 143.324C138.422 143.558 133.987 139.636 132.773 136.088C131.559 132.54 127.965 124.557 126.891 119.375C125.77 114.193 120.401 110.318 120.401 110.318L103.081 112.418Z" fill="#C59474"/>
<path d="M103.688 97.1523C103.688 97.1523 105.415 93.4642 110.224 94.678L103.688 97.1523Z" fill="#C59474"/>
<path d="M103.688 97.1523C104.108 95.9385 105.182 94.9581 106.443 94.5379C107.049 94.3512 107.75 94.2111 108.357 94.2578C108.683 94.2578 109.01 94.3512 109.337 94.3979C109.664 94.4913 109.944 94.5846 110.271 94.678C109.944 94.678 109.617 94.6313 109.337 94.6313H108.87C108.73 94.6313 108.543 94.6313 108.403 94.6313C108.263 94.6313 108.077 94.678 107.936 94.678C107.796 94.678 107.656 94.7247 107.47 94.7714C107.33 94.7714 107.19 94.8181 107.049 94.8647C106.909 94.9114 106.769 94.9581 106.629 95.0048C106.069 95.1915 105.556 95.5183 105.042 95.8451C104.528 96.2186 104.062 96.6388 103.688 97.1523Z" fill="#AF7C5F"/>
<path d="M114.566 87.6752C112.932 89.0758 111.345 87.6752 111.345 87.6752C111.671 87.3017 111.951 87.0216 112.138 87.0216C112.558 86.9283 113.539 87.0216 114.566 87.6752Z" fill="#2B2928"/>
<path d="M110.784 98.693C111.018 97.806 111.298 96.9657 111.718 96.172C111.905 95.7519 112.138 95.3784 112.372 94.9582C112.512 94.7715 112.652 94.5847 112.932 94.4447C112.979 94.398 113.072 94.398 113.165 94.3513C113.305 94.3513 113.352 94.3513 113.399 94.398C113.539 94.398 113.632 94.4447 113.772 94.5381C114.239 94.7715 114.566 95.145 114.799 95.5651C115.033 95.9853 115.173 96.4055 115.266 96.8723C115.453 97.7593 115.5 98.6931 115.406 99.5801C115.313 98.6931 115.126 97.806 114.893 96.9657C114.753 96.5455 114.612 96.1254 114.379 95.7986C114.146 95.4251 113.912 95.145 113.539 94.9582C113.445 94.9115 113.352 94.8649 113.259 94.8649C113.119 94.8182 113.165 94.8182 113.072 94.8649C112.932 94.9115 112.792 95.0983 112.652 95.2383C112.372 95.5651 112.185 95.9386 111.951 96.3121C111.578 97.1058 111.158 97.8994 110.784 98.693Z" fill="#AF7C5F"/>
<path d="M101.214 96.2654C101.914 96.3121 102.568 96.4988 103.221 96.7789C103.548 96.919 103.875 97.059 104.155 97.2458C104.435 97.4325 104.762 97.6193 104.949 97.9461C104.622 97.806 104.295 97.7126 103.968 97.5726C103.641 97.4792 103.315 97.3391 103.035 97.1991C102.428 96.919 101.774 96.6855 101.214 96.2654Z" fill="#AF7C5F"/>
<path d="M126.891 119.421C126.424 118.301 125.303 116.34 122.876 115.22C122.409 114.986 121.895 114.799 121.335 114.659C120.075 114.333 118.534 114.239 116.667 114.473C115.966 114.566 115.313 114.613 114.659 114.659C114.146 114.706 113.585 114.706 113.119 114.706C111.064 114.706 109.244 114.519 107.656 114.239C106.396 114.006 105.322 113.679 104.528 113.352C104.435 113.306 104.342 113.259 104.248 113.212C103.688 112.932 103.268 112.699 103.081 112.419C102.708 111.952 102.288 111.532 102.054 111.158C101.681 110.598 101.681 110.131 102.521 109.664C102.521 109.664 103.501 110.084 105.042 110.364C105.509 110.458 106.022 110.551 106.583 110.598C107.703 110.738 108.964 110.738 110.317 110.551C110.831 110.504 111.298 110.411 111.811 110.271C114.799 109.524 117.974 107.61 120.355 103.362C126.237 106.163 128.105 110.691 126.891 119.421Z" fill="#CE4E4F"/>
<path d="M104.949 112.465C104.902 112.745 104.762 113.025 104.528 113.305C104.435 113.445 104.295 113.586 104.155 113.726C103.828 114.006 103.455 114.286 102.988 114.566C102.568 114.799 102.054 114.986 101.541 115.173C100.14 115.593 98.4594 115.64 96.8721 115.033C97.2456 114.052 97.7124 113.305 98.2259 112.745C98.5994 112.325 99.0196 112.045 99.4398 111.812C100.42 111.298 101.401 111.205 102.101 111.205C102.708 111.205 103.081 111.345 103.081 111.345L104.575 112.278L104.949 112.465Z" fill="#CE4E4F"/>
<path d="M108.03 118.814C107.423 118.581 106.863 118.301 106.443 118.021C105.929 117.694 105.509 117.321 105.229 116.947C104.295 115.873 104.155 114.659 104.202 113.772C104.202 113.586 104.248 113.399 104.295 113.259C104.388 112.792 104.528 112.465 104.575 112.278C104.622 112.185 104.622 112.138 104.622 112.138C106.256 112.465 107.19 113.259 107.703 114.286C107.75 114.379 107.843 114.519 107.89 114.659C108.077 115.126 108.217 115.64 108.263 116.2C108.263 116.994 108.17 117.927 108.03 118.814Z" fill="#CE4E4F"/>
<path d="M104.155 155.649C104.155 155.649 96.1718 167.087 82.5397 155.135C87.3483 160.318 96.592 166.293 106.209 158.824" fill="#C59474"/>
<path d="M94.6779 162.232C95.7049 162.278 96.732 162.278 97.7591 162.138C98.7862 161.998 99.7666 161.812 100.747 161.531C101.727 161.251 102.661 160.831 103.548 160.411C103.781 160.318 104.015 160.178 104.248 160.037C104.482 159.897 104.715 159.804 104.902 159.664C105.369 159.431 105.789 159.15 106.209 158.87C105.836 159.244 105.415 159.571 105.042 159.851C104.855 159.991 104.622 160.131 104.388 160.271C104.155 160.411 103.968 160.551 103.735 160.691C102.848 161.205 101.867 161.671 100.887 161.952C99.9066 162.232 98.8329 162.465 97.8058 162.465C97.2922 162.465 96.7787 162.465 96.2652 162.418C95.7049 162.418 95.1914 162.325 94.6779 162.232Z" fill="#AF7C5F"/>
<path d="M104.155 155.649C103.688 156.396 103.128 157.096 102.474 157.703C101.821 158.31 101.074 158.824 100.28 159.291C99.9066 159.524 99.4864 159.711 99.0663 159.898C98.6461 160.038 98.2259 160.224 97.7591 160.318C96.8721 160.551 95.985 160.598 95.098 160.598C95.985 160.411 96.8254 160.271 97.6657 159.944C98.5061 159.664 99.2997 159.337 100.047 158.87C100.794 158.45 101.541 157.983 102.194 157.423C102.894 156.91 103.548 156.303 104.155 155.649Z" fill="#AF7C5F"/>
<path d="M125.07 126.984C125.21 127.545 125.303 128.105 125.35 128.665C125.397 129.225 125.397 129.832 125.397 130.392C125.35 130.953 125.303 131.56 125.21 132.12C125.117 132.68 124.93 133.24 124.697 133.754C124.837 132.633 124.883 131.513 124.93 130.392C124.93 129.272 124.977 128.152 125.07 126.984Z" fill="#AF7C5F"/>
<path d="M135.341 142.017C135.574 142.064 135.808 142.204 135.994 142.391C136.134 142.577 136.275 142.857 136.181 143.091C136.088 142.857 135.948 142.717 135.808 142.531C135.668 142.391 135.481 142.204 135.341 142.017Z" fill="#AF7C5F"/>
<path d="M89.309 188.095C88.9822 189.076 89.4024 190.15 90.2894 190.663C90.5695 190.803 90.803 190.383 90.5228 190.243C89.8226 189.823 89.4958 188.982 89.7759 188.189C89.8693 187.909 89.4024 187.815 89.309 188.095Z" fill="#383F4F"/>
<path d="M88.0952 190.803C88.282 191.597 88.8422 192.157 89.5892 192.437C89.8693 192.531 90.0093 192.064 89.7292 191.97C89.1223 191.737 88.7021 191.27 88.5621 190.663C88.4687 190.383 88.0019 190.523 88.0952 190.803Z" fill="#383F4F"/>
<path d="M126.377 190.29C126.471 190.897 126.19 191.55 125.63 191.877C125.35 192.017 125.63 192.437 125.864 192.297C126.611 191.83 126.937 191.037 126.844 190.196C126.797 189.87 126.331 190.01 126.377 190.29Z" fill="#383F4F"/>
<path d="M126.891 191.97C126.937 192.437 126.657 192.857 126.19 192.997C125.91 193.091 126.004 193.511 126.331 193.464C126.984 193.277 127.451 192.67 127.358 191.97C127.311 191.643 126.844 191.643 126.891 191.97Z" fill="#383F4F"/>
<path d="M127.218 106.583C127.544 106.816 127.824 107.096 128.058 107.423C128.291 107.75 128.478 108.077 128.665 108.403C128.805 108.777 128.945 109.15 129.038 109.524C129.085 109.897 129.085 110.318 128.992 110.691C128.898 110.318 128.805 109.944 128.711 109.617C128.571 109.291 128.431 108.917 128.291 108.59C127.918 107.937 127.544 107.283 127.218 106.583Z" fill="#383F4F"/>
<path d="M126.564 104.949C126.937 105.042 127.311 105.229 127.638 105.462C127.965 105.649 128.291 105.929 128.571 106.209C128.852 106.489 129.085 106.816 129.272 107.143C129.458 107.47 129.599 107.89 129.599 108.263C129.365 107.937 129.178 107.656 128.945 107.33C128.711 107.05 128.478 106.769 128.198 106.536C127.684 105.976 127.124 105.509 126.564 104.949Z" fill="#383F4F"/>
<path d="M121.195 106.583C121.633 106.583 121.989 106.228 121.989 105.789C121.989 105.351 121.633 104.996 121.195 104.996C120.757 104.996 120.401 105.351 120.401 105.789C120.401 106.228 120.757 106.583 121.195 106.583Z" fill="#CE4E4F"/>
<path d="M125.163 111.485C125.602 111.485 125.957 111.129 125.957 110.691C125.957 110.253 125.602 109.897 125.163 109.897C124.725 109.897 124.37 110.253 124.37 110.691C124.37 111.129 124.725 111.485 125.163 111.485Z" fill="#CE4E4F"/>
<path d="M118.487 111.485C118.926 111.485 119.281 111.129 119.281 110.691C119.281 110.253 118.926 109.897 118.487 109.897C118.049 109.897 117.694 110.253 117.694 110.691C117.694 111.129 118.049 111.485 118.487 111.485Z" fill="#CE4E4F"/>
<path d="M122.876 115.22C122.409 114.986 121.895 114.8 121.335 114.659C121.382 114.566 121.429 114.426 121.522 114.333C121.802 114.006 122.316 113.959 122.689 114.286C122.923 114.566 122.969 114.94 122.876 115.22Z" fill="#CE4E4F"/>
<path d="M111.251 111.485C110.831 111.578 110.364 111.298 110.271 110.878C110.271 110.784 110.271 110.691 110.271 110.598C110.784 110.551 111.251 110.458 111.765 110.318C111.811 110.411 111.858 110.458 111.858 110.551C111.998 110.971 111.718 111.391 111.251 111.485Z" fill="#CE4E4F"/>
<path d="M114.659 114.659C114.146 114.706 113.585 114.706 113.119 114.706C113.165 114.426 113.399 114.193 113.726 114.099C114.146 114.052 114.566 114.286 114.659 114.659Z" fill="#CE4E4F"/>
<path d="M105.929 111.485C105.509 111.578 105.042 111.298 104.949 110.878C104.902 110.691 104.949 110.505 104.995 110.365C105.462 110.458 105.976 110.551 106.536 110.598C106.629 111.018 106.349 111.392 105.929 111.485Z" fill="#CE4E4F"/>
<path d="M99.1597 113.259C98.7395 113.352 98.3193 113.119 98.226 112.699C98.5994 112.278 99.0196 111.998 99.4398 111.765C99.6265 111.858 99.7666 112.045 99.8133 112.278C99.8599 112.745 99.5798 113.165 99.1597 113.259Z" fill="#CE4E4F"/>
<path d="M102.988 114.566C102.568 114.8 102.054 114.986 101.541 115.173C101.447 115.08 101.401 114.986 101.401 114.846C101.307 114.426 101.587 113.959 102.007 113.866C102.474 113.773 102.894 114.053 102.988 114.473C102.988 114.473 102.988 114.519 102.988 114.566Z" fill="#CE4E4F"/>
<path d="M108.17 116.107C107.796 116.107 107.47 115.827 107.423 115.453C107.33 115.08 107.516 114.706 107.843 114.566C108.03 115.08 108.123 115.593 108.17 116.107Z" fill="#CE4E4F"/>
<path d="M106.396 117.974C105.882 117.647 105.462 117.274 105.182 116.9C105.275 116.807 105.415 116.714 105.602 116.667C106.022 116.574 106.489 116.854 106.583 117.274C106.629 117.554 106.536 117.787 106.396 117.974Z" fill="#CE4E4F"/>
</g>
<defs>
<clipPath id="clip0_209_1312">
<rect width="150" height="210.738" fill="white"/>
</clipPath>
</defs>
</svg>
