<svg width="25" height="25" viewBox="0 0 25 25" fill="none" xmlns="http://www.w3.org/2000/svg">
<path fill-rule="evenodd" clip-rule="evenodd" d="M8.26276 22.5C7.85076 22.5 7.45976 22.468 7.09176 22.405L6.87376 22.364C4.50276 21.871 3.12476 20.055 3.12476 17.291V7.709C3.12476 7.375 3.14476 7.055 3.18476 6.749C3.53376 4.064 5.37876 2.5 8.26276 2.5H15.9878C19.1838 2.5 21.0948 4.42 21.1248 7.632V7.709V17.291C21.1248 20.548 19.2088 22.5 15.9878 22.5H8.26276ZM8.26276 3.957C5.80676 3.957 4.56176 5.22 4.56176 7.709V17.291C4.56176 19.78 5.80676 21.043 8.26276 21.043H15.9788C18.4338 21.043 19.6708 19.78 19.6708 17.291V7.709C19.6708 5.22 18.4338 3.957 15.9788 3.957H8.26276ZM16.4308 16.734C16.4308 16.334 16.1118 16.01 15.7178 16.01H8.50676C8.11276 16.01 7.79276 16.334 7.79276 16.734C7.79276 17.134 8.11276 17.458 8.50676 17.458H15.7178C16.1118 17.458 16.4308 17.134 16.4308 16.734ZM15.7178 11.771C15.9928 11.741 16.2618 11.873 16.4088 12.11C16.5558 12.349 16.5558 12.651 16.4088 12.89C16.2618 13.127 15.9928 13.259 15.7178 13.229H8.50676C8.14076 13.187 7.86376 12.874 7.86376 12.5C7.86376 12.126 8.14076 11.812 8.50676 11.771H15.7178ZM11.9018 8.271C11.9018 7.897 11.6248 7.583 11.2588 7.542H8.51576C8.14876 7.583 7.87176 7.897 7.87176 8.271C7.87176 8.644 8.14876 8.958 8.51576 8.999H11.2588C11.6248 8.958 11.9018 8.644 11.9018 8.271Z" fill="#D2D2D2"/>
</svg>
