<?xml version="1.0" encoding="UTF-8"?>
<!-- Generator: CustomSymbols v2.6.7.45 by @serious_bret https://bretlester.com/app_content/CustomSymbols/ -->
<!-- Guides: Left/Right 0.0/0.0 Cap/Base 0.151/0.151 -->
<!-- Settings: RefScale 1.0 Min/Max Stroke Scales 0.5/2.21 -->
<!DOCTYPE svg
PUBLIC "-//W3C//DTD SVG 1.1//EN"
       "http://www.w3.org/Graphics/SVG/1.1/DTD/svg11.dtd">
<svg version="1.1" xmlns="http://www.w3.org/2000/svg" xmlns:xlink="http://www.w3.org/1999/xlink" width="3300" height="2200">
<![CDATA[<svg id="Layer_4" height="512" viewBox="0 0 24 24" width="512" xmlns="http://www.w3.org/2000/svg" xmlns:xlink="http://www.w3.org/1999/xlink" data-name="Layer 4"><linearGradient id="linear-gradient" gradientUnits="userSpaceOnUse" x1="3.074" x2="13.634" y1="9.22" y2="19.78"><stop offset="0" stop-color="#fd0"/><stop offset="1" stop-color="#feb100"/></linearGradient><linearGradient id="linear-gradient-2" gradientUnits="userSpaceOnUse" x1="10.366" x2="20.926" y1="4.22" y2="14.78"><stop offset="0" stop-color="#6be8a7"/><stop offset="1" stop-color="#01b59c"/></linearGradient><g id="Gradient"><g id="spin"><path d="m15.707 16.293-2-2a1 1 0 0 0 -1.414 1.414l.268.268c-.188.007-.368.025-.561.025-4.714 0-8-2.108-8-4 0-1.026.891-2.056 2.443-2.824a1 1 0 0 0 -.886-1.793c-2.257 1.117-3.557 2.801-3.557 4.617 0 3.364 4.393 6 10 6 .21 0 .408-.02.613-.027l-.32.32a1 1 0 1 0 1.414 1.414l2-2a1 1 0 0 0 0-1.414z" fill="url(#linear-gradient)"/><path d="m12 6c-.21 0-.408.02-.613.027l.32-.32a1 1 0 1 0 -1.414-1.414l-2 2a1 1 0 0 0 0 1.414l2 2a1 1 0 0 0 1.414-1.414l-.268-.268c.188-.007.368-.025.561-.025 4.714 0 8 2.108 8 4 0 1.026-.891 2.056-2.443 2.824a1 1 0 0 0 .886 1.793c2.257-1.117 3.557-2.801 3.557-4.617 0-3.364-4.393-6-10-6z" fill="url(#linear-gradient-2)"/></g></g></svg>]]>
 <g id="Notes">
  <rect height="2200" id="artboard" style="fill:white;opacity:1" width="3300" x="0" y="0"/>
  <line id="" style="fill:none;stroke:black;opacity:1;stroke-width:0.5;" x1="263" x2="3036" y1="292" y2="292"/>
  <text id="reftext1" style="stroke:none;fill:black;font-family:-apple-system,&quot;SF Pro Display&quot;,&quot;SF Pro Text&quot;,Helvetica,sans-serif;font-weight:bold;" transform="matrix(1 0 0 1 263 322)">Weight/Scale Variations</text>
  <text id="reftext2" style="stroke:none;fill:black;font-family:-apple-system,&quot;SF Pro Display&quot;,&quot;SF Pro Text&quot;,Helvetica,sans-serif;text-anchor:middle;" transform="matrix(1 0 0 1 559.711 322)">Ultralight</text>
  <text style="stroke:none;fill:black;font-family:-apple-system,&quot;SF Pro Display&quot;,&quot;SF Pro Text&quot;,Helvetica,sans-serif;text-anchor:middle;" transform="matrix(1 0 0 1 856.422 322)">Thin</text>
  <text style="stroke:none;fill:black;font-family:-apple-system,&quot;SF Pro Display&quot;,&quot;SF Pro Text&quot;,Helvetica,sans-serif;text-anchor:middle;" transform="matrix(1 0 0 1 1153.13 322)">Light</text>
  <text style="stroke:none;fill:black;font-family:-apple-system,&quot;SF Pro Display&quot;,&quot;SF Pro Text&quot;,Helvetica,sans-serif;text-anchor:middle;" transform="matrix(1 0 0 1 1449.84 322)">Regular</text>
  <text style="stroke:none;fill:black;font-family:-apple-system,&quot;SF Pro Display&quot;,&quot;SF Pro Text&quot;,Helvetica,sans-serif;text-anchor:middle;" transform="matrix(1 0 0 1 1746.56 322)">Medium</text>
  <text style="stroke:none;fill:black;font-family:-apple-system,&quot;SF Pro Display&quot;,&quot;SF Pro Text&quot;,Helvetica,sans-serif;text-anchor:middle;" transform="matrix(1 0 0 1 2043.27 322)">Semibold</text>
  <text style="stroke:none;fill:black;font-family:-apple-system,&quot;SF Pro Display&quot;,&quot;SF Pro Text&quot;,Helvetica,sans-serif;text-anchor:middle;" transform="matrix(1 0 0 1 2339.98 322)">Bold</text>
  <text style="stroke:none;fill:black;font-family:-apple-system,&quot;SF Pro Display&quot;,&quot;SF Pro Text&quot;,Helvetica,sans-serif;text-anchor:middle;" transform="matrix(1 0 0 1 2636.69 322)">Heavy</text>
  <text style="stroke:none;fill:black;font-family:-apple-system,&quot;SF Pro Display&quot;,&quot;SF Pro Text&quot;,Helvetica,sans-serif;text-anchor:middle;" transform="matrix(1 0 0 1 2933.4 322)">Black</text>
  <line id="" style="fill:none;stroke:black;opacity:1;stroke-width:0.5;" x1="263" x2="3036" y1="1903" y2="1903"/>
  <g id="" transform="matrix(1 0 0 1 263 1933)">
   <path d="M9.24805 0.830078C13.5547 0.830078 17.1387-2.74414 17.1387-7.05078C17.1387-11.3574 13.5449-14.9316 9.23828-14.9316C4.94141-14.9316 1.36719-11.3574 1.36719-7.05078C1.36719-2.74414 4.95117 0.830078 9.24805 0.830078ZM9.24805-0.654297C5.70312-0.654297 2.87109-3.49609 2.87109-7.05078C2.87109-10.6055 5.69336-13.4473 9.23828-13.4473C12.793-13.4473 15.6348-10.6055 15.6445-7.05078C15.6543-3.49609 12.8027-0.654297 9.24805-0.654297ZM6.39648-6.31836L8.50586-6.31836L8.50586-4.19922C8.50586-3.75977 8.79883-3.45703 9.22852-3.45703C9.67773-3.45703 9.9707-3.75977 9.9707-4.19922L9.9707-6.31836L12.0996-6.31836C12.5391-6.31836 12.8418-6.61133 12.8418-7.04102C12.8418-7.48047 12.5391-7.7832 12.0996-7.7832L9.9707-7.7832L9.9707-9.89258C9.9707-10.3418 9.67773-10.6445 9.22852-10.6445C8.79883-10.6445 8.50586-10.3418 8.50586-9.89258L8.50586-7.7832L6.39648-7.7832C5.94727-7.7832 5.64453-7.48047 5.64453-7.04102C5.64453-6.61133 5.94727-6.31836 6.39648-6.31836Z"/>
  </g>
  <g id="" transform="matrix(1 0 0 1 281.506 1933)">
   <path d="M11.709 2.91016C17.1582 2.91016 21.6699-1.61133 21.6699-7.05078C21.6699-12.5 17.1484-17.0117 11.6992-17.0117C6.25977-17.0117 1.74805-12.5 1.74805-7.05078C1.74805-1.61133 6.26953 2.91016 11.709 2.91016ZM11.709 1.25C7.09961 1.25 3.41797-2.44141 3.41797-7.05078C3.41797-11.6602 7.08984-15.3516 11.6992-15.3516C16.3086-15.3516 20-11.6602 20.0098-7.05078C20.0195-2.44141 16.3184 1.25 11.709 1.25ZM7.98828-6.23047L10.8789-6.23047L10.8789-3.32031C10.8789-2.83203 11.2109-2.5 11.6895-2.5C12.1777-2.5 12.5195-2.83203 12.5195-3.32031L12.5195-6.23047L15.4297-6.23047C15.918-6.23047 16.25-6.5625 16.25-7.04102C16.25-7.5293 15.918-7.87109 15.4297-7.87109L12.5195-7.87109L12.5195-10.7617C12.5195-11.2695 12.1777-11.6016 11.6895-11.6016C11.2109-11.6016 10.8789-11.2598 10.8789-10.7617L10.8789-7.87109L7.98828-7.87109C7.48047-7.87109 7.14844-7.5293 7.14844-7.04102C7.14844-6.5625 7.49023-6.23047 7.98828-6.23047Z"/>
  </g>
  <g id="" transform="matrix(1 0 0 1 304.924 1933)">
   <path d="M14.9707 5.66406C21.9336 5.66406 27.6953-0.0976562 27.6953-7.05078C27.6953-14.0137 21.9238-19.7754 14.9609-19.7754C8.00781-19.7754 2.25586-14.0137 2.25586-7.05078C2.25586-0.0976562 8.01758 5.66406 14.9707 5.66406ZM14.9707 3.84766C8.93555 3.84766 4.08203-1.01562 4.08203-7.05078C4.08203-13.0957 8.92578-17.9492 14.9609-17.9492C21.0059-17.9492 25.8594-13.0957 25.8691-7.05078C25.8789-1.01562 21.0156 3.84766 14.9707 3.84766ZM10.0586-6.14258L14.0625-6.14258L14.0625-2.12891C14.0625-1.5918 14.4336-1.2207 14.9512-1.2207C15.4883-1.2207 15.8594-1.5918 15.8594-2.12891L15.8594-6.14258L19.8828-6.14258C20.4102-6.14258 20.791-6.51367 20.791-7.03125C20.791-7.56836 20.4199-7.94922 19.8828-7.94922L15.8594-7.94922L15.8594-11.9531C15.8594-12.5098 15.4883-12.8809 14.9512-12.8809C14.4336-12.8809 14.0625-12.5 14.0625-11.9531L14.0625-7.94922L10.0586-7.94922C9.50195-7.94922 9.13086-7.56836 9.13086-7.03125C9.13086-6.51367 9.51172-6.14258 10.0586-6.14258Z"/>
  </g>
  <text style="stroke:none;fill:black;font-family:-apple-system,&quot;SF Pro Display&quot;,&quot;SF Pro Text&quot;,Helvetica,sans-serif;font-weight:bold;" transform="matrix(1 0 0 1 263 1953)">Design Variations</text>
  <text style="stroke:none;fill:black;font-family:-apple-system,&quot;SF Pro Display&quot;,&quot;SF Pro Text&quot;,Helvetica,sans-serif;" transform="matrix(1 0 0 1 263 1971)">Symbols are supported in up to nine weights and three scales.</text>
  <text style="stroke:none;fill:black;font-family:-apple-system,&quot;SF Pro Display&quot;,&quot;SF Pro Text&quot;,Helvetica,sans-serif;" transform="matrix(1 0 0 1 263 1989)">For optimal layout with text and other symbols, vertically align</text>
  <text style="stroke:none;fill:black;font-family:-apple-system,&quot;SF Pro Display&quot;,&quot;SF Pro Text&quot;,Helvetica,sans-serif;" transform="matrix(1 0 0 1 263 2007)">symbols with the adjacent text.</text>
  <line id="" style="fill:none;stroke:#00AEEF;stroke-width:0.5;opacity:1.0;" x1="776" x2="776" y1="1919" y2="1933"/>
  <g id="" transform="matrix(1 0 0 1 776 1933)">
   <path d="M3.31055 0.126953C3.82812 0.126953 4.08203-0.0683594 4.26758-0.605469L5.52734-4.0625L11.2891-4.0625L12.5488-0.605469C12.7344-0.0683594 12.9883 0.126953 13.4961 0.126953C14.0137 0.126953 14.3457-0.185547 14.3457-0.673828C14.3457-0.839844 14.3164-0.986328 14.2383-1.20117L9.6582-13.3887C9.43359-13.9941 9.0332-14.2871 8.4082-14.2871C7.80273-14.2871 7.39258-13.9941 7.17773-13.3984L2.59766-1.19141C2.51953-0.976562 2.49023-0.830078 2.49023-0.664062C2.49023-0.175781 2.80273 0.126953 3.31055 0.126953ZM6.00586-5.53711L8.37891-12.1094L8.42773-12.1094L10.8008-5.53711Z"/>
  </g>
  <line id="" style="fill:none;stroke:#00AEEF;stroke-width:0.5;opacity:1.0;" x1="792.836" x2="792.836" y1="1919" y2="1933"/>
  <text style="stroke:none;fill:black;font-family:-apple-system,&quot;SF Pro Display&quot;,&quot;SF Pro Text&quot;,Helvetica,sans-serif;font-weight:bold;" transform="matrix(1 0 0 1 776 1953)">Margins</text>
  <text style="stroke:none;fill:black;font-family:-apple-system,&quot;SF Pro Display&quot;,&quot;SF Pro Text&quot;,Helvetica,sans-serif;" transform="matrix(1 0 0 1 776 1971)">Leading and trailing margins on the left and right side of each symbol</text>
  <text style="stroke:none;fill:black;font-family:-apple-system,&quot;SF Pro Display&quot;,&quot;SF Pro Text&quot;,Helvetica,sans-serif;" transform="matrix(1 0 0 1 776 1989)">can be adjusted by modifying the x-location of the margin guidelines.</text>
  <text style="stroke:none;fill:black;font-family:-apple-system,&quot;SF Pro Display&quot;,&quot;SF Pro Text&quot;,Helvetica,sans-serif;" transform="matrix(1 0 0 1 776 2007)">Modifications are automatically applied proportionally to all</text>
  <text style="stroke:none;fill:black;font-family:-apple-system,&quot;SF Pro Display&quot;,&quot;SF Pro Text&quot;,Helvetica,sans-serif;" transform="matrix(1 0 0 1 776 2025)">scales and weights.</text>
  <g id="" transform="matrix(1 0 0 1 1289 1933)">
   <path d="M2.8418 1.86523L4.54102 3.57422C5.40039 4.44336 6.38672 4.38477 7.31445 3.35938L17.4902-7.85156C17.7539-7.76367 18.0273-7.7832 18.3398-7.8418L19.4043-8.03711L20.0684-7.36328L20.0293-6.80664C19.9902-6.30859 20.1172-5.92773 20.6055-5.44922L21.3672-4.70703C21.8457-4.22852 22.4609-4.19922 22.9297-4.66797L25.8398-7.58789C26.3086-8.05664 26.2891-8.65234 25.8105-9.13086L25.0391-9.89258C24.5605-10.3711 24.1895-10.5273 23.7109-10.4883L23.1348-10.4395L22.4902-11.0742L22.7344-12.1973C22.8613-12.7637 22.7051-13.2031 22.1191-13.7891L19.9219-15.9766C16.582-19.2969 12.1484-19.2188 9.25781-16.3281C8.83789-15.918 8.80859-15.3418 9.04297-14.9512C9.27734-14.5898 9.73633-14.3555 10.3809-14.5215C11.8457-14.8633 13.3691-14.9219 14.7949-13.9844L14.209-12.5293C14.0137-12.0508 13.9844-11.6504 14.1113-11.2891L3.04688-0.898438C2.06055 0.0195312 1.98242 0.996094 2.8418 1.86523ZM10.752-15.957C13.1836-17.7344 16.4746-17.4316 18.7012-15.2051L21.1328-12.793C21.3672-12.5586 21.4062-12.373 21.3379-12.0312L21.0156-10.5469L22.5195-9.0625L23.5059-9.12109C23.7598-9.13086 23.8379-9.11133 24.0332-8.91602L24.6094-8.33984L22.168-5.89844L21.5918-6.47461C21.3965-6.66992 21.3672-6.74805 21.377-7.01172L21.4453-7.98828L19.9512-9.47266L18.4277-9.21875C18.1055-9.15039 17.959-9.17969 17.7148-9.41406L15.7129-11.416C15.459-11.6504 15.4297-11.8164 15.5859-12.1875L16.4648-14.2773C14.9023-15.7324 12.8711-16.3574 10.8398-15.7617C10.6836-15.7227 10.625-15.8496 10.752-15.957ZM5.27344 2.30469L4.10156 1.14258C3.63281 0.683594 3.74023 0.341797 4.14062-0.0195312L14.9512-10.1953L16.416-8.71094L6.42578 2.27539C6.07422 2.67578 5.74219 2.77344 5.27344 2.30469Z"/>
  </g>
  <text style="stroke:none;fill:black;font-family:-apple-system,&quot;SF Pro Display&quot;,&quot;SF Pro Text&quot;,Helvetica,sans-serif;font-weight:bold;" transform="matrix(1 0 0 1 1289 1953)">Exporting</text>
  <text style="stroke:none;fill:black;font-family:-apple-system,&quot;SF Pro Display&quot;,&quot;SF Pro Text&quot;,Helvetica,sans-serif;" transform="matrix(1 0 0 1 1289 1971)">Symbols should be outlined when exporting to ensure the</text>
  <text style="stroke:none;fill:black;font-family:-apple-system,&quot;SF Pro Display&quot;,&quot;SF Pro Text&quot;,Helvetica,sans-serif;" transform="matrix(1 0 0 1 1289 1989)">design is preserved when submitting to Xcode.</text>
  <text id="template-version" style="stroke:none;fill:black;font-family:-apple-system,&quot;SF Pro Display&quot;,&quot;SF Pro Text&quot;,Helvetica,sans-serif;text-anchor:end;" transform="matrix(1 0 0 1 3036 1933)">Template v.2.0</text>
  <text style="stroke:none;fill:black;font-family:-apple-system,&quot;SF Pro Display&quot;,&quot;SF Pro Text&quot;,Helvetica,sans-serif;text-anchor:end;" transform="matrix(1 0 0 1 3036 1951)">Requires Xcode 12 or greater</text>
  <text style="stroke:none;fill:black;font-family:-apple-system,&quot;SF Pro Display&quot;,&quot;SF Pro Text&quot;,Helvetica,sans-serif;" transform="matrix(1 0 0 1 263 726)">Small</text>
  <text style="stroke:none;fill:black;font-family:-apple-system,&quot;SF Pro Display&quot;,&quot;SF Pro Text&quot;,Helvetica,sans-serif;" transform="matrix(1 0 0 1 263 1156)">Medium</text>
  <text style="stroke:none;fill:black;font-family:-apple-system,&quot;SF Pro Display&quot;,&quot;SF Pro Text&quot;,Helvetica,sans-serif;" transform="matrix(1 0 0 1 263 1586)">Large</text>
 </g>
 <g id="Guides">
  <g id="H-reference" style="fill:#27AAE1;stroke:none;" transform="matrix(1 0 0 1 339 696)">
   <path d="M0.976562 0L3.66211 0L12.9883-24.4629L45.752-24.4629L55.127 0L57.7637 0L30.6152-70.459L28.125-70.459ZM29.3457-67.1387L29.4434-67.1387L44.873-26.709L13.8672-26.709Z"/>
  </g>
  <line id="Baseline-S" style="fill:none;stroke:#27AAE1;opacity:1;stroke-width:0.5;" x1="263" x2="3036" y1="696" y2="696"/>
  <line id="Capline-S" style="fill:none;stroke:#27AAE1;opacity:1;stroke-width:0.5;" x1="263" x2="3036" y1="625.541" y2="625.541"/>
  <g id="H-reference" style="fill:#27AAE1;stroke:none;" transform="matrix(1 0 0 1 339 1126)">
   <path d="M0.976562 0L3.66211 0L12.9883-24.4629L45.752-24.4629L55.127 0L57.7637 0L30.6152-70.459L28.125-70.459ZM29.3457-67.1387L29.4434-67.1387L44.873-26.709L13.8672-26.709Z"/>
  </g>
  <line id="Baseline-M" style="fill:none;stroke:#27AAE1;opacity:1;stroke-width:0.5;" x1="263" x2="3036" y1="1126" y2="1126"/>
  <line id="Capline-M" style="fill:none;stroke:#27AAE1;opacity:1;stroke-width:0.5;" x1="263" x2="3036" y1="1055.54" y2="1055.54"/>
  <g id="H-reference" style="fill:#27AAE1;stroke:none;" transform="matrix(1 0 0 1 339 1556)">
   <path d="M0.976562 0L3.66211 0L12.9883-24.4629L45.752-24.4629L55.127 0L57.7637 0L30.6152-70.459L28.125-70.459ZM29.3457-67.1387L29.4434-67.1387L44.873-26.709L13.8672-26.709Z"/>
  </g>
  <line id="Baseline-L" style="fill:none;stroke:#27AAE1;opacity:1;stroke-width:0.5;" x1="263" x2="3036" y1="1556" y2="1556"/>
  <line id="Capline-L" style="fill:none;stroke:#27AAE1;opacity:1;stroke-width:0.5;" x1="263" x2="3036" y1="1485.54" y2="1485.54"/>
  <line id="left-margin" x1="1400.6572486121058" x2="1400.6572486121058" y1="1030.79" y2="1150.12" style="fill:none;stroke:#00AEEF;stroke-width:0.5;opacity:1.0;"/>
  <line id="right-margin" x1="1501.602751387894" x2="1501.602751387894" y1="1030.79" y2="1150.12" style="fill:none;stroke:#00AEEF;stroke-width:0.5;opacity:1.0;"/>
 </g>
 <g id="Symbols">
  <g id="Black-L" transform="matrix(1.0,0.0,0.0,1.0,2869.5701507096164,1455.6601702408668)">  <path xmlns:xlink="http://www.w3.org/1999/xlink" stroke-linecap="butt" data-name="Layer 4" stroke-dasharray="none" stroke-opacity="1" fill-opacity="1" stroke-width="1px" fill="#000000" stroke-linejoin="miter" stroke-miterlimit="4" fill-rule="nonzero" stroke="none" d="M85.223,88.403L74.372,77.551C72.243,75.495,68.859,75.524,66.766,77.617C64.673,79.71,64.643,83.094,66.7,85.223L68.154,86.677C67.134,86.715,66.157,86.813,65.11,86.813C39.533,86.813,21.703,75.375,21.703,65.11C21.703,59.543,26.538,53.954,34.959,49.787C37.625,48.449,38.711,45.209,37.389,42.534C36.067,39.86,32.834,38.754,30.151,40.059C17.905,46.119,10.852,55.257,10.852,65.11C10.852,83.362,34.687,97.665,65.11,97.665C66.249,97.665,67.324,97.556,68.436,97.518L66.7,99.255C65.289,100.617,64.723,102.634,65.22,104.531C65.717,106.428,67.198,107.91,69.095,108.406C70.992,108.903,73.009,108.337,74.372,106.927L85.223,96.075C87.342,93.956,87.342,90.522,85.223,88.403ZM85.223,88.403"/>
  <path stroke-width="1px" stroke-opacity="1" fill-opacity="1" stroke-linejoin="miter" stroke-dasharray="none" stroke-linecap="butt" stroke="none" data-name="Layer 4" stroke-miterlimit="4" fill="#000000" xmlns:xlink="http://www.w3.org/1999/xlink" fill-rule="nonzero" d="M65.11,32.555C63.97,32.555,62.896,32.663,61.784,32.701L63.52,30.965C64.931,29.603,65.496,27.586,65,25.689C64.503,23.791,63.022,22.31,61.125,21.813C59.228,21.317,57.21,21.883,55.848,23.293L44.996,34.145C42.878,36.263,42.878,39.698,44.996,41.817L55.848,52.668C57.977,54.725,61.361,54.695,63.454,52.602C65.547,50.509,65.576,47.125,63.52,44.996L62.066,43.542C63.086,43.504,64.063,43.407,65.11,43.407C90.687,43.407,108.516,54.844,108.516,65.11C108.516,70.677,103.682,76.265,95.261,80.432C92.595,81.771,91.509,85.011,92.831,87.685C94.152,90.36,97.386,91.466,100.068,90.161C112.314,84.1,119.368,74.963,119.368,65.11C119.368,46.857,95.532,32.555,65.11,32.555ZM65.11,32.555"/>
</g>
  <g id="Heavy-L" transform="matrix(1.0,0.0,0.0,1.0,2572.8601507096164,1455.6601702408668)">  <path stroke-width="1px" xmlns:xlink="http://www.w3.org/1999/xlink" stroke-miterlimit="4" stroke="none" data-name="Layer 4" fill="#000000" stroke-dasharray="none" fill-rule="nonzero" stroke-opacity="1" stroke-linecap="butt" fill-opacity="1" stroke-linejoin="miter" d="M85.223,88.403L74.372,77.551C72.243,75.495,68.859,75.524,66.766,77.617C64.673,79.71,64.643,83.094,66.7,85.223L68.154,86.677C67.134,86.715,66.157,86.813,65.11,86.813C39.533,86.813,21.703,75.375,21.703,65.11C21.703,59.543,26.538,53.954,34.959,49.787C37.625,48.449,38.711,45.209,37.389,42.534C36.067,39.86,32.834,38.754,30.151,40.059C17.905,46.119,10.852,55.257,10.852,65.11C10.852,83.362,34.687,97.665,65.11,97.665C66.249,97.665,67.324,97.556,68.436,97.518L66.7,99.255C65.289,100.617,64.723,102.634,65.22,104.531C65.717,106.428,67.198,107.91,69.095,108.406C70.992,108.903,73.009,108.337,74.372,106.927L85.223,96.075C87.342,93.956,87.342,90.522,85.223,88.403ZM85.223,88.403"/>
  <path stroke="none" stroke-linejoin="miter" xmlns:xlink="http://www.w3.org/1999/xlink" fill-opacity="1" fill-rule="nonzero" fill="#000000" stroke-dasharray="none" data-name="Layer 4" stroke-linecap="butt" stroke-opacity="1" stroke-miterlimit="4" stroke-width="1px" d="M65.11,32.555C63.97,32.555,62.896,32.663,61.784,32.701L63.52,30.965C64.931,29.603,65.496,27.586,65,25.689C64.503,23.791,63.022,22.31,61.125,21.813C59.228,21.317,57.21,21.883,55.848,23.293L44.996,34.145C42.878,36.263,42.878,39.698,44.996,41.817L55.848,52.668C57.977,54.725,61.361,54.695,63.454,52.602C65.547,50.509,65.576,47.125,63.52,44.996L62.066,43.542C63.086,43.504,64.063,43.407,65.11,43.407C90.687,43.407,108.516,54.844,108.516,65.11C108.516,70.677,103.682,76.265,95.261,80.432C92.595,81.771,91.509,85.011,92.831,87.685C94.152,90.36,97.386,91.466,100.068,90.161C112.314,84.1,119.368,74.963,119.368,65.11C119.368,46.857,95.532,32.555,65.11,32.555ZM65.11,32.555"/>
</g>
  <g id="Bold-L" transform="matrix(1.0,0.0,0.0,1.0,2276.1501507096164,1455.6601702408668)">  <path stroke-opacity="1" fill-rule="nonzero" fill-opacity="1" stroke-linejoin="miter" stroke-width="1px" stroke-miterlimit="4" stroke-linecap="butt" fill="#000000" stroke="none" data-name="Layer 4" stroke-dasharray="none" xmlns:xlink="http://www.w3.org/1999/xlink" d="M85.223,88.403L74.372,77.551C72.243,75.495,68.859,75.524,66.766,77.617C64.673,79.71,64.643,83.094,66.7,85.223L68.154,86.677C67.134,86.715,66.157,86.813,65.11,86.813C39.533,86.813,21.703,75.375,21.703,65.11C21.703,59.543,26.538,53.954,34.959,49.787C37.625,48.449,38.711,45.209,37.389,42.534C36.067,39.86,32.834,38.754,30.151,40.059C17.905,46.119,10.852,55.257,10.852,65.11C10.852,83.362,34.687,97.665,65.11,97.665C66.249,97.665,67.324,97.556,68.436,97.518L66.7,99.255C65.289,100.617,64.723,102.634,65.22,104.531C65.717,106.428,67.198,107.91,69.095,108.406C70.992,108.903,73.009,108.337,74.372,106.927L85.223,96.075C87.342,93.956,87.342,90.522,85.223,88.403ZM85.223,88.403"/>
  <path data-name="Layer 4" stroke-width="1px" stroke-linejoin="miter" xmlns:xlink="http://www.w3.org/1999/xlink" fill-opacity="1" stroke-opacity="1" stroke-miterlimit="4" stroke="none" stroke-dasharray="none" fill-rule="nonzero" fill="#000000" stroke-linecap="butt" d="M65.11,32.555C63.97,32.555,62.896,32.663,61.784,32.701L63.52,30.965C64.931,29.603,65.496,27.586,65,25.689C64.503,23.791,63.022,22.31,61.125,21.813C59.228,21.317,57.21,21.883,55.848,23.293L44.996,34.145C42.878,36.263,42.878,39.698,44.996,41.817L55.848,52.668C57.977,54.725,61.361,54.695,63.454,52.602C65.547,50.509,65.576,47.125,63.52,44.996L62.066,43.542C63.086,43.504,64.063,43.407,65.11,43.407C90.687,43.407,108.516,54.844,108.516,65.11C108.516,70.677,103.682,76.265,95.261,80.432C92.595,81.771,91.509,85.011,92.831,87.685C94.152,90.36,97.386,91.466,100.068,90.161C112.314,84.1,119.368,74.963,119.368,65.11C119.368,46.857,95.532,32.555,65.11,32.555ZM65.11,32.555"/>
</g>
  <g id="Semibold-L" transform="matrix(1.0,0.0,0.0,1.0,1979.4401507096168,1455.6601702408668)">  <path data-name="Layer 4" stroke-width="1px" stroke-linecap="butt" xmlns:xlink="http://www.w3.org/1999/xlink" fill-opacity="1" stroke-miterlimit="4" stroke-dasharray="none" fill-rule="nonzero" fill="#000000" stroke="none" stroke-opacity="1" stroke-linejoin="miter" d="M85.223,88.403L74.372,77.551C72.243,75.495,68.859,75.524,66.766,77.617C64.673,79.71,64.643,83.094,66.7,85.223L68.154,86.677C67.134,86.715,66.157,86.813,65.11,86.813C39.533,86.813,21.703,75.375,21.703,65.11C21.703,59.543,26.538,53.954,34.959,49.787C37.625,48.449,38.711,45.209,37.389,42.534C36.067,39.86,32.834,38.754,30.151,40.059C17.905,46.119,10.852,55.257,10.852,65.11C10.852,83.362,34.687,97.665,65.11,97.665C66.249,97.665,67.324,97.556,68.436,97.518L66.7,99.255C65.289,100.617,64.723,102.634,65.22,104.531C65.717,106.428,67.198,107.91,69.095,108.406C70.992,108.903,73.009,108.337,74.372,106.927L85.223,96.075C87.342,93.956,87.342,90.522,85.223,88.403ZM85.223,88.403"/>
  <path fill-opacity="1" stroke-width="1px" xmlns:xlink="http://www.w3.org/1999/xlink" data-name="Layer 4" stroke-linejoin="miter" fill-rule="nonzero" stroke="none" stroke-dasharray="none" fill="#000000" stroke-opacity="1" stroke-miterlimit="4" stroke-linecap="butt" d="M65.11,32.555C63.97,32.555,62.896,32.663,61.784,32.701L63.52,30.965C64.931,29.603,65.496,27.586,65,25.689C64.503,23.791,63.022,22.31,61.125,21.813C59.228,21.317,57.21,21.883,55.848,23.293L44.996,34.145C42.878,36.263,42.878,39.698,44.996,41.817L55.848,52.668C57.977,54.725,61.361,54.695,63.454,52.602C65.547,50.509,65.576,47.125,63.52,44.996L62.066,43.542C63.086,43.504,64.063,43.407,65.11,43.407C90.687,43.407,108.516,54.844,108.516,65.11C108.516,70.677,103.682,76.265,95.261,80.432C92.595,81.771,91.509,85.011,92.831,87.685C94.152,90.36,97.386,91.466,100.068,90.161C112.314,84.1,119.368,74.963,119.368,65.11C119.368,46.857,95.532,32.555,65.11,32.555ZM65.11,32.555"/>
</g>
  <g id="Medium-L" transform="matrix(1.0,0.0,0.0,1.0,1682.7301507096167,1455.6601702408668)">  <path stroke-dasharray="none" fill="#000000" data-name="Layer 4" stroke-opacity="1" stroke="none" xmlns:xlink="http://www.w3.org/1999/xlink" fill-opacity="1" stroke-width="1px" stroke-linecap="butt" fill-rule="nonzero" stroke-linejoin="miter" stroke-miterlimit="4" d="M85.223,88.403L74.372,77.551C72.243,75.495,68.859,75.524,66.766,77.617C64.673,79.71,64.643,83.094,66.7,85.223L68.154,86.677C67.134,86.715,66.157,86.813,65.11,86.813C39.533,86.813,21.703,75.375,21.703,65.11C21.703,59.543,26.538,53.954,34.959,49.787C37.625,48.449,38.711,45.209,37.389,42.534C36.067,39.86,32.834,38.754,30.151,40.059C17.905,46.119,10.852,55.257,10.852,65.11C10.852,83.362,34.687,97.665,65.11,97.665C66.249,97.665,67.324,97.556,68.436,97.518L66.7,99.255C65.289,100.617,64.723,102.634,65.22,104.531C65.717,106.428,67.198,107.91,69.095,108.406C70.992,108.903,73.009,108.337,74.372,106.927L85.223,96.075C87.342,93.956,87.342,90.522,85.223,88.403ZM85.223,88.403"/>
  <path stroke-dasharray="none" fill-rule="nonzero" stroke="none" stroke-opacity="1" xmlns:xlink="http://www.w3.org/1999/xlink" stroke-linecap="butt" stroke-miterlimit="4" stroke-width="1px" stroke-linejoin="miter" fill="#000000" data-name="Layer 4" fill-opacity="1" d="M65.11,32.555C63.97,32.555,62.896,32.663,61.784,32.701L63.52,30.965C64.931,29.603,65.496,27.586,65,25.689C64.503,23.791,63.022,22.31,61.125,21.813C59.228,21.317,57.21,21.883,55.848,23.293L44.996,34.145C42.878,36.263,42.878,39.698,44.996,41.817L55.848,52.668C57.977,54.725,61.361,54.695,63.454,52.602C65.547,50.509,65.576,47.125,63.52,44.996L62.066,43.542C63.086,43.504,64.063,43.407,65.11,43.407C90.687,43.407,108.516,54.844,108.516,65.11C108.516,70.677,103.682,76.265,95.261,80.432C92.595,81.771,91.509,85.011,92.831,87.685C94.152,90.36,97.386,91.466,100.068,90.161C112.314,84.1,119.368,74.963,119.368,65.11C119.368,46.857,95.532,32.555,65.11,32.555ZM65.11,32.555"/>
</g>
  <g id="Regular-L" transform="matrix(1.0,0.0,0.0,1.0,1386.0201507096167,1455.6601702408668)">  <path stroke-linecap="butt" stroke-miterlimit="4" stroke-width="1px" stroke="none" fill-opacity="1" stroke-linejoin="miter" fill="#000000" xmlns:xlink="http://www.w3.org/1999/xlink" stroke-dasharray="none" data-name="Layer 4" stroke-opacity="1" fill-rule="nonzero" d="M85.223,88.403L74.372,77.551C72.243,75.495,68.859,75.524,66.766,77.617C64.673,79.71,64.643,83.094,66.7,85.223L68.154,86.677C67.134,86.715,66.157,86.813,65.11,86.813C39.533,86.813,21.703,75.375,21.703,65.11C21.703,59.543,26.538,53.954,34.959,49.787C37.625,48.449,38.711,45.209,37.389,42.534C36.067,39.86,32.834,38.754,30.151,40.059C17.905,46.119,10.852,55.257,10.852,65.11C10.852,83.362,34.687,97.665,65.11,97.665C66.249,97.665,67.324,97.556,68.436,97.518L66.7,99.255C65.289,100.617,64.723,102.634,65.22,104.531C65.717,106.428,67.198,107.91,69.095,108.406C70.992,108.903,73.009,108.337,74.372,106.927L85.223,96.075C87.342,93.956,87.342,90.522,85.223,88.403ZM85.223,88.403"/>
  <path fill="#000000" stroke="none" fill-opacity="1" stroke-linejoin="miter" fill-rule="nonzero" stroke-miterlimit="4" stroke-linecap="butt" stroke-dasharray="none" stroke-opacity="1" data-name="Layer 4" stroke-width="1px" xmlns:xlink="http://www.w3.org/1999/xlink" d="M65.11,32.555C63.97,32.555,62.896,32.663,61.784,32.701L63.52,30.965C64.931,29.603,65.496,27.586,65,25.689C64.503,23.791,63.022,22.31,61.125,21.813C59.228,21.317,57.21,21.883,55.848,23.293L44.996,34.145C42.878,36.263,42.878,39.698,44.996,41.817L55.848,52.668C57.977,54.725,61.361,54.695,63.454,52.602C65.547,50.509,65.576,47.125,63.52,44.996L62.066,43.542C63.086,43.504,64.063,43.407,65.11,43.407C90.687,43.407,108.516,54.844,108.516,65.11C108.516,70.677,103.682,76.265,95.261,80.432C92.595,81.771,91.509,85.011,92.831,87.685C94.152,90.36,97.386,91.466,100.068,90.161C112.314,84.1,119.368,74.963,119.368,65.11C119.368,46.857,95.532,32.555,65.11,32.555ZM65.11,32.555"/>
</g>
  <g id="Light-L" transform="matrix(1.0,0.0,0.0,1.0,1089.310150709617,1455.6601702408668)">  <path stroke-opacity="1" fill="#000000" stroke-miterlimit="4" stroke-linecap="butt" data-name="Layer 4" stroke-linejoin="miter" fill-opacity="1" stroke-dasharray="none" xmlns:xlink="http://www.w3.org/1999/xlink" stroke-width="1px" fill-rule="nonzero" stroke="none" d="M85.223,88.403L74.372,77.551C72.243,75.495,68.859,75.524,66.766,77.617C64.673,79.71,64.643,83.094,66.7,85.223L68.154,86.677C67.134,86.715,66.157,86.813,65.11,86.813C39.533,86.813,21.703,75.375,21.703,65.11C21.703,59.543,26.538,53.954,34.959,49.787C37.625,48.449,38.711,45.209,37.389,42.534C36.067,39.86,32.834,38.754,30.151,40.059C17.905,46.119,10.852,55.257,10.852,65.11C10.852,83.362,34.687,97.665,65.11,97.665C66.249,97.665,67.324,97.556,68.436,97.518L66.7,99.255C65.289,100.617,64.723,102.634,65.22,104.531C65.717,106.428,67.198,107.91,69.095,108.406C70.992,108.903,73.009,108.337,74.372,106.927L85.223,96.075C87.342,93.956,87.342,90.522,85.223,88.403ZM85.223,88.403"/>
  <path stroke="none" stroke-miterlimit="4" stroke-linecap="butt" fill-opacity="1" stroke-dasharray="none" fill-rule="nonzero" stroke-opacity="1" fill="#000000" stroke-width="1px" data-name="Layer 4" stroke-linejoin="miter" xmlns:xlink="http://www.w3.org/1999/xlink" d="M65.11,32.555C63.97,32.555,62.896,32.663,61.784,32.701L63.52,30.965C64.931,29.603,65.496,27.586,65,25.689C64.503,23.791,63.022,22.31,61.125,21.813C59.228,21.317,57.21,21.883,55.848,23.293L44.996,34.145C42.878,36.263,42.878,39.698,44.996,41.817L55.848,52.668C57.977,54.725,61.361,54.695,63.454,52.602C65.547,50.509,65.576,47.125,63.52,44.996L62.066,43.542C63.086,43.504,64.063,43.407,65.11,43.407C90.687,43.407,108.516,54.844,108.516,65.11C108.516,70.677,103.682,76.265,95.261,80.432C92.595,81.771,91.509,85.011,92.831,87.685C94.152,90.36,97.386,91.466,100.068,90.161C112.314,84.1,119.368,74.963,119.368,65.11C119.368,46.857,95.532,32.555,65.11,32.555ZM65.11,32.555"/>
</g>
  <g id="Thin-L" transform="matrix(1.0,0.0,0.0,1.0,792.6001507096169,1455.6601702408668)">  <path stroke-miterlimit="4" fill-opacity="1" fill-rule="nonzero" stroke-linejoin="miter" stroke-linecap="butt" data-name="Layer 4" stroke-dasharray="none" stroke-opacity="1" stroke="none" fill="#000000" xmlns:xlink="http://www.w3.org/1999/xlink" stroke-width="1px" d="M85.223,88.403L74.372,77.551C72.243,75.495,68.859,75.524,66.766,77.617C64.673,79.71,64.643,83.094,66.7,85.223L68.154,86.677C67.134,86.715,66.157,86.813,65.11,86.813C39.533,86.813,21.703,75.375,21.703,65.11C21.703,59.543,26.538,53.954,34.959,49.787C37.625,48.449,38.711,45.209,37.389,42.534C36.067,39.86,32.834,38.754,30.151,40.059C17.905,46.119,10.852,55.257,10.852,65.11C10.852,83.362,34.687,97.665,65.11,97.665C66.249,97.665,67.324,97.556,68.436,97.518L66.7,99.255C65.289,100.617,64.723,102.634,65.22,104.531C65.717,106.428,67.198,107.91,69.095,108.406C70.992,108.903,73.009,108.337,74.372,106.927L85.223,96.075C87.342,93.956,87.342,90.522,85.223,88.403ZM85.223,88.403"/>
  <path stroke-dasharray="none" fill="#000000" stroke-linecap="butt" data-name="Layer 4" fill-opacity="1" fill-rule="nonzero" stroke-width="1px" stroke="none" stroke-opacity="1" stroke-miterlimit="4" xmlns:xlink="http://www.w3.org/1999/xlink" stroke-linejoin="miter" d="M65.11,32.555C63.97,32.555,62.896,32.663,61.784,32.701L63.52,30.965C64.931,29.603,65.496,27.586,65,25.689C64.503,23.791,63.022,22.31,61.125,21.813C59.228,21.317,57.21,21.883,55.848,23.293L44.996,34.145C42.878,36.263,42.878,39.698,44.996,41.817L55.848,52.668C57.977,54.725,61.361,54.695,63.454,52.602C65.547,50.509,65.576,47.125,63.52,44.996L62.066,43.542C63.086,43.504,64.063,43.407,65.11,43.407C90.687,43.407,108.516,54.844,108.516,65.11C108.516,70.677,103.682,76.265,95.261,80.432C92.595,81.771,91.509,85.011,92.831,87.685C94.152,90.36,97.386,91.466,100.068,90.161C112.314,84.1,119.368,74.963,119.368,65.11C119.368,46.857,95.532,32.555,65.11,32.555ZM65.11,32.555"/>
</g>
  <g id="Ultralight-L" transform="matrix(1.0,0.0,0.0,1.0,495.89015070961676,1455.6601702408668)">  <path fill="#000000" stroke-miterlimit="4" stroke-opacity="1" stroke="none" stroke-dasharray="none" stroke-width="1px" fill-rule="nonzero" xmlns:xlink="http://www.w3.org/1999/xlink" data-name="Layer 4" stroke-linecap="butt" fill-opacity="1" stroke-linejoin="miter" d="M85.223,88.403L74.372,77.551C72.243,75.495,68.859,75.524,66.766,77.617C64.673,79.71,64.643,83.094,66.7,85.223L68.154,86.677C67.134,86.715,66.157,86.813,65.11,86.813C39.533,86.813,21.703,75.375,21.703,65.11C21.703,59.543,26.538,53.954,34.959,49.787C37.625,48.449,38.711,45.209,37.389,42.534C36.067,39.86,32.834,38.754,30.151,40.059C17.905,46.119,10.852,55.257,10.852,65.11C10.852,83.362,34.687,97.665,65.11,97.665C66.249,97.665,67.324,97.556,68.436,97.518L66.7,99.255C65.289,100.617,64.723,102.634,65.22,104.531C65.717,106.428,67.198,107.91,69.095,108.406C70.992,108.903,73.009,108.337,74.372,106.927L85.223,96.075C87.342,93.956,87.342,90.522,85.223,88.403ZM85.223,88.403"/>
  <path stroke-dasharray="none" stroke-opacity="1" data-name="Layer 4" stroke-width="1px" stroke="none" stroke-linecap="butt" stroke-miterlimit="4" fill-opacity="1" stroke-linejoin="miter" fill-rule="nonzero" fill="#000000" xmlns:xlink="http://www.w3.org/1999/xlink" d="M65.11,32.555C63.97,32.555,62.896,32.663,61.784,32.701L63.52,30.965C64.931,29.603,65.496,27.586,65,25.689C64.503,23.791,63.022,22.31,61.125,21.813C59.228,21.317,57.21,21.883,55.848,23.293L44.996,34.145C42.878,36.263,42.878,39.698,44.996,41.817L55.848,52.668C57.977,54.725,61.361,54.695,63.454,52.602C65.547,50.509,65.576,47.125,63.52,44.996L62.066,43.542C63.086,43.504,64.063,43.407,65.11,43.407C90.687,43.407,108.516,54.844,108.516,65.11C108.516,70.677,103.682,76.265,95.261,80.432C92.595,81.771,91.509,85.011,92.831,87.685C94.152,90.36,97.386,91.466,100.068,90.161C112.314,84.1,119.368,74.963,119.368,65.11C119.368,46.857,95.532,32.555,65.11,32.555ZM65.11,32.555"/>
</g>
  <g id="Black-M" transform="matrix(1.0,0.0,0.0,1.0,2884.207248612106,1040.297268143356)">  <path xmlns:xlink="http://www.w3.org/1999/xlink" stroke-linecap="butt" data-name="Layer 4" stroke-dasharray="none" stroke-opacity="1" fill-opacity="1" stroke-width="1px" fill="#000000" stroke-linejoin="miter" stroke-miterlimit="4" fill-rule="nonzero" stroke="none" d="M66.065,68.529L57.652,60.117C56.002,58.523,53.379,58.546,51.756,60.168C50.134,61.791,50.111,64.414,51.705,66.065L52.832,67.192C52.042,67.221,51.285,67.297,50.473,67.297C30.645,67.297,16.824,58.431,16.824,50.473C16.824,46.157,20.572,41.825,27.1,38.595C29.167,37.557,30.008,35.046,28.984,32.972C27.959,30.899,25.453,30.042,23.373,31.053C13.88,35.752,8.412,42.835,8.412,50.473C8.412,64.622,26.889,75.709,50.473,75.709C51.356,75.709,52.189,75.625,53.051,75.596L51.705,76.942C50.612,77.998,50.173,79.561,50.558,81.032C50.943,82.502,52.092,83.651,53.562,84.036C55.033,84.421,56.596,83.982,57.653,82.889L66.065,74.477C67.707,72.834,67.707,70.172,66.065,68.529ZM66.065,68.529"/>
  <path stroke-width="1px" stroke-opacity="1" fill-opacity="1" stroke-linejoin="miter" stroke-dasharray="none" stroke-linecap="butt" stroke="none" data-name="Layer 4" stroke-miterlimit="4" fill="#000000" xmlns:xlink="http://www.w3.org/1999/xlink" fill-rule="nonzero" d="M50.473,25.236C49.589,25.236,48.757,25.32,47.894,25.35L49.24,24.004C50.334,22.948,50.772,21.384,50.387,19.914C50.002,18.443,48.854,17.295,47.383,16.91C45.913,16.525,44.349,16.963,43.293,18.057L34.881,26.469C33.239,28.111,33.239,30.774,34.881,32.416L43.293,40.828C44.943,42.422,47.567,42.399,49.189,40.777C50.812,39.155,50.834,36.531,49.24,34.881L48.113,33.754C48.904,33.724,49.661,33.649,50.473,33.649C70.3,33.649,84.121,42.515,84.121,50.473C84.121,54.788,80.374,59.12,73.846,62.351C71.779,63.388,70.937,65.9,71.962,67.973C72.986,70.047,75.493,70.904,77.572,69.892C87.065,65.194,92.533,58.111,92.533,50.473C92.533,36.324,74.056,25.236,50.473,25.236ZM50.473,25.236"/>
</g>
  <g id="Heavy-M" transform="matrix(1.0,0.0,0.0,1.0,2587.497248612106,1040.297268143356)">  <path stroke-width="1px" xmlns:xlink="http://www.w3.org/1999/xlink" stroke-miterlimit="4" stroke="none" data-name="Layer 4" fill="#000000" stroke-dasharray="none" fill-rule="nonzero" stroke-opacity="1" stroke-linecap="butt" fill-opacity="1" stroke-linejoin="miter" d="M66.065,68.529L57.652,60.117C56.002,58.523,53.379,58.546,51.756,60.168C50.134,61.791,50.111,64.414,51.705,66.065L52.832,67.192C52.042,67.221,51.285,67.297,50.473,67.297C30.645,67.297,16.824,58.431,16.824,50.473C16.824,46.157,20.572,41.825,27.1,38.595C29.167,37.557,30.008,35.046,28.984,32.972C27.959,30.899,25.453,30.042,23.373,31.053C13.88,35.752,8.412,42.835,8.412,50.473C8.412,64.622,26.889,75.709,50.473,75.709C51.356,75.709,52.189,75.625,53.051,75.596L51.705,76.942C50.612,77.998,50.173,79.561,50.558,81.032C50.943,82.502,52.092,83.651,53.562,84.036C55.033,84.421,56.596,83.982,57.653,82.889L66.065,74.477C67.707,72.834,67.707,70.172,66.065,68.529ZM66.065,68.529"/>
  <path stroke="none" stroke-linejoin="miter" xmlns:xlink="http://www.w3.org/1999/xlink" fill-opacity="1" fill-rule="nonzero" fill="#000000" stroke-dasharray="none" data-name="Layer 4" stroke-linecap="butt" stroke-opacity="1" stroke-miterlimit="4" stroke-width="1px" d="M50.473,25.236C49.589,25.236,48.757,25.32,47.894,25.35L49.24,24.004C50.334,22.948,50.772,21.384,50.387,19.914C50.002,18.443,48.854,17.295,47.383,16.91C45.913,16.525,44.349,16.963,43.293,18.057L34.881,26.469C33.239,28.111,33.239,30.774,34.881,32.416L43.293,40.828C44.943,42.422,47.567,42.399,49.189,40.777C50.812,39.155,50.834,36.531,49.24,34.881L48.113,33.754C48.904,33.724,49.661,33.649,50.473,33.649C70.3,33.649,84.121,42.515,84.121,50.473C84.121,54.788,80.374,59.12,73.846,62.351C71.779,63.388,70.937,65.9,71.962,67.973C72.986,70.047,75.493,70.904,77.572,69.892C87.065,65.194,92.533,58.111,92.533,50.473C92.533,36.324,74.056,25.236,50.473,25.236ZM50.473,25.236"/>
</g>
  <g id="Bold-M" transform="matrix(1.0,0.0,0.0,1.0,2290.787248612106,1040.297268143356)">  <path stroke-opacity="1" fill-rule="nonzero" fill-opacity="1" stroke-linejoin="miter" stroke-width="1px" stroke-miterlimit="4" stroke-linecap="butt" fill="#000000" stroke="none" data-name="Layer 4" stroke-dasharray="none" xmlns:xlink="http://www.w3.org/1999/xlink" d="M66.065,68.529L57.652,60.117C56.002,58.523,53.379,58.546,51.756,60.168C50.134,61.791,50.111,64.414,51.705,66.065L52.832,67.192C52.042,67.221,51.285,67.297,50.473,67.297C30.645,67.297,16.824,58.431,16.824,50.473C16.824,46.157,20.572,41.825,27.1,38.595C29.167,37.557,30.008,35.046,28.984,32.972C27.959,30.899,25.453,30.042,23.373,31.053C13.88,35.752,8.412,42.835,8.412,50.473C8.412,64.622,26.889,75.709,50.473,75.709C51.356,75.709,52.189,75.625,53.051,75.596L51.705,76.942C50.612,77.998,50.173,79.561,50.558,81.032C50.943,82.502,52.092,83.651,53.562,84.036C55.033,84.421,56.596,83.982,57.653,82.889L66.065,74.477C67.707,72.834,67.707,70.172,66.065,68.529ZM66.065,68.529"/>
  <path data-name="Layer 4" stroke-width="1px" stroke-linejoin="miter" xmlns:xlink="http://www.w3.org/1999/xlink" fill-opacity="1" stroke-opacity="1" stroke-miterlimit="4" stroke="none" stroke-dasharray="none" fill-rule="nonzero" fill="#000000" stroke-linecap="butt" d="M50.473,25.236C49.589,25.236,48.757,25.32,47.894,25.35L49.24,24.004C50.334,22.948,50.772,21.384,50.387,19.914C50.002,18.443,48.854,17.295,47.383,16.91C45.913,16.525,44.349,16.963,43.293,18.057L34.881,26.469C33.239,28.111,33.239,30.774,34.881,32.416L43.293,40.828C44.943,42.422,47.567,42.399,49.189,40.777C50.812,39.155,50.834,36.531,49.24,34.881L48.113,33.754C48.904,33.724,49.661,33.649,50.473,33.649C70.3,33.649,84.121,42.515,84.121,50.473C84.121,54.788,80.374,59.12,73.846,62.351C71.779,63.388,70.937,65.9,71.962,67.973C72.986,70.047,75.493,70.904,77.572,69.892C87.065,65.194,92.533,58.111,92.533,50.473C92.533,36.324,74.056,25.236,50.473,25.236ZM50.473,25.236"/>
</g>
  <g id="Semibold-M" transform="matrix(1.0,0.0,0.0,1.0,1994.077248612106,1040.297268143356)">  <path data-name="Layer 4" stroke-width="1px" stroke-linecap="butt" xmlns:xlink="http://www.w3.org/1999/xlink" fill-opacity="1" stroke-miterlimit="4" stroke-dasharray="none" fill-rule="nonzero" fill="#000000" stroke="none" stroke-opacity="1" stroke-linejoin="miter" d="M66.065,68.529L57.652,60.117C56.002,58.523,53.379,58.546,51.756,60.168C50.134,61.791,50.111,64.414,51.705,66.065L52.832,67.192C52.042,67.221,51.285,67.297,50.473,67.297C30.645,67.297,16.824,58.431,16.824,50.473C16.824,46.157,20.572,41.825,27.1,38.595C29.167,37.557,30.008,35.046,28.984,32.972C27.959,30.899,25.453,30.042,23.373,31.053C13.88,35.752,8.412,42.835,8.412,50.473C8.412,64.622,26.889,75.709,50.473,75.709C51.356,75.709,52.189,75.625,53.051,75.596L51.705,76.942C50.612,77.998,50.173,79.561,50.558,81.032C50.943,82.502,52.092,83.651,53.562,84.036C55.033,84.421,56.596,83.982,57.653,82.889L66.065,74.477C67.707,72.834,67.707,70.172,66.065,68.529ZM66.065,68.529"/>
  <path fill-opacity="1" stroke-width="1px" xmlns:xlink="http://www.w3.org/1999/xlink" data-name="Layer 4" stroke-linejoin="miter" fill-rule="nonzero" stroke="none" stroke-dasharray="none" fill="#000000" stroke-opacity="1" stroke-miterlimit="4" stroke-linecap="butt" d="M50.473,25.236C49.589,25.236,48.757,25.32,47.894,25.35L49.24,24.004C50.334,22.948,50.772,21.384,50.387,19.914C50.002,18.443,48.854,17.295,47.383,16.91C45.913,16.525,44.349,16.963,43.293,18.057L34.881,26.469C33.239,28.111,33.239,30.774,34.881,32.416L43.293,40.828C44.943,42.422,47.567,42.399,49.189,40.777C50.812,39.155,50.834,36.531,49.24,34.881L48.113,33.754C48.904,33.724,49.661,33.649,50.473,33.649C70.3,33.649,84.121,42.515,84.121,50.473C84.121,54.788,80.374,59.12,73.846,62.351C71.779,63.388,70.937,65.9,71.962,67.973C72.986,70.047,75.493,70.904,77.572,69.892C87.065,65.194,92.533,58.111,92.533,50.473C92.533,36.324,74.056,25.236,50.473,25.236ZM50.473,25.236"/>
</g>
  <g id="Medium-M" transform="matrix(1.0,0.0,0.0,1.0,1697.3672486121059,1040.297268143356)">  <path stroke-dasharray="none" fill="#000000" data-name="Layer 4" stroke-opacity="1" stroke="none" xmlns:xlink="http://www.w3.org/1999/xlink" fill-opacity="1" stroke-width="1px" stroke-linecap="butt" fill-rule="nonzero" stroke-linejoin="miter" stroke-miterlimit="4" d="M66.065,68.529L57.652,60.117C56.002,58.523,53.379,58.546,51.756,60.168C50.134,61.791,50.111,64.414,51.705,66.065L52.832,67.192C52.042,67.221,51.285,67.297,50.473,67.297C30.645,67.297,16.824,58.431,16.824,50.473C16.824,46.157,20.572,41.825,27.1,38.595C29.167,37.557,30.008,35.046,28.984,32.972C27.959,30.899,25.453,30.042,23.373,31.053C13.88,35.752,8.412,42.835,8.412,50.473C8.412,64.622,26.889,75.709,50.473,75.709C51.356,75.709,52.189,75.625,53.051,75.596L51.705,76.942C50.612,77.998,50.173,79.561,50.558,81.032C50.943,82.502,52.092,83.651,53.562,84.036C55.033,84.421,56.596,83.982,57.653,82.889L66.065,74.477C67.707,72.834,67.707,70.172,66.065,68.529ZM66.065,68.529"/>
  <path stroke-dasharray="none" fill-rule="nonzero" stroke="none" stroke-opacity="1" xmlns:xlink="http://www.w3.org/1999/xlink" stroke-linecap="butt" stroke-miterlimit="4" stroke-width="1px" stroke-linejoin="miter" fill="#000000" data-name="Layer 4" fill-opacity="1" d="M50.473,25.236C49.589,25.236,48.757,25.32,47.894,25.35L49.24,24.004C50.334,22.948,50.772,21.384,50.387,19.914C50.002,18.443,48.854,17.295,47.383,16.91C45.913,16.525,44.349,16.963,43.293,18.057L34.881,26.469C33.239,28.111,33.239,30.774,34.881,32.416L43.293,40.828C44.943,42.422,47.567,42.399,49.189,40.777C50.812,39.155,50.834,36.531,49.24,34.881L48.113,33.754C48.904,33.724,49.661,33.649,50.473,33.649C70.3,33.649,84.121,42.515,84.121,50.473C84.121,54.788,80.374,59.12,73.846,62.351C71.779,63.388,70.937,65.9,71.962,67.973C72.986,70.047,75.493,70.904,77.572,69.892C87.065,65.194,92.533,58.111,92.533,50.473C92.533,36.324,74.056,25.236,50.473,25.236ZM50.473,25.236"/>
</g>
  <g id="Regular-M" transform="matrix(1.0,0.0,0.0,1.0,1400.6572486121058,1040.297268143356)">  <path stroke-linecap="butt" stroke-miterlimit="4" stroke-width="1px" stroke="none" fill-opacity="1" stroke-linejoin="miter" fill="#000000" xmlns:xlink="http://www.w3.org/1999/xlink" stroke-dasharray="none" data-name="Layer 4" stroke-opacity="1" fill-rule="nonzero" d="M66.065,68.529L57.652,60.117C56.002,58.523,53.379,58.546,51.756,60.168C50.134,61.791,50.111,64.414,51.705,66.065L52.832,67.192C52.042,67.221,51.285,67.297,50.473,67.297C30.645,67.297,16.824,58.431,16.824,50.473C16.824,46.157,20.572,41.825,27.1,38.595C29.167,37.557,30.008,35.046,28.984,32.972C27.959,30.899,25.453,30.042,23.373,31.053C13.88,35.752,8.412,42.835,8.412,50.473C8.412,64.622,26.889,75.709,50.473,75.709C51.356,75.709,52.189,75.625,53.051,75.596L51.705,76.942C50.612,77.998,50.173,79.561,50.558,81.032C50.943,82.502,52.092,83.651,53.562,84.036C55.033,84.421,56.596,83.982,57.653,82.889L66.065,74.477C67.707,72.834,67.707,70.172,66.065,68.529ZM66.065,68.529"/>
  <path fill="#000000" stroke="none" fill-opacity="1" stroke-linejoin="miter" fill-rule="nonzero" stroke-miterlimit="4" stroke-linecap="butt" stroke-dasharray="none" stroke-opacity="1" data-name="Layer 4" stroke-width="1px" xmlns:xlink="http://www.w3.org/1999/xlink" d="M50.473,25.236C49.589,25.236,48.757,25.32,47.894,25.35L49.24,24.004C50.334,22.948,50.772,21.384,50.387,19.914C50.002,18.443,48.854,17.295,47.383,16.91C45.913,16.525,44.349,16.963,43.293,18.057L34.881,26.469C33.239,28.111,33.239,30.774,34.881,32.416L43.293,40.828C44.943,42.422,47.567,42.399,49.189,40.777C50.812,39.155,50.834,36.531,49.24,34.881L48.113,33.754C48.904,33.724,49.661,33.649,50.473,33.649C70.3,33.649,84.121,42.515,84.121,50.473C84.121,54.788,80.374,59.12,73.846,62.351C71.779,63.388,70.937,65.9,71.962,67.973C72.986,70.047,75.493,70.904,77.572,69.892C87.065,65.194,92.533,58.111,92.533,50.473C92.533,36.324,74.056,25.236,50.473,25.236ZM50.473,25.236"/>
</g>
  <g id="Light-M" transform="matrix(1.0,0.0,0.0,1.0,1103.947248612106,1040.297268143356)">  <path stroke-opacity="1" fill="#000000" stroke-miterlimit="4" stroke-linecap="butt" data-name="Layer 4" stroke-linejoin="miter" fill-opacity="1" stroke-dasharray="none" xmlns:xlink="http://www.w3.org/1999/xlink" stroke-width="1px" fill-rule="nonzero" stroke="none" d="M66.065,68.529L57.652,60.117C56.002,58.523,53.379,58.546,51.756,60.168C50.134,61.791,50.111,64.414,51.705,66.065L52.832,67.192C52.042,67.221,51.285,67.297,50.473,67.297C30.645,67.297,16.824,58.431,16.824,50.473C16.824,46.157,20.572,41.825,27.1,38.595C29.167,37.557,30.008,35.046,28.984,32.972C27.959,30.899,25.453,30.042,23.373,31.053C13.88,35.752,8.412,42.835,8.412,50.473C8.412,64.622,26.889,75.709,50.473,75.709C51.356,75.709,52.189,75.625,53.051,75.596L51.705,76.942C50.612,77.998,50.173,79.561,50.558,81.032C50.943,82.502,52.092,83.651,53.562,84.036C55.033,84.421,56.596,83.982,57.653,82.889L66.065,74.477C67.707,72.834,67.707,70.172,66.065,68.529ZM66.065,68.529"/>
  <path stroke="none" stroke-miterlimit="4" stroke-linecap="butt" fill-opacity="1" stroke-dasharray="none" fill-rule="nonzero" stroke-opacity="1" fill="#000000" stroke-width="1px" data-name="Layer 4" stroke-linejoin="miter" xmlns:xlink="http://www.w3.org/1999/xlink" d="M50.473,25.236C49.589,25.236,48.757,25.32,47.894,25.35L49.24,24.004C50.334,22.948,50.772,21.384,50.387,19.914C50.002,18.443,48.854,17.295,47.383,16.91C45.913,16.525,44.349,16.963,43.293,18.057L34.881,26.469C33.239,28.111,33.239,30.774,34.881,32.416L43.293,40.828C44.943,42.422,47.567,42.399,49.189,40.777C50.812,39.155,50.834,36.531,49.24,34.881L48.113,33.754C48.904,33.724,49.661,33.649,50.473,33.649C70.3,33.649,84.121,42.515,84.121,50.473C84.121,54.788,80.374,59.12,73.846,62.351C71.779,63.388,70.937,65.9,71.962,67.973C72.986,70.047,75.493,70.904,77.572,69.892C87.065,65.194,92.533,58.111,92.533,50.473C92.533,36.324,74.056,25.236,50.473,25.236ZM50.473,25.236"/>
</g>
  <g id="Thin-M" transform="matrix(1.0,0.0,0.0,1.0,807.2372486121061,1040.297268143356)">  <path stroke-miterlimit="4" fill-opacity="1" fill-rule="nonzero" stroke-linejoin="miter" stroke-linecap="butt" data-name="Layer 4" stroke-dasharray="none" stroke-opacity="1" stroke="none" fill="#000000" xmlns:xlink="http://www.w3.org/1999/xlink" stroke-width="1px" d="M66.065,68.529L57.652,60.117C56.002,58.523,53.379,58.546,51.756,60.168C50.134,61.791,50.111,64.414,51.705,66.065L52.832,67.192C52.042,67.221,51.285,67.297,50.473,67.297C30.645,67.297,16.824,58.431,16.824,50.473C16.824,46.157,20.572,41.825,27.1,38.595C29.167,37.557,30.008,35.046,28.984,32.972C27.959,30.899,25.453,30.042,23.373,31.053C13.88,35.752,8.412,42.835,8.412,50.473C8.412,64.622,26.889,75.709,50.473,75.709C51.356,75.709,52.189,75.625,53.051,75.596L51.705,76.942C50.612,77.998,50.173,79.561,50.558,81.032C50.943,82.502,52.092,83.651,53.562,84.036C55.033,84.421,56.596,83.982,57.653,82.889L66.065,74.477C67.707,72.834,67.707,70.172,66.065,68.529ZM66.065,68.529"/>
  <path stroke-dasharray="none" fill="#000000" stroke-linecap="butt" data-name="Layer 4" fill-opacity="1" fill-rule="nonzero" stroke-width="1px" stroke="none" stroke-opacity="1" stroke-miterlimit="4" xmlns:xlink="http://www.w3.org/1999/xlink" stroke-linejoin="miter" d="M50.473,25.236C49.589,25.236,48.757,25.32,47.894,25.35L49.24,24.004C50.334,22.948,50.772,21.384,50.387,19.914C50.002,18.443,48.854,17.295,47.383,16.91C45.913,16.525,44.349,16.963,43.293,18.057L34.881,26.469C33.239,28.111,33.239,30.774,34.881,32.416L43.293,40.828C44.943,42.422,47.567,42.399,49.189,40.777C50.812,39.155,50.834,36.531,49.24,34.881L48.113,33.754C48.904,33.724,49.661,33.649,50.473,33.649C70.3,33.649,84.121,42.515,84.121,50.473C84.121,54.788,80.374,59.12,73.846,62.351C71.779,63.388,70.937,65.9,71.962,67.973C72.986,70.047,75.493,70.904,77.572,69.892C87.065,65.194,92.533,58.111,92.533,50.473C92.533,36.324,74.056,25.236,50.473,25.236ZM50.473,25.236"/>
</g>
  <g id="Ultralight-M" transform="matrix(1.0,0.0,0.0,1.0,510.527248612106,1040.297268143356)">  <path fill="#000000" stroke-miterlimit="4" stroke-opacity="1" stroke="none" stroke-dasharray="none" stroke-width="1px" fill-rule="nonzero" xmlns:xlink="http://www.w3.org/1999/xlink" data-name="Layer 4" stroke-linecap="butt" fill-opacity="1" stroke-linejoin="miter" d="M66.065,68.529L57.652,60.117C56.002,58.523,53.379,58.546,51.756,60.168C50.134,61.791,50.111,64.414,51.705,66.065L52.832,67.192C52.042,67.221,51.285,67.297,50.473,67.297C30.645,67.297,16.824,58.431,16.824,50.473C16.824,46.157,20.572,41.825,27.1,38.595C29.167,37.557,30.008,35.046,28.984,32.972C27.959,30.899,25.453,30.042,23.373,31.053C13.88,35.752,8.412,42.835,8.412,50.473C8.412,64.622,26.889,75.709,50.473,75.709C51.356,75.709,52.189,75.625,53.051,75.596L51.705,76.942C50.612,77.998,50.173,79.561,50.558,81.032C50.943,82.502,52.092,83.651,53.562,84.036C55.033,84.421,56.596,83.982,57.653,82.889L66.065,74.477C67.707,72.834,67.707,70.172,66.065,68.529ZM66.065,68.529"/>
  <path stroke-dasharray="none" stroke-opacity="1" data-name="Layer 4" stroke-width="1px" stroke="none" stroke-linecap="butt" stroke-miterlimit="4" fill-opacity="1" stroke-linejoin="miter" fill-rule="nonzero" fill="#000000" xmlns:xlink="http://www.w3.org/1999/xlink" d="M50.473,25.236C49.589,25.236,48.757,25.32,47.894,25.35L49.24,24.004C50.334,22.948,50.772,21.384,50.387,19.914C50.002,18.443,48.854,17.295,47.383,16.91C45.913,16.525,44.349,16.963,43.293,18.057L34.881,26.469C33.239,28.111,33.239,30.774,34.881,32.416L43.293,40.828C44.943,42.422,47.567,42.399,49.189,40.777C50.812,39.155,50.834,36.531,49.24,34.881L48.113,33.754C48.904,33.724,49.661,33.649,50.473,33.649C70.3,33.649,84.121,42.515,84.121,50.473C84.121,54.788,80.374,59.12,73.846,62.351C71.779,63.388,70.937,65.9,71.962,67.973C72.986,70.047,75.493,70.904,77.572,69.892C87.065,65.194,92.533,58.111,92.533,50.473C92.533,36.324,74.056,25.236,50.473,25.236ZM50.473,25.236"/>
</g>
  <g id="Black-S" transform="matrix(1.0,0.0,0.0,1.0,2895.159835663279,621.249855194529)">  <path xmlns:xlink="http://www.w3.org/1999/xlink" stroke-linecap="butt" data-name="Layer 4" stroke-dasharray="none" stroke-opacity="1" fill-opacity="1" stroke-width="1px" fill="#000000" stroke-linejoin="miter" stroke-miterlimit="4" fill-rule="nonzero" stroke="none" d="M51.729,53.659L45.142,47.072C43.85,45.824,41.796,45.842,40.525,47.112C39.255,48.382,39.237,50.436,40.485,51.729L41.368,52.611C40.749,52.634,40.156,52.694,39.52,52.694C23.995,52.694,13.173,45.751,13.173,39.52C13.173,36.141,16.108,32.749,21.219,30.22C22.837,29.407,23.496,27.441,22.694,25.817C21.892,24.194,19.93,23.523,18.301,24.315C10.868,27.993,6.587,33.539,6.587,39.52C6.587,50.599,21.054,59.28,39.52,59.28C40.212,59.28,40.864,59.214,41.539,59.191L40.485,60.245C39.629,61.072,39.286,62.297,39.587,63.448C39.888,64.599,40.788,65.499,41.939,65.8C43.091,66.101,44.315,65.758,45.142,64.902L51.729,58.315C53.014,57.029,53.014,54.945,51.729,53.659ZM51.729,53.659"/>
  <path stroke-width="1px" stroke-opacity="1" fill-opacity="1" stroke-linejoin="miter" stroke-dasharray="none" stroke-linecap="butt" stroke="none" data-name="Layer 4" stroke-miterlimit="4" fill="#000000" xmlns:xlink="http://www.w3.org/1999/xlink" fill-rule="nonzero" d="M39.52,19.76C38.829,19.76,38.176,19.826,37.501,19.849L38.555,18.795C39.411,17.968,39.755,16.744,39.453,15.592C39.152,14.441,38.253,13.542,37.101,13.24C35.95,12.939,34.725,13.282,33.898,14.138L27.312,20.725C26.026,22.011,26.026,24.096,27.312,25.382L33.898,31.969C35.191,33.217,37.245,33.199,38.515,31.928C39.785,30.658,39.803,28.604,38.555,27.312L37.673,26.429C38.292,26.406,38.885,26.347,39.52,26.347C55.045,26.347,65.867,33.289,65.867,39.52C65.867,42.899,62.933,46.291,57.821,48.821C56.203,49.633,55.544,51.599,56.346,53.223C57.148,54.846,59.111,55.518,60.739,54.726C68.172,51.047,72.454,45.501,72.454,39.52C72.454,28.441,57.986,19.76,39.52,19.76ZM39.52,19.76"/>
</g>
  <g id="Heavy-S" transform="matrix(1.0,0.0,0.0,1.0,2598.449835663279,621.249855194529)">  <path stroke-width="1px" xmlns:xlink="http://www.w3.org/1999/xlink" stroke-miterlimit="4" stroke="none" data-name="Layer 4" fill="#000000" stroke-dasharray="none" fill-rule="nonzero" stroke-opacity="1" stroke-linecap="butt" fill-opacity="1" stroke-linejoin="miter" d="M51.729,53.659L45.142,47.072C43.85,45.824,41.796,45.842,40.525,47.112C39.255,48.382,39.237,50.436,40.485,51.729L41.368,52.611C40.749,52.634,40.156,52.694,39.52,52.694C23.995,52.694,13.173,45.751,13.173,39.52C13.173,36.141,16.108,32.749,21.219,30.22C22.837,29.407,23.496,27.441,22.694,25.817C21.892,24.194,19.93,23.523,18.301,24.315C10.868,27.993,6.587,33.539,6.587,39.52C6.587,50.599,21.054,59.28,39.52,59.28C40.212,59.28,40.864,59.214,41.539,59.191L40.485,60.245C39.629,61.072,39.286,62.297,39.587,63.448C39.888,64.599,40.788,65.499,41.939,65.8C43.091,66.101,44.315,65.758,45.142,64.902L51.729,58.315C53.014,57.029,53.014,54.945,51.729,53.659ZM51.729,53.659"/>
  <path stroke="none" stroke-linejoin="miter" xmlns:xlink="http://www.w3.org/1999/xlink" fill-opacity="1" fill-rule="nonzero" fill="#000000" stroke-dasharray="none" data-name="Layer 4" stroke-linecap="butt" stroke-opacity="1" stroke-miterlimit="4" stroke-width="1px" d="M39.52,19.76C38.829,19.76,38.176,19.826,37.501,19.849L38.555,18.795C39.411,17.968,39.755,16.744,39.453,15.592C39.152,14.441,38.253,13.542,37.101,13.24C35.95,12.939,34.725,13.282,33.898,14.138L27.312,20.725C26.026,22.011,26.026,24.096,27.312,25.382L33.898,31.969C35.191,33.217,37.245,33.199,38.515,31.928C39.785,30.658,39.803,28.604,38.555,27.312L37.673,26.429C38.292,26.406,38.885,26.347,39.52,26.347C55.045,26.347,65.867,33.289,65.867,39.52C65.867,42.899,62.933,46.291,57.821,48.821C56.203,49.633,55.544,51.599,56.346,53.223C57.148,54.846,59.111,55.518,60.739,54.726C68.172,51.047,72.454,45.501,72.454,39.52C72.454,28.441,57.986,19.76,39.52,19.76ZM39.52,19.76"/>
</g>
  <g id="Bold-S" transform="matrix(1.0,0.0,0.0,1.0,2301.739835663279,621.249855194529)">  <path stroke-opacity="1" fill-rule="nonzero" fill-opacity="1" stroke-linejoin="miter" stroke-width="1px" stroke-miterlimit="4" stroke-linecap="butt" fill="#000000" stroke="none" data-name="Layer 4" stroke-dasharray="none" xmlns:xlink="http://www.w3.org/1999/xlink" d="M51.729,53.659L45.142,47.072C43.85,45.824,41.796,45.842,40.525,47.112C39.255,48.382,39.237,50.436,40.485,51.729L41.368,52.611C40.749,52.634,40.156,52.694,39.52,52.694C23.995,52.694,13.173,45.751,13.173,39.52C13.173,36.141,16.108,32.749,21.219,30.22C22.837,29.407,23.496,27.441,22.694,25.817C21.892,24.194,19.93,23.523,18.301,24.315C10.868,27.993,6.587,33.539,6.587,39.52C6.587,50.599,21.054,59.28,39.52,59.28C40.212,59.28,40.864,59.214,41.539,59.191L40.485,60.245C39.629,61.072,39.286,62.297,39.587,63.448C39.888,64.599,40.788,65.499,41.939,65.8C43.091,66.101,44.315,65.758,45.142,64.902L51.729,58.315C53.014,57.029,53.014,54.945,51.729,53.659ZM51.729,53.659"/>
  <path data-name="Layer 4" stroke-width="1px" stroke-linejoin="miter" xmlns:xlink="http://www.w3.org/1999/xlink" fill-opacity="1" stroke-opacity="1" stroke-miterlimit="4" stroke="none" stroke-dasharray="none" fill-rule="nonzero" fill="#000000" stroke-linecap="butt" d="M39.52,19.76C38.829,19.76,38.176,19.826,37.501,19.849L38.555,18.795C39.411,17.968,39.755,16.744,39.453,15.592C39.152,14.441,38.253,13.542,37.101,13.24C35.95,12.939,34.725,13.282,33.898,14.138L27.312,20.725C26.026,22.011,26.026,24.096,27.312,25.382L33.898,31.969C35.191,33.217,37.245,33.199,38.515,31.928C39.785,30.658,39.803,28.604,38.555,27.312L37.673,26.429C38.292,26.406,38.885,26.347,39.52,26.347C55.045,26.347,65.867,33.289,65.867,39.52C65.867,42.899,62.933,46.291,57.821,48.821C56.203,49.633,55.544,51.599,56.346,53.223C57.148,54.846,59.111,55.518,60.739,54.726C68.172,51.047,72.454,45.501,72.454,39.52C72.454,28.441,57.986,19.76,39.52,19.76ZM39.52,19.76"/>
</g>
  <g id="Semibold-S" transform="matrix(1.0,0.0,0.0,1.0,2005.029835663279,621.249855194529)">  <path data-name="Layer 4" stroke-width="1px" stroke-linecap="butt" xmlns:xlink="http://www.w3.org/1999/xlink" fill-opacity="1" stroke-miterlimit="4" stroke-dasharray="none" fill-rule="nonzero" fill="#000000" stroke="none" stroke-opacity="1" stroke-linejoin="miter" d="M51.729,53.659L45.142,47.072C43.85,45.824,41.796,45.842,40.525,47.112C39.255,48.382,39.237,50.436,40.485,51.729L41.368,52.611C40.749,52.634,40.156,52.694,39.52,52.694C23.995,52.694,13.173,45.751,13.173,39.52C13.173,36.141,16.108,32.749,21.219,30.22C22.837,29.407,23.496,27.441,22.694,25.817C21.892,24.194,19.93,23.523,18.301,24.315C10.868,27.993,6.587,33.539,6.587,39.52C6.587,50.599,21.054,59.28,39.52,59.28C40.212,59.28,40.864,59.214,41.539,59.191L40.485,60.245C39.629,61.072,39.286,62.297,39.587,63.448C39.888,64.599,40.788,65.499,41.939,65.8C43.091,66.101,44.315,65.758,45.142,64.902L51.729,58.315C53.014,57.029,53.014,54.945,51.729,53.659ZM51.729,53.659"/>
  <path fill-opacity="1" stroke-width="1px" xmlns:xlink="http://www.w3.org/1999/xlink" data-name="Layer 4" stroke-linejoin="miter" fill-rule="nonzero" stroke="none" stroke-dasharray="none" fill="#000000" stroke-opacity="1" stroke-miterlimit="4" stroke-linecap="butt" d="M39.52,19.76C38.829,19.76,38.176,19.826,37.501,19.849L38.555,18.795C39.411,17.968,39.755,16.744,39.453,15.592C39.152,14.441,38.253,13.542,37.101,13.24C35.95,12.939,34.725,13.282,33.898,14.138L27.312,20.725C26.026,22.011,26.026,24.096,27.312,25.382L33.898,31.969C35.191,33.217,37.245,33.199,38.515,31.928C39.785,30.658,39.803,28.604,38.555,27.312L37.673,26.429C38.292,26.406,38.885,26.347,39.52,26.347C55.045,26.347,65.867,33.289,65.867,39.52C65.867,42.899,62.933,46.291,57.821,48.821C56.203,49.633,55.544,51.599,56.346,53.223C57.148,54.846,59.111,55.518,60.739,54.726C68.172,51.047,72.454,45.501,72.454,39.52C72.454,28.441,57.986,19.76,39.52,19.76ZM39.52,19.76"/>
</g>
  <g id="Medium-S" transform="matrix(1.0,0.0,0.0,1.0,1708.319835663279,621.249855194529)">  <path stroke-dasharray="none" fill="#000000" data-name="Layer 4" stroke-opacity="1" stroke="none" xmlns:xlink="http://www.w3.org/1999/xlink" fill-opacity="1" stroke-width="1px" stroke-linecap="butt" fill-rule="nonzero" stroke-linejoin="miter" stroke-miterlimit="4" d="M51.729,53.659L45.142,47.072C43.85,45.824,41.796,45.842,40.525,47.112C39.255,48.382,39.237,50.436,40.485,51.729L41.368,52.611C40.749,52.634,40.156,52.694,39.52,52.694C23.995,52.694,13.173,45.751,13.173,39.52C13.173,36.141,16.108,32.749,21.219,30.22C22.837,29.407,23.496,27.441,22.694,25.817C21.892,24.194,19.93,23.523,18.301,24.315C10.868,27.993,6.587,33.539,6.587,39.52C6.587,50.599,21.054,59.28,39.52,59.28C40.212,59.28,40.864,59.214,41.539,59.191L40.485,60.245C39.629,61.072,39.286,62.297,39.587,63.448C39.888,64.599,40.788,65.499,41.939,65.8C43.091,66.101,44.315,65.758,45.142,64.902L51.729,58.315C53.014,57.029,53.014,54.945,51.729,53.659ZM51.729,53.659"/>
  <path stroke-dasharray="none" fill-rule="nonzero" stroke="none" stroke-opacity="1" xmlns:xlink="http://www.w3.org/1999/xlink" stroke-linecap="butt" stroke-miterlimit="4" stroke-width="1px" stroke-linejoin="miter" fill="#000000" data-name="Layer 4" fill-opacity="1" d="M39.52,19.76C38.829,19.76,38.176,19.826,37.501,19.849L38.555,18.795C39.411,17.968,39.755,16.744,39.453,15.592C39.152,14.441,38.253,13.542,37.101,13.24C35.95,12.939,34.725,13.282,33.898,14.138L27.312,20.725C26.026,22.011,26.026,24.096,27.312,25.382L33.898,31.969C35.191,33.217,37.245,33.199,38.515,31.928C39.785,30.658,39.803,28.604,38.555,27.312L37.673,26.429C38.292,26.406,38.885,26.347,39.52,26.347C55.045,26.347,65.867,33.289,65.867,39.52C65.867,42.899,62.933,46.291,57.821,48.821C56.203,49.633,55.544,51.599,56.346,53.223C57.148,54.846,59.111,55.518,60.739,54.726C68.172,51.047,72.454,45.501,72.454,39.52C72.454,28.441,57.986,19.76,39.52,19.76ZM39.52,19.76"/>
</g>
  <g id="Regular-S" transform="matrix(1.0,0.0,0.0,1.0,1411.609835663279,621.249855194529)">  <path stroke-linecap="butt" stroke-miterlimit="4" stroke-width="1px" stroke="none" fill-opacity="1" stroke-linejoin="miter" fill="#000000" xmlns:xlink="http://www.w3.org/1999/xlink" stroke-dasharray="none" data-name="Layer 4" stroke-opacity="1" fill-rule="nonzero" d="M51.729,53.659L45.142,47.072C43.85,45.824,41.796,45.842,40.525,47.112C39.255,48.382,39.237,50.436,40.485,51.729L41.368,52.611C40.749,52.634,40.156,52.694,39.52,52.694C23.995,52.694,13.173,45.751,13.173,39.52C13.173,36.141,16.108,32.749,21.219,30.22C22.837,29.407,23.496,27.441,22.694,25.817C21.892,24.194,19.93,23.523,18.301,24.315C10.868,27.993,6.587,33.539,6.587,39.52C6.587,50.599,21.054,59.28,39.52,59.28C40.212,59.28,40.864,59.214,41.539,59.191L40.485,60.245C39.629,61.072,39.286,62.297,39.587,63.448C39.888,64.599,40.788,65.499,41.939,65.8C43.091,66.101,44.315,65.758,45.142,64.902L51.729,58.315C53.014,57.029,53.014,54.945,51.729,53.659ZM51.729,53.659"/>
  <path fill="#000000" stroke="none" fill-opacity="1" stroke-linejoin="miter" fill-rule="nonzero" stroke-miterlimit="4" stroke-linecap="butt" stroke-dasharray="none" stroke-opacity="1" data-name="Layer 4" stroke-width="1px" xmlns:xlink="http://www.w3.org/1999/xlink" d="M39.52,19.76C38.829,19.76,38.176,19.826,37.501,19.849L38.555,18.795C39.411,17.968,39.755,16.744,39.453,15.592C39.152,14.441,38.253,13.542,37.101,13.24C35.95,12.939,34.725,13.282,33.898,14.138L27.312,20.725C26.026,22.011,26.026,24.096,27.312,25.382L33.898,31.969C35.191,33.217,37.245,33.199,38.515,31.928C39.785,30.658,39.803,28.604,38.555,27.312L37.673,26.429C38.292,26.406,38.885,26.347,39.52,26.347C55.045,26.347,65.867,33.289,65.867,39.52C65.867,42.899,62.933,46.291,57.821,48.821C56.203,49.633,55.544,51.599,56.346,53.223C57.148,54.846,59.111,55.518,60.739,54.726C68.172,51.047,72.454,45.501,72.454,39.52C72.454,28.441,57.986,19.76,39.52,19.76ZM39.52,19.76"/>
</g>
  <g id="Light-S" transform="matrix(1.0,0.0,0.0,1.0,1114.8998356632792,621.249855194529)">  <path stroke-opacity="1" fill="#000000" stroke-miterlimit="4" stroke-linecap="butt" data-name="Layer 4" stroke-linejoin="miter" fill-opacity="1" stroke-dasharray="none" xmlns:xlink="http://www.w3.org/1999/xlink" stroke-width="1px" fill-rule="nonzero" stroke="none" d="M51.729,53.659L45.142,47.072C43.85,45.824,41.796,45.842,40.525,47.112C39.255,48.382,39.237,50.436,40.485,51.729L41.368,52.611C40.749,52.634,40.156,52.694,39.52,52.694C23.995,52.694,13.173,45.751,13.173,39.52C13.173,36.141,16.108,32.749,21.219,30.22C22.837,29.407,23.496,27.441,22.694,25.817C21.892,24.194,19.93,23.523,18.301,24.315C10.868,27.993,6.587,33.539,6.587,39.52C6.587,50.599,21.054,59.28,39.52,59.28C40.212,59.28,40.864,59.214,41.539,59.191L40.485,60.245C39.629,61.072,39.286,62.297,39.587,63.448C39.888,64.599,40.788,65.499,41.939,65.8C43.091,66.101,44.315,65.758,45.142,64.902L51.729,58.315C53.014,57.029,53.014,54.945,51.729,53.659ZM51.729,53.659"/>
  <path stroke="none" stroke-miterlimit="4" stroke-linecap="butt" fill-opacity="1" stroke-dasharray="none" fill-rule="nonzero" stroke-opacity="1" fill="#000000" stroke-width="1px" data-name="Layer 4" stroke-linejoin="miter" xmlns:xlink="http://www.w3.org/1999/xlink" d="M39.52,19.76C38.829,19.76,38.176,19.826,37.501,19.849L38.555,18.795C39.411,17.968,39.755,16.744,39.453,15.592C39.152,14.441,38.253,13.542,37.101,13.24C35.95,12.939,34.725,13.282,33.898,14.138L27.312,20.725C26.026,22.011,26.026,24.096,27.312,25.382L33.898,31.969C35.191,33.217,37.245,33.199,38.515,31.928C39.785,30.658,39.803,28.604,38.555,27.312L37.673,26.429C38.292,26.406,38.885,26.347,39.52,26.347C55.045,26.347,65.867,33.289,65.867,39.52C65.867,42.899,62.933,46.291,57.821,48.821C56.203,49.633,55.544,51.599,56.346,53.223C57.148,54.846,59.111,55.518,60.739,54.726C68.172,51.047,72.454,45.501,72.454,39.52C72.454,28.441,57.986,19.76,39.52,19.76ZM39.52,19.76"/>
</g>
  <g id="Thin-S" transform="matrix(1.0,0.0,0.0,1.0,818.189835663279,621.249855194529)">  <path stroke-miterlimit="4" fill-opacity="1" fill-rule="nonzero" stroke-linejoin="miter" stroke-linecap="butt" data-name="Layer 4" stroke-dasharray="none" stroke-opacity="1" stroke="none" fill="#000000" xmlns:xlink="http://www.w3.org/1999/xlink" stroke-width="1px" d="M51.729,53.659L45.142,47.072C43.85,45.824,41.796,45.842,40.525,47.112C39.255,48.382,39.237,50.436,40.485,51.729L41.368,52.611C40.749,52.634,40.156,52.694,39.52,52.694C23.995,52.694,13.173,45.751,13.173,39.52C13.173,36.141,16.108,32.749,21.219,30.22C22.837,29.407,23.496,27.441,22.694,25.817C21.892,24.194,19.93,23.523,18.301,24.315C10.868,27.993,6.587,33.539,6.587,39.52C6.587,50.599,21.054,59.28,39.52,59.28C40.212,59.28,40.864,59.214,41.539,59.191L40.485,60.245C39.629,61.072,39.286,62.297,39.587,63.448C39.888,64.599,40.788,65.499,41.939,65.8C43.091,66.101,44.315,65.758,45.142,64.902L51.729,58.315C53.014,57.029,53.014,54.945,51.729,53.659ZM51.729,53.659"/>
  <path stroke-dasharray="none" fill="#000000" stroke-linecap="butt" data-name="Layer 4" fill-opacity="1" fill-rule="nonzero" stroke-width="1px" stroke="none" stroke-opacity="1" stroke-miterlimit="4" xmlns:xlink="http://www.w3.org/1999/xlink" stroke-linejoin="miter" d="M39.52,19.76C38.829,19.76,38.176,19.826,37.501,19.849L38.555,18.795C39.411,17.968,39.755,16.744,39.453,15.592C39.152,14.441,38.253,13.542,37.101,13.24C35.95,12.939,34.725,13.282,33.898,14.138L27.312,20.725C26.026,22.011,26.026,24.096,27.312,25.382L33.898,31.969C35.191,33.217,37.245,33.199,38.515,31.928C39.785,30.658,39.803,28.604,38.555,27.312L37.673,26.429C38.292,26.406,38.885,26.347,39.52,26.347C55.045,26.347,65.867,33.289,65.867,39.52C65.867,42.899,62.933,46.291,57.821,48.821C56.203,49.633,55.544,51.599,56.346,53.223C57.148,54.846,59.111,55.518,60.739,54.726C68.172,51.047,72.454,45.501,72.454,39.52C72.454,28.441,57.986,19.76,39.52,19.76ZM39.52,19.76"/>
</g>
  <g id="Ultralight-S" transform="matrix(1.0,0.0,0.0,1.0,521.479835663279,621.249855194529)">  <path fill="#000000" stroke-miterlimit="4" stroke-opacity="1" stroke="none" stroke-dasharray="none" stroke-width="1px" fill-rule="nonzero" xmlns:xlink="http://www.w3.org/1999/xlink" data-name="Layer 4" stroke-linecap="butt" fill-opacity="1" stroke-linejoin="miter" d="M51.729,53.659L45.142,47.072C43.85,45.824,41.796,45.842,40.525,47.112C39.255,48.382,39.237,50.436,40.485,51.729L41.368,52.611C40.749,52.634,40.156,52.694,39.52,52.694C23.995,52.694,13.173,45.751,13.173,39.52C13.173,36.141,16.108,32.749,21.219,30.22C22.837,29.407,23.496,27.441,22.694,25.817C21.892,24.194,19.93,23.523,18.301,24.315C10.868,27.993,6.587,33.539,6.587,39.52C6.587,50.599,21.054,59.28,39.52,59.28C40.212,59.28,40.864,59.214,41.539,59.191L40.485,60.245C39.629,61.072,39.286,62.297,39.587,63.448C39.888,64.599,40.788,65.499,41.939,65.8C43.091,66.101,44.315,65.758,45.142,64.902L51.729,58.315C53.014,57.029,53.014,54.945,51.729,53.659ZM51.729,53.659"/>
  <path stroke-dasharray="none" stroke-opacity="1" data-name="Layer 4" stroke-width="1px" stroke="none" stroke-linecap="butt" stroke-miterlimit="4" fill-opacity="1" stroke-linejoin="miter" fill-rule="nonzero" fill="#000000" xmlns:xlink="http://www.w3.org/1999/xlink" d="M39.52,19.76C38.829,19.76,38.176,19.826,37.501,19.849L38.555,18.795C39.411,17.968,39.755,16.744,39.453,15.592C39.152,14.441,38.253,13.542,37.101,13.24C35.95,12.939,34.725,13.282,33.898,14.138L27.312,20.725C26.026,22.011,26.026,24.096,27.312,25.382L33.898,31.969C35.191,33.217,37.245,33.199,38.515,31.928C39.785,30.658,39.803,28.604,38.555,27.312L37.673,26.429C38.292,26.406,38.885,26.347,39.52,26.347C55.045,26.347,65.867,33.289,65.867,39.52C65.867,42.899,62.933,46.291,57.821,48.821C56.203,49.633,55.544,51.599,56.346,53.223C57.148,54.846,59.111,55.518,60.739,54.726C68.172,51.047,72.454,45.501,72.454,39.52C72.454,28.441,57.986,19.76,39.52,19.76ZM39.52,19.76"/>
</g>
 </g>
</svg>
