<?xml version="1.0" encoding="UTF-8"?>
<!-- Generator: CustomSymbols v2.6.7.45 by @serious_bret https://bretlester.com/app_content/CustomSymbols/ -->
<!-- Guides: Left/Right 0.0/0.0 Cap/Base 0.017/0.017 -->
<!-- Settings: RefScale 1.0 Min/Max Stroke Scales 0.5/2.21 -->
<!DOCTYPE svg
PUBLIC "-//W3C//DTD SVG 1.1//EN"
       "http://www.w3.org/Graphics/SVG/1.1/DTD/svg11.dtd">
<svg version="1.1" xmlns="http://www.w3.org/2000/svg" xmlns:xlink="http://www.w3.org/1999/xlink" width="3300" height="2200">
<![CDATA[<?xml version="1.0" standalone="no"?>
<!DOCTYPE svg PUBLIC "-//W3C//DTD SVG 20010904//EN"
 "http://www.w3.org/TR/2001/REC-SVG-20010904/DTD/svg10.dtd">
<svg version="1.0" xmlns="http://www.w3.org/2000/svg"
 width="512.000000pt" height="512.000000pt" viewBox="0 0 512.000000 512.000000"
 preserveAspectRatio="xMidYMid meet">

<g transform="translate(0.000000,512.000000) scale(0.100000,-0.100000)"
fill="#000000" stroke="none">
<path d="M2276 4255 c-30 -10 -101 -75 -284 -257 -134 -134 -252 -260 -263
-280 -23 -45 -25 -124 -3 -176 21 -51 474 -507 529 -533 83 -39 191 -16 252
54 77 88 69 200 -19 294 l-51 53 155 0 c785 0 1491 -308 1649 -720 29 -75 29
-184 0 -265 -58 -162 -215 -316 -454 -445 -77 -42 -130 -91 -148 -139 -17 -44
-12 -125 10 -169 41 -80 144 -134 223 -117 98 22 346 179 480 305 153 143 269
323 315 490 25 92 25 329 -1 420 -149 539 -817 947 -1716 1050 -52 6 -188 13
-302 17 l-208 6 46 49 c55 59 74 102 74 165 -1 148 -144 248 -284 198z"/>
<path d="M1235 3561 c-50 -13 -166 -76 -276 -149 -266 -179 -451 -420 -510
-667 -18 -76 -20 -109 -16 -215 6 -145 22 -211 81 -335 256 -540 1091 -915
2039 -915 l129 0 -49 -54 c-77 -84 -92 -164 -47 -255 45 -89 140 -133 238
-110 48 11 64 25 300 258 160 159 255 260 267 286 25 54 24 128 -2 181 -22 46
-451 480 -511 519 -24 15 -49 20 -98 20 -80 0 -131 -23 -171 -78 -69 -95 -61
-195 24 -284 l50 -53 -155 0 c-785 0 -1492 309 -1649 720 -27 69 -29 174 -6
252 47 157 217 327 452 454 129 69 172 132 163 239 -10 123 -137 215 -253 186z"/>
</g>
</svg>
]]>
 <g id="Notes">
  <rect height="2200" id="artboard" style="fill:white;opacity:1" width="3300" x="0" y="0"/>
  <line id="" style="fill:none;stroke:black;opacity:1;stroke-width:0.5;" x1="263" x2="3036" y1="292" y2="292"/>
  <text id="reftext1" style="stroke:none;fill:black;font-family:-apple-system,&quot;SF Pro Display&quot;,&quot;SF Pro Text&quot;,Helvetica,sans-serif;font-weight:bold;" transform="matrix(1 0 0 1 263 322)">Weight/Scale Variations</text>
  <text id="reftext2" style="stroke:none;fill:black;font-family:-apple-system,&quot;SF Pro Display&quot;,&quot;SF Pro Text&quot;,Helvetica,sans-serif;text-anchor:middle;" transform="matrix(1 0 0 1 559.711 322)">Ultralight</text>
  <text style="stroke:none;fill:black;font-family:-apple-system,&quot;SF Pro Display&quot;,&quot;SF Pro Text&quot;,Helvetica,sans-serif;text-anchor:middle;" transform="matrix(1 0 0 1 856.422 322)">Thin</text>
  <text style="stroke:none;fill:black;font-family:-apple-system,&quot;SF Pro Display&quot;,&quot;SF Pro Text&quot;,Helvetica,sans-serif;text-anchor:middle;" transform="matrix(1 0 0 1 1153.13 322)">Light</text>
  <text style="stroke:none;fill:black;font-family:-apple-system,&quot;SF Pro Display&quot;,&quot;SF Pro Text&quot;,Helvetica,sans-serif;text-anchor:middle;" transform="matrix(1 0 0 1 1449.84 322)">Regular</text>
  <text style="stroke:none;fill:black;font-family:-apple-system,&quot;SF Pro Display&quot;,&quot;SF Pro Text&quot;,Helvetica,sans-serif;text-anchor:middle;" transform="matrix(1 0 0 1 1746.56 322)">Medium</text>
  <text style="stroke:none;fill:black;font-family:-apple-system,&quot;SF Pro Display&quot;,&quot;SF Pro Text&quot;,Helvetica,sans-serif;text-anchor:middle;" transform="matrix(1 0 0 1 2043.27 322)">Semibold</text>
  <text style="stroke:none;fill:black;font-family:-apple-system,&quot;SF Pro Display&quot;,&quot;SF Pro Text&quot;,Helvetica,sans-serif;text-anchor:middle;" transform="matrix(1 0 0 1 2339.98 322)">Bold</text>
  <text style="stroke:none;fill:black;font-family:-apple-system,&quot;SF Pro Display&quot;,&quot;SF Pro Text&quot;,Helvetica,sans-serif;text-anchor:middle;" transform="matrix(1 0 0 1 2636.69 322)">Heavy</text>
  <text style="stroke:none;fill:black;font-family:-apple-system,&quot;SF Pro Display&quot;,&quot;SF Pro Text&quot;,Helvetica,sans-serif;text-anchor:middle;" transform="matrix(1 0 0 1 2933.4 322)">Black</text>
  <line id="" style="fill:none;stroke:black;opacity:1;stroke-width:0.5;" x1="263" x2="3036" y1="1903" y2="1903"/>
  <g id="" transform="matrix(1 0 0 1 263 1933)">
   <path d="M9.24805 0.830078C13.5547 0.830078 17.1387-2.74414 17.1387-7.05078C17.1387-11.3574 13.5449-14.9316 9.23828-14.9316C4.94141-14.9316 1.36719-11.3574 1.36719-7.05078C1.36719-2.74414 4.95117 0.830078 9.24805 0.830078ZM9.24805-0.654297C5.70312-0.654297 2.87109-3.49609 2.87109-7.05078C2.87109-10.6055 5.69336-13.4473 9.23828-13.4473C12.793-13.4473 15.6348-10.6055 15.6445-7.05078C15.6543-3.49609 12.8027-0.654297 9.24805-0.654297ZM6.39648-6.31836L8.50586-6.31836L8.50586-4.19922C8.50586-3.75977 8.79883-3.45703 9.22852-3.45703C9.67773-3.45703 9.9707-3.75977 9.9707-4.19922L9.9707-6.31836L12.0996-6.31836C12.5391-6.31836 12.8418-6.61133 12.8418-7.04102C12.8418-7.48047 12.5391-7.7832 12.0996-7.7832L9.9707-7.7832L9.9707-9.89258C9.9707-10.3418 9.67773-10.6445 9.22852-10.6445C8.79883-10.6445 8.50586-10.3418 8.50586-9.89258L8.50586-7.7832L6.39648-7.7832C5.94727-7.7832 5.64453-7.48047 5.64453-7.04102C5.64453-6.61133 5.94727-6.31836 6.39648-6.31836Z"/>
  </g>
  <g id="" transform="matrix(1 0 0 1 281.506 1933)">
   <path d="M11.709 2.91016C17.1582 2.91016 21.6699-1.61133 21.6699-7.05078C21.6699-12.5 17.1484-17.0117 11.6992-17.0117C6.25977-17.0117 1.74805-12.5 1.74805-7.05078C1.74805-1.61133 6.26953 2.91016 11.709 2.91016ZM11.709 1.25C7.09961 1.25 3.41797-2.44141 3.41797-7.05078C3.41797-11.6602 7.08984-15.3516 11.6992-15.3516C16.3086-15.3516 20-11.6602 20.0098-7.05078C20.0195-2.44141 16.3184 1.25 11.709 1.25ZM7.98828-6.23047L10.8789-6.23047L10.8789-3.32031C10.8789-2.83203 11.2109-2.5 11.6895-2.5C12.1777-2.5 12.5195-2.83203 12.5195-3.32031L12.5195-6.23047L15.4297-6.23047C15.918-6.23047 16.25-6.5625 16.25-7.04102C16.25-7.5293 15.918-7.87109 15.4297-7.87109L12.5195-7.87109L12.5195-10.7617C12.5195-11.2695 12.1777-11.6016 11.6895-11.6016C11.2109-11.6016 10.8789-11.2598 10.8789-10.7617L10.8789-7.87109L7.98828-7.87109C7.48047-7.87109 7.14844-7.5293 7.14844-7.04102C7.14844-6.5625 7.49023-6.23047 7.98828-6.23047Z"/>
  </g>
  <g id="" transform="matrix(1 0 0 1 304.924 1933)">
   <path d="M14.9707 5.66406C21.9336 5.66406 27.6953-0.0976562 27.6953-7.05078C27.6953-14.0137 21.9238-19.7754 14.9609-19.7754C8.00781-19.7754 2.25586-14.0137 2.25586-7.05078C2.25586-0.0976562 8.01758 5.66406 14.9707 5.66406ZM14.9707 3.84766C8.93555 3.84766 4.08203-1.01562 4.08203-7.05078C4.08203-13.0957 8.92578-17.9492 14.9609-17.9492C21.0059-17.9492 25.8594-13.0957 25.8691-7.05078C25.8789-1.01562 21.0156 3.84766 14.9707 3.84766ZM10.0586-6.14258L14.0625-6.14258L14.0625-2.12891C14.0625-1.5918 14.4336-1.2207 14.9512-1.2207C15.4883-1.2207 15.8594-1.5918 15.8594-2.12891L15.8594-6.14258L19.8828-6.14258C20.4102-6.14258 20.791-6.51367 20.791-7.03125C20.791-7.56836 20.4199-7.94922 19.8828-7.94922L15.8594-7.94922L15.8594-11.9531C15.8594-12.5098 15.4883-12.8809 14.9512-12.8809C14.4336-12.8809 14.0625-12.5 14.0625-11.9531L14.0625-7.94922L10.0586-7.94922C9.50195-7.94922 9.13086-7.56836 9.13086-7.03125C9.13086-6.51367 9.51172-6.14258 10.0586-6.14258Z"/>
  </g>
  <text style="stroke:none;fill:black;font-family:-apple-system,&quot;SF Pro Display&quot;,&quot;SF Pro Text&quot;,Helvetica,sans-serif;font-weight:bold;" transform="matrix(1 0 0 1 263 1953)">Design Variations</text>
  <text style="stroke:none;fill:black;font-family:-apple-system,&quot;SF Pro Display&quot;,&quot;SF Pro Text&quot;,Helvetica,sans-serif;" transform="matrix(1 0 0 1 263 1971)">Symbols are supported in up to nine weights and three scales.</text>
  <text style="stroke:none;fill:black;font-family:-apple-system,&quot;SF Pro Display&quot;,&quot;SF Pro Text&quot;,Helvetica,sans-serif;" transform="matrix(1 0 0 1 263 1989)">For optimal layout with text and other symbols, vertically align</text>
  <text style="stroke:none;fill:black;font-family:-apple-system,&quot;SF Pro Display&quot;,&quot;SF Pro Text&quot;,Helvetica,sans-serif;" transform="matrix(1 0 0 1 263 2007)">symbols with the adjacent text.</text>
  <line id="" style="fill:none;stroke:#00AEEF;stroke-width:0.5;opacity:1.0;" x1="776" x2="776" y1="1919" y2="1933"/>
  <g id="" transform="matrix(1 0 0 1 776 1933)">
   <path d="M3.31055 0.126953C3.82812 0.126953 4.08203-0.0683594 4.26758-0.605469L5.52734-4.0625L11.2891-4.0625L12.5488-0.605469C12.7344-0.0683594 12.9883 0.126953 13.4961 0.126953C14.0137 0.126953 14.3457-0.185547 14.3457-0.673828C14.3457-0.839844 14.3164-0.986328 14.2383-1.20117L9.6582-13.3887C9.43359-13.9941 9.0332-14.2871 8.4082-14.2871C7.80273-14.2871 7.39258-13.9941 7.17773-13.3984L2.59766-1.19141C2.51953-0.976562 2.49023-0.830078 2.49023-0.664062C2.49023-0.175781 2.80273 0.126953 3.31055 0.126953ZM6.00586-5.53711L8.37891-12.1094L8.42773-12.1094L10.8008-5.53711Z"/>
  </g>
  <line id="" style="fill:none;stroke:#00AEEF;stroke-width:0.5;opacity:1.0;" x1="792.836" x2="792.836" y1="1919" y2="1933"/>
  <text style="stroke:none;fill:black;font-family:-apple-system,&quot;SF Pro Display&quot;,&quot;SF Pro Text&quot;,Helvetica,sans-serif;font-weight:bold;" transform="matrix(1 0 0 1 776 1953)">Margins</text>
  <text style="stroke:none;fill:black;font-family:-apple-system,&quot;SF Pro Display&quot;,&quot;SF Pro Text&quot;,Helvetica,sans-serif;" transform="matrix(1 0 0 1 776 1971)">Leading and trailing margins on the left and right side of each symbol</text>
  <text style="stroke:none;fill:black;font-family:-apple-system,&quot;SF Pro Display&quot;,&quot;SF Pro Text&quot;,Helvetica,sans-serif;" transform="matrix(1 0 0 1 776 1989)">can be adjusted by modifying the x-location of the margin guidelines.</text>
  <text style="stroke:none;fill:black;font-family:-apple-system,&quot;SF Pro Display&quot;,&quot;SF Pro Text&quot;,Helvetica,sans-serif;" transform="matrix(1 0 0 1 776 2007)">Modifications are automatically applied proportionally to all</text>
  <text style="stroke:none;fill:black;font-family:-apple-system,&quot;SF Pro Display&quot;,&quot;SF Pro Text&quot;,Helvetica,sans-serif;" transform="matrix(1 0 0 1 776 2025)">scales and weights.</text>
  <g id="" transform="matrix(1 0 0 1 1289 1933)">
   <path d="M2.8418 1.86523L4.54102 3.57422C5.40039 4.44336 6.38672 4.38477 7.31445 3.35938L17.4902-7.85156C17.7539-7.76367 18.0273-7.7832 18.3398-7.8418L19.4043-8.03711L20.0684-7.36328L20.0293-6.80664C19.9902-6.30859 20.1172-5.92773 20.6055-5.44922L21.3672-4.70703C21.8457-4.22852 22.4609-4.19922 22.9297-4.66797L25.8398-7.58789C26.3086-8.05664 26.2891-8.65234 25.8105-9.13086L25.0391-9.89258C24.5605-10.3711 24.1895-10.5273 23.7109-10.4883L23.1348-10.4395L22.4902-11.0742L22.7344-12.1973C22.8613-12.7637 22.7051-13.2031 22.1191-13.7891L19.9219-15.9766C16.582-19.2969 12.1484-19.2188 9.25781-16.3281C8.83789-15.918 8.80859-15.3418 9.04297-14.9512C9.27734-14.5898 9.73633-14.3555 10.3809-14.5215C11.8457-14.8633 13.3691-14.9219 14.7949-13.9844L14.209-12.5293C14.0137-12.0508 13.9844-11.6504 14.1113-11.2891L3.04688-0.898438C2.06055 0.0195312 1.98242 0.996094 2.8418 1.86523ZM10.752-15.957C13.1836-17.7344 16.4746-17.4316 18.7012-15.2051L21.1328-12.793C21.3672-12.5586 21.4062-12.373 21.3379-12.0312L21.0156-10.5469L22.5195-9.0625L23.5059-9.12109C23.7598-9.13086 23.8379-9.11133 24.0332-8.91602L24.6094-8.33984L22.168-5.89844L21.5918-6.47461C21.3965-6.66992 21.3672-6.74805 21.377-7.01172L21.4453-7.98828L19.9512-9.47266L18.4277-9.21875C18.1055-9.15039 17.959-9.17969 17.7148-9.41406L15.7129-11.416C15.459-11.6504 15.4297-11.8164 15.5859-12.1875L16.4648-14.2773C14.9023-15.7324 12.8711-16.3574 10.8398-15.7617C10.6836-15.7227 10.625-15.8496 10.752-15.957ZM5.27344 2.30469L4.10156 1.14258C3.63281 0.683594 3.74023 0.341797 4.14062-0.0195312L14.9512-10.1953L16.416-8.71094L6.42578 2.27539C6.07422 2.67578 5.74219 2.77344 5.27344 2.30469Z"/>
  </g>
  <text style="stroke:none;fill:black;font-family:-apple-system,&quot;SF Pro Display&quot;,&quot;SF Pro Text&quot;,Helvetica,sans-serif;font-weight:bold;" transform="matrix(1 0 0 1 1289 1953)">Exporting</text>
  <text style="stroke:none;fill:black;font-family:-apple-system,&quot;SF Pro Display&quot;,&quot;SF Pro Text&quot;,Helvetica,sans-serif;" transform="matrix(1 0 0 1 1289 1971)">Symbols should be outlined when exporting to ensure the</text>
  <text style="stroke:none;fill:black;font-family:-apple-system,&quot;SF Pro Display&quot;,&quot;SF Pro Text&quot;,Helvetica,sans-serif;" transform="matrix(1 0 0 1 1289 1989)">design is preserved when submitting to Xcode.</text>
  <text id="template-version" style="stroke:none;fill:black;font-family:-apple-system,&quot;SF Pro Display&quot;,&quot;SF Pro Text&quot;,Helvetica,sans-serif;text-anchor:end;" transform="matrix(1 0 0 1 3036 1933)">Template v.2.0</text>
  <text style="stroke:none;fill:black;font-family:-apple-system,&quot;SF Pro Display&quot;,&quot;SF Pro Text&quot;,Helvetica,sans-serif;text-anchor:end;" transform="matrix(1 0 0 1 3036 1951)">Requires Xcode 12 or greater</text>
  <text style="stroke:none;fill:black;font-family:-apple-system,&quot;SF Pro Display&quot;,&quot;SF Pro Text&quot;,Helvetica,sans-serif;" transform="matrix(1 0 0 1 263 726)">Small</text>
  <text style="stroke:none;fill:black;font-family:-apple-system,&quot;SF Pro Display&quot;,&quot;SF Pro Text&quot;,Helvetica,sans-serif;" transform="matrix(1 0 0 1 263 1156)">Medium</text>
  <text style="stroke:none;fill:black;font-family:-apple-system,&quot;SF Pro Display&quot;,&quot;SF Pro Text&quot;,Helvetica,sans-serif;" transform="matrix(1 0 0 1 263 1586)">Large</text>
 </g>
 <g id="Guides">
  <g id="H-reference" style="fill:#27AAE1;stroke:none;" transform="matrix(1 0 0 1 339 696)">
   <path d="M0.976562 0L3.66211 0L12.9883-24.4629L45.752-24.4629L55.127 0L57.7637 0L30.6152-70.459L28.125-70.459ZM29.3457-67.1387L29.4434-67.1387L44.873-26.709L13.8672-26.709Z"/>
  </g>
  <line id="Baseline-S" style="fill:none;stroke:#27AAE1;opacity:1;stroke-width:0.5;" x1="263" x2="3036" y1="696" y2="696"/>
  <line id="Capline-S" style="fill:none;stroke:#27AAE1;opacity:1;stroke-width:0.5;" x1="263" x2="3036" y1="625.541" y2="625.541"/>
  <g id="H-reference" style="fill:#27AAE1;stroke:none;" transform="matrix(1 0 0 1 339 1126)">
   <path d="M0.976562 0L3.66211 0L12.9883-24.4629L45.752-24.4629L55.127 0L57.7637 0L30.6152-70.459L28.125-70.459ZM29.3457-67.1387L29.4434-67.1387L44.873-26.709L13.8672-26.709Z"/>
  </g>
  <line id="Baseline-M" style="fill:none;stroke:#27AAE1;opacity:1;stroke-width:0.5;" x1="263" x2="3036" y1="1126" y2="1126"/>
  <line id="Capline-M" style="fill:none;stroke:#27AAE1;opacity:1;stroke-width:0.5;" x1="263" x2="3036" y1="1055.54" y2="1055.54"/>
  <g id="H-reference" style="fill:#27AAE1;stroke:none;" transform="matrix(1 0 0 1 339 1556)">
   <path d="M0.976562 0L3.66211 0L12.9883-24.4629L45.752-24.4629L55.127 0L57.7637 0L30.6152-70.459L28.125-70.459ZM29.3457-67.1387L29.4434-67.1387L44.873-26.709L13.8672-26.709Z"/>
  </g>
  <line id="Baseline-L" style="fill:none;stroke:#27AAE1;opacity:1;stroke-width:0.5;" x1="263" x2="3036" y1="1556" y2="1556"/>
  <line id="Capline-L" style="fill:none;stroke:#27AAE1;opacity:1;stroke-width:0.5;" x1="263" x2="3036" y1="1485.54" y2="1485.54"/>
  <line id="left-margin" x1="1414.660040922619" x2="1414.660040922619" y1="1030.79" y2="1150.12" style="fill:none;stroke:#00AEEF;stroke-width:0.5;opacity:1.0;"/>
  <line id="right-margin" x1="1487.5999590773808" x2="1487.5999590773808" y1="1030.79" y2="1150.12" style="fill:none;stroke:#00AEEF;stroke-width:0.5;opacity:1.0;"/>
 </g>
 <g id="Symbols">
  <g id="Black-L" transform="matrix(1.0,0.0,0.0,1.0,2887.6337527901783,1473.7237723214287)">  <path version="1.0" stroke="none" stroke-opacity="1" stroke-width="1px" fill-opacity="1" fill="#000000" fill-rule="nonzero" preserveAspectRatio="xMidYMid meet" stroke-miterlimit="4" stroke-dasharray="none" stroke-linecap="butt" stroke-linejoin="miter" d="M41.827,15.896C41.276,16.08,39.971,17.275,36.608,20.619C34.145,23.082,31.977,25.398,31.775,25.765C31.352,26.592,31.315,28.044,31.719,29C32.105,29.937,40.43,38.317,41.441,38.795C42.966,39.511,44.951,39.089,46.072,37.802C47.487,36.185,47.34,34.127,45.723,32.399L44.786,31.425L47.634,31.425C62.061,31.425,75.035,37.086,77.939,44.657C78.472,46.035,78.472,48.039,77.939,49.527C76.873,52.504,73.988,55.334,69.595,57.705C68.18,58.477,67.206,59.378,66.876,60.26C66.563,61.068,66.655,62.557,67.059,63.365C67.813,64.836,69.706,65.828,71.157,65.516C72.958,65.111,77.516,62.226,79.979,59.91C82.79,57.282,84.922,53.975,85.768,50.906C86.227,49.215,86.227,44.859,85.749,43.187C83.011,33.282,70.735,25.784,54.213,23.891C53.258,23.78,50.758,23.652,48.663,23.578L44.841,23.468L45.686,22.567C46.697,21.483,47.046,20.693,47.046,19.535C47.028,16.815,44.4,14.978,41.827,15.896ZM41.827,15.896"/>
  <path stroke-miterlimit="4" stroke-opacity="1" version="1.0" stroke-dasharray="none" stroke="none" stroke-linejoin="miter" fill="#000000" fill-opacity="1" fill-rule="nonzero" stroke-linecap="butt" stroke-width="1px" preserveAspectRatio="xMidYMid meet" d="M22.696,28.65C21.777,28.889,19.645,30.047,17.624,31.389C12.736,34.678,9.336,39.107,8.251,43.646C7.921,45.043,7.884,45.65,7.957,47.598C8.068,50.262,8.362,51.475,9.446,53.754C14.151,63.678,29.496,70.569,46.918,70.569L49.288,70.569L48.388,71.562C46.973,73.105,46.697,74.576,47.524,76.248C48.351,77.884,50.097,78.692,51.898,78.27C52.78,78.067,53.074,77.81,57.411,73.528C60.352,70.606,62.097,68.75,62.318,68.272C62.777,67.28,62.759,65.92,62.281,64.946C61.877,64.101,53.993,56.125,52.89,55.408C52.449,55.132,51.99,55.04,51.089,55.04C49.619,55.04,48.682,55.463,47.947,56.474C46.679,58.22,46.826,60.057,48.388,61.693L49.307,62.667L46.458,62.667C32.032,62.667,19.039,56.988,16.154,49.435C15.658,48.167,15.621,46.238,16.044,44.804C16.907,41.919,20.031,38.795,24.35,36.461C26.721,35.193,27.511,34.035,27.346,32.069C27.162,29.808,24.828,28.117,22.696,28.65ZM22.696,28.65"/>
</g>
  <g id="Heavy-L" transform="matrix(1.0,0.0,0.0,1.0,2590.9237527901782,1473.7237723214287)">  <path fill-opacity="1" fill-rule="nonzero" preserveAspectRatio="xMidYMid meet" version="1.0" stroke-miterlimit="4" stroke-dasharray="none" fill="#000000" stroke-linejoin="miter" stroke-width="1px" stroke-linecap="butt" stroke-opacity="1" stroke="none" d="M41.827,15.896C41.276,16.08,39.971,17.275,36.608,20.619C34.145,23.082,31.977,25.398,31.775,25.765C31.352,26.592,31.315,28.044,31.719,29C32.105,29.937,40.43,38.317,41.441,38.795C42.966,39.511,44.951,39.089,46.072,37.802C47.487,36.185,47.34,34.127,45.723,32.399L44.786,31.425L47.634,31.425C62.061,31.425,75.035,37.086,77.939,44.657C78.472,46.035,78.472,48.039,77.939,49.527C76.873,52.504,73.988,55.334,69.595,57.705C68.18,58.477,67.206,59.378,66.876,60.26C66.563,61.068,66.655,62.557,67.059,63.365C67.813,64.836,69.706,65.828,71.157,65.516C72.958,65.111,77.516,62.226,79.979,59.91C82.79,57.282,84.922,53.975,85.768,50.906C86.227,49.215,86.227,44.859,85.749,43.187C83.011,33.282,70.735,25.784,54.213,23.891C53.258,23.78,50.758,23.652,48.663,23.578L44.841,23.468L45.686,22.567C46.697,21.483,47.046,20.693,47.046,19.535C47.028,16.815,44.4,14.978,41.827,15.896ZM41.827,15.896"/>
  <path preserveAspectRatio="xMidYMid meet" stroke-dasharray="none" fill-rule="nonzero" fill="#000000" stroke="none" stroke-linecap="butt" stroke-width="1px" stroke-opacity="1" stroke-miterlimit="4" version="1.0" fill-opacity="1" stroke-linejoin="miter" d="M22.696,28.65C21.777,28.889,19.645,30.047,17.624,31.389C12.736,34.678,9.336,39.107,8.251,43.646C7.921,45.043,7.884,45.65,7.957,47.598C8.068,50.262,8.362,51.475,9.446,53.754C14.151,63.678,29.496,70.569,46.918,70.569L49.288,70.569L48.388,71.562C46.973,73.105,46.697,74.576,47.524,76.248C48.351,77.884,50.097,78.692,51.898,78.27C52.78,78.067,53.074,77.81,57.411,73.528C60.352,70.606,62.097,68.75,62.318,68.272C62.777,67.28,62.759,65.92,62.281,64.946C61.877,64.101,53.993,56.125,52.89,55.408C52.449,55.132,51.99,55.04,51.089,55.04C49.619,55.04,48.682,55.463,47.947,56.474C46.679,58.22,46.826,60.057,48.388,61.693L49.307,62.667L46.458,62.667C32.032,62.667,19.039,56.988,16.154,49.435C15.658,48.167,15.621,46.238,16.044,44.804C16.907,41.919,20.031,38.795,24.35,36.461C26.721,35.193,27.511,34.035,27.346,32.069C27.162,29.808,24.828,28.117,22.696,28.65ZM22.696,28.65"/>
</g>
  <g id="Bold-L" transform="matrix(1.0,0.0,0.0,1.0,2294.213752790178,1473.7237723214287)">  <path stroke-opacity="1" stroke-width="1px" stroke-dasharray="none" fill="#000000" fill-opacity="1" stroke-linecap="butt" fill-rule="nonzero" stroke-linejoin="miter" preserveAspectRatio="xMidYMid meet" stroke="none" stroke-miterlimit="4" version="1.0" d="M41.827,15.896C41.276,16.08,39.971,17.275,36.608,20.619C34.145,23.082,31.977,25.398,31.775,25.765C31.352,26.592,31.315,28.044,31.719,29C32.105,29.937,40.43,38.317,41.441,38.795C42.966,39.511,44.951,39.089,46.072,37.802C47.487,36.185,47.34,34.127,45.723,32.399L44.786,31.425L47.634,31.425C62.061,31.425,75.035,37.086,77.939,44.657C78.472,46.035,78.472,48.039,77.939,49.527C76.873,52.504,73.988,55.334,69.595,57.705C68.18,58.477,67.206,59.378,66.876,60.26C66.563,61.068,66.655,62.557,67.059,63.365C67.813,64.836,69.706,65.828,71.157,65.516C72.958,65.111,77.516,62.226,79.979,59.91C82.79,57.282,84.922,53.975,85.768,50.906C86.227,49.215,86.227,44.859,85.749,43.187C83.011,33.282,70.735,25.784,54.213,23.891C53.258,23.78,50.758,23.652,48.663,23.578L44.841,23.468L45.686,22.567C46.697,21.483,47.046,20.693,47.046,19.535C47.028,16.815,44.4,14.978,41.827,15.896ZM41.827,15.896"/>
  <path fill-rule="nonzero" version="1.0" stroke-opacity="1" stroke-linejoin="miter" stroke="none" stroke-linecap="butt" fill="#000000" preserveAspectRatio="xMidYMid meet" stroke-dasharray="none" stroke-miterlimit="4" fill-opacity="1" stroke-width="1px" d="M22.696,28.65C21.777,28.889,19.645,30.047,17.624,31.389C12.736,34.678,9.336,39.107,8.251,43.646C7.921,45.043,7.884,45.65,7.957,47.598C8.068,50.262,8.362,51.475,9.446,53.754C14.151,63.678,29.496,70.569,46.918,70.569L49.288,70.569L48.388,71.562C46.973,73.105,46.697,74.576,47.524,76.248C48.351,77.884,50.097,78.692,51.898,78.27C52.78,78.067,53.074,77.81,57.411,73.528C60.352,70.606,62.097,68.75,62.318,68.272C62.777,67.28,62.759,65.92,62.281,64.946C61.877,64.101,53.993,56.125,52.89,55.408C52.449,55.132,51.99,55.04,51.089,55.04C49.619,55.04,48.682,55.463,47.947,56.474C46.679,58.22,46.826,60.057,48.388,61.693L49.307,62.667L46.458,62.667C32.032,62.667,19.039,56.988,16.154,49.435C15.658,48.167,15.621,46.238,16.044,44.804C16.907,41.919,20.031,38.795,24.35,36.461C26.721,35.193,27.511,34.035,27.346,32.069C27.162,29.808,24.828,28.117,22.696,28.65ZM22.696,28.65"/>
</g>
  <g id="Semibold-L" transform="matrix(1.0,0.0,0.0,1.0,1997.5037527901786,1473.7237723214287)">  <path fill="#000000" fill-opacity="1" stroke-dasharray="none" stroke-width="1px" stroke="none" stroke-linecap="butt" preserveAspectRatio="xMidYMid meet" stroke-opacity="1" stroke-miterlimit="4" fill-rule="nonzero" version="1.0" stroke-linejoin="miter" d="M41.827,15.896C41.276,16.08,39.971,17.275,36.608,20.619C34.145,23.082,31.977,25.398,31.775,25.765C31.352,26.592,31.315,28.044,31.719,29C32.105,29.937,40.43,38.317,41.441,38.795C42.966,39.511,44.951,39.089,46.072,37.802C47.487,36.185,47.34,34.127,45.723,32.399L44.786,31.425L47.634,31.425C62.061,31.425,75.035,37.086,77.939,44.657C78.472,46.035,78.472,48.039,77.939,49.527C76.873,52.504,73.988,55.334,69.595,57.705C68.18,58.477,67.206,59.378,66.876,60.26C66.563,61.068,66.655,62.557,67.059,63.365C67.813,64.836,69.706,65.828,71.157,65.516C72.958,65.111,77.516,62.226,79.979,59.91C82.79,57.282,84.922,53.975,85.768,50.906C86.227,49.215,86.227,44.859,85.749,43.187C83.011,33.282,70.735,25.784,54.213,23.891C53.258,23.78,50.758,23.652,48.663,23.578L44.841,23.468L45.686,22.567C46.697,21.483,47.046,20.693,47.046,19.535C47.028,16.815,44.4,14.978,41.827,15.896ZM41.827,15.896"/>
  <path version="1.0" fill-rule="nonzero" preserveAspectRatio="xMidYMid meet" stroke-linecap="butt" stroke-miterlimit="4" stroke-dasharray="none" stroke-opacity="1" fill="#000000" fill-opacity="1" stroke="none" stroke-linejoin="miter" stroke-width="1px" d="M22.696,28.65C21.777,28.889,19.645,30.047,17.624,31.389C12.736,34.678,9.336,39.107,8.251,43.646C7.921,45.043,7.884,45.65,7.957,47.598C8.068,50.262,8.362,51.475,9.446,53.754C14.151,63.678,29.496,70.569,46.918,70.569L49.288,70.569L48.388,71.562C46.973,73.105,46.697,74.576,47.524,76.248C48.351,77.884,50.097,78.692,51.898,78.27C52.78,78.067,53.074,77.81,57.411,73.528C60.352,70.606,62.097,68.75,62.318,68.272C62.777,67.28,62.759,65.92,62.281,64.946C61.877,64.101,53.993,56.125,52.89,55.408C52.449,55.132,51.99,55.04,51.089,55.04C49.619,55.04,48.682,55.463,47.947,56.474C46.679,58.22,46.826,60.057,48.388,61.693L49.307,62.667L46.458,62.667C32.032,62.667,19.039,56.988,16.154,49.435C15.658,48.167,15.621,46.238,16.044,44.804C16.907,41.919,20.031,38.795,24.35,36.461C26.721,35.193,27.511,34.035,27.346,32.069C27.162,29.808,24.828,28.117,22.696,28.65ZM22.696,28.65"/>
</g>
  <g id="Medium-L" transform="matrix(1.0,0.0,0.0,1.0,1700.7937527901786,1473.7237723214287)">  <path stroke-linejoin="miter" fill-opacity="1" stroke-opacity="1" stroke-width="1px" fill="#000000" fill-rule="nonzero" stroke-dasharray="none" stroke-miterlimit="4" stroke-linecap="butt" stroke="none" preserveAspectRatio="xMidYMid meet" version="1.0" d="M41.827,15.896C41.276,16.08,39.971,17.275,36.608,20.619C34.145,23.082,31.977,25.398,31.775,25.765C31.352,26.592,31.315,28.044,31.719,29C32.105,29.937,40.43,38.317,41.441,38.795C42.966,39.511,44.951,39.089,46.072,37.802C47.487,36.185,47.34,34.127,45.723,32.399L44.786,31.425L47.634,31.425C62.061,31.425,75.035,37.086,77.939,44.657C78.472,46.035,78.472,48.039,77.939,49.527C76.873,52.504,73.988,55.334,69.595,57.705C68.18,58.477,67.206,59.378,66.876,60.26C66.563,61.068,66.655,62.557,67.059,63.365C67.813,64.836,69.706,65.828,71.157,65.516C72.958,65.111,77.516,62.226,79.979,59.91C82.79,57.282,84.922,53.975,85.768,50.906C86.227,49.215,86.227,44.859,85.749,43.187C83.011,33.282,70.735,25.784,54.213,23.891C53.258,23.78,50.758,23.652,48.663,23.578L44.841,23.468L45.686,22.567C46.697,21.483,47.046,20.693,47.046,19.535C47.028,16.815,44.4,14.978,41.827,15.896ZM41.827,15.896"/>
  <path fill-rule="nonzero" fill-opacity="1" preserveAspectRatio="xMidYMid meet" stroke-dasharray="none" stroke-opacity="1" stroke-linecap="butt" stroke="none" stroke-linejoin="miter" version="1.0" stroke-miterlimit="4" stroke-width="1px" fill="#000000" d="M22.696,28.65C21.777,28.889,19.645,30.047,17.624,31.389C12.736,34.678,9.336,39.107,8.251,43.646C7.921,45.043,7.884,45.65,7.957,47.598C8.068,50.262,8.362,51.475,9.446,53.754C14.151,63.678,29.496,70.569,46.918,70.569L49.288,70.569L48.388,71.562C46.973,73.105,46.697,74.576,47.524,76.248C48.351,77.884,50.097,78.692,51.898,78.27C52.78,78.067,53.074,77.81,57.411,73.528C60.352,70.606,62.097,68.75,62.318,68.272C62.777,67.28,62.759,65.92,62.281,64.946C61.877,64.101,53.993,56.125,52.89,55.408C52.449,55.132,51.99,55.04,51.089,55.04C49.619,55.04,48.682,55.463,47.947,56.474C46.679,58.22,46.826,60.057,48.388,61.693L49.307,62.667L46.458,62.667C32.032,62.667,19.039,56.988,16.154,49.435C15.658,48.167,15.621,46.238,16.044,44.804C16.907,41.919,20.031,38.795,24.35,36.461C26.721,35.193,27.511,34.035,27.346,32.069C27.162,29.808,24.828,28.117,22.696,28.65ZM22.696,28.65"/>
</g>
  <g id="Regular-L" transform="matrix(1.0,0.0,0.0,1.0,1404.0837527901786,1473.7237723214287)">  <path fill-opacity="1" fill="#000000" stroke-linecap="butt" stroke-miterlimit="4" stroke-opacity="1" stroke="none" version="1.0" stroke-width="1px" preserveAspectRatio="xMidYMid meet" fill-rule="nonzero" stroke-linejoin="miter" stroke-dasharray="none" d="M41.827,15.896C41.276,16.08,39.971,17.275,36.608,20.619C34.145,23.082,31.977,25.398,31.775,25.765C31.352,26.592,31.315,28.044,31.719,29C32.105,29.937,40.43,38.317,41.441,38.795C42.966,39.511,44.951,39.089,46.072,37.802C47.487,36.185,47.34,34.127,45.723,32.399L44.786,31.425L47.634,31.425C62.061,31.425,75.035,37.086,77.939,44.657C78.472,46.035,78.472,48.039,77.939,49.527C76.873,52.504,73.988,55.334,69.595,57.705C68.18,58.477,67.206,59.378,66.876,60.26C66.563,61.068,66.655,62.557,67.059,63.365C67.813,64.836,69.706,65.828,71.157,65.516C72.958,65.111,77.516,62.226,79.979,59.91C82.79,57.282,84.922,53.975,85.768,50.906C86.227,49.215,86.227,44.859,85.749,43.187C83.011,33.282,70.735,25.784,54.213,23.891C53.258,23.78,50.758,23.652,48.663,23.578L44.841,23.468L45.686,22.567C46.697,21.483,47.046,20.693,47.046,19.535C47.028,16.815,44.4,14.978,41.827,15.896ZM41.827,15.896"/>
  <path fill="#000000" stroke-linejoin="miter" stroke-dasharray="none" stroke-opacity="1" fill-opacity="1" stroke-linecap="butt" preserveAspectRatio="xMidYMid meet" version="1.0" stroke-miterlimit="4" fill-rule="nonzero" stroke-width="1px" stroke="none" d="M22.696,28.65C21.777,28.889,19.645,30.047,17.624,31.389C12.736,34.678,9.336,39.107,8.251,43.646C7.921,45.043,7.884,45.65,7.957,47.598C8.068,50.262,8.362,51.475,9.446,53.754C14.151,63.678,29.496,70.569,46.918,70.569L49.288,70.569L48.388,71.562C46.973,73.105,46.697,74.576,47.524,76.248C48.351,77.884,50.097,78.692,51.898,78.27C52.78,78.067,53.074,77.81,57.411,73.528C60.352,70.606,62.097,68.75,62.318,68.272C62.777,67.28,62.759,65.92,62.281,64.946C61.877,64.101,53.993,56.125,52.89,55.408C52.449,55.132,51.99,55.04,51.089,55.04C49.619,55.04,48.682,55.463,47.947,56.474C46.679,58.22,46.826,60.057,48.388,61.693L49.307,62.667L46.458,62.667C32.032,62.667,19.039,56.988,16.154,49.435C15.658,48.167,15.621,46.238,16.044,44.804C16.907,41.919,20.031,38.795,24.35,36.461C26.721,35.193,27.511,34.035,27.346,32.069C27.162,29.808,24.828,28.117,22.696,28.65ZM22.696,28.65"/>
</g>
  <g id="Light-L" transform="matrix(1.0,0.0,0.0,1.0,1107.3737527901787,1473.7237723214287)">  <path stroke-miterlimit="4" stroke-width="1px" version="1.0" stroke-opacity="1" stroke-linejoin="miter" stroke-dasharray="none" stroke-linecap="butt" fill="#000000" fill-opacity="1" preserveAspectRatio="xMidYMid meet" stroke="none" fill-rule="nonzero" d="M41.827,15.896C41.276,16.08,39.971,17.275,36.608,20.619C34.145,23.082,31.977,25.398,31.775,25.765C31.352,26.592,31.315,28.044,31.719,29C32.105,29.937,40.43,38.317,41.441,38.795C42.966,39.511,44.951,39.089,46.072,37.802C47.487,36.185,47.34,34.127,45.723,32.399L44.786,31.425L47.634,31.425C62.061,31.425,75.035,37.086,77.939,44.657C78.472,46.035,78.472,48.039,77.939,49.527C76.873,52.504,73.988,55.334,69.595,57.705C68.18,58.477,67.206,59.378,66.876,60.26C66.563,61.068,66.655,62.557,67.059,63.365C67.813,64.836,69.706,65.828,71.157,65.516C72.958,65.111,77.516,62.226,79.979,59.91C82.79,57.282,84.922,53.975,85.768,50.906C86.227,49.215,86.227,44.859,85.749,43.187C83.011,33.282,70.735,25.784,54.213,23.891C53.258,23.78,50.758,23.652,48.663,23.578L44.841,23.468L45.686,22.567C46.697,21.483,47.046,20.693,47.046,19.535C47.028,16.815,44.4,14.978,41.827,15.896ZM41.827,15.896"/>
  <path preserveAspectRatio="xMidYMid meet" fill-rule="nonzero" stroke-width="1px" stroke-linejoin="miter" stroke="none" stroke-opacity="1" version="1.0" stroke-dasharray="none" fill="#000000" fill-opacity="1" stroke-miterlimit="4" stroke-linecap="butt" d="M22.696,28.65C21.777,28.889,19.645,30.047,17.624,31.389C12.736,34.678,9.336,39.107,8.251,43.646C7.921,45.043,7.884,45.65,7.957,47.598C8.068,50.262,8.362,51.475,9.446,53.754C14.151,63.678,29.496,70.569,46.918,70.569L49.288,70.569L48.388,71.562C46.973,73.105,46.697,74.576,47.524,76.248C48.351,77.884,50.097,78.692,51.898,78.27C52.78,78.067,53.074,77.81,57.411,73.528C60.352,70.606,62.097,68.75,62.318,68.272C62.777,67.28,62.759,65.92,62.281,64.946C61.877,64.101,53.993,56.125,52.89,55.408C52.449,55.132,51.99,55.04,51.089,55.04C49.619,55.04,48.682,55.463,47.947,56.474C46.679,58.22,46.826,60.057,48.388,61.693L49.307,62.667L46.458,62.667C32.032,62.667,19.039,56.988,16.154,49.435C15.658,48.167,15.621,46.238,16.044,44.804C16.907,41.919,20.031,38.795,24.35,36.461C26.721,35.193,27.511,34.035,27.346,32.069C27.162,29.808,24.828,28.117,22.696,28.65ZM22.696,28.65"/>
</g>
  <g id="Thin-L" transform="matrix(1.0,0.0,0.0,1.0,810.6637527901786,1473.7237723214287)">  <path stroke="none" version="1.0" stroke-opacity="1" stroke-dasharray="none" fill-opacity="1" stroke-width="1px" stroke-linejoin="miter" stroke-linecap="butt" stroke-miterlimit="4" fill="#000000" fill-rule="nonzero" preserveAspectRatio="xMidYMid meet" d="M41.827,15.896C41.276,16.08,39.971,17.275,36.608,20.619C34.145,23.082,31.977,25.398,31.775,25.765C31.352,26.592,31.315,28.044,31.719,29C32.105,29.937,40.43,38.317,41.441,38.795C42.966,39.511,44.951,39.089,46.072,37.802C47.487,36.185,47.34,34.127,45.723,32.399L44.786,31.425L47.634,31.425C62.061,31.425,75.035,37.086,77.939,44.657C78.472,46.035,78.472,48.039,77.939,49.527C76.873,52.504,73.988,55.334,69.595,57.705C68.18,58.477,67.206,59.378,66.876,60.26C66.563,61.068,66.655,62.557,67.059,63.365C67.813,64.836,69.706,65.828,71.157,65.516C72.958,65.111,77.516,62.226,79.979,59.91C82.79,57.282,84.922,53.975,85.768,50.906C86.227,49.215,86.227,44.859,85.749,43.187C83.011,33.282,70.735,25.784,54.213,23.891C53.258,23.78,50.758,23.652,48.663,23.578L44.841,23.468L45.686,22.567C46.697,21.483,47.046,20.693,47.046,19.535C47.028,16.815,44.4,14.978,41.827,15.896ZM41.827,15.896"/>
  <path stroke-dasharray="none" stroke-width="1px" fill-opacity="1" fill-rule="nonzero" stroke="none" version="1.0" fill="#000000" stroke-opacity="1" stroke-miterlimit="4" stroke-linejoin="miter" stroke-linecap="butt" preserveAspectRatio="xMidYMid meet" d="M22.696,28.65C21.777,28.889,19.645,30.047,17.624,31.389C12.736,34.678,9.336,39.107,8.251,43.646C7.921,45.043,7.884,45.65,7.957,47.598C8.068,50.262,8.362,51.475,9.446,53.754C14.151,63.678,29.496,70.569,46.918,70.569L49.288,70.569L48.388,71.562C46.973,73.105,46.697,74.576,47.524,76.248C48.351,77.884,50.097,78.692,51.898,78.27C52.78,78.067,53.074,77.81,57.411,73.528C60.352,70.606,62.097,68.75,62.318,68.272C62.777,67.28,62.759,65.92,62.281,64.946C61.877,64.101,53.993,56.125,52.89,55.408C52.449,55.132,51.99,55.04,51.089,55.04C49.619,55.04,48.682,55.463,47.947,56.474C46.679,58.22,46.826,60.057,48.388,61.693L49.307,62.667L46.458,62.667C32.032,62.667,19.039,56.988,16.154,49.435C15.658,48.167,15.621,46.238,16.044,44.804C16.907,41.919,20.031,38.795,24.35,36.461C26.721,35.193,27.511,34.035,27.346,32.069C27.162,29.808,24.828,28.117,22.696,28.65ZM22.696,28.65"/>
</g>
  <g id="Ultralight-L" transform="matrix(1.0,0.0,0.0,1.0,513.9537527901786,1473.7237723214287)">  <path stroke-linecap="butt" stroke="none" fill-opacity="1" version="1.0" stroke-opacity="1" stroke-dasharray="none" stroke-linejoin="miter" stroke-miterlimit="4" preserveAspectRatio="xMidYMid meet" fill-rule="nonzero" stroke-width="1px" fill="#000000" d="M41.827,15.896C41.276,16.08,39.971,17.275,36.608,20.619C34.145,23.082,31.977,25.398,31.775,25.765C31.352,26.592,31.315,28.044,31.719,29C32.105,29.937,40.43,38.317,41.441,38.795C42.966,39.511,44.951,39.089,46.072,37.802C47.487,36.185,47.34,34.127,45.723,32.399L44.786,31.425L47.634,31.425C62.061,31.425,75.035,37.086,77.939,44.657C78.472,46.035,78.472,48.039,77.939,49.527C76.873,52.504,73.988,55.334,69.595,57.705C68.18,58.477,67.206,59.378,66.876,60.26C66.563,61.068,66.655,62.557,67.059,63.365C67.813,64.836,69.706,65.828,71.157,65.516C72.958,65.111,77.516,62.226,79.979,59.91C82.79,57.282,84.922,53.975,85.768,50.906C86.227,49.215,86.227,44.859,85.749,43.187C83.011,33.282,70.735,25.784,54.213,23.891C53.258,23.78,50.758,23.652,48.663,23.578L44.841,23.468L45.686,22.567C46.697,21.483,47.046,20.693,47.046,19.535C47.028,16.815,44.4,14.978,41.827,15.896ZM41.827,15.896"/>
  <path stroke-linecap="butt" version="1.0" stroke-miterlimit="4" stroke-dasharray="none" fill-opacity="1" stroke-opacity="1" preserveAspectRatio="xMidYMid meet" stroke-width="1px" stroke-linejoin="miter" fill="#000000" stroke="none" fill-rule="nonzero" d="M22.696,28.65C21.777,28.889,19.645,30.047,17.624,31.389C12.736,34.678,9.336,39.107,8.251,43.646C7.921,45.043,7.884,45.65,7.957,47.598C8.068,50.262,8.362,51.475,9.446,53.754C14.151,63.678,29.496,70.569,46.918,70.569L49.288,70.569L48.388,71.562C46.973,73.105,46.697,74.576,47.524,76.248C48.351,77.884,50.097,78.692,51.898,78.27C52.78,78.067,53.074,77.81,57.411,73.528C60.352,70.606,62.097,68.75,62.318,68.272C62.777,67.28,62.759,65.92,62.281,64.946C61.877,64.101,53.993,56.125,52.89,55.408C52.449,55.132,51.99,55.04,51.089,55.04C49.619,55.04,48.682,55.463,47.947,56.474C46.679,58.22,46.826,60.057,48.388,61.693L49.307,62.667L46.458,62.667C32.032,62.667,19.039,56.988,16.154,49.435C15.658,48.167,15.621,46.238,16.044,44.804C16.907,41.919,20.031,38.795,24.35,36.461C26.721,35.193,27.511,34.035,27.346,32.069C27.162,29.808,24.828,28.117,22.696,28.65ZM22.696,28.65"/>
</g>
  <g id="Black-M" transform="matrix(1.0,0.0,0.0,1.0,2898.210040922619,1054.300060453869)">  <path version="1.0" stroke="none" stroke-opacity="1" stroke-width="1px" fill-opacity="1" fill="#000000" fill-rule="nonzero" preserveAspectRatio="xMidYMid meet" stroke-miterlimit="4" stroke-dasharray="none" stroke-linecap="butt" stroke-linejoin="miter" d="M32.424,12.323C31.997,12.465,30.985,13.391,28.378,15.984C26.469,17.893,24.788,19.688,24.631,19.973C24.304,20.614,24.275,21.74,24.589,22.48C24.888,23.207,31.341,29.703,32.125,30.073C33.307,30.629,34.846,30.301,35.715,29.304C36.812,28.051,36.698,26.455,35.444,25.116L34.718,24.361L36.926,24.361C48.109,24.361,58.167,28.749,60.418,34.618C60.831,35.686,60.831,37.239,60.418,38.393C59.591,40.701,57.355,42.895,53.95,44.733C52.853,45.331,52.098,46.029,51.841,46.713C51.599,47.34,51.671,48.494,51.984,49.12C52.568,50.26,54.035,51.029,55.161,50.787C56.557,50.474,60.09,48.237,61.999,46.442C64.179,44.405,65.831,41.841,66.486,39.462C66.843,38.151,66.843,34.775,66.472,33.478C64.35,25.8,54.833,19.987,42.026,18.52C41.285,18.434,39.348,18.335,37.724,18.278L34.76,18.192L35.416,17.494C36.199,16.654,36.47,16.041,36.47,15.144C36.456,13.035,34.419,11.611,32.424,12.323ZM32.424,12.323"/>
  <path stroke-miterlimit="4" stroke-opacity="1" version="1.0" stroke-dasharray="none" stroke="none" stroke-linejoin="miter" fill="#000000" fill-opacity="1" fill-rule="nonzero" stroke-linecap="butt" stroke-width="1px" preserveAspectRatio="xMidYMid meet" d="M17.594,22.21C16.882,22.395,15.229,23.292,13.662,24.332C9.873,26.882,7.237,30.316,6.396,33.834C6.14,34.917,6.112,35.387,6.169,36.897C6.254,38.963,6.482,39.903,7.322,41.67C10.969,49.363,22.865,54.705,36.37,54.705L38.208,54.705L37.51,55.474C36.413,56.671,36.199,57.811,36.84,59.107C37.481,60.375,38.835,61.002,40.231,60.674C40.915,60.517,41.143,60.318,44.505,56.999C46.784,54.733,48.137,53.295,48.308,52.924C48.665,52.155,48.65,51.101,48.28,50.346C47.967,49.69,41.855,43.508,41,42.952C40.658,42.738,40.302,42.667,39.604,42.667C38.464,42.667,37.738,42.995,37.168,43.778C36.185,45.132,36.299,46.556,37.51,47.824L38.222,48.579L36.014,48.579C24.831,48.579,14.759,44.177,12.522,38.322C12.138,37.339,12.109,35.843,12.437,34.732C13.106,32.495,15.528,30.073,18.876,28.264C20.714,27.281,21.326,26.384,21.198,24.859C21.056,23.107,19.246,21.796,17.594,22.21ZM17.594,22.21"/>
</g>
  <g id="Heavy-M" transform="matrix(1.0,0.0,0.0,1.0,2601.500040922619,1054.300060453869)">  <path fill-opacity="1" fill-rule="nonzero" preserveAspectRatio="xMidYMid meet" version="1.0" stroke-miterlimit="4" stroke-dasharray="none" fill="#000000" stroke-linejoin="miter" stroke-width="1px" stroke-linecap="butt" stroke-opacity="1" stroke="none" d="M32.424,12.323C31.997,12.465,30.985,13.391,28.378,15.984C26.469,17.893,24.788,19.688,24.631,19.973C24.304,20.614,24.275,21.74,24.589,22.48C24.888,23.207,31.341,29.703,32.125,30.073C33.307,30.629,34.846,30.301,35.715,29.304C36.812,28.051,36.698,26.455,35.444,25.116L34.718,24.361L36.926,24.361C48.109,24.361,58.167,28.749,60.418,34.618C60.831,35.686,60.831,37.239,60.418,38.393C59.591,40.701,57.355,42.895,53.95,44.733C52.853,45.331,52.098,46.029,51.841,46.713C51.599,47.34,51.671,48.494,51.984,49.12C52.568,50.26,54.035,51.029,55.161,50.787C56.557,50.474,60.09,48.237,61.999,46.442C64.179,44.405,65.831,41.841,66.486,39.462C66.843,38.151,66.843,34.775,66.472,33.478C64.35,25.8,54.833,19.987,42.026,18.52C41.285,18.434,39.348,18.335,37.724,18.278L34.76,18.192L35.416,17.494C36.199,16.654,36.47,16.041,36.47,15.144C36.456,13.035,34.419,11.611,32.424,12.323ZM32.424,12.323"/>
  <path preserveAspectRatio="xMidYMid meet" stroke-dasharray="none" fill-rule="nonzero" fill="#000000" stroke="none" stroke-linecap="butt" stroke-width="1px" stroke-opacity="1" stroke-miterlimit="4" version="1.0" fill-opacity="1" stroke-linejoin="miter" d="M17.594,22.21C16.882,22.395,15.229,23.292,13.662,24.332C9.873,26.882,7.237,30.316,6.396,33.834C6.14,34.917,6.112,35.387,6.169,36.897C6.254,38.963,6.482,39.903,7.322,41.67C10.969,49.363,22.865,54.705,36.37,54.705L38.208,54.705L37.51,55.474C36.413,56.671,36.199,57.811,36.84,59.107C37.481,60.375,38.835,61.002,40.231,60.674C40.915,60.517,41.143,60.318,44.505,56.999C46.784,54.733,48.137,53.295,48.308,52.924C48.665,52.155,48.65,51.101,48.28,50.346C47.967,49.69,41.855,43.508,41,42.952C40.658,42.738,40.302,42.667,39.604,42.667C38.464,42.667,37.738,42.995,37.168,43.778C36.185,45.132,36.299,46.556,37.51,47.824L38.222,48.579L36.014,48.579C24.831,48.579,14.759,44.177,12.522,38.322C12.138,37.339,12.109,35.843,12.437,34.732C13.106,32.495,15.528,30.073,18.876,28.264C20.714,27.281,21.326,26.384,21.198,24.859C21.056,23.107,19.246,21.796,17.594,22.21ZM17.594,22.21"/>
</g>
  <g id="Bold-M" transform="matrix(1.0,0.0,0.0,1.0,2304.790040922619,1054.300060453869)">  <path stroke-opacity="1" stroke-width="1px" stroke-dasharray="none" fill="#000000" fill-opacity="1" stroke-linecap="butt" fill-rule="nonzero" stroke-linejoin="miter" preserveAspectRatio="xMidYMid meet" stroke="none" stroke-miterlimit="4" version="1.0" d="M32.424,12.323C31.997,12.465,30.985,13.391,28.378,15.984C26.469,17.893,24.788,19.688,24.631,19.973C24.304,20.614,24.275,21.74,24.589,22.48C24.888,23.207,31.341,29.703,32.125,30.073C33.307,30.629,34.846,30.301,35.715,29.304C36.812,28.051,36.698,26.455,35.444,25.116L34.718,24.361L36.926,24.361C48.109,24.361,58.167,28.749,60.418,34.618C60.831,35.686,60.831,37.239,60.418,38.393C59.591,40.701,57.355,42.895,53.95,44.733C52.853,45.331,52.098,46.029,51.841,46.713C51.599,47.34,51.671,48.494,51.984,49.12C52.568,50.26,54.035,51.029,55.161,50.787C56.557,50.474,60.09,48.237,61.999,46.442C64.179,44.405,65.831,41.841,66.486,39.462C66.843,38.151,66.843,34.775,66.472,33.478C64.35,25.8,54.833,19.987,42.026,18.52C41.285,18.434,39.348,18.335,37.724,18.278L34.76,18.192L35.416,17.494C36.199,16.654,36.47,16.041,36.47,15.144C36.456,13.035,34.419,11.611,32.424,12.323ZM32.424,12.323"/>
  <path fill-rule="nonzero" version="1.0" stroke-opacity="1" stroke-linejoin="miter" stroke="none" stroke-linecap="butt" fill="#000000" preserveAspectRatio="xMidYMid meet" stroke-dasharray="none" stroke-miterlimit="4" fill-opacity="1" stroke-width="1px" d="M17.594,22.21C16.882,22.395,15.229,23.292,13.662,24.332C9.873,26.882,7.237,30.316,6.396,33.834C6.14,34.917,6.112,35.387,6.169,36.897C6.254,38.963,6.482,39.903,7.322,41.67C10.969,49.363,22.865,54.705,36.37,54.705L38.208,54.705L37.51,55.474C36.413,56.671,36.199,57.811,36.84,59.107C37.481,60.375,38.835,61.002,40.231,60.674C40.915,60.517,41.143,60.318,44.505,56.999C46.784,54.733,48.137,53.295,48.308,52.924C48.665,52.155,48.65,51.101,48.28,50.346C47.967,49.69,41.855,43.508,41,42.952C40.658,42.738,40.302,42.667,39.604,42.667C38.464,42.667,37.738,42.995,37.168,43.778C36.185,45.132,36.299,46.556,37.51,47.824L38.222,48.579L36.014,48.579C24.831,48.579,14.759,44.177,12.522,38.322C12.138,37.339,12.109,35.843,12.437,34.732C13.106,32.495,15.528,30.073,18.876,28.264C20.714,27.281,21.326,26.384,21.198,24.859C21.056,23.107,19.246,21.796,17.594,22.21ZM17.594,22.21"/>
</g>
  <g id="Semibold-M" transform="matrix(1.0,0.0,0.0,1.0,2008.080040922619,1054.300060453869)">  <path fill="#000000" fill-opacity="1" stroke-dasharray="none" stroke-width="1px" stroke="none" stroke-linecap="butt" preserveAspectRatio="xMidYMid meet" stroke-opacity="1" stroke-miterlimit="4" fill-rule="nonzero" version="1.0" stroke-linejoin="miter" d="M32.424,12.323C31.997,12.465,30.985,13.391,28.378,15.984C26.469,17.893,24.788,19.688,24.631,19.973C24.304,20.614,24.275,21.74,24.589,22.48C24.888,23.207,31.341,29.703,32.125,30.073C33.307,30.629,34.846,30.301,35.715,29.304C36.812,28.051,36.698,26.455,35.444,25.116L34.718,24.361L36.926,24.361C48.109,24.361,58.167,28.749,60.418,34.618C60.831,35.686,60.831,37.239,60.418,38.393C59.591,40.701,57.355,42.895,53.95,44.733C52.853,45.331,52.098,46.029,51.841,46.713C51.599,47.34,51.671,48.494,51.984,49.12C52.568,50.26,54.035,51.029,55.161,50.787C56.557,50.474,60.09,48.237,61.999,46.442C64.179,44.405,65.831,41.841,66.486,39.462C66.843,38.151,66.843,34.775,66.472,33.478C64.35,25.8,54.833,19.987,42.026,18.52C41.285,18.434,39.348,18.335,37.724,18.278L34.76,18.192L35.416,17.494C36.199,16.654,36.47,16.041,36.47,15.144C36.456,13.035,34.419,11.611,32.424,12.323ZM32.424,12.323"/>
  <path version="1.0" fill-rule="nonzero" preserveAspectRatio="xMidYMid meet" stroke-linecap="butt" stroke-miterlimit="4" stroke-dasharray="none" stroke-opacity="1" fill="#000000" fill-opacity="1" stroke="none" stroke-linejoin="miter" stroke-width="1px" d="M17.594,22.21C16.882,22.395,15.229,23.292,13.662,24.332C9.873,26.882,7.237,30.316,6.396,33.834C6.14,34.917,6.112,35.387,6.169,36.897C6.254,38.963,6.482,39.903,7.322,41.67C10.969,49.363,22.865,54.705,36.37,54.705L38.208,54.705L37.51,55.474C36.413,56.671,36.199,57.811,36.84,59.107C37.481,60.375,38.835,61.002,40.231,60.674C40.915,60.517,41.143,60.318,44.505,56.999C46.784,54.733,48.137,53.295,48.308,52.924C48.665,52.155,48.65,51.101,48.28,50.346C47.967,49.69,41.855,43.508,41,42.952C40.658,42.738,40.302,42.667,39.604,42.667C38.464,42.667,37.738,42.995,37.168,43.778C36.185,45.132,36.299,46.556,37.51,47.824L38.222,48.579L36.014,48.579C24.831,48.579,14.759,44.177,12.522,38.322C12.138,37.339,12.109,35.843,12.437,34.732C13.106,32.495,15.528,30.073,18.876,28.264C20.714,27.281,21.326,26.384,21.198,24.859C21.056,23.107,19.246,21.796,17.594,22.21ZM17.594,22.21"/>
</g>
  <g id="Medium-M" transform="matrix(1.0,0.0,0.0,1.0,1711.370040922619,1054.300060453869)">  <path stroke-linejoin="miter" fill-opacity="1" stroke-opacity="1" stroke-width="1px" fill="#000000" fill-rule="nonzero" stroke-dasharray="none" stroke-miterlimit="4" stroke-linecap="butt" stroke="none" preserveAspectRatio="xMidYMid meet" version="1.0" d="M32.424,12.323C31.997,12.465,30.985,13.391,28.378,15.984C26.469,17.893,24.788,19.688,24.631,19.973C24.304,20.614,24.275,21.74,24.589,22.48C24.888,23.207,31.341,29.703,32.125,30.073C33.307,30.629,34.846,30.301,35.715,29.304C36.812,28.051,36.698,26.455,35.444,25.116L34.718,24.361L36.926,24.361C48.109,24.361,58.167,28.749,60.418,34.618C60.831,35.686,60.831,37.239,60.418,38.393C59.591,40.701,57.355,42.895,53.95,44.733C52.853,45.331,52.098,46.029,51.841,46.713C51.599,47.34,51.671,48.494,51.984,49.12C52.568,50.26,54.035,51.029,55.161,50.787C56.557,50.474,60.09,48.237,61.999,46.442C64.179,44.405,65.831,41.841,66.486,39.462C66.843,38.151,66.843,34.775,66.472,33.478C64.35,25.8,54.833,19.987,42.026,18.52C41.285,18.434,39.348,18.335,37.724,18.278L34.76,18.192L35.416,17.494C36.199,16.654,36.47,16.041,36.47,15.144C36.456,13.035,34.419,11.611,32.424,12.323ZM32.424,12.323"/>
  <path fill-rule="nonzero" fill-opacity="1" preserveAspectRatio="xMidYMid meet" stroke-dasharray="none" stroke-opacity="1" stroke-linecap="butt" stroke="none" stroke-linejoin="miter" version="1.0" stroke-miterlimit="4" stroke-width="1px" fill="#000000" d="M17.594,22.21C16.882,22.395,15.229,23.292,13.662,24.332C9.873,26.882,7.237,30.316,6.396,33.834C6.14,34.917,6.112,35.387,6.169,36.897C6.254,38.963,6.482,39.903,7.322,41.67C10.969,49.363,22.865,54.705,36.37,54.705L38.208,54.705L37.51,55.474C36.413,56.671,36.199,57.811,36.84,59.107C37.481,60.375,38.835,61.002,40.231,60.674C40.915,60.517,41.143,60.318,44.505,56.999C46.784,54.733,48.137,53.295,48.308,52.924C48.665,52.155,48.65,51.101,48.28,50.346C47.967,49.69,41.855,43.508,41,42.952C40.658,42.738,40.302,42.667,39.604,42.667C38.464,42.667,37.738,42.995,37.168,43.778C36.185,45.132,36.299,46.556,37.51,47.824L38.222,48.579L36.014,48.579C24.831,48.579,14.759,44.177,12.522,38.322C12.138,37.339,12.109,35.843,12.437,34.732C13.106,32.495,15.528,30.073,18.876,28.264C20.714,27.281,21.326,26.384,21.198,24.859C21.056,23.107,19.246,21.796,17.594,22.21ZM17.594,22.21"/>
</g>
  <g id="Regular-M" transform="matrix(1.0,0.0,0.0,1.0,1414.660040922619,1054.300060453869)">  <path fill-opacity="1" fill="#000000" stroke-linecap="butt" stroke-miterlimit="4" stroke-opacity="1" stroke="none" version="1.0" stroke-width="1px" preserveAspectRatio="xMidYMid meet" fill-rule="nonzero" stroke-linejoin="miter" stroke-dasharray="none" d="M32.424,12.323C31.997,12.465,30.985,13.391,28.378,15.984C26.469,17.893,24.788,19.688,24.631,19.973C24.304,20.614,24.275,21.74,24.589,22.48C24.888,23.207,31.341,29.703,32.125,30.073C33.307,30.629,34.846,30.301,35.715,29.304C36.812,28.051,36.698,26.455,35.444,25.116L34.718,24.361L36.926,24.361C48.109,24.361,58.167,28.749,60.418,34.618C60.831,35.686,60.831,37.239,60.418,38.393C59.591,40.701,57.355,42.895,53.95,44.733C52.853,45.331,52.098,46.029,51.841,46.713C51.599,47.34,51.671,48.494,51.984,49.12C52.568,50.26,54.035,51.029,55.161,50.787C56.557,50.474,60.09,48.237,61.999,46.442C64.179,44.405,65.831,41.841,66.486,39.462C66.843,38.151,66.843,34.775,66.472,33.478C64.35,25.8,54.833,19.987,42.026,18.52C41.285,18.434,39.348,18.335,37.724,18.278L34.76,18.192L35.416,17.494C36.199,16.654,36.47,16.041,36.47,15.144C36.456,13.035,34.419,11.611,32.424,12.323ZM32.424,12.323"/>
  <path fill="#000000" stroke-linejoin="miter" stroke-dasharray="none" stroke-opacity="1" fill-opacity="1" stroke-linecap="butt" preserveAspectRatio="xMidYMid meet" version="1.0" stroke-miterlimit="4" fill-rule="nonzero" stroke-width="1px" stroke="none" d="M17.594,22.21C16.882,22.395,15.229,23.292,13.662,24.332C9.873,26.882,7.237,30.316,6.396,33.834C6.14,34.917,6.112,35.387,6.169,36.897C6.254,38.963,6.482,39.903,7.322,41.67C10.969,49.363,22.865,54.705,36.37,54.705L38.208,54.705L37.51,55.474C36.413,56.671,36.199,57.811,36.84,59.107C37.481,60.375,38.835,61.002,40.231,60.674C40.915,60.517,41.143,60.318,44.505,56.999C46.784,54.733,48.137,53.295,48.308,52.924C48.665,52.155,48.65,51.101,48.28,50.346C47.967,49.69,41.855,43.508,41,42.952C40.658,42.738,40.302,42.667,39.604,42.667C38.464,42.667,37.738,42.995,37.168,43.778C36.185,45.132,36.299,46.556,37.51,47.824L38.222,48.579L36.014,48.579C24.831,48.579,14.759,44.177,12.522,38.322C12.138,37.339,12.109,35.843,12.437,34.732C13.106,32.495,15.528,30.073,18.876,28.264C20.714,27.281,21.326,26.384,21.198,24.859C21.056,23.107,19.246,21.796,17.594,22.21ZM17.594,22.21"/>
</g>
  <g id="Light-M" transform="matrix(1.0,0.0,0.0,1.0,1117.950040922619,1054.300060453869)">  <path stroke-miterlimit="4" stroke-width="1px" version="1.0" stroke-opacity="1" stroke-linejoin="miter" stroke-dasharray="none" stroke-linecap="butt" fill="#000000" fill-opacity="1" preserveAspectRatio="xMidYMid meet" stroke="none" fill-rule="nonzero" d="M32.424,12.323C31.997,12.465,30.985,13.391,28.378,15.984C26.469,17.893,24.788,19.688,24.631,19.973C24.304,20.614,24.275,21.74,24.589,22.48C24.888,23.207,31.341,29.703,32.125,30.073C33.307,30.629,34.846,30.301,35.715,29.304C36.812,28.051,36.698,26.455,35.444,25.116L34.718,24.361L36.926,24.361C48.109,24.361,58.167,28.749,60.418,34.618C60.831,35.686,60.831,37.239,60.418,38.393C59.591,40.701,57.355,42.895,53.95,44.733C52.853,45.331,52.098,46.029,51.841,46.713C51.599,47.34,51.671,48.494,51.984,49.12C52.568,50.26,54.035,51.029,55.161,50.787C56.557,50.474,60.09,48.237,61.999,46.442C64.179,44.405,65.831,41.841,66.486,39.462C66.843,38.151,66.843,34.775,66.472,33.478C64.35,25.8,54.833,19.987,42.026,18.52C41.285,18.434,39.348,18.335,37.724,18.278L34.76,18.192L35.416,17.494C36.199,16.654,36.47,16.041,36.47,15.144C36.456,13.035,34.419,11.611,32.424,12.323ZM32.424,12.323"/>
  <path preserveAspectRatio="xMidYMid meet" fill-rule="nonzero" stroke-width="1px" stroke-linejoin="miter" stroke="none" stroke-opacity="1" version="1.0" stroke-dasharray="none" fill="#000000" fill-opacity="1" stroke-miterlimit="4" stroke-linecap="butt" d="M17.594,22.21C16.882,22.395,15.229,23.292,13.662,24.332C9.873,26.882,7.237,30.316,6.396,33.834C6.14,34.917,6.112,35.387,6.169,36.897C6.254,38.963,6.482,39.903,7.322,41.67C10.969,49.363,22.865,54.705,36.37,54.705L38.208,54.705L37.51,55.474C36.413,56.671,36.199,57.811,36.84,59.107C37.481,60.375,38.835,61.002,40.231,60.674C40.915,60.517,41.143,60.318,44.505,56.999C46.784,54.733,48.137,53.295,48.308,52.924C48.665,52.155,48.65,51.101,48.28,50.346C47.967,49.69,41.855,43.508,41,42.952C40.658,42.738,40.302,42.667,39.604,42.667C38.464,42.667,37.738,42.995,37.168,43.778C36.185,45.132,36.299,46.556,37.51,47.824L38.222,48.579L36.014,48.579C24.831,48.579,14.759,44.177,12.522,38.322C12.138,37.339,12.109,35.843,12.437,34.732C13.106,32.495,15.528,30.073,18.876,28.264C20.714,27.281,21.326,26.384,21.198,24.859C21.056,23.107,19.246,21.796,17.594,22.21ZM17.594,22.21"/>
</g>
  <g id="Thin-M" transform="matrix(1.0,0.0,0.0,1.0,821.2400409226191,1054.300060453869)">  <path stroke="none" version="1.0" stroke-opacity="1" stroke-dasharray="none" fill-opacity="1" stroke-width="1px" stroke-linejoin="miter" stroke-linecap="butt" stroke-miterlimit="4" fill="#000000" fill-rule="nonzero" preserveAspectRatio="xMidYMid meet" d="M32.424,12.323C31.997,12.465,30.985,13.391,28.378,15.984C26.469,17.893,24.788,19.688,24.631,19.973C24.304,20.614,24.275,21.74,24.589,22.48C24.888,23.207,31.341,29.703,32.125,30.073C33.307,30.629,34.846,30.301,35.715,29.304C36.812,28.051,36.698,26.455,35.444,25.116L34.718,24.361L36.926,24.361C48.109,24.361,58.167,28.749,60.418,34.618C60.831,35.686,60.831,37.239,60.418,38.393C59.591,40.701,57.355,42.895,53.95,44.733C52.853,45.331,52.098,46.029,51.841,46.713C51.599,47.34,51.671,48.494,51.984,49.12C52.568,50.26,54.035,51.029,55.161,50.787C56.557,50.474,60.09,48.237,61.999,46.442C64.179,44.405,65.831,41.841,66.486,39.462C66.843,38.151,66.843,34.775,66.472,33.478C64.35,25.8,54.833,19.987,42.026,18.52C41.285,18.434,39.348,18.335,37.724,18.278L34.76,18.192L35.416,17.494C36.199,16.654,36.47,16.041,36.47,15.144C36.456,13.035,34.419,11.611,32.424,12.323ZM32.424,12.323"/>
  <path stroke-dasharray="none" stroke-width="1px" fill-opacity="1" fill-rule="nonzero" stroke="none" version="1.0" fill="#000000" stroke-opacity="1" stroke-miterlimit="4" stroke-linejoin="miter" stroke-linecap="butt" preserveAspectRatio="xMidYMid meet" d="M17.594,22.21C16.882,22.395,15.229,23.292,13.662,24.332C9.873,26.882,7.237,30.316,6.396,33.834C6.14,34.917,6.112,35.387,6.169,36.897C6.254,38.963,6.482,39.903,7.322,41.67C10.969,49.363,22.865,54.705,36.37,54.705L38.208,54.705L37.51,55.474C36.413,56.671,36.199,57.811,36.84,59.107C37.481,60.375,38.835,61.002,40.231,60.674C40.915,60.517,41.143,60.318,44.505,56.999C46.784,54.733,48.137,53.295,48.308,52.924C48.665,52.155,48.65,51.101,48.28,50.346C47.967,49.69,41.855,43.508,41,42.952C40.658,42.738,40.302,42.667,39.604,42.667C38.464,42.667,37.738,42.995,37.168,43.778C36.185,45.132,36.299,46.556,37.51,47.824L38.222,48.579L36.014,48.579C24.831,48.579,14.759,44.177,12.522,38.322C12.138,37.339,12.109,35.843,12.437,34.732C13.106,32.495,15.528,30.073,18.876,28.264C20.714,27.281,21.326,26.384,21.198,24.859C21.056,23.107,19.246,21.796,17.594,22.21ZM17.594,22.21"/>
</g>
  <g id="Ultralight-M" transform="matrix(1.0,0.0,0.0,1.0,524.530040922619,1054.300060453869)">  <path stroke-linecap="butt" stroke="none" fill-opacity="1" version="1.0" stroke-opacity="1" stroke-dasharray="none" stroke-linejoin="miter" stroke-miterlimit="4" preserveAspectRatio="xMidYMid meet" fill-rule="nonzero" stroke-width="1px" fill="#000000" d="M32.424,12.323C31.997,12.465,30.985,13.391,28.378,15.984C26.469,17.893,24.788,19.688,24.631,19.973C24.304,20.614,24.275,21.74,24.589,22.48C24.888,23.207,31.341,29.703,32.125,30.073C33.307,30.629,34.846,30.301,35.715,29.304C36.812,28.051,36.698,26.455,35.444,25.116L34.718,24.361L36.926,24.361C48.109,24.361,58.167,28.749,60.418,34.618C60.831,35.686,60.831,37.239,60.418,38.393C59.591,40.701,57.355,42.895,53.95,44.733C52.853,45.331,52.098,46.029,51.841,46.713C51.599,47.34,51.671,48.494,51.984,49.12C52.568,50.26,54.035,51.029,55.161,50.787C56.557,50.474,60.09,48.237,61.999,46.442C64.179,44.405,65.831,41.841,66.486,39.462C66.843,38.151,66.843,34.775,66.472,33.478C64.35,25.8,54.833,19.987,42.026,18.52C41.285,18.434,39.348,18.335,37.724,18.278L34.76,18.192L35.416,17.494C36.199,16.654,36.47,16.041,36.47,15.144C36.456,13.035,34.419,11.611,32.424,12.323ZM32.424,12.323"/>
  <path stroke-linecap="butt" version="1.0" stroke-miterlimit="4" stroke-dasharray="none" fill-opacity="1" stroke-opacity="1" preserveAspectRatio="xMidYMid meet" stroke-width="1px" stroke-linejoin="miter" fill="#000000" stroke="none" fill-rule="nonzero" d="M17.594,22.21C16.882,22.395,15.229,23.292,13.662,24.332C9.873,26.882,7.237,30.316,6.396,33.834C6.14,34.917,6.112,35.387,6.169,36.897C6.254,38.963,6.482,39.903,7.322,41.67C10.969,49.363,22.865,54.705,36.37,54.705L38.208,54.705L37.51,55.474C36.413,56.671,36.199,57.811,36.84,59.107C37.481,60.375,38.835,61.002,40.231,60.674C40.915,60.517,41.143,60.318,44.505,56.999C46.784,54.733,48.137,53.295,48.308,52.924C48.665,52.155,48.65,51.101,48.28,50.346C47.967,49.69,41.855,43.508,41,42.952C40.658,42.738,40.302,42.667,39.604,42.667C38.464,42.667,37.738,42.995,37.168,43.778C36.185,45.132,36.299,46.556,37.51,47.824L38.222,48.579L36.014,48.579C24.831,48.579,14.759,44.177,12.522,38.322C12.138,37.339,12.109,35.843,12.437,34.732C13.106,32.495,15.528,30.073,18.876,28.264C20.714,27.281,21.326,26.384,21.198,24.859C21.056,23.107,19.246,21.796,17.594,22.21ZM17.594,22.21"/>
</g>
  <g id="Black-S" transform="matrix(1.0,0.0,0.0,1.0,2906.1240220424106,632.2140415736607)">  <path version="1.0" stroke="none" stroke-opacity="1" stroke-width="1px" fill-opacity="1" fill="#000000" fill-rule="nonzero" preserveAspectRatio="xMidYMid meet" stroke-miterlimit="4" stroke-dasharray="none" stroke-linecap="butt" stroke-linejoin="miter" d="M25.388,9.649C25.053,9.76,24.261,10.485,22.22,12.516C20.725,14.01,19.409,15.416,19.286,15.639C19.03,16.141,19.008,17.022,19.253,17.602C19.487,18.171,24.54,23.258,25.154,23.548C26.08,23.983,27.284,23.726,27.965,22.945C28.824,21.964,28.734,20.714,27.753,19.666L27.184,19.075L28.913,19.075C37.669,19.075,45.545,22.51,47.307,27.106C47.63,27.942,47.63,29.158,47.307,30.062C46.66,31.869,44.909,33.587,42.243,35.026C41.384,35.494,40.793,36.041,40.592,36.576C40.402,37.067,40.458,37.971,40.703,38.461C41.161,39.354,42.31,39.956,43.191,39.766C44.284,39.521,47.05,37.77,48.545,36.364C50.252,34.769,51.546,32.761,52.059,30.898C52.338,29.872,52.338,27.229,52.048,26.213C50.386,20.201,42.934,15.65,32.906,14.501C32.326,14.434,30.809,14.356,29.538,14.311L27.217,14.245L27.731,13.698C28.344,13.04,28.556,12.56,28.556,11.857C28.545,10.207,26.95,9.091,25.388,9.649ZM25.388,9.649"/>
  <path stroke-miterlimit="4" stroke-opacity="1" version="1.0" stroke-dasharray="none" stroke="none" stroke-linejoin="miter" fill="#000000" fill-opacity="1" fill-rule="nonzero" stroke-linecap="butt" stroke-width="1px" preserveAspectRatio="xMidYMid meet" d="M13.776,17.39C13.218,17.535,11.924,18.238,10.697,19.052C7.73,21.049,5.667,23.737,5.008,26.492C4.808,27.34,4.785,27.708,4.83,28.891C4.897,30.508,5.075,31.244,5.734,32.627C8.589,38.651,17.903,42.834,28.478,42.834L29.917,42.834L29.37,43.436C28.511,44.373,28.344,45.266,28.846,46.281C29.348,47.274,30.408,47.764,31.501,47.508C32.036,47.385,32.215,47.229,34.847,44.63C36.632,42.856,37.692,41.73,37.826,41.44C38.104,40.837,38.093,40.012,37.803,39.421C37.558,38.908,32.772,34.066,32.103,33.631C31.835,33.464,31.557,33.408,31.01,33.408C30.118,33.408,29.549,33.665,29.103,34.278C28.333,35.338,28.422,36.453,29.37,37.446L29.928,38.037L28.199,38.037C19.443,38.037,11.556,34.591,9.805,30.006C9.504,29.236,9.481,28.065,9.738,27.195C10.262,25.444,12.159,23.548,14.78,22.131C16.219,21.361,16.699,20.658,16.598,19.465C16.487,18.093,15.07,17.067,13.776,17.39ZM13.776,17.39"/>
</g>
  <g id="Heavy-S" transform="matrix(1.0,0.0,0.0,1.0,2609.4140220424106,632.2140415736607)">  <path fill-opacity="1" fill-rule="nonzero" preserveAspectRatio="xMidYMid meet" version="1.0" stroke-miterlimit="4" stroke-dasharray="none" fill="#000000" stroke-linejoin="miter" stroke-width="1px" stroke-linecap="butt" stroke-opacity="1" stroke="none" d="M25.388,9.649C25.053,9.76,24.261,10.485,22.22,12.516C20.725,14.01,19.409,15.416,19.286,15.639C19.03,16.141,19.008,17.022,19.253,17.602C19.487,18.171,24.54,23.258,25.154,23.548C26.08,23.983,27.284,23.726,27.965,22.945C28.824,21.964,28.734,20.714,27.753,19.666L27.184,19.075L28.913,19.075C37.669,19.075,45.545,22.51,47.307,27.106C47.63,27.942,47.63,29.158,47.307,30.062C46.66,31.869,44.909,33.587,42.243,35.026C41.384,35.494,40.793,36.041,40.592,36.576C40.402,37.067,40.458,37.971,40.703,38.461C41.161,39.354,42.31,39.956,43.191,39.766C44.284,39.521,47.05,37.77,48.545,36.364C50.252,34.769,51.546,32.761,52.059,30.898C52.338,29.872,52.338,27.229,52.048,26.213C50.386,20.201,42.934,15.65,32.906,14.501C32.326,14.434,30.809,14.356,29.538,14.311L27.217,14.245L27.731,13.698C28.344,13.04,28.556,12.56,28.556,11.857C28.545,10.207,26.95,9.091,25.388,9.649ZM25.388,9.649"/>
  <path preserveAspectRatio="xMidYMid meet" stroke-dasharray="none" fill-rule="nonzero" fill="#000000" stroke="none" stroke-linecap="butt" stroke-width="1px" stroke-opacity="1" stroke-miterlimit="4" version="1.0" fill-opacity="1" stroke-linejoin="miter" d="M13.776,17.39C13.218,17.535,11.924,18.238,10.697,19.052C7.73,21.049,5.667,23.737,5.008,26.492C4.808,27.34,4.785,27.708,4.83,28.891C4.897,30.508,5.075,31.244,5.734,32.627C8.589,38.651,17.903,42.834,28.478,42.834L29.917,42.834L29.37,43.436C28.511,44.373,28.344,45.266,28.846,46.281C29.348,47.274,30.408,47.764,31.501,47.508C32.036,47.385,32.215,47.229,34.847,44.63C36.632,42.856,37.692,41.73,37.826,41.44C38.104,40.837,38.093,40.012,37.803,39.421C37.558,38.908,32.772,34.066,32.103,33.631C31.835,33.464,31.557,33.408,31.01,33.408C30.118,33.408,29.549,33.665,29.103,34.278C28.333,35.338,28.422,36.453,29.37,37.446L29.928,38.037L28.199,38.037C19.443,38.037,11.556,34.591,9.805,30.006C9.504,29.236,9.481,28.065,9.738,27.195C10.262,25.444,12.159,23.548,14.78,22.131C16.219,21.361,16.699,20.658,16.598,19.465C16.487,18.093,15.07,17.067,13.776,17.39ZM13.776,17.39"/>
</g>
  <g id="Bold-S" transform="matrix(1.0,0.0,0.0,1.0,2312.7040220424105,632.2140415736607)">  <path stroke-opacity="1" stroke-width="1px" stroke-dasharray="none" fill="#000000" fill-opacity="1" stroke-linecap="butt" fill-rule="nonzero" stroke-linejoin="miter" preserveAspectRatio="xMidYMid meet" stroke="none" stroke-miterlimit="4" version="1.0" d="M25.388,9.649C25.053,9.76,24.261,10.485,22.22,12.516C20.725,14.01,19.409,15.416,19.286,15.639C19.03,16.141,19.008,17.022,19.253,17.602C19.487,18.171,24.54,23.258,25.154,23.548C26.08,23.983,27.284,23.726,27.965,22.945C28.824,21.964,28.734,20.714,27.753,19.666L27.184,19.075L28.913,19.075C37.669,19.075,45.545,22.51,47.307,27.106C47.63,27.942,47.63,29.158,47.307,30.062C46.66,31.869,44.909,33.587,42.243,35.026C41.384,35.494,40.793,36.041,40.592,36.576C40.402,37.067,40.458,37.971,40.703,38.461C41.161,39.354,42.31,39.956,43.191,39.766C44.284,39.521,47.05,37.77,48.545,36.364C50.252,34.769,51.546,32.761,52.059,30.898C52.338,29.872,52.338,27.229,52.048,26.213C50.386,20.201,42.934,15.65,32.906,14.501C32.326,14.434,30.809,14.356,29.538,14.311L27.217,14.245L27.731,13.698C28.344,13.04,28.556,12.56,28.556,11.857C28.545,10.207,26.95,9.091,25.388,9.649ZM25.388,9.649"/>
  <path fill-rule="nonzero" version="1.0" stroke-opacity="1" stroke-linejoin="miter" stroke="none" stroke-linecap="butt" fill="#000000" preserveAspectRatio="xMidYMid meet" stroke-dasharray="none" stroke-miterlimit="4" fill-opacity="1" stroke-width="1px" d="M13.776,17.39C13.218,17.535,11.924,18.238,10.697,19.052C7.73,21.049,5.667,23.737,5.008,26.492C4.808,27.34,4.785,27.708,4.83,28.891C4.897,30.508,5.075,31.244,5.734,32.627C8.589,38.651,17.903,42.834,28.478,42.834L29.917,42.834L29.37,43.436C28.511,44.373,28.344,45.266,28.846,46.281C29.348,47.274,30.408,47.764,31.501,47.508C32.036,47.385,32.215,47.229,34.847,44.63C36.632,42.856,37.692,41.73,37.826,41.44C38.104,40.837,38.093,40.012,37.803,39.421C37.558,38.908,32.772,34.066,32.103,33.631C31.835,33.464,31.557,33.408,31.01,33.408C30.118,33.408,29.549,33.665,29.103,34.278C28.333,35.338,28.422,36.453,29.37,37.446L29.928,38.037L28.199,38.037C19.443,38.037,11.556,34.591,9.805,30.006C9.504,29.236,9.481,28.065,9.738,27.195C10.262,25.444,12.159,23.548,14.78,22.131C16.219,21.361,16.699,20.658,16.598,19.465C16.487,18.093,15.07,17.067,13.776,17.39ZM13.776,17.39"/>
</g>
  <g id="Semibold-S" transform="matrix(1.0,0.0,0.0,1.0,2015.9940220424107,632.2140415736607)">  <path fill="#000000" fill-opacity="1" stroke-dasharray="none" stroke-width="1px" stroke="none" stroke-linecap="butt" preserveAspectRatio="xMidYMid meet" stroke-opacity="1" stroke-miterlimit="4" fill-rule="nonzero" version="1.0" stroke-linejoin="miter" d="M25.388,9.649C25.053,9.76,24.261,10.485,22.22,12.516C20.725,14.01,19.409,15.416,19.286,15.639C19.03,16.141,19.008,17.022,19.253,17.602C19.487,18.171,24.54,23.258,25.154,23.548C26.08,23.983,27.284,23.726,27.965,22.945C28.824,21.964,28.734,20.714,27.753,19.666L27.184,19.075L28.913,19.075C37.669,19.075,45.545,22.51,47.307,27.106C47.63,27.942,47.63,29.158,47.307,30.062C46.66,31.869,44.909,33.587,42.243,35.026C41.384,35.494,40.793,36.041,40.592,36.576C40.402,37.067,40.458,37.971,40.703,38.461C41.161,39.354,42.31,39.956,43.191,39.766C44.284,39.521,47.05,37.77,48.545,36.364C50.252,34.769,51.546,32.761,52.059,30.898C52.338,29.872,52.338,27.229,52.048,26.213C50.386,20.201,42.934,15.65,32.906,14.501C32.326,14.434,30.809,14.356,29.538,14.311L27.217,14.245L27.731,13.698C28.344,13.04,28.556,12.56,28.556,11.857C28.545,10.207,26.95,9.091,25.388,9.649ZM25.388,9.649"/>
  <path version="1.0" fill-rule="nonzero" preserveAspectRatio="xMidYMid meet" stroke-linecap="butt" stroke-miterlimit="4" stroke-dasharray="none" stroke-opacity="1" fill="#000000" fill-opacity="1" stroke="none" stroke-linejoin="miter" stroke-width="1px" d="M13.776,17.39C13.218,17.535,11.924,18.238,10.697,19.052C7.73,21.049,5.667,23.737,5.008,26.492C4.808,27.34,4.785,27.708,4.83,28.891C4.897,30.508,5.075,31.244,5.734,32.627C8.589,38.651,17.903,42.834,28.478,42.834L29.917,42.834L29.37,43.436C28.511,44.373,28.344,45.266,28.846,46.281C29.348,47.274,30.408,47.764,31.501,47.508C32.036,47.385,32.215,47.229,34.847,44.63C36.632,42.856,37.692,41.73,37.826,41.44C38.104,40.837,38.093,40.012,37.803,39.421C37.558,38.908,32.772,34.066,32.103,33.631C31.835,33.464,31.557,33.408,31.01,33.408C30.118,33.408,29.549,33.665,29.103,34.278C28.333,35.338,28.422,36.453,29.37,37.446L29.928,38.037L28.199,38.037C19.443,38.037,11.556,34.591,9.805,30.006C9.504,29.236,9.481,28.065,9.738,27.195C10.262,25.444,12.159,23.548,14.78,22.131C16.219,21.361,16.699,20.658,16.598,19.465C16.487,18.093,15.07,17.067,13.776,17.39ZM13.776,17.39"/>
</g>
  <g id="Medium-S" transform="matrix(1.0,0.0,0.0,1.0,1719.2840220424107,632.2140415736607)">  <path stroke-linejoin="miter" fill-opacity="1" stroke-opacity="1" stroke-width="1px" fill="#000000" fill-rule="nonzero" stroke-dasharray="none" stroke-miterlimit="4" stroke-linecap="butt" stroke="none" preserveAspectRatio="xMidYMid meet" version="1.0" d="M25.388,9.649C25.053,9.76,24.261,10.485,22.22,12.516C20.725,14.01,19.409,15.416,19.286,15.639C19.03,16.141,19.008,17.022,19.253,17.602C19.487,18.171,24.54,23.258,25.154,23.548C26.08,23.983,27.284,23.726,27.965,22.945C28.824,21.964,28.734,20.714,27.753,19.666L27.184,19.075L28.913,19.075C37.669,19.075,45.545,22.51,47.307,27.106C47.63,27.942,47.63,29.158,47.307,30.062C46.66,31.869,44.909,33.587,42.243,35.026C41.384,35.494,40.793,36.041,40.592,36.576C40.402,37.067,40.458,37.971,40.703,38.461C41.161,39.354,42.31,39.956,43.191,39.766C44.284,39.521,47.05,37.77,48.545,36.364C50.252,34.769,51.546,32.761,52.059,30.898C52.338,29.872,52.338,27.229,52.048,26.213C50.386,20.201,42.934,15.65,32.906,14.501C32.326,14.434,30.809,14.356,29.538,14.311L27.217,14.245L27.731,13.698C28.344,13.04,28.556,12.56,28.556,11.857C28.545,10.207,26.95,9.091,25.388,9.649ZM25.388,9.649"/>
  <path fill-rule="nonzero" fill-opacity="1" preserveAspectRatio="xMidYMid meet" stroke-dasharray="none" stroke-opacity="1" stroke-linecap="butt" stroke="none" stroke-linejoin="miter" version="1.0" stroke-miterlimit="4" stroke-width="1px" fill="#000000" d="M13.776,17.39C13.218,17.535,11.924,18.238,10.697,19.052C7.73,21.049,5.667,23.737,5.008,26.492C4.808,27.34,4.785,27.708,4.83,28.891C4.897,30.508,5.075,31.244,5.734,32.627C8.589,38.651,17.903,42.834,28.478,42.834L29.917,42.834L29.37,43.436C28.511,44.373,28.344,45.266,28.846,46.281C29.348,47.274,30.408,47.764,31.501,47.508C32.036,47.385,32.215,47.229,34.847,44.63C36.632,42.856,37.692,41.73,37.826,41.44C38.104,40.837,38.093,40.012,37.803,39.421C37.558,38.908,32.772,34.066,32.103,33.631C31.835,33.464,31.557,33.408,31.01,33.408C30.118,33.408,29.549,33.665,29.103,34.278C28.333,35.338,28.422,36.453,29.37,37.446L29.928,38.037L28.199,38.037C19.443,38.037,11.556,34.591,9.805,30.006C9.504,29.236,9.481,28.065,9.738,27.195C10.262,25.444,12.159,23.548,14.78,22.131C16.219,21.361,16.699,20.658,16.598,19.465C16.487,18.093,15.07,17.067,13.776,17.39ZM13.776,17.39"/>
</g>
  <g id="Regular-S" transform="matrix(1.0,0.0,0.0,1.0,1422.5740220424107,632.2140415736607)">  <path fill-opacity="1" fill="#000000" stroke-linecap="butt" stroke-miterlimit="4" stroke-opacity="1" stroke="none" version="1.0" stroke-width="1px" preserveAspectRatio="xMidYMid meet" fill-rule="nonzero" stroke-linejoin="miter" stroke-dasharray="none" d="M25.388,9.649C25.053,9.76,24.261,10.485,22.22,12.516C20.725,14.01,19.409,15.416,19.286,15.639C19.03,16.141,19.008,17.022,19.253,17.602C19.487,18.171,24.54,23.258,25.154,23.548C26.08,23.983,27.284,23.726,27.965,22.945C28.824,21.964,28.734,20.714,27.753,19.666L27.184,19.075L28.913,19.075C37.669,19.075,45.545,22.51,47.307,27.106C47.63,27.942,47.63,29.158,47.307,30.062C46.66,31.869,44.909,33.587,42.243,35.026C41.384,35.494,40.793,36.041,40.592,36.576C40.402,37.067,40.458,37.971,40.703,38.461C41.161,39.354,42.31,39.956,43.191,39.766C44.284,39.521,47.05,37.77,48.545,36.364C50.252,34.769,51.546,32.761,52.059,30.898C52.338,29.872,52.338,27.229,52.048,26.213C50.386,20.201,42.934,15.65,32.906,14.501C32.326,14.434,30.809,14.356,29.538,14.311L27.217,14.245L27.731,13.698C28.344,13.04,28.556,12.56,28.556,11.857C28.545,10.207,26.95,9.091,25.388,9.649ZM25.388,9.649"/>
  <path fill="#000000" stroke-linejoin="miter" stroke-dasharray="none" stroke-opacity="1" fill-opacity="1" stroke-linecap="butt" preserveAspectRatio="xMidYMid meet" version="1.0" stroke-miterlimit="4" fill-rule="nonzero" stroke-width="1px" stroke="none" d="M13.776,17.39C13.218,17.535,11.924,18.238,10.697,19.052C7.73,21.049,5.667,23.737,5.008,26.492C4.808,27.34,4.785,27.708,4.83,28.891C4.897,30.508,5.075,31.244,5.734,32.627C8.589,38.651,17.903,42.834,28.478,42.834L29.917,42.834L29.37,43.436C28.511,44.373,28.344,45.266,28.846,46.281C29.348,47.274,30.408,47.764,31.501,47.508C32.036,47.385,32.215,47.229,34.847,44.63C36.632,42.856,37.692,41.73,37.826,41.44C38.104,40.837,38.093,40.012,37.803,39.421C37.558,38.908,32.772,34.066,32.103,33.631C31.835,33.464,31.557,33.408,31.01,33.408C30.118,33.408,29.549,33.665,29.103,34.278C28.333,35.338,28.422,36.453,29.37,37.446L29.928,38.037L28.199,38.037C19.443,38.037,11.556,34.591,9.805,30.006C9.504,29.236,9.481,28.065,9.738,27.195C10.262,25.444,12.159,23.548,14.78,22.131C16.219,21.361,16.699,20.658,16.598,19.465C16.487,18.093,15.07,17.067,13.776,17.39ZM13.776,17.39"/>
</g>
  <g id="Light-S" transform="matrix(1.0,0.0,0.0,1.0,1125.8640220424109,632.2140415736607)">  <path stroke-miterlimit="4" stroke-width="1px" version="1.0" stroke-opacity="1" stroke-linejoin="miter" stroke-dasharray="none" stroke-linecap="butt" fill="#000000" fill-opacity="1" preserveAspectRatio="xMidYMid meet" stroke="none" fill-rule="nonzero" d="M25.388,9.649C25.053,9.76,24.261,10.485,22.22,12.516C20.725,14.01,19.409,15.416,19.286,15.639C19.03,16.141,19.008,17.022,19.253,17.602C19.487,18.171,24.54,23.258,25.154,23.548C26.08,23.983,27.284,23.726,27.965,22.945C28.824,21.964,28.734,20.714,27.753,19.666L27.184,19.075L28.913,19.075C37.669,19.075,45.545,22.51,47.307,27.106C47.63,27.942,47.63,29.158,47.307,30.062C46.66,31.869,44.909,33.587,42.243,35.026C41.384,35.494,40.793,36.041,40.592,36.576C40.402,37.067,40.458,37.971,40.703,38.461C41.161,39.354,42.31,39.956,43.191,39.766C44.284,39.521,47.05,37.77,48.545,36.364C50.252,34.769,51.546,32.761,52.059,30.898C52.338,29.872,52.338,27.229,52.048,26.213C50.386,20.201,42.934,15.65,32.906,14.501C32.326,14.434,30.809,14.356,29.538,14.311L27.217,14.245L27.731,13.698C28.344,13.04,28.556,12.56,28.556,11.857C28.545,10.207,26.95,9.091,25.388,9.649ZM25.388,9.649"/>
  <path preserveAspectRatio="xMidYMid meet" fill-rule="nonzero" stroke-width="1px" stroke-linejoin="miter" stroke="none" stroke-opacity="1" version="1.0" stroke-dasharray="none" fill="#000000" fill-opacity="1" stroke-miterlimit="4" stroke-linecap="butt" d="M13.776,17.39C13.218,17.535,11.924,18.238,10.697,19.052C7.73,21.049,5.667,23.737,5.008,26.492C4.808,27.34,4.785,27.708,4.83,28.891C4.897,30.508,5.075,31.244,5.734,32.627C8.589,38.651,17.903,42.834,28.478,42.834L29.917,42.834L29.37,43.436C28.511,44.373,28.344,45.266,28.846,46.281C29.348,47.274,30.408,47.764,31.501,47.508C32.036,47.385,32.215,47.229,34.847,44.63C36.632,42.856,37.692,41.73,37.826,41.44C38.104,40.837,38.093,40.012,37.803,39.421C37.558,38.908,32.772,34.066,32.103,33.631C31.835,33.464,31.557,33.408,31.01,33.408C30.118,33.408,29.549,33.665,29.103,34.278C28.333,35.338,28.422,36.453,29.37,37.446L29.928,38.037L28.199,38.037C19.443,38.037,11.556,34.591,9.805,30.006C9.504,29.236,9.481,28.065,9.738,27.195C10.262,25.444,12.159,23.548,14.78,22.131C16.219,21.361,16.699,20.658,16.598,19.465C16.487,18.093,15.07,17.067,13.776,17.39ZM13.776,17.39"/>
</g>
  <g id="Thin-S" transform="matrix(1.0,0.0,0.0,1.0,829.1540220424107,632.2140415736607)">  <path stroke="none" version="1.0" stroke-opacity="1" stroke-dasharray="none" fill-opacity="1" stroke-width="1px" stroke-linejoin="miter" stroke-linecap="butt" stroke-miterlimit="4" fill="#000000" fill-rule="nonzero" preserveAspectRatio="xMidYMid meet" d="M25.388,9.649C25.053,9.76,24.261,10.485,22.22,12.516C20.725,14.01,19.409,15.416,19.286,15.639C19.03,16.141,19.008,17.022,19.253,17.602C19.487,18.171,24.54,23.258,25.154,23.548C26.08,23.983,27.284,23.726,27.965,22.945C28.824,21.964,28.734,20.714,27.753,19.666L27.184,19.075L28.913,19.075C37.669,19.075,45.545,22.51,47.307,27.106C47.63,27.942,47.63,29.158,47.307,30.062C46.66,31.869,44.909,33.587,42.243,35.026C41.384,35.494,40.793,36.041,40.592,36.576C40.402,37.067,40.458,37.971,40.703,38.461C41.161,39.354,42.31,39.956,43.191,39.766C44.284,39.521,47.05,37.77,48.545,36.364C50.252,34.769,51.546,32.761,52.059,30.898C52.338,29.872,52.338,27.229,52.048,26.213C50.386,20.201,42.934,15.65,32.906,14.501C32.326,14.434,30.809,14.356,29.538,14.311L27.217,14.245L27.731,13.698C28.344,13.04,28.556,12.56,28.556,11.857C28.545,10.207,26.95,9.091,25.388,9.649ZM25.388,9.649"/>
  <path stroke-dasharray="none" stroke-width="1px" fill-opacity="1" fill-rule="nonzero" stroke="none" version="1.0" fill="#000000" stroke-opacity="1" stroke-miterlimit="4" stroke-linejoin="miter" stroke-linecap="butt" preserveAspectRatio="xMidYMid meet" d="M13.776,17.39C13.218,17.535,11.924,18.238,10.697,19.052C7.73,21.049,5.667,23.737,5.008,26.492C4.808,27.34,4.785,27.708,4.83,28.891C4.897,30.508,5.075,31.244,5.734,32.627C8.589,38.651,17.903,42.834,28.478,42.834L29.917,42.834L29.37,43.436C28.511,44.373,28.344,45.266,28.846,46.281C29.348,47.274,30.408,47.764,31.501,47.508C32.036,47.385,32.215,47.229,34.847,44.63C36.632,42.856,37.692,41.73,37.826,41.44C38.104,40.837,38.093,40.012,37.803,39.421C37.558,38.908,32.772,34.066,32.103,33.631C31.835,33.464,31.557,33.408,31.01,33.408C30.118,33.408,29.549,33.665,29.103,34.278C28.333,35.338,28.422,36.453,29.37,37.446L29.928,38.037L28.199,38.037C19.443,38.037,11.556,34.591,9.805,30.006C9.504,29.236,9.481,28.065,9.738,27.195C10.262,25.444,12.159,23.548,14.78,22.131C16.219,21.361,16.699,20.658,16.598,19.465C16.487,18.093,15.07,17.067,13.776,17.39ZM13.776,17.39"/>
</g>
  <g id="Ultralight-S" transform="matrix(1.0,0.0,0.0,1.0,532.4440220424107,632.2140415736607)">  <path stroke-linecap="butt" stroke="none" fill-opacity="1" version="1.0" stroke-opacity="1" stroke-dasharray="none" stroke-linejoin="miter" stroke-miterlimit="4" preserveAspectRatio="xMidYMid meet" fill-rule="nonzero" stroke-width="1px" fill="#000000" d="M25.388,9.649C25.053,9.76,24.261,10.485,22.22,12.516C20.725,14.01,19.409,15.416,19.286,15.639C19.03,16.141,19.008,17.022,19.253,17.602C19.487,18.171,24.54,23.258,25.154,23.548C26.08,23.983,27.284,23.726,27.965,22.945C28.824,21.964,28.734,20.714,27.753,19.666L27.184,19.075L28.913,19.075C37.669,19.075,45.545,22.51,47.307,27.106C47.63,27.942,47.63,29.158,47.307,30.062C46.66,31.869,44.909,33.587,42.243,35.026C41.384,35.494,40.793,36.041,40.592,36.576C40.402,37.067,40.458,37.971,40.703,38.461C41.161,39.354,42.31,39.956,43.191,39.766C44.284,39.521,47.05,37.77,48.545,36.364C50.252,34.769,51.546,32.761,52.059,30.898C52.338,29.872,52.338,27.229,52.048,26.213C50.386,20.201,42.934,15.65,32.906,14.501C32.326,14.434,30.809,14.356,29.538,14.311L27.217,14.245L27.731,13.698C28.344,13.04,28.556,12.56,28.556,11.857C28.545,10.207,26.95,9.091,25.388,9.649ZM25.388,9.649"/>
  <path stroke-linecap="butt" version="1.0" stroke-miterlimit="4" stroke-dasharray="none" fill-opacity="1" stroke-opacity="1" preserveAspectRatio="xMidYMid meet" stroke-width="1px" stroke-linejoin="miter" fill="#000000" stroke="none" fill-rule="nonzero" d="M13.776,17.39C13.218,17.535,11.924,18.238,10.697,19.052C7.73,21.049,5.667,23.737,5.008,26.492C4.808,27.34,4.785,27.708,4.83,28.891C4.897,30.508,5.075,31.244,5.734,32.627C8.589,38.651,17.903,42.834,28.478,42.834L29.917,42.834L29.37,43.436C28.511,44.373,28.344,45.266,28.846,46.281C29.348,47.274,30.408,47.764,31.501,47.508C32.036,47.385,32.215,47.229,34.847,44.63C36.632,42.856,37.692,41.73,37.826,41.44C38.104,40.837,38.093,40.012,37.803,39.421C37.558,38.908,32.772,34.066,32.103,33.631C31.835,33.464,31.557,33.408,31.01,33.408C30.118,33.408,29.549,33.665,29.103,34.278C28.333,35.338,28.422,36.453,29.37,37.446L29.928,38.037L28.199,38.037C19.443,38.037,11.556,34.591,9.805,30.006C9.504,29.236,9.481,28.065,9.738,27.195C10.262,25.444,12.159,23.548,14.78,22.131C16.219,21.361,16.699,20.658,16.598,19.465C16.487,18.093,15.07,17.067,13.776,17.39ZM13.776,17.39"/>
</g>
 </g>
</svg>
