<svg width="340" height="329" viewBox="0 0 340 329" fill="none" xmlns="http://www.w3.org/2000/svg">
<path d="M31.1238 162.537V166.106L31.0964 166.132V162.563L31.1238 162.537Z" fill="#5A61FF"/>
<path d="M31.1238 162.537L31.0964 166.132V162.563L31.1238 162.537Z" fill="#5A61FF"/>
<g filter="url(#filter0_d_440_772)">
<rect x="8" y="8" width="324" height="312.789" rx="150" fill="#38A487"/>
</g>
<path d="M97.5865 180.132C97.5865 181.651 99.865 184.689 99.865 187.22C99.6119 190.005 100.878 189.246 101.89 189.246C102.903 189.246 103.662 188.233 102.903 187.473C102.144 186.714 101.637 185.448 102.397 184.435C103.156 183.676 106.447 180.385 105.181 178.36C103.409 176.841 97.5865 180.132 97.5865 180.132Z" fill="#260C08"/>
<path d="M130.245 177.347C130.245 177.347 130.245 181.397 130.245 182.41C130.245 183.423 132.776 185.195 133.03 186.208C133.03 187.22 133.536 188.739 136.068 188.486C138.599 188.233 136.827 186.208 136.068 186.208C135.308 186.208 135.055 184.689 135.561 183.423C136.068 182.41 137.587 178.36 136.827 176.841C136.068 175.322 130.245 177.347 130.245 177.347Z" fill="#260C08"/>
<path d="M138.599 151.018C135.561 151.271 134.295 153.803 133.789 155.575C133.03 157.347 132.776 159.119 132.017 160.891C131.257 162.916 125.941 167.727 120.371 168.233C114.549 168.739 99.6119 170.005 96.827 171.018C92.2701 172.537 82.903 169.246 81.384 168.486C79.865 167.727 83.1562 170.258 85.941 171.777C88.2195 172.79 92.0169 173.549 95.3081 173.296C95.3081 173.296 94.2954 176.081 95.3081 177.853C96.0676 179.625 93.5359 180.132 93.0296 180.132C92.5232 180.132 92.2701 181.904 92.7764 183.676C93.0296 185.448 92.0169 189.499 93.5359 189.752C95.0549 190.005 97.3334 189.752 96.5739 188.739C95.8144 187.727 94.8017 186.461 95.5612 185.701C96.3207 184.942 101.637 183.929 102.397 181.904C103.156 179.878 118.852 180.638 120.371 181.397C121.89 182.157 127.207 185.195 131.004 183.929C134.802 182.916 140.625 181.144 140.625 173.802C140.625 166.461 140.625 161.397 143.409 160.891C146.447 160.385 155.308 161.397 155.308 157.853C155.308 156.587 152.017 155.828 148.219 154.309C144.422 153.296 142.143 150.765 138.599 151.018Z" fill="#47170E"/>
<path d="M135.308 153.549C134.295 154.562 136.827 159.119 138.852 161.651C140.878 164.182 142.397 153.802 142.397 152.537C142.143 152.537 139.106 150.511 135.308 153.549Z" fill="#0D0403"/>
<path d="M144.422 155.068C144.702 155.068 144.928 154.842 144.928 154.562C144.928 154.282 144.702 154.056 144.422 154.056C144.142 154.056 143.916 154.282 143.916 154.562C143.916 154.842 144.142 155.068 144.422 155.068Z" fill="#0D0403"/>
<path d="M125.941 178.106C125.941 178.106 125.941 182.663 125.941 183.676C125.941 184.689 128.979 186.714 128.979 187.727C128.979 188.739 129.485 190.511 132.27 190.258C135.055 190.005 133.03 187.727 132.27 187.727C131.511 187.727 131.004 185.955 131.764 184.689C132.27 183.423 133.789 179.119 133.283 177.347C132.523 175.828 125.941 178.106 125.941 178.106Z" fill="#47170E"/>
<path d="M154.042 157.853C154.042 157.853 152.017 158.613 151.257 157.853C150.498 157.094 149.232 156.334 148.726 156.587C146.7 157.094 147.46 158.866 145.941 159.119C144.422 159.625 140.625 159.119 140.625 164.688C140.878 162.663 141.637 161.397 143.156 161.144C145.688 160.638 152.27 161.397 154.295 159.625L154.042 157.853Z" fill="#AB4013"/>
<path d="M153.283 156.587C153.283 156.587 152.776 158.613 154.549 159.119C154.802 158.866 154.802 158.36 154.802 158.106C155.055 157.347 154.295 156.841 153.283 156.587Z" fill="#0D0403"/>
<path d="M143.916 159.372C139.612 159.878 139.359 166.967 138.599 170.258C137.84 173.549 136.827 174.056 135.561 176.081C134.295 178.106 133.789 182.663 133.789 182.663C137.08 181.397 140.118 179.119 140.371 173.549C140.371 166.207 140.371 161.144 143.156 160.638C143.916 160.385 144.675 160.385 145.941 160.385C145.181 159.878 144.422 159.372 143.916 159.372Z" fill="#AB4013"/>
<path d="M252.489 150.2C257.489 141.2 256.989 129.5 251.289 121C253.389 125.5 253.889 130.7 252.889 135.6C251.789 140.5 249.189 145 245.389 148.2C247.089 150 249.989 150.5 252.289 149.5L252.489 150.2Z" fill="#54260C"/>
<path d="M237.889 177.9C237.989 181.6 238.089 185.3 237.389 188.9C236.689 192.5 235.089 196 232.389 198.5C231.389 199.3 229.789 200 228.989 199C228.589 198.5 228.589 197.7 228.889 197.1C229.189 196.5 229.589 196 229.989 195.4C231.989 192.4 231.189 188.5 230.289 185C229.589 182 228.789 179 228.089 176C228.089 175.8 227.989 175.6 228.089 175.4C228.189 175.1 228.589 174.9 228.989 174.9C231.189 174.5 233.389 174.4 235.689 174.7L237.889 177.9Z" fill="#54260C"/>
<path d="M217.389 145C215.789 142 213.589 139.4 210.789 137.5C210.289 137.2 209.789 136.9 209.289 136.6C206.989 135.3 204.189 134.6 201.589 135.2C199.789 135.6 198.189 136.6 196.289 136.8C194.789 136.9 193.189 136.5 191.789 135.8C190.989 135.4 190.089 135 189.389 135.4C189.089 135.5 188.989 135.8 188.789 136C186.289 139.6 186.889 145 190.289 147.9C192.689 150 196.089 150.7 198.289 153C199.489 154.3 200.189 155.9 200.789 157.5C202.389 161.5 203.089 164.9 203.089 169.2C203.089 171.1 203.089 173.6 203.389 175.4C203.589 176.3 200.689 188 199.089 191.7C198.089 194 196.989 196.5 195.089 198.2C193.989 199.2 192.589 199.9 191.189 200.1C189.689 200.3 189.489 202.5 190.889 203C191.889 203.3 192.989 203.4 193.989 203.2C196.489 202.5 200.089 201.2 201.789 199.1C205.089 194.9 210.389 187.4 213.089 182.7C213.589 181.9 212.189 181.8 212.989 182.1L217.789 183.3C218.189 183.4 218.589 183.6 218.889 183.9C219.389 184.5 219.289 185.4 219.089 186.1C218.389 189.2 216.889 195.2 215.589 198.1C214.089 201.3 211.689 204.3 208.289 205.6C207.589 205.9 207.189 206.7 207.389 207.4C207.689 208.2 208.589 208.2 209.389 208.1C211.789 207.8 214.289 207.4 216.189 206C217.489 205 218.489 203.6 219.389 202.2C223.989 195.5 228.489 188.7 231.889 181.4C237.889 181.7 240.689 181.1 244.289 176.2C241.289 180.7 246.389 184.4 246.189 189.8C245.989 193.5 244.789 197.2 242.789 200.3C242.389 200.9 241.989 201.5 242.389 202.3C242.589 202.7 242.989 203 243.389 203.2C244.289 203.5 245.189 203.3 246.089 203C249.289 201.8 251.789 198.9 252.489 195.5C253.189 192 252.089 188.4 252.289 184.8C252.789 177.1 259.489 170.5 258.989 162.7C258.889 160.4 258.089 158.2 257.289 156C255.489 151.5 252.889 146.7 248.389 145.1C243.889 143.5 238.489 148.5 234.189 150.5C232.389 151.3 221.989 152.4 219.389 148.8L217.389 145Z" fill="#A85B35"/>
<path d="M198.689 138.1C200.389 137.6 202.489 137.2 203.689 138.5C203.989 138.9 204.189 139.3 204.289 139.7C204.889 141.5 204.989 143.6 203.989 145.3C203.589 146 202.989 146.7 202.189 147.1C200.489 148.1 198.189 148 196.589 146.8C194.989 145.6 194.289 143.4 194.789 141.5C195.289 139.6 197.189 138.1 199.089 138L198.689 138.1Z" fill="#D38C6C"/>
<path d="M210.689 141.6C209.789 144 207.989 145.9 205.989 147.5C203.889 149.2 201.489 150.8 199.989 153.1C198.489 155.4 198.289 158.9 200.389 160.6C201.689 161.7 203.489 161.8 205.189 161.7C206.889 161.5 208.489 161.1 210.189 161.1C212.089 161.1 214.289 161.8 215.889 160.7C217.589 159.6 217.689 157.2 217.589 155.2C217.489 153.9 217.489 152.5 217.289 151.2C216.889 147.1 214.389 143.5 210.689 141.6Z" fill="#54260C"/>
<path d="M200.359 139.408C199.475 139.398 198.752 140.061 198.742 140.89C198.733 141.718 199.442 142.398 200.325 142.407C201.209 142.417 201.933 141.754 201.942 140.926C201.951 140.097 201.243 139.418 200.359 139.408Z" fill="black"/>
<path d="M239.489 148.5C239.389 150.2 240.689 151.7 241.589 153.1C244.089 157 244.289 162.6 241.189 166.1C240.289 167.1 238.989 168 237.689 167.8C234.789 167.5 233.889 163.1 231.089 162.2C228.889 161.4 226.389 163.1 224.189 162.3C222.489 161.7 221.589 159.9 221.489 158.1C221.389 156.4 221.989 154.7 222.689 153C222.989 152.2 223.389 151.3 224.189 151.1C224.589 151 225.089 151.1 225.489 151.2C228.489 151.8 232.289 150.9 239.689 147.4L239.489 148.5Z" fill="#D38C6C"/>
<path d="M219.189 183.4C215.989 182.4 212.689 181.8 209.789 180.2C208.489 179.5 207.289 178.6 206.389 177.5C205.389 176.4 204.789 175 204.389 173.5C203.989 171.7 203.889 169.9 203.889 168.1C203.889 167.6 203.089 167.6 203.089 168.1C203.189 171.3 203.289 174.8 205.289 177.5C207.189 180.1 210.189 181.5 213.089 182.4C214.989 183 216.989 183.5 218.989 184.1C219.489 184.4 219.689 183.6 219.189 183.4Z" fill="#54260C"/>
<path d="M193.089 200.4C192.289 200.9 191.589 201.6 191.189 202.5C191.089 202.7 191.089 202.9 191.289 203.1C191.489 203.2 191.789 203.2 191.889 203C191.989 202.8 192.089 202.6 192.189 202.4C192.289 202.3 192.289 202.2 192.389 202.1C192.389 202.1 192.389 202.1 192.389 202L192.489 201.9C192.589 201.7 192.789 201.6 192.889 201.5C192.889 201.5 192.889 201.5 192.989 201.5L193.089 201.4C193.189 201.3 193.289 201.3 193.389 201.2C193.589 201.1 193.689 200.8 193.489 200.6C193.589 200.4 193.289 200.3 193.089 200.4Z" fill="#54260C"/>
<path d="M191.289 200.3C190.989 200.8 190.589 201.2 190.289 201.7C190.189 201.8 190.189 201.9 190.289 202C190.289 202.1 190.389 202.2 190.489 202.2C190.689 202.3 190.889 202.2 191.089 202.1C191.389 201.6 191.789 201.2 192.089 200.7C192.189 200.6 192.189 200.5 192.089 200.4C192.089 200.3 191.989 200.2 191.889 200.2C191.689 200 191.389 200.1 191.289 200.3Z" fill="#54260C"/>
<path d="M210.789 205.5C210.089 205.9 209.689 206.6 209.689 207.4C209.689 207.6 209.889 207.8 210.089 207.8C210.289 207.8 210.489 207.6 210.489 207.4V207.3C210.489 207.3 210.489 207.3 210.489 207.2C210.489 207.1 210.489 207.1 210.589 207V206.9C210.589 206.8 210.689 206.8 210.689 206.7C210.689 206.7 210.689 206.6 210.789 206.6C210.789 206.5 210.889 206.5 210.889 206.4C210.989 206.3 210.989 206.3 211.089 206.3C211.089 206.3 211.189 206.3 211.189 206.2C211.389 206.1 211.489 205.8 211.289 205.6C211.289 205.5 210.989 205.4 210.789 205.5Z" fill="#54260C"/>
<path d="M208.989 205.4C208.489 206 208.189 206.7 208.089 207.4C208.089 207.5 208.089 207.6 208.089 207.7C208.089 207.8 208.189 207.9 208.289 207.9C208.489 207.9 208.789 207.8 208.789 207.6C208.789 207.4 208.889 207.3 208.889 207.1C208.889 207 208.889 206.9 208.989 206.9V206.8C208.989 206.8 209.089 206.7 208.989 206.7C208.989 206.8 208.989 206.6 208.989 206.6C208.989 206.6 208.989 206.5 209.089 206.5C209.089 206.4 209.189 206.4 209.189 206.3C209.189 206.2 209.289 206.2 209.289 206.1C209.289 206.1 209.289 206 209.389 206C209.489 205.9 209.489 205.8 209.489 205.7C209.489 205.6 209.489 205.5 209.389 205.4C209.489 205.3 209.189 205.2 208.989 205.4Z" fill="#54260C"/>
<path d="M246.789 199.2C245.889 199.7 245.189 200.6 244.989 201.6C244.989 201.8 245.089 202 245.289 202.1C245.489 202.1 245.789 202 245.789 201.8C245.789 201.7 245.789 201.6 245.889 201.5C245.889 201.4 245.889 201.4 245.989 201.3C246.089 201.1 246.189 200.9 246.289 200.7C246.289 200.7 246.289 200.7 246.389 200.6L246.489 200.5C246.589 200.4 246.689 200.3 246.689 200.3C246.689 200.3 246.689 200.3 246.789 200.2C246.889 200.1 246.689 200.2 246.789 200.2L246.889 200.1C246.989 200 247.089 200 247.189 199.9C247.389 199.8 247.489 199.5 247.289 199.3C247.189 199.2 246.989 199.1 246.789 199.2Z" fill="#54260C"/>
<path d="M244.689 199.2C243.989 200.1 243.489 201.3 243.389 202.5C243.389 202.7 243.589 202.9 243.789 202.9C243.989 202.9 244.189 202.7 244.189 202.5C244.289 201.6 244.689 200.6 245.289 199.8C245.389 199.6 245.489 199.4 245.289 199.2C245.189 199.1 244.889 199.1 244.689 199.2Z" fill="#54260C"/>
<path d="M243.989 178.7C244.289 173.8 246.689 169.2 250.189 165.9C251.189 165 252.289 164.2 253.489 163.5C253.989 163.2 253.489 162.5 253.089 162.8C248.689 165.4 245.389 169.6 243.989 174.5C243.589 175.9 243.289 177.3 243.189 178.7C243.089 179.2 243.889 179.2 243.989 178.7Z" fill="#54260C"/>
<path d="M232.189 182.7C233.389 180.9 234.589 179 235.089 176.9C235.689 174.6 235.289 172.3 234.589 170.1C234.389 169.6 233.689 169.8 233.789 170.3C234.489 172.4 234.889 174.6 234.289 176.7C233.789 178.7 232.589 180.4 231.489 182.2C231.189 182.7 231.889 183.1 232.189 182.7Z" fill="#54260C"/>
<path d="M222.889 169.7C222.889 171.4 222.889 173.1 222.689 174.8C222.589 175.8 222.389 176.6 221.989 177.6C221.089 179.8 220.089 181.9 219.389 184.2C218.989 185.5 218.689 186.9 218.689 188.2C218.689 188.7 219.489 188.7 219.489 188.2C219.489 185.7 220.489 183.3 221.389 181C222.189 179.2 223.189 177.4 223.389 175.4C223.689 173.5 223.689 171.6 223.689 169.7C223.689 169.2 222.889 169.2 222.889 169.7Z" fill="#54260C"/>
<path d="M210.489 172.2C210.589 172.9 210.689 173.6 210.789 174.3C210.789 174.5 211.089 174.6 211.289 174.6C211.489 174.5 211.589 174.3 211.589 174.1C211.489 173.4 211.389 172.7 211.289 172C211.289 171.8 210.989 171.7 210.789 171.7C210.589 171.7 210.489 172 210.489 172.2Z" fill="#54260C"/>
<path d="M208.689 173.5C208.789 174.1 208.889 174.7 208.889 175.3C208.889 175.4 208.889 175.5 208.989 175.6C209.089 175.7 209.189 175.7 209.289 175.7C209.489 175.7 209.689 175.5 209.689 175.3C209.589 174.7 209.489 174.1 209.489 173.5C209.489 173.4 209.489 173.3 209.389 173.2C209.289 173.1 209.189 173.1 209.089 173.1C208.889 173.1 208.689 173.2 208.689 173.5Z" fill="#54260C"/>
<path d="M206.289 170.1C206.389 170.4 206.489 170.8 206.589 171.1C206.589 171.3 206.689 171.4 206.689 171.6C206.689 171.6 206.689 171.6 206.689 171.7V171.8C206.689 171.9 206.689 172 206.689 172.1C206.689 172.3 206.889 172.5 207.089 172.5C207.289 172.5 207.489 172.3 207.489 172.1C207.489 171.3 207.289 170.6 206.989 169.9C206.889 169.7 206.689 169.5 206.489 169.6C206.389 169.6 206.189 169.8 206.289 170.1Z" fill="#54260C"/>
<path d="M187.689 138.4C187.689 139.6 187.789 140.8 187.989 142C188.189 143 188.489 144 189.089 144.8C190.189 146.2 192.389 146.9 193.789 145.6C194.189 145.3 193.589 144.7 193.189 145C192.589 145.5 191.889 145.5 191.189 145.3C190.389 145.1 189.789 144.6 189.389 143.9C188.889 143.2 188.689 142.3 188.589 141.4C188.389 140.4 188.389 139.4 188.389 138.3C188.489 137.9 187.689 137.9 187.689 138.4Z" fill="#54260C"/>
<path d="M187.889 139.8C188.189 138.9 189.489 138.8 190.389 139C191.289 139.3 192.389 139.7 193.189 139.2C194.089 138.7 194.089 137.3 193.489 136.4C192.889 135.5 191.889 135.1 190.889 134.7C190.389 134.5 189.789 134.2 189.189 134.5C188.889 134.6 188.689 134.9 188.489 135.2C187.889 135.9 187.389 136.7 187.089 137.6C186.889 138.5 186.989 139.5 187.789 140.1L187.889 139.8Z" fill="black"/>
<path d="M202.689 135.9C202.389 136.3 202.089 136.8 201.789 137.2C201.689 137.3 201.589 137.4 201.689 137.6C201.689 137.7 201.789 137.8 201.889 137.9C202.089 138.1 202.389 138.2 202.589 138.4C203.789 139.3 205.089 140.2 206.389 141.1C206.089 138.9 204.789 136.9 202.889 135.7L202.689 135.9Z" fill="black"/>
<path d="M243.589 144.9C243.989 145.6 243.989 146.5 243.689 147.3C243.589 147.5 243.789 147.8 243.989 147.8C244.189 147.9 244.389 147.7 244.489 147.5C244.889 146.5 244.789 145.4 244.289 144.5C244.189 144.3 243.889 144.2 243.689 144.4C243.589 144.5 243.489 144.7 243.589 144.9Z" fill="#A85B35"/>
<path d="M242.089 145.2C242.189 146 242.189 146.9 241.989 147.7C241.989 147.9 242.089 148.2 242.289 148.2C242.489 148.2 242.789 148.1 242.789 147.9C242.989 146.9 242.989 145.9 242.889 145C242.889 144.8 242.589 144.7 242.389 144.7C242.189 144.8 242.089 145 242.089 145.2Z" fill="#A85B35"/>
<path d="M257.889 152.2C257.789 152.4 257.689 152.7 257.489 152.9C257.489 153 257.389 153 257.389 153.1C257.489 153 257.289 153.2 257.389 153.1C257.389 153.1 257.389 153.2 257.289 153.2C257.189 153.3 257.089 153.4 256.989 153.5C256.889 153.6 256.789 153.7 256.689 153.8L256.589 153.9C256.589 153.9 256.589 153.9 256.489 154C256.289 154.2 256.089 154.3 255.789 154.4C255.589 154.5 255.489 154.8 255.689 155C255.789 155.2 256.089 155.2 256.289 155.1C257.289 154.6 258.189 153.8 258.589 152.7C258.689 152.5 258.689 152.3 258.489 152.1C258.189 151.9 257.889 152 257.889 152.2Z" fill="#A85B35"/>
<path d="M256.689 151.7C256.589 151.9 256.389 152 256.289 152.2C256.189 152.3 256.089 152.3 256.089 152.4C256.089 152.4 256.089 152.4 255.989 152.4L255.889 152.5C255.689 152.6 255.589 152.7 255.389 152.8C255.289 152.8 255.289 152.8 255.189 152.9C255.189 152.9 255.189 152.9 255.089 152.9C254.989 152.9 254.889 153 254.789 153C254.589 153.1 254.389 153.3 254.489 153.5C254.589 153.7 254.789 153.9 254.989 153.8C255.889 153.5 256.689 153 257.289 152.3C257.389 152.1 257.489 151.9 257.289 151.7C257.089 151.6 256.789 151.5 256.689 151.7Z" fill="#A85B35"/>
<path d="M212.289 139.5C211.289 138.7 210.889 137.3 210.789 135.9C210.689 134.6 210.789 133.2 210.389 131.9C210.189 131.4 209.889 130.9 209.389 130.7C208.689 130.5 207.989 131.2 207.789 131.9C207.389 132.9 207.289 133.9 207.489 134.9C207.489 133.5 206.889 132 205.989 131C205.889 130.9 205.789 130.8 205.689 130.8C205.389 130.7 205.089 131.1 205.089 131.4C204.889 132.2 204.889 133 205.189 133.7C204.789 133.6 204.589 133.2 204.189 133.1C203.889 132.9 203.289 132.9 203.189 133.3C203.089 133.6 203.189 133.9 203.389 134.1C204.489 135.7 206.189 136.9 208.089 137.3L212.289 139.5Z" fill="#A85B35"/>
<path d="M210.289 137.9C210.289 136.7 209.989 135.5 209.389 134.4C209.289 134.2 208.889 134.1 208.789 134.3C208.089 135.1 207.889 136.1 208.089 137.1C208.389 137 208.589 137 208.889 136.9C208.589 136.3 208.289 135.7 207.789 135.2C207.389 134.8 206.789 134.3 206.089 134.4C205.789 134.4 205.489 134.6 205.289 134.9C205.089 135.2 205.089 135.6 205.189 135.9C205.389 136.6 205.789 137.2 206.189 137.7C206.489 138.1 207.089 137.5 206.789 137.1C206.489 136.7 206.189 136.3 206.089 135.8C205.989 135.5 205.889 135.1 206.289 135.1C206.689 135.1 207.089 135.5 207.389 135.8C207.689 136.2 207.889 136.6 208.089 137C208.189 137.2 208.389 137.3 208.589 137.3C208.789 137.2 208.889 137 208.889 136.8C208.689 136.1 208.889 135.3 209.389 134.7C209.189 134.7 208.989 134.6 208.789 134.6C209.289 135.5 209.589 136.6 209.589 137.7C209.489 138.4 210.389 138.4 210.289 137.9Z" fill="#54260C"/>
<path d="M219.389 165.1C219.389 165.2 219.489 165.2 219.489 165.3C219.489 165.3 219.489 165.3 219.489 165.4V165.5C219.589 165.7 219.589 165.8 219.589 166V165.9C219.589 166 219.589 166.2 219.589 166.3C219.589 166.5 219.789 166.7 219.989 166.7C220.189 166.7 220.389 166.5 220.389 166.3C220.389 165.7 220.289 165.1 219.989 164.7C219.889 164.5 219.589 164.4 219.389 164.6C219.389 164.7 219.289 164.9 219.389 165.1Z" fill="#54260C"/>
<path d="M216.689 164.5C216.689 164.6 216.689 164.7 216.689 164.7V164.8C216.689 165 216.689 165.1 216.689 165.3C216.689 165.6 216.689 165.9 216.689 166.3C216.689 166.5 216.889 166.7 217.089 166.7C217.289 166.7 217.489 166.5 217.489 166.3C217.589 165.6 217.489 164.9 217.389 164.2C217.389 164 217.089 163.9 216.889 163.9C216.789 164.1 216.589 164.3 216.689 164.5Z" fill="#54260C"/>
<path d="M227.489 183.2C227.389 183.6 227.389 183.9 227.289 184.2C227.189 184.4 227.189 184.5 227.089 184.7C227.089 184.7 227.089 184.7 227.089 184.8C227.089 184.8 227.089 184.9 226.989 184.9C226.989 185 226.889 185.1 226.889 185.2C226.789 185.4 226.789 185.7 226.989 185.8C227.189 185.9 227.489 185.9 227.589 185.7C227.889 185 228.189 184.3 228.289 183.5C228.289 183.4 228.289 183.3 228.289 183.2C228.289 183.1 228.189 183 228.089 183C227.789 182.8 227.489 182.9 227.489 183.2Z" fill="#54260C"/>
<path d="M225.189 184.7C225.189 185 225.189 185.4 225.189 185.7C225.189 185.9 225.389 186.1 225.589 186.1C225.789 186.1 225.989 185.9 225.989 185.7C225.989 185.4 225.989 185 225.989 184.7C225.989 184.5 225.789 184.3 225.589 184.3C225.389 184.3 225.189 184.4 225.189 184.7Z" fill="#54260C"/>
<path d="M230.589 177C230.489 177.6 230.389 178.2 230.189 178.8C230.189 179 230.289 179.2 230.489 179.3C230.689 179.3 230.989 179.2 230.989 179C231.089 178.4 231.189 177.8 231.389 177.2C231.389 177 231.289 176.8 231.089 176.7C230.889 176.6 230.689 176.8 230.589 177Z" fill="#54260C"/>
<path d="M229.089 176.6C228.989 177.1 228.989 177.6 228.889 178.1C228.889 178.2 228.989 178.3 228.989 178.4C229.089 178.5 229.189 178.5 229.289 178.5C229.389 178.5 229.489 178.5 229.589 178.4C229.689 178.3 229.689 178.2 229.689 178.1C229.789 177.6 229.789 177.1 229.889 176.6C229.889 176.5 229.789 176.4 229.789 176.3C229.689 176.2 229.589 176.2 229.489 176.2C229.389 176.2 229.289 176.2 229.189 176.3C229.089 176.4 229.089 176.4 229.089 176.6Z" fill="#54260C"/>
<path d="M249.389 174.6C249.189 175.1 249.089 175.6 249.089 176.1C249.089 176.3 249.289 176.5 249.489 176.5C249.689 176.5 249.889 176.3 249.889 176.1C249.889 176 249.889 175.8 249.889 175.7V175.8C249.889 175.5 249.989 175.1 250.089 174.8C250.089 174.7 250.089 174.6 250.089 174.5C250.089 174.4 249.989 174.3 249.889 174.3C249.689 174.3 249.489 174.4 249.389 174.6Z" fill="#54260C"/>
<path d="M247.489 175.2C247.389 175.6 247.189 176 247.089 176.4C246.989 176.6 247.189 176.9 247.389 176.9C247.589 177 247.789 176.8 247.889 176.6C247.989 176.2 248.189 175.8 248.289 175.4C248.389 175.2 248.189 174.9 247.989 174.9C247.689 174.9 247.489 175 247.489 175.2Z" fill="#54260C"/>
<path d="M245.489 176.4C245.489 176.9 245.489 177.4 245.489 178C245.489 178.2 245.689 178.4 245.889 178.4C246.089 178.4 246.289 178.2 246.289 178C246.289 177.5 246.289 177 246.289 176.4C246.289 176.2 246.089 176 245.889 176C245.689 176 245.489 176.1 245.489 176.4Z" fill="#54260C"/>
<path d="M246.089 180.6C246.189 180.9 246.189 181.1 246.289 181.4V181.5C246.289 181.6 246.289 181.6 246.289 181.7C246.289 181.8 246.289 182 246.289 182.1C246.289 182.3 246.489 182.5 246.689 182.5C246.889 182.5 247.089 182.3 247.089 182.1C247.089 181.5 246.989 180.9 246.789 180.3C246.689 180.1 246.489 179.9 246.289 180C246.189 180.2 246.089 180.4 246.089 180.6Z" fill="#54260C"/>
<path d="M252.389 157.4C252.489 158 252.589 158.5 252.689 159.1C252.689 159.3 252.989 159.4 253.189 159.4C253.389 159.3 253.489 159.1 253.489 158.9C253.389 158.3 253.289 157.8 253.189 157.2C253.189 157 252.889 156.9 252.689 156.9C252.489 156.9 252.389 157.1 252.389 157.4Z" fill="#54260C"/>
<path d="M250.489 158.2C250.489 158.5 250.489 158.7 250.489 159C250.489 159.1 250.489 159.2 250.589 159.3C250.689 159.4 250.789 159.4 250.889 159.4C250.989 159.4 251.089 159.4 251.189 159.3C251.289 159.2 251.289 159.1 251.289 159C251.289 158.7 251.289 158.5 251.289 158.2C251.289 158.1 251.289 158 251.189 157.9C251.089 157.8 250.989 157.8 250.889 157.8C250.789 157.8 250.689 157.8 250.589 157.9C250.589 157.9 250.489 158 250.489 158.2Z" fill="#54260C"/>
<path d="M248.189 153.5C247.989 153.9 247.989 154.4 248.089 154.9C248.089 155 248.189 155.1 248.289 155.1C248.389 155.2 248.489 155.2 248.589 155.1C248.689 155.1 248.789 155 248.789 154.9C248.889 154.8 248.889 154.7 248.789 154.6C248.789 154.6 248.789 154.6 248.789 154.5V154.6C248.789 154.4 248.789 154.2 248.789 154V154.1C248.789 153.9 248.889 153.8 248.889 153.6C248.889 153.5 248.889 153.4 248.889 153.3C248.889 153.2 248.789 153.1 248.689 153.1C248.489 153.1 248.289 153.3 248.189 153.5Z" fill="#54260C"/>
<path d="M203.689 186.1C203.689 186.3 203.689 186.4 203.689 186.6V186.7C203.689 186.7 203.689 186.9 203.689 186.8C203.689 186.9 203.689 186.9 203.689 187C203.689 187.1 203.589 187.3 203.589 187.4C203.589 187.5 203.589 187.5 203.489 187.6C203.489 187.6 203.489 187.7 203.389 187.7C203.289 187.9 203.289 188.1 203.489 188.3C203.689 188.4 203.989 188.4 204.089 188.2C204.389 187.6 204.489 186.9 204.489 186.2C204.489 186 204.289 185.8 204.089 185.8C203.889 185.7 203.689 185.9 203.689 186.1Z" fill="#54260C"/>
<path d="M202.289 186.1C202.289 186.3 202.289 186.4 202.289 186.6V186.5C202.289 186.7 202.189 187 202.089 187.2V187.1C202.089 187.2 201.989 187.2 201.989 187.3C201.889 187.5 201.889 187.8 202.089 187.9C202.289 188 202.589 188 202.689 187.8C202.889 187.3 203.089 186.8 202.989 186.3C202.989 186.1 202.789 185.9 202.589 185.9C202.489 185.7 202.289 185.9 202.289 186.1Z" fill="#54260C"/>
<defs>
<filter id="filter0_d_440_772" x="0" y="0" width="340" height="328.789" filterUnits="userSpaceOnUse" color-interpolation-filters="sRGB">
<feFlood flood-opacity="0" result="BackgroundImageFix"/>
<feColorMatrix in="SourceAlpha" type="matrix" values="0 0 0 0 0 0 0 0 0 0 0 0 0 0 0 0 0 0 127 0" result="hardAlpha"/>
<feOffset/>
<feGaussianBlur stdDeviation="4"/>
<feComposite in2="hardAlpha" operator="out"/>
<feColorMatrix type="matrix" values="0 0 0 0 0 0 0 0 0 0 0 0 0 0 0 0 0 0 0.15 0"/>
<feBlend mode="normal" in2="BackgroundImageFix" result="effect1_dropShadow_440_772"/>
<feBlend mode="normal" in="SourceGraphic" in2="effect1_dropShadow_440_772" result="shape"/>
</filter>
</defs>
</svg>
