<svg width="266" height="231" viewBox="0 0 266 231" fill="none" xmlns="http://www.w3.org/2000/svg">
<path d="M71.6743 184.419C71.9355 184.419 72.458 184.419 72.7192 184.158L87.3483 179.194L91.2668 180.239L96.2302 181.545C102.239 183.635 105.635 184.158 107.724 183.896C108.769 183.896 109.031 183.896 109.814 183.635C112.165 183.374 112.427 183.374 112.427 183.374C112.427 183.374 132.28 164.304 121.047 170.573L110.076 168.222C109.031 168.222 105.896 173.447 104.851 173.447L92.8342 171.88C91.528 171.618 90.483 171.618 89.1769 172.141L80.295 175.276C80.0337 175.276 79.7725 175.537 79.7725 175.537L69.3232 181.806C68.8008 182.068 68.5395 182.59 68.8007 183.113C68.8007 183.374 69.062 183.374 69.062 183.635C69.3232 183.896 69.3232 184.158 69.5844 184.158C69.8456 184.419 70.1069 184.419 70.3681 184.419H70.6294C71.4131 184.419 71.4131 184.419 71.6743 184.419Z" fill="#FFCFA1"/>
<path d="M139.333 125.642C141.162 116.237 156.575 88.0239 159.187 80.1869C161.016 74.4398 161.277 73.6561 165.195 69.2152C167.024 67.1253 169.114 65.5579 171.465 64.2518C172.771 63.7293 174.077 63.2068 175.383 62.6843C177.473 62.1619 179.824 61.9006 182.176 61.9006C195.76 76.0072 168.591 133.217 163.628 140.793C160.754 144.973 124.443 176.582 120.263 178.411L103.022 172.925C103.283 172.925 139.333 125.642 139.333 125.642Z" fill="#EDEDED"/>
<path d="M249.835 229.351H150.566C151.873 214.2 178.78 65.2967 178.78 65.2967L189.49 63.4681L221.883 58.2434C222.144 58.5046 250.096 215.506 249.835 229.351Z" fill="#488399"/>
<path d="M215.091 51.1902L208.299 25.8506C196.544 27.1568 185.311 28.2017 182.698 28.2017C182.698 28.2017 184.527 48.0554 184.527 56.6761C182.176 76.2685 213.001 73.9175 215.091 51.1902Z" fill="#F2C799"/>
<path d="M222.144 58.5046L249.574 71.5663C250.357 80.187 250.88 89.0689 251.664 98.4733C255.06 140.009 254.537 215.506 254.276 229.351H202.291C202.813 175.276 206.993 83.3218 220.838 58.7658L222.144 58.5046Z" fill="#EDEDED"/>
<path d="M165.979 73.3949L167.547 72.3499L178.78 65.5579L180.347 65.2966L174.861 229.351H150.566C152.134 214.199 165.979 80.9706 165.979 73.3949Z" fill="#EDEDED"/>
<path d="M191.58 69.2152L181.914 80.187C180.347 73.3949 178.518 67.909 179.302 63.9905L184.788 57.9822C184.265 62.6844 186.616 67.6478 191.58 69.2152Z" fill="white"/>
<path d="M191.58 69.2152L203.597 83.0606C211.695 74.9624 220.054 66.3417 222.406 58.5047L215.352 50.6677C215.091 57.721 200.984 69.4765 191.58 69.2152Z" fill="white"/>
<path d="M206.209 138.964C212.217 117.805 226.585 79.1421 226.585 79.1421C226.585 79.1421 217.181 74.1787 217.964 73.6562L228.152 73.9175L226.324 60.5946L216.919 52.7576C209.344 77.0522 205.425 111.796 206.209 138.964Z" fill="#DADADA"/>
<path d="M177.996 138.442C171.987 117.282 168.853 77.5746 168.853 77.5746C168.853 77.5746 177.734 74.4398 176.951 73.6561L169.636 72.8725L175.383 63.2068L183.22 60.072C180.608 84.3667 178.779 111.535 177.996 138.442Z" fill="#DADADA"/>
<path opacity="0.1" d="M230.765 135.829L199.156 157.512C230.504 167.7 237.296 215.506 233.116 229.351H254.015L254.798 104.481L230.504 99.2568L230.765 135.829Z" fill="#1D1D1B"/>
<path d="M163.889 149.414C164.412 149.414 165.195 149.675 165.457 150.197C165.718 150.72 165.979 151.242 166.24 151.765C167.024 152.81 168.069 153.593 169.375 154.116C170.681 154.638 171.987 154.899 173.032 155.161C175.383 155.944 177.473 157.251 179.041 158.818C179.824 159.602 180.869 160.647 181.131 161.953C181.653 163.259 181.392 164.565 180.608 165.61C179.302 167.177 177.212 166.916 175.383 166.132C173.555 165.349 172.249 164.043 170.681 162.998C169.114 161.953 167.285 161.169 166.24 159.602C165.979 159.079 165.718 158.557 165.195 158.034C164.934 157.512 164.412 156.989 163.889 156.728C162.844 155.422 162.061 153.593 162.061 151.765C162.583 150.981 162.844 149.675 163.889 149.414Z" fill="#F2C194"/>
<path d="M142.729 172.924L157.359 162.475L163.889 158.034L163.367 157.25L156.575 161.691L142.207 171.88L142.729 172.924Z" fill="#B8B0B0"/>
<path d="M150.826 161.737L155.17 167.944L156.24 167.195L151.896 160.988L150.826 161.737Z" fill="#C6C6C6"/>
<path d="M129.145 178.149L132.541 182.59L154.746 167.178L154.223 166.655L132.541 181.545L130.19 178.411L151.872 163.259L151.35 162.737L129.145 178.149Z" fill="#C6C6C6"/>
<path d="M142.468 174.753L144.035 173.447L144.558 173.186L142.207 170.051L141.945 170.312L140.117 171.618L142.468 174.753Z" fill="#614F49"/>
<path d="M161.992 155.518L165.137 160.012L166.207 159.264L163.062 154.769L161.992 155.518Z" fill="#B8B0B0"/>
<path d="M141.539 173.066L142.887 174.992L143.529 174.543L142.181 172.617L141.539 173.066Z" fill="#DAD1D1"/>
<path d="M140.614 175.107L141.213 175.963L141.856 175.514L141.256 174.658L140.614 175.107Z" fill="#C6C6C6"/>
<path d="M138.336 175.376L139.684 177.303L140.326 176.853L138.978 174.927L138.336 175.376Z" fill="#C6C6C6"/>
<path d="M137.427 177.356L138.026 178.212L138.668 177.763L138.069 176.906L137.427 177.356Z" fill="#C6C6C6"/>
<path d="M135.363 177.476L136.71 179.402L137.353 178.953L136.005 177.026L135.363 177.476Z" fill="#C6C6C6"/>
<path d="M134.498 179.486L135.097 180.342L135.739 179.893L135.14 179.037L134.498 179.486Z" fill="#C6C6C6"/>
<path d="M132.025 179.511L133.373 181.437L134.015 180.988L132.667 179.061L132.025 179.511Z" fill="#C6C6C6"/>
<path d="M150.883 166.525L152.23 168.451L152.873 168.002L151.525 166.076L150.883 166.525Z" fill="#C6C6C6"/>
<path d="M150.011 168.561L150.61 169.417L151.252 168.968L150.653 168.112L150.011 168.561Z" fill="#C6C6C6"/>
<path d="M147.656 168.681L149.004 170.608L149.646 170.159L148.298 168.232L147.656 168.681Z" fill="#C6C6C6"/>
<path d="M146.775 170.753L147.375 171.609L148.017 171.16L147.418 170.303L146.775 170.753Z" fill="#C6C6C6"/>
<path d="M144.727 170.811L146.075 172.737L146.717 172.288L145.369 170.362L144.727 170.811Z" fill="#C6C6C6"/>
<path d="M143.802 172.852L144.401 173.708L145.043 173.259L144.444 172.402L143.802 172.852Z" fill="#C6C6C6"/>
<path d="M141.53 173.06L142.878 174.986L143.52 174.536L142.172 172.61L141.53 173.06Z" fill="#C6C6C6"/>
<path d="M128.361 181.545L128.884 182.329L131.496 181.284L130.19 179.455L128.361 181.545Z" fill="#4AA2B7"/>
<path d="M119.218 188.337L118.173 189.643L128.623 182.068L128.361 181.806L119.218 188.337Z" fill="#575756"/>
<path d="M192.102 161.692C193.408 165.61 195.237 172.925 195.759 174.231C195.759 174.492 195.759 174.492 195.759 174.492C195.759 174.492 185.571 178.411 174.6 182.068C171.987 182.851 163.105 181.807 161.538 181.807C160.493 181.807 159.709 181.545 158.926 181.284C158.664 181.023 158.403 181.023 158.142 180.762C157.097 179.717 156.836 178.149 157.619 177.627C155.791 178.411 153.701 177.627 153.44 175.798C153.178 175.014 153.44 174.492 153.962 173.97C154.485 173.447 155.007 173.186 155.53 172.663C151.35 174.231 150.566 171.357 151.35 169.79C152.134 168.222 153.962 167.7 155.007 166.655C157.097 164.826 158.664 164.043 160.754 162.214C161.015 162.214 161.015 161.953 161.277 161.953C157.619 161.953 155.268 161.953 151.611 162.998C150.305 163.259 148.476 163.781 147.431 162.737C146.386 161.692 146.648 159.863 147.693 158.818C148.737 157.773 150.044 157.251 151.35 156.989C154.223 156.206 156.052 156.206 159.187 155.944C159.97 155.944 161.015 155.683 161.799 155.944C164.934 155.944 167.807 156.728 170.942 156.728C173.293 156.728 175.644 156.989 177.734 158.034C179.563 158.818 180.869 160.385 182.175 161.692C184.526 164.043 188.184 162.475 192.102 161.692Z" fill="#FFCFA1"/>
<path opacity="0.1" d="M195.76 174.231C195.76 174.492 195.76 174.492 195.76 174.231C195.76 174.492 185.572 178.41 174.6 182.068C171.987 182.851 163.106 181.806 161.538 181.806C160.493 181.806 159.709 181.545 158.926 181.284C158.665 181.023 158.403 180.761 157.881 180.761C168.591 181.023 169.375 178.672 169.375 177.365C169.375 176.843 169.636 176.32 169.375 175.798C169.114 174.231 167.024 173.708 166.502 172.141C166.24 171.096 166.763 170.051 166.502 169.006C166.24 168.222 165.195 167.7 164.673 166.916C163.367 165.61 163.105 163.781 163.889 162.214C163.628 163.52 164.412 164.826 165.195 165.871C166.24 166.916 167.285 167.7 167.808 169.006C168.33 170.312 168.069 172.141 169.114 173.186C169.636 173.969 170.942 174.492 171.465 175.537C171.987 176.32 171.987 177.104 172.249 177.888C172.771 178.672 173.816 179.194 174.861 179.455C175.906 179.716 176.951 179.455 177.996 179.194C183.743 177.627 189.751 176.059 195.76 174.231Z" fill="#1D1D1B"/>
<path d="M211.695 33.165C212.479 27.4179 211.956 25.0668 210.65 19.3197C203.335 -6.5424 189.229 0.772089 179.563 3.12319C168.33 6.51922 157.358 14.3562 163.105 34.2099C164.15 35.7773 165.195 37.0835 165.195 37.0835L163.367 45.7042C163.105 47.5328 164.412 50.6676 168.069 50.9288L170.42 58.5046C172.771 65.5579 179.041 70.2601 184.788 68.4314C197.849 61.9006 203.074 54.0637 198.372 39.4346C202.552 37.8672 211.172 37.6059 211.695 33.165Z" fill="#FFD2A1"/>
<path d="M205.947 10.9601L190.535 15.6623C187.139 16.7072 185.049 20.3645 185.832 24.0217C186.616 27.4178 187.922 31.075 188.967 34.7323C191.58 34.2098 199.939 31.3363 199.939 31.3363C199.939 31.3363 201.768 47.794 211.956 42.8305C220.576 38.3896 212.217 18.0134 209.605 12.5275C209.082 10.9601 207.515 10.4376 205.947 10.9601Z" fill="#362A2B"/>
<path d="M203.074 30.8139C204.119 34.9937 201.768 40.4795 199.156 41.2632C196.543 42.0469 195.498 38.6509 194.454 34.4712C193.67 31.8588 192.625 27.9404 195.498 26.373C197.588 25.0668 201.507 24.8056 203.074 30.8139Z" fill="#FFD2A1"/>
<path d="M92.0503 229.612L91.5278 223.865L95.1851 222.82C99.626 218.902 105.373 217.595 111.904 217.073V228.567L99.1036 230.918L92.0503 229.612Z" fill="#964B23"/>
<path d="M94.9238 222.298L101.716 229.874L98.8423 230.657C95.185 230.657 92.834 230.918 91.2666 228.829L87.8705 224.388C86.8256 223.081 87.6093 220.208 87.6093 220.208C89.438 218.64 93.0952 219.947 94.9238 222.298Z" fill="#964B23"/>
<path d="M92.0503 229.612L91.5278 223.865L95.1851 222.82C99.626 218.902 105.373 217.595 111.904 217.073V228.567L99.1036 230.918L92.0503 229.612Z" fill="#A65326"/>
<path d="M94.9238 222.298L101.716 229.874L98.8423 230.657C95.185 230.657 92.834 230.918 91.2666 228.829L87.8705 224.388C86.8256 223.081 87.6093 220.208 87.6093 220.208C89.438 218.64 93.0952 219.947 94.9238 222.298Z" fill="#878787"/>
<path d="M48.1632 228.045L40.3262 224.91L42.1548 220.208L40.8486 206.101L54.1715 205.056L51.8204 222.037L48.1632 228.045Z" fill="#BAB9AF"/>
<path d="M41.1099 223.865L51.298 223.081L49.9918 227C48.4244 229.612 47.3795 230.918 44.7671 230.918H38.4976C36.9302 230.918 35.1016 228.567 35.1016 228.567C35.1016 225.694 38.2363 223.865 41.1099 223.865Z" fill="#BAB9AF"/>
<path d="M137.244 215.244C136.982 217.073 136.46 218.902 135.938 220.73V220.991C135.676 221.514 135.676 222.036 135.415 222.298C104.59 223.343 73.2415 223.081 50.253 217.596C43.7222 216.289 39.5425 212.632 37.1914 207.146C36.1464 204.534 35.624 201.66 35.3628 198.264L57.8288 179.194L65.4046 172.663C67.2332 173.186 68.8006 171.357 70.6292 171.618C71.1517 171.88 71.9354 172.663 72.7191 173.447C73.2416 173.97 73.764 174.492 74.0252 174.492C74.2865 174.492 74.5477 174.492 74.8089 174.231C75.3314 173.708 76.1151 173.186 76.3763 173.186C77.4213 173.447 78.4662 175.276 79.5112 175.537C79.5112 175.537 79.5112 175.537 79.7724 175.537C81.0786 175.798 82.3847 176.059 83.4297 176.321C106.679 180.5 130.452 184.68 136.721 202.705C137.244 205.056 137.766 207.407 137.766 209.497C137.505 211.848 137.505 213.677 137.244 215.244Z" fill="#D9D7C3"/>
<path d="M65.1433 173.186C64.6208 174.753 63.8371 176.321 62.7922 177.888C57.8288 186.509 48.1631 194.868 38.4975 197.742C37.4525 198.003 36.4076 198.264 35.1015 198.787C34.8402 197.219 34.579 195.913 34.0565 194.868C32.2279 190.688 29.0931 188.86 28.0481 182.852C27.7869 181.023 25.9583 179.717 24.1296 179.978C23.6072 179.978 23.0847 180.239 22.8235 180.5L19.4275 182.329C16.8151 183.113 13.9416 183.113 11.5905 181.807C11.3293 181.545 11.068 181.545 10.8067 181.284L10.5456 181.023C10.2843 181.023 10.2843 180.762 10.0231 180.762C9.23938 179.978 8.19444 179.194 7.41075 178.411C5.58211 176.321 3.7535 173.97 2.44733 171.618C1.4024 170.051 0.879888 168.484 0.357422 167.178C0.618655 166.916 0.879952 166.394 1.40242 166.133C1.66365 165.871 1.6636 165.871 1.92484 165.61C2.4473 165.088 2.96978 164.826 3.49225 164.304C5.84335 162.475 7.93324 161.692 7.93324 161.692C11.5905 160.386 13.1579 159.863 14.4641 159.079C14.4641 159.079 14.464 159.079 14.7252 159.079C16.0314 158.296 16.8151 156.989 18.905 154.377C19.1662 154.116 19.1663 153.855 19.6887 153.332C20.9949 151.765 23.6072 149.414 25.1746 148.891C25.4358 148.891 25.4358 148.891 25.6971 148.891C28.0482 148.369 29.8768 148.108 31.7054 147.846C36.6688 147.324 40.0649 148.108 45.2895 149.414C47.6406 150.459 49.4693 152.287 50.5142 154.377L57.3063 161.953L65.1433 173.186Z" fill="#D9D7C3"/>
<path d="M190.535 229.612C184.526 229.873 177.212 230.396 170.681 230.396C167.808 230.396 165.195 230.396 162.844 230.135C159.971 229.873 156.836 229.873 153.962 229.351C150.044 228.828 145.603 228.306 141.945 226.216C139.333 224.649 137.766 223.081 136.198 221.253C135.937 220.991 135.937 220.73 135.676 220.73C135.153 220.208 134.631 219.424 134.108 218.64C134.108 218.64 134.108 218.379 133.847 218.379C132.541 216.55 131.235 214.722 130.19 212.632C129.145 210.803 128.361 208.975 127.316 207.407C128.361 206.885 129.929 206.101 131.235 205.317C133.064 204.534 134.631 203.489 136.198 202.705C137.504 206.101 139.333 208.975 141.162 212.109C142.468 214.199 144.558 216.028 146.648 217.595C156.052 223.343 171.726 224.649 181.914 226.739C182.959 227 184.004 227.261 185.049 227.522C187.661 228.306 189.49 228.828 190.535 229.612Z" fill="#D9D7C3"/>
<path d="M79.2496 176.059C76.3761 177.888 71.9351 179.455 67.4941 176.582C65.9267 176.843 64.3594 177.366 62.792 177.627C60.9633 178.149 59.1347 178.672 57.5673 179.455C55.4775 180.239 53.6488 181.023 51.8202 182.068C47.9017 184.158 44.5056 187.031 40.3259 188.86C39.5422 189.121 38.7585 189.382 37.9748 189.382C36.9299 189.382 36.1462 188.599 35.3625 188.076C33.0114 186.248 30.9215 184.158 28.8317 181.807C28.5704 182.068 28.3092 182.068 28.0479 182.329C27.7867 180.5 25.9581 179.194 24.1294 179.455C23.8682 178.933 23.3458 178.41 23.0845 177.888C21.7784 176.582 19.9497 176.059 18.6435 174.492C17.0761 172.402 17.5986 169.529 17.3374 167.178C17.0761 164.043 16.0313 161.169 14.4639 158.818H14.725C16.0312 158.034 16.8149 156.728 18.9048 154.116C19.166 153.855 19.1661 153.593 19.6885 153.071C21.7784 152.81 22.562 150.72 25.4356 148.369C27.7867 147.846 29.6154 147.585 31.444 147.324C36.4074 146.801 39.8034 147.585 45.0281 148.891C47.3792 149.936 49.2078 151.765 50.2527 153.855L57.0448 161.43L65.4043 172.663C67.2329 173.186 68.8003 171.357 70.629 171.618C71.6739 171.88 72.98 174.231 74.025 174.492C74.8087 174.753 75.8536 172.925 76.376 173.186C77.1597 173.97 78.2047 175.798 79.2496 176.059Z" fill="#B55B2A"/>
<path d="M26.4806 177.104C26.2194 177.888 25.4357 178.149 24.652 178.149C22.3009 178.41 19.6886 177.888 17.3375 178.933C16.815 179.194 16.2926 179.455 15.5089 179.717C13.9415 180.5 12.1129 180.762 10.5455 180.762C10.2842 180.5 10.023 180.5 9.76172 180.239C10.5454 180.239 11.5904 179.978 12.374 179.717C14.2027 179.194 16.0313 178.149 17.5987 177.104C18.6436 176.321 19.9498 175.798 21.256 175.276C22.5621 174.753 24.1295 174.753 25.1745 175.276C25.9582 176.059 26.4806 176.582 26.4806 177.104Z" fill="#3C3C3B"/>
<path d="M185.833 227.784C184.004 229.09 181.653 229.351 179.302 229.09C176.951 228.828 174.861 228.045 172.771 227.784C171.204 227.522 169.636 227.522 168.33 227C167.024 226.477 165.979 225.694 164.673 225.432C163.106 224.91 161.538 225.171 159.971 224.649C157.881 224.126 156.052 222.036 153.701 221.514C152.134 221.253 150.305 221.514 148.738 220.73C147.693 219.947 147.17 218.902 147.17 217.595C156.575 223.343 172.249 224.649 182.437 226.739C183.482 227 184.527 227.261 185.572 227.522L185.833 227.784Z" fill="#1D1D1B"/>
<path opacity="0.8" d="M18.1215 156.206C18.1215 155.945 18.1215 155.683 18.3827 155.683H18.6439C19.9501 155.945 20.7338 157.512 22.04 158.035C22.5624 158.296 23.3461 158.296 23.8685 158.557C24.391 158.818 24.6523 159.079 24.9135 159.341C25.436 159.863 25.9584 160.386 26.7421 160.647C27.0034 160.908 27.5259 160.908 27.5259 161.431C25.1748 161.692 22.8236 161.431 20.4726 160.647C19.9501 160.386 19.4276 160.386 19.1664 160.647C18.6439 160.908 18.6439 161.953 18.9051 162.475C18.9051 162.737 19.1664 162.998 19.1664 163.259C18.3827 162.214 17.599 161.169 17.0766 159.863C17.0766 159.602 16.8153 159.341 17.0766 159.079C17.0766 159.079 17.3377 159.079 17.3377 158.818L17.599 158.557C17.8602 157.773 18.1215 156.99 18.1215 156.206Z" fill="#1D1D1B"/>
<path opacity="0.2" d="M135.676 221.253C135.415 221.775 135.415 222.298 135.154 222.559C104.328 223.604 72.9803 223.343 49.9918 217.857C43.461 216.551 39.2813 212.893 36.9302 207.407C39.5425 209.758 42.1549 211.848 45.5509 212.893C47.6408 213.677 49.7306 213.938 51.8205 214.461C57.5676 215.506 63.3148 216.289 69.0619 217.334C74.0253 218.118 78.9888 218.902 83.6909 219.685C84.9971 219.947 86.042 219.947 87.3482 219.947C90.483 219.685 93.0953 217.857 95.1852 215.506C97.2751 213.155 99.1036 210.803 101.194 208.452C106.679 203.228 114.516 201.399 122.092 199.832C125.227 199.048 129.145 198.787 131.235 200.877C130.19 206.624 132.542 212.371 134.631 217.857C135.154 218.902 135.415 219.947 135.676 221.253Z" fill="#1D1D1B"/>
<path d="M56.0001 228.045L47.9019 224.91L49.9917 220.208L48.6855 206.101L62.0084 205.056L59.6573 222.037L56.0001 228.045Z" fill="#D9D7C3"/>
<path d="M48.9464 223.865L59.1345 223.081L57.8284 227C56.261 229.612 55.216 230.918 52.6037 230.918H46.3341C44.7667 230.918 42.9381 228.567 42.9381 228.567C42.6769 225.694 45.8117 223.865 48.9464 223.865Z" fill="#D9D7C3"/>
<path d="M182.437 227C180.086 228.567 176.69 229.09 173.816 228.829C169.375 228.567 165.195 226.739 161.016 226.478C156.313 226.216 151.089 227.522 146.648 225.171C142.729 223.081 140.378 218.379 137.244 215.245C135.937 213.938 134.37 213.155 132.541 212.893C132.019 212.893 131.235 212.893 130.713 212.893C128.1 213.155 125.749 214.461 123.137 214.722C117.651 215.245 112.688 211.326 107.202 210.542C100.148 209.497 93.0951 213.938 85.7806 213.938C80.5559 213.938 75.3313 211.848 70.6291 213.416C68.8005 213.938 66.9718 215.244 65.1432 215.767C63.3146 216.289 60.7022 215.767 59.9185 213.938C59.3961 212.893 59.6573 211.848 59.396 210.804C59.1348 207.669 57.3062 205.056 54.4326 203.489C55.4775 202.444 57.045 202.444 58.6124 202.444C64.0983 201.66 68.5392 196.697 68.8004 191.211C68.8004 190.427 68.8004 189.644 69.0617 188.599C69.5841 187.293 70.8903 186.248 71.674 185.203C74.2863 182.329 75.3312 178.411 74.8088 174.753C75.3312 174.231 76.1149 173.708 76.3762 173.708C77.4211 173.97 78.4661 175.798 79.511 176.06C79.511 176.06 79.511 176.06 79.7723 176.06C81.0784 176.321 82.3846 176.582 83.4295 176.843C106.679 181.023 130.451 185.203 136.721 203.228C138.027 206.624 139.856 209.497 141.684 212.632C148.215 223.082 169.636 224.388 182.437 227Z" fill="#B55B2A"/>
<path d="M69.8453 180.5C69.3228 179.978 69.0616 179.717 68.5391 179.455C67.7554 178.933 67.233 178.41 66.4493 177.888C65.4044 177.104 64.3594 176.321 63.0532 176.059C64.0982 175.798 65.1431 175.014 66.1881 174.492C67.233 173.969 68.5391 173.447 69.584 174.231C70.1065 174.492 70.3678 175.014 70.629 175.276C72.1964 177.104 74.2863 178.149 76.3761 179.194C76.3761 179.455 76.1149 179.717 76.1149 180.239C75.8536 180.239 75.5924 180.239 75.3312 180.239C75.3312 181.806 75.3312 183.113 75.3312 184.68C75.3312 184.941 75.3312 184.941 75.3312 185.203C75.07 185.464 74.5475 185.202 74.025 184.941C72.7189 183.896 71.674 182.59 70.629 181.284C70.3678 181.284 70.1065 181.023 69.8453 180.5Z" fill="#1D1D1B"/>
<path d="M138.027 214.2C137.766 216.551 137.243 219.163 136.46 221.514C133.847 227.784 128.362 232.747 117.39 229.874L113.733 229.09L111.643 229.612L108.247 230.135L104.589 230.918C100.671 230.918 98.581 231.18 97.0136 229.09L93.6176 224.649C92.5727 223.343 93.3563 220.469 93.3563 220.469C95.4462 218.902 99.1035 220.208 100.932 222.559L101.193 222.82C104.328 219.947 108.508 218.379 112.949 217.596C113.994 214.2 115.3 211.065 118.696 208.714C122.092 206.885 127.317 206.101 132.019 205.579C132.541 205.579 133.325 205.579 133.847 205.579C135.154 205.579 136.199 205.579 137.244 205.579C137.766 207.146 138.288 210.281 138.027 214.2Z" fill="#D9D7C3"/>
<path d="M117.39 229.874L113.733 229.09L111.643 229.612C110.598 228.306 109.553 227 107.985 226.739C109.292 225.694 109.292 223.343 107.985 222.298C110.075 220.73 113.21 220.992 115.039 219.163C115.822 218.379 116.345 217.073 116.867 215.767C118.696 211.587 122.876 209.236 127.317 207.669C129.406 206.885 131.758 206.363 133.847 205.579C135.154 205.579 136.199 205.579 137.243 205.579C139.856 210.281 138.55 235.621 117.39 229.874Z" fill="#B55B2A"/>
<path d="M137.505 210.02L137.243 209.758C135.415 208.452 133.064 208.191 131.235 209.236C130.712 209.497 130.19 210.281 129.406 210.281C127.839 210.542 126.272 208.452 124.704 208.975C123.659 209.497 123.659 211.065 123.137 211.848C122.092 213.416 119.479 212.893 117.651 212.109C111.381 209.236 104.589 206.101 97.7971 207.407C95.9685 207.669 93.8787 208.191 92.8337 206.885C92.5725 206.362 92.3112 205.84 91.7887 205.579C91.005 204.795 89.9602 204.795 88.9152 204.795C84.4743 205.056 80.2945 206.362 76.6372 208.713C75.5923 209.236 73.7637 209.758 73.2412 208.713C72.98 208.452 73.2412 207.93 73.2412 207.407C73.7637 205.056 74.0249 202.705 74.5474 200.354C72.7188 200.093 70.6289 200.615 69.3228 201.921C69.3228 198.264 71.9351 195.391 72.98 192.256C75.0699 186.509 72.1963 179.717 72.7188 173.708C73.2412 174.231 73.7637 174.753 74.0249 174.753C74.2861 174.753 74.5474 174.753 74.8086 174.492C75.331 173.969 76.1148 173.447 76.376 173.447C77.4209 173.708 78.4659 175.537 79.5108 175.798C79.5108 175.798 79.5108 175.798 79.7721 175.798C81.0782 176.059 82.3844 176.321 83.4293 176.582C106.679 180.761 130.451 184.941 136.721 202.966C136.982 205.579 137.505 207.93 137.505 210.02Z" fill="#1D1D1B"/>
<path opacity="0.2" d="M35.6238 190.688C35.1013 191.995 34.5789 193.301 34.0564 194.607C32.2278 190.427 29.093 188.599 28.048 182.59C27.7868 180.762 25.9582 179.455 24.1295 179.717C23.6071 179.717 23.0846 179.978 22.8234 180.239L19.4274 182.068C16.815 182.851 13.9415 182.851 11.5904 181.545C11.3292 181.284 11.0679 181.284 10.8066 181.023C10.5454 180.762 10.2842 180.762 10.023 180.5C9.23928 179.717 8.19434 178.933 7.41064 178.149L7.67189 178.411C8.97806 179.455 10.2842 180.5 11.8516 180.762C13.1578 181.023 14.464 180.5 15.7701 179.978C16.5538 179.717 17.3375 179.194 18.1212 178.672C18.9049 178.149 19.4273 177.104 20.211 176.582C21.5172 175.537 23.3459 174.753 24.9133 175.276C26.4807 175.537 28.0481 176.843 28.3093 178.672C28.5705 179.194 28.5706 179.978 28.8318 180.5C29.093 180.762 29.3542 181.023 29.6155 181.284C30.1379 181.807 30.9216 182.329 31.4441 183.113C33.0115 184.419 34.8401 185.986 36.9299 185.725C36.9299 187.031 36.4075 188.86 35.6238 190.688Z" fill="#1D1D1B"/>
<path opacity="0.2" d="M170.681 230.657C167.808 230.657 165.195 230.657 162.844 230.396C159.971 230.135 156.836 230.135 153.962 229.612C150.044 229.09 145.603 228.567 141.946 226.477C139.333 224.91 137.766 223.343 136.198 221.514C133.586 227.784 128.1 232.747 117.129 229.873L113.471 229.09L111.381 229.612L107.985 230.135C109.03 229.612 110.075 228.829 110.859 228.306C111.381 228.045 111.904 227.522 112.688 227.522C113.732 227.261 115.039 227.784 116.084 228.306C120.525 229.873 126.01 228.567 129.668 225.432C131.758 223.604 133.064 221.514 134.37 219.163C135.415 217.073 135.937 214.983 136.46 212.632C136.982 213.155 137.505 213.677 138.027 214.461C139.333 215.767 140.639 217.334 141.946 218.64C143.252 219.947 144.558 221.253 146.125 222.559C148.476 224.388 151.35 225.432 154.224 226.477C156.575 227.261 159.187 228.306 161.799 228.828C164.673 229.351 167.808 229.873 170.681 230.657Z" fill="#1D1D1B"/>
<path opacity="0.8" d="M10.2843 180.762C10.023 180.762 10.023 180.5 9.76177 180.5C8.97807 179.717 7.93313 178.933 7.14944 178.149C5.3208 176.059 3.49219 173.708 2.18602 171.357C1.14109 169.79 0.618657 168.222 0.0961914 166.916C0.357424 166.655 0.618641 166.133 1.14111 165.871L1.40236 166.133V165.871C1.66359 165.61 1.66354 165.61 1.92477 165.349C2.44724 164.826 2.96972 164.565 3.49219 164.043C4.27589 164.304 4.79839 165.61 4.01469 166.394C4.53715 166.133 5.3208 165.871 5.84327 165.61C6.1045 166.394 5.8433 167.7 5.0596 168.222C5.58207 168.222 6.10455 168.222 6.62702 168.222C6.62702 168.745 6.62702 169.267 6.62702 169.79C7.14948 169.79 7.41068 170.574 7.41068 171.096C7.14945 171.619 6.88819 172.141 6.88819 172.663C6.88819 172.925 6.8882 172.925 7.14944 172.925C7.41067 173.186 7.93312 172.925 8.19435 172.402C8.45558 171.88 8.71688 171.618 9.23935 171.618C9.23935 172.663 8.97807 173.97 8.4556 175.015C8.97807 175.276 9.50055 175.537 10.023 175.798C9.50055 176.059 8.97811 176.582 9.23935 177.366C9.23935 177.888 9.7618 178.411 10.2843 178.672C10.2843 179.717 10.2843 180.239 10.2843 180.762Z" fill="#B55B2A"/>
<path d="M3.49225 169.79C3.49225 170.574 2.9698 171.357 2.44733 171.357C1.4024 169.79 0.879888 168.222 0.357422 166.916C0.879888 166.394 1.40237 165.871 1.92484 165.349C2.4473 165.349 2.70853 165.61 3.231 165.871C3.49223 165.871 3.49227 166.133 3.7535 166.133C4.01473 166.394 4.01475 166.655 4.01475 166.916C3.75352 167.961 3.75348 168.745 3.49225 169.79Z" fill="#1D1D1B"/>
<path opacity="0.2" d="M8.19431 167.439H7.93314C7.93314 167.439 7.67189 167.439 7.67189 167.178V166.916H7.41064V167.178C7.41064 167.439 7.41066 167.7 7.67189 167.7H7.93314C7.93314 167.7 7.93314 167.7 7.93314 167.961C7.93314 168.222 7.93314 168.484 7.93314 168.484C7.93314 168.745 7.93314 168.745 7.93314 169.006C7.93314 169.267 8.19431 169.267 8.19431 169.267C8.19431 169.006 8.19431 168.484 8.19431 168.222C8.45554 168.222 8.71683 168.222 8.97806 168.222C8.97806 167.961 8.71678 167.439 8.19431 167.439Z" fill="#B55B2A"/>
<path opacity="0.3" d="M8.97802 171.357C9.23925 171.357 9.23927 171.357 9.23927 171.096C9.23927 170.835 8.97802 170.835 8.97802 170.835C8.71679 170.835 8.71676 170.835 8.45552 170.573C8.45552 170.573 8.45551 170.573 8.19427 170.573C7.93304 171.096 7.93311 171.357 7.93311 171.88C8.19434 171.88 8.19429 171.88 8.45552 171.618C8.45552 171.357 8.71679 171.357 8.97802 171.357Z" fill="#B55B2A"/>
<path opacity="0.2" d="M9.50043 169.006C9.50043 169.267 9.23926 169.529 9.23926 169.79C9.23926 170.051 9.23926 170.051 9.23926 170.051C9.50049 170.312 9.50044 170.051 9.76168 170.051C10.0229 170.051 10.0229 169.79 10.2842 169.79C10.0229 169.79 10.0229 169.529 9.76168 169.529C9.76168 169.267 9.50044 169.267 9.76168 169.006C9.76168 168.745 9.50043 168.745 9.50043 169.006C9.50043 168.745 9.23919 169.006 9.50043 169.006Z" fill="#B55B2A"/>
<path opacity="0.3" d="M10.8066 171.88C10.5454 171.88 10.5454 172.141 10.2842 172.402C10.023 172.663 10.0229 173.186 10.0229 173.708C10.5454 173.708 10.8066 173.447 11.0679 173.186C11.3291 173.186 11.3291 173.186 11.5904 173.186H11.8516C11.8516 173.186 12.1128 173.186 12.1128 172.925C12.1128 172.925 11.8516 172.925 11.8516 172.663C11.5904 172.663 11.3291 172.141 11.0679 171.88C10.8066 172.141 10.8066 171.88 10.8066 171.88Z" fill="#B55B2A"/>
<path opacity="0.3" d="M11.0678 175.015C11.0678 175.276 10.8065 175.798 11.0678 176.06C11.0678 176.06 11.0678 176.321 11.329 176.321C11.329 176.582 11.329 176.843 11.329 177.104C11.329 177.366 11.329 177.627 11.329 177.888C11.329 178.149 11.329 178.149 11.329 178.411C11.5902 178.411 11.5903 178.411 11.8515 178.149C11.8515 177.888 11.8514 177.888 12.1127 177.627C12.1127 177.627 12.1127 177.627 12.3739 177.366C12.6352 177.366 12.6352 177.366 12.8964 177.366V177.104C12.8964 177.104 12.6352 177.104 12.6352 176.843C12.3739 176.843 12.3739 176.582 12.1127 176.582C12.1127 176.582 12.1127 176.321 12.3739 176.321C12.3739 176.321 12.6352 176.321 12.6352 176.06V175.798C12.6352 175.537 12.3739 175.537 12.1127 175.537C12.1127 175.537 11.8515 175.537 11.8515 175.276C11.329 175.537 11.329 175.276 11.0678 175.015Z" fill="#B55B2A"/>
<path opacity="0.3" d="M9.50043 174.753L9.23926 175.015V175.276C9.50049 175.276 9.50044 175.276 9.76168 175.276C10.0229 175.276 10.0229 175.276 10.2842 175.537C10.5454 175.537 10.5454 175.276 10.5454 175.276C10.5454 175.014 10.5454 175.015 10.2842 175.015H10.0229C10.0229 175.015 9.76169 174.753 10.0229 174.753C9.50046 174.753 9.50043 174.492 9.50043 174.753Z" fill="#B55B2A"/>
<path opacity="0.3" d="M10.2842 177.627C10.5454 177.366 10.5454 177.366 10.2842 177.627C10.5454 177.366 10.5455 177.366 10.5455 177.104H10.2842C10.2842 177.366 10.023 177.627 10.023 177.627L9.76172 177.888V178.149C9.76172 178.411 10.023 178.411 10.023 178.411C10.2842 178.411 10.2842 178.149 10.5455 178.149C10.5455 178.149 10.5455 177.888 10.5455 177.627C10.2842 177.888 10.2842 177.627 10.2842 177.627Z" fill="#B55B2A"/>
<path opacity="0.2" d="M12.3741 174.231C12.1129 174.492 12.1129 175.014 12.3741 175.276C12.6354 175.276 12.6354 175.014 12.8966 175.014C13.1579 175.014 13.1579 175.276 13.1579 175.276C13.4191 175.537 13.4191 175.537 13.6803 175.798C13.9415 175.798 14.2028 175.798 14.4641 175.537C14.4641 175.276 14.464 175.276 14.2028 175.276C13.9416 175.014 13.4191 174.492 13.1579 174.231C13.1579 174.231 12.8966 174.231 12.8966 173.969C12.8966 173.969 12.6354 174.231 12.3741 174.231Z" fill="#B55B2A"/>
<path opacity="0.3" d="M12.113 178.41C11.8518 178.672 11.8519 178.933 11.8519 179.455C12.1131 179.455 12.3743 178.933 12.6355 178.933C12.8968 178.672 13.4192 178.933 13.6805 178.672C12.8968 178.41 12.3743 178.149 12.113 178.41C11.8518 178.41 11.8519 178.41 11.8519 178.672C11.5906 178.672 11.8518 178.41 12.113 178.41Z" fill="#B55B2A"/>
<path opacity="0.3" d="M14.2026 177.104C13.9414 176.843 13.9414 177.104 14.2026 177.104C13.6802 176.843 13.4189 176.843 13.1577 176.843C13.1577 177.104 13.1577 177.627 13.4189 177.888C13.6801 177.888 13.9414 177.888 14.2026 177.627V177.104Z" fill="#B55B2A"/>
<path opacity="0.3" d="M14.9865 178.41C15.2477 178.149 15.509 177.888 15.7702 177.888C16.0314 177.888 16.2926 177.888 16.2926 177.627V177.366C16.0314 177.104 15.5089 176.843 14.9865 176.843C14.7252 177.104 14.7252 177.627 14.9865 178.41C14.7252 178.41 14.7252 178.149 14.9865 178.41Z" fill="#B55B2A"/>
<path opacity="0.2" d="M11.8516 171.096C12.1129 170.835 11.8516 170.573 11.5904 170.573C11.3292 170.573 11.0679 170.573 10.8066 170.573C10.8066 170.835 10.8066 171.357 10.8066 171.618C11.3291 171.357 11.5904 171.357 11.8516 171.096Z" fill="#B55B2A"/>
<path opacity="0.3" d="M7.41066 172.402C7.41066 172.663 7.14941 172.925 7.14941 173.186C7.14941 172.925 7.41066 172.925 7.41066 172.925C7.6719 172.925 7.67191 172.663 7.67191 172.663C7.67191 172.402 7.41066 172.402 7.41066 172.402Z" fill="#B55B2A"/>
<path opacity="0.3" d="M7.67189 170.835C7.93313 170.574 7.93308 170.574 8.19431 170.574C7.93308 170.312 7.67188 170.051 7.41064 170.051C7.41064 170.051 7.41066 170.312 7.67189 170.835Z" fill="#B55B2A"/>
<path opacity="0.2" d="M6.62699 167.178C6.36576 166.655 6.36573 166.655 6.10449 166.394C6.10449 166.655 6.10449 167.177 6.10449 167.439C6.36573 167.7 6.62699 167.439 6.62699 167.178Z" fill="#B55B2A"/>
<path opacity="0.2" d="M13.6802 172.925C13.9414 172.925 13.9415 172.925 14.2027 172.925C14.4639 172.925 14.7251 172.925 14.7251 172.925C14.7251 172.663 14.4639 172.402 13.9414 172.141C13.419 171.88 12.8965 171.618 12.374 171.618C12.374 171.88 12.374 172.141 12.374 172.402C12.374 172.663 12.374 172.663 12.374 172.925C12.6353 173.186 12.8965 173.186 12.8965 172.925C13.419 172.925 13.419 172.663 13.6802 172.925Z" fill="#B55B2A"/>
<path opacity="0.2" d="M21.2559 164.043C20.7334 163.782 20.211 163.259 19.9497 162.737C19.166 161.692 18.1211 160.908 17.3374 159.863C17.5986 160.908 18.3824 161.692 18.9048 162.737C19.166 163.259 19.4273 163.52 19.6886 164.043C20.9947 165.871 22.8233 167.178 25.1744 167.7C24.3907 166.916 23.607 166.394 23.0846 165.61C23.607 165.61 24.1295 165.61 24.3907 165.871C23.8683 165.349 23.3458 164.827 22.5621 164.565C22.0396 164.304 21.7784 164.304 21.2559 164.043Z" fill="#1D1D1B"/>
<path d="M22.562 158.818C20.7333 160.647 18.121 159.602 18.6435 156.467L21.2558 157.251L22.562 158.818Z" fill="#1D1D1B"/>
<path d="M18.6436 156.989C18.6436 156.989 18.6436 156.989 18.6436 157.251V157.512V157.773C18.6436 158.034 18.6436 158.034 18.9048 158.296C18.9048 158.557 19.1661 158.557 19.1661 158.818C19.1661 159.079 19.4273 159.079 19.4273 159.079L19.6886 159.341H19.9497C20.211 159.341 20.211 159.341 20.4722 159.602C20.7335 159.602 20.7335 159.602 20.9947 159.602C21.2559 159.602 21.2559 159.602 21.5171 159.602C21.7784 159.602 21.7784 159.602 22.0396 159.341C22.3009 159.341 22.3009 159.079 22.3009 159.079C22.3009 159.079 22.562 159.079 22.562 158.818C22.8233 158.818 22.8233 158.557 22.8233 158.557C22.8233 158.557 22.8233 158.557 22.562 158.818C22.562 158.818 22.5621 159.079 22.3009 159.079L22.0396 159.341C22.0396 159.341 21.7784 159.602 21.5171 159.602C21.2559 159.602 21.2559 159.602 20.9947 159.863C20.7335 159.863 20.7335 159.863 20.4722 159.863C20.211 159.863 19.9497 159.863 19.9497 159.602L19.6886 159.341L19.4273 159.079C19.1661 158.818 19.166 158.818 18.9048 158.557C18.9048 158.296 18.6436 158.296 18.6436 158.034C18.6436 157.773 18.6436 157.773 18.6436 157.512C18.6436 157.251 18.6436 157.251 18.6436 156.989V156.728C18.6436 156.99 18.6436 156.989 18.6436 156.989Z" fill="#575756"/>
<path d="M18.3823 156.206C18.9048 156.206 18.9048 156.206 19.166 156.206C19.4272 156.206 19.4273 156.206 19.6885 156.206C19.9497 156.206 19.9497 156.206 20.2109 156.467C20.4721 156.467 20.4722 156.467 20.7334 156.728C20.9946 156.728 20.9946 156.989 21.2558 156.989C21.5171 156.989 21.5171 157.251 21.7783 157.251C22.0396 157.251 22.0396 157.512 22.3008 157.512C22.5621 157.773 22.8232 158.034 22.8232 158.296C23.0845 158.557 23.0845 158.818 23.0845 158.818C23.0845 159.079 23.0845 159.079 23.0845 159.079C23.0845 159.079 23.0845 159.079 22.8232 158.818C22.562 158.818 22.5621 158.557 22.3008 158.296L22.0396 158.034L21.7783 157.773C21.5171 157.512 21.2559 157.512 20.9947 157.251C20.7334 156.989 20.4721 156.99 20.2109 156.728C19.9497 156.728 19.9497 156.467 19.6885 156.467C19.4273 156.467 19.4272 156.467 19.4272 156.206C18.9048 156.467 18.6436 156.467 18.3823 156.206Z" fill="#575756"/>
<path d="M19.6385 158.761C19.7778 158.723 19.7991 158.354 19.6861 157.936C19.573 157.518 19.3685 157.21 19.2292 157.248C19.09 157.286 19.0687 157.655 19.1817 158.073C19.2947 158.491 19.4992 158.799 19.6385 158.761Z" fill="#F6F6F6"/>
<path opacity="0.2" d="M38.236 172.663C38.236 171.88 38.7585 171.096 39.281 171.357C38.236 169.006 38.236 166.394 39.0197 164.043C39.8034 162.475 40.8484 160.647 40.5871 158.818C40.3259 156.467 37.7135 155.161 37.4523 152.81C37.7135 156.206 37.191 159.602 35.8849 162.998C34.3175 160.124 31.4439 157.773 28.0479 156.989C28.8316 159.341 31.1827 160.908 32.4889 162.737C34.0563 165.088 34.8399 167.961 34.3175 170.835C32.4888 167.961 29.6153 165.61 26.2193 164.565C27.003 165.871 28.0479 167.178 29.354 167.961C29.8765 168.223 30.399 168.745 30.9215 169.006C32.2276 170.312 32.2276 172.663 33.2725 174.231C30.399 172.141 26.7417 170.835 23.0845 170.574C25.1743 171.357 27.5255 172.402 28.8316 174.492C29.3541 175.015 29.6153 175.798 30.1378 176.321C30.6603 176.582 31.1827 176.321 31.7051 176.582C32.2276 177.627 32.4889 179.194 32.2276 180.239C32.7501 179.717 33.7951 180.239 34.0563 180.762C34.3175 181.284 34.5787 182.068 34.5787 182.852C34.5787 185.986 34.3175 188.86 34.0563 191.995C35.3625 190.689 35.3625 188.599 35.3625 186.77C35.3625 184.941 35.3624 183.113 36.1461 181.545C36.4074 181.284 36.6686 180.762 36.6686 180.5C37.4523 181.284 38.4973 182.068 39.281 182.852C38.7585 179.456 37.9747 176.059 38.236 172.663Z" fill="#1D1D1B"/>
<path d="M60.18 193.562L48.1632 202.183C46.0734 204.011 42.9386 203.228 41.6324 200.877C41.6324 200.877 41.6324 200.615 41.3712 200.615L41.8937 189.121C41.6324 185.203 40.3263 183.374 39.2813 181.807C38.2364 179.978 37.1914 178.41 36.9302 175.276L39.2813 157.251C38.4976 152.548 41.8936 148.63 44.7672 153.332L62.0086 184.419C63.8372 187.292 63.0535 191.211 60.18 193.562Z" fill="#633117"/>
<path d="M47.3794 195.652C45.2896 197.481 43.461 199.309 41.3711 200.877C41.3711 200.877 41.3711 200.615 41.1099 200.615L41.6323 189.121C41.3711 185.203 40.065 183.374 39.02 181.806C39.2813 181.545 39.2812 181.023 39.5424 180.762C40.8486 177.888 41.3711 174.492 41.3711 171.357C42.1548 171.357 42.6773 172.141 42.9385 172.925C43.1997 173.708 43.1997 174.492 42.9385 175.276C42.6773 177.104 42.9385 179.194 43.4609 181.023C44.2446 182.851 45.812 184.419 47.6407 184.68C46.5957 187.292 45.812 190.427 47.3794 192.778C47.6407 193.04 47.9019 193.562 47.9019 193.823C48.4244 194.346 47.9019 195.129 47.3794 195.652Z" fill="#1D1D1B"/>
<path opacity="0.2" d="M45.5508 154.638C47.6407 161.169 53.649 168.745 58.0899 173.97C61.486 177.888 65.4045 181.807 65.6657 186.77C65.9269 189.905 64.3596 193.04 62.2697 195.391C60.1798 197.742 57.5675 198.526 54.9552 200.354C53.649 201.399 51.8204 202.444 50.253 202.705C47.9019 203.228 45.812 203.75 44.2446 201.922C47.1182 201.138 49.7305 199.048 51.8204 196.958C53.1265 195.913 54.1715 194.868 54.9552 193.562C55.7389 192.256 56.0001 190.427 55.2164 189.121C56.0001 190.166 58.0899 189.121 58.0899 187.554C58.0899 186.248 57.045 184.942 56.0001 184.158C54.9552 183.374 53.649 182.329 53.3878 181.023C54.1715 181.023 54.9552 181.284 55.7389 181.284C56.5226 177.104 53.3878 173.447 51.5591 169.529C48.9468 165.61 45.812 159.341 45.5508 154.638Z" fill="#1D1D1B"/>
<path d="M229.981 94.2936C229.459 87.2403 232.332 80.4483 237.035 75.4848C241.737 70.5214 247.745 68.6928 252.97 73.1337C256.888 76.2685 260.546 82.0157 261.591 87.2403C264.987 103.176 265.509 138.442 265.509 155.422C240.692 171.619 221.361 179.456 191.58 183.113L185.049 161.43L237.035 140.532C234.684 133.217 230.504 100.302 229.981 94.2936Z" fill="#EDEDED"/>
<path d="M103.022 186.248L96.7526 185.203C95.9689 184.942 95.1852 184.941 94.1403 184.941L86.8257 185.203C85.2583 185.203 83.9521 184.419 83.9521 183.113C83.9521 181.807 84.9971 181.023 86.5645 180.762L98.32 179.194L110.337 180.239C110.337 180.239 112.949 183.113 112.688 183.374L108.508 185.203C106.941 186.248 104.851 186.509 103.022 186.248Z" fill="#FFCFA1"/>
</svg>
