<svg width="192" height="216" viewBox="0 0 192 216" fill="none" xmlns="http://www.w3.org/2000/svg">
<path d="M19.0509 62.1001C18.2672 64.19 16.1773 65.7574 15.1324 68.1085C13.565 71.5045 15.1323 75.6842 17.2222 78.5578C19.5733 81.4314 22.4468 83.7824 25.0592 86.656C30.2838 73.3331 34.4636 59.749 38.1208 46.1649C38.6433 43.8138 39.1658 41.4627 38.9045 39.3728C38.3821 35.1931 34.2024 31.7971 30.0226 32.0583C28.9777 32.0583 28.194 32.3195 27.4103 33.1032C26.8878 33.6257 26.8878 34.6706 26.6266 35.4543C25.5817 41.4627 20.0958 45.9037 19.3121 51.912C19.0508 55.0468 20.6182 58.9653 19.0509 62.1001Z" fill="#362A2B"/>
<path d="M87.2331 108.338L98.9886 129.759L135.039 149.091L81.2247 142.299L67.1182 118.788C69.208 118.526 84.0983 113.302 87.2331 108.338Z" fill="#FFCFA1"/>
<path d="M58.2359 74.6395C52.4887 77.2518 49.8764 83.7826 52.2275 89.2685L69.7301 125.319C77.5671 124.535 85.1429 119.572 90.89 114.869L78.8733 88.4848C74.6935 77.513 63.7218 72.2884 58.2359 74.6395Z" fill="#EDEDED"/>
<path d="M91.4128 215.705H2.59356C7.29575 173.647 13.0429 167.377 16.1777 161.369C16.4389 161.108 16.4389 160.585 16.7001 160.324C16.9614 160.063 16.9614 159.54 17.2226 159.279C10.953 140.209 3.37726 116.176 0.764934 97.8892C0.242468 94.7544 1.02617 92.6646 2.0711 90.8359C4.16096 87.7011 7.29575 85.8725 5.20589 79.3417C11.2142 74.6395 27.4107 68.8923 28.9781 68.3699C28.9781 68.3699 39.1662 68.8923 53.0115 70.9822C60.3261 73.5945 67.9018 75.1619 71.2979 77.513C71.8203 82.4765 72.0815 88.4848 72.0815 95.0156C72.0815 100.763 73.3877 106.51 76 111.735C77.5674 114.869 78.6124 118.265 78.6124 121.923C78.6124 122.184 78.6124 122.706 78.6124 122.968C77.8287 131.066 74.4326 135.507 68.9467 137.335C68.163 142.299 67.6406 147.262 66.8569 151.964C66.3344 155.36 65.8119 158.757 65.0282 161.891C65.5507 162.414 88.278 204.734 91.4128 215.705Z" fill="#488399"/>
<path opacity="0.2" d="M78.6123 122.445C77.8286 130.543 74.4326 134.984 68.9467 136.813C68.163 141.776 67.6406 146.74 66.8569 151.442C54.0564 154.054 40.4723 157.45 30.2842 161.108C20.6186 175.214 22.7085 197.68 29.5006 215.705H2.59356C7.29575 173.647 13.0429 167.377 16.1777 161.369C16.4389 161.108 16.4389 160.585 16.7001 160.324C16.9614 160.063 16.9613 159.54 17.2226 159.279C10.953 140.209 3.37726 116.176 0.764934 97.8892C0.242468 94.7544 1.02617 92.6646 2.0711 90.8359L26.627 100.24L40.7336 130.543C46.4807 133.939 54.8402 132.111 56.6688 124.274C61.371 132.894 72.604 133.156 78.6123 122.445Z" fill="#1D1D1B"/>
<path d="M71.0364 45.3813C72.6038 36.4994 80.4408 29.4461 82.7919 20.8254C83.8368 25.7889 82.7919 30.7523 81.2245 35.7157C79.6571 40.4179 77.5672 45.1201 76.5223 50.0835C75.4774 55.047 75.7386 60.2716 78.3509 64.7126C72.6038 59.7492 69.7302 52.1734 71.0364 45.3813Z" fill="#362A2B"/>
<path d="M56.1461 0.710449C63.7219 0.971682 71.2976 3.06154 77.306 7.76373C83.3143 12.4659 87.2329 19.7805 86.9716 27.3562C86.9716 32.5809 84.8818 37.2831 83.5756 42.2465C82.2694 47.2099 81.747 52.6958 84.098 57.1368C79.1346 55.5694 74.6936 51.9121 72.0813 47.2099C66.3342 37.0218 69.2078 23.4377 62.4157 14.0333C58.4972 8.54744 52.2276 5.67387 45.958 3.58401C48.5703 1.23291 52.4889 0.710449 56.1461 0.710449Z" fill="#362A2B"/>
<path d="M57.4524 72.8109L57.1912 61.3166C49.093 43.814 45.4357 42.5078 34.2027 40.6792L29.2393 68.6311L48.8317 101.285L57.4524 72.8109Z" fill="#F2C194"/>
<path d="M31.5901 32.3196C30.5452 26.05 25.3205 29.446 26.6267 23.4377C33.9412 -4.25304 53.2724 1.49408 63.7218 3.84518C90.3675 11.4209 80.9632 36.2381 77.8284 41.9852C77.3059 43.5526 77.8284 47.9936 78.8733 50.8671C79.657 53.2182 79.1345 54.0019 77.3059 55.0468C75.9997 55.5693 74.4323 55.3081 73.9099 56.353C72.3425 59.749 71.0363 62.6226 69.2077 64.7125C65.8116 68.631 62.1544 69.4147 56.9297 67.8473C56.9297 67.8473 44.913 64.9737 44.6517 46.1649C40.2108 44.5975 32.3738 36.7605 31.5901 32.3196Z" fill="#FFCFA1"/>
<path d="M64.2446 5.93514C64.5058 5.15144 64.5058 4.36774 63.9834 3.58404C63.7221 3.06157 62.9384 2.80033 62.416 2.80033C55.1014 1.23293 47.5257 -0.33446 40.4724 2.5391C35.509 4.62897 31.8517 8.80869 28.9781 13.2497C22.1861 24.4827 20.6187 50.0835 25.8433 62.1002C33.1579 51.6509 40.7336 43.2915 45.9583 37.2831C51.1829 31.2747 55.3627 23.9602 59.2812 16.9069C61.371 13.5109 63.4609 9.85364 64.2446 5.93514Z" fill="#362A2B"/>
<path d="M38.9049 35.1933C37.8599 39.6342 40.4723 45.3813 43.3458 46.165C46.2194 46.9487 46.7419 43.2915 47.7868 38.8505C48.5705 35.977 50.1379 32.0585 47.2643 30.2298C44.652 28.9237 40.211 28.6624 38.9049 35.1933Z" fill="#FFCFA1"/>
<path d="M88.278 22.9152C90.3679 32.0584 84.6207 41.724 86.4494 50.8671C82.7921 47.4711 82.2696 41.9852 82.5309 37.0218C82.7921 32.0584 83.8371 27.0949 83.0534 22.1315C81.7472 15.0782 76.5225 9.3311 70.7754 4.89014C74.4327 6.98 78.0899 9.33109 81.486 12.2046C84.6208 15.0782 87.2331 18.7355 88.278 22.9152Z" fill="#362A2B"/>
<path d="M80.9632 13.772C82.5306 16.1231 82.5305 18.4742 82.0081 21.3477C80.4407 29.1847 74.6936 35.9768 67.3791 38.5891C62.4156 40.1565 56.6685 40.4178 53.5337 44.3363C56.4073 38.8504 60.3258 34.1482 63.983 29.1847C65.5504 26.8336 67.379 23.9601 67.6403 21.0865C67.9015 18.7354 67.1178 16.3843 66.0729 14.2945C63.7218 10.1147 59.542 2.80021 54.5786 2.80021C61.8931 0.44911 69.9914 4.62885 76.261 8.54735C77.8284 9.85351 79.9182 11.6821 80.9632 13.772Z" fill="#362A2B"/>
<path d="M44.6519 19.2579C44.6519 16.3843 45.9581 13.772 47.7867 11.6821C50.6602 8.28609 54.3175 5.67376 58.7585 4.89006C63.1994 4.10636 67.9016 5.67376 70.514 9.06979C73.91 13.5107 73.1263 20.0416 70.2527 24.4825C67.3791 29.1847 62.6769 32.5808 58.4972 35.7155C54.0563 39.1116 49.6153 42.5076 47.003 47.471C47.5254 42.2464 51.4439 37.5442 50.6602 32.3195C49.6153 27.6173 44.9131 24.2213 44.6519 19.2579Z" fill="#362A2B"/>
<path d="M148.1 106.248L156.982 107.816L159.333 95.2767C157.243 91.8807 155.676 86.9172 152.541 85.8723C152.019 86.1335 148.361 90.5745 148.623 103.636C148.623 104.159 148.623 104.942 148.623 105.465V105.726C148.361 105.987 148.1 105.987 148.1 106.248Z" fill="#AB673A"/>
<path d="M153.325 88.2234C152.28 93.448 150.974 98.9339 152.541 104.159C153.586 102.069 154.37 99.9789 154.892 97.889C154.892 98.9339 155.153 99.7176 155.415 100.763C155.676 99.7176 156.198 98.4115 156.46 97.3665C156.721 98.1502 156.982 98.6727 157.243 99.4564C157.505 98.6727 157.766 97.6278 158.027 96.8441C158.027 96.5829 158.027 96.3216 158.027 96.0604C158.027 95.7991 157.766 95.5379 157.766 95.2767C156.721 93.448 155.937 91.6194 154.892 89.7908C154.37 89.0071 154.108 88.2234 153.586 87.7009L153.325 88.2234Z" fill="#382515"/>
<path d="M136.867 172.602C137.651 174.169 138.957 177.043 140.263 179.394C141.047 180.961 141.831 182.267 142.353 183.312C142.876 185.402 144.182 188.014 147.055 188.014L153.064 188.276C158.027 188.276 157.243 185.663 155.676 183.835C154.109 182.006 150.451 181.745 149.406 180.177L147.578 177.304L146.794 175.998C145.749 173.908 145.227 171.034 145.749 168.422L147.317 163.459C148.884 158.234 138.696 154.054 137.128 161.63L136.867 172.602Z" fill="#382515"/>
<path d="M77.8286 180.961C77.8286 181.222 77.8286 181.222 77.8286 181.222C77.8286 181.484 77.8286 181.745 78.0898 182.006C78.6123 184.096 79.6572 188.276 83.0533 188.276L88.0167 188.537C92.4576 188.537 91.6739 185.663 90.3678 183.835C89.3228 182.267 86.9718 182.006 85.6656 180.961C85.1431 180.7 84.8819 180.439 84.6206 179.916L77.8286 180.961Z" fill="#382515"/>
<path d="M76.7837 164.765V165.287L77.3061 175.475C77.3061 175.475 93.7639 171.034 103.952 162.414C108.393 158.756 111.789 154.054 112.05 148.83L105.781 128.453H100.295L94.0251 128.192C91.9352 128.192 90.1066 128.453 88.278 128.715C84.6207 132.111 83.0533 141.515 82.5308 150.136L82.2696 153.793L82.0084 159.018L81.7471 161.63L76.7837 164.765Z" fill="#382515"/>
<path d="M76.7837 166.071C77.0449 170.773 77.0449 175.475 77.5674 179.394C77.5674 179.916 77.8286 180.439 77.8286 180.961V181.222C77.8286 181.484 77.8286 181.745 78.0899 182.006L85.4044 185.663V180.7V177.826V164.242L76.7837 166.071Z" fill="#382515"/>
<path d="M189.636 108.861C188.853 108.077 187.285 107.555 185.456 107.293C182.06 106.771 177.619 106.248 175.268 103.114L173.701 101.808C175.007 101.285 176.575 100.501 177.881 99.4564C176.052 99.9789 174.223 100.501 172.656 100.501C172.656 100.501 172.656 100.501 172.395 100.501C172.917 99.9789 173.701 99.7176 174.223 99.1952C172.917 98.6727 171.35 98.4115 170.044 98.1503C171.35 97.3666 172.395 96.3216 173.44 95.2767C172.134 95.5379 170.827 95.7992 169.783 96.0604C171.089 95.2767 172.134 94.2317 173.179 93.1868C170.305 94.7542 167.17 95.7991 164.035 96.3216C166.125 94.2317 167.954 92.1419 169.783 89.5296C165.603 92.6644 160.901 95.2767 155.676 96.0604C154.631 95.7992 153.586 95.5379 152.28 95.2767C149.406 92.1419 147.055 87.4397 143.398 86.9172C142.876 87.1785 140.263 92.4031 142.614 104.942C142.614 105.465 142.876 106.248 143.137 106.771V107.032C141.047 111.734 138.957 116.959 134.777 119.571C136.083 119.31 137.39 118.788 138.435 118.265C136.345 120.616 133.994 122.706 131.642 124.012C133.471 123.751 135.3 123.229 137.128 122.445C136.867 122.967 136.606 123.229 136.345 123.751C135.561 124.796 134.777 125.58 133.732 126.102C133.471 126.363 133.21 126.625 132.949 126.625L112.05 127.408L106.042 128.192H100.817L94.5474 127.931C94.2862 127.931 94.2862 127.931 94.0249 127.931C91.1514 127.67 88.5391 127.67 85.6655 127.931C79.6571 128.715 74.4325 131.327 68.6854 133.417C62.677 135.768 57.1911 135.768 50.9215 135.245C47.7867 134.984 45.9581 132.633 39.9497 138.641C39.4273 139.164 39.166 139.425 38.6436 139.948C40.9947 139.425 43.0845 138.903 44.9131 137.596C44.3907 139.686 43.607 141.515 42.3008 143.082C44.9131 141.776 47.003 139.948 48.8316 137.596C48.5704 140.47 44.3907 144.127 43.0845 145.956C45.6968 144.388 49.3541 142.56 51.7052 140.209C50.399 142.56 48.8316 144.65 47.2642 146.74C50.399 144.65 53.5338 142.299 56.4074 139.686C55.3624 142.037 53.795 144.389 51.9664 146.478C55.1012 145.172 57.9748 143.082 60.3259 140.47C59.5422 142.299 58.4972 144.127 57.1911 145.956C58.7585 144.911 60.3259 143.866 61.632 142.56C61.3708 143.344 61.1096 143.866 60.8484 144.65C62.4158 143.605 63.9832 142.299 65.2893 140.992C64.5056 143.082 63.7219 145.172 62.1545 146.74C65.2893 145.172 67.6404 142.56 69.469 139.686C69.2078 141.254 68.6853 142.821 67.9016 144.127C69.9915 142.821 71.5589 140.731 72.8651 138.903C72.3426 140.209 71.5589 141.254 70.7752 142.037C73.1263 141.254 75.2161 138.903 77.306 136.552C76.5223 138.903 75.4774 141.254 73.91 143.605C75.2162 142.56 76.5223 141.254 77.8285 139.948C77.5673 140.731 77.306 141.254 77.0448 142.037C75.7386 145.172 74.4325 148.307 71.8201 150.397C73.1263 149.874 74.1712 148.829 75.4774 147.785C73.91 150.136 72.3426 152.226 70.514 154.315C71.8201 153.532 73.1263 152.748 74.4325 151.703C73.3875 153.793 72.0814 155.622 70.514 157.45C71.8201 156.928 73.1263 156.144 74.1712 155.36C73.3875 156.928 72.3426 158.495 71.5589 159.801C71.8201 159.801 72.0814 159.54 72.3426 159.54C71.5589 160.585 70.7752 161.369 69.9915 161.891C68.6854 162.936 67.6404 163.458 67.1179 163.72L66.8567 165.026L66.5955 168.161C66.3342 168.683 66.3343 169.206 66.073 169.728C65.0281 171.295 63.9831 173.124 63.1994 174.692C63.9831 173.908 64.7668 173.124 65.5505 172.34C65.0281 174.43 64.5056 176.52 63.4607 178.349C64.2444 177.826 65.0281 177.043 65.8118 176.52L65.2893 180.7C65.2893 180.7 66.073 188.276 70.2527 188.276L74.9549 188.537C76.2611 188.537 77.0448 188.276 77.5673 188.014C78.8734 186.969 78.3509 185.141 77.306 183.835C76.2611 182.528 74.4325 182.006 73.1263 181.222L73.91 176.259L74.4325 173.385L74.6937 172.079L82.2695 169.989C81.747 170.773 80.9633 171.296 80.1796 171.818C82.7919 171.557 85.143 170.512 87.4941 169.206C86.4492 170.251 85.4043 171.296 84.3593 171.818C87.4941 171.296 90.6289 169.206 93.5025 167.116C92.1963 169.206 90.3677 171.295 88.539 172.34C92.4575 171.818 96.376 168.422 99.2496 165.026C98.4659 167.377 97.421 169.467 96.376 171.818C99.5108 168.944 102.384 165.81 104.997 162.414C105.258 162.414 105.258 162.414 105.519 162.414C104.735 165.287 103.952 167.899 102.907 170.773C104.997 168.683 107.087 166.855 108.915 164.765C108.915 166.332 108.654 167.899 108.132 169.467C109.96 167.899 111.528 166.332 112.834 164.503C112.834 165.548 112.572 166.332 112.572 167.377C113.879 166.071 114.924 164.765 116.23 163.459C116.23 163.459 116.23 163.459 116.491 163.459C116.23 166.593 115.707 169.728 114.14 172.602C117.275 170.251 119.365 167.116 121.454 163.72C121.716 163.72 121.977 163.72 122.238 163.72C121.977 165.548 121.716 167.116 121.454 168.944C123.022 167.377 124.589 165.81 125.895 163.981C126.157 163.981 126.157 163.981 126.418 163.981C126.679 165.548 126.679 166.855 126.679 168.683C127.724 167.899 128.508 167.116 129.291 166.071C129.291 168.161 129.03 169.989 128.508 172.079C130.075 170.773 131.643 169.206 132.687 167.638L132.165 169.206C132.426 172.079 133.471 177.826 133.732 180.7C133.994 181.484 133.994 182.006 133.994 182.006C134.255 184.096 135.3 187.753 138.957 187.753L144.965 188.014C149.929 188.014 149.145 185.402 147.578 183.573C146.01 181.745 142.353 181.484 141.308 179.916L140.786 178.349L140.263 175.736C140.002 173.385 140.263 170.512 141.569 168.422L144.182 165.026C144.965 165.026 145.749 165.287 146.533 165.287C146.01 166.855 145.488 168.683 144.965 170.251C146.01 169.467 148.623 167.116 150.974 164.242C151.496 163.981 152.019 163.72 152.541 163.459C152.28 165.548 151.757 167.377 151.235 169.467C153.325 166.855 155.415 164.242 157.505 161.63C157.243 163.197 156.982 164.765 156.46 166.593C157.243 165.287 158.027 163.72 158.549 162.414C158.288 164.765 158.027 167.116 157.766 169.467C159.594 164.765 161.684 160.324 163.252 155.622C164.558 152.487 165.864 149.091 166.386 145.695C166.648 143.605 166.909 141.776 166.909 139.686C167.17 140.209 167.693 140.731 167.954 141.254C167.431 140.209 167.431 138.903 167.431 137.596C167.954 139.164 168.738 140.731 169.783 142.037C168.999 139.686 169.783 136.813 170.044 134.2C170.305 134.723 170.566 135.245 170.827 135.507C171.089 133.417 171.611 131.066 172.134 129.237C172.656 130.021 173.179 130.804 173.701 131.327C173.962 130.021 174.223 128.976 174.746 127.67C175.268 128.714 176.052 129.759 176.836 130.543C177.097 129.237 177.358 128.192 177.881 127.147C178.403 128.715 179.187 130.282 179.971 131.849C180.232 130.021 180.493 128.453 181.016 126.886C181.277 127.67 181.538 128.453 181.799 129.237C182.322 127.931 182.844 126.363 183.367 125.057C183.889 126.363 184.15 127.67 184.673 128.976C185.195 126.363 186.24 124.012 187.285 121.661C188.853 120.094 189.897 118.004 190.42 116.175C190.942 114.869 191.204 113.302 191.204 112.257C190.681 110.689 190.42 109.383 189.636 108.861Z" fill="#AB673A"/>
<path d="M167.17 107.293C169.26 109.383 171.873 108.077 171.35 104.681L168.477 105.726L167.17 107.293Z" fill="#1D1D1B"/>
<path d="M171.089 106.771C169.783 108.077 168.738 108.6 166.909 107.293C168.477 108.861 169.522 108.6 171.089 107.555V106.771Z" fill="#382515"/>
<path d="M170.828 104.42C168.999 104.681 167.432 105.726 166.648 107.555C167.954 106.51 169.26 105.465 170.828 104.942V104.42Z" fill="#382515"/>
<path d="M170.742 105.46C170.602 105.422 170.398 105.73 170.285 106.148C170.172 106.566 170.193 106.935 170.332 106.973C170.472 107.01 170.676 106.702 170.789 106.284C170.902 105.866 170.881 105.497 170.742 105.46Z" fill="#F6F6F6"/>
<path d="M190.681 111.996C189.636 112.257 188.591 112.257 187.808 111.996C187.285 111.996 186.763 111.996 186.24 111.473C185.718 111.212 185.718 110.428 185.718 109.906C185.718 108.861 185.457 108.077 185.457 107.032C187.285 107.293 188.853 107.816 189.636 108.6C190.42 109.383 190.681 110.689 190.681 111.996Z" fill="#1D1D1B"/>
<path opacity="0.3" d="M177.881 123.229C182.322 121.922 186.24 118.788 190.159 115.914C189.636 118.004 188.33 119.833 187.024 121.4C185.979 123.751 184.934 126.102 184.412 128.715C183.889 127.408 183.367 126.102 183.106 124.796C182.583 126.102 182.061 127.408 181.538 128.976C181.277 128.192 181.016 127.408 180.754 126.625C180.232 128.192 179.971 130.021 179.71 131.588C178.926 130.021 178.142 128.453 177.62 126.886C177.097 127.931 176.836 128.976 176.575 130.282C175.791 129.498 175.269 128.453 174.485 127.408C174.224 128.715 173.701 129.759 173.44 131.066C172.917 130.282 172.395 129.759 171.873 128.976C171.35 131.066 170.828 133.155 170.566 135.245C170.305 134.723 170.044 134.2 169.783 133.939C169.521 136.29 168.738 139.425 169.521 141.776C168.477 140.47 167.693 138.903 167.17 137.335C167.17 138.641 167.17 139.948 167.693 140.992C167.17 140.47 166.909 139.948 166.648 139.425C166.387 141.515 166.387 143.344 166.125 145.433C165.603 148.829 164.297 152.225 162.991 155.36C161.423 160.062 159.595 164.503 157.505 169.206C157.766 166.855 158.027 164.503 158.288 162.152C157.505 163.459 156.982 165.026 156.199 166.332C156.46 164.765 156.982 163.197 157.244 161.369C155.154 163.981 153.325 166.593 150.974 169.206C151.496 167.116 151.758 165.287 152.28 163.197C151.758 163.458 151.235 163.72 150.713 163.981C148.623 166.593 146.01 168.944 144.704 169.989C145.488 168.422 145.749 166.593 146.272 165.026C145.488 165.026 144.704 165.026 143.921 164.765L141.308 168.161C140.002 170.251 139.741 173.124 140.002 175.475L140.525 178.088L141.047 179.655C142.092 181.222 145.749 181.484 147.317 183.312C148.884 185.141 149.668 187.753 144.704 187.753L138.696 187.492C135.3 187.492 134.255 183.573 133.733 181.745C133.733 181.745 133.733 181.222 133.471 180.439C132.949 177.826 132.165 171.818 131.904 168.944L132.426 167.377C131.12 168.944 129.814 170.512 128.247 171.818C128.769 169.728 129.03 167.899 129.03 165.81C128.247 166.593 127.463 167.638 126.418 168.422C126.679 166.855 126.418 165.287 126.157 163.72C126.157 163.72 125.896 163.72 125.634 163.72C124.328 165.548 122.761 167.116 121.193 168.683C121.716 166.855 121.977 165.287 121.977 163.459C121.716 163.459 121.455 163.459 121.193 163.459C119.365 166.855 117.014 169.989 113.879 172.34C115.446 169.467 115.969 166.332 116.23 163.197C116.23 163.197 116.23 163.197 115.969 163.197C114.663 164.503 113.618 165.81 112.311 167.116C112.311 166.071 112.573 165.287 112.573 164.242C111.266 166.071 109.699 167.899 107.87 169.206C108.393 167.638 108.654 166.071 108.654 164.503C106.826 166.593 104.736 168.683 102.646 170.512C103.691 167.638 104.474 165.026 105.258 162.152C104.997 162.152 104.997 162.152 104.736 162.152C102.123 165.548 99.2498 168.422 96.115 171.557C97.1599 169.206 98.2048 167.116 98.9885 164.765C96.115 167.899 92.1965 171.295 88.278 172.079C90.3679 171.034 91.9353 169.206 93.2414 166.854C90.3679 168.944 87.2331 171.295 84.0983 171.557C85.1432 171.034 86.1881 169.989 87.2331 168.944C85.1432 170.512 82.7921 171.295 79.9185 171.557C80.7022 171.034 81.4859 170.251 82.0084 169.728L74.4327 171.818L74.1714 173.124L73.6489 175.998L72.8652 180.961C74.1714 181.745 76.2613 182.267 77.045 183.573C78.0899 184.88 78.6124 186.708 77.3062 187.753C75.7388 184.88 73.3877 182.79 70.5142 182.267C71.5591 177.565 72.0816 172.863 71.8203 168.161C85.4044 164.503 98.2049 157.711 108.915 148.307C108.915 150.658 108.915 153.009 108.654 155.36C113.618 155.099 118.32 154.054 123.022 151.964C123.283 155.099 123.806 157.973 124.067 161.107C126.418 160.062 128.769 158.756 130.598 156.928C130.337 158.756 130.337 160.846 130.075 162.675C137.129 162.675 144.182 160.846 150.19 157.189C150.713 157.973 150.713 159.018 150.713 160.062C156.721 150.658 163.252 140.209 161.684 129.237C162.991 129.498 164.297 130.282 165.081 131.066C165.342 127.147 164.558 123.49 162.991 120.094C166.648 124.274 172.656 124.796 177.881 123.229Z" fill="#1D1D1B"/>
<path opacity="0.3" d="M148.884 125.319C147.317 123.751 146.01 121.661 144.965 119.31C144.443 122.184 144.443 125.057 144.965 127.931C144.182 126.364 143.398 124.796 142.614 123.229C142.614 122.967 142.353 122.967 142.353 122.967C142.092 122.967 142.092 123.229 141.831 123.229C140.002 126.886 137.128 129.76 133.732 132.111C133.994 130.282 134.255 128.453 134.516 126.625C134.255 126.625 133.994 126.625 133.732 126.625C134.777 125.841 135.561 125.057 136.345 124.274C136.606 123.751 136.867 123.49 137.128 122.967C135.3 123.751 133.471 124.274 131.643 124.535C134.255 122.967 136.606 121.139 138.435 118.788C137.128 119.31 136.084 119.833 134.777 120.094C139.218 117.22 141.047 112.257 143.137 107.555V107.294C142.876 106.771 142.876 105.987 142.614 105.465C143.921 108.338 145.488 110.951 147.317 113.302C149.668 116.175 152.541 118.788 154.109 121.923C151.758 121.139 149.668 119.833 147.839 118.265C148.1 120.616 148.1 122.967 148.884 125.319Z" fill="#1D1D1B"/>
<path d="M144.965 89.2683C144.704 94.7542 144.704 100.24 147.055 105.204C147.578 103.114 148.1 101.024 148.1 98.6727C148.361 99.7176 148.623 100.501 149.145 101.285C149.406 99.9789 149.406 98.9339 149.668 97.6278C150.19 98.1502 150.451 98.934 150.974 99.4564C150.974 98.6727 150.974 97.6278 151.235 96.8441C151.235 96.5829 151.235 96.3216 151.235 96.0604C151.235 95.7991 150.974 95.5379 150.712 95.2767C149.406 93.7093 148.1 92.1419 147.055 90.5745C146.533 89.7908 146.01 89.2683 145.227 88.7458L144.965 89.2683Z" fill="#382515"/>
<path opacity="0.3" d="M82.5307 133.417C82.2695 138.119 81.2245 142.821 80.1796 147.523C79.3959 150.658 78.351 154.054 76.5224 156.666C75.4774 158.234 74.1713 159.801 72.6039 160.846C71.8202 161.369 71.0364 161.891 70.2527 162.152C71.0364 161.63 71.8202 160.846 72.6039 159.801C72.3426 159.801 72.0814 160.063 71.8202 160.063C72.6039 158.495 73.6488 156.928 74.4325 155.622C73.1263 156.405 72.0814 156.928 70.7752 157.711C72.3426 155.883 73.6488 154.054 74.6937 151.964C73.3875 153.009 72.0814 153.793 70.7752 154.577C72.6038 152.487 74.4325 150.397 75.7387 148.046C74.6937 149.091 73.3875 149.874 72.0814 150.658C74.6937 148.568 75.9999 145.172 77.306 142.299C77.5673 141.776 77.8285 140.992 78.0897 140.209C76.7836 141.515 75.7386 142.821 74.1712 143.866C75.4774 141.776 76.5223 139.164 77.5673 136.813C75.7386 139.164 73.6488 141.515 71.0365 142.299C71.8202 141.515 72.6039 140.209 73.1263 139.164C71.8202 141.254 70.2527 143.082 68.1629 144.389C68.9466 143.082 69.4691 141.515 69.7303 139.948C67.9017 142.821 65.5506 145.433 62.4158 147.001C63.9832 145.433 64.7668 143.344 65.5505 141.254C64.2444 142.56 62.677 143.866 61.1096 144.911C61.3708 144.127 61.6321 143.605 61.8933 142.821C60.5871 144.127 59.0197 145.172 57.4523 146.217C58.7585 144.389 59.5422 142.821 60.5871 140.731C58.236 143.344 55.3625 145.433 52.2277 146.74C54.0563 144.65 55.6237 142.56 56.6686 139.948C53.7951 142.56 50.6603 144.65 47.5255 147.001C49.0929 144.911 50.6603 142.56 51.9664 140.47C49.6153 143.082 45.9581 144.65 43.3457 146.217C44.6519 144.389 48.8317 140.731 49.0929 137.858C47.2643 140.209 45.1744 142.037 42.5621 143.344C43.607 141.515 44.6519 139.686 45.1744 137.858C43.3458 139.164 40.9946 139.425 38.9048 140.209C39.4273 139.686 39.6885 139.425 40.211 138.903C42.562 138.641 44.6519 137.858 46.7418 136.813C46.7418 137.596 46.4806 138.38 46.4806 139.164C47.7867 138.38 49.3541 137.596 50.6603 137.074C50.6603 138.119 50.6603 138.903 50.6603 139.948C52.2277 139.425 53.7951 138.903 55.3625 138.641C55.3625 139.425 55.3625 139.948 54.84 140.47C56.4074 139.686 58.236 139.164 59.8034 138.641C59.8034 139.425 59.5422 140.209 59.5422 140.992C60.8484 139.948 62.4158 139.164 63.9832 138.903C64.2444 139.425 64.2444 139.948 64.2444 140.731C65.5505 139.686 66.8567 138.641 68.4241 137.596C68.6854 138.119 68.4241 138.903 68.4241 139.425C69.4691 138.641 70.7752 137.858 71.8202 137.335C71.8202 137.858 71.8201 138.38 72.0814 138.903C72.8651 137.596 73.91 136.552 75.2162 135.768C75.4774 136.29 75.4774 136.813 75.4774 137.596C77.306 135.507 79.9184 133.939 82.5307 133.417Z" fill="#1D1D1B"/>
<path opacity="0.3" d="M91.9352 144.65C89.3228 151.442 84.6207 157.711 79.1348 162.413C83.5757 161.107 87.7554 159.017 91.1515 155.883C90.8902 156.666 90.629 157.45 90.1065 158.495C96.6374 155.621 101.862 150.136 105.781 144.388C102.646 147.001 98.9885 149.352 95.3312 151.442C96.1149 149.874 96.8986 148.307 97.9435 146.74C95.5924 148.568 93.2413 150.136 90.629 151.442C91.6739 148.829 91.9352 144.65 91.9352 144.65Z" fill="#1D1D1B"/>
<path d="M39.6883 132.633L34.2024 118.004C32.8962 119.049 28.194 115.131 26.8879 116.175C21.6632 119.31 10.1689 118.527 12.7813 126.625L21.1407 143.605C28.7165 152.748 58.2358 146.74 78.3508 144.389L81.4856 135.246L39.6883 132.633Z" fill="#FFCFA1"/>
<path d="M30.5453 107.816L33.1577 115.13L34.2026 118.004C32.8964 119.049 31.5903 119.833 30.0229 120.616C24.7982 123.751 17.2225 126.102 10.9529 126.363L1.28724 99.979C-1.84755 90.0521 2.07094 80.9089 5.20574 79.6028C15.9163 85.0887 24.537 94.2318 30.5453 107.816Z" fill="#EDEDED"/>
<path d="M91.6742 152.748C91.413 150.397 92.9804 149.352 94.5478 148.307C95.0702 148.046 95.3315 147.785 95.8539 147.523C95.5927 148.307 95.5927 149.091 95.5927 149.875C95.5927 150.136 95.5927 150.136 95.8539 150.397C95.5927 150.919 95.5927 150.658 95.5927 151.703C95.5927 151.442 95.3315 151.442 95.3315 151.442C94.0253 150.136 92.7192 151.442 92.7192 152.748C92.7192 153.793 91.6742 153.532 91.6742 152.748Z" fill="#0091A1"/>
<path d="M102.907 144.127L106.303 143.083L134.778 136.813C129.553 135.507 108.654 139.425 105.258 140.731C104.475 140.993 104.213 141.515 104.475 142.299C104.475 142.56 104.475 142.821 104.475 142.821L102.385 143.605L102.907 144.127Z" fill="white"/>
<path d="M101.862 151.964C102.907 150.919 103.169 149.352 102.907 147.785C102.385 146.217 101.34 145.172 99.7725 144.911C98.2051 144.65 96.6377 144.911 95.5928 146.217C95.0703 147.001 94.5479 147.785 94.5479 148.568C94.5479 149.091 94.5479 149.875 94.8091 150.397C94.8091 150.919 95.0703 151.181 95.3316 151.703L95.5928 151.964C96.1152 152.748 96.899 153.009 97.9439 153.271C99.2501 153.532 100.817 153.009 101.862 151.964ZM97.9439 152.226C96.899 151.964 96.1152 151.442 95.854 150.397C95.854 150.136 95.854 150.136 95.5928 149.875C95.3315 149.091 95.3316 148.307 95.854 147.523C96.1152 147.262 96.1152 146.74 96.3765 146.479C97.1602 145.695 98.4663 145.172 99.5113 145.434C100.556 145.695 101.601 146.479 101.862 147.785C102.124 148.83 101.862 150.136 101.079 150.919C100.295 151.964 98.9888 152.487 97.9439 152.226Z" fill="white"/>
<path d="M104.736 144.127L104.213 142.821C104.213 142.56 103.952 142.56 103.691 142.56L96.8989 145.172L99.5113 145.956L104.213 144.389C104.736 144.389 104.997 144.127 104.736 144.127Z" fill="white"/>
<path d="M102.646 139.687L106.303 140.209L135.561 141.776C130.598 143.866 109.177 143.344 105.52 142.821C104.997 142.821 104.736 142.299 104.736 141.515C104.736 141.254 104.736 140.993 104.736 140.731L102.646 140.47V139.687Z" fill="#C6C6C6"/>
<path d="M100.034 132.372C101.34 133.417 101.862 134.723 101.601 136.29C101.34 137.858 100.556 139.164 98.9887 139.687C97.6825 140.209 95.8539 140.209 94.809 139.164C93.5028 138.119 92.9803 136.813 93.2416 135.246C93.5028 133.678 94.2865 132.372 95.8539 131.85C97.4213 131.327 98.9887 131.327 100.034 132.372ZM96.3764 132.633C95.3314 133.156 94.5477 134.201 94.2865 135.246C94.0253 136.291 94.5477 137.597 95.5927 138.38C96.6376 139.164 97.6826 139.164 98.7275 138.642C99.7724 138.119 100.556 137.074 100.817 136.029C101.079 134.984 100.556 133.678 99.5112 132.894C98.7275 132.372 97.4213 132.372 96.3764 132.633Z" fill="white"/>
<path d="M104.475 139.687L104.213 140.993C104.213 141.254 103.952 141.254 103.952 141.254L96.8989 139.948L99.25 138.642L104.213 139.164C104.475 139.164 104.475 139.425 104.475 139.687Z" fill="white"/>
<path d="M132.688 141.776C125.112 143.083 108.393 142.56 105.258 142.038C104.997 142.038 104.736 141.776 104.475 141.515C104.475 141.515 104.475 141.515 104.475 141.776C104.475 142.299 104.736 142.821 105.258 143.083C108.654 143.605 130.337 144.127 135.3 142.038L132.688 141.776Z" fill="#EDEDED"/>
<path d="M106.564 141.776H105.258C105.258 142.038 105.52 142.299 106.042 142.299C106.303 142.299 106.564 142.038 106.564 141.776Z" fill="#878787"/>
<path d="M106.564 141.515C106.564 141.254 106.303 140.993 105.781 140.993C105.52 140.993 105.258 141.254 105.258 141.515H106.564Z" fill="#878787"/>
<path d="M103.691 136.813C103.43 137.074 102.907 137.596 102.123 137.596C98.7273 138.903 96.3762 139.164 92.9802 138.119L93.2414 140.209L97.1599 145.956C97.6824 145.695 97.9436 145.695 98.4661 145.695C98.7273 145.695 98.9886 145.695 99.2498 145.695C99.7723 145.695 100.033 145.956 100.295 145.956L101.34 145.433C102.385 144.911 103.168 144.911 103.43 145.956L103.168 149.613L100.817 151.442L100.556 151.703L97.4212 153.532L95.3313 153.27L91.9353 154.577L89.8454 154.054L86.9719 155.099C84.6208 154.054 82.2697 152.748 81.486 151.442L76.5225 144.389L69.7305 143.866L70.2529 140.993L72.0815 134.2L82.0084 134.723L91.9353 132.372C97.1599 134.462 98.9886 135.507 103.691 134.2C104.474 134.984 104.474 136.029 103.691 136.813Z" fill="#FFCFA1"/>
<path d="M102.907 147.785C102.385 146.217 101.34 145.172 99.7725 144.911L100.034 145.956C101.079 146.217 101.862 147.001 102.124 148.046C102.385 149.091 102.124 150.397 101.34 151.181C101.079 151.442 101.079 151.442 100.817 151.703L101.079 152.748C101.601 152.487 101.862 152.226 102.124 151.964C102.907 150.919 103.168 149.352 102.907 147.785Z" fill="white"/>
<path opacity="0.2" d="M97.1602 145.956L98.7276 148.307L100.295 147.785L100.556 146.217C99.25 145.695 98.2051 145.434 97.1602 145.956Z" fill="#1D1D1B"/>
<path opacity="0.1" d="M100.295 151.964L97.1599 153.793L95.0701 153.532L91.674 154.838L89.5842 154.316L86.7106 155.36C84.3595 154.316 82.0084 153.009 81.2247 151.703L76.2613 144.65H69.208L77.8287 142.299C79.6573 146.479 82.2697 150.658 85.4044 152.487H89.0617L91.674 153.793L96.115 151.442C96.8987 152.226 98.4661 152.226 100.295 151.964Z" fill="#1D1D1B"/>
<path opacity="0.1" d="M92.98 138.119L93.2412 140.209L97.1597 145.956C97.6822 145.695 97.9434 145.695 98.4659 145.695C98.7271 145.695 98.9884 145.695 99.2496 145.695L98.2046 147.262C95.3311 144.128 92.7188 140.993 90.1064 140.731C91.6738 139.687 92.1963 138.119 91.9351 136.291C95.3311 138.119 99.5108 137.858 103.691 136.813C103.429 137.074 102.907 137.597 102.123 137.597C98.7271 139.164 96.376 139.164 92.98 138.119Z" fill="#1D1D1B"/>
<path d="M100.034 132.372C98.9888 131.588 97.6826 131.327 96.6377 131.588V132.633C97.6826 132.372 98.7275 132.633 99.5112 133.156C100.556 133.939 100.817 134.984 100.817 136.29C100.817 137.597 100.034 138.38 98.7276 138.903C98.2051 139.164 97.9439 139.164 97.4214 139.164V140.209C97.9439 140.209 98.4663 140.209 98.9888 139.948C100.295 139.425 101.34 138.119 101.601 136.552C102.124 134.723 101.34 133.156 100.034 132.372Z" fill="white"/>
<path d="M172.917 215.705H51.7051V201.076C51.7051 192.717 58.4971 185.663 67.1178 185.663H157.504C165.864 185.663 172.917 192.455 172.917 201.076V215.705Z" fill="#A63F43"/>
</svg>
