<svg width="340" height="329" viewBox="0 0 340 329" fill="none" xmlns="http://www.w3.org/2000/svg">
<path d="M31.1238 162.537V166.106L31.0964 166.132V162.563L31.1238 162.537Z" fill="#5A61FF"/>
<path d="M31.1238 162.537L31.0964 166.132V162.563L31.1238 162.537Z" fill="#5A61FF"/>
<g filter="url(#filter0_d_439_243)">
<rect x="8" y="8" width="324" height="312.789" rx="8" fill="#38A487"/>
</g>
<path d="M8 300.109H332V312.789C332 317.207 328.418 320.789 324 320.789H16C11.5817 320.789 8 317.207 8 312.789V300.109Z" fill="#3A2F7B"/>
<path d="M8 300H98V321H16C11.5817 321 8 317.418 8 313V300Z" fill="white"/>
<path d="M129.832 156.258C136.632 155.258 143.532 154.258 150.432 154.758C154.032 155.058 157.832 155.758 160.632 158.058C161.432 158.658 162.132 159.458 162.532 160.358C163.232 161.958 162.932 163.858 162.532 165.558C159.432 179.358 154.132 192.658 146.832 204.658C146.632 204.958 146.432 205.258 146.132 205.358C145.732 205.558 145.332 205.458 144.932 205.358C138.632 203.858 132.432 201.358 126.832 198.058C127.732 195.558 128.032 192.758 126.832 190.358C124.732 186.258 118.932 185.458 116.132 181.858C113.632 178.558 114.332 173.758 116.032 169.958C118.632 164.358 123.432 159.758 129.132 157.358L129.832 156.258Z" fill="#C95F5F"/>
<path d="M248.832 233.158C253.832 228.558 257.232 222.358 258.932 215.758C260.732 209.158 260.832 202.258 259.932 195.558C265.632 203.558 265.432 214.558 261.932 223.658C260.632 226.958 258.832 230.258 256.232 232.658C253.632 235.158 250.032 236.758 246.532 236.458L248.832 233.158Z" fill="#7E4927"/>
<path d="M140.532 102.158C139.032 102.558 137.332 102.758 135.832 102.158C134.332 101.558 133.132 100.258 133.032 98.658C133.032 96.258 135.332 94.758 136.832 92.858C138.232 91.058 138.732 88.758 139.932 86.858C141.032 84.958 143.232 83.258 145.432 83.858C147.032 84.258 148.032 85.758 148.832 87.258C149.432 88.258 149.932 89.358 150.232 90.558C150.832 93.058 150.132 95.758 149.032 98.158C148.332 99.658 147.332 101.158 146.032 102.258C144.732 103.358 142.932 103.958 141.332 103.758L140.532 102.158Z" fill="black"/>
<path d="M97.9324 197.458C94.9324 198.758 92.0324 200.558 89.5324 202.758C89.3324 202.958 89.1324 203.158 89.0324 203.358C88.9324 203.658 89.0324 204.058 89.1324 204.358C89.8324 206.558 90.5324 208.758 92.0324 210.458C93.6324 212.358 95.9324 213.658 98.4324 213.858C99.0324 213.958 99.7324 213.958 100.332 213.658C100.832 213.458 101.232 212.958 101.632 212.558C103.532 210.658 105.832 208.958 108.332 207.858C105.732 204.458 103.232 200.958 100.632 197.558L97.9324 197.458Z" fill="#F59F18"/>
<path d="M89.4324 208.358C92.6324 205.058 95.9324 201.958 99.5324 199.058C100.532 198.258 101.532 197.458 102.632 196.658C103.032 196.358 102.632 195.758 102.232 196.058C98.5324 198.858 95.0324 201.858 91.7324 205.058C90.8324 205.958 89.8324 206.858 88.9324 207.858C88.6324 208.158 89.1324 208.658 89.4324 208.358Z" fill="#C87C0D"/>
<path d="M90.3324 210.458C93.3324 207.358 96.6324 204.458 100.032 201.858C101.032 201.058 102.032 200.358 103.032 199.658C103.432 199.358 103.032 198.758 102.632 199.058C99.0324 201.558 95.5324 204.358 92.4324 207.358C91.5324 208.258 90.6324 209.058 89.8324 209.958C89.4324 210.258 90.0324 210.758 90.3324 210.458Z" fill="#C87C0D"/>
<path d="M92.7324 213.258C96.2324 209.058 100.032 205.258 104.232 201.758C105.432 200.758 106.632 199.858 107.832 198.858C108.232 198.558 107.832 197.958 107.432 198.258C103.032 201.558 98.9324 205.158 95.2324 209.158C94.1324 210.258 93.1324 211.458 92.1324 212.658C91.9324 213.158 92.4324 213.658 92.7324 213.258Z" fill="#C87C0D"/>
<path d="M94.8324 214.658C98.1324 212.158 101.432 209.658 104.732 207.158C105.732 206.458 106.632 205.758 107.632 204.958C108.032 204.658 107.632 204.058 107.232 204.358C103.932 206.858 100.632 209.358 97.3324 211.858C96.3324 212.558 95.4324 213.258 94.4324 214.058C94.1324 214.358 94.4324 214.958 94.8324 214.658Z" fill="#C87C0D"/>
<path d="M87.1325 202.858C88.1325 202.358 89.3325 202.558 90.2325 203.258C91.5325 204.258 92.1325 206.058 92.7325 207.558C93.3325 209.158 94.3325 210.758 96.0325 211.158C97.5325 211.458 99.0325 210.558 100.432 210.958C102.232 211.358 103.132 213.458 103.432 215.358C103.732 217.158 103.732 219.258 104.832 220.658C106.032 222.258 108.132 222.658 109.932 223.558C111.732 224.358 113.532 226.158 112.932 228.058C112.432 229.758 110.432 230.358 108.732 230.758C105.032 231.458 101.232 231.858 97.6325 230.758C94.0325 229.758 90.7325 227.058 89.7325 223.458C89.3325 221.958 89.2325 220.158 87.9325 219.258C87.3325 219.758 86.6325 220.258 86.0325 220.858C83.3325 219.258 81.1325 216.858 79.7325 214.058C79.4325 213.558 85.5325 205.258 85.5325 205.258L87.1325 202.858Z" fill="black"/>
<path d="M113.332 213.058C112.732 215.258 112.632 217.558 112.832 219.858C112.832 220.258 112.932 220.758 113.232 220.958C113.532 221.258 114.032 221.258 114.432 221.258C117.032 221.158 119.532 221.158 122.132 221.058C122.632 221.058 123.132 221.058 123.532 220.658C124.232 220.058 124.132 218.658 125.032 218.358C126.032 217.858 126.832 219.358 127.732 220.058C128.532 220.658 129.532 220.858 130.532 220.958C136.732 221.458 143.032 221.158 149.132 219.958C149.532 219.858 149.832 219.858 150.132 219.558C150.632 219.158 150.732 218.458 150.732 217.858C150.532 215.558 148.332 213.858 146.132 213.258C143.932 212.658 141.532 212.758 139.232 212.258C136.232 211.558 133.532 209.858 131.732 207.358C131.232 206.658 130.732 205.758 129.832 205.458C128.132 204.758 126.432 206.258 124.932 207.158C121.932 208.958 118.232 208.858 114.732 208.658C114.232 208.658 113.732 208.658 113.432 208.858C113.132 209.058 113.032 209.358 112.932 209.658C112.432 210.958 112.032 212.258 111.832 213.658L113.332 213.058Z" fill="black"/>
<path d="M135.232 118.058C139.632 120.358 141.732 125.358 143.332 130.058C144.832 134.758 146.332 139.858 150.032 143.158C150.432 143.558 150.932 143.858 151.132 144.358C151.332 144.858 151.232 145.458 151.232 145.958C150.632 150.058 150.132 154.158 149.532 158.358C144.332 158.958 138.932 156.658 135.232 152.958C131.432 149.258 129.032 144.358 127.532 139.358L135.232 118.058Z" fill="#54260C"/>
<path d="M222.032 219.058C219.832 220.658 218.432 223.258 218.132 226.058C217.932 228.758 218.932 231.558 220.832 233.558C218.232 233.558 215.632 233.758 213.132 234.258C212.732 234.358 212.332 234.458 212.032 234.658C211.532 235.158 211.832 236.058 212.232 236.658C213.232 237.858 215.032 238.058 216.532 238.158C220.532 238.458 224.532 238.758 228.632 239.058C228.932 239.058 229.232 239.058 229.632 239.058C230.732 238.758 231.132 237.458 231.232 236.358C231.732 230.258 228.232 224.358 228.932 218.258L222.032 219.058Z" fill="#C47916"/>
<path d="M208.632 205.858C208.132 213.858 206.832 221.858 204.732 229.558C204.632 229.958 204.532 230.358 204.132 230.658C203.832 230.858 203.332 230.858 203.032 230.858C201.632 230.958 200.232 231.758 199.532 232.958C199.132 233.558 198.932 234.458 199.332 235.058C199.632 235.558 200.232 235.758 200.832 235.858C202.532 236.258 204.332 236.358 206.032 236.158C206.832 236.058 207.532 235.958 208.232 235.458C209.132 234.858 209.632 233.858 210.032 232.858C213.532 224.758 216.232 216.258 218.032 207.658L208.632 205.858Z" fill="#C47916"/>
<path d="M207.332 159.158C207.932 156.458 208.332 153.758 208.432 151.058C208.432 150.758 208.432 150.358 208.332 150.058C208.232 149.658 207.832 149.358 207.532 149.158C205.732 147.758 203.332 147.358 201.132 146.858C198.732 146.358 196.432 145.958 194.032 145.458C193.432 145.358 192.732 145.258 192.432 145.758C192.332 145.958 192.332 146.158 192.332 146.358C192.332 147.758 193.332 148.858 194.232 149.958C195.632 151.558 197.132 153.158 198.932 154.458C200.732 155.758 202.732 156.558 204.932 156.658C205.132 157.958 206.032 159.058 207.232 159.558L207.332 159.158Z" fill="#54260C"/>
<path d="M169.432 99.158C167.432 103.358 161.932 110.458 161.932 110.458L165.132 115.258L159.532 114.058C159.532 114.058 156.632 118.158 154.732 119.658C152.832 121.258 149.932 121.758 147.932 120.258C146.232 118.958 144.032 114.958 144.032 114.958C144.032 114.958 138.832 117.958 136.032 119.158C133.132 114.358 130.632 110.458 127.732 105.658C132.532 103.158 137.332 100.758 142.132 98.258C140.332 98.458 138.332 95.758 138.432 93.858C138.532 92.058 140.132 90.458 142.032 90.258C143.832 90.058 145.732 91.058 146.732 92.658C148.232 89.458 150.432 86.658 153.132 84.358C157.732 88.958 164.832 94.458 169.432 99.058V99.158Z" fill="#D1845A"/>
<path d="M142.732 155.358C145.032 158.858 150.032 159.558 154.032 158.258C158.032 156.958 161.232 154.158 164.632 151.758C165.932 150.858 167.132 150.058 168.532 149.258C169.132 148.858 169.732 148.558 170.432 148.458C171.332 148.358 172.232 148.558 173.132 148.658C176.532 148.958 179.732 145.758 179.532 142.358C181.132 141.658 182.732 140.958 184.432 140.258C184.932 140.058 185.332 139.458 185.232 138.958C185.132 137.958 183.932 137.858 183.032 137.958C180.232 138.158 177.432 138.358 174.532 138.558C173.732 138.658 172.832 138.658 172.132 139.258C171.632 139.658 171.332 140.358 170.832 140.858C170.132 141.558 169.032 141.758 168.132 141.858C161.732 142.858 155.332 143.858 148.832 144.858C148.032 144.958 147.132 145.158 146.432 145.658C145.832 146.158 145.432 146.958 145.132 147.758L142.532 154.658C142.332 154.958 142.432 155.258 142.732 155.358Z" fill="#D1845A"/>
<path d="M173.732 139.358C176.332 137.458 179.132 135.558 182.332 134.958C182.732 134.858 183.132 134.858 183.432 134.958C183.832 135.058 184.032 135.358 184.332 135.558C185.432 136.658 186.232 137.958 186.832 139.358C186.932 139.758 187.132 140.158 186.932 140.458C186.632 141.158 185.632 141.158 185.032 140.758C184.432 140.358 184.032 139.658 183.432 139.158C181.932 141.058 179.432 142.158 177.032 142.058L173.732 139.358Z" fill="#D1845A"/>
<path d="M184.732 135.958C185.532 135.258 186.932 135.758 187.432 136.758C187.932 137.758 187.732 138.858 187.232 139.858C187.632 139.358 188.532 139.658 188.732 140.258C188.932 140.858 188.532 141.558 188.132 141.958C188.832 142.158 189.232 143.158 188.932 143.858C188.632 144.558 187.832 144.958 187.032 145.058C186.432 145.058 185.832 144.958 185.332 144.958C184.432 144.958 183.532 145.158 182.732 145.258C181.332 145.558 180.032 145.858 178.632 146.158C178.032 146.258 177.432 146.458 176.832 146.158C176.032 145.858 175.632 144.858 175.732 144.058C175.832 143.158 176.332 142.458 176.732 141.758C177.432 140.658 178.232 139.658 179.232 138.858C180.232 138.058 181.532 137.558 182.832 137.758L184.732 135.958Z" fill="#D1845A"/>
<path d="M210.432 159.558C207.332 156.758 202.532 156.058 198.732 157.958C197.132 158.758 195.732 159.958 194.032 160.658C190.632 162.058 186.732 160.958 183.032 161.358C182.832 161.358 182.632 161.458 182.432 161.458C180.532 162.158 181.332 164.558 182.432 165.958C185.432 169.258 190.032 170.658 194.432 171.658C196.432 172.158 198.532 172.658 199.932 174.158C200.632 174.958 201.132 175.958 201.532 177.058C203.732 182.658 204.132 188.758 205.032 194.758C205.932 200.758 207.332 206.858 210.932 211.558C214.332 215.958 219.432 218.858 224.732 220.558C222.032 222.558 221.532 226.558 222.532 229.858C223.532 233.158 225.932 235.658 228.232 238.158C225.632 238.358 223.132 238.458 220.532 238.658C219.332 238.758 218.032 238.858 217.032 239.758C216.532 240.258 216.332 240.958 216.432 241.558C216.732 242.858 218.432 243.158 219.732 243.158C225.732 243.358 231.632 243.658 237.632 243.858C239.732 243.958 242.032 243.958 243.632 242.658C244.132 242.158 244.632 241.658 245.032 241.058C246.132 239.558 247.232 238.058 248.332 236.558C249.632 234.858 250.932 233.058 251.632 231.058C252.632 228.458 252.632 225.658 252.332 222.858C251.532 215.458 248.532 208.558 245.132 201.958C243.332 198.458 241.332 194.958 238.632 191.958C236.632 189.758 234.332 187.858 232.132 185.958C224.632 179.258 218.132 171.358 213.132 162.658C212.432 161.358 211.532 160.358 210.432 159.558Z" fill="#F59F18"/>
<path d="M208.132 181.658C206.832 184.358 205.332 186.858 203.632 189.258C201.932 187.658 200.232 186.158 198.432 184.558C196.032 182.358 193.532 180.158 190.432 179.058C187.332 178.058 183.532 178.558 181.532 181.158C181.232 181.658 180.932 182.258 181.132 182.758C181.232 183.058 181.532 183.258 181.832 183.358C183.432 184.158 185.332 183.558 187.032 183.658C190.432 183.758 193.232 186.358 195.232 189.158C197.232 191.958 198.632 195.158 200.932 197.658C202.332 199.258 204.332 200.558 206.432 200.358C208.732 200.158 210.432 198.158 211.932 196.358C213.132 194.858 214.232 193.458 215.432 191.958C215.832 191.458 216.232 190.958 216.332 190.358C216.432 189.658 216.232 188.958 215.932 188.358C214.732 185.658 212.832 183.358 210.532 181.458L208.132 181.658Z" fill="#F59F18"/>
<path d="M208.232 161.158C211.132 158.458 214.232 156.058 217.532 153.958C217.932 153.658 218.332 153.458 218.832 153.458C219.432 153.458 219.932 153.758 220.332 154.058C223.932 156.658 227.032 159.958 229.232 163.758C228.432 164.758 227.132 165.358 225.832 165.458C224.532 165.558 223.232 165.358 222.032 164.958C219.232 164.158 216.532 162.758 214.232 160.858C213.932 160.558 213.532 160.358 213.132 160.258C212.732 160.158 212.332 160.358 212.032 160.458C210.832 160.858 209.732 161.358 208.532 161.758L208.232 161.158Z" fill="#7E4927"/>
<path d="M76.8325 169.258C77.5325 174.358 77.1325 179.958 80.2325 184.158C82.0325 186.558 84.8325 188.058 87.6325 189.158C92.7325 191.258 98.2325 192.458 103.732 192.658C101.432 194.458 99.2325 196.258 96.9325 197.958C100.532 204.358 104.732 210.458 109.432 216.158C109.632 216.458 109.932 216.758 110.332 216.858C110.732 216.958 111.032 216.758 111.332 216.558C122.032 210.658 132.732 204.758 143.432 198.858C145.832 197.558 148.332 196.158 150.232 194.258C153.132 191.358 154.932 187.358 154.932 183.258C154.932 182.258 154.832 181.158 154.432 180.258C153.832 178.658 152.532 177.458 151.132 176.558C145.432 172.358 138.132 170.858 132.332 166.758C130.132 165.158 128.132 163.258 125.932 161.658C123.532 159.858 120.832 158.558 118.132 157.258C117.432 156.958 116.632 156.558 115.832 156.558C114.632 156.458 113.532 157.058 112.532 157.558C108.132 159.458 103.432 160.158 98.7325 161.258C92.9325 162.658 87.3325 164.858 81.8325 167.058C81.2325 167.258 80.7325 167.458 80.1325 167.758L76.8325 169.258Z" fill="#EA7D7A"/>
<path d="M135.932 165.558C144.432 167.558 152.932 169.558 161.432 171.558C164.932 172.358 168.332 173.158 171.932 173.358C175.232 173.558 178.532 173.158 181.832 173.558C185.132 173.958 188.532 175.058 190.532 177.658C189.232 179.458 185.832 177.758 183.432 177.858C183.832 180.258 188.732 179.758 188.732 182.158C188.732 183.458 187.032 184.158 185.732 183.658C185.732 183.658 185.732 183.758 185.832 183.758C186.532 185.058 185.132 186.558 183.832 185.958C183.732 185.958 183.732 185.858 183.632 185.858C183.732 187.258 181.832 188.258 180.732 187.358C180.732 188.358 179.332 188.658 178.332 188.458C174.032 187.758 170.532 184.858 166.432 183.658C161.532 182.158 156.232 183.158 151.032 183.458C143.932 183.758 136.732 182.658 130.132 180.258C129.232 179.958 128.232 179.458 127.932 178.458C127.732 177.658 128.132 176.758 128.532 176.058C130.532 172.558 133.032 169.258 135.832 166.358L135.932 165.558Z" fill="#D1845A"/>
<path d="M131.932 102.458C133.932 104.158 133.132 108.358 134.532 110.558C136.432 113.658 138.432 116.758 139.632 120.258C142.732 128.858 141.132 138.658 136.732 146.658C136.232 147.658 135.632 148.658 135.432 149.758C135.232 150.858 135.332 152.058 135.532 153.158C136.232 157.358 137.332 161.458 138.832 165.358C139.032 165.858 139.232 166.258 139.132 166.758C139.132 167.258 138.832 167.658 138.632 168.158C136.832 171.158 135.132 174.158 133.332 177.158C132.632 178.458 131.732 179.758 130.432 180.358C128.432 181.258 126.032 179.958 124.532 178.258C121.132 174.458 120.332 169.158 118.732 164.358C118.632 164.058 118.532 163.658 118.232 163.558C117.832 163.358 117.432 163.458 117.032 163.658C111.232 165.658 105.032 166.858 98.9324 167.258C94.1324 167.558 89.2324 167.258 84.6324 168.558C82.3324 169.058 80.2324 169.958 78.0324 170.258C77.3324 170.358 76.5324 170.358 75.9324 169.958C75.5324 169.658 75.3324 169.158 75.1324 168.758C73.8324 165.558 73.6324 161.958 74.6324 158.658C75.9324 154.358 79.0324 150.758 82.3324 147.758C83.6324 146.558 85.1324 145.358 86.0324 143.758C87.0324 142.058 87.2324 140.058 87.7324 138.158C90.1324 129.158 97.7324 122.758 104.932 116.858C110.832 112.058 117.032 107.058 124.532 105.358L131.932 102.458Z" fill="#7E4927"/>
<path d="M102.732 194.258C107.232 190.858 111.832 187.558 116.532 184.358C117.832 183.458 119.232 182.558 120.532 181.658C120.932 181.358 120.532 180.758 120.132 181.058C115.432 184.158 110.732 187.458 106.232 190.758C104.932 191.658 103.632 192.658 102.332 193.658C101.932 193.858 102.332 194.558 102.732 194.258Z" fill="#C23F37"/>
<path d="M116.132 180.058C115.932 181.458 115.432 182.858 114.732 184.158C114.532 184.558 115.132 184.958 115.332 184.558C116.032 183.258 116.632 181.758 116.832 180.258C116.832 180.058 116.732 179.858 116.532 179.758C116.432 179.758 116.132 179.858 116.132 180.058Z" fill="#C23F37"/>
<path d="M103.532 194.158C103.932 193.858 104.632 194.958 104.732 195.158C105.132 195.758 105.632 196.358 106.032 197.058C106.932 198.258 107.832 199.558 108.732 200.758C110.532 203.258 112.332 205.758 114.032 208.258C115.032 209.658 116.032 211.058 117.032 212.458C117.332 212.858 117.932 212.458 117.632 212.058C113.832 206.658 109.932 201.358 106.132 195.958C105.832 195.558 105.632 195.258 105.332 194.858C105.132 194.558 104.932 194.158 104.632 193.958C104.132 193.458 103.432 193.158 102.932 193.658C102.632 193.958 103.232 194.458 103.532 194.158Z" fill="#C23F37"/>
<path d="M78.0324 176.158C80.8324 174.758 83.5324 173.258 86.3324 171.858C86.1324 171.858 86.0324 171.858 85.8324 171.758C87.8324 174.158 89.8324 176.658 91.8324 179.058C92.7324 180.158 93.8324 181.258 94.4324 182.558C95.0324 183.658 95.0324 184.958 94.4324 186.058C93.8324 187.358 92.7324 188.358 91.6324 189.358C91.2324 189.658 91.8324 190.158 92.1324 189.858C94.0324 188.158 96.1324 185.858 95.3324 183.158C94.9324 181.758 93.9324 180.658 92.9324 179.558C91.8324 178.258 90.8324 176.958 89.7324 175.658C88.5324 174.158 87.3324 172.758 86.1324 171.258C86.0324 171.158 85.8324 171.158 85.6324 171.158C82.8324 172.558 80.1324 174.058 77.3324 175.458C77.2324 175.658 77.6324 176.358 78.0324 176.158Z" fill="#C23F37"/>
<path d="M79.8324 180.958C82.6324 178.858 85.3324 176.758 88.1324 174.758C88.5324 174.458 88.1324 173.858 87.7324 174.158C84.9324 176.258 82.2324 178.358 79.4324 180.358C79.0324 180.558 79.4324 181.158 79.8324 180.958Z" fill="#C23F37"/>
<path d="M116.532 201.258C120.732 197.958 124.832 194.458 128.832 190.958C129.932 189.958 131.132 188.958 132.232 187.858C132.632 187.558 132.032 186.958 131.732 187.358C127.832 191.058 123.732 194.558 119.632 197.958C118.432 198.958 117.232 199.858 116.032 200.858C115.632 201.058 116.132 201.558 116.532 201.258Z" fill="#C23F37"/>
<path d="M97.9324 178.158C101.532 177.858 105.132 177.658 108.732 177.358C109.232 177.358 109.232 176.558 108.732 176.658C105.132 176.958 101.532 177.158 97.9324 177.458C97.4324 177.458 97.4324 178.158 97.9324 178.158Z" fill="#C23F37"/>
<path d="M146.532 91.558C145.432 93.458 144.432 95.358 143.332 97.158C143.332 98.158 144.632 98.558 145.532 98.158C146.432 97.758 146.932 96.858 147.332 96.058C148.832 93.458 150.632 90.958 152.732 88.758C153.232 88.258 153.732 87.758 154.432 87.658C155.732 87.458 156.732 88.758 157.032 90.058C157.332 91.358 157.332 92.658 158.032 93.758C159.332 95.858 162.432 95.958 164.032 97.758C164.732 98.458 166.732 100.558 167.432 101.158C168.432 102.058 169.932 102.058 171.232 101.758C173.832 101.158 176.132 99.158 176.932 96.658C177.732 94.158 176.932 91.058 174.932 89.458C173.732 88.458 172.132 87.958 170.732 87.158C169.032 86.058 165.932 83.658 164.932 82.158C163.832 80.558 163.132 78.658 161.632 77.358C160.032 75.958 157.732 75.458 155.532 75.158C153.932 74.958 152.132 74.658 150.532 75.158C147.832 75.858 146.032 78.258 144.432 80.558C142.032 83.958 139.432 87.558 139.132 91.758C140.332 91.158 141.632 90.458 143.032 90.358C144.432 90.358 145.932 91.058 146.232 92.458L146.532 91.558Z" fill="black"/>
<path d="M182.532 182.258C183.532 183.358 184.932 184.158 186.332 184.358C186.532 184.358 186.732 184.258 186.832 184.058C186.832 183.858 186.732 183.658 186.532 183.558C185.132 183.358 183.932 182.658 183.032 181.658C182.732 181.358 182.232 181.858 182.532 182.258Z" fill="#7E4927"/>
<path d="M180.632 184.558C181.632 185.658 183.032 186.258 184.432 186.358C184.932 186.358 184.932 185.658 184.432 185.658C183.132 185.558 182.032 185.058 181.132 184.058C181.032 183.958 180.732 183.958 180.632 184.058C180.432 184.258 180.532 184.458 180.632 184.558Z" fill="#7E4927"/>
<path d="M178.532 185.958C179.232 186.958 180.232 187.658 181.432 187.858C181.632 187.858 181.832 187.858 181.932 187.558C181.932 187.358 181.832 187.158 181.632 187.058C181.132 186.958 180.632 186.858 180.232 186.558C179.832 186.258 179.432 185.958 179.132 185.558C179.032 185.358 178.832 185.358 178.632 185.458C178.432 185.558 178.432 185.758 178.532 185.958Z" fill="#7E4927"/>
<path d="M183.132 180.658C181.232 182.458 179.332 184.258 177.432 186.058C177.132 186.358 177.632 186.958 177.932 186.558C179.832 184.758 181.732 182.958 183.632 181.158C183.932 180.858 183.432 180.358 183.132 180.658Z" fill="#7E4927"/>
<path d="M166.832 177.858C166.232 179.058 165.932 180.458 165.932 181.758C165.932 182.258 166.632 182.258 166.632 181.758C166.632 180.558 166.932 179.358 167.432 178.258C167.532 178.058 167.532 177.858 167.332 177.758C167.232 177.658 166.932 177.758 166.832 177.858Z" fill="#7E4927"/>
<path d="M172.732 139.658C174.532 139.558 176.332 139.358 178.132 139.358C179.632 139.258 181.432 139.358 182.632 140.358C182.932 140.558 183.132 140.858 183.332 141.058C183.432 141.158 183.532 141.358 183.432 141.558C183.332 141.758 183.132 141.858 183.032 141.958C182.532 142.358 181.732 142.458 181.032 142.258C180.332 142.058 179.832 141.558 179.132 141.458C178.432 141.358 177.932 141.758 177.532 142.258C177.032 142.858 176.732 143.558 176.032 143.958C175.332 144.458 174.532 144.658 173.732 144.658C173.232 144.658 173.232 145.358 173.732 145.358C175.332 145.358 176.732 144.458 177.732 143.158C178.132 142.658 178.532 141.858 179.332 142.058C179.632 142.158 179.932 142.358 180.232 142.558C180.632 142.758 180.932 142.858 181.332 142.958C182.132 143.058 182.832 142.758 183.432 142.358C183.732 142.158 184.032 141.858 184.032 141.458C184.132 141.058 183.832 140.658 183.532 140.258C182.532 138.958 180.732 138.458 179.132 138.458C178.032 138.458 176.932 138.558 175.832 138.558C174.732 138.658 173.532 138.658 172.432 138.758C172.232 138.958 172.232 139.658 172.732 139.658Z" fill="#7E4927"/>
<path d="M181.932 135.458C181.832 136.458 181.132 137.458 180.232 138.058C180.032 138.158 180.032 138.358 180.132 138.558C180.232 138.758 180.432 138.758 180.632 138.658C181.732 137.958 182.532 136.758 182.632 135.458C182.632 135.258 182.432 135.058 182.232 135.058C182.132 135.058 181.932 135.258 181.932 135.458Z" fill="#7E4927"/>
<path d="M184.032 136.858C184.032 137.958 183.532 139.058 182.632 139.658C182.432 139.758 182.432 139.958 182.532 140.158C182.632 140.358 182.832 140.358 183.032 140.258C184.132 139.558 184.932 138.158 184.832 136.858C184.832 136.658 184.632 136.458 184.432 136.458C184.232 136.558 184.032 136.658 184.032 136.858Z" fill="#7E4927"/>
<path d="M185.932 139.458C185.932 139.558 185.932 139.558 185.932 139.458C185.832 139.658 185.932 139.558 185.932 139.458C185.832 139.558 185.832 139.658 185.832 139.658C185.832 139.658 185.832 139.758 185.732 139.758C185.732 139.758 185.732 139.758 185.732 139.858C185.732 139.858 185.732 139.858 185.632 139.958L185.532 140.058L185.432 140.158C185.432 140.158 185.432 140.158 185.332 140.158C185.232 140.258 185.132 140.258 185.032 140.358C185.032 140.358 184.932 140.358 184.932 140.458C184.932 140.458 184.932 140.458 184.832 140.458C184.732 140.458 184.632 140.558 184.532 140.558C184.432 140.558 184.432 140.558 184.332 140.558C184.132 140.558 183.932 140.758 183.932 140.958C183.932 141.158 184.132 141.358 184.332 141.358C185.432 141.358 186.432 140.658 186.732 139.558C186.832 139.358 186.632 139.158 186.432 139.058C186.132 139.158 186.032 139.258 185.932 139.458Z" fill="#7E4927"/>
<path d="M183.032 142.758C184.332 143.258 185.832 143.058 186.932 142.158C187.132 142.058 187.032 141.758 186.932 141.658C186.732 141.458 186.532 141.558 186.432 141.658C185.532 142.358 184.332 142.558 183.232 142.058C183.032 141.958 182.832 142.158 182.732 142.358C182.732 142.458 182.832 142.658 183.032 142.758Z" fill="#7E4927"/>
<path d="M183.932 142.258C183.532 142.358 183.132 142.358 182.732 142.658C182.332 142.858 182.032 143.258 181.932 143.658C181.832 144.058 181.932 144.558 182.332 144.858C182.632 145.158 183.132 145.358 183.532 145.358C184.032 145.458 184.532 145.458 185.032 145.258C185.232 145.158 185.332 144.958 185.332 144.758C185.332 144.558 185.032 144.458 184.832 144.458C184.432 144.658 184.032 144.658 183.632 144.558C183.432 144.558 183.232 144.458 183.132 144.358L183.032 144.258C183.032 144.258 183.032 144.258 182.932 144.258L182.832 144.158L182.732 144.058V143.958C182.732 144.058 182.732 143.858 182.732 143.858C182.732 143.858 182.732 143.858 182.732 143.758V143.658C182.732 143.758 182.732 143.558 182.732 143.558C182.732 143.558 182.732 143.458 182.832 143.458L182.932 143.358L183.032 143.258C183.232 143.158 183.332 143.058 183.532 142.958C183.732 142.858 183.932 142.858 184.232 142.858C184.432 142.858 184.532 142.558 184.532 142.358C184.332 142.258 184.132 142.258 183.932 142.258Z" fill="#7E4927"/>
<path d="M180.632 143.358C178.932 143.058 177.132 143.858 176.432 145.458C176.332 145.658 176.332 145.858 176.532 145.958C176.732 146.058 176.932 145.958 177.032 145.858C177.632 144.658 179.032 143.858 180.432 144.058C180.632 144.058 180.832 143.958 180.932 143.758C180.932 143.558 180.832 143.358 180.632 143.358Z" fill="#7E4927"/>
<path d="M169.032 143.358C169.032 144.758 169.032 146.158 169.032 147.558C169.032 148.058 169.732 148.058 169.732 147.558C169.732 146.158 169.732 144.758 169.732 143.358C169.832 142.858 169.032 142.858 169.032 143.358Z" fill="#7E4927"/>
<path d="M154.232 110.558C153.332 112.558 154.532 115.158 156.732 115.758C157.232 115.858 157.432 115.158 156.932 115.058C155.232 114.658 154.232 112.558 154.932 110.958C155.032 110.758 155.032 110.558 154.832 110.458C154.532 110.358 154.332 110.358 154.232 110.558Z" fill="#7E4927"/>
<path opacity="0.49" d="M144.132 114.958L139.832 106.258L141.132 116.358L144.132 114.958Z" fill="#7E4927"/>
<path d="M141.032 93.358C141.532 94.458 141.632 95.558 141.632 96.758C141.632 96.958 141.832 97.158 142.032 97.158C142.232 97.158 142.432 96.958 142.432 96.758C142.532 95.458 142.332 94.158 141.732 93.058C141.632 92.858 141.432 92.858 141.232 92.958C141.032 92.958 141.032 93.258 141.032 93.358Z" fill="#7E4927"/>
<path d="M140.032 94.658C140.632 94.858 141.332 95.058 141.932 95.258C142.132 95.358 142.332 95.158 142.432 94.958C142.432 94.758 142.332 94.558 142.132 94.458C141.532 94.258 140.832 94.058 140.232 93.858C140.032 93.758 139.832 93.958 139.732 94.158C139.732 94.358 139.832 94.558 140.032 94.658Z" fill="#7E4927"/>
<path d="M174.532 92.858C175.432 92.158 175.732 91.058 175.532 89.958C175.332 88.758 174.632 87.758 173.732 86.958C172.832 86.258 171.832 85.758 170.832 85.258C169.832 84.758 168.932 84.258 167.932 83.758C167.132 83.258 166.232 82.758 165.632 82.058C164.932 81.358 164.332 80.458 163.832 79.558C162.832 77.858 161.832 75.858 160.132 74.758C157.932 73.358 154.932 73.958 153.332 76.058C153.032 76.458 153.732 76.858 153.932 76.458C155.232 74.758 157.632 74.258 159.532 75.358C161.232 76.358 162.132 78.158 163.032 79.758C163.532 80.558 164.032 81.458 164.732 82.158C165.332 82.858 166.032 83.358 166.732 83.858C167.632 84.458 168.532 84.958 169.432 85.458C170.232 85.858 171.132 86.258 171.932 86.758C173.032 87.358 174.232 88.158 174.632 89.358C175.032 90.358 174.932 91.658 174.032 92.358C173.632 92.658 174.132 93.158 174.532 92.858Z" fill="black"/>
<path d="M156.744 107.744C157.366 108.103 158.273 107.696 158.77 106.835C159.267 105.974 159.166 104.985 158.544 104.626C157.922 104.267 157.015 104.674 156.518 105.535C156.021 106.396 156.122 107.385 156.744 107.744Z" fill="black"/>
<path d="M163.032 101.558C162.832 102.858 161.232 103.758 160.032 103.258C159.532 103.058 159.132 102.658 158.732 102.358C157.632 101.758 156.232 101.958 155.032 101.558C154.932 101.558 154.832 101.458 154.732 101.358C154.632 101.158 154.832 100.858 155.132 100.758C157.632 99.558 160.732 99.658 163.032 101.258V101.558Z" fill="black"/>
<path d="M136.032 150.458C135.132 146.858 135.832 143.058 136.332 139.358C136.832 135.658 136.932 131.858 136.732 128.058C136.332 122.258 134.932 115.158 129.232 112.358C126.532 111.058 123.132 110.858 120.632 112.658C120.232 112.958 120.632 113.558 121.032 113.258C123.232 111.758 126.032 111.758 128.432 112.758C131.032 113.858 132.932 116.058 134.032 118.558C135.332 121.358 135.732 124.558 136.032 127.558C136.332 131.158 136.232 134.858 135.732 138.458C135.232 142.458 134.432 146.458 135.432 150.458C135.432 151.158 136.132 150.958 136.032 150.458Z" fill="#54260C"/>
<path d="M115.432 124.558C114.632 130.758 113.832 136.958 114.432 143.158C114.632 144.758 114.832 146.258 115.232 147.758C115.532 149.258 116.032 150.658 116.432 152.158C116.832 153.758 117.032 155.258 117.032 156.858C117.032 158.358 116.932 159.758 117.132 161.258C117.532 164.258 118.632 167.158 119.832 169.958C120.032 170.358 120.632 170.058 120.432 169.558C119.332 167.158 118.332 164.558 117.932 161.958C117.732 160.558 117.732 159.158 117.732 157.658C117.732 156.058 117.632 154.558 117.332 152.958C117.032 151.458 116.532 149.958 116.132 148.558C115.732 147.058 115.432 145.558 115.232 144.058C114.832 141.058 114.832 137.958 115.032 134.858C115.232 131.358 115.732 127.958 116.132 124.458C116.132 124.258 115.932 124.058 115.732 124.058C115.632 124.158 115.532 124.358 115.432 124.558Z" fill="#54260C"/>
<path d="M123.032 175.558C125.032 173.758 127.832 173.058 130.132 171.758C132.332 170.458 134.232 168.658 135.732 166.558C136.532 165.358 137.232 164.058 137.732 162.758C137.932 162.358 137.232 162.158 137.032 162.558C136.132 164.858 134.732 167.058 132.932 168.758C132.032 169.658 131.032 170.358 129.932 171.058C128.832 171.758 127.532 172.258 126.332 172.758C124.932 173.358 123.632 174.058 122.532 175.058C122.132 175.358 122.732 175.858 123.032 175.558Z" fill="#54260C"/>
<path d="M132.532 171.758C130.832 172.958 129.332 174.358 128.132 175.958C128.032 176.158 127.932 176.358 128.132 176.458C128.232 176.558 128.532 176.658 128.632 176.458C129.832 174.858 131.332 173.458 132.932 172.358C133.132 172.258 133.132 172.058 133.032 171.858C132.932 171.758 132.732 171.658 132.532 171.758Z" fill="#54260C"/>
<path d="M133.332 172.958C132.932 173.858 132.332 174.658 131.732 175.358C131.632 175.458 131.632 175.758 131.732 175.858C131.832 175.958 132.132 176.058 132.232 175.858C132.932 175.058 133.532 174.258 133.932 173.258C134.032 173.058 133.932 172.858 133.832 172.758C133.732 172.658 133.432 172.758 133.332 172.958Z" fill="#54260C"/>
<path d="M133.832 149.758C132.432 151.058 131.032 152.358 129.632 153.658C129.332 153.858 129.632 154.458 130.032 154.258C130.832 153.958 131.532 153.658 132.332 153.458C132.532 153.358 132.632 153.358 132.832 153.258C132.932 153.258 132.932 153.258 133.032 153.158C133.132 153.158 133.132 153.058 133.032 153.058V153.158C132.832 153.458 132.732 153.758 132.532 154.058C131.732 155.358 130.932 156.558 130.032 157.758C129.732 158.158 130.432 158.558 130.632 158.158C131.232 157.458 131.732 156.658 132.232 155.858C132.732 155.158 133.232 154.358 133.632 153.558C133.732 153.258 133.832 152.958 133.732 152.658C133.532 152.258 133.132 152.358 132.732 152.458C131.832 152.758 130.832 153.158 129.932 153.458C130.032 153.658 130.132 153.858 130.332 154.058C131.732 152.758 133.132 151.458 134.532 150.158C134.732 149.958 134.232 149.458 133.832 149.758Z" fill="#54260C"/>
<path d="M75.7324 166.158C77.8324 166.858 80.0324 166.158 82.0324 165.358C83.1324 164.958 84.1324 164.458 85.2324 164.158C86.4324 163.758 87.5324 163.558 88.8324 163.458C91.4324 163.258 94.0324 163.158 96.6324 163.058C99.2324 162.958 101.832 162.858 104.432 162.758C107.432 162.658 110.332 162.458 113.332 162.358C113.832 162.358 113.832 161.558 113.332 161.658C108.132 161.858 102.932 162.058 97.7324 162.358C95.1324 162.458 92.5324 162.558 90.0324 162.758C88.7324 162.858 87.5324 162.958 86.2324 163.258C85.1324 163.558 84.1324 163.958 83.0324 164.358C80.8324 165.258 78.3324 166.258 75.9324 165.558C75.5324 165.258 75.3324 165.958 75.7324 166.158Z" fill="#54260C"/>
<path d="M87.0325 143.858C89.1325 145.858 91.6325 147.358 94.4325 148.258C94.7325 148.358 95.0325 147.958 94.8325 147.758C93.4325 145.158 91.0325 143.458 88.6325 141.858C88.5325 142.058 88.4325 142.358 88.3325 142.558C91.4325 143.158 94.4325 143.758 97.5325 144.358C98.0325 144.458 98.2325 143.758 97.7325 143.658C94.6325 143.058 91.6325 142.458 88.5325 141.858C88.1325 141.758 87.9325 142.258 88.2325 142.558C90.4325 144.058 92.8325 145.758 94.1325 148.158C94.2325 147.958 94.4325 147.758 94.5325 147.658C91.9325 146.858 89.4325 145.458 87.4325 143.458C87.2325 142.958 86.7325 143.458 87.0325 143.858Z" fill="#54260C"/>
<path d="M112.832 125.958C113.032 127.358 113.532 128.758 114.232 129.958C114.432 130.358 115.132 129.958 114.832 129.558C114.132 128.358 113.632 127.058 113.432 125.758C113.432 125.558 113.132 125.458 112.932 125.458C112.932 125.558 112.832 125.758 112.832 125.958Z" fill="#54260C"/>
<path d="M81.0324 211.658C81.8324 212.958 82.7324 214.258 83.5324 215.658C83.8324 216.158 84.2324 216.658 84.8324 216.758C85.4324 216.858 86.0324 216.658 86.5324 216.458C87.0324 216.258 87.6324 215.958 88.2324 216.058C88.7324 216.158 89.2324 216.458 89.6324 216.858C90.6324 217.858 90.8324 219.258 91.1324 220.558C91.3324 221.858 91.7324 223.058 92.4324 224.158C93.1324 225.158 94.0324 226.058 95.0324 226.758C97.3324 228.358 100.232 228.958 102.932 229.358C105.432 229.758 108.432 229.858 110.332 227.858C110.632 227.558 110.132 226.958 109.832 227.358C108.232 229.058 105.632 228.958 103.532 228.758C100.932 228.458 98.1324 227.858 95.9324 226.458C94.9324 225.858 94.0324 225.058 93.3324 224.058C92.5324 222.958 92.2324 221.758 91.9324 220.558C91.7324 219.258 91.4324 217.958 90.7324 216.958C90.1324 216.058 89.1324 215.358 87.9324 215.458C87.2324 215.458 86.6324 215.858 86.0324 216.058C85.7324 216.158 85.4324 216.258 85.1324 216.158C84.8324 216.058 84.5324 215.858 84.4324 215.558C83.4324 214.158 82.6324 212.758 81.7324 211.358C81.4324 210.958 80.8324 211.258 81.0324 211.658Z" fill="white"/>
<path d="M101.332 216.358C99.5324 216.758 98.3324 218.558 97.9324 220.258C97.6324 221.258 97.6324 222.258 98.0324 223.158C98.3324 223.958 99.0324 224.658 99.9324 224.858C100.832 225.158 101.732 224.858 102.532 224.458C103.232 224.058 104.132 223.358 104.432 222.658C104.532 222.358 104.632 221.958 104.532 221.658C104.432 221.258 103.932 221.058 103.532 221.158C102.732 221.258 102.032 221.958 101.732 222.658C101.332 223.558 101.532 224.458 102.132 225.158C102.732 225.858 103.732 226.158 104.632 225.958C105.132 225.858 104.932 225.158 104.432 225.258C103.232 225.558 102.032 224.458 102.332 223.258C102.432 222.658 102.832 222.158 103.432 221.958C103.632 221.858 103.932 221.758 103.832 222.058C103.832 222.358 103.632 222.558 103.432 222.758C102.632 223.658 101.132 224.758 99.8324 224.158C98.4324 223.558 98.2324 221.758 98.6324 220.458C99.0324 219.058 99.9324 217.458 101.532 217.058C102.032 216.958 101.832 216.258 101.332 216.358Z" fill="white"/>
<path d="M114.532 217.958C116.332 219.158 118.632 218.658 120.432 217.858C122.332 217.058 124.232 215.758 126.332 215.558C127.332 215.458 128.232 215.558 129.032 216.158C129.832 216.758 130.332 217.558 131.032 218.258C131.932 218.958 133.032 219.058 134.132 219.058C135.432 219.058 136.732 219.058 138.032 218.958C140.932 218.758 143.832 218.358 146.732 217.858C147.232 217.758 147.032 217.058 146.532 217.158C144.032 217.658 141.532 217.958 138.932 218.158C137.632 218.258 136.432 218.358 135.132 218.358C134.032 218.358 132.732 218.558 131.732 217.958C130.932 217.458 130.532 216.558 129.732 215.958C129.032 215.358 128.132 214.958 127.132 214.958C125.032 214.858 123.132 215.858 121.332 216.758C119.432 217.758 116.832 218.858 114.732 217.458C114.432 217.058 114.132 217.658 114.532 217.958Z" fill="white"/>
<path d="M129.232 209.458C129.032 211.158 129.332 212.958 130.632 214.058C131.732 215.058 133.432 215.358 134.632 214.458C135.232 214.058 135.632 213.358 135.732 212.658C135.832 211.958 135.432 211.258 134.832 210.958C134.232 210.658 133.532 210.758 133.232 211.458C132.932 212.158 133.132 212.858 133.532 213.458C134.332 214.958 135.932 215.958 137.632 216.158C138.132 216.258 138.132 215.458 137.632 215.458C136.532 215.358 135.432 214.758 134.632 213.858C134.232 213.458 133.932 212.958 133.832 212.358C133.732 211.958 133.832 211.358 134.332 211.558C134.732 211.758 135.032 212.258 134.932 212.658C134.832 213.158 134.532 213.658 134.032 213.958C133.032 214.558 131.832 214.258 131.032 213.558C129.932 212.558 129.732 210.958 129.932 209.458C130.032 208.958 129.232 209.058 129.232 209.458Z" fill="white"/>
<path d="M204.832 200.858C208.532 202.458 212.532 200.858 215.632 198.658C216.532 197.958 217.432 197.258 218.332 196.558C218.732 196.258 218.132 195.758 217.832 196.058C215.032 198.358 211.932 200.758 208.132 200.858C207.132 200.858 206.132 200.658 205.132 200.258C204.732 200.058 204.332 200.658 204.832 200.858Z" fill="#7E4927"/>
<path d="M203.432 189.758C205.432 190.058 207.532 189.858 209.432 189.158C210.332 188.758 211.232 188.258 212.032 187.658C212.832 187.058 213.432 186.458 214.232 185.858C215.032 185.258 215.932 184.658 216.932 184.658C217.432 184.658 217.432 183.858 216.932 183.958C215.032 184.058 213.632 185.458 212.332 186.558C210.832 187.858 209.032 188.758 207.032 189.158C205.932 189.358 204.732 189.358 203.632 189.158C203.132 188.958 202.932 189.758 203.432 189.758Z" fill="#7E4927"/>
<path d="M221.932 224.958C222.432 222.858 223.732 221.058 225.432 219.658C227.332 218.158 229.632 217.258 231.932 216.658C233.332 216.258 234.732 216.058 236.232 215.858C236.732 215.758 236.532 215.058 236.032 215.158C231.132 215.958 225.932 217.158 222.832 221.358C222.032 222.358 221.532 223.558 221.232 224.758C221.132 225.258 221.832 225.458 221.932 224.958Z" fill="#7E4927"/>
<path d="M219.032 239.458C217.832 239.858 217.232 241.358 217.732 242.558C217.832 242.758 218.032 242.758 218.232 242.658C218.432 242.558 218.432 242.358 218.332 242.158C218.332 242.058 218.332 242.258 218.332 242.158V242.058C218.332 241.958 218.332 241.958 218.332 241.858V241.758C218.332 241.658 218.332 241.658 218.332 241.558C218.332 241.458 218.332 241.458 218.332 241.358V241.258C218.332 241.158 218.432 241.058 218.432 240.958C218.432 240.958 218.432 240.958 218.432 240.858C218.432 240.758 218.532 240.758 218.532 240.658C218.532 240.658 218.532 240.658 218.532 240.558C218.532 240.458 218.632 240.458 218.632 240.458L218.732 240.358C218.732 240.358 218.732 240.358 218.832 240.358C218.832 240.358 218.932 240.258 219.032 240.258H219.132C219.332 240.158 219.432 239.958 219.432 239.758C219.432 239.558 219.232 239.358 219.032 239.458Z" fill="#7E4927"/>
<path d="M221.132 240.558C220.232 240.858 219.532 241.758 219.532 242.758C219.532 242.958 219.732 243.158 219.932 243.158C220.132 243.158 220.332 242.958 220.332 242.758C220.332 242.658 220.332 242.658 220.332 242.558V242.458C220.332 242.558 220.332 242.558 220.332 242.458C220.332 242.358 220.332 242.358 220.332 242.358V242.258C220.332 242.258 220.332 242.158 220.432 242.158C220.432 242.158 220.432 242.158 220.432 242.058C220.432 241.958 220.532 241.858 220.632 241.758C220.632 241.758 220.632 241.758 220.632 241.658L220.732 241.558L220.832 241.458C220.832 241.458 220.832 241.458 220.932 241.458C221.032 241.358 221.132 241.358 221.132 241.358C221.132 241.358 221.132 241.358 221.232 241.358C221.332 241.358 221.332 241.358 221.432 241.258C221.632 241.158 221.732 240.958 221.732 240.758C221.532 240.658 221.332 240.558 221.132 240.558Z" fill="#7E4927"/>
<path d="M201.932 232.558C201.232 232.658 200.732 233.058 200.432 233.658C200.132 234.258 200.132 234.958 200.532 235.558C200.632 235.758 200.832 235.758 201.032 235.658C201.232 235.558 201.332 235.358 201.132 235.158C201.132 235.058 201.032 235.058 201.032 234.958C201.032 234.958 201.032 234.958 201.032 234.858C201.032 234.758 201.032 234.758 201.032 234.658V234.558C201.032 234.458 201.032 234.458 201.032 234.358V234.258C201.032 234.158 201.032 234.158 201.032 234.058V233.958C201.032 233.958 201.032 233.958 201.032 233.858C201.132 233.758 201.132 233.658 201.232 233.558C201.232 233.558 201.232 233.558 201.332 233.458L201.432 233.358C201.432 233.358 201.432 233.358 201.532 233.358C201.532 233.358 201.632 233.258 201.732 233.258C201.732 233.258 201.732 233.258 201.832 233.258H201.932H202.032C202.032 233.258 202.032 233.258 202.132 233.258C202.032 233.258 202.032 233.258 202.132 233.258C202.332 233.258 202.532 233.058 202.532 232.858C202.232 232.758 202.132 232.558 201.932 232.558Z" fill="#7E4927"/>
<path d="M203.732 233.358C202.832 233.658 202.232 234.758 202.532 235.658C202.632 235.858 202.832 235.958 203.032 235.958C203.232 235.858 203.332 235.658 203.332 235.458V235.358C203.332 235.358 203.332 235.358 203.332 235.258V235.158V235.058C203.332 234.958 203.332 234.958 203.332 235.058V234.958V234.858V234.758C203.332 234.658 203.332 234.858 203.332 234.758C203.332 234.758 203.332 234.758 203.332 234.658C203.332 234.658 203.332 234.558 203.432 234.558C203.432 234.558 203.432 234.558 203.432 234.458C203.532 234.358 203.532 234.358 203.532 234.358L203.632 234.258C203.532 234.258 203.732 234.158 203.632 234.258C203.632 234.258 203.732 234.258 203.732 234.158L203.832 234.058C203.932 234.058 203.932 234.058 203.932 234.058C204.132 233.958 204.232 233.758 204.232 233.558C204.132 233.458 203.932 233.258 203.732 233.358Z" fill="#7E4927"/>
<path d="M182.032 165.158C183.332 165.258 183.532 163.158 184.732 162.658C186.032 162.058 187.832 163.658 188.732 162.558C188.532 161.758 187.632 161.358 186.832 161.158C185.632 160.858 184.332 160.758 183.032 160.958C182.532 161.058 182.132 161.158 181.732 161.358C181.132 161.758 180.732 162.458 180.732 163.258C180.832 163.958 181.232 164.658 181.932 164.958L182.032 165.158Z" fill="black"/>
<path d="M195.732 163.458C195.932 162.658 196.632 162.058 197.532 162.158C198.332 162.258 198.932 163.058 198.932 163.758C198.932 164.258 199.632 164.258 199.632 163.758C199.632 162.558 198.732 161.558 197.532 161.358C196.332 161.258 195.232 162.058 195.032 163.258C195.032 163.458 195.132 163.658 195.332 163.758C195.532 163.758 195.732 163.658 195.732 163.458Z" fill="black"/>
<path d="M182.432 165.358C183.232 167.058 184.832 168.358 186.632 168.858C187.632 169.058 188.632 169.058 189.532 168.558C190.332 168.058 190.832 167.358 190.832 166.458C190.832 165.958 190.132 165.958 190.132 166.458C190.032 167.158 189.532 167.758 188.932 168.058C188.132 168.458 187.232 168.358 186.432 168.058C184.932 167.558 183.732 166.458 183.032 165.058C182.832 164.558 182.232 164.958 182.432 165.358Z" fill="#7E4927"/>
<path d="M197.432 158.158C197.032 158.058 196.632 158.558 196.832 159.058C196.932 159.458 197.332 159.758 197.732 159.858C198.132 159.958 198.532 159.958 198.932 160.158C199.532 160.358 200.132 160.858 200.732 161.058C201.332 161.258 202.232 160.958 202.332 160.258C202.332 159.858 202.032 159.458 201.732 159.258C201.132 158.658 200.432 158.058 199.632 157.758C198.832 157.458 197.832 157.358 197.132 157.858L197.432 158.158Z" fill="black"/>
<path d="M229.632 200.758C229.332 201.358 229.732 202.158 230.332 202.458C230.932 202.758 231.732 202.558 232.232 202.158C233.032 201.458 233.032 200.058 232.132 199.458C231.232 198.858 229.832 199.458 229.832 200.558L229.632 200.758Z" fill="#7E4927"/>
<path d="M234.832 203.558C233.832 204.858 234.132 206.858 235.432 207.758C236.732 208.658 238.732 208.358 239.632 207.058C240.232 206.258 240.332 205.258 240.432 204.258C240.432 203.858 240.532 203.358 240.332 203.058C240.132 202.558 239.532 202.158 239.032 201.958C237.232 201.358 235.132 202.358 234.432 204.058L234.832 203.558Z" fill="#7E4927"/>
<path d="M234.532 196.258C234.532 196.758 234.532 197.158 234.732 197.658C234.932 198.058 235.532 198.358 235.932 198.158C236.132 198.058 236.232 197.858 236.332 197.658C236.632 197.058 236.432 196.358 235.932 195.958C235.432 195.658 234.532 196.058 234.632 196.658L234.532 196.258Z" fill="#7E4927"/>
<path d="M212.332 158.958C213.532 160.258 214.832 161.458 216.232 162.458C216.432 162.558 216.632 162.458 216.732 162.358C216.832 162.158 216.732 161.958 216.632 161.858C215.232 160.858 213.932 159.758 212.832 158.458C212.532 158.058 212.032 158.558 212.332 158.958Z" fill="#54260C"/>
<path d="M218.832 157.058C219.432 158.258 219.932 159.358 220.532 160.558C220.632 160.758 220.832 160.758 221.032 160.658C221.232 160.558 221.232 160.358 221.132 160.158C220.532 158.958 220.032 157.858 219.432 156.658C219.332 156.458 219.132 156.458 218.932 156.558C218.732 156.658 218.732 156.858 218.832 157.058Z" fill="#54260C"/>
<path d="M221.132 158.458C221.432 159.558 222.032 160.558 222.832 161.358C222.932 161.458 223.232 161.458 223.332 161.358C223.432 161.258 223.432 160.958 223.332 160.858C222.632 160.158 222.032 159.258 221.832 158.258C221.732 158.058 221.532 157.958 221.332 157.958C221.232 157.958 221.132 158.258 221.132 158.458Z" fill="#54260C"/>
<path d="M201.432 179.158C208.132 178.358 214.532 175.758 219.932 171.758C220.532 171.258 220.732 170.458 220.232 169.858C220.132 169.758 220.132 169.658 220.032 169.558C219.532 168.858 218.632 168.658 217.932 169.158C213.032 172.958 207.132 175.458 201.032 176.358C200.132 176.458 199.632 177.358 199.932 178.258C200.132 178.858 200.732 179.258 201.432 179.158Z" fill="#7E4927"/>
<path d="M205.032 177.358C208.932 176.858 212.632 175.658 215.932 173.658C216.832 173.058 217.732 172.458 218.832 172.158C219.332 172.058 219.132 171.358 218.632 171.458C217.732 171.758 216.932 172.158 216.132 172.658C215.332 173.158 214.532 173.658 213.632 174.058C211.932 174.958 210.032 175.558 208.232 176.058C207.132 176.358 206.132 176.558 205.032 176.658C204.532 176.658 204.532 177.458 205.032 177.358Z" fill="#54260C"/>
<path d="M232.232 186.958C233.332 186.958 234.432 186.958 235.532 186.958C236.032 186.958 236.032 186.258 235.532 186.258C234.432 186.258 233.332 186.258 232.232 186.258C231.832 186.258 231.832 186.958 232.232 186.958Z" fill="#F59F18"/>
<path d="M234.132 189.058C235.032 189.058 235.932 189.058 236.832 189.058C237.032 189.058 237.232 188.858 237.232 188.658C237.232 188.458 237.032 188.258 236.832 188.258C235.932 188.258 235.032 188.258 234.132 188.258C233.932 188.258 233.732 188.458 233.732 188.658C233.732 188.858 233.932 189.058 234.132 189.058Z" fill="#F59F18"/>
<path d="M249.232 213.058C249.932 212.458 250.832 212.058 251.732 211.858C251.932 211.858 252.032 211.558 252.032 211.358C251.932 211.158 251.732 211.058 251.532 211.058C250.532 211.258 249.532 211.758 248.732 212.458C248.532 212.558 248.632 212.858 248.732 212.958C248.832 213.258 249.032 213.258 249.232 213.058Z" fill="#F59F18"/>
<path d="M249.832 214.058C250.532 213.758 251.232 213.558 251.932 213.258C252.132 213.158 252.232 212.958 252.232 212.758C252.132 212.558 251.932 212.458 251.732 212.458C251.032 212.758 250.332 212.958 249.632 213.258C249.432 213.358 249.332 213.558 249.332 213.758C249.432 213.958 249.632 214.058 249.832 214.058Z" fill="#F59F18"/>
<path d="M199.332 193.658C198.732 194.458 198.032 195.258 197.432 196.058C197.332 196.258 197.232 196.458 197.432 196.558C197.532 196.658 197.832 196.758 197.932 196.558C198.532 195.758 199.232 194.958 199.832 194.158C199.932 193.958 200.032 193.758 199.832 193.658C199.732 193.558 199.532 193.458 199.332 193.658Z" fill="#F59F18"/>
<path d="M199.832 195.458C199.732 195.758 199.632 196.058 199.432 196.358C199.232 196.658 199.132 196.958 198.832 197.258C198.732 197.458 198.832 197.658 198.932 197.758C199.132 197.858 199.332 197.758 199.432 197.658C199.832 197.058 200.232 196.358 200.432 195.658C200.532 195.458 200.332 195.258 200.132 195.158C200.132 195.158 199.932 195.258 199.832 195.458Z" fill="#F59F18"/>
<path d="M198.732 172.258C198.132 172.658 197.632 173.058 197.232 173.658C197.132 173.758 197.132 173.858 197.132 173.958C197.132 174.058 197.132 174.158 197.232 174.258C197.332 174.358 197.632 174.458 197.732 174.258C197.932 174.058 198.132 173.758 198.332 173.558C198.432 173.458 198.532 173.358 198.732 173.258C198.732 173.258 198.832 173.258 198.832 173.158C198.932 173.158 198.932 173.058 199.032 173.058C199.232 172.958 199.232 172.758 199.132 172.558C199.132 172.258 198.932 172.158 198.732 172.258Z" fill="#F59F18"/>
<path d="M199.532 172.958C199.232 173.558 198.932 174.158 198.732 174.858C198.632 175.058 198.632 175.258 198.832 175.358C199.032 175.458 199.232 175.458 199.332 175.258C199.632 174.658 199.932 174.058 200.132 173.358C200.232 173.158 200.232 172.958 200.032 172.858C199.832 172.658 199.632 172.758 199.532 172.958Z" fill="#F59F18"/>
<path d="M205.732 180.458C205.232 181.858 205.032 183.558 206.332 184.658C207.532 185.558 209.232 184.858 210.232 184.058C211.232 183.258 212.132 182.058 212.232 180.658C212.332 180.058 212.132 179.358 211.532 179.258C210.832 179.058 210.232 179.958 209.932 180.558C209.632 181.158 209.432 181.958 209.732 182.658C209.932 183.258 210.432 183.858 211.132 183.958C212.532 184.158 213.932 182.858 214.532 181.658C214.832 180.958 215.032 180.258 215.032 179.558C215.032 178.958 214.632 178.158 213.932 178.558C213.432 178.858 213.232 179.558 213.232 180.058C213.232 180.658 213.432 181.158 213.832 181.558C214.832 182.758 216.532 182.558 217.632 181.658C218.632 180.758 219.332 178.858 218.032 177.958C217.832 177.858 217.532 177.958 217.532 178.158C217.332 179.058 217.932 179.758 218.732 179.958C219.732 180.258 220.732 179.758 221.532 179.258C221.932 179.058 221.532 178.358 221.132 178.658C220.532 178.958 219.832 179.458 219.132 179.358C218.632 179.358 218.032 178.858 218.132 178.358C217.932 178.458 217.732 178.458 217.632 178.558C218.432 179.058 217.932 180.358 217.432 180.858C216.832 181.458 215.832 181.958 214.932 181.558C214.232 181.258 213.832 180.358 214.032 179.658C214.032 179.458 214.132 179.358 214.232 179.258L214.332 179.158C214.232 179.258 214.232 179.058 214.232 179.158C214.232 179.258 214.232 179.458 214.232 179.558C214.232 180.058 214.132 180.558 213.832 181.058C213.432 181.958 212.632 182.858 211.632 183.158C210.432 183.458 210.032 182.158 210.332 181.258C210.432 181.058 210.532 180.758 210.732 180.558C210.832 180.458 211.032 180.058 211.232 180.058C211.532 180.058 211.332 180.958 211.232 181.158C210.932 182.058 210.432 182.958 209.632 183.558C208.832 184.158 207.432 184.858 206.532 184.258C205.432 183.458 205.732 181.958 206.132 180.858C206.532 180.258 205.832 180.058 205.732 180.458Z" fill="#C87C0D"/>
<path d="M222.132 205.358C222.132 206.258 222.432 207.058 223.032 207.758C223.132 207.858 223.432 207.858 223.532 207.758C223.632 207.558 223.632 207.358 223.532 207.258C223.332 207.058 223.132 206.658 223.032 206.458C222.932 206.258 222.932 206.058 222.932 205.958C222.932 205.958 222.932 205.958 222.932 205.858V205.758C222.932 205.658 222.932 205.558 222.932 205.458C222.932 205.258 222.732 205.058 222.532 205.058C222.332 204.958 222.132 205.158 222.132 205.358Z" fill="#C87C0D"/>
<path d="M225.332 203.558C225.032 204.558 225.132 205.658 225.632 206.558C225.732 206.758 225.932 206.758 226.132 206.658C226.332 206.558 226.332 206.358 226.232 206.158C225.832 205.358 225.832 204.558 226.032 203.658C226.132 203.458 225.932 203.258 225.732 203.158C225.532 203.258 225.332 203.358 225.332 203.558Z" fill="#C87C0D"/>
<path d="M227.132 192.658C227.732 193.658 228.032 194.858 228.132 196.058C228.132 196.558 228.932 196.558 228.832 196.058C228.832 194.758 228.432 193.458 227.732 192.358C227.632 191.858 226.932 192.158 227.132 192.658Z" fill="#C87C0D"/>
<path d="M229.632 210.258C229.832 210.658 230.032 211.058 230.232 211.458C230.332 211.658 230.532 211.658 230.732 211.558C230.932 211.458 230.932 211.258 230.832 211.058C230.632 210.658 230.432 210.258 230.232 209.858C230.132 209.658 229.932 209.658 229.732 209.758C229.632 209.858 229.532 210.158 229.632 210.258Z" fill="#C87C0D"/>
<path d="M232.232 210.458C232.432 210.858 232.632 211.258 232.832 211.758C232.832 211.858 232.932 211.858 233.032 211.958C233.132 211.958 233.232 211.958 233.332 211.958C233.432 211.858 233.432 211.858 233.532 211.758C233.532 211.658 233.532 211.558 233.532 211.458C233.332 211.058 233.132 210.658 232.932 210.158C232.932 210.058 232.832 210.058 232.732 209.958C232.632 209.958 232.532 209.958 232.432 209.958C232.332 210.058 232.332 210.058 232.232 210.158C232.132 210.258 232.132 210.358 232.232 210.458Z" fill="#C87C0D"/>
<path d="M228.732 221.758C227.632 222.758 227.032 224.258 227.232 225.758C227.232 225.958 227.432 226.158 227.632 226.158C227.832 226.158 228.032 225.958 228.032 225.758C227.832 224.458 228.332 223.158 229.332 222.358C229.532 222.258 229.432 221.958 229.332 221.858C229.132 221.558 228.832 221.658 228.732 221.758Z" fill="#C87C0D"/>
<path d="M230.132 225.258C229.832 225.558 229.732 225.858 229.632 226.258C229.532 226.658 229.632 227.058 229.732 227.458C229.732 227.558 229.832 227.558 229.932 227.658C230.032 227.658 230.132 227.658 230.232 227.658C230.432 227.558 230.432 227.358 230.332 227.158C230.332 227.058 230.332 227.058 230.332 226.958V226.858C230.332 226.758 230.332 226.658 230.332 226.558V226.458C230.332 226.358 230.332 226.558 230.332 226.458C230.332 226.458 230.332 226.458 230.332 226.358C230.332 226.258 230.332 226.258 230.332 226.158V226.058C230.432 225.958 230.432 225.858 230.432 225.858C230.432 225.858 230.432 225.758 230.532 225.758C230.632 225.658 230.632 225.358 230.532 225.258C230.532 225.158 230.332 225.158 230.132 225.258Z" fill="#C87C0D"/>
<path d="M231.932 226.558C231.932 227.158 231.932 227.658 231.932 228.258C231.932 228.458 232.132 228.658 232.332 228.658C232.532 228.658 232.732 228.458 232.732 228.258C232.732 227.658 232.732 227.158 232.732 226.558C232.732 226.358 232.532 226.158 232.332 226.158C232.032 226.158 231.932 226.358 231.932 226.558Z" fill="#C87C0D"/>
<path d="M228.732 230.958C228.732 231.658 229.032 232.358 229.532 232.858C229.632 232.958 229.932 232.958 230.032 232.858C230.132 232.758 230.132 232.458 230.032 232.358C229.932 232.258 229.932 232.258 229.932 232.158C229.932 232.058 229.832 232.058 229.832 232.058C229.832 231.958 229.732 231.958 229.732 231.858V231.758C229.632 231.658 229.632 231.458 229.632 231.358V231.258C229.632 231.258 229.632 231.258 229.632 231.158C229.632 231.058 229.632 230.958 229.632 230.958C229.632 230.758 229.432 230.558 229.232 230.558C228.932 230.558 228.732 230.658 228.732 230.958Z" fill="#C87C0D"/>
<path d="M236.932 220.858C236.832 221.558 236.932 222.258 237.132 222.958C237.232 223.158 237.432 223.258 237.632 223.258C237.832 223.158 237.932 222.958 237.932 222.758C237.832 222.658 237.832 222.458 237.832 222.358C237.832 222.258 237.832 222.158 237.832 222.158V222.058C237.832 222.158 237.832 222.058 237.832 221.958C237.832 221.858 237.832 221.658 237.832 221.558C237.832 221.458 237.832 221.458 237.832 221.358V221.258C237.832 221.258 237.832 221.058 237.832 221.158C237.832 221.058 237.832 220.958 237.832 220.858C237.832 220.758 237.732 220.658 237.632 220.658C237.232 220.558 236.932 220.658 236.932 220.858Z" fill="#C87C0D"/>
<path d="M210.032 197.758C210.832 197.858 211.632 197.758 212.432 197.558C212.632 197.458 212.732 197.258 212.732 197.058C212.632 196.858 212.432 196.758 212.232 196.758C212.032 196.858 211.832 196.858 211.732 196.858C211.532 196.858 211.432 196.958 211.232 196.958C210.832 196.958 210.432 196.958 210.132 196.958C209.932 196.958 209.732 197.158 209.732 197.358C209.632 197.658 209.832 197.758 210.032 197.758Z" fill="#C87C0D"/>
<path d="M211.132 195.258C211.432 195.158 211.832 194.958 212.132 194.858C212.232 194.858 212.332 194.758 212.332 194.658C212.332 194.558 212.432 194.458 212.332 194.358C212.332 194.258 212.232 194.158 212.132 194.158C212.032 194.158 211.932 194.058 211.832 194.158C211.532 194.258 211.132 194.458 210.832 194.558C210.732 194.558 210.632 194.658 210.632 194.758C210.632 194.858 210.532 194.958 210.632 195.058C210.632 195.158 210.732 195.258 210.832 195.258C210.932 195.258 211.032 195.358 211.132 195.258Z" fill="#C87C0D"/>
<path d="M205.432 197.958C205.632 198.058 205.832 198.258 206.032 198.358C206.132 198.458 206.232 198.458 206.332 198.358C206.432 198.358 206.532 198.258 206.532 198.158C206.532 198.058 206.632 197.958 206.532 197.858C206.532 197.758 206.432 197.658 206.332 197.658C206.132 197.558 205.932 197.358 205.732 197.258C205.632 197.158 205.532 197.158 205.432 197.258C205.332 197.258 205.232 197.358 205.232 197.458C205.232 197.558 205.132 197.658 205.232 197.758C205.332 197.858 205.332 197.858 205.432 197.958Z" fill="#C87C0D"/>
<path d="M198.232 190.458C198.332 190.858 198.332 191.258 198.432 191.658C198.432 191.758 198.532 191.858 198.632 191.858C198.732 191.858 198.832 191.958 198.932 191.858C199.032 191.858 199.132 191.758 199.132 191.658C199.132 191.558 199.232 191.458 199.132 191.358C199.032 190.958 199.032 190.558 198.932 190.158C198.932 190.058 198.832 189.958 198.732 189.958C198.632 189.958 198.532 189.858 198.432 189.958C198.332 189.958 198.232 190.058 198.232 190.158C198.132 190.258 198.132 190.358 198.232 190.458Z" fill="#C87C0D"/>
<path d="M200.532 190.758C200.732 191.058 200.932 191.358 201.132 191.558C201.232 191.658 201.232 191.658 201.332 191.758C201.432 191.758 201.532 191.758 201.632 191.758C201.732 191.658 201.732 191.658 201.832 191.558C201.832 191.458 201.832 191.358 201.832 191.258C201.632 190.958 201.432 190.658 201.232 190.458C201.132 190.358 201.132 190.358 201.032 190.258C200.932 190.258 200.832 190.258 200.732 190.258C200.632 190.358 200.632 190.358 200.532 190.458C200.432 190.558 200.432 190.658 200.532 190.758Z" fill="#C87C0D"/>
<path d="M183.132 178.558C183.632 179.158 184.132 179.658 184.832 180.058C185.432 180.458 186.232 180.758 186.932 181.058C187.432 181.258 188.332 181.958 187.832 182.558C187.532 183.058 186.732 183.158 186.232 183.258C186.032 183.258 185.932 183.558 185.932 183.758C186.032 184.258 186.032 184.658 185.732 185.058C185.332 185.458 184.832 185.558 184.332 185.658C183.832 185.758 184.032 186.458 184.532 186.358C185.232 186.258 185.932 185.958 186.332 185.458C186.832 184.958 186.832 184.258 186.632 183.558C186.532 183.758 186.432 183.858 186.332 184.058C187.032 183.958 187.832 183.758 188.232 183.158C188.732 182.458 188.532 181.558 187.932 181.058C187.332 180.458 186.332 180.258 185.632 179.858C184.832 179.458 184.132 178.858 183.532 178.058C183.332 177.658 182.832 178.258 183.132 178.558Z" fill="#7E4927"/>
<path d="M140.132 164.358C144.332 164.758 148.432 166.458 151.732 169.158C152.132 169.458 152.632 168.958 152.232 168.658C148.732 165.858 144.532 164.058 140.132 163.658C139.632 163.558 139.632 164.358 140.132 164.358Z" fill="#C23F37"/>
<path d="M129.832 103.858C131.632 107.858 132.532 112.258 135.332 115.658C136.032 116.558 136.932 117.258 137.832 117.858C138.232 118.158 138.632 117.458 138.232 117.258C134.632 114.958 133.232 110.758 131.832 107.058C131.432 105.858 130.932 104.658 130.432 103.558C130.232 103.058 129.632 103.458 129.832 103.858Z" fill="#54260C"/>
<defs>
<filter id="filter0_d_439_243" x="0" y="0" width="340" height="328.789" filterUnits="userSpaceOnUse" color-interpolation-filters="sRGB">
<feFlood flood-opacity="0" result="BackgroundImageFix"/>
<feColorMatrix in="SourceAlpha" type="matrix" values="0 0 0 0 0 0 0 0 0 0 0 0 0 0 0 0 0 0 127 0" result="hardAlpha"/>
<feOffset/>
<feGaussianBlur stdDeviation="4"/>
<feComposite in2="hardAlpha" operator="out"/>
<feColorMatrix type="matrix" values="0 0 0 0 0 0 0 0 0 0 0 0 0 0 0 0 0 0 0.15 0"/>
<feBlend mode="normal" in2="BackgroundImageFix" result="effect1_dropShadow_439_243"/>
<feBlend mode="normal" in="SourceGraphic" in2="effect1_dropShadow_439_243" result="shape"/>
</filter>
</defs>
</svg>
