<svg width="21" height="21" viewBox="0 0 21 21" fill="none" xmlns="http://www.w3.org/2000/svg">
<path fill-rule="evenodd" clip-rule="evenodd" d="M10.875 20.5C5.355 20.5 0.875 16.03 0.875 10.5C0.875 4.98 5.355 0.5 10.875 0.5C16.405 0.5 20.875 4.98 20.875 10.5C20.875 16.03 16.405 20.5 10.875 20.5ZM14.065 14.21C14.185 14.28 14.315 14.32 14.455 14.32C14.705 14.32 14.955 14.19 15.095 13.95C15.305 13.6 15.195 13.14 14.835 12.92L11.275 10.8V6.18C11.275 5.76 10.935 5.43 10.525 5.43C10.115 5.43 9.775 5.76 9.775 6.18V11.23C9.775 11.49 9.915 11.73 10.145 11.87L14.065 14.21Z" fill="url(#paint0_linear_11_116)"/>
<defs>
<linearGradient id="paint0_linear_11_116" x1="10.875" y1="0.5" x2="10.875" y2="20.5" gradientUnits="userSpaceOnUse">
<stop stop-color="#5A61FF"/>
<stop offset="1" stop-color="#DA56FF"/>
</linearGradient>
</defs>
</svg>
