<svg width="194" height="175" viewBox="0 0 194 175" fill="none" xmlns="http://www.w3.org/2000/svg">
<path d="M72.8947 168.98L68.6287 166.543C53.7993 158.011 55.6277 142.978 72.8947 133.024L120.836 105.397C138.103 95.4431 163.902 94.4274 178.935 102.959L183.201 105.397C198.03 113.929 196.202 128.961 178.935 138.915L130.993 166.543C113.726 176.497 87.7241 177.512 72.8947 168.98Z" fill="#F2E8DF"/>
<path d="M136.884 79.1917C141.354 81.4262 146.229 82.8482 151.104 84.2702C151.511 84.4733 152.12 84.4734 152.526 84.8797C152.933 85.286 153.136 85.6922 153.339 86.0985C155.98 92.8022 158.621 99.5058 159.433 106.616C159.839 109.257 159.839 112.101 160.652 114.538C162.074 118.601 167.152 114.335 168.778 112.101C170.606 109.866 171.418 107.022 171.825 104.178C171.825 103.366 172.028 102.553 171.825 101.944C171.622 101.131 171.012 100.318 170.403 99.709C167.965 97.0682 164.918 94.8336 162.887 91.5833C161.668 89.5519 161.058 87.3173 160.246 85.0828C159.433 83.0513 158.824 80.8168 157.808 78.7854C156.589 75.9414 154.761 74.3163 152.323 72.6912C148.667 70.4566 145.213 67.6126 142.979 63.956C140.338 59.69 139.728 54.2052 136.884 50.1424C136.681 49.7361 136.478 49.533 136.072 49.3298C135.666 49.3298 135.259 49.3298 135.056 49.5329C132.415 50.7518 129.774 52.1738 127.54 54.0021C125.305 55.8304 123.68 58.6744 123.68 61.5183C123.274 69.8472 130.384 76.1445 136.884 79.1917Z" fill="#1A1A1A"/>
<path d="M88.9426 73.9101C91.1772 75.5353 91.9898 78.5824 92.1929 81.4264C93.0055 87.7238 92.5992 94.2244 93.2087 100.725C94.2244 111.085 97.8809 121.039 101.537 130.993C102.147 132.415 102.756 134.04 103.569 135.259C103.975 135.868 104.381 136.275 104.788 136.681C105.6 137.494 106.413 138.509 107.022 139.525C108.647 142.572 107.632 146.432 105.397 148.87C103.975 150.698 101.741 152.12 99.7091 153.135C99.7091 152.932 99.7091 152.729 99.506 152.526C98.4903 153.745 97.2714 154.761 95.6463 155.37C95.24 154.761 95.0368 154.151 94.6305 153.542C93.6148 153.948 92.8023 152.526 92.5991 151.714C91.9897 149.682 92.3961 147.651 93.2087 145.619C93.6149 144.604 94.2244 143.791 94.2244 142.775C94.2244 141.963 93.818 141.353 93.6148 140.541C93.2086 139.525 92.5992 138.306 91.9897 137.29C88.9426 130.79 85.4893 124.493 82.0358 118.398C73.707 103.975 64.9719 88.3332 65.9876 71.0662C65.9876 72.4882 68.4253 74.3165 69.441 74.7228C71.0662 75.5353 73.7069 75.7384 75.3321 75.3322C76.7541 74.9259 77.3635 73.9102 78.7855 73.3007C81.8326 72.285 86.0986 71.6756 88.9426 73.9101Z" fill="#1A1A1A"/>
<path d="M161.261 32.6722C160.855 31.8597 160.652 31.0471 160.855 30.4377C160.855 28.4063 161.464 26.578 161.871 24.7497C162.277 22.9214 162.683 20.89 162.48 18.8586C161.871 14.5926 158.011 11.9518 153.745 12.1549C152.526 12.1549 151.307 12.5612 150.088 12.9675C148.87 13.5769 148.057 14.3894 146.838 14.9989C144.604 16.2177 141.353 16.0146 139.931 13.9832C138.713 12.358 139.119 9.92034 140.134 8.09206C141.556 5.65436 143.791 3.62298 146.432 2.60727C149.073 1.38841 151.917 0.982093 154.761 0.982093C161.058 0.778951 167.762 2.81038 172.028 7.27951C173.043 8.29521 173.856 9.51408 174.466 10.5298C176.903 14.9989 177.309 21.9057 175.278 26.578C174.059 29.6251 171.012 32.4691 168.168 34.0943C166.746 34.7037 164.715 35.11 163.293 34.7037C162.277 34.2974 161.668 33.4848 161.261 32.6722Z" fill="#E8E4E1"/>
<path d="M103.163 33.8911C110.476 33.8911 117.789 32.4691 124.696 30.0314C129.775 28.2031 134.65 25.5623 139.932 23.5309C145.823 21.2963 152.933 19.8743 159.23 21.2963C161.668 21.9057 164.105 22.7183 166.137 24.3434C169.793 26.9843 172.434 32.6722 173.45 36.9382C174.872 43.6419 173.247 50.5487 170.2 56.4399C168.778 59.487 166.746 62.1278 164.512 64.3624C159.23 70.0504 152.933 74.9257 146.229 78.9886C143.791 80.4106 141.354 81.8326 139.119 83.6609C136.478 85.8954 134.65 88.7394 132.415 91.1771C129.775 94.2242 126.931 96.8651 123.68 99.3028C120.024 101.944 116.164 104.178 111.898 105.397C106.21 107.022 100.116 107.022 94.4278 106.413C91.3807 106.006 88.3335 105.6 85.4895 104.381C82.2393 102.959 79.5985 100.725 77.1608 98.287C72.0822 93.2085 68.0193 86.9111 65.1753 80.0043C63.7534 76.5509 62.7376 72.8943 62.1282 69.2378C61.7219 67.0032 61.1126 62.5341 62.3314 60.2995C62.5346 59.8933 62.9409 59.8932 63.3471 59.6901C69.0351 58.2681 73.9105 54.4084 77.7702 49.9393C80.0047 47.2985 81.8331 44.4545 83.6613 41.6105C85.0833 39.1728 85.8959 36.1257 87.7242 33.8911C89.5525 31.8597 90.7713 32.0628 93.0058 32.8754C95.2404 33.4848 97.6781 33.688 100.116 33.8911C101.335 33.8911 102.35 33.8911 103.163 33.8911Z" fill="#424242"/>
<path d="M96.4591 107.632C96.6623 109.257 96.6623 110.882 96.4591 112.507C96.256 114.945 95.0371 117.586 94.4277 120.023C92.5994 126.93 90.9743 134.04 89.7555 141.15C89.1461 144.4 88.7397 147.854 87.3178 150.901C86.7083 152.12 85.4895 153.135 84.6769 154.354C83.6612 155.573 82.8486 156.995 82.2392 158.62C81.6298 160.042 81.2235 161.87 82.0361 163.292C82.2393 163.496 82.2392 163.902 82.6455 164.105C82.8487 164.308 83.2549 164.308 83.458 164.105C83.6611 165.121 83.6612 166.136 83.8643 167.152C85.0832 166.949 86.302 166.543 87.5208 165.933C87.5208 166.543 88.1303 166.746 88.7398 166.746C91.99 166.746 95.0371 165.324 97.4748 163.292C99.1 161.87 100.725 160.245 101.335 158.214C101.741 156.995 101.741 155.573 101.741 154.151C101.741 152.729 101.944 151.51 102.35 150.088C102.96 147.244 103.163 144.4 103.569 141.759C105.804 126.118 111.695 110.882 115.555 95.6462C116.367 92.1928 117.383 88.9425 117.18 85.4891C116.976 82.0357 115.351 78.3792 112.507 76.754C110.882 75.7383 109.054 75.5352 107.429 75.5352C102.96 75.5352 98.4905 78.176 96.0528 81.8326C93.412 85.4891 92.5994 90.1614 93.0057 94.8336C93.2088 97.0682 93.8182 99.5059 94.6308 101.537C95.2402 103.366 96.4591 104.584 96.6622 106.413C96.4591 106.21 96.4591 107.022 96.4591 107.632Z" fill="#C9C9C9"/>
<path d="M96.0527 152.12C96.6621 153.338 96.8654 154.557 97.2716 155.979C97.2716 156.386 97.4748 156.792 97.2716 157.198C97.0685 157.604 96.459 157.808 96.0527 158.011C93.2087 159.026 90.1617 159.636 87.1145 159.839C85.8957 160.042 84.4736 160.042 83.8642 159.026C83.4579 158.214 83.6611 157.198 84.2705 156.386C85.2862 155.167 86.9114 154.557 88.1303 153.338C89.146 152.323 89.5522 151.307 90.1617 150.088C91.7868 147.244 95.037 149.682 96.0527 152.12Z" fill="#424242"/>
<path d="M97.8811 118.195C96.256 119.617 95.2403 121.648 94.834 123.883C94.6309 124.492 94.6309 125.102 94.834 125.508C95.0371 126.118 95.8497 126.524 96.4591 126.727C97.8811 127.133 99.3031 127.133 100.928 126.727C101.335 126.727 101.538 126.524 101.741 126.524C102.147 126.321 102.35 126.117 102.553 125.711C103.772 123.883 104.382 121.852 104.382 119.82C104.382 118.804 104.178 117.992 103.772 117.179C102.96 115.96 101.131 115.351 99.9125 115.554C98.8968 115.757 99.3031 115.96 99.0999 116.57C98.6936 117.179 98.4906 117.586 97.8811 118.195Z" fill="#424242"/>
<path d="M123.68 34.9067C124.29 34.9067 125.102 35.1098 125.712 35.313C127.743 36.1256 129.774 36.9381 131.603 38.3601C133.025 39.1727 134.243 40.3916 135.056 41.8136C135.665 43.0324 135.665 44.4544 135.665 45.8764C135.665 48.3141 135.462 51.1581 133.431 52.377C131.806 53.3927 129.571 52.9864 128.352 54.4084C127.337 55.4241 127.133 56.8461 126.93 58.2681C126.118 61.9246 122.867 65.1749 119.008 65.5812C116.773 65.7843 114.539 65.1749 112.507 64.3623C110.07 63.1435 107.632 61.7215 106.007 59.4869C104.382 57.2524 103.163 54.6115 103.366 51.7675C103.366 50.7518 103.772 49.7361 104.382 48.9235C104.788 48.3141 105.6 47.9078 106.21 47.5015C109.054 45.8764 112.304 45.0638 115.554 44.6575C119.008 44.4544 120.227 43.6419 120.227 40.1884C120.024 38.157 120.633 35.1099 123.68 34.9067Z" fill="#E8E4E1"/>
<path d="M52.9865 15.8114C51.5645 15.6083 50.1426 15.6082 48.7206 16.0145C47.0955 16.6239 45.8766 18.2491 45.0641 19.8743C42.8295 23.9371 42.2201 28.8125 43.439 33.2816C45.6735 29.4219 48.5174 25.7654 52.3771 23.5308C53.7991 22.7182 55.2211 22.1088 56.44 21.0931C57.2525 20.2805 58.8777 18.2491 57.862 17.0302C56.8463 16.2177 54.2054 16.0146 52.9865 15.8114Z" fill="#1A1A1A"/>
<path d="M64.769 18.4522C63.1438 18.2491 61.5186 18.0459 59.8935 18.0459C53.7992 18.0459 47.705 21.2962 44.0485 26.3747C41.2045 30.2344 39.9856 35.1099 39.3762 39.9853C39.1731 42.423 39.1731 45.4701 37.9542 47.5015C36.7353 49.5329 35.9227 51.5643 36.7353 53.7989C37.3447 56.0335 39.3762 57.6586 39.9856 59.8931C40.7982 62.3309 39.5793 64.1592 39.5793 66.5969C39.5793 68.222 40.1887 70.0502 41.6107 71.066C42.6264 71.8785 44.0485 72.0817 45.4705 72.0817C48.7207 72.0817 51.7678 70.6597 54.4086 68.8314C57.0495 67.2062 59.6904 64.9717 62.3312 63.3466C66.5972 60.7057 71.4726 59.2837 75.9418 57.0492C80.4109 54.8146 84.88 51.7675 87.1146 47.2984C90.3648 40.7978 88.3333 32.8753 83.4579 27.5936C78.9888 22.515 72.4883 19.6711 65.9878 18.4522C65.3783 18.6553 65.1752 18.4522 64.769 18.4522Z" fill="#E8E4E1"/>
<path d="M40.7983 57.8618C41.6109 58.0649 42.4234 58.0649 42.8297 57.4555C43.6423 58.4712 44.8612 58.8775 46.2832 59.2838C48.1114 59.6901 50.1429 60.0963 52.1743 59.8932C53.3932 59.69 54.4089 59.2838 55.6278 59.0806C57.0498 58.4712 58.4717 57.8618 59.8937 57.2524C61.1126 56.6429 62.3314 56.2366 63.5502 56.0335C64.5659 56.0335 65.7848 56.2366 65.988 57.2524C66.1911 57.8618 65.7848 58.6743 65.1753 59.0806C63.9565 60.2995 62.3314 60.9089 60.9094 61.7214C57.8623 63.3466 55.2215 65.7843 52.1743 67.0031C50.7523 67.6126 49.1272 68.0189 47.5021 68.222C46.0801 68.4251 44.4549 68.222 43.0329 67.6126C41.8141 67.0032 41.0015 66.1906 40.3921 64.9717C39.7827 63.7529 40.1889 62.534 39.7826 61.3152C39.5795 60.5026 38.9701 59.69 38.3607 59.0806C36.9387 57.2523 36.126 54.8146 36.7355 52.7832C36.9386 53.5958 37.1419 54.6115 37.345 55.4241C37.9544 56.6429 39.3763 57.4555 40.7983 57.8618Z" fill="#FF8A8A"/>
<path d="M42.6264 65.5813C44.4546 66.8002 46.8923 66.8001 48.9237 65.7844C50.9551 64.9718 52.5804 63.3467 54.2055 61.9247C51.9709 62.7373 49.5332 62.331 47.2986 61.7216C46.0798 61.3153 44.8609 60.909 43.6421 60.5028C42.8295 60.2996 41.4075 59.487 40.798 60.2996C40.3918 61.1122 40.5949 62.5341 40.798 63.1436C41.0012 64.1593 41.8138 64.9719 42.6264 65.5813Z" fill="#FF5757"/>
<path d="M66.8005 76.754C66.5973 75.9414 66.5972 75.1288 66.1909 73.91C66.1909 73.91 65.7847 72.6911 65.3784 71.8785C64.769 70.8628 64.5658 70.4566 63.9564 69.644C63.7533 69.4409 62.7376 67.8157 60.7062 65.9874C59.8936 65.378 58.8779 64.5654 57.8622 63.956C57.4559 63.5497 56.8465 63.3466 56.2371 62.9403C56.0339 62.7372 54.4088 61.9246 52.1742 60.9089C50.1428 60.0963 48.5176 59.6901 47.9082 59.4869C47.0956 59.2838 45.4705 58.8775 43.2359 58.4712C41.0014 58.0649 39.3762 57.8618 38.5637 57.8618C37.1417 57.6586 33.4852 57.4555 28.8129 57.8618C24.3438 58.268 21.2966 59.0807 19.4683 59.4869C18.8589 59.6901 17.0306 60.0963 15.2024 60.9089C13.1709 61.7215 11.9521 62.534 11.1395 62.9403C10.327 63.3466 9.31122 63.9561 8.70179 64.5655C8.29551 64.9718 7.68606 65.3781 7.27977 65.5812C6.67035 66.1906 5.85785 66.8 5.45157 67.4095C4.84214 68.222 3.82638 69.4408 3.62324 69.8471C2.60753 71.2691 2.40442 72.0817 1.99813 72.8943C1.59185 73.91 1.38866 74.9257 1.18551 75.7383C0.982372 76.3477 0.982422 76.5508 0.982422 77.5666C0.982422 77.9728 0.982422 78.3791 0.982422 78.5823V79.3948C0.982422 80.2074 0.982372 82.6451 2.20122 85.4891C3.01379 87.3174 4.23267 89.1456 5.65466 90.7708C6.26409 91.3802 7.07673 92.1928 7.8893 92.8022C8.49872 93.2085 9.31129 93.8179 9.92072 94.2242C10.7333 94.8336 11.3427 95.2399 13.5772 96.2556C13.5772 96.2556 15.2024 97.0682 17.6401 97.8807C19.6715 98.4902 21.0935 98.8965 22.1092 99.0996C26.1721 100.115 30.2349 100.318 31.4537 100.318C32.2663 100.318 33.0789 100.318 33.8914 100.318C34.704 100.318 35.5166 100.318 36.3292 100.318C37.1417 100.318 37.9542 100.115 38.7668 100.115C38.7668 100.115 40.7983 99.9121 43.4391 99.5059C45.4706 99.0996 47.0957 98.6933 48.1114 98.4901C50.7522 97.6776 52.5805 96.865 52.5805 96.865C53.1899 96.6619 54.0024 96.2556 54.4087 96.0525C55.0181 95.6462 56.0339 95.2399 56.6434 94.8336C58.8779 93.4116 59.4873 93.0053 60.7062 91.7865C61.3156 91.1771 62.5344 89.9582 63.1438 89.1456C64.3627 87.5205 64.769 86.5048 64.9721 85.8954C65.5816 84.4734 65.9878 83.2545 65.9878 82.8483C66.191 82.442 66.191 81.6294 66.3941 81.2231C66.3941 80.6137 66.3941 80.4105 66.5972 79.3948V78.5823C67.0035 78.176 67.0036 77.3634 66.8005 76.754ZM12.3583 63.1435C24.1406 56.2366 43.6422 56.2366 55.4244 63.1435C67.4098 70.0503 67.4099 81.2231 55.6277 88.1299C43.8454 95.0367 24.3438 95.0367 12.5615 88.1299C0.576163 81.2231 0.576088 70.0503 12.3583 63.1435Z" fill="#256945"/>
<path d="M55.6276 63.1435C67.613 70.0503 67.6129 81.2231 55.8307 88.1299C44.0484 95.0368 24.5468 95.0368 12.7646 88.1299C0.779188 81.2231 0.779237 70.0503 12.5615 63.1435C24.3437 56.2367 43.6422 56.2367 55.6276 63.1435Z" fill="#338259"/>
<path d="M50.1426 62.9403C59.0809 68.0188 59.0808 76.5508 50.3457 81.6293C41.4075 86.7079 26.9845 86.7079 18.0462 81.6293C9.10798 76.5508 9.10791 68.0188 17.843 62.9403C26.7813 57.8617 41.2044 57.8617 50.1426 62.9403Z" fill="#4BA677"/>
<path d="M35.923 57.0492C36.1262 57.6587 36.7356 58.6744 37.3451 58.8775C38.1576 59.2838 39.1732 59.2838 39.7827 58.6743C39.7827 58.6743 39.9858 58.4713 40.189 58.4713C40.3921 58.4713 40.3922 58.6743 40.3922 58.6743C40.5953 59.2838 41.0016 59.6901 41.4079 60.0964C42.6268 61.3152 45.2676 61.1121 47.0959 60.9089C49.3304 60.7058 51.565 60.2995 53.5964 59.8932C55.831 59.2838 58.0655 58.8775 60.3001 58.0649C62.3315 57.2524 64.3628 56.0335 66.1911 54.6115C64.9723 55.0178 63.7534 55.4241 62.5346 55.6272C60.5032 56.0335 58.4718 56.4398 56.2372 57.0492C54.2058 57.4555 52.1744 57.4555 50.143 57.0492C48.5178 56.8461 46.8927 56.2366 45.2675 55.6272C44.455 55.2209 43.4393 55.0178 42.6267 54.4084C41.4079 53.5958 40.7984 52.1738 39.7827 50.955C39.3764 50.3456 38.767 49.9393 38.1576 49.7361C37.9544 49.7361 37.5482 49.7361 37.3451 49.7361C37.1419 49.7361 36.9388 49.7361 36.9388 49.533C36.5325 49.9392 36.3293 50.7519 36.1261 51.3613C35.923 51.9707 35.7198 52.5801 35.7198 53.1896C35.5167 54.6115 35.5168 55.8304 35.923 57.0492Z" fill="#E8E4E1"/>
<path d="M57.0496 37.1412C56.6434 37.5475 56.2371 37.9538 56.2371 38.36C56.034 39.1726 56.4403 39.9852 56.8465 40.5946C57.2528 41.204 57.8623 41.8135 58.2686 42.626C58.4717 43.0323 58.4717 43.4386 58.6749 43.6417C59.0812 44.048 59.4874 44.048 59.8937 44.048C60.3 44.048 60.7063 43.8449 61.3157 43.6417C62.1283 43.2355 63.1439 43.0323 63.9565 43.6417C64.3628 43.8449 64.769 44.4543 65.1753 44.8606C65.9879 45.47 67.0037 45.4701 67.8163 45.2669C68.6288 45.0638 69.4413 44.4543 70.2539 44.048C70.457 43.8449 70.6602 43.8449 70.6602 43.6417C70.8633 43.4386 70.8634 43.2355 70.8634 43.0323C71.0665 42.0166 70.6602 40.7978 70.4571 39.7821C70.4571 39.1726 70.457 38.5632 70.2539 38.1569C70.0507 37.7507 69.8477 37.3444 69.4414 37.1412C68.8319 36.5318 68.0193 36.1255 67.0036 35.9224C66.1911 35.7192 65.1754 35.9223 64.3628 36.5318C63.9565 36.7349 63.7534 37.1412 63.3471 37.5475C62.7377 37.9538 62.1283 38.36 61.3157 38.36C60.9094 38.36 60.7063 38.36 60.3 38.36C60.0968 38.1569 59.8937 37.9538 59.6906 37.9538C59.2843 36.5318 58.0653 36.3287 57.0496 37.1412Z" fill="#424242"/>
<path d="M46.6892 30.0315C46.6892 30.4377 46.486 30.844 46.6892 31.2503C46.8923 31.6566 47.0955 31.6566 47.5018 31.8597C48.5175 32.6723 49.3301 34.0943 49.1269 35.3131C48.9238 36.3288 48.5175 37.1414 47.7049 37.7508C47.0955 38.3603 46.283 38.9697 45.4704 39.3759C45.0641 39.5791 44.861 39.7823 44.4547 39.7823C44.0484 39.7823 43.8453 39.7823 43.439 39.7823C43.0327 39.7823 42.6264 39.5791 42.4233 39.3759C42.2201 39.1728 42.017 38.7665 42.017 38.5634C41.6107 37.5477 41.2044 36.3288 41.4076 35.3131C41.6107 34.7037 41.8138 34.0943 42.22 33.4848C42.6263 33.0786 42.8295 32.4692 43.2358 32.0629C43.642 31.4535 44.2515 31.0471 44.4547 30.4377C44.6578 30.0314 44.6578 29.422 45.0641 29.0158C45.4704 28.4063 46.6892 29.2189 46.6892 30.0315Z" fill="#424242"/>
<path d="M61.3155 40.3917C62.1281 39.5791 63.3469 39.1729 64.5658 39.1729C65.7846 39.376 66.8004 39.9854 67.4098 41.0011C66.5972 42.0168 65.3783 42.4231 64.1595 42.4231C63.1437 42.4231 62.3313 42.22 61.3155 42.0168C61.1124 42.0168 60.5029 41.8136 60.5029 41.4074C60.7061 41.0011 61.1124 40.5948 61.3155 40.3917Z" fill="#262626"/>
<path d="M63.7536 42.22C64.5389 42.22 65.1755 41.5833 65.1755 40.798C65.1755 40.0126 64.5389 39.376 63.7536 39.376C62.9682 39.376 62.3315 40.0126 62.3315 40.798C62.3315 41.5833 62.9682 42.22 63.7536 42.22Z" fill="#FFEC3D"/>
<path d="M63.7535 41.6105C64.2023 41.6105 64.566 41.2467 64.566 40.7979C64.566 40.3491 64.2023 39.9854 63.7535 39.9854C63.3048 39.9854 62.9409 40.3491 62.9409 40.7979C62.9409 41.2467 63.3048 41.6105 63.7535 41.6105Z" fill="#424242"/>
<path d="M63.3472 41.0011C63.6838 41.0011 63.9566 40.7282 63.9566 40.3916C63.9566 40.0551 63.6838 39.7822 63.3472 39.7822C63.0106 39.7822 62.7378 40.0551 62.7378 40.3916C62.7378 40.7282 63.0106 41.0011 63.3472 41.0011Z" fill="white"/>
<path d="M45.8768 33.891C45.0643 33.2815 44.0486 33.0784 43.0329 33.2815H42.8297C42.8297 33.2815 42.8298 33.4846 42.6266 33.4846C42.4235 34.0941 42.4234 34.7035 42.8297 35.3129C43.0329 35.9223 43.6424 36.3286 44.0486 36.5318C44.8612 36.9381 46.2831 36.9381 46.8925 36.1255C47.7051 35.313 46.4863 34.2972 45.8768 33.891Z" fill="#262626"/>
<path d="M45.8766 35.3131C45.8766 36.1257 45.4704 36.7351 44.8609 36.7351C44.2515 36.7351 43.8452 35.9226 43.8452 35.11C43.8452 34.2974 44.2515 33.688 44.8609 33.688C45.4704 33.688 45.8766 34.5005 45.8766 35.3131Z" fill="#FFEC3D"/>
<path d="M45.2672 35.11C45.2672 35.5163 45.0641 35.7194 44.6578 35.7194C44.4546 35.7194 44.2515 35.3131 44.2515 34.9068C44.2515 34.5005 44.4546 34.2974 44.8609 34.2974C45.064 34.5005 45.2672 34.7037 45.2672 35.11Z" fill="#424242"/>
<path d="M45.2671 34.5006C45.2671 34.7037 45.0639 34.9069 44.8608 34.9069C44.6577 34.9069 44.6577 34.7037 44.6577 34.5006C44.6577 34.2975 44.8609 34.0943 45.064 34.0943C45.064 33.8912 45.2671 34.0943 45.2671 34.5006Z" fill="white"/>
<path d="M48.518 37.1414C47.5022 38.3602 46.6897 39.579 45.4708 40.5947C44.252 41.8136 42.83 43.2356 41.408 44.4544C39.7828 45.8764 38.1577 47.5015 37.5482 49.533C36.7357 52.1738 37.142 55.4241 39.3766 57.2524C40.3923 58.065 41.4079 58.4713 42.6268 58.4713C44.8613 58.4713 46.6896 56.8461 48.1116 55.0178C49.7368 52.7833 50.9556 50.3456 51.9713 47.9079C54.409 42.423 57.0499 36.9382 57.253 30.8439C57.253 30.4377 57.253 29.8282 57.0498 29.4219C56.8467 29.0156 56.4404 28.6094 56.0341 28.6094C55.4247 28.6094 55.0185 29.0156 54.6122 29.4219C52.1745 31.4533 50.7525 34.5005 48.518 37.1414Z" fill="#F9FBF6"/>
<path d="M38.3606 47.9078C37.9543 48.3141 37.7511 48.7204 37.548 49.3298C37.1417 50.3456 37.1417 51.3613 37.3449 52.377C37.548 53.3927 38.1574 54.2052 39.1731 54.6115C39.7825 54.8146 40.5951 55.0178 41.2045 55.221C41.6108 55.4241 42.2202 55.8304 42.6265 56.0335C43.4391 56.4398 44.4548 56.2367 45.2673 56.0335C46.4862 55.6272 48.5176 54.8147 48.7208 53.3927C48.9239 52.377 48.9239 51.3613 48.7208 50.3456C48.1114 48.9236 46.8925 48.1109 45.4706 47.5015C44.2517 46.8921 42.8297 46.689 41.6108 46.689C40.392 46.4858 39.1732 46.8921 38.3606 47.9078Z" fill="#424242"/>
<path d="M45.2673 52.5801C44.861 52.3769 44.2516 52.1738 43.8453 52.1738C43.6421 52.1738 43.439 52.1738 43.2359 52.1738C43.0327 52.1738 42.8296 52.5801 42.6265 52.7832C42.4233 53.3927 42.6265 54.2052 43.2359 54.6115C43.6422 54.8146 44.0485 55.0178 44.6579 55.0178C45.4705 55.0178 46.0798 55.0178 46.8924 54.8146C47.5018 54.4084 48.1113 53.799 48.1113 53.1895C48.1113 53.3927 47.5019 53.5958 47.2987 53.5958C47.0956 53.7989 46.6893 53.7989 46.283 53.5958C45.8767 53.5958 45.8767 53.3927 45.8767 53.1895C45.8767 52.9864 45.6736 52.7832 45.2673 52.5801Z" fill="#262626"/>
<path d="M39.7824 50.955C39.9855 51.1581 40.1887 51.5644 40.1887 51.9707C40.1887 52.377 39.9855 52.7833 39.7824 52.7833C39.5792 52.9864 39.173 52.7833 38.9699 52.5801C38.7668 52.377 38.5636 52.1739 38.3605 51.9707C37.7511 51.1581 37.5478 50.3456 37.751 49.3299C37.751 49.1268 37.9541 48.9236 38.1573 48.9236C38.1573 49.1267 38.1573 49.533 38.1573 49.7361C38.1573 49.9393 38.3605 50.1424 38.3605 50.1424C38.5636 50.3456 38.5635 50.1424 38.7667 50.1424C39.173 50.5487 39.3761 50.7519 39.7824 50.955Z" fill="#262626"/>
<path d="M154.964 84.2702C156.792 86.0985 158.621 88.1299 159.23 90.5676C160.043 94.2242 159.636 98.6933 159.839 102.35C160.043 106.006 160.246 109.663 158.621 112.913C157.605 115.148 155.777 116.976 154.761 119.414C153.948 121.242 153.948 123.68 154.558 125.711C154.558 125.914 154.761 125.914 154.761 126.117C154.964 126.117 155.167 125.914 155.37 125.914C155.167 125.914 155.167 127.539 155.167 127.946C156.386 128.352 157.605 127.946 158.417 127.133C158.417 127.336 158.417 127.743 158.214 127.946C160.449 127.133 162.48 126.117 164.309 124.695C165.527 123.68 166.543 122.461 167.356 121.242C167.762 120.429 168.168 119.414 168.168 118.398C168.168 117.179 167.965 116.367 167.356 115.351C166.34 113.116 166.746 110.679 167.153 108.241C168.371 100.725 169.387 93.0053 169.997 85.2859C170.2 82.2388 169.59 78.7854 170.2 75.7383C170.809 73.0974 172.231 70.4566 172.84 67.6126C174.669 60.2995 175.685 52.7832 175.075 45.267C174.872 43.0324 174.466 40.7978 173.45 38.7664C172.434 36.735 170.809 35.1099 168.575 34.5004C166.746 34.0941 164.918 34.2973 163.09 34.9067C153.745 37.7507 146.635 46.4858 145.01 56.2366C143.385 65.9875 146.838 76.1445 153.339 83.4576C154.355 83.6608 154.761 84.0671 154.964 84.2702Z" fill="#C9C9C9"/>
<path d="M157.402 70.2536C158.011 71.4724 159.23 72.0819 160.449 72.285C161.668 72.285 162.886 71.8787 163.902 71.0662C166.137 69.2379 166.949 65.9876 165.934 63.3468C165.73 62.5342 165.324 61.9248 165.121 61.1122C164.918 60.2996 165.121 59.6902 165.121 58.8776C165.121 58.0651 165.121 57.2525 164.715 56.6431C164.308 56.0336 163.496 55.6274 162.886 56.0337C162.683 56.2368 162.48 56.4399 162.277 56.6431C161.871 57.2525 161.464 57.8619 161.464 58.6745C161.261 59.4871 161.464 60.2996 161.464 61.1122C161.464 62.1279 161.464 63.1436 160.652 63.9562C160.042 64.5656 159.23 64.1594 158.417 64.5656C156.995 65.3782 156.792 68.8316 157.402 70.2536Z" fill="#424242"/>
<path d="M74.7227 29.6251C73.707 31.8597 73.5039 34.2974 73.5039 36.532C73.5039 40.3917 74.3164 44.4545 75.129 48.3142C75.5353 50.3456 76.1447 52.5802 77.1604 54.4085C77.973 55.8305 79.1918 57.0493 80.817 57.8619C82.6452 58.6744 83.661 58.065 85.2861 56.8462C88.5364 54.8147 91.1773 51.9707 93.2087 48.7205C95.4433 45.0639 96.8652 40.1885 94.8338 36.3288C93.615 33.8911 91.7867 31.6566 89.7553 30.0315C88.5364 29.0157 87.1144 28.2031 85.6924 27.1874C84.0673 26.1717 82.0358 25.156 80.2076 25.3592C77.5667 25.5623 75.7384 27.3906 74.7227 29.6251Z" fill="#5C5C5C"/>
</svg>
