<svg width="178" height="178" viewBox="0 0 178 178" fill="none" xmlns="http://www.w3.org/2000/svg">
<path d="M121.152 169.874C120.645 167.342 117.607 167.848 114.823 167.595C112.038 167.342 110.266 167.342 107.481 166.329C104.696 165.317 98.1137 164.557 95.8353 163.544C95.3289 163.291 95.0758 163.038 94.8226 163.038C93.81 163.038 92.5442 162.785 91.5315 162.532C89.253 164.81 87.2277 166.836 84.9492 169.114C85.7087 170.127 86.9745 170.886 88.4935 170.886C94.8226 171.139 121.658 172.658 121.152 169.874Z" fill="#4F1002"/>
<path d="M32.0376 135.19C29.2528 139.747 26.9743 144.304 29.7591 151.392C32.544 158.228 25.7085 161.772 25.7085 161.772C25.7085 161.772 26.2148 167.595 26.9743 170.886C27.7338 174.43 29.7591 175.696 33.8097 175.696C37.8603 175.696 36.5945 171.646 33.8097 171.392C31.0249 171.139 30.5186 166.582 32.2908 164.81C33.8098 163.291 40.1389 160.253 39.8857 154.177C39.3794 147.848 32.0376 135.19 32.0376 135.19Z" fill="#4F1002"/>
<path d="M35.0757 132.405C31.0251 135.696 26.4682 138.228 30.772 147.342C34.8226 156.456 39.8859 157.975 37.8606 161.519C36.0884 165.063 36.0885 165.823 39.8859 171.392C43.9366 176.962 43.9365 177.215 49.5061 177.722C55.0758 178.228 56.0885 174.937 52.5442 173.671C48.9999 172.405 48.4935 173.924 48.4935 173.924C48.4935 173.924 46.215 173.418 44.696 168.608C43.1771 163.797 48.2403 161.519 49.7593 159.747C51.2783 158.228 52.5441 155.949 52.291 150.127C52.291 150.127 54.3162 161.772 60.3922 165.316C66.4681 169.114 76.5948 170.633 80.1391 168.101C83.6834 165.57 83.4302 167.089 83.4302 167.089C83.4302 167.089 80.6454 174.177 88.7466 175.19C94.5694 175.949 121.405 176.709 121.152 174.177C120.645 171.646 117.607 172.152 114.823 171.899C112.038 171.646 110.266 171.646 107.481 170.633C104.696 169.62 98.1137 170.127 95.8352 169.114C93.8099 168.101 95.3289 166.835 97.3542 165.57C99.3795 164.304 100.392 152.658 100.392 151.139C100.392 150.127 100.392 146.076 96.0884 143.797C94.3163 142.785 90.5188 141.772 88.9998 141.772C83.6834 141.519 73.0505 144.051 68.9999 141.772C64.9492 139.494 61.9112 133.924 56.8479 130.886C51.7846 127.595 46.215 124.304 39.6327 125.57C33.0505 126.835 27.4808 128.608 22.6707 129.873C14.0631 131.899 2.16439 124.81 1.65806 120.76C1.65806 120.76 0.13903 127.595 5.96181 134.684C12.0378 141.519 21.9112 140 24.6961 139.494C27.9872 138.734 35.0757 132.405 35.0757 132.405Z" fill="#731C09"/>
<path d="M116.848 168.101C116.848 168.101 114.57 165.316 117.861 166.582C120.899 167.848 110.266 159.494 110.266 159.494L106.975 161.013L116.848 168.101Z" fill="#260C08"/>
<path d="M84.1899 156.962C86.4684 160 85.4557 172.405 95.8354 163.798C99.1266 161.013 103.684 161.013 107.987 164.304C112.038 167.342 115.582 170.886 116.848 168.861C117.354 168.355 116.342 167.595 114.823 165.823C112.038 163.291 110.772 162.532 110.772 162.025C110.772 160.506 113.304 164.051 116.848 166.076C122.165 169.114 126.468 165.57 124.949 163.798C123.684 162.025 121.658 160 120.392 158.228C118.873 156.456 121.405 153.418 117.608 149.367C113.81 145.57 110.266 144.81 105.203 145.823C101.405 146.582 92.5443 144.051 90.0127 142.785C86.9747 149.874 86.9748 149.874 84.1899 156.962Z" fill="#731C09"/>
<path d="M119.127 157.215C119.38 156.456 118.62 154.177 117.608 153.165C116.595 152.152 116.595 151.899 115.835 152.405C115.329 152.911 114.063 152.911 114.823 154.43C115.582 155.949 116.595 155.949 117.608 156.709C118.367 157.215 118.873 158.228 119.127 157.215Z" fill="#4F1002"/>
<path d="M118.367 155.19C118.114 154.684 116.848 154.937 117.101 155.696C117.354 156.456 118.873 156.203 118.367 155.19Z" fill="#260C08"/>
<path d="M124.19 163.038C124.443 163.291 124.696 163.544 124.949 163.798C125.709 164.81 124.696 166.329 122.924 167.089C122.671 166.076 122.671 164.557 124.19 163.038Z" fill="#260C08"/>
<path d="M109.759 151.646C109.759 151.646 106.721 151.139 106.721 155.443C106.721 158.734 104.949 169.873 101.405 168.101C95.8351 165.063 89.7591 148.861 110.519 145.57L109.759 151.646Z" fill="url(#paint0_linear_212_2174)"/>
<path d="M5.70869 134.684C11.7846 141.519 21.658 140 24.4429 139.494C26.4682 138.987 29.7593 136.962 32.0378 134.937C30.772 136.203 29.7593 137.722 29.253 139.747C32.0378 135.19 36.3415 132.405 35.0757 132.405C33.0504 132.152 30.772 132.658 28.4935 133.924C26.215 135.19 23.9365 136.456 21.658 135.19C19.3795 133.924 15.8352 134.684 13.5567 135.19C11.2783 135.696 7.98713 133.671 7.4808 132.405C6.97447 130.886 5.70868 129.62 2.92387 128.608C0.139058 127.595 1.15169 121.266 1.15169 121.266C1.15169 121.266 -0.367256 127.848 5.70869 134.684Z" fill="#4F1002"/>
<path d="M94.8226 143.544C92.7973 142.785 90.0125 142.025 88.7467 142.025C83.4302 141.772 72.7973 144.304 68.7467 142.025C64.6961 139.747 61.658 134.177 56.5947 131.139C52.7973 128.861 48.7467 126.329 44.4429 125.823C46.215 126.582 47.4809 126.835 47.2277 128.861C46.9745 131.899 52.0378 137.721 56.5947 138.734C61.1517 139.747 60.3923 139.24 62.6707 143.797C64.9492 148.354 66.7213 146.835 70.772 148.101C74.5694 149.367 79.6327 144.051 81.9112 145.57C84.4428 147.089 86.9745 146.329 90.2657 146.835C91.7847 147.089 93.5568 145.316 94.8226 143.544Z" fill="#96321B"/>
<path d="M82.6709 170.127C82.9241 169.367 82.924 168.354 83.1772 167.342C83.1772 167.342 82.6709 168.608 82.6709 170.127Z" fill="#731C09"/>
<path d="M81.6583 160.253C77.8608 160.759 70.2658 162.025 65.4557 160.759C60.6455 159.747 59.8861 155.696 57.3544 149.114C54.5696 142.785 49.2532 141.013 51.2785 142.785C53.3038 144.557 52.2911 150.127 52.2911 150.127C52.2911 150.127 54.3164 161.772 60.3924 165.316C66.4683 169.114 76.5949 170.633 80.1393 168.101C83.6836 165.57 83.4304 167.089 83.4304 167.089C84.1899 160.253 81.6583 160.253 81.6583 160.253Z" fill="#4F1002"/>
<path d="M147.228 47.8481C150.519 48.6076 149.759 39.2405 148.24 44.0507C146.721 49.6203 141.405 66.5823 136.341 66.8355C130.519 67.0886 111.025 77.2152 109 74.9367C106.468 71.6456 111.531 70.8861 113.557 70.8861C118.114 71.1393 130.266 58.7342 133.81 59.7469C134.063 59.7469 139.379 46.3291 147.228 47.8481Z" fill="#EDAB72"/>
<path d="M147.987 112.911C147.481 115.19 145.962 121.519 146.974 123.038C147.987 124.557 150.519 130.38 149.253 140.253C147.987 150.127 146.974 156.709 147.987 158.734C149 160.76 150.012 163.038 149.506 164.557C149.253 166.076 140.645 171.899 135.076 170.633C135.076 170.633 136.341 168.861 140.139 165.063C142.924 162.279 142.164 148.861 141.405 144.304C140.898 139.747 135.835 125.316 136.341 122.025C136.848 118.734 134.063 107.595 134.063 107.595L147.987 112.911Z" fill="#EDAB72"/>
<path d="M149.253 162.025C149.253 162.025 151.278 164.81 150.265 168.355C149.253 171.899 147.987 168.101 147.987 168.101C147.987 168.101 144.696 171.646 143.936 173.671C143.177 175.696 143.936 176.203 136.088 176.203C132.291 176.203 130.519 174.684 131.278 173.165C131.784 172.152 133.81 171.139 135.329 170.38C135.329 170.127 141.405 172.658 149.253 162.025Z" fill="#001533"/>
<path d="M141.658 0.759548C141.658 0.759548 135.582 -0.506275 131.025 5.31651C126.468 11.1393 127.987 19.7469 132.544 28.6077C135.582 34.1773 137.101 36.4558 135.329 37.4684C133.557 38.4811 140.139 36.4558 141.405 31.6456C142.67 26.8355 145.962 21.0127 145.962 21.0127C145.962 21.0127 140.898 7.08866 140.898 6.8355C140.898 6.076 141.658 0.759548 141.658 0.759548Z" fill="#37120B"/>
<path d="M136.595 3.79761C136.088 4.5571 132.797 6.32925 132.291 10.1267C132.038 12.152 132.038 11.8989 132.544 12.6584C133.303 13.671 132.291 15.19 132.038 15.9495C131.278 17.2153 130.519 17.9748 131.784 18.4812C133.303 18.9875 132.797 19.747 132.544 20.2533C132.291 20.5065 133.05 21.266 133.303 21.266C133.303 21.266 132.797 22.0255 133.303 22.5318C133.81 23.0381 134.316 22.7849 134.569 23.2913C134.569 23.7976 134.316 25.5698 135.329 26.0761C136.088 26.5824 138.367 25.8229 139.379 25.5698C140.392 25.3166 141.658 25.0634 142.67 26.0761C146.468 28.6077 146.468 31.6457 146.468 31.6457C146.468 31.6457 147.987 33.1647 151.278 27.0887C151.784 26.3293 151.025 24.8103 150.772 23.2913C150.519 21.266 150.265 19.2406 150.265 19.2406C150.012 19.2406 140.645 9.62039 140.645 9.62039L136.595 3.79761Z" fill="#F4C297"/>
<path d="M153.05 111.139C152.544 113.418 149.506 122.279 150.519 123.798C151.531 125.317 154.063 131.139 152.797 141.013C151.531 150.886 150.519 157.468 151.531 159.494C152.544 161.519 153.557 163.798 153.05 165.317C152.797 166.836 144.19 172.658 138.62 171.392C138.62 171.392 139.886 169.62 143.43 165.823C146.215 163.038 145.456 149.62 144.696 145.063C144.19 140.506 139.126 125.063 139.633 121.772C140.139 118.481 139.886 108.354 139.886 108.354L153.05 111.139Z" fill="#F4C297"/>
<path d="M153.05 111.139C152.544 113.418 149.506 122.279 150.519 123.798C151.278 124.81 152.544 127.848 153.05 132.911L136.088 118.228L140.898 108.608L153.05 111.139Z" fill="url(#paint1_linear_212_2174)"/>
<path d="M152.797 74.9369C152.797 74.9369 168.747 96.7091 177.861 107.342C177.861 107.342 171.785 118.228 143.684 118.734V72.6584L152.797 74.9369Z" fill="#00265F"/>
<path d="M177.608 107.342C177.608 107.342 173.051 115.443 154.063 117.975C150.266 101.519 146.975 76.2026 146.975 76.2026L149.506 74.4304L152.544 75.1899C152.797 74.9368 168.747 96.7089 177.608 107.342Z" fill="#001533"/>
<path d="M140.392 28.1013C140.392 27.8482 140.646 25.3165 139.127 25.0634C138.114 25.0634 138.367 24.3039 138.62 23.5444L136.342 22.0254L142.924 21.7722L147.481 32.152L137.608 36.2026C137.608 36.2026 138.62 35.1899 139.633 31.3925C140.139 30.3798 140.139 29.114 140.392 28.1013Z" fill="#F4C297"/>
<path d="M137.607 36.4558C137.861 36.2026 138.62 34.9368 139.633 31.8988C140.139 30.633 140.139 29.114 140.392 28.1014C140.392 28.1014 140.392 27.8482 140.392 27.595C140.392 26.8355 140.139 25.3166 139.126 25.3166C140.139 24.8102 141.911 24.0507 143.177 22.7849L147.228 32.152C147.228 32.4052 147.228 32.4052 147.228 32.6583L137.607 36.4558Z" fill="url(#paint2_linear_212_2174)"/>
<path d="M134.316 74.9369C134.316 74.9369 118.367 96.7091 109.253 107.342C109.253 107.342 115.329 118.228 143.43 118.734V72.6584L134.316 74.9369Z" fill="#00265F"/>
<path d="M145.709 31.8989C145.709 31.8989 140.392 35.4432 138.114 35.6964C138.114 35.6964 131.531 44.8103 131.278 48.3546C131.025 51.8989 131.278 54.9369 133.557 57.9749C135.835 61.0129 134.063 74.6837 134.063 75.6964C134.063 75.6964 144.696 76.9622 152.797 74.9369C152.797 74.9369 152.797 57.2154 153.557 53.1647C154.316 49.1141 156.342 32.1521 145.709 31.8989Z" fill="#C90E00"/>
<path d="M145.202 32.1521C145.455 31.8989 145.709 31.8989 145.709 31.8989C156.341 32.1521 154.316 49.1141 153.557 53.1647C152.797 57.2154 152.797 74.9369 152.797 74.9369C151.025 75.4432 149.253 75.6964 147.228 75.6964L145.202 32.1521Z" fill="#AB0C00"/>
<path d="M134.569 2.2786C134.569 2.2786 134.823 12.6583 140.898 15.9495C143.683 17.4685 142.671 21.2659 142.417 22.2786C141.911 26.0761 144.443 38.4811 156.595 34.9368C156.595 34.9368 148.24 31.1394 153.303 20.2533C156.595 13.4178 152.797 -1.01254 140.139 0.506449L134.569 2.2786Z" fill="#37120B"/>
<path d="M143.684 36.7089C147.228 36.4558 148.494 38.7342 149.76 43.5444C151.279 49.114 155.076 68.6077 151.532 69.114C145.962 69.3672 136.089 37.4684 143.684 36.7089Z" fill="#EDAB72"/>
<path d="M152.797 162.785C152.797 162.785 154.823 165.57 153.81 169.114C152.797 172.658 152.797 175.443 153.05 176.709H151.531C151.531 176.709 147.481 176.709 139.633 176.709C135.835 176.709 134.063 175.19 134.823 173.671C135.329 172.658 137.354 171.646 138.873 170.886C138.873 170.886 144.949 173.418 152.797 162.785Z" fill="#00265F"/>
<path d="M156.848 34.9367C152.291 36.2026 149.253 35.4431 146.975 33.6709C144.19 28.6076 144.19 22.7848 147.228 15.9494C151.785 6.32914 143.684 1.01269 143.177 0.759521C153.557 1.51902 156.595 14.4304 153.557 20.5064C148.494 31.1393 156.848 34.9367 156.848 34.9367Z" fill="#260D08"/>
<path d="M152.797 62.2786C152.797 62.2786 155.329 67.8483 156.342 69.1141C157.607 70.1267 159.633 78.9875 162.164 82.2786C164.696 85.8229 159.633 85.0634 159.633 85.0634C159.633 85.0634 150.772 73.9242 147.228 63.7976C143.683 53.9242 152.797 62.2786 152.797 62.2786Z" fill="#EDAB72"/>
<path d="M113.81 71.1394C113.81 71.1394 111.278 71.6457 110.519 71.6457C109.759 71.6457 102.67 74.6837 102.924 76.2027C102.924 77.7217 103.43 76.9622 105.202 76.2027C106.974 75.4432 108.746 74.6837 109 75.4432C109 76.2027 107.481 76.2027 106.974 76.9622C106.721 77.4685 107.734 77.2154 109.506 76.9622C110.265 76.709 111.278 76.4559 111.784 76.2027C114.316 75.4432 114.569 74.6837 115.582 74.4305C116.088 74.1774 113.81 71.1394 113.81 71.1394Z" fill="#EDAB72"/>
<path d="M158.114 82.785C158.114 82.785 159.126 85.3166 159.38 86.3293C159.633 87.342 164.19 93.9242 165.962 93.4179C167.481 92.9116 166.468 92.6584 165.456 90.8863C164.19 89.1141 162.924 87.342 163.683 87.0888C164.443 86.8356 164.696 88.6078 165.709 88.8609C166.468 89.1141 165.709 87.8483 164.949 86.3293C164.696 85.5698 163.937 84.5572 163.683 84.0508C162.164 81.5192 161.405 81.5192 161.152 80.5065C160.899 79.4939 158.114 82.785 158.114 82.785Z" fill="#EDAB72"/>
<defs>
<linearGradient id="paint0_linear_212_2174" x1="113.205" y1="153.995" x2="96.6016" y2="160.296" gradientUnits="userSpaceOnUse">
<stop offset="0.1515" stop-color="#731C09"/>
<stop offset="0.3407" stop-color="#5E1607"/>
<stop offset="0.6386" stop-color="#420F03"/>
<stop offset="0.8121" stop-color="#380C02"/>
</linearGradient>
<linearGradient id="paint1_linear_212_2174" x1="156.825" y1="124.219" x2="139.228" y2="113.954" gradientUnits="userSpaceOnUse">
<stop stop-color="white"/>
<stop offset="1" stop-color="#F4C297"/>
</linearGradient>
<linearGradient id="paint2_linear_212_2174" x1="138.483" y1="24.3014" x2="142.482" y2="34.5966" gradientUnits="userSpaceOnUse">
<stop stop-color="#EDB380"/>
<stop offset="1" stop-color="#F4C297"/>
</linearGradient>
</defs>
</svg>
