<svg width="25" height="25" viewBox="0 0 25 25" fill="none" xmlns="http://www.w3.org/2000/svg">
<path fill-rule="evenodd" clip-rule="evenodd" d="M12.8748 2.50049C7.35154 2.50049 2.87476 6.97727 2.87476 12.5005C2.87476 18.0237 7.35154 22.5005 12.8748 22.5005C18.398 22.5005 22.8748 18.0237 22.8748 12.5005C22.8748 6.97727 18.398 2.50049 12.8748 2.50049ZM12.8748 4.00049C17.5695 4.00049 21.3748 7.8057 21.3748 12.5005C21.3748 17.1953 17.5695 21.0005 12.8748 21.0005C8.17997 21.0005 4.37476 17.1953 4.37476 12.5005C4.37476 7.8057 8.17997 4.00049 12.8748 4.00049ZM13.2795 8.24512C13.2298 7.87904 12.9161 7.59689 12.5364 7.59689C12.1221 7.59689 11.7864 7.93267 11.7864 8.34689V13.1939L11.7947 13.3056C11.8278 13.5257 11.9577 13.722 12.1521 13.838L15.9221 16.087L16.013 16.1332C16.3529 16.2781 16.7559 16.1532 16.9505 15.8271L16.9967 15.7362C17.1416 15.3964 17.0167 14.9933 16.6906 14.7988L13.286 12.767L13.2864 8.34689L13.2795 8.24512Z" fill="#D2D2D2"/>
</svg>
