<svg width="702" height="666" viewBox="0 0 702 666" fill="none" xmlns="http://www.w3.org/2000/svg">
<path d="M414.125 298.209V301.447L414.098 301.471V298.233L414.125 298.209Z" fill="#5A61FF"/>
<path d="M414.125 298.209L414.098 301.471V298.233L414.125 298.209Z" fill="#5A61FF"/>
<path d="M392 166C392 161.582 395.582 158 400 158H694C698.418 158 702 161.582 702 166V433.789C702 438.207 698.418 441.789 694 441.789H400C395.582 441.789 392 438.207 392 433.789V166Z" fill="#5A61FF"/>
<path d="M392 423.026H702V433.789C702 438.207 698.418 441.789 694 441.789H400C395.582 441.789 392 438.207 392 433.789V423.026Z" fill="#3A2F7B"/>
<path d="M392 423.026H627.703V441.789L400 441.789C395.582 441.789 392 438.207 392 433.789V423.026Z" fill="white"/>
<path d="M590.98 371.035C566.685 384.305 527.423 384.305 503.128 370.851C478.832 357.581 478.638 336.017 502.933 322.746C527.229 309.476 566.49 309.476 590.786 322.931C615.082 336.201 615.082 357.765 590.98 371.035Z" fill="#F2E8DF"/>
<path d="M523.73 240.199C523.73 240.015 523.536 239.646 523.536 239.462C523.536 238.725 523.73 237.988 523.925 237.25C523.925 236.697 524.119 234.486 524.702 234.117C520.426 236.513 517.122 240.015 514.206 243.885C511.874 246.834 509.736 249.968 508.376 253.654C507.404 256.418 507.209 259.183 507.209 261.948C507.209 262.501 507.598 269.504 507.987 269.32C506.043 269.873 503.905 270.61 501.962 271.163C499.824 271.9 497.491 272.637 495.353 273.375C493.41 274.112 491.271 274.849 489.911 276.508C488.939 277.614 488.55 279.088 488.162 280.563C487.384 284.065 486.607 287.382 486.024 290.884C485.441 293.833 484.663 296.597 484.858 299.546C484.858 301.205 485.052 302.864 485.829 304.338C485.829 304.523 486.024 304.707 486.218 304.707H486.412C486.801 304.523 486.995 304.338 487.19 303.97C487.19 304.707 487.19 305.629 487.579 306.181C487.579 306.366 487.773 306.366 487.773 306.55C487.967 306.734 488.162 306.734 488.356 306.55C489.522 306.366 490.105 305.629 490.688 304.891C491.272 304.154 492.243 303.97 493.021 303.417C494.964 302.311 496.519 300.652 497.491 298.625C498.463 296.782 498.852 294.57 498.852 292.543C498.852 291.437 498.269 290.331 498.074 289.225C497.88 287.566 498.269 285.908 499.824 285.17C502.545 283.696 505.849 283.88 508.764 283.512C512.846 283.143 516.733 281.853 520.426 280.01C521.398 279.457 522.37 278.904 522.953 278.167C523.925 276.877 523.925 275.218 523.73 273.559C523.536 272.085 523.342 270.794 522.564 269.504C522.175 269.136 520.426 266.187 519.843 266.371H519.649C522.175 259.736 523.536 252.732 524.508 245.913C524.702 244.807 524.702 243.701 524.313 242.78C524.313 241.674 523.925 240.937 523.73 240.199Z" fill="#929292"/>
<path d="M537.141 319.452C535.392 315.765 532.865 312.264 529.756 309.499C528.201 308.025 526.451 306.734 524.313 305.997C522.37 305.26 519.843 305.629 518.094 304.338C517.899 304.154 516.733 303.233 517.122 302.864C515.373 304.338 514.401 306.366 513.818 308.393C512.263 313.001 512.068 317.793 512.652 322.585C513.04 324.981 513.623 327.377 514.401 329.589C515.178 331.8 516.345 333.643 517.705 335.671C519.454 338.251 521.204 340.831 523.73 342.674C526.257 344.517 529.756 345.439 532.671 344.333C535.003 343.412 536.558 341.016 537.53 338.804C540.446 332.722 540.057 325.534 537.141 319.452Z" fill="#929292"/>
<path d="M515.373 341.016C511.874 342.122 507.598 344.886 507.598 348.388C507.987 348.019 508.181 347.651 508.376 347.282C508.181 348.388 507.987 349.125 508.181 350.231C508.376 351.337 508.57 352.443 508.959 353.549C508.959 353.733 509.153 353.917 509.347 353.917C509.542 353.917 509.736 353.917 509.736 353.917C511.485 353.917 513.235 353.549 514.79 352.996C514.79 353.18 514.595 353.549 514.595 353.733C517.705 353.18 520.62 352.074 523.536 350.968C525.674 350.047 527.812 349.125 529.756 347.651C531.505 346.545 533.06 345.07 534.42 343.78C535.198 343.043 535.975 342.306 536.947 341.569C537.725 340.831 538.891 339.91 539.279 338.988C540.057 337.33 538.308 335.486 536.753 334.934C535.392 334.381 533.643 334.934 532.477 333.828C532.282 333.643 532.282 333.643 532.088 333.459C531.699 333.459 530.727 334.012 530.339 334.196C529.756 334.565 529.173 334.749 528.589 335.118C527.423 335.855 526.257 336.592 525.091 337.329C523.73 338.251 522.37 339.173 520.815 339.91C519.454 340.463 518.094 340.647 516.733 340.831C516.344 340.831 515.761 341.016 515.373 341.016Z" fill="#929292"/>
<path d="M571.155 313.738C572.71 308.946 573.682 303.97 576.597 299.731C580.29 294.201 587.287 290.884 594.285 291.253C593.313 291.805 592.341 292.543 591.758 293.464C596.423 292.911 601.476 295.676 604.586 298.993C607.89 302.495 609.445 307.287 609.445 312.079C609.445 313.738 609.251 315.213 608.667 316.687C608.084 318.161 606.724 319.452 605.169 319.82C603.42 320.189 602.059 319.083 600.504 318.53C595.839 317.056 590.397 318.714 589.814 324.059C589.814 324.612 589.814 325.349 590.203 325.718C590.786 326.087 591.563 326.087 592.146 325.534C592.73 325.165 593.118 324.428 593.313 323.875C592.146 328.298 590.203 332.722 587.093 336.408C582.428 341.937 575.82 343.596 568.823 345.07C566.879 345.439 564.936 345.808 562.992 345.07C558.91 343.596 560.854 340.463 561.631 337.514C562.409 334.933 562.409 331.985 561.048 329.589C560.659 329.036 560.271 328.298 560.271 327.561C560.465 324.981 563.575 325.165 565.324 324.059C567.462 322.585 569.017 319.267 569.795 317.056C570.378 315.95 570.766 314.844 571.155 313.738Z" fill="#929292"/>
<path d="M514.012 246.097C513.818 246.466 513.623 247.019 513.429 247.387C511.097 252.179 509.736 257.524 509.347 262.869C508.959 268.583 510.319 274.112 511.097 279.825C512.652 291.99 514.401 304.338 516.733 316.318C518.482 325.534 523.536 334.196 530.533 340.831C534.615 344.702 539.668 348.019 545.499 349.125C551.136 350.231 557.744 349.125 561.826 345.07C565.907 341.016 567.074 335.118 567.657 329.589C570.183 306.55 566.685 283.143 567.462 259.92C567.657 252.179 568.434 244.254 567.268 236.513C566.102 228.772 562.798 221.031 556.384 216.239C553.662 219.373 548.415 220.663 544.527 219.004C540.057 217.161 537.725 215.133 533.449 218.635C531.699 220.11 530.339 221.953 529.173 223.796C523.536 231.168 517.899 238.356 514.012 246.097Z" fill="#424242"/>
<path d="M547.443 314.844C545.888 314.844 544.139 315.028 542.778 315.765C540.834 316.687 539.279 317.977 538.308 319.82C537.141 322.216 537.919 325.165 539.085 327.561C540.057 330.141 541.612 332.353 542.778 334.934C543.944 337.514 545.305 339.91 547.248 341.937C548.609 343.596 550.164 345.07 552.107 345.992C555.995 347.835 561.048 347.466 564.547 344.886C568.045 342.121 568.045 336.777 567.268 333.09C566.49 328.298 562.214 323.875 558.716 320.557C556.967 318.899 554.829 317.24 552.496 316.134C550.747 315.397 548.998 314.844 547.443 314.844Z" fill="#DAD6D3"/>
<path d="M535.003 324.612C534.032 327.008 533.837 329.773 534.032 332.169C534.42 335.671 535.975 338.804 537.336 342.121C537.919 343.596 538.502 344.886 539.279 346.361C539.863 347.835 541.806 350.415 540.057 351.706C539.085 352.443 536.364 354.654 535.586 354.839C533.643 355.392 531.894 355.76 530.144 356.866C529.561 357.235 528.978 357.603 528.589 358.156C528.201 358.709 528.006 359.262 527.812 359.815C527.423 360.737 527.618 361.658 527.423 362.764C527.423 362.948 527.229 363.501 527.229 363.87C527.229 364.054 527.812 364.423 527.812 364.054C527.812 365.16 528.006 366.082 528.201 367.187C529.561 367.372 531.116 367.187 532.282 366.45C532.282 366.634 532.282 367.003 532.088 367.187C532.088 367.187 533.837 367.187 534.032 367.003C534.809 366.819 535.198 366.634 535.975 366.266C537.336 365.713 538.502 365.344 539.863 364.607C545.11 362.027 550.164 359.078 553.662 354.654C554.44 353.733 555.023 352.811 554.829 351.706C554.634 350.231 554.44 348.572 554.44 347.098C554.246 342.121 553.662 336.961 552.302 331.985C551.136 327.746 549.969 323.138 547.443 319.452C546.665 318.346 545.693 317.424 544.527 316.871C539.668 314.844 536.17 321.295 535.003 324.612Z" fill="#DAD6D3"/>
<path d="M556.967 251.442C555.995 249.415 554.634 247.387 552.302 246.466C550.164 245.544 547.831 245.36 545.693 245.544C542.001 246.097 538.891 248.125 536.558 250.889C531.116 256.971 528.201 264.897 526.646 272.637C526.451 273.743 526.257 274.849 526.257 276.139C522.564 276.877 518.677 277.614 514.984 278.351C509.542 279.457 503.711 280.747 499.824 284.433C497.491 286.645 496.131 289.594 494.576 292.543C493.215 294.939 492.049 297.335 491.077 299.731C490.105 302.311 489.328 305.629 491.271 307.84C491.466 307.656 491.466 307.472 491.66 307.287C491.66 307.84 491.66 308.393 491.855 308.946C492.049 309.499 492.243 310.052 492.826 310.052C493.215 310.052 493.409 309.868 493.798 309.683C494.381 309.315 495.159 308.762 495.742 308.209C495.742 308.393 495.742 308.762 495.742 308.946C498.074 308.393 500.212 307.472 502.156 306.181C504.1 304.891 505.849 303.233 507.404 301.389C508.181 300.284 509.153 299.178 509.542 297.888C509.93 296.597 509.93 295.123 509.153 293.833C508.959 293.464 508.764 293.28 508.764 292.911C508.57 291.621 509.93 290.884 511.097 290.884C513.818 290.7 516.539 290.7 519.26 290.884C524.119 291.253 528.784 291.99 533.643 292.174C537.53 292.358 541.417 290.515 544.333 288.119C551.913 281.669 557.161 273.006 558.716 263.422C558.716 259.552 558.716 255.313 556.967 251.442Z" fill="#DAD6D3"/>
<path d="M550.747 186.75C551.719 185.644 553.079 184.907 554.44 184.17C555.217 183.617 556.189 183.248 557.161 183.064C558.91 182.695 558.716 188.409 558.716 189.515C558.716 191.726 558.327 193.754 558.91 195.965C559.105 196.703 556.772 196.15 556.578 195.965C555.606 195.597 554.44 195.413 553.274 195.597C551.719 195.781 550.164 196.518 548.803 197.256C548.026 197.624 546.665 198.546 545.888 197.44C544.527 195.597 547.054 192.279 548.026 190.805C548.609 189.33 549.581 187.856 550.747 186.75Z" fill="#424242"/>
<path d="M547.054 195.044C548.22 194.675 549.386 194.122 550.553 193.938C551.719 193.754 553.079 193.938 554.051 194.491C553.857 193.201 553.662 191.911 554.051 190.621C554.44 189.33 555.412 188.04 555.995 186.75C556.578 185.46 556.189 184.17 554.44 185.091C552.108 186.381 550.164 188.409 548.803 190.621C548.026 192.095 547.443 193.569 547.054 195.044Z" fill="#929292"/>
<path d="M569.406 236.329C570.183 237.803 571.35 239.278 572.516 240.568C571.544 241.858 569.795 242.042 568.045 241.858C565.13 241.674 562.409 241.121 559.688 240.199C557.355 239.462 555.023 238.356 552.885 237.25C550.553 236.145 548.415 235.039 546.082 233.933C545.11 235.039 544.333 235.96 543.361 237.066C543.167 237.435 542.778 237.803 542.195 237.619C542.001 237.619 541.806 237.435 541.612 237.25C539.668 235.223 533.449 225.27 533.06 225.086C532.477 224.717 529.756 225.455 528.978 225.455C530.339 222.874 531.699 220.294 532.671 217.529C532.865 216.792 533.254 216.239 533.449 215.502C533.643 214.765 533.449 214.765 532.865 214.212C531.894 213.475 530.922 212.369 530.922 211.079C530.922 210.71 530.922 210.341 530.922 210.157C531.116 209.604 531.505 208.867 531.894 208.498C532.671 207.761 533.643 207.393 534.615 207.208C533.837 207.024 533.06 206.471 532.671 205.734C532.477 205.365 532.282 204.812 532.088 204.259C532.088 203.891 531.894 203.706 531.894 203.338C531.699 202.416 531.699 201.495 532.088 200.573C532.282 199.652 532.865 199.283 533.837 198.73C535.198 197.993 536.753 197.44 538.502 197.256C540.057 197.071 541.806 196.887 543.361 196.703H543.555L543.75 196.518C543.944 196.15 544.333 195.965 544.527 195.597C545.11 195.044 545.693 194.491 546.471 194.122C547.248 193.754 548.22 193.385 548.998 193.201C550.747 192.832 552.691 192.648 554.44 193.017C555.412 193.201 556.384 193.569 557.355 193.938C558.133 194.307 559.105 194.491 559.882 194.86C561.631 195.597 563.186 196.703 564.547 197.809C568.823 201.495 571.544 206.655 572.321 212C573.099 217.345 572.321 222.874 570.378 228.035C569.795 229.325 569.017 230.615 568.628 231.905C568.045 233.38 568.628 235.039 569.406 236.329Z" fill="#DAD6D3"/>
<path d="M551.524 195.781C549.581 197.071 547.831 198.546 547.248 200.757C546.86 201.863 546.86 202.601 547.443 203.706C548.026 204.812 548.803 205.734 549.386 206.84C551.913 210.71 551.913 215.871 550.941 220.11C549.386 226.561 547.248 232.827 544.722 239.093C542.778 238.725 541.223 237.435 539.863 236.145C537.141 233.38 534.809 230.247 533.06 226.929C530.922 227.113 528.589 227.113 526.451 226.745C528.006 224.717 529.561 222.69 530.727 220.478C531.311 219.373 532.088 218.267 532.477 217.161C532.671 216.608 533.254 215.871 533.254 215.318C533.254 214.949 533.06 214.765 532.671 214.396C531.699 213.659 530.727 212.553 530.727 211.263C530.727 210.894 530.727 210.526 530.727 210.341C530.922 209.789 531.31 209.051 531.699 208.683C532.477 207.945 533.449 207.577 534.42 207.393C533.837 207.208 533.449 206.84 533.06 206.471C535.198 205.734 535.003 203.706 535.975 202.048C536.364 201.495 536.753 200.942 537.141 200.205C537.53 199.652 537.725 199.099 538.113 198.546C538.502 198.177 538.891 197.809 539.085 197.256C540.057 197.071 541.029 197.071 542.001 197.071C542.389 197.256 542.778 197.624 543.167 197.809C543.361 197.993 543.75 198.177 543.944 198.177C544.333 198.177 544.527 198.177 544.916 198.177C545.11 198.177 545.305 198.177 545.499 197.993C546.471 197.624 547.248 197.071 548.026 196.334C548.803 195.597 549.775 194.86 550.941 194.491C551.33 194.307 552.107 193.938 552.496 194.491C552.885 195.044 552.108 195.597 551.524 195.781Z" fill="#F2F2F2"/>
<path d="M576.597 193.938C576.792 194.675 576.209 195.965 575.82 196.518C575.431 197.809 574.654 199.099 574.265 200.389C573.876 201.495 573.682 202.601 573.488 203.706C573.293 204.997 572.904 206.287 572.516 207.577C571.933 209.42 571.155 211.447 569.795 212.922C569.212 213.659 568.24 214.212 567.268 214.028C566.685 213.843 566.296 213.106 566.102 212.553C565.713 211.079 565.713 209.604 565.713 208.13C565.713 206.655 565.519 205.549 565.13 204.075C564.936 202.601 564.547 201.495 563.575 200.389C563.186 200.02 562.603 199.467 562.603 198.914C562.603 198.546 562.798 198.361 562.992 197.993C565.519 194.491 569.989 192.464 574.459 192.832C575.042 192.832 575.626 193.017 576.014 193.385C576.597 193.569 576.597 193.754 576.597 193.938Z" fill="#424242"/>
<path d="M564.936 197.624C564.547 197.993 564.158 198.177 564.158 198.73C564.158 199.467 564.936 200.02 565.519 200.389C566.49 201.126 566.879 202.416 567.074 203.522C567.268 204.628 567.074 205.918 567.074 207.024C567.074 207.761 567.074 208.314 567.462 209.051C567.657 209.604 568.045 210.157 568.628 209.973C568.823 209.973 569.017 209.789 569.212 209.789C570.572 208.867 571.35 207.208 571.544 205.549C571.738 203.891 571.738 202.232 572.127 200.757C572.516 199.836 572.904 198.914 573.293 197.809C573.488 197.256 574.265 195.413 573.682 194.86C573.293 194.491 571.35 194.86 570.766 195.044C568.628 195.413 566.685 196.334 564.936 197.624Z" fill="#DAD6D3"/>
<path d="M554.829 200.389C555.412 200.573 555.995 201.126 556.383 201.495C556.967 202.232 557.355 202.969 557.55 203.891V204.075C557.55 204.259 557.355 204.259 557.161 204.259C555.8 204.259 554.634 204.075 553.468 203.338C552.885 202.969 552.496 202.601 552.107 202.232C551.913 201.863 551.136 201.31 551.33 200.757C551.524 200.205 552.302 200.205 552.885 200.205C553.468 200.205 554.246 200.02 554.829 200.389Z" fill="#424242"/>
<path d="M554.44 203.522C555.299 203.522 555.995 202.862 555.995 202.048C555.995 201.233 555.299 200.573 554.44 200.573C553.581 200.573 552.885 201.233 552.885 202.048C552.885 202.862 553.581 203.522 554.44 203.522Z" fill="#78C5FF"/>
<path d="M554.44 203.522C555.299 203.522 555.995 202.862 555.995 202.048C555.995 201.233 555.299 200.573 554.44 200.573C553.581 200.573 552.885 201.233 552.885 202.048C552.885 202.862 553.581 203.522 554.44 203.522Z" fill="#78C5FF"/>
<path d="M554.44 202.785C554.869 202.785 555.217 202.455 555.217 202.048C555.217 201.64 554.869 201.31 554.44 201.31C554.011 201.31 553.662 201.64 553.662 202.048C553.662 202.455 554.011 202.785 554.44 202.785Z" fill="#1A1A1A"/>
<path d="M554.051 201.863C554.266 201.863 554.44 201.698 554.44 201.495C554.44 201.291 554.266 201.126 554.051 201.126C553.836 201.126 553.662 201.291 553.662 201.495C553.662 201.698 553.836 201.863 554.051 201.863Z" fill="white"/>
<path d="M544.527 197.624C544.916 197.624 545.305 197.624 545.693 197.624C545.888 197.624 545.888 197.44 545.888 197.44C545.888 197.256 545.888 197.071 545.888 197.071C545.888 196.887 545.693 196.703 545.499 196.518C545.305 196.334 545.305 196.334 545.11 196.334C544.916 196.334 544.916 196.334 544.722 196.334C544.527 196.334 544.139 196.334 543.944 196.518C543.75 196.518 543.555 196.703 543.361 197.071C543.361 197.256 543.555 197.624 543.555 197.809C544.139 197.44 544.333 197.624 544.527 197.624Z" fill="#424242"/>
<path d="M547.054 212.922C544.139 214.765 540.64 214.581 537.336 213.659C535.781 213.29 534.226 212.922 532.671 212C531.894 211.447 531.116 210.894 530.533 210.341C530.727 209.789 531.116 209.051 531.505 208.683C532.282 207.945 533.254 207.577 534.226 207.393C533.449 207.208 532.671 206.655 532.282 205.918C532.088 205.549 531.894 204.997 531.699 204.444C532.088 204.259 532.477 204.259 532.865 204.075C533.837 203.706 534.226 202.601 534.809 201.863C535.003 201.679 535.198 201.495 535.392 201.495C535.587 201.495 535.975 201.679 535.975 201.863C536.17 202.048 536.17 202.416 536.17 202.601C536.17 203.891 536.558 205.181 537.336 206.102C537.919 206.84 538.891 207.393 539.863 207.945C541.029 208.683 542.195 209.236 543.361 209.789C544.527 210.157 545.693 210.526 546.665 211.263C547.637 211.632 548.026 212.369 547.054 212.922Z" fill="#424242"/>
<path d="M540.64 200.02C540.251 200.389 539.863 200.573 539.474 200.757C539.085 200.942 538.696 201.126 538.113 201.31C537.919 201.31 537.725 201.495 537.725 201.495C537.336 201.679 536.947 201.679 536.558 201.679C535.975 201.679 535.392 201.495 535.392 200.942C535.198 200.389 535.198 199.652 535.003 199.099V198.914C535.003 198.914 535.003 198.73 534.809 198.73C534.42 198.361 534.42 197.809 534.42 197.256C534.42 196.887 534.615 196.518 535.003 196.334C535.587 195.781 536.364 195.597 536.947 195.597C538.113 195.597 539.279 195.965 540.057 196.887C540.251 197.256 540.446 197.624 540.64 197.993C541.029 198.546 541.029 199.467 540.64 200.02Z" fill="#424242"/>
<path d="M557.744 197.624C556.772 196.887 555.8 196.334 554.634 195.965C553.662 195.781 552.691 195.965 551.719 196.15C551.136 196.334 550.553 196.518 550.358 197.071C550.164 197.993 551.136 198.177 551.719 198.361C552.691 198.73 553.662 198.73 554.44 199.099C556.189 199.652 557.55 200.757 558.716 202.048C558.91 202.232 558.91 202.232 559.105 202.232C559.299 202.232 559.493 202.232 559.493 202.232V202.048C559.688 200.942 559.299 199.836 558.716 198.73C558.327 198.546 558.133 197.993 557.744 197.624Z" fill="#424242"/>
<path d="M546.665 194.675C546.277 194.307 545.499 194.307 544.916 194.491C544.527 194.675 544.139 194.86 543.944 195.228V195.413C543.944 195.597 543.944 195.781 543.944 195.965V196.15L544.139 195.965C544.333 195.965 544.527 195.781 544.722 195.781C544.916 195.781 545.11 195.965 545.305 195.965C545.693 196.15 546.277 196.518 546.665 196.518C546.86 196.518 546.86 196.518 546.86 196.518C546.86 196.518 546.86 196.334 547.054 196.334C547.054 195.965 547.054 195.597 546.86 195.228C547.054 195.044 546.86 194.86 546.665 194.675Z" fill="#424242"/>
<path d="M545.499 196.887C545.499 197.256 544.916 197.44 544.527 197.44C544.139 197.44 543.75 197.071 543.75 196.703C543.75 196.334 544.333 196.15 544.722 196.15C545.305 196.15 545.693 196.518 545.499 196.887Z" fill="#78C5FF"/>
<path d="M545.11 196.703C545.11 196.887 544.916 197.071 544.722 196.887C544.527 196.887 544.333 196.703 544.333 196.518C544.333 196.334 544.527 196.15 544.722 196.334C544.916 196.518 545.11 196.518 545.11 196.703Z" fill="#1A1A1A"/>
<path d="M544.722 196.518C544.722 196.703 544.527 196.703 544.333 196.703C544.139 196.703 544.139 196.518 544.139 196.518C544.139 196.334 544.333 196.334 544.527 196.334C544.722 196.334 544.722 196.334 544.722 196.518Z" fill="white"/>
<path d="M539.474 200.757C539.085 200.942 538.502 201.126 538.113 201.31C538.113 201.126 538.113 200.942 538.113 200.757C537.919 200.389 537.725 200.02 537.725 199.652C537.725 199.467 537.725 199.283 537.725 199.099C537.725 198.914 537.919 198.73 538.113 198.73C538.308 198.73 538.696 198.914 538.696 199.099C538.891 199.283 538.891 199.652 538.891 199.836C539.085 200.205 539.085 200.573 539.474 200.757Z" fill="#1A1A1A"/>
<path d="M534.032 210.341C535.003 210.894 535.975 211.079 536.947 211.447C538.308 211.816 539.474 212 540.834 212C541.417 212 542.195 212 542.778 212C543.167 212 543.944 212 543.944 211.263C543.944 211.079 543.75 210.894 543.555 210.71C543.361 210.526 543.167 210.526 542.972 210.526C542.001 210.341 541.029 209.973 540.057 209.42C539.668 209.236 539.279 209.051 538.891 208.683C538.502 208.314 538.308 207.945 538.308 207.577C538.308 207.393 538.308 207.208 538.113 207.024C538.113 207.024 537.919 206.84 537.724 206.84C537.336 206.655 537.141 206.655 536.753 206.655C535.781 206.655 534.809 206.84 533.837 207.208C533.254 207.393 532.671 207.577 532.088 208.13C531.894 208.314 531.894 208.498 532.088 208.867C532.282 209.236 532.671 209.42 532.865 209.789C533.254 209.973 533.643 210.157 534.032 210.341Z" fill="#FF7878"/>
<path d="M538.502 196.703C542.903 196.703 546.471 193.319 546.471 189.146C546.471 184.973 542.903 181.589 538.502 181.589C534.101 181.589 530.533 184.973 530.533 189.146C530.533 193.319 534.101 196.703 538.502 196.703Z" fill="#338259"/>
<path d="M537.141 190.989C539.718 190.989 541.806 189.009 541.806 186.566C541.806 184.123 539.718 182.142 537.141 182.142C534.565 182.142 532.477 184.123 532.477 186.566C532.477 189.009 534.565 190.989 537.141 190.989Z" fill="#4BA677"/>
<path d="M97.2698 528.8V531.89L97.247 531.913V528.823L97.2698 528.8Z" fill="#5A61FF"/>
<path d="M97.2698 528.8L97.247 531.913V528.823L97.2698 528.8Z" fill="#5A61FF"/>
<path d="M78 403C78 398.582 81.5817 395 86 395H340C344.418 395 348 398.582 348 403V657.817C348 662.236 344.418 665.817 340 665.817H86C81.5817 665.817 78 662.236 78 657.817V403Z" fill="#38A487"/>
<path d="M78 647.912H348V657.817C348 662.236 344.418 665.817 340 665.817H86C81.5817 665.817 78 662.236 78 657.817V647.912Z" fill="#3A2F7B"/>
<path d="M78 647.818H153V666H86C81.5817 666 78 662.418 78 658V647.818Z" fill="white"/>
<path d="M179.527 523.364C185.194 522.498 190.944 521.632 196.694 522.065C199.694 522.325 202.86 522.931 205.194 524.922C205.86 525.442 206.444 526.135 206.777 526.914C207.36 528.299 207.11 529.944 206.777 531.416C204.194 543.364 199.777 554.88 193.694 565.269C193.527 565.529 193.36 565.789 193.11 565.875C192.777 566.049 192.444 565.962 192.11 565.875C186.86 564.577 181.694 562.412 177.027 559.555C177.777 557.39 178.027 554.966 177.027 552.888C175.277 549.338 170.444 548.646 168.11 545.529C166.027 542.672 166.61 538.516 168.027 535.226C170.194 530.377 174.194 526.394 178.944 524.316L179.527 523.364Z" fill="#C95F5F"/>
<path d="M278.694 589.945C282.86 585.962 285.694 580.594 287.11 574.88C288.61 569.166 288.694 563.191 287.944 557.39C292.694 564.317 292.527 573.841 289.61 581.72C288.527 584.577 287.027 587.434 284.86 589.512C282.694 591.677 279.694 593.062 276.777 592.802L278.694 589.945Z" fill="#7E4927"/>
<path d="M188.444 476.523C187.194 476.87 185.777 477.043 184.527 476.523C183.277 476.004 182.277 474.878 182.194 473.493C182.194 471.415 184.11 470.116 185.36 468.471C186.527 466.913 186.944 464.921 187.944 463.276C188.86 461.631 190.694 460.159 192.527 460.679C193.86 461.025 194.694 462.324 195.36 463.623C195.86 464.489 196.277 465.441 196.527 466.48C197.027 468.644 196.444 470.982 195.527 473.06C194.944 474.359 194.11 475.658 193.027 476.61C191.944 477.562 190.444 478.082 189.11 477.909L188.444 476.523Z" fill="black"/>
<path d="M152.944 559.036C150.444 560.161 148.027 561.72 145.944 563.624C145.777 563.797 145.61 563.971 145.527 564.144C145.444 564.404 145.527 564.75 145.61 565.01C146.194 566.914 146.777 568.819 148.027 570.291C149.36 571.936 151.277 573.062 153.36 573.235C153.86 573.321 154.444 573.321 154.944 573.062C155.36 572.889 155.694 572.456 156.027 572.109C157.61 570.464 159.527 568.992 161.61 568.04C159.444 565.096 157.36 562.066 155.194 559.122L152.944 559.036Z" fill="#F59F18"/>
<path d="M145.86 568.473C148.527 565.616 151.277 562.932 154.277 560.421C155.11 559.728 155.944 559.036 156.86 558.343C157.194 558.083 156.86 557.564 156.527 557.823C153.444 560.248 150.527 562.845 147.777 565.616C147.027 566.395 146.194 567.174 145.444 568.04C145.194 568.3 145.61 568.733 145.86 568.473Z" fill="#C87C0D"/>
<path d="M146.61 570.291C149.11 567.607 151.86 565.096 154.694 562.845C155.527 562.152 156.36 561.546 157.194 560.94C157.527 560.681 157.194 560.161 156.86 560.421C153.86 562.585 150.944 565.01 148.36 567.607C147.61 568.386 146.86 569.079 146.194 569.858C145.86 570.118 146.36 570.551 146.61 570.291Z" fill="#C87C0D"/>
<path d="M148.61 572.715C151.527 569.079 154.694 565.789 158.194 562.759C159.194 561.893 160.194 561.113 161.194 560.248C161.527 559.988 161.194 559.468 160.86 559.728C157.194 562.585 153.777 565.702 150.694 569.166C149.777 570.118 148.944 571.157 148.11 572.196C147.944 572.629 148.36 573.062 148.61 572.715Z" fill="#C87C0D"/>
<path d="M150.36 573.928C153.11 571.763 155.86 569.598 158.61 567.434C159.444 566.828 160.194 566.222 161.027 565.529C161.36 565.269 161.027 564.75 160.694 565.01C157.944 567.174 155.194 569.339 152.444 571.503C151.61 572.109 150.86 572.715 150.027 573.408C149.777 573.668 150.027 574.187 150.36 573.928Z" fill="#C87C0D"/>
<path d="M143.944 563.711C144.777 563.278 145.777 563.451 146.527 564.057C147.61 564.923 148.11 566.482 148.61 567.78C149.11 569.166 149.944 570.551 151.36 570.897C152.61 571.157 153.86 570.378 155.027 570.724C156.527 571.07 157.277 572.889 157.527 574.534C157.777 576.092 157.777 577.91 158.694 579.122C159.694 580.508 161.444 580.854 162.944 581.633C164.444 582.326 165.944 583.884 165.444 585.529C165.027 587.001 163.36 587.521 161.944 587.867C158.86 588.473 155.694 588.82 152.694 587.867C149.694 587.001 146.944 584.664 146.11 581.547C145.777 580.248 145.694 578.69 144.61 577.91C144.11 578.343 143.527 578.776 143.027 579.296C140.777 577.91 138.944 575.832 137.777 573.408C137.527 572.975 142.61 565.789 142.61 565.789L143.944 563.711Z" fill="black"/>
<path d="M165.777 572.542C165.277 574.447 165.194 576.438 165.36 578.43C165.36 578.776 165.444 579.209 165.694 579.382C165.944 579.642 166.36 579.642 166.694 579.642C168.86 579.555 170.944 579.555 173.11 579.469C173.527 579.469 173.944 579.469 174.277 579.122C174.86 578.603 174.777 577.391 175.527 577.131C176.36 576.698 177.027 577.997 177.777 578.603C178.444 579.122 179.277 579.296 180.11 579.382C185.277 579.815 190.527 579.555 195.61 578.516C195.944 578.43 196.194 578.43 196.444 578.17C196.86 577.824 196.944 577.218 196.944 576.698C196.777 574.707 194.944 573.235 193.11 572.715C191.277 572.196 189.277 572.282 187.36 571.85C184.86 571.243 182.61 569.772 181.11 567.607C180.694 567.001 180.277 566.222 179.527 565.962C178.11 565.356 176.694 566.655 175.444 567.434C172.944 568.992 169.86 568.906 166.944 568.733C166.527 568.733 166.11 568.733 165.86 568.906C165.61 569.079 165.527 569.339 165.444 569.598C165.027 570.724 164.694 571.85 164.527 573.062L165.777 572.542Z" fill="black"/>
<path d="M184.027 490.29C187.694 492.281 189.444 496.61 190.777 500.68C192.027 504.749 193.277 509.165 196.36 512.022C196.694 512.368 197.11 512.628 197.277 513.061C197.444 513.494 197.36 514.013 197.36 514.446C196.86 517.996 196.444 521.546 195.944 525.182C191.61 525.702 187.11 523.71 184.027 520.507C180.86 517.303 178.86 513.061 177.61 508.732L184.027 490.29Z" fill="#54260C"/>
<path d="M256.36 577.737C254.527 579.122 253.36 581.374 253.11 583.798C252.944 586.135 253.777 588.56 255.36 590.291C253.194 590.291 251.027 590.465 248.944 590.898C248.61 590.984 248.277 591.071 248.027 591.244C247.61 591.677 247.86 592.456 248.194 592.975C249.027 594.014 250.527 594.188 251.777 594.274C255.11 594.534 258.444 594.794 261.86 595.053C262.11 595.053 262.36 595.053 262.694 595.053C263.61 594.794 263.944 593.668 264.027 592.716C264.444 587.434 261.527 582.326 262.11 577.044L256.36 577.737Z" fill="#C47916"/>
<path d="M245.194 566.308C244.777 573.235 243.694 580.161 241.944 586.828C241.86 587.175 241.777 587.521 241.444 587.781C241.194 587.954 240.777 587.954 240.527 587.954C239.36 588.04 238.194 588.733 237.61 589.772C237.277 590.291 237.11 591.071 237.444 591.59C237.694 592.023 238.194 592.196 238.694 592.283C240.11 592.629 241.61 592.716 243.027 592.543C243.694 592.456 244.277 592.369 244.86 591.936C245.61 591.417 246.027 590.551 246.36 589.685C249.277 582.672 251.527 575.313 253.027 567.867L245.194 566.308Z" fill="#C47916"/>
<path d="M244.11 525.875C244.61 523.537 244.944 521.199 245.027 518.862C245.027 518.602 245.027 518.256 244.944 517.996C244.86 517.65 244.527 517.39 244.277 517.217C242.777 516.005 240.777 515.658 238.944 515.225C236.944 514.792 235.027 514.446 233.027 514.013C232.527 513.927 231.944 513.84 231.694 514.273C231.61 514.446 231.61 514.619 231.61 514.792C231.61 516.005 232.444 516.957 233.194 517.909C234.36 519.295 235.61 520.68 237.11 521.805C238.61 522.931 240.277 523.624 242.11 523.71C242.277 524.836 243.027 525.788 244.027 526.221L244.11 525.875Z" fill="#54260C"/>
<path d="M212.527 473.926C210.86 477.562 206.277 483.71 206.277 483.71L208.944 487.866L204.277 486.827C204.277 486.827 201.86 490.376 200.277 491.675C198.694 493.06 196.277 493.493 194.61 492.195C193.194 491.069 191.36 487.606 191.36 487.606C191.36 487.606 187.027 490.203 184.694 491.242C182.277 487.086 180.194 483.71 177.777 479.554C181.777 477.389 185.777 475.311 189.777 473.147C188.277 473.32 186.61 470.982 186.694 469.337C186.777 467.779 188.11 466.393 189.694 466.22C191.194 466.047 192.777 466.913 193.61 468.298C194.86 465.528 196.694 463.103 198.944 461.112C202.777 465.095 208.694 469.857 212.527 473.839V473.926Z" fill="#D1845A"/>
<path d="M190.277 522.585C192.194 525.615 196.36 526.221 199.694 525.096C203.027 523.97 205.694 521.546 208.527 519.468C209.61 518.689 210.61 517.996 211.777 517.303C212.277 516.957 212.777 516.697 213.36 516.611C214.11 516.524 214.86 516.697 215.61 516.784C218.444 517.043 221.11 514.273 220.944 511.329C222.277 510.723 223.61 510.117 225.027 509.511C225.444 509.338 225.777 508.818 225.694 508.385C225.61 507.52 224.61 507.433 223.86 507.52C221.527 507.693 219.194 507.866 216.777 508.039C216.11 508.126 215.36 508.126 214.777 508.645C214.36 508.991 214.11 509.598 213.694 510.03C213.11 510.636 212.194 510.81 211.444 510.896C206.11 511.762 200.777 512.628 195.36 513.494C194.694 513.58 193.944 513.753 193.36 514.186C192.86 514.619 192.527 515.312 192.277 516.005L190.11 521.979C189.944 522.238 190.027 522.498 190.277 522.585Z" fill="#D1845A"/>
<path d="M216.11 508.732C218.277 507.087 220.61 505.442 223.277 504.922C223.61 504.836 223.944 504.836 224.194 504.922C224.527 505.009 224.694 505.268 224.944 505.442C225.86 506.394 226.527 507.52 227.027 508.732C227.11 509.078 227.277 509.424 227.11 509.684C226.86 510.29 226.027 510.29 225.527 509.944C225.027 509.597 224.694 508.991 224.194 508.559C222.944 510.204 220.86 511.156 218.86 511.069L216.11 508.732Z" fill="#D1845A"/>
<path d="M225.277 505.788C225.944 505.182 227.11 505.615 227.527 506.481C227.944 507.346 227.777 508.299 227.36 509.165C227.694 508.732 228.444 508.991 228.61 509.511C228.777 510.03 228.444 510.636 228.11 510.983C228.694 511.156 229.027 512.022 228.777 512.628C228.527 513.234 227.86 513.58 227.194 513.667C226.694 513.667 226.194 513.58 225.777 513.58C225.027 513.58 224.277 513.753 223.61 513.84C222.444 514.1 221.36 514.359 220.194 514.619C219.694 514.706 219.194 514.879 218.694 514.619C218.027 514.359 217.694 513.494 217.777 512.801C217.86 512.022 218.277 511.416 218.61 510.81C219.194 509.857 219.86 508.991 220.694 508.299C221.527 507.606 222.61 507.173 223.694 507.346L225.277 505.788Z" fill="#D1845A"/>
<path d="M246.694 526.221C244.11 523.797 240.11 523.191 236.944 524.836C235.61 525.528 234.444 526.567 233.027 527.174C230.194 528.386 226.944 527.433 223.86 527.78C223.694 527.78 223.527 527.866 223.36 527.866C221.777 528.472 222.444 530.55 223.36 531.762C225.86 534.62 229.694 535.832 233.36 536.698C235.027 537.13 236.777 537.563 237.944 538.862C238.527 539.555 238.944 540.421 239.277 541.373C241.11 546.221 241.444 551.503 242.194 556.698C242.944 561.893 244.11 567.174 247.11 571.244C249.944 575.053 254.194 577.564 258.61 579.036C256.36 580.767 255.944 584.231 256.777 587.088C257.61 589.945 259.61 592.11 261.527 594.274C259.36 594.447 257.277 594.534 255.11 594.707C254.11 594.794 253.027 594.88 252.194 595.659C251.777 596.092 251.61 596.698 251.694 597.218C251.944 598.344 253.36 598.603 254.444 598.603C259.444 598.776 264.36 599.036 269.36 599.209C271.11 599.296 273.027 599.296 274.36 598.17C274.777 597.737 275.194 597.305 275.527 596.785C276.444 595.486 277.36 594.188 278.277 592.889C279.36 591.417 280.444 589.859 281.027 588.127C281.86 585.876 281.86 583.452 281.61 581.027C280.944 574.62 278.444 568.646 275.61 562.932C274.11 559.901 272.444 556.871 270.194 554.274C268.527 552.369 266.61 550.724 264.777 549.079C258.527 543.278 253.11 536.438 248.944 528.905C248.36 527.78 247.61 526.914 246.694 526.221Z" fill="#F59F18"/>
<path d="M244.777 545.356C243.694 547.693 242.444 549.858 241.027 551.936C239.61 550.551 238.194 549.252 236.694 547.867C234.694 545.962 232.61 544.057 230.027 543.105C227.444 542.239 224.277 542.672 222.61 544.923C222.36 545.356 222.11 545.875 222.277 546.308C222.36 546.568 222.61 546.741 222.86 546.828C224.194 547.52 225.777 547.001 227.194 547.087C230.027 547.174 232.36 549.425 234.027 551.849C235.694 554.274 236.86 557.044 238.777 559.209C239.944 560.594 241.61 561.72 243.36 561.546C245.277 561.373 246.694 559.642 247.944 558.083C248.944 556.784 249.86 555.572 250.86 554.274C251.194 553.841 251.527 553.408 251.61 552.888C251.694 552.282 251.527 551.676 251.277 551.157C250.277 548.819 248.694 546.828 246.777 545.182L244.777 545.356Z" fill="#F59F18"/>
<path d="M244.86 527.606C247.277 525.269 249.86 523.191 252.61 521.373C252.944 521.113 253.277 520.94 253.694 520.94C254.194 520.94 254.61 521.199 254.944 521.459C257.944 523.71 260.527 526.567 262.36 529.858C261.694 530.723 260.61 531.243 259.527 531.329C258.444 531.416 257.36 531.243 256.36 530.897C254.027 530.204 251.777 528.992 249.86 527.347C249.61 527.087 249.277 526.914 248.944 526.827C248.61 526.741 248.277 526.914 248.027 527C247.027 527.347 246.11 527.78 245.11 528.126L244.86 527.606Z" fill="#7E4927"/>
<path d="M135.36 534.62C135.944 539.035 135.61 543.884 138.194 547.52C139.694 549.598 142.027 550.897 144.36 551.849C148.61 553.667 153.194 554.706 157.777 554.88C155.86 556.438 154.027 557.997 152.11 559.468C155.11 565.01 158.61 570.291 162.527 575.226C162.694 575.486 162.944 575.746 163.277 575.832C163.61 575.919 163.86 575.746 164.11 575.573C173.027 570.464 181.944 565.356 190.86 560.248C192.86 559.122 194.944 557.91 196.527 556.265C198.944 553.754 200.444 550.291 200.444 546.741C200.444 545.875 200.36 544.923 200.027 544.143C199.527 542.758 198.444 541.719 197.277 540.94C192.527 537.304 186.444 536.005 181.61 532.455C179.777 531.07 178.11 529.425 176.277 528.039C174.277 526.481 172.027 525.355 169.777 524.23C169.194 523.97 168.527 523.624 167.86 523.624C166.86 523.537 165.944 524.057 165.11 524.49C161.444 526.135 157.527 526.741 153.61 527.693C148.777 528.905 144.11 530.81 139.527 532.715C139.027 532.888 138.61 533.061 138.11 533.321L135.36 534.62Z" fill="#EA7D7A"/>
<path d="M184.61 531.416C191.694 533.148 198.777 534.879 205.86 536.611C208.777 537.304 211.61 537.996 214.61 538.169C217.36 538.343 220.11 537.996 222.86 538.343C225.61 538.689 228.444 539.641 230.11 541.892C229.027 543.451 226.194 541.979 224.194 542.066C224.527 544.144 228.61 543.711 228.61 545.789C228.61 546.914 227.194 547.52 226.11 547.087C226.11 547.087 226.11 547.174 226.194 547.174C226.777 548.299 225.61 549.598 224.527 549.079C224.444 549.079 224.444 548.992 224.36 548.992C224.444 550.204 222.86 551.07 221.944 550.291C221.944 551.157 220.777 551.416 219.944 551.243C216.36 550.637 213.444 548.126 210.027 547.087C205.944 545.789 201.527 546.654 197.194 546.914C191.277 547.174 185.277 546.221 179.777 544.143C179.027 543.884 178.194 543.451 177.944 542.585C177.777 541.892 178.11 541.113 178.444 540.507C180.11 537.477 182.194 534.62 184.527 532.109L184.61 531.416Z" fill="#D1845A"/>
<path d="M181.277 476.783C182.944 478.255 182.277 481.891 183.444 483.796C185.027 486.48 186.694 489.164 187.694 492.195C190.277 499.641 188.944 508.126 185.277 515.052C184.86 515.918 184.36 516.784 184.194 517.736C184.027 518.689 184.11 519.728 184.277 520.68C184.86 524.316 185.777 527.866 187.027 531.243C187.194 531.676 187.36 532.022 187.277 532.455C187.277 532.888 187.027 533.234 186.86 533.667C185.36 536.265 183.944 538.862 182.444 541.459C181.86 542.585 181.11 543.711 180.027 544.23C178.36 545.009 176.36 543.884 175.11 542.412C172.277 539.122 171.61 534.533 170.277 530.377C170.194 530.117 170.11 529.771 169.86 529.684C169.527 529.511 169.194 529.598 168.86 529.771C164.027 531.503 158.86 532.542 153.777 532.888C149.777 533.148 145.694 532.888 141.86 534.013C139.944 534.446 138.194 535.226 136.36 535.485C135.777 535.572 135.11 535.572 134.61 535.226C134.277 534.966 134.11 534.533 133.944 534.187C132.86 531.416 132.694 528.299 133.527 525.442C134.61 521.719 137.194 518.602 139.944 516.005C141.027 514.966 142.277 513.927 143.027 512.541C143.86 511.069 144.027 509.338 144.444 507.693C146.444 499.9 152.777 494.359 158.777 489.251C163.694 485.095 168.86 480.766 175.11 479.294L181.277 476.783Z" fill="#7E4927"/>
<path d="M156.944 556.265C160.694 553.321 164.527 550.464 168.444 547.693C169.527 546.914 170.694 546.135 171.777 545.356C172.11 545.096 171.777 544.576 171.444 544.836C167.527 547.52 163.61 550.377 159.86 553.235C158.777 554.014 157.694 554.88 156.61 555.745C156.277 555.919 156.61 556.525 156.944 556.265Z" fill="#C23F37"/>
<path d="M168.11 543.97C167.944 545.182 167.527 546.395 166.944 547.52C166.777 547.867 167.277 548.213 167.444 547.867C168.027 546.741 168.527 545.442 168.694 544.143C168.694 543.97 168.61 543.797 168.444 543.711C168.36 543.711 168.11 543.797 168.11 543.97Z" fill="#C23F37"/>
<path d="M157.61 556.178C157.944 555.919 158.527 556.871 158.61 557.044C158.944 557.564 159.36 558.083 159.694 558.689C160.444 559.728 161.194 560.854 161.944 561.893C163.444 564.057 164.944 566.222 166.36 568.386C167.194 569.598 168.027 570.811 168.86 572.023C169.11 572.369 169.61 572.023 169.36 571.676C166.194 567.001 162.944 562.412 159.777 557.737C159.527 557.39 159.36 557.131 159.11 556.784C158.944 556.525 158.777 556.178 158.527 556.005C158.11 555.572 157.527 555.313 157.11 555.745C156.86 556.005 157.36 556.438 157.61 556.178Z" fill="#C23F37"/>
<path d="M136.36 540.594C138.694 539.382 140.944 538.083 143.277 536.871C143.11 536.871 143.027 536.871 142.86 536.784C144.527 538.862 146.194 541.027 147.86 543.105C148.61 544.057 149.527 545.009 150.027 546.135C150.527 547.087 150.527 548.213 150.027 549.165C149.527 550.291 148.61 551.157 147.694 552.022C147.36 552.282 147.86 552.715 148.11 552.455C149.694 550.983 151.444 548.992 150.777 546.654C150.444 545.442 149.61 544.49 148.777 543.537C147.86 542.412 147.027 541.286 146.11 540.161C145.11 538.862 144.11 537.65 143.11 536.351C143.027 536.265 142.86 536.265 142.694 536.265C140.36 537.477 138.11 538.775 135.777 539.988C135.694 540.161 136.027 540.767 136.36 540.594Z" fill="#C23F37"/>
<path d="M137.86 544.75C140.194 542.931 142.444 541.113 144.777 539.382C145.11 539.122 144.777 538.602 144.444 538.862C142.11 540.68 139.86 542.498 137.527 544.23C137.194 544.403 137.527 544.923 137.86 544.75Z" fill="#C23F37"/>
<path d="M168.444 562.326C171.944 559.468 175.36 556.438 178.694 553.408C179.61 552.542 180.61 551.676 181.527 550.724C181.86 550.464 181.36 549.944 181.11 550.291C177.86 553.494 174.444 556.525 171.027 559.468C170.027 560.334 169.027 561.113 168.027 561.979C167.694 562.152 168.11 562.585 168.444 562.326Z" fill="#C23F37"/>
<path d="M152.944 542.325C155.944 542.066 158.944 541.892 161.944 541.633C162.36 541.633 162.36 540.94 161.944 541.027C158.944 541.286 155.944 541.459 152.944 541.719C152.527 541.719 152.527 542.325 152.944 542.325Z" fill="#C23F37"/>
<path d="M193.444 467.346C192.527 468.991 191.694 470.636 190.777 472.194C190.777 473.06 191.86 473.406 192.61 473.06C193.36 472.714 193.777 471.935 194.11 471.242C195.36 468.991 196.86 466.826 198.61 464.921C199.027 464.489 199.444 464.056 200.027 463.969C201.11 463.796 201.944 464.921 202.194 466.047C202.444 467.173 202.444 468.298 203.027 469.251C204.11 471.069 206.694 471.155 208.027 472.714C208.61 473.32 210.277 475.138 210.86 475.658C211.694 476.437 212.944 476.437 214.027 476.177C216.194 475.658 218.11 473.926 218.777 471.761C219.444 469.597 218.777 466.913 217.11 465.528C216.11 464.662 214.777 464.229 213.61 463.536C212.194 462.584 209.61 460.506 208.777 459.207C207.86 457.822 207.277 456.177 206.027 455.051C204.694 453.839 202.777 453.406 200.944 453.146C199.61 452.973 198.11 452.713 196.777 453.146C194.527 453.752 193.027 455.83 191.694 457.822C189.694 460.766 187.527 463.882 187.277 467.519C188.277 466.999 189.36 466.393 190.527 466.307C191.694 466.307 192.944 466.913 193.194 468.125L193.444 467.346Z" fill="black"/>
<path d="M223.444 545.875C224.277 546.828 225.444 547.52 226.61 547.693C226.777 547.693 226.944 547.607 227.027 547.434C227.027 547.26 226.944 547.087 226.777 547.001C225.61 546.828 224.61 546.221 223.86 545.356C223.61 545.096 223.194 545.529 223.444 545.875Z" fill="#7E4927"/>
<path d="M221.86 547.867C222.694 548.819 223.86 549.338 225.027 549.425C225.444 549.425 225.444 548.819 225.027 548.819C223.944 548.732 223.027 548.299 222.277 547.434C222.194 547.347 221.944 547.347 221.86 547.434C221.694 547.607 221.777 547.78 221.86 547.867Z" fill="#7E4927"/>
<path d="M220.11 549.079C220.694 549.944 221.527 550.551 222.527 550.724C222.694 550.724 222.86 550.724 222.944 550.464C222.944 550.291 222.86 550.118 222.694 550.031C222.277 549.944 221.86 549.858 221.527 549.598C221.194 549.338 220.86 549.079 220.61 548.732C220.527 548.559 220.36 548.559 220.194 548.646C220.027 548.732 220.027 548.906 220.11 549.079Z" fill="#7E4927"/>
<path d="M223.944 544.49C222.36 546.048 220.777 547.607 219.194 549.165C218.944 549.425 219.36 549.944 219.61 549.598C221.194 548.04 222.777 546.481 224.36 544.923C224.61 544.663 224.194 544.23 223.944 544.49Z" fill="#7E4927"/>
<path d="M210.36 542.066C209.86 543.105 209.61 544.317 209.61 545.442C209.61 545.875 210.194 545.875 210.194 545.442C210.194 544.403 210.444 543.364 210.86 542.412C210.944 542.239 210.944 542.066 210.777 541.979C210.694 541.892 210.444 541.979 210.36 542.066Z" fill="#7E4927"/>
<path d="M215.277 508.991C216.777 508.905 218.277 508.732 219.777 508.732C221.027 508.645 222.527 508.732 223.527 509.598C223.777 509.771 223.944 510.03 224.11 510.204C224.194 510.29 224.277 510.463 224.194 510.636C224.11 510.81 223.944 510.896 223.86 510.983C223.444 511.329 222.777 511.416 222.194 511.243C221.61 511.069 221.194 510.636 220.61 510.55C220.027 510.463 219.61 510.81 219.277 511.243C218.86 511.762 218.61 512.368 218.027 512.714C217.444 513.147 216.777 513.32 216.11 513.32C215.694 513.32 215.694 513.927 216.11 513.927C217.444 513.927 218.61 513.147 219.444 512.022C219.777 511.589 220.11 510.896 220.777 511.069C221.027 511.156 221.277 511.329 221.527 511.502C221.86 511.675 222.11 511.762 222.444 511.849C223.11 511.935 223.694 511.675 224.194 511.329C224.444 511.156 224.694 510.896 224.694 510.55C224.777 510.204 224.527 509.857 224.277 509.511C223.444 508.385 221.944 507.952 220.61 507.952C219.694 507.952 218.777 508.039 217.86 508.039C216.944 508.126 215.944 508.126 215.027 508.212C214.86 508.385 214.86 508.991 215.277 508.991Z" fill="#7E4927"/>
<path d="M222.944 505.355C222.86 506.221 222.277 507.087 221.527 507.606C221.36 507.693 221.36 507.866 221.444 508.039C221.527 508.212 221.694 508.212 221.86 508.126C222.777 507.52 223.444 506.481 223.527 505.355C223.527 505.182 223.36 505.009 223.194 505.009C223.11 505.009 222.944 505.182 222.944 505.355Z" fill="#7E4927"/>
<path d="M224.694 506.567C224.694 507.52 224.277 508.472 223.527 508.991C223.36 509.078 223.36 509.251 223.444 509.424C223.527 509.598 223.694 509.598 223.86 509.511C224.777 508.905 225.444 507.693 225.36 506.567C225.36 506.394 225.194 506.221 225.027 506.221C224.86 506.307 224.694 506.394 224.694 506.567Z" fill="#7E4927"/>
<path d="M226.277 508.818C226.277 508.905 226.277 508.905 226.277 508.818C226.277 508.905 226.194 508.991 226.277 508.818C226.194 508.905 226.194 508.991 226.194 508.991C226.194 508.991 226.194 509.078 226.11 509.078C226.11 509.078 226.11 509.078 226.11 509.165C226.11 509.165 226.11 509.165 226.027 509.251L225.86 509.424C225.86 509.424 225.86 509.424 225.777 509.424C225.694 509.511 225.61 509.511 225.527 509.598C225.527 509.598 225.444 509.598 225.444 509.684C225.444 509.684 225.444 509.684 225.36 509.684C225.277 509.684 225.194 509.771 225.11 509.771C225.027 509.771 225.027 509.771 224.944 509.771C224.777 509.771 224.61 509.944 224.61 510.117C224.61 510.29 224.777 510.463 224.944 510.463C225.86 510.463 226.694 509.857 226.944 508.905C227.027 508.732 226.86 508.559 226.694 508.472C226.444 508.559 226.36 508.645 226.277 508.818Z" fill="#7E4927"/>
<path d="M223.86 511.675C224.944 512.108 226.194 511.935 227.11 511.156C227.277 511.069 227.194 510.81 227.11 510.723C226.944 510.55 226.777 510.636 226.694 510.723C225.944 511.329 224.944 511.502 224.027 511.069C223.86 510.983 223.694 511.156 223.61 511.329C223.61 511.416 223.694 511.589 223.86 511.675Z" fill="#7E4927"/>
<path d="M224.61 511.243C224.277 511.329 223.944 511.329 223.61 511.589C223.277 511.762 223.027 512.108 222.944 512.455C222.86 512.801 222.944 513.234 223.277 513.494C223.527 513.753 223.944 513.927 224.277 513.927C224.694 514.013 225.11 514.013 225.527 513.84C225.694 513.753 225.777 513.58 225.777 513.407C225.777 513.234 225.527 513.147 225.36 513.147C225.027 513.321 224.694 513.321 224.36 513.234C224.194 513.234 224.027 513.147 223.944 513.061L223.86 512.974C223.86 512.974 223.86 512.974 223.777 512.974L223.61 512.801V512.714C223.61 512.801 223.61 512.628 223.61 512.628C223.61 512.628 223.61 512.628 223.61 512.541V512.455C223.61 512.541 223.61 512.368 223.61 512.368C223.61 512.368 223.61 512.282 223.694 512.282L223.86 512.108C224.027 512.022 224.11 511.935 224.277 511.849C224.444 511.762 224.61 511.762 224.86 511.762C225.027 511.762 225.11 511.502 225.11 511.329C224.944 511.243 224.777 511.243 224.61 511.243Z" fill="#7E4927"/>
<path d="M221.86 512.195C220.444 511.935 218.944 512.628 218.36 514.013C218.277 514.186 218.277 514.359 218.444 514.446C218.61 514.533 218.777 514.446 218.86 514.359C219.36 513.321 220.527 512.628 221.694 512.801C221.86 512.801 222.027 512.714 222.11 512.541C222.11 512.368 222.027 512.195 221.86 512.195Z" fill="#7E4927"/>
<path d="M212.194 512.195C212.194 513.407 212.194 514.619 212.194 515.831C212.194 516.264 212.777 516.264 212.777 515.831C212.777 514.619 212.777 513.407 212.777 512.195C212.86 511.762 212.194 511.762 212.194 512.195Z" fill="#7E4927"/>
<path d="M199.86 483.796C199.11 485.528 200.11 487.779 201.944 488.298C202.36 488.385 202.527 487.779 202.11 487.692C200.694 487.346 199.86 485.528 200.444 484.143C200.527 483.969 200.527 483.796 200.36 483.71C200.11 483.623 199.944 483.623 199.86 483.796Z" fill="#7E4927"/>
<path d="M191.444 487.606L187.86 480.073L188.944 488.818L191.444 487.606Z" fill="#7E4927"/>
<path d="M188.86 468.904C189.277 469.857 189.36 470.809 189.36 471.848C189.36 472.021 189.527 472.194 189.694 472.194C189.86 472.194 190.027 472.021 190.027 471.848C190.11 470.722 189.944 469.597 189.444 468.644C189.36 468.471 189.194 468.471 189.027 468.558C188.86 468.558 188.86 468.818 188.86 468.904Z" fill="#7E4927"/>
<path d="M188.027 470.03C188.527 470.203 189.11 470.376 189.61 470.549C189.777 470.636 189.944 470.463 190.027 470.29C190.027 470.116 189.944 469.943 189.777 469.857C189.277 469.683 188.694 469.51 188.194 469.337C188.027 469.251 187.86 469.424 187.777 469.597C187.777 469.77 187.86 469.943 188.027 470.03Z" fill="#7E4927"/>
<path d="M216.777 468.471C217.527 467.865 217.777 466.913 217.61 465.96C217.444 464.921 216.86 464.056 216.11 463.363C215.36 462.757 214.527 462.324 213.694 461.891C212.86 461.458 212.11 461.025 211.277 460.592C210.61 460.159 209.86 459.727 209.36 459.12C208.777 458.514 208.277 457.735 207.86 456.956C207.027 455.484 206.194 453.752 204.777 452.8C202.944 451.588 200.444 452.107 199.11 453.926C198.86 454.272 199.444 454.618 199.61 454.272C200.694 452.8 202.694 452.367 204.277 453.32C205.694 454.185 206.444 455.744 207.194 457.129C207.61 457.822 208.027 458.601 208.61 459.207C209.11 459.813 209.694 460.246 210.277 460.679C211.027 461.198 211.777 461.631 212.527 462.064C213.194 462.411 213.944 462.757 214.61 463.19C215.527 463.709 216.527 464.402 216.86 465.441C217.194 466.307 217.11 467.432 216.36 468.038C216.027 468.298 216.444 468.731 216.777 468.471Z" fill="black"/>
<path d="M201.953 481.36C202.471 481.671 203.227 481.318 203.641 480.573C204.056 479.828 203.971 478.971 203.453 478.661C202.935 478.35 202.179 478.702 201.765 479.447C201.351 480.193 201.435 481.049 201.953 481.36Z" fill="black"/>
<path d="M207.194 476.004C207.027 477.129 205.694 477.909 204.694 477.476C204.277 477.303 203.944 476.956 203.61 476.697C202.694 476.177 201.527 476.35 200.527 476.004C200.444 476.004 200.36 475.917 200.277 475.831C200.194 475.658 200.36 475.398 200.61 475.311C202.694 474.272 205.277 474.359 207.194 475.744V476.004Z" fill="black"/>
<path d="M184.694 518.342C183.944 515.225 184.527 511.935 184.944 508.732C185.36 505.528 185.444 502.238 185.277 498.948C184.944 493.926 183.777 487.779 179.027 485.355C176.777 484.229 173.944 484.056 171.86 485.614C171.527 485.874 171.86 486.394 172.194 486.134C174.027 484.835 176.36 484.835 178.36 485.701C180.527 486.653 182.11 488.558 183.027 490.723C184.11 493.147 184.444 495.918 184.694 498.515C184.944 501.632 184.86 504.836 184.444 507.952C184.027 511.416 183.36 514.879 184.194 518.342C184.194 518.948 184.777 518.775 184.694 518.342Z" fill="#54260C"/>
<path d="M167.527 495.918C166.86 501.286 166.194 506.654 166.694 512.022C166.86 513.407 167.027 514.706 167.36 516.005C167.61 517.303 168.027 518.515 168.36 519.814C168.694 521.199 168.86 522.498 168.86 523.883C168.86 525.182 168.777 526.394 168.944 527.693C169.277 530.29 170.194 532.801 171.194 535.226C171.36 535.572 171.86 535.312 171.694 534.879C170.777 532.801 169.944 530.55 169.61 528.299C169.444 527.087 169.444 525.875 169.444 524.576C169.444 523.191 169.36 521.892 169.11 520.507C168.86 519.208 168.444 517.909 168.11 516.697C167.777 515.398 167.527 514.1 167.36 512.801C167.027 510.204 167.027 507.52 167.194 504.836C167.36 501.805 167.777 498.861 168.11 495.831C168.11 495.658 167.944 495.485 167.777 495.485C167.694 495.571 167.61 495.744 167.527 495.918Z" fill="#54260C"/>
<path d="M173.86 540.074C175.527 538.516 177.86 537.91 179.777 536.784C181.61 535.658 183.194 534.1 184.444 532.282C185.11 531.243 185.694 530.117 186.11 528.992C186.277 528.645 185.694 528.472 185.527 528.819C184.777 530.81 183.61 532.715 182.11 534.187C181.36 534.966 180.527 535.572 179.61 536.178C178.694 536.784 177.61 537.217 176.61 537.65C175.444 538.169 174.36 538.775 173.444 539.641C173.11 539.901 173.61 540.334 173.86 540.074Z" fill="#54260C"/>
<path d="M181.777 536.784C180.36 537.823 179.11 539.035 178.11 540.42C178.027 540.594 177.944 540.767 178.11 540.853C178.194 540.94 178.444 541.027 178.527 540.853C179.527 539.468 180.777 538.256 182.11 537.304C182.277 537.217 182.277 537.044 182.194 536.871C182.11 536.784 181.944 536.697 181.777 536.784Z" fill="#54260C"/>
<path d="M182.444 537.823C182.11 538.602 181.61 539.295 181.11 539.901C181.027 539.988 181.027 540.247 181.11 540.334C181.194 540.421 181.444 540.507 181.527 540.334C182.11 539.641 182.61 538.949 182.944 538.083C183.027 537.91 182.944 537.736 182.86 537.65C182.777 537.563 182.527 537.65 182.444 537.823Z" fill="#54260C"/>
<path d="M182.86 517.736C181.694 518.862 180.527 519.987 179.36 521.113C179.11 521.286 179.36 521.805 179.694 521.632C180.36 521.373 180.944 521.113 181.61 520.94C181.777 520.853 181.86 520.853 182.027 520.767C182.11 520.767 182.11 520.767 182.194 520.68C182.277 520.68 182.277 520.593 182.194 520.593V520.68C182.027 520.94 181.944 521.199 181.777 521.459C181.11 522.585 180.444 523.624 179.694 524.663C179.444 525.009 180.027 525.355 180.194 525.009C180.694 524.403 181.11 523.71 181.527 523.018C181.944 522.412 182.36 521.719 182.694 521.026C182.777 520.767 182.86 520.507 182.777 520.247C182.61 519.901 182.277 519.987 181.944 520.074C181.194 520.334 180.36 520.68 179.61 520.94C179.694 521.113 179.777 521.286 179.944 521.459C181.11 520.334 182.277 519.208 183.444 518.083C183.61 517.909 183.194 517.476 182.86 517.736Z" fill="#54260C"/>
<path d="M134.444 531.936C136.194 532.542 138.027 531.936 139.694 531.243C140.61 530.897 141.444 530.464 142.36 530.204C143.36 529.858 144.277 529.684 145.36 529.598C147.527 529.425 149.694 529.338 151.86 529.252C154.027 529.165 156.194 529.078 158.36 528.992C160.86 528.905 163.277 528.732 165.777 528.645C166.194 528.645 166.194 527.953 165.777 528.039C161.444 528.213 157.11 528.386 152.777 528.645C150.61 528.732 148.444 528.819 146.36 528.992C145.277 529.078 144.277 529.165 143.194 529.425C142.277 529.684 141.444 530.031 140.527 530.377C138.694 531.156 136.61 532.022 134.61 531.416C134.277 531.156 134.11 531.762 134.444 531.936Z" fill="#54260C"/>
<path d="M143.86 512.628C145.61 514.359 147.694 515.658 150.027 516.437C150.277 516.524 150.527 516.178 150.36 516.005C149.194 513.753 147.194 512.282 145.194 510.896C145.11 511.069 145.027 511.329 144.944 511.502C147.527 512.022 150.027 512.541 152.61 513.061C153.027 513.147 153.194 512.541 152.777 512.455C150.194 511.935 147.694 511.416 145.11 510.896C144.777 510.81 144.61 511.243 144.86 511.502C146.694 512.801 148.694 514.273 149.777 516.351C149.86 516.178 150.027 516.005 150.11 515.918C147.944 515.225 145.86 514.013 144.194 512.281C144.027 511.849 143.61 512.282 143.86 512.628Z" fill="#54260C"/>
<path d="M165.36 497.13C165.527 498.342 165.944 499.554 166.527 500.593C166.694 500.939 167.277 500.593 167.027 500.247C166.444 499.208 166.027 498.082 165.86 496.957C165.86 496.783 165.61 496.697 165.444 496.697C165.444 496.783 165.36 496.957 165.36 497.13Z" fill="#54260C"/>
<path d="M138.86 571.33C139.527 572.456 140.277 573.581 140.944 574.793C141.194 575.226 141.527 575.659 142.027 575.746C142.527 575.832 143.027 575.659 143.444 575.486C143.86 575.313 144.36 575.053 144.86 575.14C145.277 575.226 145.694 575.486 146.027 575.832C146.86 576.698 147.027 577.91 147.277 579.036C147.444 580.161 147.777 581.2 148.36 582.153C148.944 583.019 149.694 583.798 150.527 584.404C152.444 585.789 154.86 586.309 157.11 586.655C159.194 587.001 161.694 587.088 163.277 585.356C163.527 585.097 163.11 584.577 162.86 584.923C161.527 586.395 159.36 586.309 157.61 586.135C155.444 585.876 153.11 585.356 151.277 584.144C150.444 583.625 149.694 582.932 149.11 582.066C148.444 581.114 148.194 580.075 147.944 579.036C147.777 577.91 147.527 576.785 146.944 575.919C146.444 575.14 145.61 574.534 144.61 574.62C144.027 574.62 143.527 574.967 143.027 575.14C142.777 575.226 142.527 575.313 142.277 575.226C142.027 575.14 141.777 574.967 141.694 574.707C140.86 573.495 140.194 572.283 139.444 571.07C139.194 570.724 138.694 570.984 138.86 571.33Z" fill="white"/>
<path d="M155.777 575.399C154.277 575.746 153.277 577.304 152.944 578.776C152.694 579.642 152.694 580.508 153.027 581.287C153.277 581.98 153.86 582.586 154.61 582.759C155.36 583.019 156.11 582.759 156.777 582.413C157.36 582.066 158.11 581.46 158.36 580.854C158.444 580.594 158.527 580.248 158.444 579.988C158.36 579.642 157.944 579.469 157.61 579.555C156.944 579.642 156.36 580.248 156.11 580.854C155.777 581.633 155.944 582.413 156.444 583.019C156.944 583.625 157.777 583.884 158.527 583.711C158.944 583.625 158.777 583.019 158.36 583.105C157.36 583.365 156.36 582.413 156.61 581.374C156.694 580.854 157.027 580.421 157.527 580.248C157.694 580.161 157.944 580.075 157.86 580.335C157.86 580.594 157.694 580.767 157.527 580.941C156.86 581.72 155.61 582.672 154.527 582.153C153.36 581.633 153.194 580.075 153.527 578.949C153.86 577.737 154.61 576.352 155.944 576.005C156.36 575.919 156.194 575.313 155.777 575.399Z" fill="white"/>
<path d="M166.777 576.785C168.277 577.824 170.194 577.391 171.694 576.698C173.277 576.005 174.86 574.88 176.61 574.707C177.444 574.62 178.194 574.707 178.86 575.226C179.527 575.746 179.944 576.438 180.527 577.044C181.277 577.651 182.194 577.737 183.11 577.737C184.194 577.737 185.277 577.737 186.36 577.651C188.777 577.477 191.194 577.131 193.61 576.698C194.027 576.612 193.86 576.005 193.444 576.092C191.36 576.525 189.277 576.785 187.11 576.958C186.027 577.044 185.027 577.131 183.944 577.131C183.027 577.131 181.944 577.304 181.11 576.785C180.444 576.352 180.11 575.573 179.444 575.053C178.86 574.534 178.11 574.187 177.277 574.187C175.527 574.101 173.944 574.966 172.444 575.746C170.86 576.612 168.694 577.564 166.944 576.352C166.694 576.005 166.444 576.525 166.777 576.785Z" fill="white"/>
<path d="M179.027 569.425C178.86 570.897 179.11 572.456 180.194 573.408C181.11 574.274 182.527 574.534 183.527 573.754C184.027 573.408 184.36 572.802 184.444 572.196C184.527 571.59 184.194 570.984 183.694 570.724C183.194 570.464 182.61 570.551 182.36 571.157C182.11 571.763 182.277 572.369 182.61 572.889C183.277 574.187 184.61 575.053 186.027 575.226C186.444 575.313 186.444 574.62 186.027 574.62C185.11 574.534 184.194 574.014 183.527 573.235C183.194 572.889 182.944 572.456 182.86 571.936C182.777 571.59 182.86 571.07 183.277 571.244C183.61 571.417 183.86 571.85 183.777 572.196C183.694 572.629 183.444 573.062 183.027 573.321C182.194 573.841 181.194 573.581 180.527 572.975C179.61 572.109 179.444 570.724 179.61 569.425C179.694 568.992 179.027 569.079 179.027 569.425Z" fill="white"/>
<path d="M242.027 561.979C245.11 563.365 248.444 561.979 251.027 560.075C251.777 559.468 252.527 558.862 253.277 558.256C253.61 557.997 253.11 557.564 252.86 557.823C250.527 559.815 247.944 561.893 244.777 561.979C243.944 561.979 243.11 561.806 242.277 561.46C241.944 561.287 241.61 561.806 242.027 561.979Z" fill="#7E4927"/>
<path d="M240.86 552.369C242.527 552.629 244.277 552.455 245.86 551.849C246.61 551.503 247.36 551.07 248.027 550.551C248.694 550.031 249.194 549.512 249.86 548.992C250.527 548.473 251.277 547.953 252.11 547.953C252.527 547.953 252.527 547.26 252.11 547.347C250.527 547.434 249.36 548.646 248.277 549.598C247.027 550.724 245.527 551.503 243.86 551.849C242.944 552.022 241.944 552.022 241.027 551.849C240.61 551.676 240.444 552.369 240.86 552.369Z" fill="#7E4927"/>
<path d="M256.277 582.845C256.694 581.027 257.777 579.469 259.194 578.257C260.777 576.958 262.694 576.179 264.61 575.659C265.777 575.313 266.944 575.14 268.194 574.966C268.61 574.88 268.444 574.274 268.027 574.36C263.944 575.053 259.61 576.092 257.027 579.729C256.36 580.594 255.944 581.633 255.694 582.672C255.61 583.105 256.194 583.278 256.277 582.845Z" fill="#7E4927"/>
<path d="M253.86 595.4C252.86 595.746 252.36 597.045 252.777 598.084C252.86 598.257 253.027 598.257 253.194 598.17C253.36 598.084 253.36 597.911 253.277 597.737C253.277 597.824 253.277 597.651 253.277 597.737V597.651C253.277 597.564 253.277 597.564 253.277 597.478V597.391C253.277 597.305 253.277 597.305 253.277 597.218C253.277 597.131 253.277 597.131 253.277 597.045V596.958C253.277 596.872 253.36 596.785 253.36 596.698C253.36 596.698 253.36 596.698 253.36 596.612C253.36 596.525 253.444 596.525 253.444 596.439C253.444 596.439 253.444 596.439 253.444 596.352C253.444 596.266 253.527 596.266 253.527 596.266L253.61 596.179C253.61 596.179 253.61 596.179 253.694 596.179C253.694 596.179 253.777 596.092 253.86 596.092H253.944C254.11 596.006 254.194 595.833 254.194 595.659C254.194 595.486 254.027 595.313 253.86 595.4Z" fill="#7E4927"/>
<path d="M255.61 596.352C254.86 596.612 254.277 597.391 254.277 598.257C254.277 598.43 254.444 598.603 254.61 598.603C254.777 598.603 254.944 598.43 254.944 598.257C254.944 598.17 254.944 598.17 254.944 598.084V597.997C254.944 598.084 254.944 598.084 254.944 597.997C254.944 597.911 254.944 597.911 254.944 597.911V597.824C254.944 597.824 254.944 597.737 255.027 597.737C255.027 597.737 255.027 597.737 255.027 597.651C255.027 597.564 255.11 597.478 255.194 597.391C255.194 597.391 255.194 597.391 255.194 597.305L255.36 597.131C255.36 597.131 255.36 597.131 255.444 597.131C255.527 597.045 255.61 597.045 255.61 597.045C255.61 597.045 255.61 597.045 255.694 597.045C255.777 597.045 255.777 597.045 255.86 596.958C256.027 596.872 256.11 596.698 256.11 596.525C255.944 596.439 255.777 596.352 255.61 596.352Z" fill="#7E4927"/>
<path d="M239.61 589.426C239.027 589.512 238.61 589.859 238.36 590.378C238.11 590.898 238.11 591.504 238.444 592.023C238.527 592.196 238.694 592.196 238.86 592.11C239.027 592.023 239.11 591.85 238.944 591.677C238.944 591.59 238.86 591.59 238.86 591.504C238.86 591.504 238.86 591.504 238.86 591.417C238.86 591.33 238.86 591.33 238.86 591.244V591.157C238.86 591.071 238.86 591.071 238.86 590.984V590.898C238.86 590.811 238.86 590.811 238.86 590.724V590.638C238.86 590.638 238.86 590.638 238.86 590.551C238.944 590.465 238.944 590.378 239.027 590.291C239.027 590.291 239.027 590.291 239.11 590.205L239.194 590.118C239.194 590.118 239.194 590.118 239.277 590.118C239.277 590.118 239.36 590.032 239.444 590.032C239.444 590.032 239.444 590.032 239.527 590.032H239.694C239.694 590.032 239.694 590.032 239.777 590.032C239.694 590.032 239.694 590.032 239.777 590.032C239.944 590.032 240.11 589.859 240.11 589.685C239.86 589.599 239.777 589.426 239.61 589.426Z" fill="#7E4927"/>
<path d="M241.11 590.118C240.36 590.378 239.86 591.33 240.11 592.11C240.194 592.283 240.36 592.369 240.527 592.369C240.694 592.283 240.777 592.11 240.777 591.936V591.85C240.777 591.85 240.777 591.85 240.777 591.763V591.59C240.777 591.504 240.777 591.504 240.777 591.59V591.33C240.777 591.417 240.777 591.244 240.777 591.33C240.777 591.33 240.777 591.33 240.777 591.244C240.777 591.244 240.777 591.157 240.86 591.157C240.86 591.157 240.86 591.157 240.86 591.071C240.944 590.984 240.944 590.984 240.944 590.984L241.027 590.898C241.11 590.811 240.944 590.898 241.027 590.898C241.027 590.898 241.11 590.897 241.11 590.811L241.194 590.724C241.277 590.724 241.277 590.724 241.277 590.724C241.444 590.638 241.527 590.465 241.527 590.291C241.444 590.205 241.277 590.032 241.11 590.118Z" fill="#7E4927"/>
<path d="M223.027 531.07C224.11 531.156 224.277 529.338 225.277 528.905C226.36 528.386 227.86 529.771 228.61 528.819C228.444 528.126 227.694 527.78 227.027 527.606C226.027 527.347 224.944 527.26 223.86 527.433C223.444 527.52 223.11 527.606 222.777 527.78C222.277 528.126 221.944 528.732 221.944 529.425C222.027 530.031 222.36 530.637 222.944 530.897L223.027 531.07Z" fill="black"/>
<path d="M234.444 529.598C234.61 528.905 235.194 528.386 235.944 528.472C236.61 528.559 237.11 529.251 237.11 529.858C237.11 530.29 237.694 530.29 237.694 529.858C237.694 528.819 236.944 527.953 235.944 527.78C234.944 527.693 234.027 528.386 233.86 529.425C233.86 529.598 233.944 529.771 234.11 529.858C234.277 529.858 234.444 529.771 234.444 529.598Z" fill="black"/>
<path d="M223.36 531.243C224.027 532.715 225.36 533.84 226.86 534.273C227.694 534.446 228.527 534.446 229.277 534.013C229.944 533.581 230.36 532.974 230.36 532.195C230.36 531.762 229.777 531.762 229.777 532.195C229.694 532.801 229.277 533.321 228.777 533.581C228.11 533.927 227.36 533.84 226.694 533.581C225.444 533.148 224.444 532.195 223.86 530.983C223.694 530.55 223.194 530.897 223.36 531.243Z" fill="#7E4927"/>
<path d="M235.86 525.009C235.527 524.922 235.194 525.355 235.36 525.788C235.444 526.135 235.777 526.394 236.11 526.481C236.444 526.567 236.777 526.567 237.11 526.741C237.61 526.914 238.11 527.347 238.61 527.52C239.11 527.693 239.86 527.433 239.944 526.827C239.944 526.481 239.694 526.135 239.444 525.961C238.944 525.442 238.36 524.922 237.694 524.663C237.027 524.403 236.194 524.316 235.61 524.749L235.86 525.009Z" fill="black"/>
<path d="M262.694 561.893C262.444 562.412 262.777 563.105 263.277 563.365C263.777 563.624 264.444 563.451 264.86 563.105C265.527 562.499 265.527 561.287 264.777 560.767C264.027 560.248 262.86 560.767 262.86 561.72L262.694 561.893Z" fill="#7E4927"/>
<path d="M267.027 564.317C266.194 565.443 266.444 567.174 267.527 567.953C268.61 568.733 270.277 568.473 271.027 567.347C271.527 566.655 271.61 565.789 271.694 564.923C271.694 564.577 271.777 564.144 271.61 563.884C271.444 563.451 270.944 563.105 270.527 562.932C269.027 562.412 267.277 563.278 266.694 564.75L267.027 564.317Z" fill="#7E4927"/>
<path d="M266.777 557.997C266.777 558.429 266.777 558.776 266.944 559.209C267.11 559.555 267.61 559.815 267.944 559.642C268.11 559.555 268.194 559.382 268.277 559.209C268.527 558.689 268.36 558.083 267.944 557.737C267.527 557.477 266.777 557.823 266.86 558.343L266.777 557.997Z" fill="#7E4927"/>
<path d="M248.277 525.702C249.277 526.827 250.36 527.866 251.527 528.732C251.694 528.819 251.86 528.732 251.944 528.645C252.027 528.472 251.944 528.299 251.86 528.213C250.694 527.347 249.61 526.394 248.694 525.269C248.444 524.922 248.027 525.355 248.277 525.702Z" fill="#54260C"/>
<path d="M253.694 524.057C254.194 525.096 254.61 526.048 255.11 527.087C255.194 527.26 255.36 527.26 255.527 527.174C255.694 527.087 255.694 526.914 255.61 526.741C255.11 525.702 254.694 524.749 254.194 523.71C254.11 523.537 253.944 523.537 253.777 523.624C253.61 523.71 253.61 523.883 253.694 524.057Z" fill="#54260C"/>
<path d="M255.61 525.269C255.86 526.221 256.36 527.087 257.027 527.78C257.11 527.866 257.36 527.866 257.444 527.78C257.527 527.693 257.527 527.433 257.444 527.347C256.86 526.741 256.36 525.961 256.194 525.096C256.11 524.922 255.944 524.836 255.777 524.836C255.694 524.836 255.61 525.096 255.61 525.269Z" fill="#54260C"/>
<path d="M239.194 543.191C244.777 542.498 250.11 540.247 254.61 536.784C255.11 536.351 255.277 535.659 254.86 535.139C254.777 535.052 254.777 534.966 254.694 534.879C254.277 534.273 253.527 534.1 252.944 534.533C248.86 537.823 243.944 539.988 238.86 540.767C238.11 540.853 237.694 541.633 237.944 542.412C238.11 542.931 238.61 543.278 239.194 543.191Z" fill="#7E4927"/>
<path d="M242.194 541.633C245.444 541.2 248.527 540.161 251.277 538.429C252.027 537.91 252.777 537.39 253.694 537.13C254.11 537.044 253.944 536.438 253.527 536.524C252.777 536.784 252.11 537.13 251.444 537.563C250.777 537.996 250.11 538.429 249.36 538.775C247.944 539.555 246.36 540.074 244.86 540.507C243.944 540.767 243.11 540.94 242.194 541.027C241.777 541.027 241.777 541.719 242.194 541.633Z" fill="#54260C"/>
<path d="M264.86 549.944C265.777 549.944 266.694 549.944 267.61 549.944C268.027 549.944 268.027 549.338 267.61 549.338C266.694 549.338 265.777 549.338 264.86 549.338C264.527 549.338 264.527 549.944 264.86 549.944Z" fill="#F59F18"/>
<path d="M266.444 551.763C267.194 551.763 267.944 551.763 268.694 551.763C268.86 551.763 269.027 551.589 269.027 551.416C269.027 551.243 268.86 551.07 268.694 551.07C267.944 551.07 267.194 551.07 266.444 551.07C266.277 551.07 266.11 551.243 266.11 551.416C266.11 551.589 266.277 551.763 266.444 551.763Z" fill="#F59F18"/>
<path d="M279.027 572.542C279.61 572.023 280.36 571.676 281.11 571.503C281.277 571.503 281.36 571.244 281.36 571.07C281.277 570.897 281.11 570.811 280.944 570.811C280.11 570.984 279.277 571.417 278.61 572.023C278.444 572.109 278.527 572.369 278.61 572.456C278.694 572.715 278.86 572.715 279.027 572.542Z" fill="#F59F18"/>
<path d="M279.527 573.408C280.11 573.148 280.694 572.975 281.277 572.715C281.444 572.629 281.527 572.456 281.527 572.282C281.444 572.109 281.277 572.023 281.11 572.023C280.527 572.283 279.944 572.456 279.36 572.715C279.194 572.802 279.11 572.975 279.11 573.148C279.194 573.321 279.36 573.408 279.527 573.408Z" fill="#F59F18"/>
<path d="M237.444 555.745C236.944 556.438 236.36 557.131 235.86 557.823C235.777 557.997 235.694 558.17 235.86 558.256C235.944 558.343 236.194 558.429 236.277 558.256C236.777 557.564 237.36 556.871 237.86 556.178C237.944 556.005 238.027 555.832 237.86 555.745C237.777 555.659 237.61 555.572 237.444 555.745Z" fill="#F59F18"/>
<path d="M237.86 557.304C237.777 557.564 237.694 557.823 237.527 558.083C237.36 558.343 237.277 558.603 237.027 558.862C236.944 559.036 237.027 559.209 237.11 559.295C237.277 559.382 237.444 559.295 237.527 559.209C237.86 558.689 238.194 558.083 238.36 557.477C238.444 557.304 238.277 557.131 238.11 557.044C238.11 557.044 237.944 557.131 237.86 557.304Z" fill="#F59F18"/>
<path d="M236.944 537.217C236.444 537.563 236.027 537.91 235.694 538.429C235.61 538.516 235.61 538.602 235.61 538.689C235.61 538.775 235.61 538.862 235.694 538.949C235.777 539.035 236.027 539.122 236.11 538.949C236.277 538.775 236.444 538.516 236.61 538.343C236.694 538.256 236.777 538.169 236.944 538.083C236.944 538.083 237.027 538.083 237.027 537.996C237.11 537.996 237.11 537.91 237.194 537.91C237.36 537.823 237.36 537.65 237.277 537.477C237.277 537.217 237.11 537.13 236.944 537.217Z" fill="#F59F18"/>
<path d="M237.61 537.823C237.36 538.343 237.11 538.862 236.944 539.468C236.86 539.641 236.86 539.814 237.027 539.901C237.194 539.988 237.36 539.988 237.444 539.814C237.694 539.295 237.944 538.775 238.11 538.169C238.194 537.996 238.194 537.823 238.027 537.737C237.86 537.563 237.694 537.65 237.61 537.823Z" fill="#F59F18"/>
<path d="M242.777 544.317C242.36 545.529 242.194 547.001 243.277 547.953C244.277 548.732 245.694 548.126 246.527 547.434C247.36 546.741 248.11 545.702 248.194 544.49C248.277 543.97 248.11 543.364 247.61 543.278C247.027 543.105 246.527 543.884 246.277 544.403C246.027 544.923 245.86 545.615 246.11 546.221C246.277 546.741 246.694 547.26 247.277 547.347C248.444 547.52 249.61 546.395 250.11 545.356C250.36 544.75 250.527 544.143 250.527 543.537C250.527 543.018 250.194 542.325 249.61 542.672C249.194 542.931 249.027 543.537 249.027 543.97C249.027 544.49 249.194 544.923 249.527 545.269C250.36 546.308 251.777 546.135 252.694 545.356C253.527 544.576 254.11 542.931 253.027 542.152C252.86 542.066 252.61 542.152 252.61 542.325C252.444 543.105 252.944 543.711 253.61 543.884C254.444 544.144 255.277 543.711 255.944 543.278C256.277 543.105 255.944 542.498 255.61 542.758C255.11 543.018 254.527 543.451 253.944 543.364C253.527 543.364 253.027 542.931 253.11 542.498C252.944 542.585 252.777 542.585 252.694 542.672C253.36 543.105 252.944 544.23 252.527 544.663C252.027 545.183 251.194 545.615 250.444 545.269C249.86 545.009 249.527 544.23 249.694 543.624C249.694 543.451 249.777 543.364 249.86 543.278L249.944 543.191C249.86 543.278 249.86 543.105 249.86 543.191C249.86 543.278 249.86 543.451 249.86 543.537C249.86 543.97 249.777 544.403 249.527 544.836C249.194 545.615 248.527 546.395 247.694 546.654C246.694 546.914 246.36 545.789 246.61 545.009C246.694 544.836 246.777 544.576 246.944 544.403C247.027 544.317 247.194 543.97 247.36 543.97C247.61 543.97 247.444 544.75 247.36 544.923C247.11 545.702 246.694 546.481 246.027 547.001C245.36 547.52 244.194 548.126 243.444 547.607C242.527 546.914 242.777 545.615 243.11 544.663C243.444 544.144 242.86 543.97 242.777 544.317Z" fill="#C87C0D"/>
<path d="M256.444 565.875C256.444 566.655 256.694 567.347 257.194 567.953C257.277 568.04 257.527 568.04 257.61 567.953C257.694 567.78 257.694 567.607 257.61 567.521C257.444 567.347 257.277 567.001 257.194 566.828C257.11 566.655 257.11 566.482 257.11 566.395C257.11 566.395 257.11 566.395 257.11 566.308V566.222C257.11 566.135 257.11 566.049 257.11 565.962C257.11 565.789 256.944 565.616 256.777 565.616C256.61 565.529 256.444 565.702 256.444 565.875Z" fill="#C87C0D"/>
<path d="M259.11 564.317C258.86 565.183 258.944 566.135 259.36 566.914C259.444 567.088 259.61 567.088 259.777 567.001C259.944 566.914 259.944 566.741 259.86 566.568C259.527 565.875 259.527 565.183 259.694 564.404C259.777 564.23 259.61 564.057 259.444 563.971C259.277 564.057 259.11 564.144 259.11 564.317Z" fill="#C87C0D"/>
<path d="M260.61 554.88C261.11 555.745 261.36 556.784 261.444 557.823C261.444 558.256 262.11 558.256 262.027 557.823C262.027 556.698 261.694 555.572 261.11 554.62C261.027 554.187 260.444 554.447 260.61 554.88Z" fill="#C87C0D"/>
<path d="M262.694 570.118C262.86 570.464 263.027 570.811 263.194 571.157C263.277 571.33 263.444 571.33 263.61 571.244C263.777 571.157 263.777 570.984 263.694 570.811C263.527 570.464 263.36 570.118 263.194 569.772C263.11 569.598 262.944 569.598 262.777 569.685C262.694 569.772 262.61 570.031 262.694 570.118Z" fill="#C87C0D"/>
<path d="M264.86 570.291C265.027 570.637 265.194 570.984 265.36 571.417C265.36 571.503 265.444 571.503 265.527 571.59C265.61 571.59 265.694 571.59 265.777 571.59C265.86 571.503 265.86 571.503 265.944 571.417C265.944 571.33 265.944 571.244 265.944 571.157C265.777 570.811 265.61 570.464 265.444 570.031C265.444 569.945 265.36 569.945 265.277 569.858C265.194 569.858 265.11 569.858 265.027 569.858C264.944 569.945 264.944 569.945 264.86 570.031C264.777 570.118 264.777 570.205 264.86 570.291Z" fill="#C87C0D"/>
<path d="M261.944 580.075C261.027 580.941 260.527 582.239 260.694 583.538C260.694 583.711 260.86 583.884 261.027 583.884C261.194 583.884 261.36 583.711 261.36 583.538C261.194 582.413 261.61 581.287 262.444 580.594C262.61 580.508 262.527 580.248 262.444 580.161C262.277 579.902 262.027 579.988 261.944 580.075Z" fill="#C87C0D"/>
<path d="M263.11 583.105C262.86 583.365 262.777 583.625 262.694 583.971C262.61 584.317 262.694 584.664 262.777 585.01C262.777 585.097 262.86 585.097 262.944 585.183C263.027 585.183 263.11 585.183 263.194 585.183C263.36 585.097 263.36 584.923 263.277 584.75C263.277 584.664 263.277 584.664 263.277 584.577V584.49C263.277 584.404 263.277 584.317 263.277 584.231V584.144C263.277 584.231 263.277 584.058 263.277 584.144C263.277 584.144 263.277 584.144 263.277 584.058C263.277 583.971 263.277 583.971 263.277 583.884V583.798C263.36 583.711 263.36 583.625 263.36 583.625C263.36 583.625 263.36 583.538 263.444 583.538C263.527 583.452 263.527 583.192 263.444 583.105C263.444 583.019 263.277 583.019 263.11 583.105Z" fill="#C87C0D"/>
<path d="M264.61 584.231C264.61 584.75 264.61 585.183 264.61 585.703C264.61 585.876 264.777 586.049 264.944 586.049C265.11 586.049 265.277 585.876 265.277 585.703C265.277 585.183 265.277 584.75 265.277 584.231C265.277 584.058 265.11 583.884 264.944 583.884C264.694 583.884 264.61 584.058 264.61 584.231Z" fill="#C87C0D"/>
<path d="M261.944 588.04C261.944 588.646 262.194 589.252 262.61 589.685C262.694 589.772 262.944 589.772 263.027 589.685C263.11 589.599 263.11 589.339 263.027 589.252C262.944 589.166 262.944 589.166 262.944 589.079C262.944 588.993 262.86 588.993 262.86 588.993C262.86 588.906 262.777 588.906 262.777 588.82V588.733C262.694 588.646 262.694 588.473 262.694 588.387V588.3C262.694 588.3 262.694 588.3 262.694 588.214C262.694 588.127 262.694 588.04 262.694 588.04C262.694 587.867 262.527 587.694 262.36 587.694C262.11 587.694 261.944 587.781 261.944 588.04Z" fill="#C87C0D"/>
<path d="M268.777 579.296C268.694 579.902 268.777 580.508 268.944 581.114C269.027 581.287 269.194 581.374 269.36 581.374C269.527 581.287 269.61 581.114 269.61 580.941C269.527 580.854 269.527 580.681 269.527 580.594C269.527 580.508 269.527 580.421 269.527 580.421V580.335C269.527 580.421 269.527 580.335 269.527 580.248C269.527 580.161 269.527 579.988 269.527 579.902C269.527 579.815 269.527 579.815 269.527 579.729V579.642C269.527 579.642 269.527 579.469 269.527 579.555C269.527 579.469 269.527 579.382 269.527 579.296C269.527 579.209 269.444 579.122 269.36 579.122C269.027 579.036 268.777 579.122 268.777 579.296Z" fill="#C87C0D"/>
<path d="M246.36 559.295C247.027 559.382 247.694 559.295 248.36 559.122C248.527 559.036 248.61 558.862 248.61 558.689C248.527 558.516 248.36 558.429 248.194 558.429C248.027 558.516 247.86 558.516 247.777 558.516C247.61 558.516 247.527 558.603 247.36 558.603C247.027 558.603 246.694 558.603 246.444 558.603C246.277 558.603 246.11 558.776 246.11 558.949C246.027 559.209 246.194 559.295 246.36 559.295Z" fill="#C87C0D"/>
<path d="M247.277 557.131C247.527 557.044 247.86 556.871 248.11 556.784C248.194 556.784 248.277 556.698 248.277 556.611C248.277 556.525 248.36 556.438 248.277 556.352C248.277 556.265 248.194 556.178 248.11 556.178C248.027 556.178 247.944 556.092 247.86 556.178C247.61 556.265 247.277 556.438 247.027 556.525C246.944 556.525 246.86 556.611 246.86 556.698C246.86 556.784 246.777 556.871 246.86 556.958C246.86 557.044 246.944 557.131 247.027 557.131C247.11 557.131 247.194 557.217 247.277 557.131Z" fill="#C87C0D"/>
<path d="M242.527 559.468C242.694 559.555 242.86 559.728 243.027 559.815C243.11 559.901 243.194 559.901 243.277 559.815C243.36 559.815 243.444 559.728 243.444 559.642C243.444 559.555 243.527 559.468 243.444 559.382C243.444 559.295 243.36 559.209 243.277 559.209C243.11 559.122 242.944 558.949 242.777 558.862C242.694 558.776 242.61 558.776 242.527 558.862C242.444 558.862 242.36 558.949 242.36 559.036C242.36 559.122 242.277 559.209 242.36 559.295C242.444 559.382 242.444 559.382 242.527 559.468Z" fill="#C87C0D"/>
<path d="M236.527 552.975C236.61 553.321 236.61 553.667 236.694 554.014C236.694 554.1 236.777 554.187 236.86 554.187C236.944 554.187 237.027 554.274 237.11 554.187C237.194 554.187 237.277 554.1 237.277 554.014C237.277 553.927 237.36 553.841 237.277 553.754C237.194 553.408 237.194 553.061 237.11 552.715C237.11 552.629 237.027 552.542 236.944 552.542C236.86 552.542 236.777 552.455 236.694 552.542C236.61 552.542 236.527 552.629 236.527 552.715C236.444 552.802 236.444 552.888 236.527 552.975Z" fill="#C87C0D"/>
<path d="M238.444 553.235C238.61 553.494 238.777 553.754 238.944 553.927C239.027 554.014 239.027 554.014 239.11 554.1C239.194 554.1 239.277 554.1 239.36 554.1C239.444 554.014 239.444 554.014 239.527 553.927C239.527 553.841 239.527 553.754 239.527 553.667C239.36 553.408 239.194 553.148 239.027 552.975C238.944 552.888 238.944 552.888 238.86 552.802C238.777 552.802 238.694 552.802 238.61 552.802C238.527 552.888 238.527 552.888 238.444 552.975C238.36 553.061 238.36 553.148 238.444 553.235Z" fill="#C87C0D"/>
<path d="M223.944 542.672C224.36 543.191 224.777 543.624 225.36 543.97C225.86 544.317 226.527 544.576 227.11 544.836C227.527 545.009 228.277 545.615 227.86 546.135C227.61 546.568 226.944 546.654 226.527 546.741C226.36 546.741 226.277 547.001 226.277 547.174C226.36 547.607 226.36 547.953 226.11 548.299C225.777 548.646 225.36 548.732 224.944 548.819C224.527 548.905 224.694 549.512 225.11 549.425C225.694 549.338 226.277 549.079 226.61 548.646C227.027 548.213 227.027 547.607 226.86 547.001C226.777 547.174 226.694 547.26 226.61 547.434C227.194 547.347 227.86 547.174 228.194 546.654C228.61 546.048 228.444 545.269 227.944 544.836C227.444 544.317 226.61 544.144 226.027 543.797C225.36 543.451 224.777 542.931 224.277 542.239C224.11 541.892 223.694 542.412 223.944 542.672Z" fill="#7E4927"/>
<path d="M188.11 530.377C191.61 530.723 195.027 532.195 197.777 534.533C198.11 534.793 198.527 534.36 198.194 534.1C195.277 531.676 191.777 530.117 188.11 529.771C187.694 529.684 187.694 530.377 188.11 530.377Z" fill="#C23F37"/>
<path d="M179.527 477.995C181.027 481.459 181.777 485.268 184.11 488.212C184.694 488.991 185.444 489.597 186.194 490.117C186.527 490.376 186.86 489.77 186.527 489.597C183.527 487.606 182.36 483.969 181.194 480.766C180.86 479.727 180.444 478.688 180.027 477.736C179.86 477.303 179.36 477.649 179.527 477.995Z" fill="#54260C"/>
<path d="M23.1238 154.537V158.106L23.0964 158.132V154.563L23.1238 154.537Z" fill="#5A61FF"/>
<path d="M23.1238 154.537L23.0964 158.132V154.563L23.1238 154.537Z" fill="#5A61FF"/>
<path d="M0 8C0 3.58173 3.58172 0 8 0H316C320.418 0 324 3.58172 324 8V304.789C324 309.207 320.418 312.789 316 312.789H8C3.58172 312.789 0 309.207 0 304.789V8Z" fill="#AC5AE2"/>
<path d="M0 304.109C0 297.481 5.37258 292.109 12 292.109H312C318.627 292.109 324 297.481 324 304.109V304.789C324 309.207 320.418 312.789 316 312.789H8C3.58172 312.789 0 309.207 0 304.789V304.109Z" fill="#3A2F7B"/>
<path d="M0 304C0 297.373 5.37258 292 12 292H141C146.799 292 151.5 296.701 151.5 302.5V302.5C151.5 308.299 146.799 313 141 313H8C3.58173 313 0 309.418 0 305V304Z" fill="white"/>
<path d="M226.875 160.68C226.875 160.68 230.863 157.176 232.459 155.902C234.055 154.628 237.405 154.787 238.203 157.335C239.001 159.884 239.001 161.636 239.799 166.254C240.277 168.962 241.873 171.032 239.799 173.899C237.724 176.766 234.693 177.403 231.821 177.244C229.427 177.085 229.268 173.899 231.502 169.44C232.299 167.847 230.704 165.936 229.906 165.299C228.311 164.343 226.875 160.68 226.875 160.68Z" fill="#8CA2FF"/>
<path d="M183.315 163.547C183.315 163.547 183.315 166.414 181.241 169.281C179.007 172.307 174.38 174.696 173.423 176.448C172.785 177.722 173.104 178.996 173.104 180.907C173.104 184.252 177.731 183.774 181.241 181.066C183.954 178.996 188.262 176.288 189.219 175.811C190.017 175.492 193.527 174.696 193.048 171.351C192.57 168.006 190.655 163.547 190.655 163.547H183.315Z" fill="#8CA2FF"/>
<path d="M208.206 98.2467C208.206 98.2467 202.303 94.7428 199.431 98.2467C196.559 101.751 193.687 108.44 190.974 111.785C188.262 115.288 187.783 116.881 186.985 121.659C186.347 125.641 186.347 134.241 186.347 134.241L192.57 133.286C192.57 133.286 194.644 127.393 194.644 125.482C194.804 121.659 194.644 120.226 194.644 120.226C194.644 120.226 202.143 115.607 203.1 113.059C204.058 110.829 208.206 98.2467 208.206 98.2467Z" fill="#FFB8A3"/>
<path d="M215.865 128.03C210.759 125.96 210.44 129.145 205.973 132.49C197.995 132.649 184.592 130.101 178.21 134.082C176.454 135.197 175.497 137.268 175.976 140.771C176.135 141.568 176.135 146.983 178.369 153.035C179.805 157.017 181.56 161.476 182.677 167.21C185.071 170.555 191.612 167.529 191.453 165.936C191.293 162.432 192.091 157.813 191.134 153.035C190.815 150.965 190.974 149.531 190.176 147.62C195.601 151.442 199.59 153.035 205.973 153.035C219.375 153.035 220.652 145.39 221.13 142.364C221.928 137.108 221.29 130.26 215.865 128.03Z" fill="#2C1D1B"/>
<path d="M229.427 158.45C224.641 160.521 221.45 163.069 219.056 164.502C220.492 162.591 229.427 154.946 230.544 149.213C232.14 141.409 227.991 134.401 224.8 129.145C223.364 130.738 209.164 130.1 208.685 131.056C206.451 134.879 205.015 142.683 207.887 147.62C206.611 149.531 201.345 164.343 201.186 169.758C201.186 172.147 203.579 177.403 206.611 177.881C217.62 179.314 222.247 172.625 231.661 168.006C233.576 167.21 232.299 159.565 229.427 158.45Z" fill="#3F2A28"/>
<path d="M209.483 78.179C209.483 78.179 209.961 73.2416 215.227 76.2677C220.492 79.2938 219.375 83.4348 216.184 83.5941C212.833 83.9126 209.483 78.179 209.483 78.179Z" fill="#8CA2FF"/>
<path d="M225.598 108.44C224.641 102.706 219.375 100.317 216.822 99.0431C206.292 93.9465 205.334 95.0614 205.653 95.3799C205.015 96.017 204.058 97.6097 201.345 102.706C199.909 105.255 196.878 109.714 196.878 111.147C197.037 113.218 198.154 115.448 199.271 117.04C200.548 118.792 202.941 126.915 203.101 132.012C203.739 135.038 205.653 140.771 211.238 141.408C221.45 142.523 227.034 136.312 227.672 134.082C226.077 129.782 223.843 125.163 224.322 120.544C224.96 115.926 226.236 111.944 225.598 108.44Z" fill="#8CA2FF"/>
<path d="M208.685 77.064C208.685 77.064 213.153 68.7821 220.014 73.4009C226.077 77.3826 224.002 83.594 222.247 87.5758C220.492 91.5575 221.45 92.9909 223.524 92.6723C225.598 92.3538 226.715 90.6019 226.715 90.6019C226.715 90.6019 226.396 96.6541 220.333 96.4948C214.27 96.3355 213.472 89.3277 213.472 89.3277L208.685 77.064Z" fill="#2C1D1B"/>
<path d="M214.27 92.6723C211.238 93.3094 207.887 94.265 205.175 93.9465C205.653 96.1762 206.451 96.8133 205.175 100.954C204.217 103.821 201.984 106.847 204.537 108.121C205.653 108.758 210.281 107.644 213.472 105.255C216.184 103.184 217.78 99.9987 216.344 98.2467C215.227 96.9726 214.908 94.5835 214.27 92.6723Z" fill="#FFB8A3"/>
<path d="M201.505 83.4348C205.494 82.4792 207.568 82.32 211.078 83.7534C212.993 84.2312 214.908 85.1868 216.663 86.3017C216.822 86.4609 216.982 86.6202 216.822 86.7795C215.865 92.0353 214.11 97.6097 208.206 99.8395C203.42 101.751 200.707 96.4949 199.75 92.8317C199.112 88.85 198.792 84.0719 201.505 83.4348Z" fill="#FFC8B5"/>
<path d="M214.27 78.179C210.44 75.1529 205.653 75.4714 203.101 77.5419C200.388 79.7717 198.154 83.1163 199.431 86.6202C200.707 86.9387 202.622 85.6646 203.42 85.0275C205.015 86.7795 207.887 88.85 211.238 88.3722C211.876 90.6019 213.153 95.5392 215.067 95.38C219.056 87.2573 220.333 83.1163 214.27 78.179Z" fill="#3F2A28"/>
<path d="M210.44 90.9204C210.44 90.9204 211.397 87.735 213.472 89.3277C215.546 90.9204 212.674 94.2651 212.674 94.2651L210.44 90.9204Z" fill="#FFC8B5"/>
<path d="M205.175 119.111C205.175 119.111 207.728 122.137 211.397 122.137C215.067 122.137 217.62 120.544 217.62 120.544C217.62 120.544 216.503 124.367 211.397 124.367C206.611 124.367 205.175 119.111 205.175 119.111Z" fill="#778CFC"/>
<path d="M231.661 122.296C231.502 118.474 231.023 114.174 229.747 110.67C228.789 107.803 225.438 104.14 222.886 103.184C219.854 102.069 217.78 106.369 217.62 109.555C217.301 113.696 218.099 116.881 222.886 119.748C223.205 123.411 223.205 126.437 223.843 128.667C217.62 130.419 208.206 133.445 205.653 134.401C204.696 136.153 203.42 136.79 201.345 137.586C198.633 138.701 195.442 139.019 196.24 141.727C196.718 143.479 199.59 145.39 203.101 143.957C207.089 142.364 208.206 140.294 209.483 139.179C211.876 139.179 222.886 138.701 224.641 137.905C228.789 135.993 230.066 134.719 230.544 133.445C230.863 132.33 231.821 126.278 231.661 122.296Z" fill="#FFC8B5"/>
<path d="M209.483 133.604L204.537 131.693L205.973 135.356L209.483 133.604Z" fill="#FFC8B5"/>
<path d="M206.132 139.497C206.132 139.338 205.973 139.179 205.973 139.179L203.101 131.693H184.432L181.56 139.179C181.401 139.657 181.241 140.134 181.241 140.772C181.241 144.435 186.826 147.461 193.846 147.461C200.707 147.461 206.292 144.435 206.292 140.772C206.292 140.294 206.132 139.816 206.132 139.497Z" fill="#EE4335"/>
<path d="M193.687 137.745C198.974 137.745 203.26 135.464 203.26 132.649C203.26 129.834 198.974 127.552 193.687 127.552C188.399 127.552 184.113 129.834 184.113 132.649C184.113 135.464 188.399 137.745 193.687 137.745Z" fill="#FF5E4C"/>
<path d="M193.687 128.189C188.9 128.189 185.23 130.1 185.23 132.649C185.23 132.967 185.23 133.286 185.39 133.445C186.187 135.516 189.538 136.949 193.687 136.949C198.473 136.949 202.143 135.038 202.143 132.489C202.303 130.1 198.473 128.189 193.687 128.189Z" fill="#EE4335"/>
<path d="M201.984 133.923C201.824 133.286 201.345 133.286 201.026 133.127C201.026 132.649 200.867 132.171 200.707 131.693C200.228 131.056 199.59 130.738 198.792 130.578C198.633 130.101 198.314 129.623 197.676 129.463C197.197 129.304 196.718 129.463 196.399 129.782C196.08 129.304 195.761 128.826 195.123 128.508C194.006 128.03 192.889 128.508 192.251 129.304C191.772 128.986 191.293 128.986 190.655 129.304C190.336 129.463 190.176 129.623 190.017 129.941C189.379 129.623 188.74 129.623 188.262 129.941C187.464 130.419 187.304 131.215 187.464 132.012C186.666 132.171 185.709 132.649 185.39 133.445C185.709 134.879 188.421 136.79 192.889 136.949C196.08 137.108 200.228 136.312 201.984 133.923Z" fill="#F8AA43"/>
<path d="M188.74 130.419C188.262 130.738 187.943 131.375 188.262 131.852C188.421 132.012 188.581 132.012 188.74 131.852C189.06 131.534 189.059 131.215 189.219 130.897C189.379 130.578 188.9 130.419 188.74 130.419Z" fill="#FFBB6C"/>
<path d="M190.017 133.445C189.857 133.127 189.379 132.808 188.9 132.649H188.74C188.262 133.286 189.059 134.082 189.698 133.923C190.017 133.923 190.176 133.764 190.017 133.445Z" fill="#FFBB6C"/>
<path d="M191.932 131.534C191.453 131.375 190.655 131.534 190.336 132.012V132.171C190.496 132.649 191.293 132.649 191.612 132.49C191.772 132.49 191.932 132.33 191.932 132.171V132.012C192.251 131.852 192.091 131.534 191.932 131.534Z" fill="#FFBB6C"/>
<path d="M194.644 129.304C194.006 128.826 193.208 129.304 193.048 130.1C193.048 130.26 193.208 130.419 193.368 130.419C193.846 130.26 194.325 130.1 194.644 129.782C194.644 129.623 194.804 129.463 194.644 129.304Z" fill="#FFBB6C"/>
<path d="M191.134 129.941C190.655 129.941 190.176 130.26 190.176 130.738C190.176 130.897 190.496 131.215 190.655 131.056C190.974 130.897 191.134 130.738 191.453 130.419C191.612 130.26 191.453 129.782 191.134 129.941Z" fill="#FFBB6C"/>
<path d="M187.623 133.445H187.464C186.985 133.764 187.145 134.56 187.623 134.879C187.943 135.038 188.262 134.719 188.262 134.401C188.102 133.923 187.783 133.604 187.623 133.445Z" fill="#FFBB6C"/>
<path d="M193.048 135.197C192.57 135.038 192.091 134.879 191.612 134.879C191.612 134.879 191.453 134.879 191.453 135.038C191.453 135.834 192.729 136.153 193.208 135.516C193.368 135.356 193.208 135.197 193.048 135.197Z" fill="#FFBB6C"/>
<path d="M195.282 132.49C194.484 132.012 193.846 132.808 193.846 133.604C193.846 133.764 194.006 133.764 194.006 133.764C194.484 133.604 194.963 133.604 195.282 133.127C195.442 132.808 195.442 132.49 195.282 132.49Z" fill="#FFBB6C"/>
<path d="M197.516 130.738C197.356 130.578 197.197 130.578 197.037 130.738C196.718 131.056 196.559 132.33 197.197 132.171C197.516 132.171 197.676 132.012 197.676 131.852C197.835 131.375 197.835 130.897 197.516 130.738Z" fill="#FFBB6C"/>
<path d="M197.197 134.082C197.197 133.923 197.037 133.923 196.878 133.923C196.399 134.082 195.442 134.879 196.08 135.356C196.718 135.834 197.356 134.56 197.197 134.082Z" fill="#FFBB6C"/>
<path d="M129.066 159.724C129.066 159.724 138.161 165.299 144.064 170.555C149.968 175.81 153.957 181.544 157.308 182.659C160.658 183.774 164.488 181.544 164.966 178.837C165.445 176.288 162.573 175.333 159.063 175.81C156.191 174.696 150.606 164.025 145.979 157.495C141.192 150.965 129.066 159.724 129.066 159.724Z" fill="#AC5F25"/>
<path d="M158.903 120.704C158.903 120.704 155.872 110.51 155.074 108.121C154.276 105.732 152.042 106.688 152.042 110.192C152.042 111.466 150.447 113.696 150.287 116.244C150.128 118.792 150.447 121.659 151.244 123.73C153 128.189 158.903 120.704 158.903 120.704Z" fill="#2C1D1B"/>
<path d="M96.8355 169.917C96.8355 169.917 92.3679 180.429 88.379 186.322C84.3901 192.374 79.9225 194.604 78.1674 196.038C76.4122 197.471 77.0505 201.293 75.2953 207.346C73.5402 213.398 72.902 218.176 75.2953 219.769C77.6887 221.202 86.4643 219.131 86.3048 216.265C85.9857 211.327 81.3585 213.238 81.3585 213.238C81.3585 213.238 82.1563 205.275 84.5496 202.408C86.943 199.541 92.687 198.108 99.0693 191.578C105.452 185.207 109.281 179.474 109.281 179.474L96.8355 169.917Z" fill="#AC5F25"/>
<path d="M178.05 122.933C176.933 122.615 175.976 123.093 174.859 123.093C171.508 123.252 171.03 122.296 168.955 120.385C167.519 119.111 166.243 118.155 164.328 117.837C162.254 117.518 157.627 117.359 152.84 121.818C149.649 124.845 150.925 131.852 153.319 134.878C156.031 138.223 160.977 140.453 165.605 140.134C168.158 139.975 170.87 138.223 171.668 135.993C174.859 134.401 177.89 132.33 179.326 129.623C180.603 127.393 180.922 123.73 178.05 122.933Z" fill="#D28037"/>
<path d="M167.998 120.385C167.998 120.385 167.519 123.252 168.796 125.163C170.072 127.074 173.104 127.871 173.582 129.623C173.742 130.26 173.902 131.534 173.423 132.649C172.944 134.401 171.827 135.993 171.827 135.993C171.827 135.993 174.859 134.878 177.412 132.489C179.965 130.1 181.72 125.163 179.167 123.093C178.21 122.296 175.018 123.57 173.104 123.093C169.913 122.455 167.998 120.385 167.998 120.385Z" fill="#513231"/>
<path d="M167.998 139.497C168.158 134.56 164.966 134.719 164.169 131.215C163.211 127.393 154.914 119.748 152.84 121.978C149.17 125.8 150.925 128.03 146.458 133.445C142.628 138.064 131.459 140.931 128.428 142.523C123.801 145.072 105.771 152.876 100.346 162.432C98.9098 164.821 97.3142 168.006 95.7186 171.192C93.4848 175.492 96.9951 179.951 101.463 185.048C103.218 187.119 115.982 192.374 121.567 190.941C127.151 189.508 125.875 177.244 131.779 175.014C137.523 172.784 147.415 174.218 153 169.918C156.031 167.529 158.584 162.75 160.339 158.928C160.977 157.495 162.573 154.15 164.169 150.646C167.998 148.416 167.998 141.408 167.998 139.497Z" fill="#D28037"/>
<path d="M158.903 142.523C158.903 142.523 165.445 144.753 165.605 149.531C165.924 158.291 165.445 162.432 163.53 167.21C161.775 171.988 161.456 182.978 158.744 189.508C156.191 196.038 154.595 199.701 151.564 201.453C149.808 202.408 146.936 201.453 146.298 199.701C145.341 196.834 146.298 195.878 149.489 193.489C151.564 192.056 152.521 182.181 152.84 179.155C153.159 176.288 150.128 170.077 151.085 162.113C152.202 154.15 158.903 142.523 158.903 142.523Z" fill="#D28037"/>
<path d="M119.971 171.032C121.567 171.67 131.3 177.403 133.534 180.748C135.767 184.092 133.374 190.941 130.662 195.719C127.949 200.497 123.801 204.957 123.801 207.186C123.641 209.416 129.226 208.62 131.459 207.186C133.534 205.753 134.81 203.045 138.639 206.39C142.309 209.735 134.331 211.964 129.704 214.194C124.279 216.743 120.769 213.557 118.057 212.442C115.025 211.327 116.301 206.868 117.259 204.32C118.535 200.975 119.493 197.153 113.749 190.304C108.164 183.296 119.971 171.032 119.971 171.032Z" fill="#D28037"/>
<path d="M87.5812 181.226C81.6776 185.526 73.0615 187.119 69.3917 187.119C65.7219 187.119 62.0521 186.322 62.0521 186.322C62.0521 186.322 61.4139 191.419 64.605 194.445C66.3601 196.197 69.8704 196.515 72.7424 195.878C71.7851 197.63 70.1895 198.745 69.0726 199.223C73.5402 201.293 80.7203 202.408 88.5386 198.267C96.676 193.967 99.7076 184.252 100.824 178.837C102.58 171.032 106.09 171.192 110.079 171.032C114.068 170.873 120.131 174.218 123.801 173.262C127.63 172.307 128.268 167.21 133.374 167.21C138.48 167.21 147.575 169.28 150.766 165.617C153.957 161.795 158.744 154.15 158.744 148.416C158.744 146.027 157.308 144.275 155.712 140.931C153.957 137.427 155.233 132.967 154.436 131.693C152.202 128.189 149.011 128.986 149.011 128.986C149.011 128.986 147.096 132.967 143.745 135.516C139.597 138.701 133.374 140.612 128.109 142.523C114.068 147.301 106.409 152.557 102.26 156.539C98.5907 160.361 93.3253 176.766 87.5812 181.226Z" fill="#513231"/>
<path d="M162.094 121.818C162.094 121.818 165.605 115.288 166.562 111.944C167.2 110.033 167.838 109.077 169.274 110.192C170.391 110.988 170.551 112.899 170.551 114.651C170.551 116.085 171.508 119.111 171.508 123.093C171.508 126.119 171.03 129.145 169.274 131.215C165.605 129.623 166.083 126.756 164.807 125.322C163.371 123.411 162.094 121.818 162.094 121.818Z" fill="#2C1D1B"/>
<path d="M175.497 123.093C175.497 123.093 177.89 124.048 178.529 124.845C179.167 125.641 180.284 126.756 180.284 126.756C180.284 126.756 180.603 123.73 179.007 123.093C177.412 122.296 175.497 123.093 175.497 123.093Z" fill="#2C1D1B"/>
</svg>
