<svg width="340" height="373" viewBox="0 0 340 373" fill="none" xmlns="http://www.w3.org/2000/svg">
<path d="M31.1238 162.537V166.106L31.0964 166.132V162.563L31.1238 162.537Z" fill="#5A61FF"/>
<path d="M31.1238 162.537L31.0964 166.132V162.563L31.1238 162.537Z" fill="#5A61FF"/>
<g filter="url(#filter0_d_451_256)">
<rect x="8" y="8" width="324" height="312.789" rx="8" fill="#E64490"/>
</g>
<path d="M8 300.109H332V312.789C332 317.207 328.418 320.789 324 320.789H16C11.5817 320.789 8 317.207 8 312.789V300.109Z" fill="#3A2F7B"/>
<path d="M8 300H159.5V321H16C11.5817 321 8 317.418 8 313V300Z" fill="white"/>
<g clip-path="url(#clip0_451_256)">
<path fill-rule="evenodd" clip-rule="evenodd" d="M135.224 243.224C134.861 243.708 134.256 244.252 133.348 244.614C131.473 245.4 130.323 245.4 128.387 245.521C126.632 245.642 119.553 244.977 118.283 244.917C118.343 245.703 118.585 246.428 119.674 246.609C121.61 246.912 127.479 247.154 129.234 247.214C130.989 247.335 135.345 247.214 136.132 246.307C136.918 245.461 137.342 244.01 136.192 243.587C135.95 243.526 135.526 243.405 135.224 243.224Z" fill="#8DD7F7"/>
<path fill-rule="evenodd" clip-rule="evenodd" d="M126.33 238.509L118.343 238.871C118.343 238.871 118.343 241.773 118.343 242.982C118.343 243.526 118.283 244.252 118.283 244.856C119.553 244.977 126.632 245.582 128.387 245.461C130.323 245.34 131.473 245.4 133.348 244.554C134.256 244.191 134.8 243.587 135.224 243.164C133.832 242.62 131.896 241.834 130.989 241.531C129.899 241.169 128.508 240.504 127.782 240.08C127.056 239.778 126.33 238.509 126.33 238.509Z" fill="#00A0B6"/>
<path fill-rule="evenodd" clip-rule="evenodd" d="M146.599 243.949C146.236 244.433 145.631 244.977 144.723 245.34C142.848 246.126 141.698 246.126 139.762 246.247C138.007 246.368 130.928 245.703 129.657 245.642C129.718 246.428 129.96 247.154 131.049 247.335C132.985 247.637 138.854 247.879 140.609 247.94C142.364 248 146.72 247.94 147.506 247.033C148.293 246.186 148.717 244.735 147.567 244.312C147.385 244.252 146.901 244.07 146.599 243.949Z" fill="#8DD7F7"/>
<path fill-rule="evenodd" clip-rule="evenodd" d="M137.705 239.234L129.718 239.597C129.718 239.597 129.718 242.499 129.718 243.708C129.718 244.252 129.657 244.977 129.657 245.582C130.928 245.703 138.007 246.307 139.762 246.186C141.698 246.065 142.848 246.126 144.723 245.28C145.631 244.917 146.175 244.312 146.599 243.889C145.207 243.345 143.271 242.559 142.364 242.257C141.274 241.894 139.883 241.229 139.157 240.806C138.431 240.504 137.705 239.234 137.705 239.234Z" fill="#00ACC1"/>
<path fill-rule="evenodd" clip-rule="evenodd" d="M136.858 103.028C136.858 103.028 137.281 106.837 137.402 108.53C137.523 110.223 137.463 111.915 137.039 113.245C136.676 114.575 136.131 116.208 135.345 117.296C134.498 118.384 133.832 118.868 133.227 118.868C132.683 118.868 130.989 117.961 130.384 116.449C129.778 114.938 130.141 109.376 130.747 107.744C131.352 106.051 131.775 105.326 132.864 104.54C133.893 103.693 136.858 103.028 136.858 103.028Z" fill="#F9B7A2"/>
<path fill-rule="evenodd" clip-rule="evenodd" d="M124.091 110.283C124.091 110.283 124.394 112.52 124.212 114.334C124.03 116.147 123.788 117.477 123.002 118.989C122.215 120.5 124.757 120.984 127.782 120.923C130.807 120.863 134.256 119.835 134.256 119.835C134.256 119.835 133.832 116.51 133.711 114.878C133.651 113.245 134.377 108.107 133.953 106.414C133.53 104.721 128.205 104.661 127.116 105.688C125.967 106.716 124.091 110.283 124.091 110.283Z" fill="#F2AD97"/>
<path fill-rule="evenodd" clip-rule="evenodd" d="M109.328 143.534C109.328 143.534 108.239 148.309 107.936 150.123C107.634 151.937 106.424 155.625 107.876 157.499C109.328 159.373 115.923 164.572 115.923 164.572C115.923 164.572 116.286 152.058 115.983 149.458C115.741 146.859 114.108 142.445 114.108 142.445L109.328 143.534Z" fill="#F9B7A2"/>
<path fill-rule="evenodd" clip-rule="evenodd" d="M109.328 143.533C109.328 143.533 109.025 144.863 108.662 146.435L115.56 147.161C115.015 144.863 114.168 142.506 114.168 142.506L109.328 143.533Z" fill="#F2AD97"/>
<path d="M135.466 110.948C136.134 110.948 136.676 109.974 136.676 108.772C136.676 107.57 136.134 106.595 135.466 106.595C134.798 106.595 134.256 107.57 134.256 108.772C134.256 109.974 134.798 110.948 135.466 110.948Z" fill="#F2AD97"/>
<path fill-rule="evenodd" clip-rule="evenodd" d="M113.503 122.314C113.503 122.314 110.538 126.485 109.388 129.871C108.299 133.317 106 144.38 106 144.38C106 144.38 113.261 144.864 115.257 145.649C117.193 146.496 113.503 122.314 113.503 122.314Z" fill="#C2DAE8"/>
<path fill-rule="evenodd" clip-rule="evenodd" d="M115.983 166.688C115.983 166.688 116.286 173.942 116.346 177.328C116.467 180.713 116.77 189.298 116.77 192.381C116.77 195.464 116.286 201.752 116.346 205.379C116.407 209.006 116.044 214.81 116.165 218.921C116.286 223.032 116.528 228.594 116.588 230.105C116.649 231.617 114.773 234.216 115.499 236.695C116.286 239.174 118.585 240.504 118.585 240.504C118.585 240.504 127.721 241.531 128.568 239.778C129.415 238.025 130.02 233.853 129.778 231.919C129.536 229.984 128.508 208.644 128.629 206.225C128.75 203.747 127.842 192.865 127.782 189.298C127.721 185.731 127.056 166.627 127.056 166.627L115.983 166.688Z" fill="#7C92AC"/>
<path fill-rule="evenodd" clip-rule="evenodd" d="M115.983 166.688C115.983 166.688 116.104 169.65 116.225 172.673C119.856 172.492 123.546 172.25 127.298 172.129C127.177 168.925 127.116 166.567 127.116 166.567L115.983 166.688Z" fill="#6E839E"/>
<path fill-rule="evenodd" clip-rule="evenodd" d="M124.091 240.806C126.209 240.806 128.266 240.564 128.629 239.778C129.052 238.871 129.415 237.42 129.657 235.909C129.778 234.7 129.839 233.309 129.839 231.858C129.597 229.743 128.568 208.644 128.689 206.225C128.81 203.747 127.903 192.865 127.842 189.298C127.842 188.27 127.782 186.094 127.661 183.373C126.148 181.983 120.4 181.439 120.4 181.439C120.4 181.439 123.607 187.363 123.788 193.469C124.031 199.575 123.788 215.475 123.909 220.553C124.031 225.632 123.365 235.365 123.728 238.69C123.788 239.355 123.909 240.08 124.091 240.806Z" fill="#647B97"/>
<path fill-rule="evenodd" clip-rule="evenodd" d="M125.422 166.99C125.422 166.99 126.027 177.509 126.148 181.983C126.269 186.457 126.874 193.772 126.753 196.734C126.572 199.696 127.237 204.11 127.056 206.225C126.814 208.281 126.632 212.331 126.572 215.656C126.511 218.982 127.298 225.873 127.298 227.808C127.298 229.743 127.721 232.886 127.54 234.942C127.298 236.997 126.269 239.778 128.024 240.624C129.778 241.471 137.705 241.35 138.794 240.08C139.883 238.811 140.73 236.03 140.306 234.035C139.883 232.1 139.641 227.324 139.641 224.12C139.641 220.916 139.278 208.1 139.459 205.379C139.641 202.659 140.306 193.349 140.427 188.391C140.609 183.494 141.698 169.831 141.335 167.897C140.972 165.962 136.616 165.66 136.616 165.66L125.422 166.99Z" fill="#7C92AC"/>
<path fill-rule="evenodd" clip-rule="evenodd" d="M125.422 166.99C125.422 166.99 125.543 169.287 125.725 172.189C130.928 172.008 136.192 172.008 141.274 172.552C141.395 170.255 141.395 168.501 141.274 167.897C140.911 165.962 136.555 165.66 136.555 165.66L125.422 166.99Z" fill="#6E839E"/>
<path fill-rule="evenodd" clip-rule="evenodd" d="M122.155 101.638C122.155 101.638 121.005 104.056 121.55 106.656C122.034 109.255 122.155 109.86 122.82 111.492C123.486 113.124 124.333 115.784 124.333 115.784C124.333 115.784 126.935 116.147 128.629 115.905C130.323 115.664 130.928 114.636 131.412 113.487C131.896 112.339 132.864 109.981 133.53 108.832C134.195 107.684 135.345 106.474 136.253 105.688C137.16 104.903 138.249 103.331 137.947 102.303C137.765 101.759 135.889 98.3734 132.683 97.3457C129.476 96.3784 126.148 97.8293 125.12 98.3734C123.062 99.4011 122.155 101.638 122.155 101.638Z" fill="#7F351A"/>
<path fill-rule="evenodd" clip-rule="evenodd" d="M123.607 117.961C123.607 117.961 120.098 119.049 117.375 120.258C114.652 121.467 112.837 121.77 112.474 125.941C112.111 130.112 113.684 139.483 113.745 143.352C113.805 147.221 114.531 169.65 114.531 169.65C114.531 169.65 122.457 168.864 127.479 169.046C132.501 169.227 143.392 168.683 143.392 168.683C143.392 168.683 143.029 160.461 142.908 157.075C142.848 153.75 142.243 145.287 142.424 142.687C142.666 140.088 142.182 129.508 142.364 127.15C142.485 124.792 142.303 120.137 140.609 119.049C138.915 117.961 135.466 117.9 133.711 117.84C131.957 117.78 128.629 118.082 127.419 118.082C126.209 118.021 123.607 117.961 123.607 117.961Z" fill="#D4E6F1"/>
<path fill-rule="evenodd" clip-rule="evenodd" d="M133.53 168.925C138.31 168.804 143.332 168.562 143.332 168.562C143.332 168.562 142.969 160.34 142.848 156.954C142.787 153.629 142.182 145.166 142.364 142.566C142.606 139.967 142.121 129.387 142.303 127.029C142.424 124.913 142.243 120.863 140.972 119.291C137.705 120.137 135.042 120.802 135.042 120.802C135.042 120.802 134.135 126.485 134.619 137.972C135.103 149.458 135.103 159.312 134.135 164.814C133.953 166.265 133.711 167.655 133.53 168.925Z" fill="#C2DAE8"/>
<path fill-rule="evenodd" clip-rule="evenodd" d="M154.525 119.775C154.525 119.775 156.764 118.807 159.002 117.114C161.241 115.422 165.658 111.613 165.658 111.613C165.658 111.613 169.288 110.525 171.95 107.381C174.613 104.238 178.727 98.4943 178.727 98.4943L177.819 95.2902C177.819 95.2902 169.591 99.8243 168.078 100.973C166.566 102.122 161.907 106.112 161.907 106.112C161.907 106.112 152.952 111.371 151.621 112.459C150.35 113.548 154.525 119.775 154.525 119.775Z" fill="#F9B7A2"/>
<path fill-rule="evenodd" clip-rule="evenodd" d="M154.525 119.775C154.525 119.775 156.461 118.928 158.458 117.477L154.525 110.585C153.133 111.432 152.044 112.218 151.621 112.52C150.35 113.548 154.525 119.775 154.525 119.775Z" fill="#F2AD97"/>
<path fill-rule="evenodd" clip-rule="evenodd" d="M178.303 98.6757C180.421 99.4011 182.539 95.2297 183.144 93.7183C183.144 93.7183 181.873 91.7838 181.147 91.9651C180.421 92.2069 179.03 92.1465 178.606 92.9929C178.182 93.8997 176.972 97.3456 176.972 97.3456L178.303 98.6757Z" fill="#F2AD97"/>
<path fill-rule="evenodd" clip-rule="evenodd" d="M175.581 98.6757C175.581 98.6757 176.972 100.248 178.909 97.8293C180.784 95.4716 182.236 93.6579 183.87 92.3279C185.504 90.9979 187.44 89.6074 189.557 88.0356C191.675 86.4638 193.309 85.0128 195.668 83.6828C198.028 82.4133 201.537 82.6551 201.174 80.2369C200.811 77.8187 200.267 77.5164 198.391 78.4232C196.515 79.33 192.764 82.6551 190.828 83.9851C188.892 85.3756 187.016 87.7333 184.778 89.0029C182.539 90.2724 180.421 92.5093 178.848 93.7788C177.275 95.1693 175.581 98.6757 175.581 98.6757Z" fill="#70501C"/>
<path fill-rule="evenodd" clip-rule="evenodd" d="M179.151 97.527C180.905 95.2902 182.236 93.5975 183.809 92.3279C185.443 90.9979 187.379 89.6074 189.497 88.0356C191.615 86.4637 193.248 85.0128 195.608 83.6828C197.665 82.5342 200.63 82.5946 201.114 80.9623C199.541 80.5996 197.484 80.9623 195.971 82.0505C193.309 83.9246 189.194 86.2824 187.863 87.4915C186.956 88.3379 185.383 88.8819 184.475 89.1842C183.87 89.547 183.265 89.9701 182.72 90.4538C180.966 92.5697 177.638 97.0434 178.969 97.4061C179.03 97.527 179.09 97.527 179.151 97.527Z" fill="#644508"/>
<path fill-rule="evenodd" clip-rule="evenodd" d="M184.536 92.3278C184.536 92.3278 185.201 93.4765 185.806 92.8115C186.411 92.1465 186.532 91.7233 185.988 91.2397C185.443 90.756 184.536 91.1187 184.536 91.1187V92.3278Z" fill="#F2AD97"/>
<path fill-rule="evenodd" clip-rule="evenodd" d="M176.367 96.1366C176.367 96.1366 177.638 92.0861 179.211 90.877C180.724 89.7283 181.329 89.6074 182.418 89.6074C183.567 89.6074 184.656 89.7888 185.02 90.8165C185.383 91.7838 185.08 93.9602 184.414 94.0207C183.749 94.0811 181.752 93.2347 180.603 94.0811C179.453 94.9275 176.367 96.1366 176.367 96.1366Z" fill="#F9B7A2"/>
<path fill-rule="evenodd" clip-rule="evenodd" d="M191.312 207.979C191.312 207.979 191.615 212.392 192.401 214.508C193.188 216.624 193.914 220.432 196.879 220.614C199.843 220.795 200.206 218.921 200.69 217.047C201.174 215.173 200.509 210.457 200.509 210.457L195.245 207.435L191.312 207.979Z" fill="#B47F19"/>
<path fill-rule="evenodd" clip-rule="evenodd" d="M196.031 218.135C195.91 218.135 191.978 219.526 191.615 220.372C191.252 221.279 191.857 222.972 193.974 222.79C196.092 222.609 197.302 221.944 197.968 221.46C198.573 220.977 198.331 219.163 198.21 218.861C197.968 218.619 196.031 218.135 196.031 218.135Z" fill="#C38E2C"/>
<path fill-rule="evenodd" clip-rule="evenodd" d="M192.764 191.716C192.28 192.321 189.255 203.868 191.01 206.77C192.764 209.671 196.879 213.42 197.544 215.294C198.21 217.107 197.726 219.828 203.716 220.009C209.706 220.191 213.941 216.624 215.03 213.238C216.18 209.853 216.24 208.1 215.877 205.681C215.514 203.263 213.941 200.361 212.791 197.399C211.642 194.437 209.101 187.787 208.737 187.242C208.374 186.638 192.764 191.716 192.764 191.716Z" fill="#AE7A14"/>
<path fill-rule="evenodd" clip-rule="evenodd" d="M213.88 199.817C213.517 199.031 213.215 198.185 212.852 197.339C211.702 194.376 209.161 187.726 208.798 187.182C208.617 186.94 206.075 187.666 203.05 188.512C205.228 192.2 208.677 197.641 210.311 198.669C211.279 199.334 212.549 199.636 213.88 199.817Z" fill="#231F20"/>
<path fill-rule="evenodd" clip-rule="evenodd" d="M188.347 196.674C188.347 199.636 188.831 224.06 186.532 225.148C185.322 225.692 183.567 228.352 187.077 228.231C190.526 228.171 192.099 226.176 192.28 224.725C192.462 223.274 193.551 212.755 193.732 210.034C193.853 207.314 194.156 199.334 193.853 198.487C193.551 197.641 190.041 195.646 190.041 195.646L188.347 196.674Z" fill="#C38E2C"/>
<path fill-rule="evenodd" clip-rule="evenodd" d="M198.754 199.273C198.754 199.273 196.515 218.075 195.971 220.553C195.426 223.032 195.608 225.45 194.942 226.297C194.277 227.143 195.245 229.863 198.27 229.198C201.295 228.533 200.025 226.055 200.267 224.664C200.509 223.274 202.687 212.634 203.413 209.067C204.139 205.5 206.559 198.064 206.801 196.553C207.043 195.102 206.862 193.53 206.862 193.53C206.862 193.53 204.018 194.316 202.384 194.981C200.69 195.706 198.754 199.273 198.754 199.273Z" fill="#C38E2C"/>
<path fill-rule="evenodd" clip-rule="evenodd" d="M188.529 175.333C188.529 175.333 189.255 179.142 188.529 181.318C187.803 183.494 186.29 186.034 185.806 189.177C185.262 192.321 186.714 198.125 188.226 200.24C189.739 202.356 194.519 204.593 197.544 204.956C200.63 205.379 205.894 202.78 208.193 197.157C210.492 191.535 209.282 189.479 209.101 186.517C208.919 183.555 207.83 180.048 206.801 178.416C205.773 176.784 203.655 174.366 203.111 173.217C202.566 172.068 202.506 169.892 202.506 169.892C202.506 169.892 192.22 170.013 191.312 170.497C190.405 171.041 188.529 175.333 188.529 175.333Z" fill="#C38E2C"/>
<path fill-rule="evenodd" clip-rule="evenodd" d="M188.71 176.602C188.831 177.932 188.952 179.927 188.529 181.318C188.045 182.829 187.137 184.582 186.472 186.577C186.714 188.814 187.198 190.991 187.984 192.502C190.465 197.157 193.732 197.701 196.092 195.585C198.452 193.469 196.879 194.376 199.904 189.903C202.929 185.429 203.534 184.462 203.292 180.955C203.05 177.388 199.964 174.728 199.964 174.728C199.964 174.728 194.216 175.937 191.494 176.3C190.405 176.361 189.497 176.481 188.71 176.602Z" fill="#AE7A14"/>
<path fill-rule="evenodd" clip-rule="evenodd" d="M187.198 174.728C187.198 174.728 187.561 177.207 187.803 177.63C188.045 178.114 188.287 178.537 188.287 178.537C188.287 178.537 190.767 178.295 194.095 177.146C197.484 175.998 203.171 173.459 202.929 171.947C202.687 170.436 201.598 169.106 201.598 169.106C201.598 169.106 194.035 172.673 193.369 172.673C192.704 172.673 188.045 174.668 187.621 174.668C187.198 174.728 187.198 174.728 187.198 174.728Z" fill="#00ACC1"/>
<path fill-rule="evenodd" clip-rule="evenodd" d="M140.911 127.15C144.784 126.364 156.885 120.44 156.885 120.44L152.77 110.888C152.77 110.888 147.809 112.762 145.933 113.669C143.997 114.575 139.52 116.329 137.826 117.356C136.131 118.384 135.405 119.049 135.103 120.016C134.982 120.5 135.163 123.16 136.616 124.913C138.068 126.727 140.064 127.332 140.911 127.15Z" fill="#D4E6F1"/>
<path fill-rule="evenodd" clip-rule="evenodd" d="M194.64 160.159C194.64 160.159 191.373 160.703 190.041 161.428C188.71 162.154 187.198 165.176 186.714 165.297C186.23 165.418 183.446 165.902 182.962 166.869C182.478 167.836 183.023 169.65 182.902 170.617C182.781 171.585 183.507 172.915 184.778 173.58C186.048 174.245 187.44 174.305 188.045 174.789C188.65 175.272 190.283 174.91 191.796 174.668C193.309 174.366 195.668 174.003 197 174.124C198.331 174.305 201.235 173.58 202.021 172.25C202.808 170.92 202.869 170.496 203.05 168.32C203.232 166.144 202.445 163.484 201.537 163.06C200.63 162.577 198.391 161.609 197.786 161.428C197.302 161.126 194.64 160.159 194.64 160.159Z" fill="#CE952F"/>
<path fill-rule="evenodd" clip-rule="evenodd" d="M186.593 165.297C186.109 165.418 183.446 165.902 182.962 166.869C182.478 167.836 183.023 169.65 182.902 170.617C182.781 171.585 183.507 172.915 184.778 173.58C186.048 174.245 187.44 174.305 188.045 174.789C188.65 175.272 190.283 174.91 191.796 174.668C192.341 174.547 193.006 174.426 193.672 174.366C193.188 174.305 192.22 174.245 191.675 173.942C190.707 173.338 192.159 173.398 193.127 173.277C194.095 173.156 193.43 172.794 192.462 172.371C191.494 172.008 191.494 170.376 191.433 169.711C191.373 169.106 193.006 168.864 194.7 168.743C196.395 168.622 196.273 168.199 196.152 167.413C196.092 167.05 195.729 166.506 195.366 165.962C194.64 164.935 194.216 164.028 192.825 164.814C192.22 165.116 190.344 166.265 188.952 166.748C187.561 167.232 187.561 166.748 187.319 166.385C187.077 166.023 189.86 164.632 190.586 164.149C191.312 163.605 189.981 163.121 189.436 163C189.134 163 188.65 163.242 188.226 163.725C187.742 163.967 187.016 165.237 186.593 165.297Z" fill="#404041"/>
<path fill-rule="evenodd" clip-rule="evenodd" d="M183.628 172.673C183.93 173.036 184.293 173.338 184.717 173.519C185.988 174.184 187.379 174.245 187.984 174.728C188.589 175.212 190.223 174.849 191.736 174.607C192.159 174.547 192.583 174.426 193.127 174.366C192.885 174.245 192.583 174.184 192.341 174.124C192.22 174.124 192.099 174.063 191.978 174.003C191.373 173.882 189.981 174.366 188.831 174.003C187.984 173.701 185.322 173.096 183.628 172.673Z" fill="#231F20"/>
<path fill-rule="evenodd" clip-rule="evenodd" d="M183.688 166.204C183.325 166.385 183.023 166.627 182.902 166.869C182.66 167.292 182.66 167.957 182.72 168.622C182.962 168.683 183.325 168.804 183.628 168.985C184.172 169.287 185.564 169.59 185.927 169.166C186.29 168.804 186.532 167.897 186.23 167.413C185.927 166.93 185.322 166.627 184.656 166.446C184.475 166.385 184.051 166.265 183.688 166.204Z" fill="#231F20"/>
<path fill-rule="evenodd" clip-rule="evenodd" d="M194.761 160.34C194.761 160.34 194.7 155.02 194.216 154.174C193.732 153.327 193.188 151.937 191.736 154.234C190.283 156.471 190.223 157.922 189.981 158.587C189.739 159.373 188.892 161.186 189.436 161.851C189.497 161.972 190.707 161.428 192.22 161.005C193.49 160.642 194.519 160.461 194.761 160.34Z" fill="#C38E2C"/>
<path fill-rule="evenodd" clip-rule="evenodd" d="M203.837 157.559C202.626 158.587 200.751 160.159 200.206 160.521C199.359 161.005 198.512 161.67 198.512 161.67C198.512 161.67 199.722 163.605 199.722 164.39C199.722 165.176 200.327 170.013 201.114 170.255C201.9 170.496 203.232 169.166 203.837 167.292C204.442 165.358 204.744 163.725 204.926 162.516C205.107 161.368 205.591 158.829 205.773 158.285C205.894 157.74 206.075 157.196 205.773 156.954C204.865 156.229 204.563 156.954 203.837 157.559Z" fill="#C38E2C"/>
<path fill-rule="evenodd" clip-rule="evenodd" d="M190.283 160.461C190.283 160.461 190.707 159.554 190.888 158.708C191.131 157.801 192.28 153.267 193.067 153.932C193.853 154.597 193.732 155.625 193.974 156.41C194.216 157.257 194.156 159.433 193.732 159.554C193.309 159.675 192.099 159.856 191.554 160.038C191.07 160.28 190.283 160.461 190.283 160.461Z" fill="#70501C"/>
<path fill-rule="evenodd" clip-rule="evenodd" d="M201.356 160.642C200.69 160.945 200.509 161.791 200.509 162.516C200.509 163.302 201.174 165.479 201.295 166.748C201.416 168.018 202.142 168.078 202.505 166.99C202.929 165.902 203.595 163.786 204.079 162.456C204.563 161.126 205.047 158.829 204.865 158.224C204.684 157.74 204.744 157.619 204.502 157.74C204.018 158.103 202.868 159.977 201.356 160.642Z" fill="#70501C"/>
<path fill-rule="evenodd" clip-rule="evenodd" d="M184.051 168.078C184.112 168.683 184.475 168.743 184.717 168.622C185.262 168.26 183.991 167.474 184.051 168.078Z" fill="#929497"/>
<path fill-rule="evenodd" clip-rule="evenodd" d="M215.272 211.908C215.272 211.908 220.052 212.271 224.953 214.085C229.854 215.898 233 218.619 233 218.619C233 218.619 231.79 220.614 229.067 219.767C226.344 218.921 225.558 218.196 221.928 218.437C218.297 218.679 215.514 217.772 214.728 216.563C214.001 215.475 215.272 211.908 215.272 211.908Z" fill="#AE7A14"/>
<path fill-rule="evenodd" clip-rule="evenodd" d="M217.329 210.397C217.329 210.397 219.507 212.815 219.386 215.052C219.265 217.289 217.995 220.13 217.632 220.795C217.269 221.521 216.845 223.092 216.301 222.972C215.817 222.911 213.517 222.488 214.122 220.13C214.727 217.772 215.454 215.898 215.696 215.536C216.059 215.173 217.329 210.397 217.329 210.397Z" fill="#B47F19"/>
<path fill-rule="evenodd" clip-rule="evenodd" d="M182.781 167.413C182.781 167.413 183.386 167.776 183.204 168.018C183.023 168.26 182.72 168.38 182.72 168.26C182.66 168.139 182.72 167.413 182.781 167.413Z" fill="#929497"/>
<path fill-rule="evenodd" clip-rule="evenodd" d="M213.215 205.984C210.674 208.523 207.89 209.792 208.435 215.415C208.98 221.037 211.823 221.883 214.183 221.218C216.543 220.553 218.176 218.8 218.358 215.354C218.479 213.662 217.45 201.812 213.215 205.984Z" fill="#C38E2C"/>
<path fill-rule="evenodd" clip-rule="evenodd" d="M215.211 220.735C215.211 220.735 213.457 220.674 212.912 221.581C212.368 222.488 213.699 223.395 215.151 223.395C216.603 223.395 217.208 223.092 216.966 222.246C216.724 221.4 216.301 221.46 216.059 221.158C215.756 220.856 215.211 220.735 215.211 220.735Z" fill="#C38E2C"/>
<path fill-rule="evenodd" clip-rule="evenodd" d="M191.736 166.627C191.736 166.627 192.159 165.479 192.885 165.962C193.611 166.446 193.793 167.534 193.793 167.534L191.736 166.627Z" fill="#F09A20"/>
<path fill-rule="evenodd" clip-rule="evenodd" d="M187.561 164.451C187.561 164.391 187.924 163.605 188.408 163.967C188.892 164.27 188.529 164.935 188.529 164.935L187.561 164.451Z" fill="#F09A20"/>
<path d="M192.643 166.93C192.944 166.93 193.188 166.713 193.188 166.446C193.188 166.179 192.944 165.962 192.643 165.962C192.342 165.962 192.099 166.179 192.099 166.446C192.099 166.713 192.342 166.93 192.643 166.93Z" fill="#404041"/>
<path d="M192.643 166.688C192.81 166.688 192.946 166.579 192.946 166.446C192.946 166.312 192.81 166.204 192.643 166.204C192.476 166.204 192.341 166.312 192.341 166.446C192.341 166.579 192.476 166.688 192.643 166.688Z" fill="#231F20"/>
<path d="M188.166 164.753C188.4 164.753 188.589 164.591 188.589 164.39C188.589 164.19 188.4 164.028 188.166 164.028C187.932 164.028 187.742 164.19 187.742 164.39C187.742 164.591 187.932 164.753 188.166 164.753Z" fill="#404041"/>
<path d="M188.166 164.572C188.299 164.572 188.408 164.491 188.408 164.39C188.408 164.29 188.299 164.209 188.166 164.209C188.032 164.209 187.924 164.29 187.924 164.39C187.924 164.491 188.032 164.572 188.166 164.572Z" fill="#231F20"/>
</g>
<path d="M30.1165 343.273C30.0014 342.301 29.5348 341.547 28.7166 341.01C27.8984 340.473 26.8949 340.205 25.706 340.205C24.8366 340.205 24.076 340.345 23.424 340.626C22.7784 340.908 22.2734 341.294 21.9091 341.787C21.5511 342.279 21.3722 342.838 21.3722 343.464C21.3722 343.989 21.4968 344.439 21.7461 344.816C22.0018 345.187 22.3278 345.497 22.7241 345.746C23.1204 345.989 23.5359 346.191 23.9705 346.35C24.4052 346.504 24.8047 346.629 25.169 346.724L27.1634 347.261C27.6747 347.396 28.2436 347.581 28.87 347.817C29.5028 348.054 30.1069 348.377 30.6822 348.786C31.2638 349.189 31.7433 349.706 32.1204 350.339C32.4975 350.972 32.6861 351.749 32.6861 352.669C32.6861 353.73 32.408 354.689 31.8519 355.545C31.3022 356.402 30.4968 357.083 29.4357 357.588C28.381 358.093 27.0994 358.345 25.5909 358.345C24.1847 358.345 22.967 358.118 21.9379 357.664C20.9151 357.211 20.1097 356.578 19.5217 355.766C18.94 354.954 18.6108 354.011 18.5341 352.938H20.9886C21.0526 353.679 21.3018 354.293 21.7365 354.778C22.1776 355.258 22.7337 355.616 23.4048 355.852C24.0824 356.082 24.8111 356.197 25.5909 356.197C26.4986 356.197 27.3136 356.05 28.0359 355.756C28.7582 355.456 29.3303 355.04 29.7521 354.51C30.174 353.973 30.3849 353.347 30.3849 352.631C30.3849 351.979 30.2028 351.448 29.8384 351.039C29.4741 350.63 28.9947 350.298 28.4002 350.042C27.8058 349.786 27.1634 349.562 26.473 349.371L24.0568 348.68C22.5227 348.239 21.3082 347.61 20.4134 346.792C19.5185 345.973 19.071 344.903 19.071 343.58C19.071 342.48 19.3683 341.521 19.9627 340.703C20.5636 339.879 21.369 339.239 22.3789 338.786C23.3952 338.325 24.5298 338.095 25.7827 338.095C27.0483 338.095 28.1733 338.322 29.1577 338.776C30.142 339.223 30.9219 339.837 31.4972 340.617C32.0788 341.397 32.3857 342.282 32.4176 343.273H30.1165ZM36.2888 358V343.273H38.5516V358H36.2888ZM37.4394 340.818C36.9983 340.818 36.618 340.668 36.2984 340.368C35.9852 340.067 35.8286 339.706 35.8286 339.284C35.8286 338.862 35.9852 338.501 36.2984 338.201C36.618 337.9 36.9983 337.75 37.4394 337.75C37.8804 337.75 38.2575 337.9 38.5708 338.201C38.8904 338.501 39.0502 338.862 39.0502 339.284C39.0502 339.706 38.8904 340.067 38.5708 340.368C38.2575 340.668 37.8804 340.818 37.4394 340.818ZM49.1009 343.273V345.19H41.4688V343.273H49.1009ZM43.6932 339.744H45.956V353.781C45.956 354.42 46.0487 354.9 46.234 355.219C46.4258 355.533 46.6687 355.744 46.9627 355.852C47.2631 355.955 47.5795 356.006 47.9119 356.006C48.1612 356.006 48.3658 355.993 48.5256 355.967C48.6854 355.935 48.8132 355.91 48.9091 355.891L49.3693 357.923C49.2159 357.981 49.0018 358.038 48.7269 358.096C48.4521 358.16 48.1037 358.192 47.6818 358.192C47.0426 358.192 46.4162 358.054 45.8026 357.779C45.1953 357.505 44.6903 357.086 44.2876 356.523C43.8913 355.961 43.6932 355.251 43.6932 354.395V339.744Z" fill="white"/>
<defs>
<filter id="filter0_d_451_256" x="0" y="0" width="340" height="328.789" filterUnits="userSpaceOnUse" color-interpolation-filters="sRGB">
<feFlood flood-opacity="0" result="BackgroundImageFix"/>
<feColorMatrix in="SourceAlpha" type="matrix" values="0 0 0 0 0 0 0 0 0 0 0 0 0 0 0 0 0 0 127 0" result="hardAlpha"/>
<feOffset/>
<feGaussianBlur stdDeviation="4"/>
<feComposite in2="hardAlpha" operator="out"/>
<feColorMatrix type="matrix" values="0 0 0 0 0 0 0 0 0 0 0 0 0 0 0 0 0 0 0.15 0"/>
<feBlend mode="normal" in2="BackgroundImageFix" result="effect1_dropShadow_451_256"/>
<feBlend mode="normal" in="SourceGraphic" in2="effect1_dropShadow_451_256" result="shape"/>
</filter>
<clipPath id="clip0_451_256">
<rect width="127" height="170" fill="white" transform="translate(106 78)"/>
</clipPath>
</defs>
</svg>
