<svg width="223" height="243" viewBox="0 0 223 243" fill="none" xmlns="http://www.w3.org/2000/svg">
<path d="M131.516 102.078L91.4966 78.9194L181.895 95.5771L221.914 118.938L131.516 102.078Z" fill="#737373"/>
<path d="M40.9142 238.386L0.692139 215.025V200.195L40.7111 223.557L40.9142 238.386Z" fill="#737373"/>
<path d="M40.7111 223.557L0.692139 200.195L91.4966 78.9194L131.516 102.078L40.7111 223.557Z" fill="#969696"/>
<path d="M131.516 102.078L221.914 118.938L222.117 133.768L131.719 117.11L40.9143 238.386L40.7112 223.557L131.516 102.078Z" fill="#4E4E4E"/>
<path d="M48.6337 208.727L8.41162 185.569L13.8965 178.256L53.9154 201.617L48.6337 208.727Z" fill="#ADADAD"/>
<path d="M48.6337 208.727V212.993L8.41162 189.835V185.569L48.6337 208.727Z" fill="#737373"/>
<path d="M53.9155 201.617V205.883L48.6338 212.993V208.727L53.9155 201.617Z" fill="#4E4E4E"/>
<path d="M71.3857 178.459L31.1636 155.098L36.6484 147.785L76.6674 171.146L71.3857 178.459Z" fill="#ADADAD"/>
<path d="M71.3857 178.459V182.725L31.1636 159.364V155.098L71.3857 178.459Z" fill="#737373"/>
<path d="M76.6674 171.146V175.412L71.3857 182.725V178.459L76.6674 171.146Z" fill="#4E4E4E"/>
<path d="M94.1376 147.988L54.1187 124.626L59.4003 117.516L99.6224 140.675L94.1376 147.988Z" fill="#ADADAD"/>
<path d="M94.1376 147.988V152.254L54.1187 128.892V124.626L94.1376 147.988Z" fill="#737373"/>
<path d="M99.6225 140.675V144.941L94.1377 152.254V147.988L99.6225 140.675Z" fill="#4E4E4E"/>
<path d="M116.889 117.516L76.8704 94.1551L82.152 87.0452L122.374 110.203L116.889 117.516Z" fill="#ADADAD"/>
<path d="M116.889 117.516V121.782L76.8704 98.421V94.155L116.889 117.516Z" fill="#737373"/>
<path d="M122.374 110.203V114.469L116.889 121.782V117.516L122.374 110.203Z" fill="#4E4E4E"/>
<path d="M85.4021 68.1529C86.2147 68.356 86.8241 68.7623 87.2304 69.3717C87.8398 70.1843 88.2461 70.9968 88.4493 72.0125C88.8555 73.4345 88.8555 75.0597 88.4493 76.4817C88.2461 77.7005 87.8398 78.9193 86.8241 79.7319C86.621 79.935 86.621 79.9351 86.4178 79.9351C86.0116 79.9351 85.6053 79.732 85.4021 79.5288C84.9958 79.1225 84.9959 78.7162 84.7927 78.1068C83.9801 77.0911 82.9644 76.2785 81.9487 75.6691C80.933 75.0596 79.7142 74.2471 78.4953 74.2471C77.8859 74.2471 77.0733 74.4503 76.4639 74.4503C76.2607 74.4503 76.2607 74.4503 76.2607 74.4503C76.2607 74.4503 76.2607 74.4502 76.2607 74.2471C76.4639 73.0283 77.0733 72.0125 77.8859 70.9968C78.6985 69.9811 79.7142 69.1685 80.7299 68.5591C82.1519 68.1528 83.777 67.5434 85.4021 68.1529Z" fill="#424242"/>
<path d="M36.0388 160.176C35.4294 161.192 34.82 162.208 34.0074 163.223C32.3823 165.661 30.7571 168.302 29.132 170.74C27.9132 172.568 26.6943 174.599 26.6943 177.037C26.6943 178.053 26.8975 178.865 27.1006 179.881C27.3037 182.522 25.8817 185.163 24.2566 187.194C23.444 188.413 22.2252 189.429 21.0063 190.038H20.8032C20.8032 190.038 20.6 190.038 20.6 189.835C20.3969 189.632 20.1938 189.429 20.1938 189.226C19.7875 189.835 19.3812 190.444 18.7718 190.851C18.7718 190.851 18.5686 190.851 18.5686 191.054H18.3655C17.7561 190.648 17.1466 190.038 16.9435 189.226C16.5372 190.444 15.1152 188.007 14.9121 187.6C13.6932 185.366 13.6932 182.522 14.3026 180.287C15.3184 175.615 18.7718 172.162 21.6158 168.302C23.0378 166.474 24.2566 164.645 24.866 162.411C25.4755 160.379 25.6786 158.145 25.4755 156.113C24.866 152.457 19.3812 140.878 26.4912 140.065C30.1477 139.659 32.5854 142.3 35.2263 144.331C39.8985 147.581 39.086 155.504 36.0388 160.176Z" fill="#262626"/>
<path d="M26.6943 177.037C26.6943 178.053 26.8975 178.865 27.1006 179.881C27.3037 182.522 25.8817 185.163 24.2566 187.194C23.444 188.413 22.2252 189.429 21.0063 190.038H20.8032C20.8032 190.038 20.6 190.038 20.6 189.835C20.3969 189.632 20.1938 189.429 20.1938 189.226C19.7875 189.835 19.3812 190.444 18.7718 190.851C18.7718 190.851 18.5686 190.851 18.5686 191.054H18.3655C17.7561 190.648 17.1466 190.038 16.9435 189.226C16.5372 190.444 15.1152 188.007 14.9121 187.6C13.6932 185.366 13.6932 182.522 14.3026 180.287C15.3184 175.615 18.7718 172.162 21.6158 168.302C21.6158 168.505 21.6158 168.708 21.6158 168.911C21.6158 169.115 21.6158 169.318 21.8189 169.521C22.022 169.927 22.6315 170.13 23.2409 169.927C25.8817 169.724 28.1163 168.505 30.1477 166.88C31.5697 165.864 32.7886 164.645 34.2106 163.427C32.5854 165.864 30.9603 168.505 29.3352 170.943C27.9132 172.568 26.4912 174.599 26.6943 177.037Z" fill="#FF6D00"/>
<path d="M107.138 101.875C105.513 103.5 103.075 104.515 101.247 105.937C100.231 106.75 99.4189 107.563 98.6063 108.578C96.778 110.407 94.5435 111.829 92.3089 113.047C92.1058 113.047 91.9026 113.25 91.9026 113.25C89.6681 114.266 87.2304 115.282 84.5895 114.876C82.5581 114.469 80.933 113.25 79.3078 112.235C77.6827 111.016 76.0576 109.594 74.6356 107.969L74.4324 107.766C74.2293 107.359 74.8387 107.156 75.4481 106.953C78.4953 106.547 81.5424 105.531 84.1832 103.906C83.777 104.109 87.0272 106.953 87.2304 107.156C87.8398 107.562 88.6524 107.766 89.2618 107.766C90.0744 107.563 90.6838 106.344 91.2932 105.734C91.6995 105.328 92.1058 104.922 92.5121 104.515L92.7152 104.312C93.3246 103.703 93.9341 102.89 94.5435 102.281C96.778 99.4368 98.4032 95.9834 101.247 93.952C102.669 92.9363 104.294 92.3269 106.123 91.7175C106.529 91.5143 107.138 91.3112 107.748 91.5143C108.154 91.7175 108.357 91.9206 108.56 92.3269C110.185 95.1709 109.576 99.2337 107.138 101.875Z" fill="#262626"/>
<path d="M107.138 101.875C105.513 103.5 103.076 104.515 101.247 105.937C100.232 106.75 99.419 107.563 98.6064 108.578C96.7782 110.407 94.5436 111.829 92.3091 113.047C92.1059 113.047 91.9028 113.25 91.9028 113.25C91.6996 112.844 91.4965 112.235 91.6996 111.625C91.6996 111.016 92.1059 110.203 92.3091 109.594C93.5279 107.359 94.9499 105.125 96.575 103.093C96.7782 102.89 97.3876 102.078 96.9813 101.671C96.575 101.468 95.9656 102.078 95.5593 102.281C94.9499 102.687 94.3405 103.093 93.731 103.5C93.3248 103.703 93.1216 103.906 92.7153 104.109C93.3248 103.5 93.9342 102.687 94.5436 102.078C96.7782 99.2337 98.4033 95.7803 101.247 93.7489C102.669 92.7332 104.294 92.1238 106.123 91.5143C106.529 91.3112 107.138 91.1081 107.748 91.3112C108.154 91.5143 108.357 91.7175 108.56 92.1237C110.186 95.1709 109.576 99.2338 107.138 101.875Z" fill="#FF6D00"/>
<path d="M92.3089 95.1708C91.0901 96.5928 90.0744 97.8116 89.0587 99.2336C86.8241 101.874 84.7927 104.718 82.5581 107.562C78.4953 113.047 74.4325 118.735 70.7759 124.626C68.1351 128.689 65.6974 132.955 62.6502 136.815C62.0408 137.627 61.2282 138.44 60.6188 139.253C57.978 142.3 54.9308 145.144 51.4774 147.175C48.6334 148.8 45.3832 150.019 42.1329 150.629C39.0858 151.238 36.0386 151.238 33.1947 150.425C31.3664 149.816 29.5381 148.8 28.3192 147.175C27.913 146.769 27.7098 146.363 27.3035 145.753C27.1004 145.347 26.8973 144.737 26.491 144.331C26.0847 143.722 25.8815 142.909 25.4753 142.3C22.8344 138.44 21.0061 134.174 19.381 129.705C18.1621 126.455 18.3653 123.001 21.2093 120.97C24.0533 119.142 26.6941 117.11 29.335 115.079C29.9444 114.469 30.7569 113.86 31.5695 113.454C32.7884 112.438 34.0072 111.625 35.4292 110.61C36.4449 110 37.2575 109.188 38.2732 108.578C42.5392 105.328 46.602 102.078 49.8523 98.0148C54.9308 91.5142 56.9623 82.7792 63.2597 77.2943C66.7131 74.2472 71.5885 72.4189 76.4639 72.4189C78.9016 72.4189 81.3393 72.8252 83.5738 73.8409C85.6053 74.8566 87.6367 76.2786 89.0587 78.1069C92.1058 81.5603 93.9341 86.2326 94.1372 90.7017C93.7309 92.9363 93.5278 93.7488 92.3089 95.1708Z" fill="#262626"/>
<path d="M32.7884 139.862C31.7727 141.893 30.1475 144.331 27.3035 146.159C27.1004 145.753 26.8973 145.144 26.491 144.737C28.9287 143.315 30.5538 140.878 31.3664 139.253C32.7884 136.409 33.3978 132.549 32.9915 128.689C32.7884 125.845 31.5695 121.173 26.8973 120.97V119.345C31.1632 119.548 34.0072 122.798 34.6166 128.486C35.0229 132.549 34.2104 136.612 32.7884 139.862Z" fill="#338259"/>
<path d="M62.6503 136.815C62.4471 139.049 62.0408 141.081 60.6188 142.909L59.4 142.097C60.0094 141.284 60.4157 140.268 60.6188 139.456C61.2283 137.221 61.2283 134.58 61.0251 132.143C60.822 128.08 60.0094 124.423 58.3843 121.376C56.1497 116.907 52.29 113.453 47.6177 111.625C43.5549 110.203 39.0858 109.797 35.0229 111.016C36.0387 110.406 36.8512 109.594 37.8669 108.984C41.3204 108.578 44.9769 108.984 48.2272 110.203C53.1026 112.031 57.3686 115.891 59.8063 120.767C61.4314 124.017 62.4471 127.877 62.4471 132.143C62.6502 133.565 62.6503 135.19 62.6503 136.815Z" fill="#338259"/>
<path d="M45.5863 110.203L44.3674 109.188C45.5863 107.766 48.8366 103.906 51.4774 100.656C53.5088 98.2179 55.3371 95.9834 56.1497 94.9676C57.3685 93.5456 58.3842 92.1237 59.6031 90.7017C62.2439 87.2483 65.0879 83.7948 68.3382 80.7477C74.8387 74.8566 82.355 72.4189 88.8555 74.2472C90.4806 74.6535 92.1058 75.466 93.5278 76.0755C96.3718 77.2943 98.8095 78.5132 101.653 78.1069C105.513 77.4975 108.357 73.8409 108.967 70.1844C109.576 66.7309 108.967 63.0744 106.935 58.6052C106.123 56.777 105.107 55.1518 104.294 53.5267C103.279 51.6984 102.263 49.667 101.247 47.6356C97.7938 39.7131 97.1843 34.0251 99.0126 30.1654C101.247 25.6963 106.732 23.2586 110.998 25.0868L110.389 26.5089C106.935 25.0869 102.263 27.1183 100.435 30.7748C98.6063 34.2283 99.4189 39.5099 102.669 47.0262C103.482 49.0576 104.701 50.8859 105.716 52.9173C106.732 54.5424 107.545 56.3707 108.357 58.199C110.592 62.8713 111.201 66.9341 110.592 70.7938C109.779 74.8566 106.732 79.3257 101.857 79.9351C98.6063 80.3414 95.7623 79.1226 92.9183 77.7006C91.4964 77.0911 89.8712 76.2786 88.4492 75.8723C82.5581 74.2472 75.4481 76.4817 69.3539 81.9666C66.1036 84.8106 63.4628 88.4672 60.8219 91.7174C59.8062 93.1394 58.5874 94.5614 57.3685 95.9834C56.5559 96.9991 54.7277 99.2337 52.6962 101.671C50.0554 104.922 46.8051 108.578 45.5863 110.203Z" fill="#338259"/>
<path d="M45.361 110.259L44.2939 109.033L30.1968 121.304L31.2638 122.53L45.361 110.259Z" fill="#338259"/>
<path d="M38.6794 149.816C38.07 149.816 37.6637 149.816 37.2574 149.816C33.6009 149.41 30.1474 147.988 27.5066 145.347L28.5223 144.128C30.7569 146.363 34.0071 147.785 37.2574 147.988C40.5077 148.191 43.7579 147.581 46.6019 145.956C47.0082 145.753 47.6176 145.347 48.0239 145.144C48.8365 144.737 49.6491 144.128 50.4616 143.722L51.0711 145.144C50.2585 145.55 49.6491 145.956 48.8365 146.363C48.4302 146.769 47.8208 146.972 47.4145 147.175C44.7737 149.003 41.7265 149.816 38.6794 149.816Z" fill="#338259"/>
<path d="M13.0838 114.875C12.2712 111.828 10.2398 109.391 8.41154 106.953C8.2084 106.547 7.80211 106.344 7.39583 106.344C6.98954 107.969 7.39583 109.594 7.80211 111.219C8.20839 112.844 8.81782 114.266 9.02096 115.891C9.2241 117.516 9.02096 119.345 9.42725 120.767C9.83353 121.985 10.6461 123.001 11.6618 123.814C11.8649 124.017 12.0681 124.017 12.2712 124.017C12.4744 124.017 12.4744 123.814 12.4744 123.814C13.4901 122.595 13.8964 121.173 13.6932 119.548C13.6932 117.923 13.4901 116.297 13.0838 114.875Z" fill="#262626"/>
<path d="M11.4585 116.094C11.4585 115.891 11.6617 115.688 11.6617 115.485C11.6617 115.282 11.4585 115.079 11.4585 114.876C10.8491 113.657 10.4428 112.641 9.83341 111.422C9.22398 110.406 8.81769 109.188 8.00513 108.172C8.20827 110.203 9.42712 112.235 10.0365 114.266C10.646 116.298 10.0365 118.532 10.646 120.767C10.646 120.97 11.2554 122.189 11.4585 121.579C11.6617 121.173 11.0523 120.157 11.0523 119.751C10.8491 118.532 11.2554 117.313 11.4585 116.094Z" fill="#FF903D"/>
<path d="M29.9444 131.33C30.1476 132.752 29.9444 133.971 29.7413 135.393C29.1319 137.83 27.5067 140.065 25.6785 141.893C25.4753 142.096 25.069 142.503 24.8659 142.706C23.647 143.722 22.6313 144.737 21.4125 145.956C20.8031 146.566 20.1936 147.175 19.7873 147.988C19.1779 148.8 18.5685 149.41 17.9591 150.222C15.9277 152.66 13.6931 154.894 10.646 156.113C9.42711 156.52 8.00512 156.723 6.78627 156.113C6.37998 155.91 6.17684 155.707 5.9737 155.301L5.77056 155.098C5.77056 155.098 5.56742 155.098 5.36427 155.098C4.75485 155.098 3.94228 155.097 3.33286 154.894C1.09829 153.879 2.114 151.035 2.52028 149.206C2.92657 147.581 3.33285 145.956 3.94228 144.534C4.34856 143.518 4.5517 142.706 4.75485 141.69V141.487C4.75485 140.674 4.75485 139.862 4.5517 139.049C4.34856 137.627 4.14542 136.205 4.34856 134.783C4.34856 132.752 4.75485 130.924 5.56741 129.095C6.17684 127.47 7.19255 125.845 8.20826 124.423C8.81768 123.407 9.63025 122.595 10.646 121.579C10.8491 121.376 11.0522 121.173 11.4585 120.97C12.2711 120.563 13.0837 120.767 13.8962 120.767C14.7088 120.97 15.5214 120.563 16.3339 120.563C19.3811 120.157 22.6313 120.563 25.2722 121.985C27.5067 123.204 29.1319 125.236 29.9444 127.673C29.7413 128.892 29.9444 130.111 29.9444 131.33Z" fill="#424242"/>
<path d="M24.8659 142.909C23.647 143.925 22.6313 144.94 21.4124 146.159C20.803 146.769 20.1936 147.378 19.7873 148.191C19.1779 149.003 18.5685 149.613 17.959 150.425C15.9276 152.863 13.693 155.097 10.6459 156.316C9.42707 156.723 8.00507 156.926 6.78622 156.316C6.37994 156.113 6.1768 155.91 5.97365 155.504L5.77051 155.301C5.77051 155.301 5.56737 155.301 5.36423 155.301C4.7548 155.301 3.94224 155.301 3.33281 155.097C2.72339 154.894 2.52024 154.488 2.3171 154.082C2.11396 153.879 2.11396 153.472 2.11396 153.269C1.91082 152.05 2.3171 150.628 2.52024 149.613C2.92652 147.988 3.33281 146.362 3.94224 144.94C4.34852 143.925 4.55166 143.112 4.7548 142.096V141.893C4.7548 142.096 4.95794 142.096 4.95794 142.3C5.16109 142.909 5.16109 143.518 5.16109 144.128C5.16109 144.331 5.16109 144.534 5.16109 144.737C5.16109 145.347 5.16109 146.159 4.95794 146.769C4.95794 147.378 4.7548 149.003 5.77051 149.003C6.78622 148.8 7.39565 147.987 8.00507 147.175C11.0522 143.315 16.1308 140.878 21.0062 141.284C22.0219 141.284 23.2407 141.487 24.2564 142.3C24.2564 142.096 24.6627 142.503 24.8659 142.909Z" fill="#FF903D"/>
<path d="M18.7717 146.972C18.9748 147.175 18.5685 147.988 18.3654 148.191C18.1622 148.597 17.756 149.003 17.3497 149.207C16.5371 150.222 15.7245 151.238 14.7088 152.254C13.8963 153.066 13.0837 154.082 12.068 154.894C11.8648 155.098 11.6617 155.301 11.2554 155.301C10.0366 155.91 8.41143 156.317 7.19258 155.707C6.38001 155.301 5.77059 154.894 4.95802 154.285H4.75487C4.55173 154.285 4.34859 154.488 4.34859 154.488C4.14545 154.488 3.73916 154.691 3.53602 154.488C2.9266 154.488 2.52032 154.082 2.11403 153.473C1.91089 153.269 1.91089 152.863 1.91089 152.66L2.11403 152.863L2.31717 153.066C2.52032 153.269 2.52031 153.473 2.72346 153.676C2.9266 153.879 3.33288 154.082 3.53602 154.082C3.73916 154.082 3.94231 153.879 3.94231 153.879C4.14545 153.676 4.14545 153.676 4.34859 153.473C4.55174 153.269 4.75488 152.863 4.95802 153.269C5.16116 153.676 5.3643 154.082 5.56744 154.488C5.77058 154.691 6.17687 154.894 6.38001 155.098C6.98944 155.504 7.802 155.707 8.61457 155.707C9.224 155.707 9.63028 155.504 10.2397 155.301C10.8491 155.098 11.6617 154.691 12.068 154.285C12.6774 153.879 13.0837 153.269 13.49 152.66C14.0994 151.847 14.7088 151.035 15.3183 150.019C15.5214 149.613 16.7402 147.988 17.1465 147.581C17.3497 147.378 17.756 146.972 17.9591 146.972C18.5685 146.769 18.7717 146.769 18.7717 146.972Z" fill="#262626"/>
<path d="M8.4115 131.33C8.61464 131.736 8.61464 132.143 8.20835 132.549C7.80207 132.955 7.39579 133.158 6.78636 133.158C6.38008 133.158 5.97379 132.955 5.56751 132.955C5.36437 132.752 4.95809 132.549 4.95809 132.346C4.75494 131.736 5.16123 131.127 5.56751 130.924C6.58322 130.111 7.80207 130.314 8.4115 131.33Z" fill="#FF903D"/>
<path d="M12.4744 134.377C12.8807 134.987 13.8964 135.19 14.5058 135.19C15.3184 135.19 15.9278 135.19 16.3341 134.377C16.3341 134.174 16.5372 134.174 16.5372 133.971C16.5372 133.768 16.5372 133.768 16.3341 133.565C16.1309 133.158 15.9278 132.955 15.5215 132.752C14.9121 132.346 14.0995 132.346 13.4901 132.752C13.2869 132.955 13.0838 132.955 12.8807 133.158C12.6775 133.361 12.4744 133.565 12.4744 133.971C12.2712 133.971 12.2712 134.174 12.4744 134.377Z" fill="#FF903D"/>
<path d="M8.61457 149.41C8.61457 149.613 8.61457 149.613 8.61457 149.816C8.61457 150.222 8.41142 150.628 8.20828 151.035C8.00514 151.441 7.802 151.847 7.39572 152.05C6.98943 152.457 6.78629 152.863 6.38001 153.066C5.97372 153.472 5.16115 153.676 4.55173 153.472C4.34859 153.472 4.14545 153.066 3.9423 152.863C3.73916 152.66 3.53602 152.254 3.33288 152.05C3.12974 151.644 2.92659 151.441 3.12974 151.035C3.12974 151.035 3.12974 151.035 3.12974 150.832C3.12974 150.628 3.33288 150.628 3.33288 150.425C3.33288 150.222 3.33288 150.222 3.33288 150.019C3.12974 149.816 2.92659 149.816 2.72345 149.816C2.31717 149.816 2.11403 149.41 1.91088 149.003C1.5046 147.581 2.92659 146.769 4.14545 146.566C4.95801 146.566 5.77058 146.566 6.58315 146.972C6.98943 147.175 7.39571 147.175 7.802 147.581C8.20828 147.785 8.41142 148.191 8.61457 148.597C8.41142 149.003 8.61457 149.207 8.61457 149.41Z" fill="#424242"/>
<path d="M8.61455 149.41C8.61455 149.613 8.61455 149.613 8.61455 149.816C8.61455 150.222 8.41141 150.628 8.20827 151.035C8.00513 151.441 7.80199 151.847 7.39571 152.05C7.39571 151.847 7.19256 151.847 6.98942 151.847C6.78628 151.644 6.58314 151.644 6.38 151.644C5.77057 151.441 5.16114 151.644 4.75486 151.441L4.55172 151.238C4.14543 150.629 4.75486 150.222 5.36429 150.425C5.56743 150.425 5.97371 150.629 6.17685 150.629C6.58314 150.832 6.98942 150.832 7.39571 150.629C7.80199 150.222 8.20827 149.816 8.61455 149.41Z" fill="#262626"/>
<path d="M13.49 136.612C13.49 136.408 13.49 136.408 13.49 136.612C14.3025 136.205 15.1151 136.002 15.7245 136.002C16.5371 136.002 17.1465 136.205 17.7559 136.612C17.9591 136.815 18.1622 137.018 17.9591 137.221C17.5528 137.83 16.9434 138.237 16.1308 138.44C15.1151 138.643 14.0994 138.846 13.0837 138.44C12.8805 138.44 11.8648 138.237 12.068 137.83C12.4743 137.221 13.0837 136.815 13.49 136.612Z" fill="#262626"/>
<path d="M15.1151 138.44C15.7882 138.44 16.3339 137.894 16.3339 137.221C16.3339 136.548 15.7882 136.002 15.1151 136.002C14.4419 136.002 13.8962 136.548 13.8962 137.221C13.8962 137.894 14.4419 138.44 15.1151 138.44Z" fill="#FF903D"/>
<path d="M15.115 137.627C15.3394 137.627 15.5213 137.445 15.5213 137.221C15.5213 136.997 15.3394 136.815 15.115 136.815C14.8906 136.815 14.7087 136.997 14.7087 137.221C14.7087 137.445 14.8906 137.627 15.115 137.627Z" fill="#1A1A1A"/>
<path d="M14.7088 137.221C14.9332 137.221 15.1151 137.039 15.1151 136.815C15.1151 136.59 14.9332 136.408 14.7088 136.408C14.4844 136.408 14.3025 136.59 14.3025 136.815C14.3025 137.039 14.4844 137.221 14.7088 137.221Z" fill="white"/>
<path d="M4.95803 133.768C4.75489 133.768 4.75489 133.768 4.95803 133.768C4.55175 134.58 4.75489 135.19 5.16117 135.799C5.36432 136.205 5.7706 136.408 6.17688 136.408C6.38003 136.408 6.58317 136.612 6.78631 136.612C6.98945 136.612 6.98945 136.612 6.98945 136.205C6.98945 135.596 6.58317 134.986 6.17688 134.377C5.7706 134.174 5.36432 133.971 4.95803 133.768Z" fill="#262626"/>
<path d="M6.38011 134.987C6.58325 135.393 6.3801 136.002 5.97382 136.002C5.56754 136.002 5.16125 135.799 4.95811 135.19C4.75497 134.783 4.95811 134.174 5.3644 134.174C5.77068 134.174 6.17696 134.58 6.38011 134.987Z" fill="#FF903D"/>
<path d="M6.17706 135.19C6.17706 135.393 6.17705 135.596 5.97391 135.596C5.77077 135.596 5.56763 135.393 5.56763 135.19C5.56763 134.987 5.56763 134.783 5.77077 134.783C5.77077 134.783 5.97391 134.987 6.17706 135.19Z" fill="#1A1A1A"/>
<path d="M5.97389 134.783C5.97389 134.987 5.97389 134.987 5.97389 134.987C5.77075 134.987 5.77075 134.987 5.77075 134.783C5.77075 134.58 5.77075 134.58 5.77075 134.58C5.77075 134.58 5.77075 134.58 5.97389 134.783Z" fill="white"/>
<path d="M21.0061 122.392C20.803 121.985 20.803 121.782 20.803 121.376C20.803 120.97 21.0061 120.36 21.2093 119.954C21.8187 118.735 22.8344 117.72 23.4438 116.501C24.6627 114.469 25.2721 112.438 26.0847 110.203C26.2878 110 26.491 109.797 26.6941 110C27.5067 110.61 28.1161 111.625 28.3192 112.641C28.9287 114.266 28.9287 115.891 29.1318 117.72C29.5381 119.954 29.7412 122.189 29.5381 124.626C29.5381 125.439 29.3349 126.251 29.1318 126.861C28.7255 127.673 28.1161 128.283 27.5067 128.689C26.8972 129.095 26.0847 129.705 25.2721 128.892C24.2564 127.673 23.2407 126.455 22.225 125.236C22.225 124.423 21.4124 123.407 21.0061 122.392Z" fill="#262626"/>
<path d="M24.6627 117.313C24.2564 118.329 23.647 119.345 23.647 120.36C23.647 121.579 24.0533 122.798 24.6627 124.017C25.2721 125.236 25.8815 126.455 26.8972 127.673C26.8972 127.877 27.1004 127.877 27.3035 127.877C27.7098 128.08 28.3192 127.673 28.5224 127.267C29.3349 126.048 29.7412 124.423 29.7412 122.798C29.7412 121.173 29.5381 119.751 29.1318 118.126C28.7255 116.907 28.5224 115.485 28.1161 114.266C27.913 113.453 27.7098 112.641 27.5067 111.625C27.1004 110.61 26.8972 111.828 26.6941 112.235C26.0847 114.266 25.4753 115.891 24.6627 117.313Z" fill="#FF903D"/>
<path d="M52.0869 167.083C51.0712 168.708 49.4461 170.333 49.8524 172.365C49.8524 172.568 49.8524 172.568 50.0555 172.771C50.6649 173.787 51.8838 174.396 53.1027 174.396C54.5246 174.396 55.7435 173.787 56.9623 172.974C57.1655 172.771 57.5718 172.568 57.9781 172.568C58.3843 172.568 58.5875 172.771 58.9938 172.974C61.2283 174.193 63.4629 175.615 63.666 178.053C63.8692 179.678 62.8535 181.303 61.4315 182.116C60.0095 183.131 58.5875 183.538 56.9623 183.944C55.5403 184.35 53.9152 184.756 52.2901 184.756C51.4775 184.756 50.6649 184.553 49.8524 184.147C49.243 183.741 48.8367 183.334 48.2272 182.928C46.8052 181.709 45.1801 180.897 43.7581 179.881C41.3204 177.85 39.8984 174.599 40.3047 171.349C40.3047 170.74 40.5078 170.13 40.711 169.521C41.3204 167.489 42.3361 165.458 43.3518 163.63C44.3676 162.005 45.1801 160.176 46.1958 158.551C47.2115 156.723 48.2272 155.301 48.0241 153.269C47.821 151.035 47.4147 148.8 46.8052 146.769C46.1958 143.925 45.3833 141.081 45.1801 138.237C45.1801 135.393 45.7895 132.346 47.821 130.111C49.4461 128.283 52.0869 127.267 54.5246 128.08C57.5718 129.096 58.3843 131.736 59.1969 134.58C60.2126 137.831 60.822 141.081 61.6346 144.534C61.8378 145.347 62.0409 146.363 61.8378 147.175C61.6346 147.988 61.4315 148.597 61.2283 149.207C58.1812 154.895 55.7435 161.598 52.0869 167.083Z" fill="#424242"/>
<path d="M63.4629 178.053C63.666 179.678 62.6503 181.303 61.2283 182.116C59.8064 183.131 58.3844 183.538 56.7592 183.944C55.3372 184.35 53.7121 184.756 52.087 184.756C51.2744 184.756 50.4618 184.553 49.6493 184.147C49.0398 183.741 48.6335 183.334 48.0241 182.928C46.6021 181.709 44.977 180.897 43.555 179.881C41.1173 177.85 39.6953 174.599 40.1016 171.349C40.1016 170.74 40.3047 170.13 40.5079 169.521C40.9142 168.911 41.3204 168.302 41.7267 167.693C42.5393 166.474 43.3519 165.255 44.3676 164.239C44.977 163.63 45.5864 163.02 46.399 162.817C46.6021 162.817 46.6021 162.817 46.8053 162.817L47.0084 163.02C47.2116 163.63 46.8053 164.442 46.399 165.052C45.3833 166.677 45.3833 169.521 46.8053 170.943C47.2116 171.552 47.821 171.755 48.6335 172.162C49.243 172.365 49.8524 172.568 50.2587 172.771C50.8681 173.787 52.087 174.396 53.3058 174.396C54.7278 174.396 55.9467 173.787 57.1655 172.974C57.3687 172.771 57.7749 172.568 58.1812 172.568C58.5875 172.568 58.7906 172.771 59.1969 172.974C60.8221 173.99 63.2598 175.615 63.4629 178.053Z" fill="#FF903D"/>
<path d="M77.4797 92.7333C77.4797 93.5458 77.4797 94.5615 77.4797 95.3741C77.6829 98.0149 78.6986 100.453 79.7143 102.687C81.5426 106.547 83.9803 110 85.6054 113.86C86.2148 115.485 86.8243 117.313 86.8243 119.142C86.8243 121.173 86.2149 123.205 85.8086 125.236C85.4023 126.455 84.996 127.877 84.7929 129.096C83.9803 132.346 83.7771 135.596 86.2148 138.237C86.2148 138.237 86.2148 138.237 86.418 138.237C86.6211 138.034 86.8243 137.831 86.8243 137.424C86.8243 138.034 87.0274 138.643 87.4337 139.05C87.4337 139.05 87.4337 139.05 87.6368 139.05H87.84C88.0431 139.05 88.2463 138.846 88.4494 138.643C88.6525 138.44 88.6525 138.237 88.6525 138.034C88.4494 138.643 89.262 138.846 89.6683 138.643C90.2777 138.44 90.8871 138.034 91.4965 137.831C92.5122 137.221 93.528 136.409 94.3405 135.393C95.5594 133.971 96.3719 131.736 95.9657 129.908C95.5594 128.486 94.7468 127.267 94.3405 125.845C93.9342 124.22 94.5437 122.392 94.95 120.767C95.5594 118.939 95.9657 117.11 96.3719 115.282C96.7782 113.657 97.3876 111.829 96.5751 110.407C95.9657 109.391 94.5437 108.578 93.9342 107.359C92.3091 104.922 91.2934 101.672 92.5122 98.8275C93.528 96.3898 93.9342 93.7489 93.7311 91.1081C93.5279 87.4515 91.4965 81.7636 87.2306 81.5605C84.3866 81.3573 81.7457 83.3887 80.1206 85.4201C78.6986 87.4516 77.6829 90.0924 77.4797 92.7333Z" fill="#424242"/>
<path d="M94.9499 120.767C94.5436 122.392 93.9342 124.22 94.3404 125.845C94.7467 127.267 95.5593 128.486 95.9656 129.908C96.3719 131.94 95.7624 133.971 94.3404 135.393C93.5279 136.409 92.5122 137.221 91.4965 137.831C90.887 138.237 90.2776 138.44 89.6682 138.643C89.2619 138.643 88.4493 138.643 88.6525 138.034C88.6525 138.237 88.4493 138.44 88.4493 138.643C88.2462 138.846 88.0431 139.05 87.8399 139.05H87.6368C87.6368 139.05 87.6368 139.05 87.4336 138.846C87.0273 138.44 86.8242 137.831 86.8242 137.221C86.8242 137.628 86.6211 137.831 86.4179 138.034C86.4179 138.034 86.4179 138.034 86.2148 138.034C83.7771 135.596 83.9802 132.143 84.7928 128.892C85.1991 127.674 85.6054 126.252 85.8085 125.033C86.4179 123.001 87.0273 120.97 86.8242 118.939C86.8242 117.11 86.2148 115.282 85.6053 113.657V113.454C85.8085 113.251 86.2148 113.047 86.621 113.047C87.2305 113.047 87.6368 113.454 87.8399 114.063C88.0431 114.469 88.0431 115.079 88.0431 115.688C88.0431 118.939 88.2462 122.392 88.2462 125.642C88.2462 126.048 88.2462 126.455 88.6525 126.658C89.0588 126.861 89.465 126.252 89.6682 125.845C90.6839 123.611 90.6839 121.173 90.6839 118.735C90.6839 117.517 90.6839 116.298 90.6839 115.079C90.6839 113.86 90.4808 112.844 91.2933 111.829C91.6996 111.219 92.309 110.61 92.7153 110C93.3247 108.985 93.731 107.766 93.731 106.547C93.9342 106.75 93.9342 106.953 94.1373 107.156C94.9499 108.172 96.1687 108.985 96.7781 110.203C97.5907 111.625 96.9813 113.657 96.575 115.079C95.9656 117.11 95.5593 118.939 94.9499 120.767Z" fill="#FF903D"/>
<path d="M160.158 63.0744C160.158 62.8713 159.955 62.465 159.752 62.2619C159.549 62.0587 159.346 62.0587 159.346 62.0587C159.143 61.8556 159.143 61.6524 158.94 61.4492C158.737 61.0429 158.533 60.8398 158.127 60.4335C157.721 59.8241 157.315 59.0115 156.908 58.4021C156.502 57.3864 156.096 56.5739 155.486 55.7613C155.283 55.355 154.877 55.1518 154.877 54.5424C154.877 54.3393 154.877 53.3236 155.283 53.3236C154.064 53.5267 152.845 53.7299 151.627 53.7299C151.017 53.7299 150.408 53.7299 150.001 53.933C145.532 48.8545 140.86 43.7759 136.391 38.6974C135.375 37.4785 131.922 34.4314 131.719 33.822C131.312 33.4157 131.109 32.8063 130.906 32.4C130.093 30.978 129.078 29.7591 128.062 28.5403C127.453 27.7277 126.843 27.1183 126.031 26.712C124.609 25.8995 122.984 25.8994 121.562 26.5089C120.952 26.712 120.546 26.712 120.14 26.5089C119.936 26.5089 119.936 26.3057 119.733 26.3057C119.53 26.3057 119.53 26.3057 119.327 26.5089C118.921 26.712 118.718 27.1183 118.514 27.5246C118.514 27.9309 118.514 28.134 118.718 28.5403C118.921 29.556 119.327 30.5717 119.733 31.5874C119.936 31.9937 120.343 32.6031 120.343 33.0094C120.343 33.4157 120.14 34.0251 120.14 34.4314C120.14 34.8377 120.343 35.0408 120.343 35.4471C120.952 36.4628 121.968 37.0722 122.984 37.6817C123.796 38.088 124.812 38.4942 125.624 38.9005C126.437 39.3068 127.046 39.9162 127.656 40.7288C128.265 41.7445 133.75 51.9016 136.188 55.9644C137.407 58.199 138.829 60.4335 140.251 62.4649C141.673 64.4964 143.298 66.3247 145.329 67.7466C146.142 68.3561 147.361 68.7624 148.376 68.7624C149.798 68.9655 151.017 68.5592 152.439 68.153C155.08 67.1372 157.721 65.7152 159.955 64.0901C160.159 63.2775 160.158 63.2775 160.158 63.0744Z" fill="#663C33"/>
<path d="M124.609 35.0405L120.749 37.2751H120.546L124.406 35.0405C124.406 35.2437 124.609 35.2437 124.609 35.0405Z" fill="#FFA645"/>
<path d="M117.092 29.1494L120.952 26.9148C120.343 27.3211 120.343 29.1494 121.155 31.1808C121.968 33.0091 122.984 34.6342 123.796 35.0405C123.999 35.2436 124.202 35.2436 124.406 35.2436L120.546 37.4782C120.343 37.4782 120.14 37.4782 119.936 37.275C119.124 36.8688 118.108 35.2436 117.296 33.4154C116.483 31.3839 116.28 29.5557 117.092 29.1494Z" fill="#FFA645"/>
<path d="M126.234 36.4625L122.374 38.6971C122.374 38.6971 122.577 38.6971 122.577 38.494C122.984 38.0877 122.984 37.4783 122.984 36.8689L126.843 34.6343C126.843 35.4468 126.64 36.0563 126.234 36.4625Z" fill="#FFA645"/>
<path d="M108.967 24.8835L112.826 22.649C113.233 22.4458 113.842 22.2427 114.248 22.2427C114.858 22.2427 115.467 22.2427 116.28 22.4458C117.092 22.649 118.108 23.0553 118.921 23.4615C119.936 24.071 121.155 24.8835 122.171 25.8992C124.609 28.1338 126.437 31.7904 126.64 34.8375L122.78 37.072C122.577 34.0249 120.749 30.3683 118.311 28.1338C117.296 27.1181 116.28 26.3055 115.061 25.6961C114.045 25.0867 113.233 24.8835 112.42 24.6804C111.811 24.4773 110.998 24.4772 110.389 24.4772C109.983 24.4772 109.576 24.4772 108.967 24.8835Z" fill="#FFA645"/>
<path d="M122.78 36.869C122.78 37.4784 122.577 38.291 122.374 38.4941C122.171 38.6972 121.968 38.6973 121.765 38.6973C120.952 38.6973 120.14 38.4941 119.327 38.0878C118.921 37.8847 118.514 37.6815 118.108 37.2752C117.093 36.6658 116.077 35.8532 115.264 35.2438C115.061 35.0407 114.858 35.0407 114.655 34.8376C113.436 34.4313 112.42 34.2281 111.201 33.6187C110.998 33.4156 110.592 33.2124 110.389 33.0092C109.576 32.1967 108.764 30.9779 108.154 29.759C107.545 28.337 107.545 26.7118 107.951 25.8993C108.357 24.8836 109.576 24.4773 110.592 24.2742C111.201 24.2742 111.811 24.2742 112.623 24.4773C113.436 24.6805 114.452 25.0867 115.264 25.493C116.28 26.1025 117.499 26.915 118.515 27.9307C120.749 30.3684 122.78 34.025 122.78 36.869ZM120.546 37.4784C121.358 37.4784 121.358 35.8533 120.749 33.8219C120.749 33.6187 120.546 33.6187 120.546 33.6187C120.546 33.6187 120.546 33.6187 120.343 33.6187C120.14 33.6187 119.936 33.6187 119.733 33.4156C119.327 33.2124 118.718 32.603 118.515 31.7904C118.311 31.3842 118.311 30.9779 118.311 30.5716C118.311 30.1653 118.108 29.5559 117.702 29.3527C117.499 29.3527 117.499 29.3527 117.296 29.3527C116.483 29.3527 116.483 31.3841 117.296 33.6187C118.108 35.447 119.124 37.0721 119.936 37.4784C120.14 37.4784 120.343 37.4784 120.546 37.4784Z" fill="#FF6D00"/>
<path d="M165.847 38.2911C165.237 38.4942 164.831 38.6973 164.221 39.1036C163.003 39.7131 162.19 40.932 161.377 41.9477C159.955 43.7759 158.94 45.6042 157.721 47.4325C155.893 50.2764 152.236 52.511 149.189 54.1362C148.783 54.3393 148.376 54.5424 148.173 54.9487C147.97 55.1519 147.97 55.5581 147.767 55.7613C147.158 58.8084 148.58 61.8556 150.408 64.2933C152.033 66.1215 154.064 67.9498 156.502 68.3561C159.143 64.9027 161.784 61.4493 164.425 57.9959C167.878 53.5267 171.738 48.6513 172.55 42.9634C172.753 42.1508 172.753 41.1351 172.753 40.3225C172.753 39.5099 173.16 39.1037 173.769 38.4942C174.175 38.2911 174.379 37.8848 174.785 37.6817C174.379 37.4785 173.769 37.4785 173.16 37.4785C171.331 37.4785 169.706 37.4785 167.878 37.6817C167.269 37.8848 166.659 38.0879 165.847 38.2911Z" fill="#F2F2F2"/>
<path d="M148.173 233.104C147.97 233.307 147.97 233.713 147.767 233.917C146.751 236.557 145.736 240.62 149.189 242.042C150.814 242.855 152.846 242.652 154.674 242.042C156.502 241.433 157.924 240.214 159.346 239.198C160.362 238.386 161.378 237.37 162.19 236.354C163.206 234.932 163.815 233.104 164.831 231.682C165.237 231.073 165.44 230.463 165.847 230.057C166.456 229.447 167.675 229.041 168.487 228.635C169.503 228.025 170.519 227.416 171.331 226.807C172.55 225.791 173.972 224.775 174.379 223.15C174.785 221.322 174.379 218.884 173.769 217.259C173.363 216.04 172.753 215.024 171.738 214.212C171.128 213.806 170.925 214.618 170.316 214.618C169.503 214.415 168.691 214.009 167.878 213.806C166.05 213.602 165.237 214.212 164.018 215.228C159.143 219.29 154.674 223.963 151.017 229.244C149.798 230.26 148.783 231.682 148.173 233.104Z" fill="#262626"/>
<path d="M174.785 102.687C173.566 97.8116 171.128 93.1393 167.878 89.2797C167.065 88.2639 165.643 87.8577 164.425 87.6545C164.018 87.6545 163.409 87.6545 163.003 87.6545C161.784 87.8577 160.565 88.0608 160.159 89.2797C157.315 96.999 155.486 104.922 154.267 113.047C153.455 118.329 152.846 123.611 153.049 128.892C153.455 142.097 154.674 155.098 156.096 168.099C156.096 168.302 156.299 170.333 156.299 170.943C156.502 177.443 159.143 213.602 159.346 216.853C159.346 217.259 159.346 217.462 159.549 217.868C159.752 218.072 159.752 218.275 159.955 218.478C161.174 219.494 162.596 219.697 164.221 219.9C166.05 220.103 168.081 220.103 169.909 219.697C171.535 219.291 174.175 218.072 174.175 216.04C174.175 213.602 174.379 211.165 174.379 208.727C174.582 203.649 174.582 198.367 174.379 193.288C174.175 185.975 173.363 178.459 171.738 171.349C174.175 153.879 175.597 136.002 176.004 118.329C176.004 113.047 176.004 107.766 174.785 102.687Z" fill="#338259"/>
<path d="M213.179 210.352C213.382 209.336 213.788 208.524 213.991 207.508C214.601 205.477 215.21 203.039 216.835 201.414C218.257 199.992 219.07 197.961 218.867 195.929C218.664 193.898 217.445 192.069 215.616 191.054C215.21 192.069 214.804 193.085 213.585 192.679C212.163 192.273 210.741 192.476 209.319 193.085C208.506 193.491 208.1 194.101 207.491 194.71C207.288 194.913 207.085 195.523 206.678 195.523C206.475 195.523 205.459 195.117 205.459 195.117C204.444 198.164 203.022 201.008 202.006 204.055C200.99 206.696 199.975 209.133 199.365 211.774C198.959 213.399 198.553 214.821 198.959 216.65C199.162 217.868 200.178 219.087 201.397 219.494C205.866 221.322 210.132 217.868 211.96 213.806C212.366 212.587 212.772 211.368 213.179 210.352Z" fill="#404040"/>
<path d="M216.835 190.038C216.429 187.397 215.21 184.553 214.397 182.116C212.163 173.99 209.928 165.661 206.678 157.739C204.647 148.394 203.631 139.049 203.834 129.502C203.834 122.392 204.647 115.079 203.428 107.969C202.006 99.4368 198.146 91.5142 192.661 84.8105C191.646 87.6545 189.208 89.8891 186.567 90.9048C183.926 92.1237 180.676 92.3268 177.832 92.1237C176.004 91.9205 174.175 91.5143 172.347 91.7174C170.519 91.9206 168.894 93.1394 167.675 91.108C166.456 97.2022 165.847 103.703 166.253 109.797C166.456 112.844 166.659 116.094 167.268 119.142C167.675 120.97 168.284 124.22 169.909 125.236C170.519 125.642 171.128 125.845 171.534 126.252C171.941 126.658 172.347 127.267 172.55 127.877C177.832 139.049 182.91 150.019 188.192 161.192C191.036 168.302 200.177 192.273 202.615 197.351C203.631 199.383 205.459 199.992 207.694 199.586C209.522 199.179 211.35 198.57 212.772 197.351C214.397 195.929 216.835 193.492 216.632 191.257C216.835 190.851 216.835 190.444 216.835 190.038Z" fill="#4BA677"/>
<path d="M191.849 103.703C193.677 102.687 195.302 101.671 197.13 100.453C197.943 99.8431 198.755 99.2336 199.365 98.2179C199.974 97.2022 199.771 95.9834 199.365 94.9676C198.959 93.5457 198.349 92.3268 197.537 91.108C197.74 91.9205 197.943 92.53 197.537 93.3425C197.333 93.952 196.927 94.5614 196.521 95.1708C195.911 95.9834 194.693 96.1865 193.88 96.5928C188.801 98.6242 183.317 100.046 177.832 100.656C175.191 100.859 172.753 101.062 170.112 100.453C167.472 99.8431 165.237 98.2179 163.206 96.3897C163.206 96.1865 161.987 95.3739 161.784 95.1708C161.377 94.7645 160.768 94.1551 160.362 93.7488C159.549 92.7331 159.143 91.5143 158.736 90.2954C158.33 92.1237 158.127 93.952 157.924 95.5771C157.721 98.0148 158.33 99.8431 159.955 101.671C161.377 103.297 163.206 104.718 165.237 105.734C170.316 108.172 176.207 108.578 181.692 107.562C185.348 106.547 188.598 105.328 191.849 103.703Z" fill="#262626"/>
<path d="M187.583 34.025C181.895 33.0093 177.832 37.2753 172.347 37.6816C169.909 37.8847 167.268 37.6815 165.034 39.1035C162.19 40.7287 160.971 44.3852 160.159 47.6355C159.346 50.8858 158.533 54.3392 157.721 57.7926C157.315 59.4178 156.908 60.8397 156.502 62.4649C156.096 63.8868 156.502 65.1057 156.705 66.5277C157.315 69.5748 158.127 72.622 158.127 75.8722C158.127 81.3571 158.33 87.0451 158.33 92.5299C158.33 93.1393 158.127 93.9519 158.33 94.5613C158.533 95.1707 159.143 95.7801 159.549 96.1864C160.362 97.2021 161.581 98.0147 162.596 98.8273C165.034 100.249 167.675 101.265 170.519 101.671C178.848 103.093 187.786 101.671 195.302 97.4053C195.911 96.999 196.724 96.5927 197.13 95.9833C197.537 95.3738 197.74 94.7644 197.74 94.155C200.177 83.9979 203.428 74.0439 207.287 64.4963C207.491 63.8868 207.694 63.0743 208.1 62.4649C208.506 62.0586 208.913 61.6523 209.319 61.2461C210.131 60.2303 211.147 59.0115 211.35 57.5895C211.757 53.5266 208.913 49.6669 206.272 46.6198C203.428 43.3695 199.974 40.5255 196.318 38.291C193.677 36.2596 190.833 34.4313 187.583 34.025Z" fill="#D9D9D9"/>
<path d="M173.566 48.8543C173.363 49.0575 173.363 49.0574 173.16 49.2606C173.16 49.4637 173.16 49.8701 173.16 50.0732C173.16 50.6826 173.16 52.7141 173.16 53.1203C173.16 53.5266 173.16 53.7298 173.566 54.136C174.379 54.7455 175.191 54.9486 176.207 54.9486C176.41 54.9486 176.816 54.9486 177.019 54.7454C177.222 54.5423 177.426 54.5423 177.426 54.3391C178.644 52.9171 179.863 51.4952 180.879 50.0732L181.082 49.8701C181.082 49.6669 181.082 49.4637 180.879 49.4637C180.27 48.2449 179.863 47.0261 179.457 45.6041C178.644 46.2135 177.223 46.0103 176.613 45.1978C176.41 44.9946 176.207 44.7915 176.004 44.7915L175.801 44.9947C175.394 45.6041 175.191 46.4166 174.988 46.8229C174.785 47.6355 174.175 48.2449 173.566 48.8543Z" fill="#FFA600"/>
<path d="M173.363 53.3235C168.284 62.4649 162.799 95.3739 162.799 95.3739L164.221 107.359L171.128 99.6399L177.222 54.9487L173.363 53.3235Z" fill="#FFA600"/>
<path d="M175.8 42.3539C175.8 43.3696 175.597 44.3853 176.004 45.1979C176.613 46.4168 178.238 47.0262 179.66 47.0262C180.879 47.2294 182.098 47.0262 183.114 46.8231C184.536 46.4168 185.754 45.6042 186.77 44.7917C189.614 42.5571 191.646 39.5099 192.458 36.0565C192.458 35.8534 192.458 35.8534 192.458 35.6503C192.458 35.4471 192.255 35.4471 192.255 35.244C191.646 34.8377 191.239 34.0251 191.036 33.4157C189.208 30.1654 187.989 26.5088 187.176 22.8523C186.364 24.2743 184.942 25.29 183.52 25.8994C180.879 27.1183 178.035 27.7278 174.988 27.7278C174.582 27.7278 173.972 27.7277 173.566 27.9308C172.55 28.3371 171.941 29.3529 171.738 30.3686C171.331 32.1968 171.941 33.822 172.956 35.4471C173.769 36.666 174.785 37.6817 175.394 39.3068C175.8 40.3225 175.8 41.3382 175.8 42.3539Z" fill="#663C33"/>
<path d="M190.021 37.8847C188.802 40.1193 186.77 41.9475 184.536 43.5727C182.301 44.9946 179.863 46.2135 177.426 47.2292C178.238 49.6669 179.457 51.6983 180.879 53.7297C185.348 51.0889 189.208 47.4323 192.458 43.3695C193.474 42.1506 194.49 40.7287 195.099 39.3067C195.302 38.4941 195.505 37.6815 195.302 37.0721C195.302 36.6658 194.693 36.2595 194.49 36.0564C194.083 35.6501 193.88 35.2439 193.474 34.8376C193.068 34.025 192.661 33.0093 192.052 32.3998C191.849 32.1967 191.443 31.9935 191.239 32.1967C191.036 32.1967 190.63 32.3999 190.63 32.8062C190.63 33.0093 190.833 33.4156 191.036 33.6187C191.646 34.2281 191.443 34.8376 191.239 35.6501C190.833 36.2596 190.427 37.0721 190.021 37.8847Z" fill="#F2F2F2"/>
<path d="M175.191 48.4481C174.379 49.0576 173.363 49.667 172.144 49.8702H171.941V49.667C172.144 48.8544 172.55 48.245 172.957 47.6356C173.566 46.2136 172.957 44.5885 172.753 42.9633C172.55 41.1351 173.16 38.9005 174.582 37.6816C175.191 38.2911 175.801 39.1036 175.801 40.1193C175.801 40.7287 175.801 41.1351 175.801 41.7445C175.801 43.1665 176.41 44.3853 177.223 45.401C177.629 45.8073 177.832 46.2136 178.238 46.823C178.441 47.2293 178.645 47.6356 178.035 47.6356C177.629 47.6356 177.223 47.6356 176.816 47.6356C176.207 47.6356 175.597 48.0419 175.191 48.4481Z" fill="#F2F2F2"/>
<path d="M164.018 12.6951C163.612 14.1171 163.003 15.9454 163.003 17.3674C163.003 18.18 163.409 18.7894 163.612 19.602C163.815 20.6177 163.409 21.6334 162.8 22.6491C162.19 23.4617 161.581 24.2742 160.768 25.0868C160.565 25.2899 160.362 25.6962 160.362 25.8994C160.362 26.3056 160.768 26.7119 161.174 26.9151C161.581 27.1182 161.987 27.1182 162.393 27.5245C163.612 28.134 164.018 29.5559 164.222 30.9779C164.425 32.1968 164.831 33.2125 165.034 34.4313C165.237 35.0408 165.237 35.6502 165.644 36.2596C166.659 37.4785 168.487 37.2753 169.909 37.0722C172.347 36.6659 174.785 35.8533 177.223 35.0407C177.426 35.0407 177.629 34.8377 177.629 34.8377C177.832 34.6345 177.832 34.4313 177.832 34.2282C178.035 33.2125 177.426 31.7905 178.645 31.1811C179.051 30.9779 179.66 30.7748 180.067 30.5717C181.895 30.1654 183.52 29.5559 185.348 28.9465C186.364 28.5402 187.38 28.134 188.192 27.7277C189.411 26.9151 190.224 25.6963 190.833 24.6806C193.677 19.8052 193.677 13.5077 190.833 8.83545C190.021 7.6166 189.005 6.39778 187.786 5.38207C186.567 4.56951 185.145 3.96003 183.926 3.55375C179.457 2.3349 174.582 2.53804 170.722 4.56946C168.284 5.78831 166.253 7.81975 164.831 10.0543C164.628 11.07 164.222 11.8826 164.018 12.6951Z" fill="#874F43"/>
<path d="M167.268 15.7422C167.268 15.9453 167.268 16.1485 167.268 16.3517C167.065 17.9768 168.081 19.3988 169.3 20.2113C169.503 20.4145 169.706 20.6176 169.909 20.8207C169.909 21.0239 170.112 21.2271 170.112 21.4302C170.316 22.4459 170.925 23.2585 171.738 23.6648C172.347 24.0711 173.16 24.2742 173.972 24.6805C174.785 25.0868 174.988 25.493 175.394 26.3056C175.8 25.2899 176.004 24.2742 176.816 23.6648C178.644 22.0396 182.301 23.2585 183.52 25.2899C183.926 25.8993 184.129 26.7119 183.926 27.3213C183.723 28.337 182.91 28.9464 182.504 29.9621C182.504 30.1653 182.301 30.3684 182.504 30.3684C182.504 30.5716 182.707 30.7747 182.91 30.7747C184.129 31.9936 186.364 31.7904 187.583 30.5716C189.005 31.181 190.833 30.9778 192.052 30.1653C193.271 29.3527 194.286 27.9307 194.693 26.3056C194.693 26.1025 194.896 25.8993 194.896 25.6962C194.896 25.4931 195.099 25.493 195.302 25.2899C195.708 24.8836 195.911 24.4773 196.115 24.071C196.318 23.6647 196.318 23.0554 195.911 22.6491C195.505 22.0396 195.099 21.6333 195.708 20.8207C195.911 20.4145 196.318 20.2113 196.521 20.0082C197.13 19.3988 197.13 18.1799 196.724 17.3674C197.74 15.3359 197.333 12.6951 195.708 11.07C195.505 10.0542 195.505 8.83538 194.896 7.81967C194.286 6.80396 193.271 5.99142 192.255 6.19456C191.645 5.38199 191.239 4.5694 190.63 3.75683C190.02 2.94426 189.005 2.53799 187.989 2.94428C187.176 1.72542 185.754 1.11601 184.332 1.11601C183.926 1.11601 183.52 1.11601 183.114 1.11601C182.707 1.11601 182.301 0.912856 181.895 0.912856C180.676 0.506572 179.254 0.506597 178.441 1.31916C177.629 1.11602 176.816 0.912856 176.004 0.912856C175.191 1.116 174.378 1.52231 174.175 2.33487C173.16 1.92859 172.144 2.1317 171.331 2.74112C170.519 3.35055 169.909 4.16314 169.706 5.17885C169.706 4.56942 167.268 5.17886 167.065 5.382C166.253 5.99143 165.44 7.61651 165.44 8.63222C165.44 9.03851 165.44 9.4448 165.846 9.85109L166.05 10.0542V10.2574C165.846 11.4762 165.643 12.4919 166.253 13.7108C166.659 14.5233 167.065 15.3359 167.675 15.9453C167.065 15.3359 167.268 15.5391 167.268 15.7422Z" fill="#424242"/>
<path d="M193.677 33.4156C193.271 34.025 193.068 34.6344 193.068 35.2438C193.068 35.8533 192.864 36.2596 193.068 36.869C193.474 37.8847 194.49 38.291 195.505 38.6973C195.099 39.1036 195.505 39.9161 195.912 40.3224C196.927 41.135 198.146 41.7444 199.568 41.5413C200.787 41.5413 202.209 40.7287 202.412 39.5098C203.225 39.9161 204.444 39.3067 205.053 38.6973C205.662 37.8847 205.866 36.869 206.069 36.0564C206.069 35.8533 206.272 35.447 206.069 35.2438C206.069 35.0407 205.866 34.6344 205.459 34.6344C206.272 33.2124 206.475 31.3841 206.069 29.9621C205.662 28.337 204.24 27.1182 202.615 26.7119C202.818 25.4931 202.006 24.2742 201.193 23.2585C200.584 22.6491 199.974 22.0396 199.365 21.8365C198.552 21.6333 198.146 22.0396 197.334 22.0396C196.724 22.0396 196.318 21.8365 195.708 21.6334C194.693 21.4302 193.474 21.6333 193.474 23.0553C193.474 23.6648 193.88 24.2742 194.286 24.8836C194.49 25.2899 195.099 25.8993 195.099 26.3056C195.099 26.915 194.49 27.5244 194.083 27.9307C193.677 28.5401 193.474 28.9465 193.271 29.5559C193.068 30.1653 193.271 30.7747 193.677 31.181C194.083 31.5873 194.49 31.5873 194.896 31.9936C194.49 32.1967 194.083 32.8062 193.677 33.4156Z" fill="#262626"/>
<path d="M196.318 18.1799C196.521 18.1799 196.927 18.1799 197.13 18.3831C197.334 18.5862 197.334 18.5862 197.537 18.7893C197.74 18.9925 198.146 19.1957 198.349 19.3988C198.959 20.0082 199.365 21.227 198.959 21.8365C198.756 22.649 197.943 23.0553 197.74 23.8679C197.74 24.4773 197.943 25.0868 197.943 25.6962C197.943 26.3056 197.537 26.915 197.13 27.5245C196.927 27.7276 196.724 28.1339 196.521 28.337C196.115 28.7433 195.708 28.5402 195.302 28.7433C194.896 28.7433 194.49 29.1496 194.083 29.3527C193.474 29.759 192.661 30.3684 191.849 30.1653C191.646 30.1653 191.239 29.9622 191.239 29.759C191.036 29.5559 191.036 29.1496 191.036 28.9464C191.036 27.7276 191.036 26.3056 191.849 25.2899C192.661 24.4773 193.068 23.2585 193.068 22.0396C193.068 21.227 193.068 20.2114 193.677 19.6019C194.286 18.7894 195.302 18.1799 196.318 18.1799Z" fill="#4BA677"/>
<path d="M176.004 68.7622C176.004 69.1685 173.769 84.201 173.769 84.201L180.27 88.8733L187.786 85.0136L189.614 72.0125L175.8 68.5591L176.004 68.7622Z" fill="#F2F2F2"/>
<path d="M123.187 25.493C122.577 25.2899 121.968 25.0867 121.359 24.8835C120.749 24.8835 120.343 25.2899 119.937 25.2899C119.733 25.2899 119.327 25.2899 119.124 25.2899C118.921 25.2899 118.515 25.2899 118.311 25.493C117.905 25.6961 117.905 26.1024 118.108 26.5087C118.311 26.915 118.718 27.1181 119.124 27.3213C119.733 27.5244 120.546 27.7276 121.359 27.7276C121.765 27.7276 122.171 27.9307 122.577 28.1338C122.984 28.337 123.187 28.5401 123.593 28.9464C124.203 29.5558 124.812 30.1652 125.421 30.9778C125.625 31.3841 125.828 31.7904 126.031 32.1967C126.234 32.3998 126.234 32.603 126.437 32.603C126.64 32.8061 126.843 32.8061 127.047 32.603C127.25 32.603 127.25 32.3998 127.453 32.1967C128.062 31.5872 128.265 30.7747 128.265 29.9621C128.265 29.1495 128.062 28.337 127.453 27.7276C126.234 26.7119 124.812 26.1024 123.187 25.493Z" fill="#874F43"/>
<path d="M120.546 31.3842C120.14 31.1811 119.53 30.9779 119.124 30.7748C118.718 30.5717 118.515 30.3685 118.108 29.9622C117.905 29.759 117.702 29.3528 117.296 29.3528C116.889 29.3528 116.686 29.5559 116.483 29.7591C116.28 29.9622 116.28 30.3685 116.28 30.7748C116.28 31.5874 116.483 32.1968 116.889 32.8062C116.889 32.8062 116.889 32.8062 116.889 33.0093V33.2125C116.686 33.6188 116.889 34.2282 117.093 34.6345C117.296 35.0408 117.499 35.4471 117.905 35.6502C117.905 35.6502 117.905 35.6502 117.905 35.8533C117.702 36.4628 117.905 37.0722 118.311 37.2753C118.515 37.4784 118.718 37.6816 119.124 37.6816C120.343 38.0879 121.765 38.0879 122.984 37.6816C123.187 37.6816 123.39 37.4784 123.593 37.2753C123.796 37.0722 123.593 36.6659 123.39 36.6659C123.187 36.4628 122.984 36.2596 122.781 36.2596C123.187 36.0565 123.39 35.447 122.984 35.0407C122.781 34.4313 121.968 34.4313 121.562 34.025C121.562 33.8219 121.968 33.8219 121.968 33.6188C122.171 33.4156 121.968 33.2125 121.765 33.0093C121.562 32.1967 121.155 31.7905 120.546 31.3842Z" fill="#874F43"/>
<path d="M215.007 83.7947C213.991 85.2167 212.976 87.045 211.147 87.2481C210.538 87.4513 209.725 87.2481 209.116 87.2481C207.694 87.045 206.069 86.8418 204.647 86.4356C204.24 86.4356 203.834 86.4356 203.631 86.4356L202.818 85.8261C202.412 89.8889 203.834 93.9518 204.85 98.0146C205.053 99.0303 205.053 99.8429 204.85 100.859C204.647 103.499 204.85 105.937 204.647 108.578C204.647 111.828 204.647 115.282 204.24 118.532C203.834 122.595 203.225 126.455 202.412 130.314C202.412 130.517 202.412 130.517 202.412 130.72C202.209 131.127 202.209 131.736 201.803 131.939C201.193 132.752 200.381 133.564 199.771 134.377C199.568 134.58 199.365 134.986 199.162 135.19C198.959 135.596 198.959 136.002 198.756 136.205C198.349 137.627 197.943 139.049 197.74 140.471C197.537 141.487 197.13 142.706 196.724 143.722C196.521 144.534 196.115 145.347 195.912 146.159C195.708 146.769 195.708 147.378 195.708 147.784C195.708 148.191 195.708 148.597 196.115 148.8C197.334 148.394 197.943 147.175 198.349 145.956C198.959 144.331 199.568 142.909 200.178 141.284C200.787 144.128 199.568 147.175 197.334 149.003C196.724 149.41 195.912 150.019 195.912 150.832V151.035C195.912 151.238 196.115 151.238 196.318 151.238C197.537 151.441 198.756 150.628 199.974 150.222C200.178 150.222 200.178 150.019 200.381 150.019C200.584 150.019 200.584 150.019 200.787 150.222C201.803 150.628 203.022 150.019 203.834 149.41C204.85 148.8 205.662 148.191 206.475 147.175C207.288 146.159 207.897 144.94 208.506 143.722C208.913 142.706 209.319 141.893 209.319 140.878C209.522 138.846 209.319 137.018 209.928 134.986C212.163 128.486 213.585 121.985 214.601 115.282C215.007 112.438 215.413 109.594 215.413 106.75C215.413 103.906 215.21 101.265 215.413 98.6241C216.226 93.7487 216.632 88.4669 215.007 83.7947Z" fill="#874F43"/>
<path d="M200.381 63.887C199.974 66.731 199.974 69.7781 199.974 72.6221C200.178 76.2786 200.584 79.9352 200.99 83.3886C201.193 85.2169 201.6 87.0451 201.803 88.8734C202.006 89.686 202.006 90.2955 202.615 90.7018C203.428 91.108 204.444 91.5143 205.256 91.7175C209.116 92.53 212.975 92.1237 216.429 89.8891C216.632 89.686 216.835 89.686 217.038 89.2797C217.241 89.0766 217.241 88.8735 217.241 88.6703C217.648 82.3729 217.241 75.4661 216.429 68.9655C215.616 63.2776 213.991 57.5896 210.944 52.511C209.928 50.8859 208.913 49.6671 206.881 50.0734C205.865 50.2765 204.85 50.8859 204.037 51.6985C201.803 54.9488 200.99 60.0273 200.381 63.887Z" fill="#F2F2F2"/>
<path d="M175.191 108.984C175.191 109.187 175.394 109.391 175.597 109.391H175.8C176.207 109.187 176.816 109.187 177.222 108.984C177.222 108.984 176.41 105.734 176.41 105.328C176.41 104.718 176.207 104.109 176.207 103.499C176.207 103.093 176.207 102.89 176.207 102.484C176.207 102.281 176.207 102.077 176.207 102.077C176.207 101.874 176.41 101.874 176.207 101.671C175.8 101.468 175.191 101.468 174.582 101.468C174.175 101.468 173.972 101.671 173.972 102.077C173.972 102.687 173.972 103.296 173.972 103.906C173.972 104.718 174.175 105.734 174.378 106.547C174.582 107.359 174.785 108.172 175.191 108.984Z" fill="#4BA677"/>
<path d="M160.362 96.1863C159.752 95.9832 159.752 96.5926 159.549 96.9989C159.346 97.8115 159.143 98.6241 158.94 99.4366C158.737 100.452 158.737 101.265 158.533 102.281C158.533 102.484 158.533 102.687 158.533 102.89C158.533 103.296 158.737 103.499 159.143 103.703C159.346 103.906 159.752 103.906 160.159 104.109C160.159 103.093 160.159 101.874 160.362 100.859C160.565 99.8429 160.768 99.0303 161.377 98.2178C161.581 98.0146 161.581 98.0146 161.784 98.0146C161.784 97.8115 161.784 97.8115 161.581 97.6084C161.377 96.9989 160.971 96.3895 160.362 96.1863Z" fill="#338259"/>
</svg>
