<svg width="190" height="221" viewBox="0 0 190 221" fill="none" xmlns="http://www.w3.org/2000/svg">
<path d="M86.4 8.69995C88.5 9.99995 89.8 12.5 90.2 15C90.5 17.5 89.9 20.1 88.9 22.4C88 24.6 86.6 26.6 86.2 28.9C85.7 31.8 86.6 34.6999 87.8 37.2999C89 39.9 90.6 42.4 91.5 45.2C92.4 48 92.6 51.0999 91 53.5999C89.6 55.7999 87 57.2999 86.2 59.7999C85.6 61.7 86.2 63.6999 86.4 65.5999C86.6 67.5 86 69.9 84.1 70.5C85.2 69.2999 84.3 67.2 82.9 66.3C81.5 65.4 79.8 65.0999 78.4 64.1999C76.5 62.8999 75.7 60.6 74.9 58.4C75.7 62 74.1 66.0999 71 68.1999C68.5 69.8999 65.4 70.3999 62.4 70.6999C64 69.4999 65.8 67.9 65.4 66C65 64 62.7 63.1999 60.8 62.5999C57.5 61.5 54.2 60.0999 51.5 57.7999C48.9 55.5 46.9 52.2999 46.7 48.7999C46.4 44.7999 48.4 41 50.5 37.5999L86.4 8.69995Z" fill="black"/>
<path d="M87 8.59994C83.4 3.69994 77.3 1.29994 71.2 0.499942C69.5 0.299942 67.8 0.0999418 66.1 0.599942C63.6 1.29994 61.6 0.999942 60 3.19994C58.7 4.99994 57.5 6.99994 55.6 8.19994C52.6 10.0999 48.8 9.59994 45.3 10.0999C41 10.7999 37 15.4999 34.6 18.9999C32.2 22.4999 31.3 27.0999 32.5 31.2999C33.1 33.2999 34 35.0999 34.6 37.0999C35.2 39.0999 35.4 41.2999 34.3 43.0999C32.7 45.8999 29.1 46.4999 25.9 46.7999C28.3 47.7999 30.9 48.3999 33.5 48.0999C36.1 47.7999 38.7 46.5999 40.3 44.5999C42.1 42.3999 42.7 39.3999 43.5 36.5999C44.3 33.7999 45.6 30.8999 48.2 29.6999C48.6 29.4999 48.9 29.3999 49.3 29.3999C49.8 29.4999 50.3 29.7999 50.6 30.1999C51.7 31.2999 52.5 32.5999 53.5 33.6999C54.5 34.7999 55.9 35.7999 57.5 35.7999C59 35.7999 60.4 34.8999 61.4 33.8999C62.4 32.8999 63.3 31.5999 64.4 30.4999C65.6 29.2999 67 28.3999 68.6 27.8999C70.2 27.2999 72 27.1999 73.7 26.6999C78.7 25.1999 82.6 20.3999 83 15.0999C83.1 14.0999 83.1 12.8999 83.8 12.1999C84.3 11.6999 85 11.4999 85.7 11.2999C86.4 11.0999 87.1 10.7999 87.4 10.1999C87.8 9.59994 87.5 8.59994 86.8 8.49994L87 8.59994Z" fill="black"/>
<path d="M39.2 191.3C39.6 193.4 39.9 195.6 40.3 197.7C40.7 200.2 41.1 202.8 42.3 205.1C43.6 207.7 45.8 209.8 48.1 211.5C51.1 213.8 54.5 215.6 58.1 216.9C56.8 218.3 54.8 218.5 52.9 218.5C46.4 218.7 39.9 218.1 33.6 216.8C33 216.7 32.5 216.6 32 216.2C31.2 215.6 31 214.5 30.9 213.5C30.1 205.4 29.3 197.3 28.6 189.2C31.6 189.5 34.5 189.6 37.5 189.6L39.2 191.3Z" fill="black"/>
<path d="M19.3 189.2C18.5 191.2 17.7 193.2 16.9 195.2C15.9 197.6 15 200 14.8 202.5C14.6 205.4 15.4 208.3 16.5 211C17.9 214.5 19.9 217.8 22.3 220.8C20.5 221.3 18.6 220.4 17 219.5C11.2 216.3 6 212.4 1.2 208C0.800004 207.6 0.400004 207.2 0.200004 206.7C-0.199996 205.8 0.300004 204.7 0.700004 203.8C4.2 196.4 7.7 189.1 11.3 181.8C13.7 183.6 16.1 185.2 18.7 186.7L19.3 189.2Z" fill="black"/>
<path d="M36.4 89.7C39.4 97.6 46 118.7 46.9 127.1C47.2 129.8 47.4 132.6 47.3 135.3C46.9 143 43.8 150.3 40.7 157.3C35.4 169.6 30 182 22.5 193.2C22 193.9 21.5 194.6 20.7 195C20 195.3 19.2 195.2 18.5 195.1C14.7 194.4 11.3 192.3 8.90001 189.3C8.50001 188.8 8.20001 188.3 8.10001 187.7C8.10001 187.1 8.30001 186.6 8.60001 186.1C14.4 174.3 20.2 162.5 26 150.7C26.3 150.1 26.6 149.4 26.6 148.8C26.6 148.1 26.2 147.5 25.9 146.9C22.4 141.1 19 135.3 15.8 129.4C14 126.2 12.3 123.1 11 119.7C8.80001 114 8.00001 107.9 7.30001 101.8C6.40001 93.2 5.90001 83.7 11.1 76.7C17.8 82.5 25.2 87.5 33 91.7L36.4 89.7Z" fill="#4D3E25"/>
<path d="M37.3 85.5C38.4 90 35.9 90.5 36.3 95.8C37.1 105.9 40.2 121.1 41 127.7C43.1 146.3 38.1 165.4 41.2 183.9C41.6 186.5 42.1 189.5 40.4 191.5C39.3 192.7 37.6 193.2 36 193.4C33.8 193.7 31.6 193.5 29.5 193C28.7 192.8 28 192.5 27.5 191.9C27.1 191.4 27 190.7 26.9 190C24.3 174.8 21.7 159.4 22.7 144C22.8 143.1 22.8 142.3 22.5 141.5C22.2 140.7 21.5 140 20.9 139.4C11.9 130.5 5.10001 119.2 1.50001 107C0.400007 103.4 -0.299993 99.6 0.200007 95.9C0.600007 93.2 1.60001 90.7 2.70001 88.3C4.60001 83.8 7.60001 72.4 9.50001 68C19 74 27.8 79.5 37.3 85.5Z" fill="#847452"/>
<path d="M76.7 41.8C80.2 43.9 83.8 46 87.3 48.1C88.4 48.7 89.4 49.4 90.7 49.6C91.8 49.9 93 49.8 94.2 49.7C99.3 49.5 104.4 50.4 109.1 52.2C111.4 53.1 113.7 54.3 116 55.1C119.3 56.3 122.8 57 126.4 57C128.2 57 137 53.3 139.1 55.2C139.4 55.5 132.9 63.1 130.9 62C130.4 64.2 128 65.8 125.7 65.4C123.8 65 122.3 63.4 120.4 62.9C119.5 62.7 118.5 62.7 117.6 62.7C109.1 63 100.2 63.4 92.5 59.7C91.8 59.3 91 59 90.3 58.7C89.5 58.5 88.6 58.4 87.8 58.3C80.8 57.4 74.4 54.1 68.2 50.8C70.5 47.2 73.5 44.1 77 41.6L76.7 41.8Z" fill="#FED5B7"/>
<path d="M60.3 33.3C67 35.6 73.5 38.6 79.7 42.1C76.3 44.8 72.5 51.6 70.3 55.3C69.7 56.3 65.6 53.5 63.9 53.4C61.3 53.4 59.6 56.1 59.1 58.7C58.6 61.2 58.7 64 57.2 66.1C55.4 68.8 51.8 69.5 49.3 71.5C47.3 73.1 46 75.3 44.8 77.5C42.8 81.1 40.7 84.7 38.7 88.3C34.9 86.7 30.6 86.8 26.6 85.6C19.3 83.4 13.9 77.4 8.9 71.6C8.4 71 7.8 70.3 7.8 69.5C7.8 68.9 8.1 68.3 8.3 67.7C10 64.1 10.8 60.2 12.1 56.4C16.8 42.8 28.4 31.7 42.3 27.7C44 27.2 45.7 26.8 47.5 27.1C49.2 27.3 50.8 28.1 52.3 28.9C54.5 30 56.7 31.1 58.9 32.3L60.3 33.3Z" fill="#C23F37"/>
<mask id="mask0_209_166" style="mask-type:luminance" maskUnits="userSpaceOnUse" x="7" y="26" width="73" height="63">
<path d="M60.3 33.3C67 35.6 73.5 38.6 79.7 42.1C76.3 44.8 72.5 51.6 70.3 55.3C69.7 56.3 65.6 53.5 63.9 53.4C61.3 53.4 59.6 56.1 59.1 58.7C58.6 61.2 58.7 64 57.2 66.1C55.4 68.8 51.8 69.5 49.3 71.5C47.3 73.1 46 75.3 44.8 77.5C42.8 81.1 40.7 84.7 38.7 88.3C34.9 86.7 30.6 86.8 26.6 85.6C19.3 83.4 13.9 77.4 8.9 71.6C8.4 71 7.8 70.3 7.8 69.5C7.8 68.9 8.1 68.3 8.3 67.7C10 64.1 10.8 60.2 12.1 56.4C16.8 42.8 28.4 31.7 42.3 27.7C44 27.2 45.7 26.8 47.5 27.1C49.2 27.3 50.8 28.1 52.3 28.9C54.5 30 56.7 31.1 58.9 32.3L60.3 33.3Z" fill="white"/>
</mask>
<g mask="url(#mask0_209_166)">
<path d="M38.6 24.0001L39.8 26.9001C40 27.5001 40.1 28.1001 40 28.6001L39.4 31.7001C39 34.1001 41.4 36.1001 43.6 35.2001L46.5 34.0001C47.1 33.8001 47.7 33.7001 48.2 33.8001L51.3 34.4001C53.7 34.8001 55.7 32.4001 54.8 30.2001L53.6 27.3001C53.4 26.7001 53.3 26.1001 53.4 25.6001L54 22.5001C54.4 20.1001 52 18.1001 49.8 19.0001L46.9 20.2001C46.3 20.4001 45.7 20.5001 45.2 20.4001L42 19.7001C39.6 19.3001 37.7 21.7001 38.6 24.0001Z" fill="#EA7D7A"/>
<path d="M46.7 29.7001C48.1912 29.7001 49.4 28.4912 49.4 27C49.4 25.5089 48.1912 24.3 46.7 24.3C45.2088 24.3 44 25.5089 44 27C44 28.4912 45.2088 29.7001 46.7 29.7001Z" fill="white"/>
</g>
<mask id="mask1_209_166" style="mask-type:luminance" maskUnits="userSpaceOnUse" x="7" y="26" width="73" height="63">
<path d="M60.3 33.3C67 35.6 73.5 38.6 79.7 42.1C76.3 44.8 72.5 51.6 70.3 55.3C69.7 56.3 65.6 53.5 63.9 53.4C61.3 53.4 59.6 56.1 59.1 58.7C58.6 61.2 58.7 64 57.2 66.1C55.4 68.8 51.8 69.5 49.3 71.5C47.3 73.1 46 75.3 44.8 77.5C42.8 81.1 40.7 84.7 38.7 88.3C34.9 86.7 30.6 86.8 26.6 85.6C19.3 83.4 13.9 77.4 8.9 71.6C8.4 71 7.8 70.3 7.8 69.5C7.8 68.9 8.1 68.3 8.3 67.7C10 64.1 10.8 60.2 12.1 56.4C16.8 42.8 28.4 31.7 42.3 27.7C44 27.2 45.7 26.8 47.5 27.1C49.2 27.3 50.8 28.1 52.3 28.9C54.5 30 56.7 31.1 58.9 32.3L60.3 33.3Z" fill="white"/>
</mask>
<g mask="url(#mask1_209_166)">
<path d="M10.1 36.1001L11.3 39.0001C11.5 39.6001 11.6 40.2001 11.5 40.7001L10.9 43.8001C10.5 46.2001 12.9 48.2001 15.1 47.3001L18 46.0001C18.6 45.8001 19.2 45.7001 19.7 45.8001L22.8 46.4001C25.2 46.8001 27.2 44.4001 26.3 42.2001L25.1 39.3001C24.9 38.7001 24.8 38.1001 24.9 37.6001L25.5 34.5001C25.9 32.1001 23.5 30.1001 21.3 31.0001L18.4 32.2001C17.8 32.4001 17.2 32.5001 16.7 32.4001L13.6 31.8001C11.1 31.4001 9.2 33.8001 10.1 36.1001Z" fill="#EA7D7A"/>
<path d="M18.2 41.8C19.6912 41.8 20.9 40.5912 20.9 39.1C20.9 37.6089 19.6912 36.4 18.2 36.4C16.7088 36.4 15.5 37.6089 15.5 39.1C15.5 40.5912 16.7088 41.8 18.2 41.8Z" fill="white"/>
</g>
<mask id="mask2_209_166" style="mask-type:luminance" maskUnits="userSpaceOnUse" x="7" y="26" width="73" height="63">
<path d="M60.3 33.3C67 35.6 73.5 38.6 79.7 42.1C76.3 44.8 72.5 51.6 70.3 55.3C69.7 56.3 65.6 53.5 63.9 53.4C61.3 53.4 59.6 56.1 59.1 58.7C58.6 61.2 58.7 64 57.2 66.1C55.4 68.8 51.8 69.5 49.3 71.5C47.3 73.1 46 75.3 44.8 77.5C42.8 81.1 40.7 84.7 38.7 88.3C34.9 86.7 30.6 86.8 26.6 85.6C19.3 83.4 13.9 77.4 8.9 71.6C8.4 71 7.8 70.3 7.8 69.5C7.8 68.9 8.1 68.3 8.3 67.7C10 64.1 10.8 60.2 12.1 56.4C16.8 42.8 28.4 31.7 42.3 27.7C44 27.2 45.7 26.8 47.5 27.1C49.2 27.3 50.8 28.1 52.3 28.9C54.5 30 56.7 31.1 58.9 32.3L60.3 33.3Z" fill="white"/>
</mask>
<g mask="url(#mask2_209_166)">
<path d="M27.1 55.8L28.3 58.7C28.5 59.3 28.6 59.9 28.5 60.4L27.9 63.5C27.5 65.9 29.9 67.9 32.1 67L35 65.8C35.6 65.6 36.2 65.5 36.7 65.6L39.8 66.2C42.2 66.6 44.2 64.2 43.3 62L42.1 59C41.9 58.4 41.8 57.8 41.9 57.3L42.5 54.2C42.9 51.8 40.5 49.8 38.3 50.7L35.4 51.9C34.8 52.1 34.2 52.2 33.7 52.1L30.6 51.5C28.1 51.1 26.1 53.5 27.1 55.8Z" fill="#EA7D7A"/>
</g>
<mask id="mask3_209_166" style="mask-type:luminance" maskUnits="userSpaceOnUse" x="7" y="26" width="73" height="63">
<path d="M60.3 33.3C67 35.6 73.5 38.6 79.7 42.1C76.3 44.8 72.5 51.6 70.3 55.3C69.7 56.3 65.6 53.5 63.9 53.4C61.3 53.4 59.6 56.1 59.1 58.7C58.6 61.2 58.7 64 57.2 66.1C55.4 68.8 51.8 69.5 49.3 71.5C47.3 73.1 46 75.3 44.8 77.5C42.8 81.1 40.7 84.7 38.7 88.3C34.9 86.7 30.6 86.8 26.6 85.6C19.3 83.4 13.9 77.4 8.9 71.6C8.4 71 7.8 70.3 7.8 69.5C7.8 68.9 8.1 68.3 8.3 67.7C10 64.1 10.8 60.2 12.1 56.4C16.8 42.8 28.4 31.7 42.3 27.7C44 27.2 45.7 26.8 47.5 27.1C49.2 27.3 50.8 28.1 52.3 28.9C54.5 30 56.7 31.1 58.9 32.3L60.3 33.3Z" fill="white"/>
</mask>
<g mask="url(#mask3_209_166)">
<path d="M62.4 31.6L63.6 34.5C63.8 35.1 63.9 35.7 63.8 36.2L63.2 39.3C62.8 41.7 65.2 43.7 67.4 42.8L70.3 41.6C70.9 41.4 71.5 41.3 72 41.4L75.1 42C77.5 42.4 79.5 40 78.6 37.8L77.4 34.9C77.2 34.3 77.1 33.7 77.2 33.2L77.8 30.1C78.2 27.7 75.8 25.7 73.6 26.6L70.7 27.8C70.1 28 69.5 28.1 69 28L65.9 27.4C63.4 26.9 61.4 29.3 62.4 31.6Z" fill="#EA7D7A"/>
<path d="M70.4 37.3C71.8912 37.3 73.1 36.0912 73.1 34.6C73.1 33.1089 71.8912 31.9 70.4 31.9C68.9088 31.9 67.7 33.1089 67.7 34.6C67.7 36.0912 68.9088 37.3 70.4 37.3Z" fill="white"/>
</g>
<mask id="mask4_209_166" style="mask-type:luminance" maskUnits="userSpaceOnUse" x="7" y="26" width="73" height="63">
<path d="M60.3 33.3C67 35.6 73.5 38.6 79.7 42.1C76.3 44.8 72.5 51.6 70.3 55.3C69.7 56.3 65.6 53.5 63.9 53.4C61.3 53.4 59.6 56.1 59.1 58.7C58.6 61.2 58.7 64 57.2 66.1C55.4 68.8 51.8 69.5 49.3 71.5C47.3 73.1 46 75.3 44.8 77.5C42.8 81.1 40.7 84.7 38.7 88.3C34.9 86.7 30.6 86.8 26.6 85.6C19.3 83.4 13.9 77.4 8.9 71.6C8.4 71 7.8 70.3 7.8 69.5C7.8 68.9 8.1 68.3 8.3 67.7C10 64.1 10.8 60.2 12.1 56.4C16.8 42.8 28.4 31.7 42.3 27.7C44 27.2 45.7 26.8 47.5 27.1C49.2 27.3 50.8 28.1 52.3 28.9C54.5 30 56.7 31.1 58.9 32.3L60.3 33.3Z" fill="white"/>
</mask>
<g mask="url(#mask4_209_166)">
<path d="M8.7 75.5001L9.9 78.4001C10.1 79.0001 10.2 79.6001 10.1 80.1001L9.5 83.2001C9.1 85.6001 11.5 87.6001 13.7 86.7001L16.6 85.5001C17.2 85.3001 17.8 85.2001 18.3 85.3001L21.4 85.9001C23.8 86.3001 25.8 83.9001 24.9 81.7001L23.7 78.8001C23.5 78.2001 23.4 77.6001 23.5 77.1001L24.1 74.0001C24.5 71.6001 22.1 69.6001 19.9 70.5001L17 71.7001C16.4 71.9001 15.8 72.0001 15.3 71.9001L12.2 71.3001C9.8 70.8001 7.8 73.2001 8.7 75.5001Z" fill="#EA7D7A"/>
<path d="M16.8 81.3C18.2912 81.3 19.5 80.0912 19.5 78.6C19.5 77.1089 18.2912 75.9 16.8 75.9C15.3088 75.9 14.1 77.1089 14.1 78.6C14.1 80.0912 15.3088 81.3 16.8 81.3Z" fill="white"/>
</g>
<mask id="mask5_209_166" style="mask-type:luminance" maskUnits="userSpaceOnUse" x="7" y="26" width="73" height="63">
<path d="M60.3 33.3C67 35.6 73.5 38.6 79.7 42.1C76.3 44.8 72.5 51.6 70.3 55.3C69.7 56.3 65.6 53.5 63.9 53.4C61.3 53.4 59.6 56.1 59.1 58.7C58.6 61.2 58.7 64 57.2 66.1C55.4 68.8 51.8 69.5 49.3 71.5C47.3 73.1 46 75.3 44.8 77.5C42.8 81.1 40.7 84.7 38.7 88.3C34.9 86.7 30.6 86.8 26.6 85.6C19.3 83.4 13.9 77.4 8.9 71.6C8.4 71 7.8 70.3 7.8 69.5C7.8 68.9 8.1 68.3 8.3 67.7C10 64.1 10.8 60.2 12.1 56.4C16.8 42.8 28.4 31.7 42.3 27.7C44 27.2 45.7 26.8 47.5 27.1C49.2 27.3 50.8 28.1 52.3 28.9C54.5 30 56.7 31.1 58.9 32.3L60.3 33.3Z" fill="white"/>
</mask>
<g mask="url(#mask5_209_166)">
<path d="M35.3 80.7L36.5 83.6C36.7 84.2 36.8 84.8 36.7 85.3L36.1 88.4C35.7 90.8 38.1 92.8 40.3 91.9L43.2 90.7C43.8 90.5 44.4 90.4 44.9 90.5L48 91.1C50.4 91.5 52.4 89.1 51.5 86.9L50.3 84C50.1 83.4 50 82.8 50.1 82.3L50.7 79.2C51.1 76.8 48.7 74.8 46.5 75.7L43.6 76.9C43 77.1 42.4 77.2 41.9 77.1L38.8 76.5C36.3 76 34.3 78.4 35.3 80.7Z" fill="#EA7D7A"/>
<path d="M41.7 85.8C42.8 86.7 44.5 86.6 45.4 85.4C46.3 84.3 46.2 82.6 45 81.7C43.9 80.8 40.5 84.9 41.7 85.8Z" fill="white"/>
</g>
<mask id="mask6_209_166" style="mask-type:luminance" maskUnits="userSpaceOnUse" x="7" y="26" width="73" height="63">
<path d="M60.3 33.3C67 35.6 73.5 38.6 79.7 42.1C76.3 44.8 72.5 51.6 70.3 55.3C69.7 56.3 65.6 53.5 63.9 53.4C61.3 53.4 59.6 56.1 59.1 58.7C58.6 61.2 58.7 64 57.2 66.1C55.4 68.8 51.8 69.5 49.3 71.5C47.3 73.1 46 75.3 44.8 77.5C42.8 81.1 40.7 84.7 38.7 88.3C34.9 86.7 30.6 86.8 26.6 85.6C19.3 83.4 13.9 77.4 8.9 71.6C8.4 71 7.8 70.3 7.8 69.5C7.8 68.9 8.1 68.3 8.3 67.7C10 64.1 10.8 60.2 12.1 56.4C16.8 42.8 28.4 31.7 42.3 27.7C44 27.2 45.7 26.8 47.5 27.1C49.2 27.3 50.8 28.1 52.3 28.9C54.5 30 56.7 31.1 58.9 32.3L60.3 33.3Z" fill="white"/>
</mask>
<g mask="url(#mask6_209_166)">
<path d="M54.6 60.5001L55.8 63.4001C56 64.0001 56.1 64.6001 56 65.1001L55.4 68.2001C55 70.6001 57.4 72.6001 59.6 71.7001L62.5 70.5001C63.1 70.3001 63.7 70.2001 64.2 70.3001L67.3 70.9001C69.7 71.3001 71.7 68.9001 70.8 66.7001L69.6 63.8001C69.4 63.2001 69.3 62.6001 69.4 62.1001L70 59.0001C70.4 56.6001 68 54.6001 65.8 55.5001L62.9 56.7001C62.3 56.9001 61.7 57.0001 61.2 56.9001L58 56.3001C55.6 55.8001 53.7 58.3001 54.6 60.5001Z" fill="#EA7D7A"/>
<path d="M62.7 66.3C64.1912 66.3 65.4 65.0912 65.4 63.6C65.4 62.1089 64.1912 60.9 62.7 60.9C61.2088 60.9 60 62.1089 60 63.6C60 65.0912 61.2088 66.3 62.7 66.3Z" fill="white"/>
</g>
<path d="M129.5 63.2C134.3 59.7 139.1 56.2 143.7 52.5C145.2 51.3 146.7 50.1 147.6 48.4C148.3 47.1 148.5 45.6 148.8 44.1C149.1 41.9 149.5 39.7 149.8 37.5C150.7 37.4 151.6 37.5 152.4 37.7C152.1 41.3 151.8 44.9 151.5 48.5C154.7 46.3 161.4 42.6 161.4 42.6L163 45.7C163 45.7 130.7 63.9 121.1 74C120 73 119.9 72.2 118.8 71.2L129.5 63.2Z" fill="#A85B35"/>
<path d="M139.7 60.1C140.6 61.1 140.6 62.7 139.7 63.6C138.6 64.7 137.5 65.8 136.2 66.4C135.5 66.7 134.7 66.8 134 67.1C133 67.5 132.1 68.3 131.1 68.7C129.7 69.1 128 68.5 127 67.2C126.7 66.8 126.4 66.2 126.6 65.5C126.8 65 127.2 64.7 127.6 64.7C128.5 64.6 129.3 65.2 130 65.9C129.4 65.5 128.8 65 128.5 64.2C128.3 63.7 128.4 63.1 128.7 62.7C129.2 62.1 130 62.5 130.7 62.9C131.6 63.5 132.5 64.1 133.5 64.7C132.1 64.1 130.6 63.4 130.1 61.6C130 61.3 130 61 130.1 60.7C130.3 60 130.9 60.1 131.4 60.2C133.3 60.6 135.1 61.4 136.7 62.7C135 62.3 133.3 61.5 131.9 60.3C131.6 60 131.4 59.5 131.5 59.1C131.6 58.7 131.9 58.7 132.1 58.6C135 58.1 137.3 58 139.7 60.1Z" fill="#FED5B7"/>
<path d="M25.6 61.4C24 64.5 22.5 67.6 20.9 70.6C20.5 71.3 20.2 72.1 20.1 72.9C20 74 20.5 75.1 21 76.1C23.5 81.5 25.4 87.2 26.8 93C27.2 94.5 27.5 96.1 28.3 97.4C29.7 99.8 32.3 101.2 34.4 103C38.6 106.6 40.8 112.2 40.4 117.7C40.3 118.6 39.1 118.8 38.8 118C38.1 116.5 37.6 115 37.2 113.4C38 114.9 38.6 116.5 39.1 118.2C39.3 119.1 38.2 119.7 37.6 119C36.6 117.9 35.9 116.6 35.5 115.1L38 119.4C38.3 119.8 37.9 120.3 37.4 120.2C35.6 119.8 34.1 118.4 33.6 116.7C34.3 117.8 35.1 118.8 35.8 119.9C35 120.7 33.7 120 32.9 119.2C30.3 116.7 28.5 113.5 27.7 110C27.4 108.7 27.2 107.4 26.7 106.2C26.3 105.2 25.6 104.4 24.9 103.5C22 99.8 19.1 96.1 16.2 92.4C12.4 87.6 8.40001 82 9.10001 76C9.30001 74.3 9.80001 72.8 10.4 71.2C12 66.6 13.7 62 15.5 57.4C18.5 59.3 21.7 60.7 25.2 61.4H25.6Z" fill="#FED5B7"/>
<path d="M83.7 19.2C82.2 22.4 79.3 28.9 79.3 28.9C79.3 28.9 82 32.5 83 33.2999C81 33 76.9 32.5 76.9 32.5C76.9 32.5 75.2 35.9999 74.2 37.5999C73.2 39.2999 71.2 40.7 69.5 40C68.9 39.7999 68.5 39.3 68 38.9C66.8 37.8 65.7 36.6999 64.5 35.5999C61.4 37.9999 58 40.1 54.4 41.7C51.8 37.7 50.2 33.0999 49.9 28.2999C53.8 26 57.6 23.7 61.5 21.4C60 21.7 58.4 20.6 58.1 19.2C57.8 17.7 58.7 16.1 60.1 15.6C61.5 15.1 63.2 15.7 64.1 17C64.9 14.5 65.9 12 67.2 9.69995C73 12 78.5 14.9 83.8 18.2L83.7 19.2Z" fill="#FED5B7"/>
<path d="M43 186.5C38.2 186.9 33.4 187.4 28.5 187.8C27.7 187.9 26.8 188 26.2 188.5C24.8 189.6 25.4 191.8 26.1 193.4C26.2 193.7 26.4 194 26.6 194.3C26.8 194.5 27.2 194.6 27.5 194.6C32.6 195.8 38.1 195.4 43 193.4C43.6 193.2 44.2 192.9 44.5 192.3C44.9 191.6 44.6 190.8 44.4 190C44 188.9 43.7 187.8 43.3 186.7L43 186.5Z" fill="#847452"/>
<path d="M23.8 193.7C19.2 190.7 14.7 187.6 10.1 184.6C9.50001 184.2 8.90001 183.8 8.20001 183.9C6.80001 183.9 6.10001 185.5 5.70001 186.9C5.30001 188.3 4.90001 189.8 5.70001 191.1C6.10001 191.7 6.60001 192.1 7.20001 192.5C10.7 194.9 14.3 197 18.1 198.8C18.8 199.1 19.6 199.5 20.4 199.5C21.7 199.4 22.7 198.4 23.1 197.2C23.6 196 23.6 194.7 23.6 193.5L23.8 193.7Z" fill="#4D3E25"/>
<path d="M39.3 118.3C38.4 116.9 37.7 115.5 37.1 113.9C37 113.7 36.8 113.6 36.6 113.6C36.4 113.7 36.2 113.9 36.3 114.1C36.9 115.7 37.7 117.2 38.6 118.6C38.9 119.1 39.6 118.7 39.3 118.3Z" fill="#7E4927"/>
<path d="M37.9 119.2C36.6 117.7 35.5 116 34.7 114.3C34.5 113.8 33.8 114.2 34 114.7C34.9 116.5 36 118.2 37.4 119.8C37.7 120.2 38.2 119.6 37.9 119.2Z" fill="#7E4927"/>
<path d="M35.9 119.7C35 118.5 34.1 117.1 33.5 115.7C33.4 115.5 33.1 115.5 32.9 115.6C32.7 115.7 32.7 116 32.8 116.2C33.5 117.6 34.3 119 35.2 120.2C35.3 120.4 35.6 120.5 35.8 120.3C35.9 120.2 36 119.9 35.9 119.7Z" fill="#7E4927"/>
<path d="M37.6 112.4C35.5 113.4 33.4 114.5 31.4 115.7C30.9 116 31.4 116.7 31.8 116.4C33.8 115.2 35.9 114.1 38 113.1C38.4 112.8 38 112.1 37.6 112.4Z" fill="#7E4927"/>
<path d="M28.5 101.8C27.9 102.7 27.2 103.6 26.7 104.5C26.6 104.7 26.7 104.9 26.8 105.1C27 105.2 27.2 105.1 27.4 105C28 104.1 28.6 103.2 29.2 102.3C29.3 102.1 29.2 101.8 29.1 101.7C28.9 101.5 28.6 101.6 28.5 101.8Z" fill="#7E4927"/>
<path d="M18.1 73.2C17.2 74 15.8 74 14.7 74C14.2 74 14.2 74.8 14.7 74.8C16.1 74.7 17.6 74.6 18.8 73.7C19 73.6 18.9 73.3 18.8 73.1C18.6 73 18.3 73 18.1 73.2Z" fill="#7E4927"/>
<path d="M91.7 53.0001C90.6 53.3001 89.5 53.1001 88.6 52.4001C88.4 52.3001 88.1 52.4001 88 52.5001C87.9 52.7001 88 52.9001 88.1 53.1001C89.2 53.9001 90.6 54.1001 91.9 53.8001C92.4 53.7001 92.2 52.9001 91.7 53.0001Z" fill="#7E4927"/>
<path d="M139.4 59.5001C138.4 58.8001 137.3 58.4001 136.1 58.1001C135.5 58.0001 135 57.9001 134.4 57.8001C133.9 57.8001 133.3 57.7001 132.8 58.0001C131.7 58.5001 131.8 59.7001 132.2 60.6001C132.7 61.6001 133.6 62.4001 134.5 63.0001C134.8 63.2001 135.3 62.8001 135.1 62.4001C134.5 61.5001 133.7 60.8001 132.8 60.3001C132.3 60.0001 131.9 59.8001 131.4 59.7001C130.9 59.6001 130.3 59.4001 129.8 59.6001C128.6 59.9001 128.9 61.3001 129.2 62.1001C129.6 63.1001 130.3 64.0001 131.1 64.7001C131.5 65.0001 132 64.5001 131.7 64.1001C131.1 63.4001 130.4 62.8001 129.6 62.4001C129 62.1001 127.9 61.6001 127.4 62.3001C126.9 63.0001 127.5 64.0001 127.9 64.6001C128.4 65.3001 129 65.8001 129.8 66.2001C130.3 66.4001 130.6 65.8001 130.2 65.5001C129.6 65.0001 128.9 64.6001 128.1 64.6001C127.4 64.7001 126.8 65.0001 126.6 65.7001C126.4 66.2001 127.2 66.4001 127.4 65.9001C127.5 65.5001 128 65.4001 128.4 65.4001C128.9 65.5001 129.4 65.8001 129.8 66.1001C129.9 65.9001 130.1 65.6001 130.2 65.4001C129.7 65.2001 129.2 64.8001 128.8 64.4001C128.6 64.2001 128.4 63.9001 128.3 63.7001C128.2 63.6001 127.9 63.0001 128 62.9001C128.2 62.6001 129.3 63.3001 129.5 63.4001C130.1 63.7001 130.6 64.2001 131 64.7001C131.2 64.5001 131.4 64.3001 131.6 64.1001C130.9 63.6001 130.4 62.9001 130 62.1001C129.7 61.6001 129.1 60.3001 130.2 60.3001C131 60.3001 131.8 60.7001 132.5 61.1001C133.2 61.5001 133.8 62.1001 134.3 62.8001C134.5 62.6001 134.7 62.4001 134.9 62.2001C134.1 61.7001 133.4 61.0001 133 60.2001C132.8 59.9001 132.6 59.5001 132.7 59.1001C132.8 58.7001 133.2 58.5001 133.6 58.5001C134.5 58.4001 135.5 58.7001 136.3 58.9001C137.2 59.2001 138.1 59.6001 139 60.1001C139.4 60.4001 139.8 59.7001 139.4 59.5001Z" fill="#7E4927"/>
<path d="M129.6 59.5999C128.7 59.9999 127.5 59.8999 126.7 59.1999C126.5 59.0999 126.3 58.9999 126.1 59.1999C126 59.2999 125.9 59.5999 126.1 59.7999C127.2 60.6999 128.7 60.8999 129.9 60.2999C130.1 60.1999 130.2 59.8999 130 59.6999C130 59.4999 129.8 59.4999 129.6 59.5999Z" fill="#7E4927"/>
<path d="M122.5 58.6C122.2 59.6 121.8 60.5 121.3 61.4C121.2 61.6 121.3 61.8 121.4 62C121.6 62.1 121.9 62 122 61.9C122.5 60.9 122.9 59.9 123.3 58.9C123.4 58.7 123.2 58.5 123 58.4C122.8 58.2 122.6 58.4 122.5 58.6Z" fill="#7E4927"/>
<path d="M127.8 63.5999C127 62.2999 125.6 61.4 124.1 61.2C123.9 61.2 123.7 61.3 123.6 61.5C123.5 61.7 123.7 62 123.9 62C125.2 62.2 126.4 62.9999 127.1 64.0999C127.2 64.2999 127.5 64.3999 127.7 64.1999C127.9 63.9999 128 63.7999 127.8 63.5999Z" fill="#7E4927"/>
<path d="M62.8 19.2C62.4 18.5 62 17.9 61.6 17.2C61.5 17 61.2 16.9 61 17.1C60.8 17.2 60.7 17.5 60.9 17.7C61.3 18.4 61.7 19 62.1 19.7C62.2 19.9 62.5 20 62.7 19.8C62.8 19.7 62.9 19.4 62.8 19.2Z" fill="#7E4927"/>
<path d="M61.6 18.7C61.5 18.7 61.3 18.7999 61.2 18.7999C61.1 18.7999 61.1 18.7999 61 18.7999H60.9C60.9 18.7999 60.9 18.7999 60.8 18.7999C60.5 18.7999 60.2 18.9 59.9 18.9C59.7 18.9 59.5 19.0999 59.5 19.2999C59.5 19.4999 59.7 19.7 59.9 19.7C60.5 19.7 61.2 19.6 61.8 19.4C62 19.4 62.2 19.1 62.1 18.9C62.1 18.8 61.9 18.7 61.6 18.7Z" fill="#7E4927"/>
<path opacity="0.38" d="M64.6 35.6L59.7 29.3L61.9 37.7001L64.6 35.6Z" fill="#7E4927"/>
<path d="M74.6 33.5H74.5C74.5 33.5 74.5 33.5 74.4 33.5C74.3 33.5 74.5 33.5 74.4 33.5C74.3 33.5 74.2 33.4 74.1 33.4L74 33.3C74 33.3 74 33.3 73.9 33.3C73.8 33.2 73.7 33.1 73.6 33.1C73.5 33 73.4 32.9 73.4 32.8C73.4 32.7 73.3 32.7 73.3 32.7C73.3 32.6 73.2 32.6 73.2 32.5C73.1 32.4 73.1 32.3 73 32.2C73 32.1 72.9 32.1 72.9 32V31.9C72.9 31.9 72.9 31.9 72.9 31.8C72.8 31.6 72.6 31.4 72.4 31.5C72.2 31.6 72 31.8 72.1 32C72.5 33 73.2 34 74.3 34.3C74.5 34.4 74.8 34.2 74.8 34C75 33.8 74.9 33.6 74.6 33.5Z" fill="#7E4927"/>
<path d="M76.4731 25.5274C75.8994 25.3272 75.2132 25.799 74.9402 26.5812C74.6672 27.3634 74.9109 28.1598 75.4846 28.36C76.0582 28.5601 76.7445 28.0883 77.0174 27.3061C77.2904 26.5239 77.0467 25.7275 76.4731 25.5274Z" fill="black"/>
<path d="M79.7 21.6C79.5 22.1 79 22.4 78.4 22.6C77.9 22.7 77.3 22.7 76.8 22.6C76 22.5 75.1 22.1999 74.3 21.9C74.2 21.8 74 21.8 73.9 21.7C73.7 21.5 73.8 21.2 74 21C74.2 20.8 74.4 20.7 74.7 20.6C75.7 20.3 76.7 20.2 77.8 20.2C78.3 20.2 78.7 20.3 79.1 20.6C79.5 20.9 79.7 21.3999 79.4 21.7999L79.7 21.6Z" fill="black"/>
<path d="M84.5 16.5001C84.8 18.0001 83.3 19.3001 81.8 19.5001C80.3 19.6001 78.9 19.0001 77.5 18.3001C76.1 17.7001 74.7 17.1001 73.1 17.1001C71.6 17.2001 70 18.2001 69.8 19.7001C69.6 20.9001 70.2 22.2001 69.6 23.2001C69 24.1001 67.6 24.1001 66.5 24.3001C65.1 24.5001 63.8 25.2001 62.8 26.1001C61.9 27.0001 61.2 28.3001 61.6 29.5001C60.9 28.9001 60.1 28.3001 59.6 27.5001C59.1 26.7001 58.7 25.7001 58.9 24.8001C59.1 23.8001 59.9 23.0001 60.8 22.3001C61.7 21.7001 62.6 21.1001 63.3 20.3001C64 19.5001 64.3 18.3001 63.8 17.4001C63.4 16.8001 63.1 15.6001 62.4 15.4001C61.7 15.3001 60.1 15.4001 59.3 15.5001C59.4 13.4001 61.3 12.3001 63.2 11.5001C63.9 11.2001 64.7 11.1001 65.3 10.7001C66.3 10.1001 66.8 9.10006 67.6 8.30006C69.1 6.90006 71.3 6.40006 73.4 6.70006C75.4 7.00006 77.3 8.00006 79.1 9.10006C80.6 10.0001 82.2 11.1001 83.2 12.5001C84.2 14.0001 84.7 16.0001 83.9 17.6001L84.5 16.5001Z" fill="black"/>
<path d="M51.7 26.4C50.9 27.4 50.1 28.4 49.7 29.5C49.3 30.8 49.5 32.2 49.7 33.6C50 36 50 38.5 49.5 40.9C49 43.3 47.6 45.5 45.6 46.9C43.6 48.3 40.7 48.7 38.5 47.5C40.2 46.9 41.4 45.5 42.4 44C43.1 42.8 43.8 41.4 43.5 40.1C43.3 39.1 42.5 38.2 41.6 37.6C40.7 37 39.7 36.6 38.7 36.2C37.6 35.7 36.5 35.2 35.4 34.6C34.7 34.2 33.9 33.8 33.4 33.2C32.7 32.4 32.5 31.4 32.3 30.4C32.1 28.5 32.3 26.6 32.9 24.8C33.3 23.6 33.8 22.5 34.7 21.7C36 20.5 37.9 20.1 39.4 19.1L51.7 26.4Z" fill="black"/>
<path d="M72.7 1.9C69.1 0.500001 64.8 -0.999999 61 0.700001C58 2 56.2 5 53.7 7C52.3 8.2 50.7 8.8 48.9 9.1C47 9.5 45 9.5 43.1 9.8C41.4 10 39.8 10.6 38.4 11.5C37.2 12.4 36.1 13.5 35.3 14.7C33.7 17.2 33 20.4 33.7 23.3C33.8 23.7 33.9 24 34 24.4C34.2 24.9 35 24.7 34.8 24.2C33.8 21.5 34.2 18.4 35.6 15.8C37.1 13.1 39.5 11.2 42.5 10.6C46.1 9.9 50 10.5 53.3 8.4C55.9 6.6 57.6 3.8 60.3 2C64.1 -0.499999 68.7 1.1 72.6 2.6C73 2.9 73.2 2.1 72.7 1.9Z" fill="black"/>
<path d="M86 8.10005C88.7 10 90.6 12.9 91.5 16.1C92.5 19.3 92.6 22.8 91.8 26.1C91.3 28 90.5 29.7 89.8 31.4C89 33.3 88.6 35.2001 89.2 37.2001C90.2 40.7001 93.2 43.3001 94.1 46.9001C94.9 50.2001 93.9 53.9001 91.5 56.4001C91.2 56.7001 90.9 57 90.5 57.3C90.1 57.6 90.5 58.3 90.9 58C93.7 55.8 95.3 52.2001 95.1 48.7001C95 46.9001 94.3 45.2 93.4 43.6C92.5 42 91.3 40.4001 90.5 38.7001C90.1 37.9001 89.8 37 89.7 36.1C89.6 35 89.7 34 90.1 33C90.7 31 91.8 29.2 92.4 27.3C93.4 24 93.4 20.4 92.6 17C91.8 13.7 90.1 10.6 87.5 8.40005C87.2 8.10005 86.8 7.80005 86.5 7.60005C86 7.10005 85.6 7.80005 86 8.10005Z" fill="black"/>
<path d="M182.5 127C187.5 118 187 106.3 181.3 97.8C183.4 102.3 183.9 107.5 182.9 112.4C181.8 117.3 179.2 121.8 175.4 125C177.1 126.8 180 127.3 182.3 126.3L182.5 127Z" fill="#54260C"/>
<path d="M167.9 154.7C168 158.4 168.1 162.1 167.4 165.7C166.7 169.3 165.1 172.8 162.4 175.3C161.4 176.1 159.8 176.8 159 175.8C158.6 175.3 158.6 174.5 158.9 173.9C159.2 173.3 159.6 172.8 160 172.2C162 169.2 161.2 165.3 160.3 161.8C159.6 158.8 158.8 155.8 158.1 152.8C158.1 152.6 158 152.4 158.1 152.2C158.2 151.9 158.6 151.7 159 151.7C161.2 151.3 163.4 151.2 165.7 151.5L167.9 154.7Z" fill="#54260C"/>
<path d="M147.4 121.8C145.8 118.8 143.6 116.2 140.8 114.3C140.3 114 139.8 113.7 139.3 113.4C137 112.1 134.2 111.4 131.6 112C129.8 112.4 128.2 113.4 126.3 113.6C124.8 113.7 123.2 113.3 121.8 112.6C121 112.2 120.1 111.8 119.4 112.2C119.1 112.3 119 112.6 118.8 112.8C116.3 116.4 116.9 121.8 120.3 124.7C122.7 126.8 126.1 127.5 128.3 129.8C129.5 131.1 130.2 132.7 130.8 134.3C132.4 138.3 133.1 141.7 133.1 146C133.1 147.9 133.1 150.4 133.4 152.2C133.6 153.1 130.7 164.8 129.1 168.5C128.1 170.8 127 173.3 125.1 175C124 176 122.6 176.7 121.2 176.9C119.7 177.1 119.5 179.3 120.9 179.8C121.9 180.1 123 180.2 124 180C126.5 179.3 130.1 178 131.8 175.9C135.1 171.7 140.4 164.2 143.1 159.5C143.6 158.7 142.2 158.6 143 158.9L147.8 160.1C148.2 160.2 148.6 160.4 148.9 160.7C149.4 161.3 149.3 162.2 149.1 162.9C148.4 166 146.9 172 145.6 174.9C144.1 178.1 141.7 181.1 138.3 182.4C137.6 182.7 137.2 183.5 137.4 184.2C137.7 185 138.6 185 139.4 184.9C141.8 184.6 144.3 184.2 146.2 182.8C147.5 181.8 148.5 180.4 149.4 179C154 172.3 158.5 165.5 161.9 158.2C167.9 158.5 170.7 157.9 174.3 153C171.3 157.5 176.4 161.2 176.2 166.6C176 170.3 174.8 174 172.8 177.1C172.4 177.7 172 178.3 172.4 179.1C172.6 179.5 173 179.8 173.4 180C174.3 180.3 175.2 180.1 176.1 179.8C179.3 178.6 181.8 175.7 182.5 172.3C183.2 168.8 182.1 165.2 182.3 161.6C182.8 153.9 189.5 147.3 189 139.5C188.9 137.2 188.1 135 187.3 132.8C185.5 128.3 182.9 123.5 178.4 121.9C173.9 120.3 168.5 125.3 164.2 127.3C162.4 128.1 152 129.2 149.4 125.6L147.4 121.8Z" fill="#A85B35"/>
<path d="M128.7 114.9C130.4 114.4 132.5 114 133.7 115.3C134 115.7 134.2 116.1 134.3 116.5C134.9 118.3 135 120.4 134 122.1C133.6 122.8 133 123.5 132.2 123.9C130.5 124.9 128.2 124.8 126.6 123.6C125 122.4 124.3 120.2 124.8 118.3C125.3 116.4 127.2 114.9 129.1 114.8L128.7 114.9Z" fill="#D38C6C"/>
<path d="M140.7 118.4C139.8 120.8 138 122.7 136 124.3C133.9 126 131.5 127.6 130 129.9C128.5 132.2 128.3 135.7 130.4 137.4C131.7 138.5 133.5 138.6 135.2 138.5C136.9 138.3 138.5 137.9 140.2 137.9C142.1 137.9 144.3 138.6 145.9 137.5C147.6 136.4 147.7 134 147.6 132C147.5 130.7 147.5 129.3 147.3 128C146.9 123.9 144.4 120.3 140.7 118.4Z" fill="#54260C"/>
<path d="M130.37 116.208C129.487 116.198 128.763 116.861 128.754 117.69C128.744 118.518 129.453 119.198 130.336 119.208C131.22 119.218 131.944 118.554 131.953 117.726C131.963 116.897 131.254 116.218 130.37 116.208Z" fill="black"/>
<path d="M169.5 125.3C169.4 127 170.7 128.5 171.6 129.9C174.1 133.8 174.3 139.4 171.2 142.9C170.3 143.9 169 144.8 167.7 144.6C164.8 144.3 163.9 139.9 161.1 139C158.9 138.2 156.4 139.9 154.2 139.1C152.5 138.5 151.6 136.7 151.5 134.9C151.4 133.2 152 131.5 152.7 129.8C153 129 153.4 128.1 154.2 127.9C154.6 127.8 155.1 127.9 155.5 128C158.5 128.6 162.3 127.7 169.7 124.2L169.5 125.3Z" fill="#D38C6C"/>
<path d="M149.2 160.2C146 159.2 142.7 158.6 139.8 157C138.5 156.3 137.3 155.4 136.4 154.3C135.4 153.2 134.8 151.8 134.4 150.3C134 148.5 133.9 146.7 133.9 144.9C133.9 144.4 133.1 144.4 133.1 144.9C133.2 148.1 133.3 151.6 135.3 154.3C137.2 156.9 140.2 158.3 143.1 159.2C145 159.8 147 160.3 149 160.9C149.5 161.2 149.7 160.4 149.2 160.2Z" fill="#54260C"/>
<path d="M123.1 177.2C122.3 177.7 121.6 178.4 121.2 179.3C121.1 179.5 121.1 179.7 121.3 179.9C121.5 180 121.8 180 121.9 179.8C122 179.6 122.1 179.4 122.2 179.2C122.3 179.1 122.3 179 122.4 178.9C122.4 178.9 122.4 178.9 122.4 178.8L122.5 178.7C122.6 178.5 122.8 178.4 122.9 178.3C122.9 178.3 122.9 178.3 123 178.3L123.1 178.2C123.2 178.1 123.3 178.1 123.4 178C123.6 177.9 123.7 177.6 123.5 177.4C123.6 177.2 123.3 177.1 123.1 177.2Z" fill="#54260C"/>
<path d="M121.3 177.1C121 177.6 120.6 178 120.3 178.5C120.2 178.6 120.2 178.7 120.3 178.8C120.3 178.9 120.4 179 120.5 179C120.7 179.1 120.9 179 121.1 178.9C121.4 178.4 121.8 178 122.1 177.5C122.2 177.4 122.2 177.3 122.1 177.2C122.1 177.1 122 177 121.9 177C121.7 176.8 121.4 176.9 121.3 177.1Z" fill="#54260C"/>
<path d="M140.8 182.3C140.1 182.7 139.7 183.4 139.7 184.2C139.7 184.4 139.9 184.6 140.1 184.6C140.3 184.6 140.5 184.4 140.5 184.2V184.1C140.5 184.1 140.5 184.1 140.5 184C140.5 183.9 140.5 183.9 140.6 183.8V183.7C140.6 183.6 140.7 183.6 140.7 183.5C140.7 183.5 140.7 183.4 140.8 183.4C140.8 183.3 140.9 183.3 140.9 183.2C141 183.1 141 183.1 141.1 183.1C141.1 183.1 141.2 183.1 141.2 183C141.4 182.9 141.5 182.6 141.3 182.4C141.3 182.3 141 182.2 140.8 182.3Z" fill="#54260C"/>
<path d="M139 182.2C138.5 182.8 138.2 183.5 138.1 184.2C138.1 184.3 138.1 184.4 138.1 184.5C138.1 184.6 138.2 184.7 138.3 184.7C138.5 184.7 138.8 184.6 138.8 184.4C138.8 184.2 138.9 184.1 138.9 183.9C138.9 183.8 138.9 183.7 139 183.7V183.6C139 183.6 139.1 183.5 139 183.5C139 183.6 139 183.4 139 183.4C139 183.4 139 183.3 139.1 183.3C139.1 183.2 139.2 183.2 139.2 183.1C139.2 183 139.3 183 139.3 182.9C139.3 182.9 139.3 182.8 139.4 182.8C139.5 182.7 139.5 182.6 139.5 182.5C139.5 182.4 139.5 182.3 139.4 182.2C139.5 182.1 139.2 182 139 182.2Z" fill="#54260C"/>
<path d="M176.8 176C175.9 176.5 175.2 177.4 175 178.4C175 178.6 175.1 178.8 175.3 178.9C175.5 178.9 175.8 178.8 175.8 178.6C175.8 178.5 175.8 178.4 175.9 178.3C175.9 178.2 175.9 178.2 176 178.1C176.1 177.9 176.2 177.7 176.3 177.5C176.3 177.5 176.3 177.5 176.4 177.4L176.5 177.3C176.6 177.2 176.7 177.1 176.7 177.1C176.7 177.1 176.7 177.1 176.8 177C176.7 177 176.9 176.9 176.8 177L176.9 176.9C177 176.8 177.1 176.8 177.2 176.7C177.4 176.6 177.5 176.3 177.3 176.1C177.2 176 177 175.9 176.8 176Z" fill="#54260C"/>
<path d="M174.7 176C174 176.9 173.5 178.1 173.4 179.3C173.4 179.5 173.6 179.7 173.8 179.7C174 179.7 174.2 179.5 174.2 179.3C174.3 178.4 174.7 177.4 175.3 176.6C175.4 176.4 175.5 176.2 175.3 176C175.2 175.9 174.9 175.9 174.7 176Z" fill="#54260C"/>
<path d="M174 155.5C174.3 150.6 176.7 146 180.2 142.7C181.2 141.8 182.3 141 183.5 140.3C184 140 183.5 139.3 183.1 139.6C178.7 142.2 175.4 146.4 174 151.3C173.6 152.7 173.3 154.1 173.2 155.5C173.1 156 173.9 156 174 155.5Z" fill="#54260C"/>
<path d="M162.2 159.5C163.4 157.7 164.6 155.8 165.1 153.7C165.7 151.4 165.3 149.1 164.6 146.9C164.4 146.4 163.7 146.6 163.8 147.1C164.5 149.2 164.9 151.4 164.3 153.5C163.8 155.5 162.6 157.2 161.5 159C161.2 159.5 161.9 159.9 162.2 159.5Z" fill="#54260C"/>
<path d="M152.9 146.5C152.9 148.2 152.9 149.9 152.7 151.6C152.6 152.6 152.4 153.4 152 154.4C151.1 156.6 150.1 158.7 149.4 161C149 162.3 148.7 163.7 148.7 165C148.7 165.5 149.5 165.5 149.5 165C149.5 162.5 150.5 160.1 151.4 157.8C152.2 156 153.2 154.2 153.4 152.2C153.7 150.3 153.7 148.4 153.7 146.5C153.7 146 152.9 146 152.9 146.5Z" fill="#54260C"/>
<path d="M140.5 149C140.6 149.7 140.7 150.4 140.8 151.1C140.8 151.3 141.1 151.4 141.3 151.4C141.5 151.3 141.6 151.1 141.6 150.9C141.5 150.2 141.4 149.5 141.3 148.8C141.3 148.6 141 148.5 140.8 148.5C140.6 148.5 140.5 148.8 140.5 149Z" fill="#54260C"/>
<path d="M138.7 150.3C138.8 150.9 138.9 151.5 138.9 152.1C138.9 152.2 138.9 152.3 139 152.4C139.1 152.5 139.2 152.5 139.3 152.5C139.5 152.5 139.7 152.3 139.7 152.1C139.6 151.5 139.5 150.9 139.5 150.3C139.5 150.2 139.5 150.1 139.4 150C139.3 149.9 139.2 149.9 139.1 149.9C138.9 149.9 138.7 150 138.7 150.3Z" fill="#54260C"/>
<path d="M136.3 146.9C136.4 147.2 136.5 147.6 136.6 147.9C136.6 148.1 136.7 148.2 136.7 148.4C136.7 148.4 136.7 148.4 136.7 148.5V148.6C136.7 148.7 136.7 148.8 136.7 148.9C136.7 149.1 136.9 149.3 137.1 149.3C137.3 149.3 137.5 149.1 137.5 148.9C137.5 148.1 137.3 147.4 137 146.7C136.9 146.5 136.7 146.3 136.5 146.4C136.4 146.4 136.2 146.6 136.3 146.9Z" fill="#54260C"/>
<path d="M117.7 115.2C117.7 116.4 117.8 117.6 118 118.8C118.2 119.8 118.5 120.8 119.1 121.6C120.2 123 122.4 123.7 123.8 122.4C124.2 122.1 123.6 121.5 123.2 121.8C122.6 122.3 121.9 122.3 121.2 122.1C120.4 121.9 119.8 121.4 119.4 120.7C118.9 120 118.7 119.1 118.6 118.2C118.4 117.2 118.4 116.2 118.4 115.1C118.5 114.7 117.7 114.7 117.7 115.2Z" fill="#54260C"/>
<path d="M117.9 116.6C118.2 115.7 119.5 115.6 120.4 115.8C121.3 116.1 122.4 116.5 123.2 116C124.1 115.5 124.1 114.1 123.5 113.2C122.9 112.3 121.9 111.9 120.9 111.5C120.4 111.3 119.8 111 119.2 111.3C118.9 111.4 118.7 111.7 118.5 112C117.9 112.7 117.4 113.5 117.1 114.4C116.9 115.3 117 116.3 117.8 116.9L117.9 116.6Z" fill="black"/>
<path d="M132.7 112.7C132.4 113.1 132.1 113.6 131.8 114C131.7 114.1 131.6 114.2 131.7 114.4C131.7 114.5 131.8 114.6 131.9 114.7C132.1 114.9 132.4 115 132.6 115.2C133.8 116.1 135.1 117 136.4 117.9C136.1 115.7 134.8 113.7 132.9 112.5L132.7 112.7Z" fill="black"/>
<path d="M173.6 121.7C174 122.4 174 123.3 173.7 124.1C173.6 124.3 173.8 124.6 174 124.6C174.2 124.7 174.4 124.5 174.5 124.3C174.9 123.3 174.8 122.2 174.3 121.3C174.2 121.1 173.9 121 173.7 121.2C173.6 121.3 173.5 121.5 173.6 121.7Z" fill="#A85B35"/>
<path d="M172.1 122C172.2 122.8 172.2 123.7 172 124.5C172 124.7 172.1 125 172.3 125C172.5 125 172.8 124.9 172.8 124.7C173 123.7 173 122.7 172.9 121.8C172.9 121.6 172.6 121.5 172.4 121.5C172.2 121.6 172.1 121.8 172.1 122Z" fill="#A85B35"/>
<path d="M187.9 129C187.8 129.2 187.7 129.5 187.5 129.7C187.5 129.8 187.4 129.8 187.4 129.9C187.3 130 187.5 129.8 187.4 129.9C187.4 129.9 187.4 130 187.3 130C187.2 130.1 187.1 130.2 187 130.3C186.9 130.4 186.8 130.5 186.7 130.6L186.6 130.7C186.6 130.7 186.6 130.7 186.5 130.8C186.3 131 186.1 131.1 185.8 131.2C185.6 131.3 185.5 131.6 185.7 131.8C185.8 132 186.1 132 186.3 131.9C187.3 131.4 188.2 130.6 188.6 129.5C188.7 129.3 188.7 129.1 188.5 128.9C188.2 128.7 187.9 128.8 187.9 129Z" fill="#A85B35"/>
<path d="M186.7 128.5C186.6 128.7 186.4 128.8 186.3 129C186.2 129.1 186.1 129.1 186.1 129.2C186.1 129.2 186.1 129.2 186 129.2L185.9 129.3C185.7 129.4 185.6 129.5 185.4 129.6C185.3 129.6 185.3 129.6 185.2 129.7C185.2 129.7 185.2 129.7 185.1 129.7C185 129.7 184.9 129.8 184.8 129.8C184.6 129.9 184.4 130.1 184.5 130.3C184.6 130.5 184.8 130.7 185 130.6C185.9 130.3 186.7 129.8 187.3 129.1C187.4 128.9 187.5 128.7 187.3 128.5C187.1 128.4 186.8 128.3 186.7 128.5Z" fill="#A85B35"/>
<path d="M142.3 116.3C141.3 115.5 140.9 114.1 140.8 112.7C140.7 111.4 140.8 110 140.4 108.7C140.2 108.2 139.9 107.7 139.4 107.5C138.7 107.3 138 108 137.8 108.7C137.4 109.7 137.3 110.7 137.5 111.7C137.5 110.3 136.9 108.8 136 107.8C135.9 107.7 135.8 107.6 135.7 107.6C135.4 107.5 135.1 107.9 135.1 108.2C134.9 109 134.9 109.8 135.2 110.5C134.8 110.4 134.6 110 134.2 109.9C133.9 109.7 133.3 109.7 133.2 110.1C133.1 110.4 133.2 110.7 133.4 110.9C134.5 112.5 136.2 113.7 138.1 114.1L142.3 116.3Z" fill="#A85B35"/>
<path d="M140.3 114.7C140.3 113.5 140 112.3 139.4 111.2C139.3 111 138.9 110.9 138.8 111.1C138.1 111.9 137.9 112.9 138.1 113.9C138.4 113.8 138.6 113.8 138.9 113.7C138.6 113.1 138.3 112.5 137.8 112C137.4 111.6 136.8 111.1 136.1 111.2C135.8 111.2 135.5 111.4 135.3 111.7C135.1 112 135.1 112.4 135.2 112.7C135.4 113.4 135.8 114 136.2 114.5C136.5 114.9 137.1 114.3 136.8 113.9C136.5 113.5 136.2 113.1 136.1 112.6C136 112.3 135.9 111.9 136.3 111.9C136.7 111.9 137.1 112.3 137.4 112.6C137.7 113 137.9 113.4 138.1 113.8C138.2 114 138.4 114.1 138.6 114.1C138.8 114 138.9 113.8 138.9 113.6C138.7 112.9 138.9 112.1 139.4 111.5C139.2 111.5 139 111.4 138.8 111.4C139.3 112.3 139.6 113.4 139.6 114.5C139.5 115.2 140.4 115.2 140.3 114.7Z" fill="#54260C"/>
<path d="M149.4 141.9C149.4 142 149.5 142 149.5 142.1C149.5 142.1 149.5 142.1 149.5 142.2V142.3C149.6 142.5 149.6 142.6 149.6 142.8V142.7C149.6 142.8 149.6 143 149.6 143.1C149.6 143.3 149.8 143.5 150 143.5C150.2 143.5 150.4 143.3 150.4 143.1C150.4 142.5 150.3 141.9 150 141.5C149.9 141.3 149.6 141.2 149.4 141.4C149.4 141.5 149.3 141.7 149.4 141.9Z" fill="#54260C"/>
<path d="M146.7 141.3C146.7 141.4 146.7 141.5 146.7 141.5V141.6C146.7 141.8 146.7 141.9 146.7 142.1C146.7 142.4 146.7 142.7 146.7 143.1C146.7 143.3 146.9 143.5 147.1 143.5C147.3 143.5 147.5 143.3 147.5 143.1C147.6 142.4 147.5 141.7 147.4 141C147.4 140.8 147.1 140.7 146.9 140.7C146.8 140.9 146.6 141.1 146.7 141.3Z" fill="#54260C"/>
<path d="M157.5 160C157.4 160.4 157.4 160.7 157.3 161C157.2 161.2 157.2 161.3 157.1 161.5C157.1 161.5 157.1 161.5 157.1 161.6C157.1 161.6 157.1 161.7 157 161.7C157 161.8 156.9 161.9 156.9 162C156.8 162.2 156.8 162.5 157 162.6C157.2 162.7 157.5 162.7 157.6 162.5C157.9 161.8 158.2 161.1 158.3 160.3C158.3 160.2 158.3 160.1 158.3 160C158.3 159.9 158.2 159.8 158.1 159.8C157.8 159.6 157.5 159.7 157.5 160Z" fill="#54260C"/>
<path d="M155.2 161.5C155.2 161.8 155.2 162.2 155.2 162.5C155.2 162.7 155.4 162.9 155.6 162.9C155.8 162.9 156 162.7 156 162.5C156 162.2 156 161.8 156 161.5C156 161.3 155.8 161.1 155.6 161.1C155.4 161.1 155.2 161.2 155.2 161.5Z" fill="#54260C"/>
<path d="M160.6 153.8C160.5 154.4 160.4 155 160.2 155.6C160.2 155.8 160.3 156 160.5 156.1C160.7 156.1 161 156 161 155.8C161.1 155.2 161.2 154.6 161.4 154C161.4 153.8 161.3 153.6 161.1 153.5C160.9 153.4 160.7 153.6 160.6 153.8Z" fill="#54260C"/>
<path d="M159.1 153.4C159 153.9 159 154.4 158.9 154.9C158.9 155 159 155.1 159 155.2C159.1 155.3 159.2 155.3 159.3 155.3C159.4 155.3 159.5 155.3 159.6 155.2C159.7 155.1 159.7 155 159.7 154.9C159.8 154.4 159.8 153.9 159.9 153.4C159.9 153.3 159.8 153.2 159.8 153.1C159.7 153 159.6 153 159.5 153C159.4 153 159.3 153 159.2 153.1C159.1 153.2 159.1 153.2 159.1 153.4Z" fill="#54260C"/>
<path d="M179.4 151.4C179.2 151.9 179.1 152.4 179.1 152.9C179.1 153.1 179.3 153.3 179.5 153.3C179.7 153.3 179.9 153.1 179.9 152.9C179.9 152.8 179.9 152.6 179.9 152.5V152.6C179.9 152.3 180 151.9 180.1 151.6C180.1 151.5 180.1 151.4 180.1 151.3C180.1 151.2 180 151.1 179.9 151.1C179.7 151.1 179.5 151.2 179.4 151.4Z" fill="#54260C"/>
<path d="M177.5 152C177.4 152.4 177.2 152.8 177.1 153.2C177 153.4 177.2 153.7 177.4 153.7C177.6 153.8 177.8 153.6 177.9 153.4C178 153 178.2 152.6 178.3 152.2C178.4 152 178.2 151.7 178 151.7C177.7 151.7 177.5 151.8 177.5 152Z" fill="#54260C"/>
<path d="M175.5 153.2C175.5 153.7 175.5 154.2 175.5 154.8C175.5 155 175.7 155.2 175.9 155.2C176.1 155.2 176.3 155 176.3 154.8C176.3 154.3 176.3 153.8 176.3 153.2C176.3 153 176.1 152.8 175.9 152.8C175.7 152.8 175.5 152.9 175.5 153.2Z" fill="#54260C"/>
<path d="M176.1 157.4C176.2 157.7 176.2 157.9 176.3 158.2V158.3C176.3 158.4 176.3 158.4 176.3 158.5C176.3 158.6 176.3 158.8 176.3 158.9C176.3 159.1 176.5 159.3 176.7 159.3C176.9 159.3 177.1 159.1 177.1 158.9C177.1 158.3 177 157.7 176.8 157.1C176.7 156.9 176.5 156.7 176.3 156.8C176.2 157 176.1 157.2 176.1 157.4Z" fill="#54260C"/>
<path d="M182.4 134.2C182.5 134.8 182.6 135.3 182.7 135.9C182.7 136.1 183 136.2 183.2 136.2C183.4 136.1 183.5 135.9 183.5 135.7C183.4 135.1 183.3 134.6 183.2 134C183.2 133.8 182.9 133.7 182.7 133.7C182.5 133.7 182.4 133.9 182.4 134.2Z" fill="#54260C"/>
<path d="M180.5 135C180.5 135.3 180.5 135.5 180.5 135.8C180.5 135.9 180.5 136 180.6 136.1C180.7 136.2 180.8 136.2 180.9 136.2C181 136.2 181.1 136.2 181.2 136.1C181.3 136 181.3 135.9 181.3 135.8C181.3 135.5 181.3 135.3 181.3 135C181.3 134.9 181.3 134.8 181.2 134.7C181.1 134.6 181 134.6 180.9 134.6C180.8 134.6 180.7 134.6 180.6 134.7C180.6 134.7 180.5 134.8 180.5 135Z" fill="#54260C"/>
<path d="M178.2 130.3C178 130.7 178 131.2 178.1 131.7C178.1 131.8 178.2 131.9 178.3 131.9C178.4 132 178.5 132 178.6 131.9C178.7 131.9 178.8 131.8 178.8 131.7C178.9 131.6 178.9 131.5 178.8 131.4C178.8 131.4 178.8 131.4 178.8 131.3V131.4C178.8 131.2 178.8 131 178.8 130.8V130.9C178.8 130.7 178.9 130.6 178.9 130.4C178.9 130.3 178.9 130.2 178.9 130.1C178.9 130 178.8 129.9 178.7 129.9C178.5 129.9 178.3 130.1 178.2 130.3Z" fill="#54260C"/>
<path d="M133.7 162.9C133.7 163.1 133.7 163.2 133.7 163.4V163.5C133.7 163.5 133.7 163.7 133.7 163.6C133.7 163.7 133.7 163.7 133.7 163.8C133.7 163.9 133.6 164.1 133.6 164.2C133.6 164.3 133.6 164.3 133.5 164.4C133.5 164.4 133.5 164.5 133.4 164.5C133.3 164.7 133.3 164.9 133.5 165.1C133.7 165.2 134 165.2 134.1 165C134.4 164.4 134.5 163.7 134.5 163C134.5 162.8 134.3 162.6 134.1 162.6C133.9 162.5 133.7 162.7 133.7 162.9Z" fill="#54260C"/>
<path d="M132.3 162.9C132.3 163.1 132.3 163.2 132.3 163.4V163.3C132.3 163.5 132.2 163.8 132.1 164V163.9C132.1 164 132 164 132 164.1C131.9 164.3 131.9 164.6 132.1 164.7C132.3 164.8 132.6 164.8 132.7 164.6C132.9 164.1 133.1 163.6 133 163.1C133 162.9 132.8 162.7 132.6 162.7C132.5 162.5 132.3 162.7 132.3 162.9Z" fill="#54260C"/>
<path d="M162 45.2C161.9 45.2 161.8 45.1 161.7 45.1C161.7 45.1 161.7 45.1 161.6 45.1C161.6 45.1 161.5 45.1 161.5 45L161.4 44.9C161.3 44.8 161.3 44.8 161.2 44.7L161.1 44.6C161 44.5 161 44.4 161 44.3C161 44.3 161 44.3 161 44.2V44.1V44C161 44 161 44 161 43.9C161 43.7 161 43.6 160.9 43.6C160.8 43.5 160.7 43.5 160.6 43.5C160.4 43.5 160.2 43.7 160.2 43.9C160.2 44.4 160.5 44.9 160.8 45.3C161.1 45.7 161.5 45.9 162 46C162.2 46 162.5 45.9 162.5 45.7C162.3 45.5 162.2 45.3 162 45.2Z" fill="#54260C"/>
<path d="M151.7 38.4C151.6 38.4 151.5 38.5 151.4 38.5C151.4 38.5 151.2 38.5 151.3 38.5H151.2C151.1 38.5 151 38.5 150.9 38.5H150.8H150.7C150.8 38.5 150.6 38.5 150.6 38.5H150.5C150.4 38.5 150.3 38.5 150.3 38.4C150.3 38.4 150.2 38.4 150.2 38.3C150.1 38.3 150 38.2 150 38.2C149.8 38.1 149.5 38.2 149.4 38.3C149.3 38.5 149.4 38.7 149.5 38.9C150.2 39.4 151.1 39.5 151.9 39.2C152.1 39.1 152.3 38.9 152.2 38.7C152.2 38.5 151.9 38.3 151.7 38.4Z" fill="#54260C"/>
<path d="M150.8 48.9C150.7 49.5 150.3 50 149.7 50.3C149.5 50.4 149.4 50.4 149.3 50.5C149.1 50.6 149 50.6 148.8 50.6C148.9 50.6 148.7 50.6 148.7 50.6H148.6C148.5 50.6 148.4 50.6 148.3 50.6H148.2H148.1C148 50.6 147.9 50.6 147.8 50.5C147.6 50.4 147.4 50.6 147.3 50.8C147.2 51 147.4 51.2 147.6 51.3C149.2 51.8 151.1 50.7 151.5 49.1C151.5 48.9 151.4 48.7 151.2 48.6C151.1 48.5 150.9 48.7 150.8 48.9Z" fill="#54260C"/>
<path d="M41.4 186.8C40.3 186.4 39.2 186.6 38.1 186.9C37 187.2 35.9 187.5 34.8 187.7C32.5 188.1 30.2 188.2 28 188C27.5 188 27.5 188.8 28 188.8C30.2 189 32.5 188.9 34.7 188.6C35.8 188.4 36.9 188.1 37.9 187.8C39 187.5 40.1 187.2 41.2 187.6C41.7 187.7 41.9 187 41.4 186.8Z" fill="#4D3E25"/>
<path d="M38.2 189.5C36.3 189.5 34.3 189.8 32.4 190.3C31.9 190.4 32.1 191.2 32.6 191.1C34.4 190.6 36.3 190.4 38.1 190.4C38.8 190.3 38.8 189.5 38.2 189.5Z" fill="#4D3E25"/>
<path d="M27.4 137.5C25.7 138.4 24 139.3 22.2 140.2C21.7 140.4 22.1 141.1 22.6 140.9C24.3 140 26 139.1 27.8 138.2C28.3 138 27.9 137.3 27.4 137.5Z" fill="#4D3E25"/>
<path d="M26.6 140.5C25.5 140.7 24.4 140.9 23.3 141.2C23.1 141.2 23 141.5 23 141.7C23.1 141.9 23.3 142 23.5 142C24.6 141.8 25.7 141.6 26.8 141.3C27 141.3 27.1 141 27.1 140.8C27 140.5 26.8 140.4 26.6 140.5Z" fill="#4D3E25"/>
<path d="M3.3 88.8C5.6 90.4 8.2 91.5 10.9 92.3C10.8 92.2 10.7 92 10.6 91.9C10.5 94.8 10.2 97.7 9.8 100.6C9.6 102 9.4 103.4 9.1 104.7C8.8 105.8 8.1 106.6 7 107C5.9 107.4 4.7 107.4 3.5 107.3C3 107.2 3 108.1 3.5 108.1C5.6 108.3 8.4 108.1 9.5 105.9C9.8 105.3 10 104.7 10.1 104C10.2 103.2 10.4 102.5 10.5 101.7C10.7 100.2 10.9 98.7 11.1 97.1C11.3 95.3 11.4 93.6 11.5 91.8C11.5 91.6 11.4 91.5 11.2 91.4C8.6 90.6 6.1 89.5 3.8 88C3.3 87.8 2.9 88.5 3.3 88.8Z" fill="#4D3E25"/>
<path d="M10 95.5999C7.50001 94.7999 5.00001 94.0999 2.50001 93.2999C2.00001 93.0999 1.80001 93.8999 2.30001 94.0999C4.80001 94.8999 7.30001 95.5999 9.80001 96.3999C10.3 96.5999 10.5 95.7999 10 95.5999Z" fill="#4D3E25"/>
<path d="M18.2 99.1999C19.2 104.8 20.4 110.4 21.8 116C23.3 121.6 25.1 127 27.2 132.4C28.2 135 29.3 137.6 30 140.4C30.7 143.2 31 146.2 31.3 149.1C31.9 155.1 32.4 161 33 167C33.6 173 34.1 179 34.7 184.9C34.8 185.7 34.8 186.4 34.9 187.2C34.9 187.7 35.8 187.7 35.7 187.2C35.1 181.2 34.6 175.2 34 169.2C33.4 163.2 32.9 157.2 32.3 151.2C32 148.3 31.8 145.4 31.3 142.5C30.8 139.7 29.9 137 28.9 134.3C27.9 131.6 26.8 129 25.9 126.3C25 123.6 24.1 120.8 23.3 118.1C21.8 112.6 20.5 106.9 19.5 101.3C19.4 100.6 19.2 99.8999 19.1 99.1999C18.9 98.3999 18.2 98.6999 18.2 99.1999Z" fill="#4D3E25"/>
<path d="M27.1 63.7999C26.2 62.9999 24.9 62.9 23.8 62.7C20.2 62 16.8 60.5 13.8 58.4C13.6 58.3 13.4 58.1 13.3 57.9C13.2 57.7 13.3 57.3999 13.3 57.0999C13.7 55.5999 14.1 54.1 14.7 52.7C15.7 54.5 17.5 55.5999 19.2 56.5999C22.3 58.3999 25.5 59.8999 28.8 61.2999C28.3 62.1999 27.8 63.1999 27.3 64.0999L27.1 63.7999Z" fill="#6D1111"/>
<path d="M81.6 42.1C77 46.8 72.5 51.7 70.2 57.7C69 57 68.7 56.9 67.5 56C67.3 55.9 67.1 55.7 67.1 55.5C67.1 55.3 67.1 55.2 67.2 55C69.7 49 75.7 45.2 78.9 39.6C79.8 40.3 80.6 41 81.5 41.8L81.6 42.1Z" fill="#6D1111"/>
<path d="M67.6 42.2999C64.5 45.7999 62.1 49.7999 60.3 54.0999C59.8 55.3999 59.3 56.6999 58.9 57.9999C58.7 58.4999 59.5 58.6999 59.7 58.1999C61.1 53.7999 63.2 49.5999 65.9 45.7999C66.6 44.7999 67.4 43.7999 68.3 42.7999C68.5 42.4999 67.9 41.8999 67.6 42.2999Z" fill="#6D1111"/>
<path d="M36.1 48.3C34.2 52 31.9 55.6 29.4 59C28.7 60 27.9 60.9 27.1 61.9C26.8 62.3 27.3 62.9 27.7 62.5C30.4 59.2 32.9 55.7 35 52C35.6 50.9 36.2 49.9 36.7 48.8C37.1 48.3 36.3 47.9 36.1 48.3Z" fill="#6D1111"/>
<path d="M36.2 46.6C35.4 44.8 34.5 42.8 33.1 41.4C31.7 40.1 29.8 39.2 27.9 39.6C27.4 39.7 27.6 40.5 28.1 40.4C29.8 40.1 31.6 41 32.7 42.3C34 43.7 34.7 45.4 35.5 47.1C35.7 47.5 36.4 47.1 36.2 46.6Z" fill="#6D1111"/>
<path d="M39.1 37.7C37.9 38.3 36.6 39 35.4 39.6C34.9 39.8 35.3 40.5 35.8 40.3C37 39.7 38.3 39 39.5 38.4C40 38.2 39.6 37.5 39.1 37.7Z" fill="#6D1111"/>
<path d="M58.1 41.7999C57.4 42.6999 56.2 43.2999 55 43.0999C53.9 42.8999 52.9 42.0999 52.5 40.9999C52.3 40.4999 51.5 40.6999 51.7 41.1999C52.2 42.5999 53.3 43.6 54.8 43.9C56.2 44.2 57.8 43.6 58.7 42.4C58.9 41.9 58.4 41.2999 58.1 41.7999Z" fill="#6D1111"/>
<path d="M48.8 69.8C43.9 69.5 39 69.5 34.1 70C33.8 70 33.6 70.3999 33.8 70.6999C36.4 73.4999 40.7 72.1999 43.7 74.0999C43.8 73.7999 43.8 73.6 43.9 73.3C39.7 73.2 35.6 73.1 31.4 73C30.9 73 30.9 73.8 31.4 73.8C35.6 73.9 39.7 73.9999 43.9 74.0999C44.3 74.0999 44.4 73.5 44.1 73.3C42.6 72.4 40.7 72.2 39 71.9C37.3 71.7 35.5 71.3999 34.4 70.0999C34.3 70.2999 34.2 70.6 34.1 70.8C39 70.3 43.9 70.2999 48.8 70.5999C49.3 70.5999 49.3 69.8 48.8 69.8Z" fill="#6D1111"/>
<path d="M34.6 85.7C33.1 84.3 31.3 83.3 29.4 82.8C28.9 82.7 28.7 83.4 29.2 83.6C31 84.1 32.6 85.1 34 86.3C34.5 86.6 35 86 34.6 85.7Z" fill="#6D1111"/>
<path d="M32.2 102.1C33.7 103.3 35.6 103.8 37.4 104.5C39.2 105.2 41.1 106.1 42 107.8C42.1 108 42.2 108.2 42.2 108.4C42.1 108.8 41.5 108.9 41.1 108.9C38.1 108.7 35 106.6 32.2 107.7V102.1Z" fill="#FED5B7"/>
<path d="M40.9 53.6C40.1 54.8 39.4 56.1 38.9 57.5C38.8 57.7 39 57.9 39.2 58C39.4 58.1 39.6 57.9 39.7 57.7C40.2 56.4 40.9 55.1 41.6 54C41.7 53.8 41.6 53.5 41.5 53.4C41.2 53.4 41 53.4 40.9 53.6Z" fill="#6D1111"/>
<path d="M38.5 54.3C38.2 55 37.9 55.6 37.5 56.3C37.4 56.5 37.4 56.7 37.6 56.9C37.8 57 38.1 57 38.2 56.8C38.5 56.1 38.8 55.5 39.2 54.8C39.3 54.6 39.3 54.4 39.1 54.2C38.9 54.1 38.6 54.1 38.5 54.3Z" fill="#6D1111"/>
<path d="M36 57.8C35.9 58.2 35.7 58.5 35.6 58.9C35.6 59 35.6 59.1 35.6 59.2C35.6 59.3 35.7 59.4 35.8 59.4C35.9 59.4 36 59.4 36.1 59.4C36.2 59.3 36.2 59.3 36.3 59.2C36.4 58.8 36.6 58.5 36.7 58.1C36.7 58 36.7 57.9 36.7 57.8C36.7 57.7 36.6 57.6 36.5 57.6C36.4 57.6 36.3 57.6 36.2 57.6C36.1 57.6 36 57.7 36 57.8Z" fill="#6D1111"/>
<path d="M28.5 50.4001C28.1 51.2001 27.7 52.1001 27.3 52.9001C27.2 53.1001 27.2 53.3001 27.4 53.5001C27.6 53.6001 27.9 53.6001 28 53.4001C28.4 52.6001 28.8 51.7001 29.2 50.9001C29.3 50.7001 29.3 50.5001 29.1 50.3001C28.9 50.2001 28.6 50.2001 28.5 50.4001Z" fill="#6D1111"/>
<path d="M26.6 51.9001C26.4 52.3001 26.2 52.6001 25.9 53.0001C25.8 53.2001 25.9 53.5001 26 53.6001C26.2 53.7001 26.4 53.6001 26.6 53.5001C26.8 53.1001 27 52.8001 27.3 52.4001C27.4 52.2001 27.3 51.9001 27.2 51.8001C26.9 51.7001 26.7 51.7001 26.6 51.9001Z" fill="#6D1111"/>
<path d="M24.7 47.6C24.7 47.7 24.7 47.8 24.7 47.9C24.7 47.9 24.7 48.1 24.7 48V48.1C24.7 48.3 24.6 48.4 24.6 48.6C24.6 48.6 24.6 48.7 24.5 48.7C24.5 48.8 24.4 48.9 24.4 48.9C24.4 49 24.3 49 24.3 49.1C24.3 49.1 24.3 49.1 24.3 49.2L24.2 49.3C24.1 49.5 24 49.7 24.2 49.9C24.4 50 24.6 50.1 24.8 49.9C25.3 49.3 25.7 48.5 25.7 47.7C25.7 47.5 25.5 47.3 25.3 47.3C24.9 47.2 24.7 47.4 24.7 47.6Z" fill="#6D1111"/>
<path d="M36.4 92.0999C35.1 91.5999 33.7 91.1999 32.4 90.6999C32.2 90.5999 32 90.7999 31.9 90.9999C31.8 91.1999 32 91.3999 32.2 91.4999C33.5 91.9999 34.9 92.3999 36.2 92.8999C36.4 92.9999 36.6 92.7999 36.7 92.5999C36.8 92.3999 36.6 92.1999 36.4 92.0999Z" fill="#4D3E25"/>
<path d="M33.9 93.4999C32.8 93.0999 31.6 92.8999 30.4 93.0999C30.2 93.0999 30 93.2999 30 93.4999C30 93.6999 30.2 93.8999 30.4 93.8999C31.5 93.7999 32.7 93.8999 33.7 94.2999C33.9 94.3999 34.1 94.1999 34.2 93.9999C34.3 93.6999 34.2 93.4999 33.9 93.4999Z" fill="#4D3E25"/>
<path d="M23.3 192.6C19.2 190.4 15.2 188.2 11.1 186C10.6 185.8 10.2 186.5 10.7 186.7C14.8 188.9 18.8 191.1 22.9 193.3C23.3 193.6 23.7 192.9 23.3 192.6Z" fill="#33240E"/>
<path d="M21 189.1C18.4 187.3 15.7 185.7 12.9 184.2C12.4 184 12 184.7 12.5 184.9C15.3 186.4 18 188 20.6 189.8C21 190.1 21.4 189.3 21 189.1Z" fill="#33240E"/>
<path d="M21.5 172.6C20.5 176.9 18.8 181 16.7 184.9C16.4 185.4 17.2 185.8 17.4 185.3C19.6 181.4 21.2 177.2 22.3 172.8C22.4 172.3 21.7 172.1 21.5 172.6Z" fill="#33240E"/>
<path d="M55.3 215.9C49.1 215.7 42.9 215.1 36.8 213.9C35.1 213.6 33.3 213.2 31.6 212.8C31.1 212.7 30.9 213.5 31.4 213.6C37.5 215.1 43.7 216 50 216.5C51.8 216.6 53.6 216.7 55.3 216.8C55.8 216.7 55.8 215.9 55.3 215.9Z" fill="white"/>
<path d="M31.5 209.8C33.3 210.4 34.7 212 34.9 213.9C34.9 214.1 35.1 214.3 35.3 214.3C35.5 214.3 35.7 214.1 35.7 213.9C35.5 211.6 33.9 209.7 31.7 209C31.2 208.9 31 209.7 31.5 209.8Z" fill="white"/>
<path d="M49.4 213.1C48.2 213.4 47.1 214 46.3 214.9C46.2 215.1 46.1 215.3 46.3 215.5C46.5 215.6 46.7 215.7 46.9 215.5C47.6 214.7 48.6 214.1 49.6 213.9C49.8 213.8 49.9 213.6 49.9 213.4C49.8 213.2 49.6 213 49.4 213.1Z" fill="white"/>
<path d="M36.3 204.2C36.4 204.2 36.4 204.3 36.5 204.4L36.6 204.6C36.6 204.6 36.6 204.6 36.6 204.7V204.8V204.9V205C36.6 205.2 36.6 205.3 36.6 205.5V205.6C36.6 205.7 36.6 205.6 36.6 205.7C36.6 205.8 36.5 205.9 36.5 205.9C36.5 205.9 36.5 205.9 36.5 206L36.4 206.1L36.3 206.2L36.2 206.3C36.2 206.3 36.1 206.3 36.1 206.4C36.1 206.4 36 206.4 36 206.5C36 206.5 35.9 206.5 35.9 206.6C35.9 206.6 35.9 206.6 35.8 206.6C35.7 206.6 35.6 206.7 35.6 206.7H35.5C35.4 206.7 35.3 206.7 35.3 206.7H35.2C35.3 206.7 35.1 206.7 35.1 206.7C35 206.7 34.9 206.7 34.9 206.6C34.9 206.6 34.9 206.6 34.8 206.6C34.8 206.6 34.7 206.6 34.7 206.5C34.7 206.5 34.6 206.5 34.6 206.4L34.5 206.3L34.4 206.2C34.4 206.1 34.3 206.1 34.3 206C34.3 206 34.3 205.9 34.2 205.9C34.2 205.8 34.2 205.7 34.1 205.7V205.6C34.1 205.7 34.1 205.6 34.1 205.5C34.1 205.4 34.1 205.3 34.1 205.3V205.2V205.1C34.1 205 34.1 204.9 34.2 204.9C34.2 204.9 34.2 204.8 34.3 204.8C34.3 204.8 34.3 204.7 34.4 204.7L34.5 204.6C34.6 204.6 34.6 204.5 34.7 204.5H34.8H34.9C35 204.5 35.1 204.5 35.2 204.5C35.2 204.5 35.4 204.5 35.3 204.5H35.4C35.5 204.5 35.6 204.5 35.6 204.6C35.6 204.6 35.6 204.6 35.7 204.6C35.7 204.6 35.8 204.6 35.8 204.7C35.8 204.7 35.9 204.7 35.9 204.8C35.9 204.8 35.9 204.8 36 204.9L36.1 205C36.1 205 36.1 205 36.1 205.1C36.2 205.2 36.2 205.3 36.2 205.3C36.3 205.5 36.6 205.5 36.8 205.4C37 205.3 37 205 36.9 204.8C36.6 204 35.6 203.6 34.8 203.7C34.4 203.8 33.9 203.9 33.6 204.3C33.3 204.6 33.1 205.1 33.1 205.5C33 206.4 33.5 207.3 34.4 207.7C35.2 208 36.3 207.8 36.9 207.1C37.7 206.3 37.7 204.9 36.8 204.1C36.6 204 36.4 203.9 36.2 204.1C36.1 203.8 36.1 204 36.3 204.2Z" fill="white"/>
<path d="M18.8 217.8C14 214.5 9.10001 211.2 5.10001 206.9C4.00001 205.7 3.00001 204.4 2.10001 203C1.80001 202.6 1.10001 203 1.40001 203.4C4.80001 208.3 9.50001 212.1 14.3 215.6C15.7 216.6 17.1 217.5 18.5 218.5C18.8 218.8 19.2 218.1 18.8 217.8Z" fill="white"/>
<path d="M3 200C4.1 201.6 4.3 203.8 3.5 205.5C3.3 206 4 206.4 4.2 205.9C5.2 203.9 5 201.4 3.7 199.5C3.5 199.1 2.8 199.5 3 200Z" fill="white"/>
<path d="M16.7 213C15.4 212.8 14.1 213.3 13.1 214.1C12.9 214.2 13 214.5 13.1 214.7C13.3 214.9 13.5 214.8 13.7 214.7C14.5 214 15.6 213.7 16.7 213.8C16.9 213.8 17.1 213.6 17.1 213.4C17.1 213.2 16.9 213.1 16.7 213Z" fill="white"/>
<path d="M10.1 199.5C10.2 199.5 10.3 199.6 10.3 199.6C10.4 199.7 10.4 199.7 10.5 199.8C10.5 199.9 10.5 199.8 10.5 199.9V200C10.5 200 10.5 200 10.5 200.1C10.5 200.2 10.5 200.2 10.5 200.3C10.5 200.7 10.3 201 10 201.2C9.70001 201.5 9.40001 201.6 9.00001 201.7C8.90001 201.7 8.90001 201.7 8.80001 201.7C8.70001 201.7 8.60001 201.7 8.50001 201.7H8.40001H8.30001C8.20001 201.7 8.10001 201.6 8.00001 201.6H7.90001C7.90001 201.6 7.80001 201.6 7.80001 201.5C7.70001 201.4 7.70001 201.4 7.60001 201.3C7.50001 201.2 7.40001 201.1 7.30001 200.9C7.20001 200.8 7.20001 200.8 7.20001 200.7C7.20001 200.6 7.10001 200.5 7.10001 200.4V200.3V200.2C7.10001 200.1 7.10001 200 7.10001 199.9V199.8C7.10001 199.7 7.10001 199.7 7.10001 199.6C7.10001 199.5 7.20001 199.4 7.20001 199.3V199.2C7.20001 199.2 7.20001 199.1 7.30001 199.1L7.40001 199C7.40001 199 7.40001 199 7.40001 198.9C7.60001 198.7 7.70001 198.6 7.80001 198.5C7.90001 198.4 7.90001 198.4 8.00001 198.4C8.10001 198.4 8.20001 198.3 8.30001 198.3C8.20001 198.3 8.40001 198.3 8.30001 198.3H8.40001C8.50001 198.3 8.50001 198.3 8.60001 198.3C8.70001 198.3 8.70001 198.3 8.80001 198.3C8.80001 198.3 8.80001 198.3 8.90001 198.3C9.00001 198.3 9.10001 198.3 9.20001 198.4C9.30001 198.4 9.30001 198.4 9.40001 198.5H9.50001C9.60001 198.6 9.70001 198.6 9.80001 198.7C9.80001 198.7 9.90001 198.8 10 198.9L10.1 199C10.1 199 10.1 199 10.1 199.1C10.1 199.2 10.2 199.2 10.2 199.3C10.2 199.3 10.2 199.3 10.2 199.4C10.2 199.4 10.3 199.5 10.2 199.5C10.3 199.7 10.5 199.8 10.7 199.8C10.9 199.7 11.1 199.5 11 199.3C10.6 198.3 9.50001 197.6 8.40001 197.7C7.30001 197.7 6.30001 198.5 6.10001 199.6C5.90001 200.7 6.20001 201.9 7.20001 202.5C8.20001 203.1 9.40001 202.9 10.2 202.2C10.7 201.8 11 201.3 11 200.6C11.1 200 10.8 199.3 10.2 199C10 198.9 9.80001 198.9 9.60001 199.1C9.80001 199.1 9.90001 199.4 10.1 199.5Z" fill="white"/>
</svg>
