<?xml version="1.0" standalone="no"?>
<!DOCTYPE svg PUBLIC "-//W3C//DTD SVG 20010904//EN"
 "http://www.w3.org/TR/2001/REC-SVG-20010904/DTD/svg10.dtd">
<svg version="1.0" xmlns="http://www.w3.org/2000/svg"
 width="512.000000pt" height="512.000000pt" viewBox="0 0 512.000000 512.000000"
 preserveAspectRatio="xMidYMid meet">

<g transform="translate(0.000000,512.000000) scale(0.100000,-0.100000)"
fill="#000000" stroke="none">
<path d="M2615 4361 c-16 -4 -51 -19 -76 -32 -99 -52 -2425 -1576 -2462 -1614
-47 -47 -77 -107 -77 -155 0 -48 30 -108 77 -155 40 -40 2369 -1566 2470
-1618 64 -33 162 -46 216 -28 44 15 108 84 127 138 11 30 15 148 17 561 2 287
6 522 9 522 3 0 413 -266 911 -591 498 -325 926 -600 951 -611 25 -12 74 -23
108 -26 114 -9 186 49 219 175 23 86 23 3180 0 3266 -33 126 -105 184 -219
175 -34 -3 -83 -14 -108 -26 -25 -11 -453 -286 -951 -611 -498 -325 -908 -591
-911 -591 -3 0 -7 235 -9 523 -2 409 -6 530 -17 560 -18 50 -76 116 -117 133
-34 15 -108 17 -158 5z"/>
</g>
</svg>
