<svg height="512" viewBox="0 0 24 24" width="512" xmlns="http://www.w3.org/2000/svg"><g id="fast_backward"><g><path d="m10.5673828 10.5517578 8.9794922-8.0820313c.4316406-.3876952.8378906-.4697265 1.1025391-.4697265.6503906 0 1.3505859.4892578 1.3505859 1.5625v16.875c0 1.0732422-.7001953 1.5625-1.3505859 1.5625-.2646484 0-.6708984-.0820313-1.1025391-.4697266l-8.9785156-8.0820313c-.4169922-.3740233-.6552735-.9013671-.6552735-1.4482421s.2382813-1.0742187.6542969-1.4482422z" fill="#1976d2"/><path d="m2.6542969 10.5517578 8.9794922-8.0820313c.430664-.3876952.836914-.4697265 1.1015625-.4697265.6503906 0 1.3505859.4892578 1.3505859 1.5625v16.875c0 1.0732422-.6992188 1.5625-1.3496094 1.5625-.0009766 0-.0009766 0-.0009766 0-.2646484 0-.6708984-.0820313-1.1025391-.4697266l-8.9785156-8.0820313c-.4160155-.3740233-.6542968-.9013671-.6542968-1.4482421s.2382813-1.0742187.6542969-1.4482422z" fill="#2196f3"/></g></g></svg>