<?xml version="1.0" encoding="UTF-8"?>
<!-- Generator: CustomSymbols v2.6.7.45 by @serious_bret https://bretlester.com/app_content/CustomSymbols/ -->
<!-- Guides: Left/Right 0.0/0.0 Cap/Base 0.015/0.015 -->
<!-- Settings: RefScale 1.0 Min/Max Stroke Scales 0.5/2.21 -->
<!DOCTYPE svg
PUBLIC "-//W3C//DTD SVG 1.1//EN"
       "http://www.w3.org/Graphics/SVG/1.1/DTD/svg11.dtd">
<svg version="1.1" xmlns="http://www.w3.org/2000/svg" xmlns:xlink="http://www.w3.org/1999/xlink" width="3300" height="2200">
<![CDATA[<?xml version="1.0" encoding="iso-8859-1"?>
<!-- Generator: Adobe Illustrator 19.0.0, SVG Export Plug-In . SVG Version: 6.00 Build 0)  -->
<svg version="1.1" id="Capa_1" xmlns="http://www.w3.org/2000/svg" xmlns:xlink="http://www.w3.org/1999/xlink" x="0px" y="0px"
	 viewBox="0 0 512 512" style="enable-background:new 0 0 512 512;" xml:space="preserve">
<path style="fill:#FEC478;" d="M467,155.779H321.21l-47.52-47.5c-27.13-27.15-70.14-29.49-100.08-5.62l-107.99,86.4
	c-3.54,2.86-5.62,7.16-5.62,11.72v180c0,6.08,3.66,11.56,9.29,13.87l5.21,2.14c47.76,19.23,98.41,28.99,150.5,28.99h60
	c24.81,0,45-20.19,45-45c0-5.84-1.11-11.44-3.16-16.58c19.1-5.2,33.16-22.71,33.16-43.42c0-5.84-1.11-11.44-3.16-16.58
	c8.49-2.31,15.98-7.05,21.67-13.42c7.15-7.97,11.49-18.49,11.49-30c0-5.26-0.91-10.31-2.58-15H467c24.81,0,45-20.19,45-45
	S491.81,155.779,467,155.779z"/>
<path style="fill:#FEB756;" d="M356.84,304.199c2.05,5.14,3.16,10.74,3.16,16.58c0,20.71-14.06,38.22-33.16,43.42
	c2.05,5.14,3.16,10.74,3.16,16.58c0,24.81-20.19,45-45,45h-60c-52.09,0-102.74-9.76-150.5-28.99l-5.21-2.14
	c-5.63-2.31-9.29-7.79-9.29-13.87v-90h318.51C372.82,297.15,365.33,301.889,356.84,304.199z"/>
<path style="fill:#FD003A;" d="M45,425.779H15c-8.291,0-15-6.709-15-15v-240c0-8.291,6.709-15,15-15h30c24.814,0,45,20.186,45,45
	v180C90,405.594,69.814,425.779,45,425.779z"/>
<path style="fill:#E50027;" d="M0,290.779v120c0,8.291,6.709,15,15,15h30c24.814,0,45-20.186,45-45v-90H0z"/>
<g>
</g>
<g>
</g>
<g>
</g>
<g>
</g>
<g>
</g>
<g>
</g>
<g>
</g>
<g>
</g>
<g>
</g>
<g>
</g>
<g>
</g>
<g>
</g>
<g>
</g>
<g>
</g>
<g>
</g>
</svg>
]]>
 <g id="Notes">
  <rect height="2200" id="artboard" style="fill:white;opacity:1" width="3300" x="0" y="0"/>
  <line id="" style="fill:none;stroke:black;opacity:1;stroke-width:0.5;" x1="263" x2="3036" y1="292" y2="292"/>
  <text id="reftext1" style="stroke:none;fill:black;font-family:-apple-system,&quot;SF Pro Display&quot;,&quot;SF Pro Text&quot;,Helvetica,sans-serif;font-weight:bold;" transform="matrix(1 0 0 1 263 322)">Weight/Scale Variations</text>
  <text id="reftext2" style="stroke:none;fill:black;font-family:-apple-system,&quot;SF Pro Display&quot;,&quot;SF Pro Text&quot;,Helvetica,sans-serif;text-anchor:middle;" transform="matrix(1 0 0 1 559.711 322)">Ultralight</text>
  <text style="stroke:none;fill:black;font-family:-apple-system,&quot;SF Pro Display&quot;,&quot;SF Pro Text&quot;,Helvetica,sans-serif;text-anchor:middle;" transform="matrix(1 0 0 1 856.422 322)">Thin</text>
  <text style="stroke:none;fill:black;font-family:-apple-system,&quot;SF Pro Display&quot;,&quot;SF Pro Text&quot;,Helvetica,sans-serif;text-anchor:middle;" transform="matrix(1 0 0 1 1153.13 322)">Light</text>
  <text style="stroke:none;fill:black;font-family:-apple-system,&quot;SF Pro Display&quot;,&quot;SF Pro Text&quot;,Helvetica,sans-serif;text-anchor:middle;" transform="matrix(1 0 0 1 1449.84 322)">Regular</text>
  <text style="stroke:none;fill:black;font-family:-apple-system,&quot;SF Pro Display&quot;,&quot;SF Pro Text&quot;,Helvetica,sans-serif;text-anchor:middle;" transform="matrix(1 0 0 1 1746.56 322)">Medium</text>
  <text style="stroke:none;fill:black;font-family:-apple-system,&quot;SF Pro Display&quot;,&quot;SF Pro Text&quot;,Helvetica,sans-serif;text-anchor:middle;" transform="matrix(1 0 0 1 2043.27 322)">Semibold</text>
  <text style="stroke:none;fill:black;font-family:-apple-system,&quot;SF Pro Display&quot;,&quot;SF Pro Text&quot;,Helvetica,sans-serif;text-anchor:middle;" transform="matrix(1 0 0 1 2339.98 322)">Bold</text>
  <text style="stroke:none;fill:black;font-family:-apple-system,&quot;SF Pro Display&quot;,&quot;SF Pro Text&quot;,Helvetica,sans-serif;text-anchor:middle;" transform="matrix(1 0 0 1 2636.69 322)">Heavy</text>
  <text style="stroke:none;fill:black;font-family:-apple-system,&quot;SF Pro Display&quot;,&quot;SF Pro Text&quot;,Helvetica,sans-serif;text-anchor:middle;" transform="matrix(1 0 0 1 2933.4 322)">Black</text>
  <line id="" style="fill:none;stroke:black;opacity:1;stroke-width:0.5;" x1="263" x2="3036" y1="1903" y2="1903"/>
  <g id="" transform="matrix(1 0 0 1 263 1933)">
   <path d="M9.24805 0.830078C13.5547 0.830078 17.1387-2.74414 17.1387-7.05078C17.1387-11.3574 13.5449-14.9316 9.23828-14.9316C4.94141-14.9316 1.36719-11.3574 1.36719-7.05078C1.36719-2.74414 4.95117 0.830078 9.24805 0.830078ZM9.24805-0.654297C5.70312-0.654297 2.87109-3.49609 2.87109-7.05078C2.87109-10.6055 5.69336-13.4473 9.23828-13.4473C12.793-13.4473 15.6348-10.6055 15.6445-7.05078C15.6543-3.49609 12.8027-0.654297 9.24805-0.654297ZM6.39648-6.31836L8.50586-6.31836L8.50586-4.19922C8.50586-3.75977 8.79883-3.45703 9.22852-3.45703C9.67773-3.45703 9.9707-3.75977 9.9707-4.19922L9.9707-6.31836L12.0996-6.31836C12.5391-6.31836 12.8418-6.61133 12.8418-7.04102C12.8418-7.48047 12.5391-7.7832 12.0996-7.7832L9.9707-7.7832L9.9707-9.89258C9.9707-10.3418 9.67773-10.6445 9.22852-10.6445C8.79883-10.6445 8.50586-10.3418 8.50586-9.89258L8.50586-7.7832L6.39648-7.7832C5.94727-7.7832 5.64453-7.48047 5.64453-7.04102C5.64453-6.61133 5.94727-6.31836 6.39648-6.31836Z"/>
  </g>
  <g id="" transform="matrix(1 0 0 1 281.506 1933)">
   <path d="M11.709 2.91016C17.1582 2.91016 21.6699-1.61133 21.6699-7.05078C21.6699-12.5 17.1484-17.0117 11.6992-17.0117C6.25977-17.0117 1.74805-12.5 1.74805-7.05078C1.74805-1.61133 6.26953 2.91016 11.709 2.91016ZM11.709 1.25C7.09961 1.25 3.41797-2.44141 3.41797-7.05078C3.41797-11.6602 7.08984-15.3516 11.6992-15.3516C16.3086-15.3516 20-11.6602 20.0098-7.05078C20.0195-2.44141 16.3184 1.25 11.709 1.25ZM7.98828-6.23047L10.8789-6.23047L10.8789-3.32031C10.8789-2.83203 11.2109-2.5 11.6895-2.5C12.1777-2.5 12.5195-2.83203 12.5195-3.32031L12.5195-6.23047L15.4297-6.23047C15.918-6.23047 16.25-6.5625 16.25-7.04102C16.25-7.5293 15.918-7.87109 15.4297-7.87109L12.5195-7.87109L12.5195-10.7617C12.5195-11.2695 12.1777-11.6016 11.6895-11.6016C11.2109-11.6016 10.8789-11.2598 10.8789-10.7617L10.8789-7.87109L7.98828-7.87109C7.48047-7.87109 7.14844-7.5293 7.14844-7.04102C7.14844-6.5625 7.49023-6.23047 7.98828-6.23047Z"/>
  </g>
  <g id="" transform="matrix(1 0 0 1 304.924 1933)">
   <path d="M14.9707 5.66406C21.9336 5.66406 27.6953-0.0976562 27.6953-7.05078C27.6953-14.0137 21.9238-19.7754 14.9609-19.7754C8.00781-19.7754 2.25586-14.0137 2.25586-7.05078C2.25586-0.0976562 8.01758 5.66406 14.9707 5.66406ZM14.9707 3.84766C8.93555 3.84766 4.08203-1.01562 4.08203-7.05078C4.08203-13.0957 8.92578-17.9492 14.9609-17.9492C21.0059-17.9492 25.8594-13.0957 25.8691-7.05078C25.8789-1.01562 21.0156 3.84766 14.9707 3.84766ZM10.0586-6.14258L14.0625-6.14258L14.0625-2.12891C14.0625-1.5918 14.4336-1.2207 14.9512-1.2207C15.4883-1.2207 15.8594-1.5918 15.8594-2.12891L15.8594-6.14258L19.8828-6.14258C20.4102-6.14258 20.791-6.51367 20.791-7.03125C20.791-7.56836 20.4199-7.94922 19.8828-7.94922L15.8594-7.94922L15.8594-11.9531C15.8594-12.5098 15.4883-12.8809 14.9512-12.8809C14.4336-12.8809 14.0625-12.5 14.0625-11.9531L14.0625-7.94922L10.0586-7.94922C9.50195-7.94922 9.13086-7.56836 9.13086-7.03125C9.13086-6.51367 9.51172-6.14258 10.0586-6.14258Z"/>
  </g>
  <text style="stroke:none;fill:black;font-family:-apple-system,&quot;SF Pro Display&quot;,&quot;SF Pro Text&quot;,Helvetica,sans-serif;font-weight:bold;" transform="matrix(1 0 0 1 263 1953)">Design Variations</text>
  <text style="stroke:none;fill:black;font-family:-apple-system,&quot;SF Pro Display&quot;,&quot;SF Pro Text&quot;,Helvetica,sans-serif;" transform="matrix(1 0 0 1 263 1971)">Symbols are supported in up to nine weights and three scales.</text>
  <text style="stroke:none;fill:black;font-family:-apple-system,&quot;SF Pro Display&quot;,&quot;SF Pro Text&quot;,Helvetica,sans-serif;" transform="matrix(1 0 0 1 263 1989)">For optimal layout with text and other symbols, vertically align</text>
  <text style="stroke:none;fill:black;font-family:-apple-system,&quot;SF Pro Display&quot;,&quot;SF Pro Text&quot;,Helvetica,sans-serif;" transform="matrix(1 0 0 1 263 2007)">symbols with the adjacent text.</text>
  <line id="" style="fill:none;stroke:#00AEEF;stroke-width:0.5;opacity:1.0;" x1="776" x2="776" y1="1919" y2="1933"/>
  <g id="" transform="matrix(1 0 0 1 776 1933)">
   <path d="M3.31055 0.126953C3.82812 0.126953 4.08203-0.0683594 4.26758-0.605469L5.52734-4.0625L11.2891-4.0625L12.5488-0.605469C12.7344-0.0683594 12.9883 0.126953 13.4961 0.126953C14.0137 0.126953 14.3457-0.185547 14.3457-0.673828C14.3457-0.839844 14.3164-0.986328 14.2383-1.20117L9.6582-13.3887C9.43359-13.9941 9.0332-14.2871 8.4082-14.2871C7.80273-14.2871 7.39258-13.9941 7.17773-13.3984L2.59766-1.19141C2.51953-0.976562 2.49023-0.830078 2.49023-0.664062C2.49023-0.175781 2.80273 0.126953 3.31055 0.126953ZM6.00586-5.53711L8.37891-12.1094L8.42773-12.1094L10.8008-5.53711Z"/>
  </g>
  <line id="" style="fill:none;stroke:#00AEEF;stroke-width:0.5;opacity:1.0;" x1="792.836" x2="792.836" y1="1919" y2="1933"/>
  <text style="stroke:none;fill:black;font-family:-apple-system,&quot;SF Pro Display&quot;,&quot;SF Pro Text&quot;,Helvetica,sans-serif;font-weight:bold;" transform="matrix(1 0 0 1 776 1953)">Margins</text>
  <text style="stroke:none;fill:black;font-family:-apple-system,&quot;SF Pro Display&quot;,&quot;SF Pro Text&quot;,Helvetica,sans-serif;" transform="matrix(1 0 0 1 776 1971)">Leading and trailing margins on the left and right side of each symbol</text>
  <text style="stroke:none;fill:black;font-family:-apple-system,&quot;SF Pro Display&quot;,&quot;SF Pro Text&quot;,Helvetica,sans-serif;" transform="matrix(1 0 0 1 776 1989)">can be adjusted by modifying the x-location of the margin guidelines.</text>
  <text style="stroke:none;fill:black;font-family:-apple-system,&quot;SF Pro Display&quot;,&quot;SF Pro Text&quot;,Helvetica,sans-serif;" transform="matrix(1 0 0 1 776 2007)">Modifications are automatically applied proportionally to all</text>
  <text style="stroke:none;fill:black;font-family:-apple-system,&quot;SF Pro Display&quot;,&quot;SF Pro Text&quot;,Helvetica,sans-serif;" transform="matrix(1 0 0 1 776 2025)">scales and weights.</text>
  <g id="" transform="matrix(1 0 0 1 1289 1933)">
   <path d="M2.8418 1.86523L4.54102 3.57422C5.40039 4.44336 6.38672 4.38477 7.31445 3.35938L17.4902-7.85156C17.7539-7.76367 18.0273-7.7832 18.3398-7.8418L19.4043-8.03711L20.0684-7.36328L20.0293-6.80664C19.9902-6.30859 20.1172-5.92773 20.6055-5.44922L21.3672-4.70703C21.8457-4.22852 22.4609-4.19922 22.9297-4.66797L25.8398-7.58789C26.3086-8.05664 26.2891-8.65234 25.8105-9.13086L25.0391-9.89258C24.5605-10.3711 24.1895-10.5273 23.7109-10.4883L23.1348-10.4395L22.4902-11.0742L22.7344-12.1973C22.8613-12.7637 22.7051-13.2031 22.1191-13.7891L19.9219-15.9766C16.582-19.2969 12.1484-19.2188 9.25781-16.3281C8.83789-15.918 8.80859-15.3418 9.04297-14.9512C9.27734-14.5898 9.73633-14.3555 10.3809-14.5215C11.8457-14.8633 13.3691-14.9219 14.7949-13.9844L14.209-12.5293C14.0137-12.0508 13.9844-11.6504 14.1113-11.2891L3.04688-0.898438C2.06055 0.0195312 1.98242 0.996094 2.8418 1.86523ZM10.752-15.957C13.1836-17.7344 16.4746-17.4316 18.7012-15.2051L21.1328-12.793C21.3672-12.5586 21.4062-12.373 21.3379-12.0312L21.0156-10.5469L22.5195-9.0625L23.5059-9.12109C23.7598-9.13086 23.8379-9.11133 24.0332-8.91602L24.6094-8.33984L22.168-5.89844L21.5918-6.47461C21.3965-6.66992 21.3672-6.74805 21.377-7.01172L21.4453-7.98828L19.9512-9.47266L18.4277-9.21875C18.1055-9.15039 17.959-9.17969 17.7148-9.41406L15.7129-11.416C15.459-11.6504 15.4297-11.8164 15.5859-12.1875L16.4648-14.2773C14.9023-15.7324 12.8711-16.3574 10.8398-15.7617C10.6836-15.7227 10.625-15.8496 10.752-15.957ZM5.27344 2.30469L4.10156 1.14258C3.63281 0.683594 3.74023 0.341797 4.14062-0.0195312L14.9512-10.1953L16.416-8.71094L6.42578 2.27539C6.07422 2.67578 5.74219 2.77344 5.27344 2.30469Z"/>
  </g>
  <text style="stroke:none;fill:black;font-family:-apple-system,&quot;SF Pro Display&quot;,&quot;SF Pro Text&quot;,Helvetica,sans-serif;font-weight:bold;" transform="matrix(1 0 0 1 1289 1953)">Exporting</text>
  <text style="stroke:none;fill:black;font-family:-apple-system,&quot;SF Pro Display&quot;,&quot;SF Pro Text&quot;,Helvetica,sans-serif;" transform="matrix(1 0 0 1 1289 1971)">Symbols should be outlined when exporting to ensure the</text>
  <text style="stroke:none;fill:black;font-family:-apple-system,&quot;SF Pro Display&quot;,&quot;SF Pro Text&quot;,Helvetica,sans-serif;" transform="matrix(1 0 0 1 1289 1989)">design is preserved when submitting to Xcode.</text>
  <text id="template-version" style="stroke:none;fill:black;font-family:-apple-system,&quot;SF Pro Display&quot;,&quot;SF Pro Text&quot;,Helvetica,sans-serif;text-anchor:end;" transform="matrix(1 0 0 1 3036 1933)">Template v.2.0</text>
  <text style="stroke:none;fill:black;font-family:-apple-system,&quot;SF Pro Display&quot;,&quot;SF Pro Text&quot;,Helvetica,sans-serif;text-anchor:end;" transform="matrix(1 0 0 1 3036 1951)">Requires Xcode 12 or greater</text>
  <text style="stroke:none;fill:black;font-family:-apple-system,&quot;SF Pro Display&quot;,&quot;SF Pro Text&quot;,Helvetica,sans-serif;" transform="matrix(1 0 0 1 263 726)">Small</text>
  <text style="stroke:none;fill:black;font-family:-apple-system,&quot;SF Pro Display&quot;,&quot;SF Pro Text&quot;,Helvetica,sans-serif;" transform="matrix(1 0 0 1 263 1156)">Medium</text>
  <text style="stroke:none;fill:black;font-family:-apple-system,&quot;SF Pro Display&quot;,&quot;SF Pro Text&quot;,Helvetica,sans-serif;" transform="matrix(1 0 0 1 263 1586)">Large</text>
 </g>
 <g id="Guides">
  <g id="H-reference" style="fill:#27AAE1;stroke:none;" transform="matrix(1 0 0 1 339 696)">
   <path d="M0.976562 0L3.66211 0L12.9883-24.4629L45.752-24.4629L55.127 0L57.7637 0L30.6152-70.459L28.125-70.459ZM29.3457-67.1387L29.4434-67.1387L44.873-26.709L13.8672-26.709Z"/>
  </g>
  <line id="Baseline-S" style="fill:none;stroke:#27AAE1;opacity:1;stroke-width:0.5;" x1="263" x2="3036" y1="696" y2="696"/>
  <line id="Capline-S" style="fill:none;stroke:#27AAE1;opacity:1;stroke-width:0.5;" x1="263" x2="3036" y1="625.541" y2="625.541"/>
  <g id="H-reference" style="fill:#27AAE1;stroke:none;" transform="matrix(1 0 0 1 339 1126)">
   <path d="M0.976562 0L3.66211 0L12.9883-24.4629L45.752-24.4629L55.127 0L57.7637 0L30.6152-70.459L28.125-70.459ZM29.3457-67.1387L29.4434-67.1387L44.873-26.709L13.8672-26.709Z"/>
  </g>
  <line id="Baseline-M" style="fill:none;stroke:#27AAE1;opacity:1;stroke-width:0.5;" x1="263" x2="3036" y1="1126" y2="1126"/>
  <line id="Capline-M" style="fill:none;stroke:#27AAE1;opacity:1;stroke-width:0.5;" x1="263" x2="3036" y1="1055.54" y2="1055.54"/>
  <g id="H-reference" style="fill:#27AAE1;stroke:none;" transform="matrix(1 0 0 1 339 1556)">
   <path d="M0.976562 0L3.66211 0L12.9883-24.4629L45.752-24.4629L55.127 0L57.7637 0L30.6152-70.459L28.125-70.459ZM29.3457-67.1387L29.4434-67.1387L44.873-26.709L13.8672-26.709Z"/>
  </g>
  <line id="Baseline-L" style="fill:none;stroke:#27AAE1;opacity:1;stroke-width:0.5;" x1="263" x2="3036" y1="1556" y2="1556"/>
  <line id="Capline-L" style="fill:none;stroke:#27AAE1;opacity:1;stroke-width:0.5;" x1="263" x2="3036" y1="1485.54" y2="1485.54"/>
  <line id="left-margin" x1="1414.8104325064432" x2="1414.8104325064432" y1="1030.79" y2="1150.12" style="fill:none;stroke:#00AEEF;stroke-width:0.5;opacity:1.0;"/>
  <line id="right-margin" x1="1487.4495674935565" x2="1487.4495674935565" y1="1030.79" y2="1150.12" style="fill:none;stroke:#00AEEF;stroke-width:0.5;opacity:1.0;"/>
 </g>
 <g id="Symbols">
  <g id="Black-L" transform="matrix(1.0,0.0,0.0,1.0,2887.8277579333117,1473.9177774645618)">  <path x="0px" stroke-width="1" stroke-linecap="butt" stroke-opacity="1" version="1.1" stroke="none" xmlns:xlink="http://www.w3.org/1999/xlink" y="0px" fill-rule="nonzero" stroke-dasharray="none" stroke-linejoin="miter" stroke-miterlimit="4" fill-opacity="1" fill="#fec478" xml:space="preserve" d="M85.469,28.51L58.787,28.51L50.09,19.817C45.125,14.848,37.253,14.42,31.774,18.788L12.01,34.601C11.362,35.124,10.981,35.911,10.981,36.746L10.981,69.689C10.981,70.802,11.651,71.805,12.681,72.227L13.635,72.619C22.376,76.138,31.645,77.925,41.179,77.925L52.16,77.925C56.7,77.925,60.395,74.23,60.395,69.689C60.395,68.62,60.192,67.595,59.817,66.654C63.313,65.703,65.886,62.498,65.886,58.708C65.886,57.639,65.683,56.614,65.308,55.673C66.861,55.251,68.232,54.383,69.274,53.217C70.582,51.759,71.376,49.833,71.376,47.727C71.376,46.764,71.21,45.84,70.904,44.982L85.469,44.982C90.009,44.982,93.704,41.287,93.704,36.746C93.704,32.205,90.009,28.51,85.469,28.51ZM85.469,28.51"/>
  <path stroke-opacity="1" y="0px" x="0px" fill-rule="nonzero" xmlns:xlink="http://www.w3.org/1999/xlink" xml:space="preserve" stroke-miterlimit="4" stroke-dasharray="none" stroke-linecap="butt" stroke="none" fill="#feb756" stroke-width="1" version="1.1" stroke-linejoin="miter" fill-opacity="1" d="M65.308,55.673C65.683,56.614,65.886,57.639,65.886,58.708C65.886,62.498,63.313,65.703,59.817,66.654C60.192,67.595,60.395,68.62,60.395,69.689C60.395,74.23,56.7,77.925,52.16,77.925L41.179,77.925C31.645,77.925,22.376,76.138,13.635,72.619L12.681,72.227C11.651,71.805,10.981,70.802,10.981,69.689L10.981,53.217L69.274,53.217C68.232,54.383,66.861,55.251,65.308,55.673ZM65.308,55.673"/>
  <path stroke-miterlimit="4" stroke-linejoin="miter" xmlns:xlink="http://www.w3.org/1999/xlink" stroke-opacity="1" x="0px" stroke-width="1" stroke="none" stroke-dasharray="none" fill="#fd003a" fill-opacity="1" stroke-linecap="butt" y="0px" xml:space="preserve" fill-rule="nonzero" version="1.1" d="M8.236,77.925L2.745,77.925C1.228,77.925,0,76.697,0,75.179L0,31.255C0,29.738,1.228,28.51,2.745,28.51L8.236,28.51C12.777,28.51,16.471,32.205,16.471,36.746L16.471,69.689C16.471,74.23,12.777,77.925,8.236,77.925ZM8.236,77.925"/>
  <path y="0px" x="0px" stroke-width="1" fill-opacity="1" stroke-opacity="1" stroke-miterlimit="4" stroke-linecap="butt" stroke="none" xmlns:xlink="http://www.w3.org/1999/xlink" xml:space="preserve" stroke-dasharray="none" fill="#e50027" version="1.1" fill-rule="nonzero" stroke-linejoin="miter" d="M0,53.217L0,75.179C0,76.697,1.228,77.925,2.745,77.925L8.236,77.925C12.777,77.925,16.471,74.23,16.471,69.689L16.471,53.217L0,53.217ZM0,53.217"/>
</g>
  <g id="Heavy-L" transform="matrix(1.0,0.0,0.0,1.0,2591.1177579333116,1473.9177774645618)">  <path y="0px" fill="#fec478" xmlns:xlink="http://www.w3.org/1999/xlink" fill-opacity="1" xml:space="preserve" x="0px" stroke-dasharray="none" stroke-linejoin="miter" stroke="none" stroke-opacity="1" stroke-linecap="butt" stroke-width="1" fill-rule="nonzero" version="1.1" stroke-miterlimit="4" d="M85.469,28.51L58.787,28.51L50.09,19.817C45.125,14.848,37.253,14.42,31.774,18.788L12.01,34.601C11.362,35.124,10.981,35.911,10.981,36.746L10.981,69.689C10.981,70.802,11.651,71.805,12.681,72.227L13.635,72.619C22.376,76.138,31.645,77.925,41.179,77.925L52.16,77.925C56.7,77.925,60.395,74.23,60.395,69.689C60.395,68.62,60.192,67.595,59.817,66.654C63.313,65.703,65.886,62.498,65.886,58.708C65.886,57.639,65.683,56.614,65.308,55.673C66.861,55.251,68.232,54.383,69.274,53.217C70.582,51.759,71.376,49.833,71.376,47.727C71.376,46.764,71.21,45.84,70.904,44.982L85.469,44.982C90.009,44.982,93.704,41.287,93.704,36.746C93.704,32.205,90.009,28.51,85.469,28.51ZM85.469,28.51"/>
  <path stroke="none" stroke-linejoin="miter" fill-opacity="1" xmlns:xlink="http://www.w3.org/1999/xlink" fill-rule="nonzero" stroke-dasharray="none" stroke-width="1" stroke-miterlimit="4" xml:space="preserve" fill="#feb756" stroke-linecap="butt" x="0px" stroke-opacity="1" y="0px" version="1.1" d="M65.308,55.673C65.683,56.614,65.886,57.639,65.886,58.708C65.886,62.498,63.313,65.703,59.817,66.654C60.192,67.595,60.395,68.62,60.395,69.689C60.395,74.23,56.7,77.925,52.16,77.925L41.179,77.925C31.645,77.925,22.376,76.138,13.635,72.619L12.681,72.227C11.651,71.805,10.981,70.802,10.981,69.689L10.981,53.217L69.274,53.217C68.232,54.383,66.861,55.251,65.308,55.673ZM65.308,55.673"/>
  <path fill-opacity="1" stroke-dasharray="none" stroke="none" y="0px" stroke-miterlimit="4" stroke-linecap="butt" xmlns:xlink="http://www.w3.org/1999/xlink" stroke-linejoin="miter" fill="#fd003a" stroke-opacity="1" xml:space="preserve" version="1.1" stroke-width="1" x="0px" fill-rule="nonzero" d="M8.236,77.925L2.745,77.925C1.228,77.925,0,76.697,0,75.179L0,31.255C0,29.738,1.228,28.51,2.745,28.51L8.236,28.51C12.777,28.51,16.471,32.205,16.471,36.746L16.471,69.689C16.471,74.23,12.777,77.925,8.236,77.925ZM8.236,77.925"/>
  <path stroke-opacity="1" stroke="none" fill-opacity="1" y="0px" x="0px" stroke-linecap="butt" xml:space="preserve" version="1.1" xmlns:xlink="http://www.w3.org/1999/xlink" fill-rule="nonzero" stroke-dasharray="none" stroke-linejoin="miter" stroke-miterlimit="4" fill="#e50027" stroke-width="1" d="M0,53.217L0,75.179C0,76.697,1.228,77.925,2.745,77.925L8.236,77.925C12.777,77.925,16.471,74.23,16.471,69.689L16.471,53.217L0,53.217ZM0,53.217"/>
</g>
  <g id="Bold-L" transform="matrix(1.0,0.0,0.0,1.0,2294.4077579333116,1473.9177774645618)">  <path fill="#fec478" xml:space="preserve" version="1.1" x="0px" stroke-width="1" stroke-opacity="1" fill-rule="nonzero" stroke-dasharray="none" stroke="none" fill-opacity="1" stroke-linejoin="miter" stroke-linecap="butt" xmlns:xlink="http://www.w3.org/1999/xlink" y="0px" stroke-miterlimit="4" d="M85.469,28.51L58.787,28.51L50.09,19.817C45.125,14.848,37.253,14.42,31.774,18.788L12.01,34.601C11.362,35.124,10.981,35.911,10.981,36.746L10.981,69.689C10.981,70.802,11.651,71.805,12.681,72.227L13.635,72.619C22.376,76.138,31.645,77.925,41.179,77.925L52.16,77.925C56.7,77.925,60.395,74.23,60.395,69.689C60.395,68.62,60.192,67.595,59.817,66.654C63.313,65.703,65.886,62.498,65.886,58.708C65.886,57.639,65.683,56.614,65.308,55.673C66.861,55.251,68.232,54.383,69.274,53.217C70.582,51.759,71.376,49.833,71.376,47.727C71.376,46.764,71.21,45.84,70.904,44.982L85.469,44.982C90.009,44.982,93.704,41.287,93.704,36.746C93.704,32.205,90.009,28.51,85.469,28.51ZM85.469,28.51"/>
  <path fill-opacity="1" xml:space="preserve" stroke-width="1" x="0px" fill-rule="nonzero" stroke-linecap="butt" stroke-miterlimit="4" stroke-linejoin="miter" y="0px" stroke-dasharray="none" version="1.1" fill="#feb756" stroke-opacity="1" stroke="none" xmlns:xlink="http://www.w3.org/1999/xlink" d="M65.308,55.673C65.683,56.614,65.886,57.639,65.886,58.708C65.886,62.498,63.313,65.703,59.817,66.654C60.192,67.595,60.395,68.62,60.395,69.689C60.395,74.23,56.7,77.925,52.16,77.925L41.179,77.925C31.645,77.925,22.376,76.138,13.635,72.619L12.681,72.227C11.651,71.805,10.981,70.802,10.981,69.689L10.981,53.217L69.274,53.217C68.232,54.383,66.861,55.251,65.308,55.673ZM65.308,55.673"/>
  <path xml:space="preserve" stroke-width="1" stroke-miterlimit="4" version="1.1" stroke="none" x="0px" fill-rule="nonzero" stroke-opacity="1" fill="#fd003a" fill-opacity="1" stroke-dasharray="none" stroke-linejoin="miter" y="0px" stroke-linecap="butt" xmlns:xlink="http://www.w3.org/1999/xlink" d="M8.236,77.925L2.745,77.925C1.228,77.925,0,76.697,0,75.179L0,31.255C0,29.738,1.228,28.51,2.745,28.51L8.236,28.51C12.777,28.51,16.471,32.205,16.471,36.746L16.471,69.689C16.471,74.23,12.777,77.925,8.236,77.925ZM8.236,77.925"/>
  <path stroke-miterlimit="4" stroke-linejoin="miter" version="1.1" xmlns:xlink="http://www.w3.org/1999/xlink" stroke-linecap="butt" stroke="none" fill-rule="nonzero" stroke-dasharray="none" xml:space="preserve" stroke-width="1" y="0px" x="0px" stroke-opacity="1" fill="#e50027" fill-opacity="1" d="M0,53.217L0,75.179C0,76.697,1.228,77.925,2.745,77.925L8.236,77.925C12.777,77.925,16.471,74.23,16.471,69.689L16.471,53.217L0,53.217ZM0,53.217"/>
</g>
  <g id="Semibold-L" transform="matrix(1.0,0.0,0.0,1.0,1997.6977579333118,1473.9177774645618)">  <path stroke="none" stroke-opacity="1" xmlns:xlink="http://www.w3.org/1999/xlink" x="0px" stroke-width="1" fill="#fec478" stroke-miterlimit="4" stroke-dasharray="none" version="1.1" stroke-linecap="butt" stroke-linejoin="miter" fill-opacity="1" y="0px" fill-rule="nonzero" xml:space="preserve" d="M85.469,28.51L58.787,28.51L50.09,19.817C45.125,14.848,37.253,14.42,31.774,18.788L12.01,34.601C11.362,35.124,10.981,35.911,10.981,36.746L10.981,69.689C10.981,70.802,11.651,71.805,12.681,72.227L13.635,72.619C22.376,76.138,31.645,77.925,41.179,77.925L52.16,77.925C56.7,77.925,60.395,74.23,60.395,69.689C60.395,68.62,60.192,67.595,59.817,66.654C63.313,65.703,65.886,62.498,65.886,58.708C65.886,57.639,65.683,56.614,65.308,55.673C66.861,55.251,68.232,54.383,69.274,53.217C70.582,51.759,71.376,49.833,71.376,47.727C71.376,46.764,71.21,45.84,70.904,44.982L85.469,44.982C90.009,44.982,93.704,41.287,93.704,36.746C93.704,32.205,90.009,28.51,85.469,28.51ZM85.469,28.51"/>
  <path stroke-dasharray="none" x="0px" xml:space="preserve" stroke-width="1" y="0px" stroke-miterlimit="4" stroke-opacity="1" stroke-linejoin="miter" version="1.1" xmlns:xlink="http://www.w3.org/1999/xlink" fill="#feb756" fill-opacity="1" stroke-linecap="butt" stroke="none" fill-rule="nonzero" d="M65.308,55.673C65.683,56.614,65.886,57.639,65.886,58.708C65.886,62.498,63.313,65.703,59.817,66.654C60.192,67.595,60.395,68.62,60.395,69.689C60.395,74.23,56.7,77.925,52.16,77.925L41.179,77.925C31.645,77.925,22.376,76.138,13.635,72.619L12.681,72.227C11.651,71.805,10.981,70.802,10.981,69.689L10.981,53.217L69.274,53.217C68.232,54.383,66.861,55.251,65.308,55.673ZM65.308,55.673"/>
  <path xmlns:xlink="http://www.w3.org/1999/xlink" xml:space="preserve" stroke-width="1" stroke-opacity="1" x="0px" fill-opacity="1" version="1.1" stroke-linecap="butt" stroke-linejoin="miter" stroke-dasharray="none" stroke="none" stroke-miterlimit="4" fill-rule="nonzero" fill="#fd003a" y="0px" d="M8.236,77.925L2.745,77.925C1.228,77.925,0,76.697,0,75.179L0,31.255C0,29.738,1.228,28.51,2.745,28.51L8.236,28.51C12.777,28.51,16.471,32.205,16.471,36.746L16.471,69.689C16.471,74.23,12.777,77.925,8.236,77.925ZM8.236,77.925"/>
  <path xmlns:xlink="http://www.w3.org/1999/xlink" stroke-dasharray="none" fill-rule="nonzero" fill="#e50027" stroke-width="1" version="1.1" x="0px" stroke-miterlimit="4" xml:space="preserve" y="0px" stroke-linecap="butt" stroke-opacity="1" fill-opacity="1" stroke-linejoin="miter" stroke="none" d="M0,53.217L0,75.179C0,76.697,1.228,77.925,2.745,77.925L8.236,77.925C12.777,77.925,16.471,74.23,16.471,69.689L16.471,53.217L0,53.217ZM0,53.217"/>
</g>
  <g id="Medium-L" transform="matrix(1.0,0.0,0.0,1.0,1700.9877579333117,1473.9177774645618)">  <path y="0px" stroke-width="1" x="0px" xml:space="preserve" stroke="none" xmlns:xlink="http://www.w3.org/1999/xlink" stroke-opacity="1" stroke-linecap="butt" fill="#fec478" version="1.1" stroke-dasharray="none" fill-opacity="1" stroke-linejoin="miter" stroke-miterlimit="4" fill-rule="nonzero" d="M85.469,28.51L58.787,28.51L50.09,19.817C45.125,14.848,37.253,14.42,31.774,18.788L12.01,34.601C11.362,35.124,10.981,35.911,10.981,36.746L10.981,69.689C10.981,70.802,11.651,71.805,12.681,72.227L13.635,72.619C22.376,76.138,31.645,77.925,41.179,77.925L52.16,77.925C56.7,77.925,60.395,74.23,60.395,69.689C60.395,68.62,60.192,67.595,59.817,66.654C63.313,65.703,65.886,62.498,65.886,58.708C65.886,57.639,65.683,56.614,65.308,55.673C66.861,55.251,68.232,54.383,69.274,53.217C70.582,51.759,71.376,49.833,71.376,47.727C71.376,46.764,71.21,45.84,70.904,44.982L85.469,44.982C90.009,44.982,93.704,41.287,93.704,36.746C93.704,32.205,90.009,28.51,85.469,28.51ZM85.469,28.51"/>
  <path stroke="none" stroke-miterlimit="4" stroke-width="1" stroke-dasharray="none" y="0px" stroke-linejoin="miter" stroke-opacity="1" fill-rule="nonzero" stroke-linecap="butt" xml:space="preserve" x="0px" fill="#feb756" version="1.1" xmlns:xlink="http://www.w3.org/1999/xlink" fill-opacity="1" d="M65.308,55.673C65.683,56.614,65.886,57.639,65.886,58.708C65.886,62.498,63.313,65.703,59.817,66.654C60.192,67.595,60.395,68.62,60.395,69.689C60.395,74.23,56.7,77.925,52.16,77.925L41.179,77.925C31.645,77.925,22.376,76.138,13.635,72.619L12.681,72.227C11.651,71.805,10.981,70.802,10.981,69.689L10.981,53.217L69.274,53.217C68.232,54.383,66.861,55.251,65.308,55.673ZM65.308,55.673"/>
  <path stroke-opacity="1" version="1.1" x="0px" fill="#fd003a" fill-rule="nonzero" stroke-miterlimit="4" stroke="none" stroke-linejoin="miter" stroke-linecap="butt" xmlns:xlink="http://www.w3.org/1999/xlink" y="0px" xml:space="preserve" stroke-width="1" stroke-dasharray="none" fill-opacity="1" d="M8.236,77.925L2.745,77.925C1.228,77.925,0,76.697,0,75.179L0,31.255C0,29.738,1.228,28.51,2.745,28.51L8.236,28.51C12.777,28.51,16.471,32.205,16.471,36.746L16.471,69.689C16.471,74.23,12.777,77.925,8.236,77.925ZM8.236,77.925"/>
  <path stroke-linecap="butt" y="0px" x="0px" fill-opacity="1" xmlns:xlink="http://www.w3.org/1999/xlink" stroke-width="1" fill="#e50027" stroke-linejoin="miter" stroke-opacity="1" version="1.1" fill-rule="nonzero" stroke-dasharray="none" stroke="none" xml:space="preserve" stroke-miterlimit="4" d="M0,53.217L0,75.179C0,76.697,1.228,77.925,2.745,77.925L8.236,77.925C12.777,77.925,16.471,74.23,16.471,69.689L16.471,53.217L0,53.217ZM0,53.217"/>
</g>
  <g id="Regular-L" transform="matrix(1.0,0.0,0.0,1.0,1404.2777579333117,1473.9177774645618)">  <path xmlns:xlink="http://www.w3.org/1999/xlink" fill-rule="nonzero" stroke="none" y="0px" stroke-miterlimit="4" fill="#fec478" version="1.1" fill-opacity="1" xml:space="preserve" stroke-opacity="1" x="0px" stroke-linecap="butt" stroke-linejoin="miter" stroke-dasharray="none" stroke-width="1" d="M85.469,28.51L58.787,28.51L50.09,19.817C45.125,14.848,37.253,14.42,31.774,18.788L12.01,34.601C11.362,35.124,10.981,35.911,10.981,36.746L10.981,69.689C10.981,70.802,11.651,71.805,12.681,72.227L13.635,72.619C22.376,76.138,31.645,77.925,41.179,77.925L52.16,77.925C56.7,77.925,60.395,74.23,60.395,69.689C60.395,68.62,60.192,67.595,59.817,66.654C63.313,65.703,65.886,62.498,65.886,58.708C65.886,57.639,65.683,56.614,65.308,55.673C66.861,55.251,68.232,54.383,69.274,53.217C70.582,51.759,71.376,49.833,71.376,47.727C71.376,46.764,71.21,45.84,70.904,44.982L85.469,44.982C90.009,44.982,93.704,41.287,93.704,36.746C93.704,32.205,90.009,28.51,85.469,28.51ZM85.469,28.51"/>
  <path xml:space="preserve" x="0px" stroke-miterlimit="4" stroke-opacity="1" stroke-dasharray="none" stroke-linejoin="miter" stroke-linecap="butt" version="1.1" xmlns:xlink="http://www.w3.org/1999/xlink" fill="#feb756" fill-rule="nonzero" stroke-width="1" y="0px" stroke="none" fill-opacity="1" d="M65.308,55.673C65.683,56.614,65.886,57.639,65.886,58.708C65.886,62.498,63.313,65.703,59.817,66.654C60.192,67.595,60.395,68.62,60.395,69.689C60.395,74.23,56.7,77.925,52.16,77.925L41.179,77.925C31.645,77.925,22.376,76.138,13.635,72.619L12.681,72.227C11.651,71.805,10.981,70.802,10.981,69.689L10.981,53.217L69.274,53.217C68.232,54.383,66.861,55.251,65.308,55.673ZM65.308,55.673"/>
  <path x="0px" xml:space="preserve" stroke-linejoin="miter" stroke="none" stroke-dasharray="none" stroke-opacity="1" fill="#fd003a" fill-rule="nonzero" xmlns:xlink="http://www.w3.org/1999/xlink" y="0px" fill-opacity="1" stroke-linecap="butt" version="1.1" stroke-miterlimit="4" stroke-width="1" d="M8.236,77.925L2.745,77.925C1.228,77.925,0,76.697,0,75.179L0,31.255C0,29.738,1.228,28.51,2.745,28.51L8.236,28.51C12.777,28.51,16.471,32.205,16.471,36.746L16.471,69.689C16.471,74.23,12.777,77.925,8.236,77.925ZM8.236,77.925"/>
  <path xmlns:xlink="http://www.w3.org/1999/xlink" x="0px" xml:space="preserve" y="0px" stroke-dasharray="none" fill="#e50027" stroke-opacity="1" stroke-miterlimit="4" stroke-linecap="butt" stroke-linejoin="miter" stroke="none" version="1.1" fill-rule="nonzero" stroke-width="1" fill-opacity="1" d="M0,53.217L0,75.179C0,76.697,1.228,77.925,2.745,77.925L8.236,77.925C12.777,77.925,16.471,74.23,16.471,69.689L16.471,53.217L0,53.217ZM0,53.217"/>
</g>
  <g id="Light-L" transform="matrix(1.0,0.0,0.0,1.0,1107.567757933312,1473.9177774645618)">  <path stroke-linecap="butt" stroke-width="1" stroke-dasharray="none" fill="#fec478" xml:space="preserve" version="1.1" stroke-miterlimit="4" fill-rule="nonzero" stroke="none" stroke-linejoin="miter" xmlns:xlink="http://www.w3.org/1999/xlink" x="0px" y="0px" stroke-opacity="1" fill-opacity="1" d="M85.469,28.51L58.787,28.51L50.09,19.817C45.125,14.848,37.253,14.42,31.774,18.788L12.01,34.601C11.362,35.124,10.981,35.911,10.981,36.746L10.981,69.689C10.981,70.802,11.651,71.805,12.681,72.227L13.635,72.619C22.376,76.138,31.645,77.925,41.179,77.925L52.16,77.925C56.7,77.925,60.395,74.23,60.395,69.689C60.395,68.62,60.192,67.595,59.817,66.654C63.313,65.703,65.886,62.498,65.886,58.708C65.886,57.639,65.683,56.614,65.308,55.673C66.861,55.251,68.232,54.383,69.274,53.217C70.582,51.759,71.376,49.833,71.376,47.727C71.376,46.764,71.21,45.84,70.904,44.982L85.469,44.982C90.009,44.982,93.704,41.287,93.704,36.746C93.704,32.205,90.009,28.51,85.469,28.51ZM85.469,28.51"/>
  <path stroke-width="1" stroke-linecap="butt" stroke-miterlimit="4" y="0px" fill-opacity="1" x="0px" version="1.1" stroke-linejoin="miter" stroke-dasharray="none" xmlns:xlink="http://www.w3.org/1999/xlink" stroke-opacity="1" stroke="none" fill-rule="nonzero" fill="#feb756" xml:space="preserve" d="M65.308,55.673C65.683,56.614,65.886,57.639,65.886,58.708C65.886,62.498,63.313,65.703,59.817,66.654C60.192,67.595,60.395,68.62,60.395,69.689C60.395,74.23,56.7,77.925,52.16,77.925L41.179,77.925C31.645,77.925,22.376,76.138,13.635,72.619L12.681,72.227C11.651,71.805,10.981,70.802,10.981,69.689L10.981,53.217L69.274,53.217C68.232,54.383,66.861,55.251,65.308,55.673ZM65.308,55.673"/>
  <path xmlns:xlink="http://www.w3.org/1999/xlink" stroke-width="1" stroke-opacity="1" version="1.1" fill-opacity="1" stroke-dasharray="none" stroke-linejoin="miter" stroke-miterlimit="4" fill="#fd003a" stroke-linecap="butt" x="0px" fill-rule="nonzero" y="0px" xml:space="preserve" stroke="none" d="M8.236,77.925L2.745,77.925C1.228,77.925,0,76.697,0,75.179L0,31.255C0,29.738,1.228,28.51,2.745,28.51L8.236,28.51C12.777,28.51,16.471,32.205,16.471,36.746L16.471,69.689C16.471,74.23,12.777,77.925,8.236,77.925ZM8.236,77.925"/>
  <path stroke-linejoin="miter" stroke-opacity="1" x="0px" y="0px" fill-opacity="1" version="1.1" stroke-width="1" fill="#e50027" xml:space="preserve" fill-rule="nonzero" stroke-miterlimit="4" stroke="none" stroke-linecap="butt" xmlns:xlink="http://www.w3.org/1999/xlink" stroke-dasharray="none" d="M0,53.217L0,75.179C0,76.697,1.228,77.925,2.745,77.925L8.236,77.925C12.777,77.925,16.471,74.23,16.471,69.689L16.471,53.217L0,53.217ZM0,53.217"/>
</g>
  <g id="Thin-L" transform="matrix(1.0,0.0,0.0,1.0,810.8577579333119,1473.9177774645618)">  <path stroke-opacity="1" xml:space="preserve" stroke-dasharray="none" xmlns:xlink="http://www.w3.org/1999/xlink" version="1.1" stroke-linejoin="miter" fill-rule="nonzero" stroke-linecap="butt" fill-opacity="1" fill="#fec478" stroke-miterlimit="4" stroke="none" x="0px" y="0px" stroke-width="1" d="M85.469,28.51L58.787,28.51L50.09,19.817C45.125,14.848,37.253,14.42,31.774,18.788L12.01,34.601C11.362,35.124,10.981,35.911,10.981,36.746L10.981,69.689C10.981,70.802,11.651,71.805,12.681,72.227L13.635,72.619C22.376,76.138,31.645,77.925,41.179,77.925L52.16,77.925C56.7,77.925,60.395,74.23,60.395,69.689C60.395,68.62,60.192,67.595,59.817,66.654C63.313,65.703,65.886,62.498,65.886,58.708C65.886,57.639,65.683,56.614,65.308,55.673C66.861,55.251,68.232,54.383,69.274,53.217C70.582,51.759,71.376,49.833,71.376,47.727C71.376,46.764,71.21,45.84,70.904,44.982L85.469,44.982C90.009,44.982,93.704,41.287,93.704,36.746C93.704,32.205,90.009,28.51,85.469,28.51ZM85.469,28.51"/>
  <path stroke-dasharray="none" fill-rule="nonzero" version="1.1" fill-opacity="1" stroke-opacity="1" stroke-linecap="butt" x="0px" stroke-miterlimit="4" xml:space="preserve" y="0px" stroke="none" stroke-width="1" stroke-linejoin="miter" fill="#feb756" xmlns:xlink="http://www.w3.org/1999/xlink" d="M65.308,55.673C65.683,56.614,65.886,57.639,65.886,58.708C65.886,62.498,63.313,65.703,59.817,66.654C60.192,67.595,60.395,68.62,60.395,69.689C60.395,74.23,56.7,77.925,52.16,77.925L41.179,77.925C31.645,77.925,22.376,76.138,13.635,72.619L12.681,72.227C11.651,71.805,10.981,70.802,10.981,69.689L10.981,53.217L69.274,53.217C68.232,54.383,66.861,55.251,65.308,55.673ZM65.308,55.673"/>
  <path stroke-dasharray="none" y="0px" stroke="none" stroke-opacity="1" stroke-linecap="butt" xmlns:xlink="http://www.w3.org/1999/xlink" stroke-linejoin="miter" version="1.1" stroke-width="1" x="0px" fill-opacity="1" fill-rule="nonzero" xml:space="preserve" fill="#fd003a" stroke-miterlimit="4" d="M8.236,77.925L2.745,77.925C1.228,77.925,0,76.697,0,75.179L0,31.255C0,29.738,1.228,28.51,2.745,28.51L8.236,28.51C12.777,28.51,16.471,32.205,16.471,36.746L16.471,69.689C16.471,74.23,12.777,77.925,8.236,77.925ZM8.236,77.925"/>
  <path stroke-width="1" stroke-linecap="butt" x="0px" xmlns:xlink="http://www.w3.org/1999/xlink" stroke-opacity="1" stroke="none" fill-opacity="1" stroke-dasharray="none" fill="#e50027" y="0px" stroke-linejoin="miter" fill-rule="nonzero" version="1.1" stroke-miterlimit="4" xml:space="preserve" d="M0,53.217L0,75.179C0,76.697,1.228,77.925,2.745,77.925L8.236,77.925C12.777,77.925,16.471,74.23,16.471,69.689L16.471,53.217L0,53.217ZM0,53.217"/>
</g>
  <g id="Ultralight-L" transform="matrix(1.0,0.0,0.0,1.0,514.1477579333118,1473.9177774645618)">  <path stroke-width="1" version="1.1" xmlns:xlink="http://www.w3.org/1999/xlink" y="0px" stroke-linecap="butt" xml:space="preserve" stroke-opacity="1" x="0px" fill="#fec478" stroke-linejoin="miter" fill-rule="nonzero" stroke-miterlimit="4" stroke-dasharray="none" fill-opacity="1" stroke="none" d="M85.469,28.51L58.787,28.51L50.09,19.817C45.125,14.848,37.253,14.42,31.774,18.788L12.01,34.601C11.362,35.124,10.981,35.911,10.981,36.746L10.981,69.689C10.981,70.802,11.651,71.805,12.681,72.227L13.635,72.619C22.376,76.138,31.645,77.925,41.179,77.925L52.16,77.925C56.7,77.925,60.395,74.23,60.395,69.689C60.395,68.62,60.192,67.595,59.817,66.654C63.313,65.703,65.886,62.498,65.886,58.708C65.886,57.639,65.683,56.614,65.308,55.673C66.861,55.251,68.232,54.383,69.274,53.217C70.582,51.759,71.376,49.833,71.376,47.727C71.376,46.764,71.21,45.84,70.904,44.982L85.469,44.982C90.009,44.982,93.704,41.287,93.704,36.746C93.704,32.205,90.009,28.51,85.469,28.51ZM85.469,28.51"/>
  <path stroke-width="1" stroke-miterlimit="4" fill-rule="nonzero" y="0px" version="1.1" stroke-linejoin="miter" fill="#feb756" fill-opacity="1" stroke-linecap="butt" xmlns:xlink="http://www.w3.org/1999/xlink" stroke="none" x="0px" stroke-dasharray="none" xml:space="preserve" stroke-opacity="1" d="M65.308,55.673C65.683,56.614,65.886,57.639,65.886,58.708C65.886,62.498,63.313,65.703,59.817,66.654C60.192,67.595,60.395,68.62,60.395,69.689C60.395,74.23,56.7,77.925,52.16,77.925L41.179,77.925C31.645,77.925,22.376,76.138,13.635,72.619L12.681,72.227C11.651,71.805,10.981,70.802,10.981,69.689L10.981,53.217L69.274,53.217C68.232,54.383,66.861,55.251,65.308,55.673ZM65.308,55.673"/>
  <path stroke-opacity="1" xmlns:xlink="http://www.w3.org/1999/xlink" stroke-miterlimit="4" fill="#fd003a" stroke="none" stroke-dasharray="none" stroke-width="1" y="0px" stroke-linejoin="miter" fill-opacity="1" version="1.1" fill-rule="nonzero" x="0px" stroke-linecap="butt" xml:space="preserve" d="M8.236,77.925L2.745,77.925C1.228,77.925,0,76.697,0,75.179L0,31.255C0,29.738,1.228,28.51,2.745,28.51L8.236,28.51C12.777,28.51,16.471,32.205,16.471,36.746L16.471,69.689C16.471,74.23,12.777,77.925,8.236,77.925ZM8.236,77.925"/>
  <path stroke-linejoin="miter" y="0px" version="1.1" fill-opacity="1" stroke-opacity="1" fill="#e50027" xml:space="preserve" stroke-linecap="butt" stroke="none" stroke-width="1" fill-rule="nonzero" x="0px" xmlns:xlink="http://www.w3.org/1999/xlink" stroke-dasharray="none" stroke-miterlimit="4" d="M0,53.217L0,75.179C0,76.697,1.228,77.925,2.745,77.925L8.236,77.925C12.777,77.925,16.471,74.23,16.471,69.689L16.471,53.217L0,53.217ZM0,53.217"/>
</g>
  <g id="Black-M" transform="matrix(1.0,0.0,0.0,1.0,2898.360432506443,1054.4504520376934)">  <path x="0px" stroke-width="1" stroke-linecap="butt" stroke-opacity="1" version="1.1" stroke="none" xmlns:xlink="http://www.w3.org/1999/xlink" y="0px" fill-rule="nonzero" stroke-dasharray="none" stroke-linejoin="miter" stroke-miterlimit="4" fill-opacity="1" fill="#fec478" xml:space="preserve" d="M66.255,22.101L45.571,22.101L38.829,15.362C34.98,11.51,28.878,11.178,24.631,14.565L9.31,26.822C8.807,27.228,8.512,27.838,8.512,28.485L8.512,54.022C8.512,54.885,9.032,55.662,9.83,55.99L10.57,56.294C17.345,59.022,24.531,60.407,31.921,60.407L40.434,60.407C43.954,60.407,46.818,57.542,46.818,54.022C46.818,53.194,46.661,52.399,46.37,51.67C49.08,50.932,51.074,48.448,51.074,45.51C51.074,44.681,50.917,43.887,50.626,43.158C51.831,42.83,52.893,42.158,53.7,41.254C54.715,40.123,55.331,38.631,55.331,36.998C55.331,36.251,55.201,35.535,54.965,34.869L66.255,34.869C69.775,34.869,72.639,32.005,72.639,28.485C72.639,24.965,69.775,22.101,66.255,22.101ZM66.255,22.101"/>
  <path stroke-opacity="1" y="0px" x="0px" fill-rule="nonzero" xmlns:xlink="http://www.w3.org/1999/xlink" xml:space="preserve" stroke-miterlimit="4" stroke-dasharray="none" stroke-linecap="butt" stroke="none" fill="#feb756" stroke-width="1" version="1.1" stroke-linejoin="miter" fill-opacity="1" d="M50.626,43.158C50.917,43.887,51.074,44.681,51.074,45.51C51.074,48.448,49.08,50.932,46.37,51.67C46.661,52.399,46.818,53.194,46.818,54.022C46.818,57.542,43.954,60.407,40.434,60.407L31.921,60.407C24.531,60.407,17.345,59.022,10.57,56.294L9.83,55.99C9.032,55.662,8.512,54.885,8.512,54.022L8.512,41.254L53.7,41.254C52.893,42.158,51.831,42.83,50.626,43.158ZM50.626,43.158"/>
  <path stroke-miterlimit="4" stroke-linejoin="miter" xmlns:xlink="http://www.w3.org/1999/xlink" stroke-opacity="1" x="0px" stroke-width="1" stroke="none" stroke-dasharray="none" fill="#fd003a" fill-opacity="1" stroke-linecap="butt" y="0px" xml:space="preserve" fill-rule="nonzero" version="1.1" d="M6.384,60.407L2.128,60.407C0.952,60.407,0,59.455,0,58.279L0,24.229C0,23.053,0.952,22.101,2.128,22.101L6.384,22.101C9.905,22.101,12.769,24.965,12.769,28.485L12.769,54.022C12.769,57.543,9.905,60.407,6.384,60.407ZM6.384,60.407"/>
  <path y="0px" x="0px" stroke-width="1" fill-opacity="1" stroke-opacity="1" stroke-miterlimit="4" stroke-linecap="butt" stroke="none" xmlns:xlink="http://www.w3.org/1999/xlink" xml:space="preserve" stroke-dasharray="none" fill="#e50027" version="1.1" fill-rule="nonzero" stroke-linejoin="miter" d="M0,41.254L0,58.279C0,59.455,0.952,60.407,2.128,60.407L6.384,60.407C9.905,60.407,12.769,57.543,12.769,54.022L12.769,41.254L0,41.254ZM0,41.254"/>
</g>
  <g id="Heavy-M" transform="matrix(1.0,0.0,0.0,1.0,2601.650432506443,1054.4504520376934)">  <path y="0px" fill="#fec478" xmlns:xlink="http://www.w3.org/1999/xlink" fill-opacity="1" xml:space="preserve" x="0px" stroke-dasharray="none" stroke-linejoin="miter" stroke="none" stroke-opacity="1" stroke-linecap="butt" stroke-width="1" fill-rule="nonzero" version="1.1" stroke-miterlimit="4" d="M66.255,22.101L45.571,22.101L38.829,15.362C34.98,11.51,28.878,11.178,24.631,14.565L9.31,26.822C8.807,27.228,8.512,27.838,8.512,28.485L8.512,54.022C8.512,54.885,9.032,55.662,9.83,55.99L10.57,56.294C17.345,59.022,24.531,60.407,31.921,60.407L40.434,60.407C43.954,60.407,46.818,57.542,46.818,54.022C46.818,53.194,46.661,52.399,46.37,51.67C49.08,50.932,51.074,48.448,51.074,45.51C51.074,44.681,50.917,43.887,50.626,43.158C51.831,42.83,52.893,42.158,53.7,41.254C54.715,40.123,55.331,38.631,55.331,36.998C55.331,36.251,55.201,35.535,54.965,34.869L66.255,34.869C69.775,34.869,72.639,32.005,72.639,28.485C72.639,24.965,69.775,22.101,66.255,22.101ZM66.255,22.101"/>
  <path stroke="none" stroke-linejoin="miter" fill-opacity="1" xmlns:xlink="http://www.w3.org/1999/xlink" fill-rule="nonzero" stroke-dasharray="none" stroke-width="1" stroke-miterlimit="4" xml:space="preserve" fill="#feb756" stroke-linecap="butt" x="0px" stroke-opacity="1" y="0px" version="1.1" d="M50.626,43.158C50.917,43.887,51.074,44.681,51.074,45.51C51.074,48.448,49.08,50.932,46.37,51.67C46.661,52.399,46.818,53.194,46.818,54.022C46.818,57.542,43.954,60.407,40.434,60.407L31.921,60.407C24.531,60.407,17.345,59.022,10.57,56.294L9.83,55.99C9.032,55.662,8.512,54.885,8.512,54.022L8.512,41.254L53.7,41.254C52.893,42.158,51.831,42.83,50.626,43.158ZM50.626,43.158"/>
  <path fill-opacity="1" stroke-dasharray="none" stroke="none" y="0px" stroke-miterlimit="4" stroke-linecap="butt" xmlns:xlink="http://www.w3.org/1999/xlink" stroke-linejoin="miter" fill="#fd003a" stroke-opacity="1" xml:space="preserve" version="1.1" stroke-width="1" x="0px" fill-rule="nonzero" d="M6.384,60.407L2.128,60.407C0.952,60.407,0,59.455,0,58.279L0,24.229C0,23.053,0.952,22.101,2.128,22.101L6.384,22.101C9.905,22.101,12.769,24.965,12.769,28.485L12.769,54.022C12.769,57.543,9.905,60.407,6.384,60.407ZM6.384,60.407"/>
  <path stroke-opacity="1" stroke="none" fill-opacity="1" y="0px" x="0px" stroke-linecap="butt" xml:space="preserve" version="1.1" xmlns:xlink="http://www.w3.org/1999/xlink" fill-rule="nonzero" stroke-dasharray="none" stroke-linejoin="miter" stroke-miterlimit="4" fill="#e50027" stroke-width="1" d="M0,41.254L0,58.279C0,59.455,0.952,60.407,2.128,60.407L6.384,60.407C9.905,60.407,12.769,57.543,12.769,54.022L12.769,41.254L0,41.254ZM0,41.254"/>
</g>
  <g id="Bold-M" transform="matrix(1.0,0.0,0.0,1.0,2304.940432506443,1054.4504520376934)">  <path fill="#fec478" xml:space="preserve" version="1.1" x="0px" stroke-width="1" stroke-opacity="1" fill-rule="nonzero" stroke-dasharray="none" stroke="none" fill-opacity="1" stroke-linejoin="miter" stroke-linecap="butt" xmlns:xlink="http://www.w3.org/1999/xlink" y="0px" stroke-miterlimit="4" d="M66.255,22.101L45.571,22.101L38.829,15.362C34.98,11.51,28.878,11.178,24.631,14.565L9.31,26.822C8.807,27.228,8.512,27.838,8.512,28.485L8.512,54.022C8.512,54.885,9.032,55.662,9.83,55.99L10.57,56.294C17.345,59.022,24.531,60.407,31.921,60.407L40.434,60.407C43.954,60.407,46.818,57.542,46.818,54.022C46.818,53.194,46.661,52.399,46.37,51.67C49.08,50.932,51.074,48.448,51.074,45.51C51.074,44.681,50.917,43.887,50.626,43.158C51.831,42.83,52.893,42.158,53.7,41.254C54.715,40.123,55.331,38.631,55.331,36.998C55.331,36.251,55.201,35.535,54.965,34.869L66.255,34.869C69.775,34.869,72.639,32.005,72.639,28.485C72.639,24.965,69.775,22.101,66.255,22.101ZM66.255,22.101"/>
  <path fill-opacity="1" xml:space="preserve" stroke-width="1" x="0px" fill-rule="nonzero" stroke-linecap="butt" stroke-miterlimit="4" stroke-linejoin="miter" y="0px" stroke-dasharray="none" version="1.1" fill="#feb756" stroke-opacity="1" stroke="none" xmlns:xlink="http://www.w3.org/1999/xlink" d="M50.626,43.158C50.917,43.887,51.074,44.681,51.074,45.51C51.074,48.448,49.08,50.932,46.37,51.67C46.661,52.399,46.818,53.194,46.818,54.022C46.818,57.542,43.954,60.407,40.434,60.407L31.921,60.407C24.531,60.407,17.345,59.022,10.57,56.294L9.83,55.99C9.032,55.662,8.512,54.885,8.512,54.022L8.512,41.254L53.7,41.254C52.893,42.158,51.831,42.83,50.626,43.158ZM50.626,43.158"/>
  <path xml:space="preserve" stroke-width="1" stroke-miterlimit="4" version="1.1" stroke="none" x="0px" fill-rule="nonzero" stroke-opacity="1" fill="#fd003a" fill-opacity="1" stroke-dasharray="none" stroke-linejoin="miter" y="0px" stroke-linecap="butt" xmlns:xlink="http://www.w3.org/1999/xlink" d="M6.384,60.407L2.128,60.407C0.952,60.407,0,59.455,0,58.279L0,24.229C0,23.053,0.952,22.101,2.128,22.101L6.384,22.101C9.905,22.101,12.769,24.965,12.769,28.485L12.769,54.022C12.769,57.543,9.905,60.407,6.384,60.407ZM6.384,60.407"/>
  <path stroke-miterlimit="4" stroke-linejoin="miter" version="1.1" xmlns:xlink="http://www.w3.org/1999/xlink" stroke-linecap="butt" stroke="none" fill-rule="nonzero" stroke-dasharray="none" xml:space="preserve" stroke-width="1" y="0px" x="0px" stroke-opacity="1" fill="#e50027" fill-opacity="1" d="M0,41.254L0,58.279C0,59.455,0.952,60.407,2.128,60.407L6.384,60.407C9.905,60.407,12.769,57.543,12.769,54.022L12.769,41.254L0,41.254ZM0,41.254"/>
</g>
  <g id="Semibold-M" transform="matrix(1.0,0.0,0.0,1.0,2008.2304325064433,1054.4504520376934)">  <path stroke="none" stroke-opacity="1" xmlns:xlink="http://www.w3.org/1999/xlink" x="0px" stroke-width="1" fill="#fec478" stroke-miterlimit="4" stroke-dasharray="none" version="1.1" stroke-linecap="butt" stroke-linejoin="miter" fill-opacity="1" y="0px" fill-rule="nonzero" xml:space="preserve" d="M66.255,22.101L45.571,22.101L38.829,15.362C34.98,11.51,28.878,11.178,24.631,14.565L9.31,26.822C8.807,27.228,8.512,27.838,8.512,28.485L8.512,54.022C8.512,54.885,9.032,55.662,9.83,55.99L10.57,56.294C17.345,59.022,24.531,60.407,31.921,60.407L40.434,60.407C43.954,60.407,46.818,57.542,46.818,54.022C46.818,53.194,46.661,52.399,46.37,51.67C49.08,50.932,51.074,48.448,51.074,45.51C51.074,44.681,50.917,43.887,50.626,43.158C51.831,42.83,52.893,42.158,53.7,41.254C54.715,40.123,55.331,38.631,55.331,36.998C55.331,36.251,55.201,35.535,54.965,34.869L66.255,34.869C69.775,34.869,72.639,32.005,72.639,28.485C72.639,24.965,69.775,22.101,66.255,22.101ZM66.255,22.101"/>
  <path stroke-dasharray="none" x="0px" xml:space="preserve" stroke-width="1" y="0px" stroke-miterlimit="4" stroke-opacity="1" stroke-linejoin="miter" version="1.1" xmlns:xlink="http://www.w3.org/1999/xlink" fill="#feb756" fill-opacity="1" stroke-linecap="butt" stroke="none" fill-rule="nonzero" d="M50.626,43.158C50.917,43.887,51.074,44.681,51.074,45.51C51.074,48.448,49.08,50.932,46.37,51.67C46.661,52.399,46.818,53.194,46.818,54.022C46.818,57.542,43.954,60.407,40.434,60.407L31.921,60.407C24.531,60.407,17.345,59.022,10.57,56.294L9.83,55.99C9.032,55.662,8.512,54.885,8.512,54.022L8.512,41.254L53.7,41.254C52.893,42.158,51.831,42.83,50.626,43.158ZM50.626,43.158"/>
  <path xmlns:xlink="http://www.w3.org/1999/xlink" xml:space="preserve" stroke-width="1" stroke-opacity="1" x="0px" fill-opacity="1" version="1.1" stroke-linecap="butt" stroke-linejoin="miter" stroke-dasharray="none" stroke="none" stroke-miterlimit="4" fill-rule="nonzero" fill="#fd003a" y="0px" d="M6.384,60.407L2.128,60.407C0.952,60.407,0,59.455,0,58.279L0,24.229C0,23.053,0.952,22.101,2.128,22.101L6.384,22.101C9.905,22.101,12.769,24.965,12.769,28.485L12.769,54.022C12.769,57.543,9.905,60.407,6.384,60.407ZM6.384,60.407"/>
  <path xmlns:xlink="http://www.w3.org/1999/xlink" stroke-dasharray="none" fill-rule="nonzero" fill="#e50027" stroke-width="1" version="1.1" x="0px" stroke-miterlimit="4" xml:space="preserve" y="0px" stroke-linecap="butt" stroke-opacity="1" fill-opacity="1" stroke-linejoin="miter" stroke="none" d="M0,41.254L0,58.279C0,59.455,0.952,60.407,2.128,60.407L6.384,60.407C9.905,60.407,12.769,57.543,12.769,54.022L12.769,41.254L0,41.254ZM0,41.254"/>
</g>
  <g id="Medium-M" transform="matrix(1.0,0.0,0.0,1.0,1711.5204325064433,1054.4504520376934)">  <path y="0px" stroke-width="1" x="0px" xml:space="preserve" stroke="none" xmlns:xlink="http://www.w3.org/1999/xlink" stroke-opacity="1" stroke-linecap="butt" fill="#fec478" version="1.1" stroke-dasharray="none" fill-opacity="1" stroke-linejoin="miter" stroke-miterlimit="4" fill-rule="nonzero" d="M66.255,22.101L45.571,22.101L38.829,15.362C34.98,11.51,28.878,11.178,24.631,14.565L9.31,26.822C8.807,27.228,8.512,27.838,8.512,28.485L8.512,54.022C8.512,54.885,9.032,55.662,9.83,55.99L10.57,56.294C17.345,59.022,24.531,60.407,31.921,60.407L40.434,60.407C43.954,60.407,46.818,57.542,46.818,54.022C46.818,53.194,46.661,52.399,46.37,51.67C49.08,50.932,51.074,48.448,51.074,45.51C51.074,44.681,50.917,43.887,50.626,43.158C51.831,42.83,52.893,42.158,53.7,41.254C54.715,40.123,55.331,38.631,55.331,36.998C55.331,36.251,55.201,35.535,54.965,34.869L66.255,34.869C69.775,34.869,72.639,32.005,72.639,28.485C72.639,24.965,69.775,22.101,66.255,22.101ZM66.255,22.101"/>
  <path stroke="none" stroke-miterlimit="4" stroke-width="1" stroke-dasharray="none" y="0px" stroke-linejoin="miter" stroke-opacity="1" fill-rule="nonzero" stroke-linecap="butt" xml:space="preserve" x="0px" fill="#feb756" version="1.1" xmlns:xlink="http://www.w3.org/1999/xlink" fill-opacity="1" d="M50.626,43.158C50.917,43.887,51.074,44.681,51.074,45.51C51.074,48.448,49.08,50.932,46.37,51.67C46.661,52.399,46.818,53.194,46.818,54.022C46.818,57.542,43.954,60.407,40.434,60.407L31.921,60.407C24.531,60.407,17.345,59.022,10.57,56.294L9.83,55.99C9.032,55.662,8.512,54.885,8.512,54.022L8.512,41.254L53.7,41.254C52.893,42.158,51.831,42.83,50.626,43.158ZM50.626,43.158"/>
  <path stroke-opacity="1" version="1.1" x="0px" fill="#fd003a" fill-rule="nonzero" stroke-miterlimit="4" stroke="none" stroke-linejoin="miter" stroke-linecap="butt" xmlns:xlink="http://www.w3.org/1999/xlink" y="0px" xml:space="preserve" stroke-width="1" stroke-dasharray="none" fill-opacity="1" d="M6.384,60.407L2.128,60.407C0.952,60.407,0,59.455,0,58.279L0,24.229C0,23.053,0.952,22.101,2.128,22.101L6.384,22.101C9.905,22.101,12.769,24.965,12.769,28.485L12.769,54.022C12.769,57.543,9.905,60.407,6.384,60.407ZM6.384,60.407"/>
  <path stroke-linecap="butt" y="0px" x="0px" fill-opacity="1" xmlns:xlink="http://www.w3.org/1999/xlink" stroke-width="1" fill="#e50027" stroke-linejoin="miter" stroke-opacity="1" version="1.1" fill-rule="nonzero" stroke-dasharray="none" stroke="none" xml:space="preserve" stroke-miterlimit="4" d="M0,41.254L0,58.279C0,59.455,0.952,60.407,2.128,60.407L6.384,60.407C9.905,60.407,12.769,57.543,12.769,54.022L12.769,41.254L0,41.254ZM0,41.254"/>
</g>
  <g id="Regular-M" transform="matrix(1.0,0.0,0.0,1.0,1414.8104325064432,1054.4504520376934)">  <path xmlns:xlink="http://www.w3.org/1999/xlink" fill-rule="nonzero" stroke="none" y="0px" stroke-miterlimit="4" fill="#fec478" version="1.1" fill-opacity="1" xml:space="preserve" stroke-opacity="1" x="0px" stroke-linecap="butt" stroke-linejoin="miter" stroke-dasharray="none" stroke-width="1" d="M66.255,22.101L45.571,22.101L38.829,15.362C34.98,11.51,28.878,11.178,24.631,14.565L9.31,26.822C8.807,27.228,8.512,27.838,8.512,28.485L8.512,54.022C8.512,54.885,9.032,55.662,9.83,55.99L10.57,56.294C17.345,59.022,24.531,60.407,31.921,60.407L40.434,60.407C43.954,60.407,46.818,57.542,46.818,54.022C46.818,53.194,46.661,52.399,46.37,51.67C49.08,50.932,51.074,48.448,51.074,45.51C51.074,44.681,50.917,43.887,50.626,43.158C51.831,42.83,52.893,42.158,53.7,41.254C54.715,40.123,55.331,38.631,55.331,36.998C55.331,36.251,55.201,35.535,54.965,34.869L66.255,34.869C69.775,34.869,72.639,32.005,72.639,28.485C72.639,24.965,69.775,22.101,66.255,22.101ZM66.255,22.101"/>
  <path xml:space="preserve" x="0px" stroke-miterlimit="4" stroke-opacity="1" stroke-dasharray="none" stroke-linejoin="miter" stroke-linecap="butt" version="1.1" xmlns:xlink="http://www.w3.org/1999/xlink" fill="#feb756" fill-rule="nonzero" stroke-width="1" y="0px" stroke="none" fill-opacity="1" d="M50.626,43.158C50.917,43.887,51.074,44.681,51.074,45.51C51.074,48.448,49.08,50.932,46.37,51.67C46.661,52.399,46.818,53.194,46.818,54.022C46.818,57.542,43.954,60.407,40.434,60.407L31.921,60.407C24.531,60.407,17.345,59.022,10.57,56.294L9.83,55.99C9.032,55.662,8.512,54.885,8.512,54.022L8.512,41.254L53.7,41.254C52.893,42.158,51.831,42.83,50.626,43.158ZM50.626,43.158"/>
  <path x="0px" xml:space="preserve" stroke-linejoin="miter" stroke="none" stroke-dasharray="none" stroke-opacity="1" fill="#fd003a" fill-rule="nonzero" xmlns:xlink="http://www.w3.org/1999/xlink" y="0px" fill-opacity="1" stroke-linecap="butt" version="1.1" stroke-miterlimit="4" stroke-width="1" d="M6.384,60.407L2.128,60.407C0.952,60.407,0,59.455,0,58.279L0,24.229C0,23.053,0.952,22.101,2.128,22.101L6.384,22.101C9.905,22.101,12.769,24.965,12.769,28.485L12.769,54.022C12.769,57.543,9.905,60.407,6.384,60.407ZM6.384,60.407"/>
  <path xmlns:xlink="http://www.w3.org/1999/xlink" x="0px" xml:space="preserve" y="0px" stroke-dasharray="none" fill="#e50027" stroke-opacity="1" stroke-miterlimit="4" stroke-linecap="butt" stroke-linejoin="miter" stroke="none" version="1.1" fill-rule="nonzero" stroke-width="1" fill-opacity="1" d="M0,41.254L0,58.279C0,59.455,0.952,60.407,2.128,60.407L6.384,60.407C9.905,60.407,12.769,57.543,12.769,54.022L12.769,41.254L0,41.254ZM0,41.254"/>
</g>
  <g id="Light-M" transform="matrix(1.0,0.0,0.0,1.0,1118.1004325064434,1054.4504520376934)">  <path stroke-linecap="butt" stroke-width="1" stroke-dasharray="none" fill="#fec478" xml:space="preserve" version="1.1" stroke-miterlimit="4" fill-rule="nonzero" stroke="none" stroke-linejoin="miter" xmlns:xlink="http://www.w3.org/1999/xlink" x="0px" y="0px" stroke-opacity="1" fill-opacity="1" d="M66.255,22.101L45.571,22.101L38.829,15.362C34.98,11.51,28.878,11.178,24.631,14.565L9.31,26.822C8.807,27.228,8.512,27.838,8.512,28.485L8.512,54.022C8.512,54.885,9.032,55.662,9.83,55.99L10.57,56.294C17.345,59.022,24.531,60.407,31.921,60.407L40.434,60.407C43.954,60.407,46.818,57.542,46.818,54.022C46.818,53.194,46.661,52.399,46.37,51.67C49.08,50.932,51.074,48.448,51.074,45.51C51.074,44.681,50.917,43.887,50.626,43.158C51.831,42.83,52.893,42.158,53.7,41.254C54.715,40.123,55.331,38.631,55.331,36.998C55.331,36.251,55.201,35.535,54.965,34.869L66.255,34.869C69.775,34.869,72.639,32.005,72.639,28.485C72.639,24.965,69.775,22.101,66.255,22.101ZM66.255,22.101"/>
  <path stroke-width="1" stroke-linecap="butt" stroke-miterlimit="4" y="0px" fill-opacity="1" x="0px" version="1.1" stroke-linejoin="miter" stroke-dasharray="none" xmlns:xlink="http://www.w3.org/1999/xlink" stroke-opacity="1" stroke="none" fill-rule="nonzero" fill="#feb756" xml:space="preserve" d="M50.626,43.158C50.917,43.887,51.074,44.681,51.074,45.51C51.074,48.448,49.08,50.932,46.37,51.67C46.661,52.399,46.818,53.194,46.818,54.022C46.818,57.542,43.954,60.407,40.434,60.407L31.921,60.407C24.531,60.407,17.345,59.022,10.57,56.294L9.83,55.99C9.032,55.662,8.512,54.885,8.512,54.022L8.512,41.254L53.7,41.254C52.893,42.158,51.831,42.83,50.626,43.158ZM50.626,43.158"/>
  <path xmlns:xlink="http://www.w3.org/1999/xlink" stroke-width="1" stroke-opacity="1" version="1.1" fill-opacity="1" stroke-dasharray="none" stroke-linejoin="miter" stroke-miterlimit="4" fill="#fd003a" stroke-linecap="butt" x="0px" fill-rule="nonzero" y="0px" xml:space="preserve" stroke="none" d="M6.384,60.407L2.128,60.407C0.952,60.407,0,59.455,0,58.279L0,24.229C0,23.053,0.952,22.101,2.128,22.101L6.384,22.101C9.905,22.101,12.769,24.965,12.769,28.485L12.769,54.022C12.769,57.543,9.905,60.407,6.384,60.407ZM6.384,60.407"/>
  <path stroke-linejoin="miter" stroke-opacity="1" x="0px" y="0px" fill-opacity="1" version="1.1" stroke-width="1" fill="#e50027" xml:space="preserve" fill-rule="nonzero" stroke-miterlimit="4" stroke="none" stroke-linecap="butt" xmlns:xlink="http://www.w3.org/1999/xlink" stroke-dasharray="none" d="M0,41.254L0,58.279C0,59.455,0.952,60.407,2.128,60.407L6.384,60.407C9.905,60.407,12.769,57.543,12.769,54.022L12.769,41.254L0,41.254ZM0,41.254"/>
</g>
  <g id="Thin-M" transform="matrix(1.0,0.0,0.0,1.0,821.3904325064433,1054.4504520376934)">  <path stroke-opacity="1" xml:space="preserve" stroke-dasharray="none" xmlns:xlink="http://www.w3.org/1999/xlink" version="1.1" stroke-linejoin="miter" fill-rule="nonzero" stroke-linecap="butt" fill-opacity="1" fill="#fec478" stroke-miterlimit="4" stroke="none" x="0px" y="0px" stroke-width="1" d="M66.255,22.101L45.571,22.101L38.829,15.362C34.98,11.51,28.878,11.178,24.631,14.565L9.31,26.822C8.807,27.228,8.512,27.838,8.512,28.485L8.512,54.022C8.512,54.885,9.032,55.662,9.83,55.99L10.57,56.294C17.345,59.022,24.531,60.407,31.921,60.407L40.434,60.407C43.954,60.407,46.818,57.542,46.818,54.022C46.818,53.194,46.661,52.399,46.37,51.67C49.08,50.932,51.074,48.448,51.074,45.51C51.074,44.681,50.917,43.887,50.626,43.158C51.831,42.83,52.893,42.158,53.7,41.254C54.715,40.123,55.331,38.631,55.331,36.998C55.331,36.251,55.201,35.535,54.965,34.869L66.255,34.869C69.775,34.869,72.639,32.005,72.639,28.485C72.639,24.965,69.775,22.101,66.255,22.101ZM66.255,22.101"/>
  <path stroke-dasharray="none" fill-rule="nonzero" version="1.1" fill-opacity="1" stroke-opacity="1" stroke-linecap="butt" x="0px" stroke-miterlimit="4" xml:space="preserve" y="0px" stroke="none" stroke-width="1" stroke-linejoin="miter" fill="#feb756" xmlns:xlink="http://www.w3.org/1999/xlink" d="M50.626,43.158C50.917,43.887,51.074,44.681,51.074,45.51C51.074,48.448,49.08,50.932,46.37,51.67C46.661,52.399,46.818,53.194,46.818,54.022C46.818,57.542,43.954,60.407,40.434,60.407L31.921,60.407C24.531,60.407,17.345,59.022,10.57,56.294L9.83,55.99C9.032,55.662,8.512,54.885,8.512,54.022L8.512,41.254L53.7,41.254C52.893,42.158,51.831,42.83,50.626,43.158ZM50.626,43.158"/>
  <path stroke-dasharray="none" y="0px" stroke="none" stroke-opacity="1" stroke-linecap="butt" xmlns:xlink="http://www.w3.org/1999/xlink" stroke-linejoin="miter" version="1.1" stroke-width="1" x="0px" fill-opacity="1" fill-rule="nonzero" xml:space="preserve" fill="#fd003a" stroke-miterlimit="4" d="M6.384,60.407L2.128,60.407C0.952,60.407,0,59.455,0,58.279L0,24.229C0,23.053,0.952,22.101,2.128,22.101L6.384,22.101C9.905,22.101,12.769,24.965,12.769,28.485L12.769,54.022C12.769,57.543,9.905,60.407,6.384,60.407ZM6.384,60.407"/>
  <path stroke-width="1" stroke-linecap="butt" x="0px" xmlns:xlink="http://www.w3.org/1999/xlink" stroke-opacity="1" stroke="none" fill-opacity="1" stroke-dasharray="none" fill="#e50027" y="0px" stroke-linejoin="miter" fill-rule="nonzero" version="1.1" stroke-miterlimit="4" xml:space="preserve" d="M0,41.254L0,58.279C0,59.455,0.952,60.407,2.128,60.407L6.384,60.407C9.905,60.407,12.769,57.543,12.769,54.022L12.769,41.254L0,41.254ZM0,41.254"/>
</g>
  <g id="Ultralight-M" transform="matrix(1.0,0.0,0.0,1.0,524.6804325064433,1054.4504520376934)">  <path stroke-width="1" version="1.1" xmlns:xlink="http://www.w3.org/1999/xlink" y="0px" stroke-linecap="butt" xml:space="preserve" stroke-opacity="1" x="0px" fill="#fec478" stroke-linejoin="miter" fill-rule="nonzero" stroke-miterlimit="4" stroke-dasharray="none" fill-opacity="1" stroke="none" d="M66.255,22.101L45.571,22.101L38.829,15.362C34.98,11.51,28.878,11.178,24.631,14.565L9.31,26.822C8.807,27.228,8.512,27.838,8.512,28.485L8.512,54.022C8.512,54.885,9.032,55.662,9.83,55.99L10.57,56.294C17.345,59.022,24.531,60.407,31.921,60.407L40.434,60.407C43.954,60.407,46.818,57.542,46.818,54.022C46.818,53.194,46.661,52.399,46.37,51.67C49.08,50.932,51.074,48.448,51.074,45.51C51.074,44.681,50.917,43.887,50.626,43.158C51.831,42.83,52.893,42.158,53.7,41.254C54.715,40.123,55.331,38.631,55.331,36.998C55.331,36.251,55.201,35.535,54.965,34.869L66.255,34.869C69.775,34.869,72.639,32.005,72.639,28.485C72.639,24.965,69.775,22.101,66.255,22.101ZM66.255,22.101"/>
  <path stroke-width="1" stroke-miterlimit="4" fill-rule="nonzero" y="0px" version="1.1" stroke-linejoin="miter" fill="#feb756" fill-opacity="1" stroke-linecap="butt" xmlns:xlink="http://www.w3.org/1999/xlink" stroke="none" x="0px" stroke-dasharray="none" xml:space="preserve" stroke-opacity="1" d="M50.626,43.158C50.917,43.887,51.074,44.681,51.074,45.51C51.074,48.448,49.08,50.932,46.37,51.67C46.661,52.399,46.818,53.194,46.818,54.022C46.818,57.542,43.954,60.407,40.434,60.407L31.921,60.407C24.531,60.407,17.345,59.022,10.57,56.294L9.83,55.99C9.032,55.662,8.512,54.885,8.512,54.022L8.512,41.254L53.7,41.254C52.893,42.158,51.831,42.83,50.626,43.158ZM50.626,43.158"/>
  <path stroke-opacity="1" xmlns:xlink="http://www.w3.org/1999/xlink" stroke-miterlimit="4" fill="#fd003a" stroke="none" stroke-dasharray="none" stroke-width="1" y="0px" stroke-linejoin="miter" fill-opacity="1" version="1.1" fill-rule="nonzero" x="0px" stroke-linecap="butt" xml:space="preserve" d="M6.384,60.407L2.128,60.407C0.952,60.407,0,59.455,0,58.279L0,24.229C0,23.053,0.952,22.101,2.128,22.101L6.384,22.101C9.905,22.101,12.769,24.965,12.769,28.485L12.769,54.022C12.769,57.543,9.905,60.407,6.384,60.407ZM6.384,60.407"/>
  <path stroke-linejoin="miter" y="0px" version="1.1" fill-opacity="1" stroke-opacity="1" fill="#e50027" xml:space="preserve" stroke-linecap="butt" stroke="none" stroke-width="1" fill-rule="nonzero" x="0px" xmlns:xlink="http://www.w3.org/1999/xlink" stroke-dasharray="none" stroke-miterlimit="4" d="M0,41.254L0,58.279C0,59.455,0.952,60.407,2.128,60.407L6.384,60.407C9.905,60.407,12.769,57.543,12.769,54.022L12.769,41.254L0,41.254ZM0,41.254"/>
</g>
  <g id="Black-S" transform="matrix(1.0,0.0,0.0,1.0,2906.241778652545,632.3317981837951)">  <path x="0px" stroke-width="1" stroke-linecap="butt" stroke-opacity="1" version="1.1" stroke="none" xmlns:xlink="http://www.w3.org/1999/xlink" y="0px" fill-rule="nonzero" stroke-dasharray="none" stroke-linejoin="miter" stroke-miterlimit="4" fill-opacity="1" fill="#fec478" xml:space="preserve" d="M51.878,17.305L35.682,17.305L30.403,12.028C27.39,9.012,22.612,8.752,19.286,11.404L7.29,21.002C6.896,21.32,6.665,21.797,6.665,22.304L6.665,42.3C6.665,42.975,7.072,43.584,7.697,43.84L8.276,44.078C13.581,46.214,19.208,47.298,24.995,47.298L31.66,47.298C34.416,47.298,36.659,45.056,36.659,42.3C36.659,41.651,36.535,41.029,36.308,40.458C38.429,39.88,39.991,37.935,39.991,35.634C39.991,34.986,39.868,34.363,39.64,33.792C40.583,33.536,41.415,33.009,42.047,32.302C42.842,31.416,43.324,30.248,43.324,28.969C43.324,28.385,43.223,27.824,43.037,27.303L51.878,27.303C54.634,27.303,56.876,25.06,56.876,22.304C56.876,19.548,54.634,17.305,51.878,17.305ZM51.878,17.305"/>
  <path stroke-opacity="1" y="0px" x="0px" fill-rule="nonzero" xmlns:xlink="http://www.w3.org/1999/xlink" xml:space="preserve" stroke-miterlimit="4" stroke-dasharray="none" stroke-linecap="butt" stroke="none" fill="#feb756" stroke-width="1" version="1.1" stroke-linejoin="miter" fill-opacity="1" d="M39.64,33.792C39.868,34.363,39.991,34.986,39.991,35.634C39.991,37.935,38.429,39.88,36.308,40.458C36.535,41.029,36.659,41.651,36.659,42.3C36.659,45.056,34.416,47.298,31.66,47.298L24.995,47.298C19.208,47.298,13.581,46.214,8.276,44.078L7.697,43.84C7.072,43.584,6.665,42.975,6.665,42.3L6.665,32.302L42.047,32.302C41.415,33.009,40.583,33.536,39.64,33.792ZM39.64,33.792"/>
  <path stroke-miterlimit="4" stroke-linejoin="miter" xmlns:xlink="http://www.w3.org/1999/xlink" stroke-opacity="1" x="0px" stroke-width="1" stroke="none" stroke-dasharray="none" fill="#fd003a" fill-opacity="1" stroke-linecap="butt" y="0px" xml:space="preserve" fill-rule="nonzero" version="1.1" d="M4.999,47.298L1.666,47.298C0.745,47.298,0,46.553,0,45.632L0,18.971C0,18.05,0.745,17.305,1.666,17.305L4.999,17.305C7.755,17.305,9.998,19.547,9.998,22.304L9.998,42.3C9.998,45.056,7.755,47.298,4.999,47.298ZM4.999,47.298"/>
  <path y="0px" x="0px" stroke-width="1" fill-opacity="1" stroke-opacity="1" stroke-miterlimit="4" stroke-linecap="butt" stroke="none" xmlns:xlink="http://www.w3.org/1999/xlink" xml:space="preserve" stroke-dasharray="none" fill="#e50027" version="1.1" fill-rule="nonzero" stroke-linejoin="miter" d="M0,32.302L0,45.632C0,46.553,0.745,47.298,1.666,47.298L4.999,47.298C7.755,47.298,9.998,45.056,9.998,42.3L9.998,32.302L0,32.302ZM0,32.302"/>
</g>
  <g id="Heavy-S" transform="matrix(1.0,0.0,0.0,1.0,2609.5317786525447,632.3317981837951)">  <path y="0px" fill="#fec478" xmlns:xlink="http://www.w3.org/1999/xlink" fill-opacity="1" xml:space="preserve" x="0px" stroke-dasharray="none" stroke-linejoin="miter" stroke="none" stroke-opacity="1" stroke-linecap="butt" stroke-width="1" fill-rule="nonzero" version="1.1" stroke-miterlimit="4" d="M51.878,17.305L35.682,17.305L30.403,12.028C27.39,9.012,22.612,8.752,19.286,11.404L7.29,21.002C6.896,21.32,6.665,21.797,6.665,22.304L6.665,42.3C6.665,42.975,7.072,43.584,7.697,43.84L8.276,44.078C13.581,46.214,19.208,47.298,24.995,47.298L31.66,47.298C34.416,47.298,36.659,45.056,36.659,42.3C36.659,41.651,36.535,41.029,36.308,40.458C38.429,39.88,39.991,37.935,39.991,35.634C39.991,34.986,39.868,34.363,39.64,33.792C40.583,33.536,41.415,33.009,42.047,32.302C42.842,31.416,43.324,30.248,43.324,28.969C43.324,28.385,43.223,27.824,43.037,27.303L51.878,27.303C54.634,27.303,56.876,25.06,56.876,22.304C56.876,19.548,54.634,17.305,51.878,17.305ZM51.878,17.305"/>
  <path stroke="none" stroke-linejoin="miter" fill-opacity="1" xmlns:xlink="http://www.w3.org/1999/xlink" fill-rule="nonzero" stroke-dasharray="none" stroke-width="1" stroke-miterlimit="4" xml:space="preserve" fill="#feb756" stroke-linecap="butt" x="0px" stroke-opacity="1" y="0px" version="1.1" d="M39.64,33.792C39.868,34.363,39.991,34.986,39.991,35.634C39.991,37.935,38.429,39.88,36.308,40.458C36.535,41.029,36.659,41.651,36.659,42.3C36.659,45.056,34.416,47.298,31.66,47.298L24.995,47.298C19.208,47.298,13.581,46.214,8.276,44.078L7.697,43.84C7.072,43.584,6.665,42.975,6.665,42.3L6.665,32.302L42.047,32.302C41.415,33.009,40.583,33.536,39.64,33.792ZM39.64,33.792"/>
  <path fill-opacity="1" stroke-dasharray="none" stroke="none" y="0px" stroke-miterlimit="4" stroke-linecap="butt" xmlns:xlink="http://www.w3.org/1999/xlink" stroke-linejoin="miter" fill="#fd003a" stroke-opacity="1" xml:space="preserve" version="1.1" stroke-width="1" x="0px" fill-rule="nonzero" d="M4.999,47.298L1.666,47.298C0.745,47.298,0,46.553,0,45.632L0,18.971C0,18.05,0.745,17.305,1.666,17.305L4.999,17.305C7.755,17.305,9.998,19.547,9.998,22.304L9.998,42.3C9.998,45.056,7.755,47.298,4.999,47.298ZM4.999,47.298"/>
  <path stroke-opacity="1" stroke="none" fill-opacity="1" y="0px" x="0px" stroke-linecap="butt" xml:space="preserve" version="1.1" xmlns:xlink="http://www.w3.org/1999/xlink" fill-rule="nonzero" stroke-dasharray="none" stroke-linejoin="miter" stroke-miterlimit="4" fill="#e50027" stroke-width="1" d="M0,32.302L0,45.632C0,46.553,0.745,47.298,1.666,47.298L4.999,47.298C7.755,47.298,9.998,45.056,9.998,42.3L9.998,32.302L0,32.302ZM0,32.302"/>
</g>
  <g id="Bold-S" transform="matrix(1.0,0.0,0.0,1.0,2312.8217786525447,632.3317981837951)">  <path fill="#fec478" xml:space="preserve" version="1.1" x="0px" stroke-width="1" stroke-opacity="1" fill-rule="nonzero" stroke-dasharray="none" stroke="none" fill-opacity="1" stroke-linejoin="miter" stroke-linecap="butt" xmlns:xlink="http://www.w3.org/1999/xlink" y="0px" stroke-miterlimit="4" d="M51.878,17.305L35.682,17.305L30.403,12.028C27.39,9.012,22.612,8.752,19.286,11.404L7.29,21.002C6.896,21.32,6.665,21.797,6.665,22.304L6.665,42.3C6.665,42.975,7.072,43.584,7.697,43.84L8.276,44.078C13.581,46.214,19.208,47.298,24.995,47.298L31.66,47.298C34.416,47.298,36.659,45.056,36.659,42.3C36.659,41.651,36.535,41.029,36.308,40.458C38.429,39.88,39.991,37.935,39.991,35.634C39.991,34.986,39.868,34.363,39.64,33.792C40.583,33.536,41.415,33.009,42.047,32.302C42.842,31.416,43.324,30.248,43.324,28.969C43.324,28.385,43.223,27.824,43.037,27.303L51.878,27.303C54.634,27.303,56.876,25.06,56.876,22.304C56.876,19.548,54.634,17.305,51.878,17.305ZM51.878,17.305"/>
  <path fill-opacity="1" xml:space="preserve" stroke-width="1" x="0px" fill-rule="nonzero" stroke-linecap="butt" stroke-miterlimit="4" stroke-linejoin="miter" y="0px" stroke-dasharray="none" version="1.1" fill="#feb756" stroke-opacity="1" stroke="none" xmlns:xlink="http://www.w3.org/1999/xlink" d="M39.64,33.792C39.868,34.363,39.991,34.986,39.991,35.634C39.991,37.935,38.429,39.88,36.308,40.458C36.535,41.029,36.659,41.651,36.659,42.3C36.659,45.056,34.416,47.298,31.66,47.298L24.995,47.298C19.208,47.298,13.581,46.214,8.276,44.078L7.697,43.84C7.072,43.584,6.665,42.975,6.665,42.3L6.665,32.302L42.047,32.302C41.415,33.009,40.583,33.536,39.64,33.792ZM39.64,33.792"/>
  <path xml:space="preserve" stroke-width="1" stroke-miterlimit="4" version="1.1" stroke="none" x="0px" fill-rule="nonzero" stroke-opacity="1" fill="#fd003a" fill-opacity="1" stroke-dasharray="none" stroke-linejoin="miter" y="0px" stroke-linecap="butt" xmlns:xlink="http://www.w3.org/1999/xlink" d="M4.999,47.298L1.666,47.298C0.745,47.298,0,46.553,0,45.632L0,18.971C0,18.05,0.745,17.305,1.666,17.305L4.999,17.305C7.755,17.305,9.998,19.547,9.998,22.304L9.998,42.3C9.998,45.056,7.755,47.298,4.999,47.298ZM4.999,47.298"/>
  <path stroke-miterlimit="4" stroke-linejoin="miter" version="1.1" xmlns:xlink="http://www.w3.org/1999/xlink" stroke-linecap="butt" stroke="none" fill-rule="nonzero" stroke-dasharray="none" xml:space="preserve" stroke-width="1" y="0px" x="0px" stroke-opacity="1" fill="#e50027" fill-opacity="1" d="M0,32.302L0,45.632C0,46.553,0.745,47.298,1.666,47.298L4.999,47.298C7.755,47.298,9.998,45.056,9.998,42.3L9.998,32.302L0,32.302ZM0,32.302"/>
</g>
  <g id="Semibold-S" transform="matrix(1.0,0.0,0.0,1.0,2016.1117786525451,632.3317981837951)">  <path stroke="none" stroke-opacity="1" xmlns:xlink="http://www.w3.org/1999/xlink" x="0px" stroke-width="1" fill="#fec478" stroke-miterlimit="4" stroke-dasharray="none" version="1.1" stroke-linecap="butt" stroke-linejoin="miter" fill-opacity="1" y="0px" fill-rule="nonzero" xml:space="preserve" d="M51.878,17.305L35.682,17.305L30.403,12.028C27.39,9.012,22.612,8.752,19.286,11.404L7.29,21.002C6.896,21.32,6.665,21.797,6.665,22.304L6.665,42.3C6.665,42.975,7.072,43.584,7.697,43.84L8.276,44.078C13.581,46.214,19.208,47.298,24.995,47.298L31.66,47.298C34.416,47.298,36.659,45.056,36.659,42.3C36.659,41.651,36.535,41.029,36.308,40.458C38.429,39.88,39.991,37.935,39.991,35.634C39.991,34.986,39.868,34.363,39.64,33.792C40.583,33.536,41.415,33.009,42.047,32.302C42.842,31.416,43.324,30.248,43.324,28.969C43.324,28.385,43.223,27.824,43.037,27.303L51.878,27.303C54.634,27.303,56.876,25.06,56.876,22.304C56.876,19.548,54.634,17.305,51.878,17.305ZM51.878,17.305"/>
  <path stroke-dasharray="none" x="0px" xml:space="preserve" stroke-width="1" y="0px" stroke-miterlimit="4" stroke-opacity="1" stroke-linejoin="miter" version="1.1" xmlns:xlink="http://www.w3.org/1999/xlink" fill="#feb756" fill-opacity="1" stroke-linecap="butt" stroke="none" fill-rule="nonzero" d="M39.64,33.792C39.868,34.363,39.991,34.986,39.991,35.634C39.991,37.935,38.429,39.88,36.308,40.458C36.535,41.029,36.659,41.651,36.659,42.3C36.659,45.056,34.416,47.298,31.66,47.298L24.995,47.298C19.208,47.298,13.581,46.214,8.276,44.078L7.697,43.84C7.072,43.584,6.665,42.975,6.665,42.3L6.665,32.302L42.047,32.302C41.415,33.009,40.583,33.536,39.64,33.792ZM39.64,33.792"/>
  <path xmlns:xlink="http://www.w3.org/1999/xlink" xml:space="preserve" stroke-width="1" stroke-opacity="1" x="0px" fill-opacity="1" version="1.1" stroke-linecap="butt" stroke-linejoin="miter" stroke-dasharray="none" stroke="none" stroke-miterlimit="4" fill-rule="nonzero" fill="#fd003a" y="0px" d="M4.999,47.298L1.666,47.298C0.745,47.298,0,46.553,0,45.632L0,18.971C0,18.05,0.745,17.305,1.666,17.305L4.999,17.305C7.755,17.305,9.998,19.547,9.998,22.304L9.998,42.3C9.998,45.056,7.755,47.298,4.999,47.298ZM4.999,47.298"/>
  <path xmlns:xlink="http://www.w3.org/1999/xlink" stroke-dasharray="none" fill-rule="nonzero" fill="#e50027" stroke-width="1" version="1.1" x="0px" stroke-miterlimit="4" xml:space="preserve" y="0px" stroke-linecap="butt" stroke-opacity="1" fill-opacity="1" stroke-linejoin="miter" stroke="none" d="M0,32.302L0,45.632C0,46.553,0.745,47.298,1.666,47.298L4.999,47.298C7.755,47.298,9.998,45.056,9.998,42.3L9.998,32.302L0,32.302ZM0,32.302"/>
</g>
  <g id="Medium-S" transform="matrix(1.0,0.0,0.0,1.0,1719.401778652545,632.3317981837951)">  <path y="0px" stroke-width="1" x="0px" xml:space="preserve" stroke="none" xmlns:xlink="http://www.w3.org/1999/xlink" stroke-opacity="1" stroke-linecap="butt" fill="#fec478" version="1.1" stroke-dasharray="none" fill-opacity="1" stroke-linejoin="miter" stroke-miterlimit="4" fill-rule="nonzero" d="M51.878,17.305L35.682,17.305L30.403,12.028C27.39,9.012,22.612,8.752,19.286,11.404L7.29,21.002C6.896,21.32,6.665,21.797,6.665,22.304L6.665,42.3C6.665,42.975,7.072,43.584,7.697,43.84L8.276,44.078C13.581,46.214,19.208,47.298,24.995,47.298L31.66,47.298C34.416,47.298,36.659,45.056,36.659,42.3C36.659,41.651,36.535,41.029,36.308,40.458C38.429,39.88,39.991,37.935,39.991,35.634C39.991,34.986,39.868,34.363,39.64,33.792C40.583,33.536,41.415,33.009,42.047,32.302C42.842,31.416,43.324,30.248,43.324,28.969C43.324,28.385,43.223,27.824,43.037,27.303L51.878,27.303C54.634,27.303,56.876,25.06,56.876,22.304C56.876,19.548,54.634,17.305,51.878,17.305ZM51.878,17.305"/>
  <path stroke="none" stroke-miterlimit="4" stroke-width="1" stroke-dasharray="none" y="0px" stroke-linejoin="miter" stroke-opacity="1" fill-rule="nonzero" stroke-linecap="butt" xml:space="preserve" x="0px" fill="#feb756" version="1.1" xmlns:xlink="http://www.w3.org/1999/xlink" fill-opacity="1" d="M39.64,33.792C39.868,34.363,39.991,34.986,39.991,35.634C39.991,37.935,38.429,39.88,36.308,40.458C36.535,41.029,36.659,41.651,36.659,42.3C36.659,45.056,34.416,47.298,31.66,47.298L24.995,47.298C19.208,47.298,13.581,46.214,8.276,44.078L7.697,43.84C7.072,43.584,6.665,42.975,6.665,42.3L6.665,32.302L42.047,32.302C41.415,33.009,40.583,33.536,39.64,33.792ZM39.64,33.792"/>
  <path stroke-opacity="1" version="1.1" x="0px" fill="#fd003a" fill-rule="nonzero" stroke-miterlimit="4" stroke="none" stroke-linejoin="miter" stroke-linecap="butt" xmlns:xlink="http://www.w3.org/1999/xlink" y="0px" xml:space="preserve" stroke-width="1" stroke-dasharray="none" fill-opacity="1" d="M4.999,47.298L1.666,47.298C0.745,47.298,0,46.553,0,45.632L0,18.971C0,18.05,0.745,17.305,1.666,17.305L4.999,17.305C7.755,17.305,9.998,19.547,9.998,22.304L9.998,42.3C9.998,45.056,7.755,47.298,4.999,47.298ZM4.999,47.298"/>
  <path stroke-linecap="butt" y="0px" x="0px" fill-opacity="1" xmlns:xlink="http://www.w3.org/1999/xlink" stroke-width="1" fill="#e50027" stroke-linejoin="miter" stroke-opacity="1" version="1.1" fill-rule="nonzero" stroke-dasharray="none" stroke="none" xml:space="preserve" stroke-miterlimit="4" d="M0,32.302L0,45.632C0,46.553,0.745,47.298,1.666,47.298L4.999,47.298C7.755,47.298,9.998,45.056,9.998,42.3L9.998,32.302L0,32.302ZM0,32.302"/>
</g>
  <g id="Regular-S" transform="matrix(1.0,0.0,0.0,1.0,1422.691778652545,632.3317981837951)">  <path xmlns:xlink="http://www.w3.org/1999/xlink" fill-rule="nonzero" stroke="none" y="0px" stroke-miterlimit="4" fill="#fec478" version="1.1" fill-opacity="1" xml:space="preserve" stroke-opacity="1" x="0px" stroke-linecap="butt" stroke-linejoin="miter" stroke-dasharray="none" stroke-width="1" d="M51.878,17.305L35.682,17.305L30.403,12.028C27.39,9.012,22.612,8.752,19.286,11.404L7.29,21.002C6.896,21.32,6.665,21.797,6.665,22.304L6.665,42.3C6.665,42.975,7.072,43.584,7.697,43.84L8.276,44.078C13.581,46.214,19.208,47.298,24.995,47.298L31.66,47.298C34.416,47.298,36.659,45.056,36.659,42.3C36.659,41.651,36.535,41.029,36.308,40.458C38.429,39.88,39.991,37.935,39.991,35.634C39.991,34.986,39.868,34.363,39.64,33.792C40.583,33.536,41.415,33.009,42.047,32.302C42.842,31.416,43.324,30.248,43.324,28.969C43.324,28.385,43.223,27.824,43.037,27.303L51.878,27.303C54.634,27.303,56.876,25.06,56.876,22.304C56.876,19.548,54.634,17.305,51.878,17.305ZM51.878,17.305"/>
  <path xml:space="preserve" x="0px" stroke-miterlimit="4" stroke-opacity="1" stroke-dasharray="none" stroke-linejoin="miter" stroke-linecap="butt" version="1.1" xmlns:xlink="http://www.w3.org/1999/xlink" fill="#feb756" fill-rule="nonzero" stroke-width="1" y="0px" stroke="none" fill-opacity="1" d="M39.64,33.792C39.868,34.363,39.991,34.986,39.991,35.634C39.991,37.935,38.429,39.88,36.308,40.458C36.535,41.029,36.659,41.651,36.659,42.3C36.659,45.056,34.416,47.298,31.66,47.298L24.995,47.298C19.208,47.298,13.581,46.214,8.276,44.078L7.697,43.84C7.072,43.584,6.665,42.975,6.665,42.3L6.665,32.302L42.047,32.302C41.415,33.009,40.583,33.536,39.64,33.792ZM39.64,33.792"/>
  <path x="0px" xml:space="preserve" stroke-linejoin="miter" stroke="none" stroke-dasharray="none" stroke-opacity="1" fill="#fd003a" fill-rule="nonzero" xmlns:xlink="http://www.w3.org/1999/xlink" y="0px" fill-opacity="1" stroke-linecap="butt" version="1.1" stroke-miterlimit="4" stroke-width="1" d="M4.999,47.298L1.666,47.298C0.745,47.298,0,46.553,0,45.632L0,18.971C0,18.05,0.745,17.305,1.666,17.305L4.999,17.305C7.755,17.305,9.998,19.547,9.998,22.304L9.998,42.3C9.998,45.056,7.755,47.298,4.999,47.298ZM4.999,47.298"/>
  <path xmlns:xlink="http://www.w3.org/1999/xlink" x="0px" xml:space="preserve" y="0px" stroke-dasharray="none" fill="#e50027" stroke-opacity="1" stroke-miterlimit="4" stroke-linecap="butt" stroke-linejoin="miter" stroke="none" version="1.1" fill-rule="nonzero" stroke-width="1" fill-opacity="1" d="M0,32.302L0,45.632C0,46.553,0.745,47.298,1.666,47.298L4.999,47.298C7.755,47.298,9.998,45.056,9.998,42.3L9.998,32.302L0,32.302ZM0,32.302"/>
</g>
  <g id="Light-S" transform="matrix(1.0,0.0,0.0,1.0,1125.9817786525452,632.3317981837951)">  <path stroke-linecap="butt" stroke-width="1" stroke-dasharray="none" fill="#fec478" xml:space="preserve" version="1.1" stroke-miterlimit="4" fill-rule="nonzero" stroke="none" stroke-linejoin="miter" xmlns:xlink="http://www.w3.org/1999/xlink" x="0px" y="0px" stroke-opacity="1" fill-opacity="1" d="M51.878,17.305L35.682,17.305L30.403,12.028C27.39,9.012,22.612,8.752,19.286,11.404L7.29,21.002C6.896,21.32,6.665,21.797,6.665,22.304L6.665,42.3C6.665,42.975,7.072,43.584,7.697,43.84L8.276,44.078C13.581,46.214,19.208,47.298,24.995,47.298L31.66,47.298C34.416,47.298,36.659,45.056,36.659,42.3C36.659,41.651,36.535,41.029,36.308,40.458C38.429,39.88,39.991,37.935,39.991,35.634C39.991,34.986,39.868,34.363,39.64,33.792C40.583,33.536,41.415,33.009,42.047,32.302C42.842,31.416,43.324,30.248,43.324,28.969C43.324,28.385,43.223,27.824,43.037,27.303L51.878,27.303C54.634,27.303,56.876,25.06,56.876,22.304C56.876,19.548,54.634,17.305,51.878,17.305ZM51.878,17.305"/>
  <path stroke-width="1" stroke-linecap="butt" stroke-miterlimit="4" y="0px" fill-opacity="1" x="0px" version="1.1" stroke-linejoin="miter" stroke-dasharray="none" xmlns:xlink="http://www.w3.org/1999/xlink" stroke-opacity="1" stroke="none" fill-rule="nonzero" fill="#feb756" xml:space="preserve" d="M39.64,33.792C39.868,34.363,39.991,34.986,39.991,35.634C39.991,37.935,38.429,39.88,36.308,40.458C36.535,41.029,36.659,41.651,36.659,42.3C36.659,45.056,34.416,47.298,31.66,47.298L24.995,47.298C19.208,47.298,13.581,46.214,8.276,44.078L7.697,43.84C7.072,43.584,6.665,42.975,6.665,42.3L6.665,32.302L42.047,32.302C41.415,33.009,40.583,33.536,39.64,33.792ZM39.64,33.792"/>
  <path xmlns:xlink="http://www.w3.org/1999/xlink" stroke-width="1" stroke-opacity="1" version="1.1" fill-opacity="1" stroke-dasharray="none" stroke-linejoin="miter" stroke-miterlimit="4" fill="#fd003a" stroke-linecap="butt" x="0px" fill-rule="nonzero" y="0px" xml:space="preserve" stroke="none" d="M4.999,47.298L1.666,47.298C0.745,47.298,0,46.553,0,45.632L0,18.971C0,18.05,0.745,17.305,1.666,17.305L4.999,17.305C7.755,17.305,9.998,19.547,9.998,22.304L9.998,42.3C9.998,45.056,7.755,47.298,4.999,47.298ZM4.999,47.298"/>
  <path stroke-linejoin="miter" stroke-opacity="1" x="0px" y="0px" fill-opacity="1" version="1.1" stroke-width="1" fill="#e50027" xml:space="preserve" fill-rule="nonzero" stroke-miterlimit="4" stroke="none" stroke-linecap="butt" xmlns:xlink="http://www.w3.org/1999/xlink" stroke-dasharray="none" d="M0,32.302L0,45.632C0,46.553,0.745,47.298,1.666,47.298L4.999,47.298C7.755,47.298,9.998,45.056,9.998,42.3L9.998,32.302L0,32.302ZM0,32.302"/>
</g>
  <g id="Thin-S" transform="matrix(1.0,0.0,0.0,1.0,829.2717786525451,632.3317981837951)">  <path stroke-opacity="1" xml:space="preserve" stroke-dasharray="none" xmlns:xlink="http://www.w3.org/1999/xlink" version="1.1" stroke-linejoin="miter" fill-rule="nonzero" stroke-linecap="butt" fill-opacity="1" fill="#fec478" stroke-miterlimit="4" stroke="none" x="0px" y="0px" stroke-width="1" d="M51.878,17.305L35.682,17.305L30.403,12.028C27.39,9.012,22.612,8.752,19.286,11.404L7.29,21.002C6.896,21.32,6.665,21.797,6.665,22.304L6.665,42.3C6.665,42.975,7.072,43.584,7.697,43.84L8.276,44.078C13.581,46.214,19.208,47.298,24.995,47.298L31.66,47.298C34.416,47.298,36.659,45.056,36.659,42.3C36.659,41.651,36.535,41.029,36.308,40.458C38.429,39.88,39.991,37.935,39.991,35.634C39.991,34.986,39.868,34.363,39.64,33.792C40.583,33.536,41.415,33.009,42.047,32.302C42.842,31.416,43.324,30.248,43.324,28.969C43.324,28.385,43.223,27.824,43.037,27.303L51.878,27.303C54.634,27.303,56.876,25.06,56.876,22.304C56.876,19.548,54.634,17.305,51.878,17.305ZM51.878,17.305"/>
  <path stroke-dasharray="none" fill-rule="nonzero" version="1.1" fill-opacity="1" stroke-opacity="1" stroke-linecap="butt" x="0px" stroke-miterlimit="4" xml:space="preserve" y="0px" stroke="none" stroke-width="1" stroke-linejoin="miter" fill="#feb756" xmlns:xlink="http://www.w3.org/1999/xlink" d="M39.64,33.792C39.868,34.363,39.991,34.986,39.991,35.634C39.991,37.935,38.429,39.88,36.308,40.458C36.535,41.029,36.659,41.651,36.659,42.3C36.659,45.056,34.416,47.298,31.66,47.298L24.995,47.298C19.208,47.298,13.581,46.214,8.276,44.078L7.697,43.84C7.072,43.584,6.665,42.975,6.665,42.3L6.665,32.302L42.047,32.302C41.415,33.009,40.583,33.536,39.64,33.792ZM39.64,33.792"/>
  <path stroke-dasharray="none" y="0px" stroke="none" stroke-opacity="1" stroke-linecap="butt" xmlns:xlink="http://www.w3.org/1999/xlink" stroke-linejoin="miter" version="1.1" stroke-width="1" x="0px" fill-opacity="1" fill-rule="nonzero" xml:space="preserve" fill="#fd003a" stroke-miterlimit="4" d="M4.999,47.298L1.666,47.298C0.745,47.298,0,46.553,0,45.632L0,18.971C0,18.05,0.745,17.305,1.666,17.305L4.999,17.305C7.755,17.305,9.998,19.547,9.998,22.304L9.998,42.3C9.998,45.056,7.755,47.298,4.999,47.298ZM4.999,47.298"/>
  <path stroke-width="1" stroke-linecap="butt" x="0px" xmlns:xlink="http://www.w3.org/1999/xlink" stroke-opacity="1" stroke="none" fill-opacity="1" stroke-dasharray="none" fill="#e50027" y="0px" stroke-linejoin="miter" fill-rule="nonzero" version="1.1" stroke-miterlimit="4" xml:space="preserve" d="M0,32.302L0,45.632C0,46.553,0.745,47.298,1.666,47.298L4.999,47.298C7.755,47.298,9.998,45.056,9.998,42.3L9.998,32.302L0,32.302ZM0,32.302"/>
</g>
  <g id="Ultralight-S" transform="matrix(1.0,0.0,0.0,1.0,532.5617786525451,632.3317981837951)">  <path stroke-width="1" version="1.1" xmlns:xlink="http://www.w3.org/1999/xlink" y="0px" stroke-linecap="butt" xml:space="preserve" stroke-opacity="1" x="0px" fill="#fec478" stroke-linejoin="miter" fill-rule="nonzero" stroke-miterlimit="4" stroke-dasharray="none" fill-opacity="1" stroke="none" d="M51.878,17.305L35.682,17.305L30.403,12.028C27.39,9.012,22.612,8.752,19.286,11.404L7.29,21.002C6.896,21.32,6.665,21.797,6.665,22.304L6.665,42.3C6.665,42.975,7.072,43.584,7.697,43.84L8.276,44.078C13.581,46.214,19.208,47.298,24.995,47.298L31.66,47.298C34.416,47.298,36.659,45.056,36.659,42.3C36.659,41.651,36.535,41.029,36.308,40.458C38.429,39.88,39.991,37.935,39.991,35.634C39.991,34.986,39.868,34.363,39.64,33.792C40.583,33.536,41.415,33.009,42.047,32.302C42.842,31.416,43.324,30.248,43.324,28.969C43.324,28.385,43.223,27.824,43.037,27.303L51.878,27.303C54.634,27.303,56.876,25.06,56.876,22.304C56.876,19.548,54.634,17.305,51.878,17.305ZM51.878,17.305"/>
  <path stroke-width="1" stroke-miterlimit="4" fill-rule="nonzero" y="0px" version="1.1" stroke-linejoin="miter" fill="#feb756" fill-opacity="1" stroke-linecap="butt" xmlns:xlink="http://www.w3.org/1999/xlink" stroke="none" x="0px" stroke-dasharray="none" xml:space="preserve" stroke-opacity="1" d="M39.64,33.792C39.868,34.363,39.991,34.986,39.991,35.634C39.991,37.935,38.429,39.88,36.308,40.458C36.535,41.029,36.659,41.651,36.659,42.3C36.659,45.056,34.416,47.298,31.66,47.298L24.995,47.298C19.208,47.298,13.581,46.214,8.276,44.078L7.697,43.84C7.072,43.584,6.665,42.975,6.665,42.3L6.665,32.302L42.047,32.302C41.415,33.009,40.583,33.536,39.64,33.792ZM39.64,33.792"/>
  <path stroke-opacity="1" xmlns:xlink="http://www.w3.org/1999/xlink" stroke-miterlimit="4" fill="#fd003a" stroke="none" stroke-dasharray="none" stroke-width="1" y="0px" stroke-linejoin="miter" fill-opacity="1" version="1.1" fill-rule="nonzero" x="0px" stroke-linecap="butt" xml:space="preserve" d="M4.999,47.298L1.666,47.298C0.745,47.298,0,46.553,0,45.632L0,18.971C0,18.05,0.745,17.305,1.666,17.305L4.999,17.305C7.755,17.305,9.998,19.547,9.998,22.304L9.998,42.3C9.998,45.056,7.755,47.298,4.999,47.298ZM4.999,47.298"/>
  <path stroke-linejoin="miter" y="0px" version="1.1" fill-opacity="1" stroke-opacity="1" fill="#e50027" xml:space="preserve" stroke-linecap="butt" stroke="none" stroke-width="1" fill-rule="nonzero" x="0px" xmlns:xlink="http://www.w3.org/1999/xlink" stroke-dasharray="none" stroke-miterlimit="4" d="M0,32.302L0,45.632C0,46.553,0.745,47.298,1.666,47.298L4.999,47.298C7.755,47.298,9.998,45.056,9.998,42.3L9.998,32.302L0,32.302ZM0,32.302"/>
</g>
 </g>
</svg>
