<?xml version="1.0" encoding="UTF-8"?>
<!-- Generator: CustomSymbols v2.6.7.45 by @serious_bret https://bretlester.com/app_content/CustomSymbols/ -->
<!-- Guides: Left/Right 0.0/0.0 Cap/Base 0.106/0.106 -->
<!-- Settings: RefScale 1.0 Min/Max Stroke Scales 0.5/2.21 -->
<!DOCTYPE svg
PUBLIC "-//W3C//DTD SVG 1.1//EN"
       "http://www.w3.org/Graphics/SVG/1.1/DTD/svg11.dtd">
<svg version="1.1" xmlns="http://www.w3.org/2000/svg" xmlns:xlink="http://www.w3.org/1999/xlink" width="3300" height="2200">
<![CDATA[<svg width="31" height="31" viewBox="0 0 31 31" fill="none" xmlns="http://www.w3.org/2000/svg">
<path d="M15.5947 24.5005C15.8447 24.4797 16.0585 24.3805 16.236 24.203C16.4135 24.0255 16.5018 23.8122 16.501 23.563C16.501 23.2713 16.4072 23.0367 16.2197 22.8592C16.0322 22.6817 15.7926 22.6038 15.501 22.6255C14.6468 22.688 13.7406 22.4534 12.7822 21.9217C11.8239 21.3901 11.2197 20.4267 10.9697 19.0317C10.9281 18.8026 10.8189 18.6151 10.6422 18.4692C10.4656 18.3234 10.2622 18.2505 10.0322 18.2505C9.74056 18.2505 9.50098 18.3601 9.31348 18.5792C9.12598 18.7984 9.06348 19.0534 9.12598 19.3442C9.48014 21.2401 10.3135 22.5942 11.626 23.4067C12.9385 24.2192 14.2614 24.5838 15.5947 24.5005ZM15.251 28.2505C12.3968 28.2505 10.0164 27.2713 8.10973 25.313C6.20306 23.3547 5.25014 20.9172 5.25098 18.0005C5.25098 15.9172 6.07931 13.6513 7.73598 11.203C9.39264 8.75466 11.8976 6.10382 15.251 3.25049C18.6051 6.10465 21.1106 8.7559 22.7672 11.2042C24.4239 13.6526 25.2518 15.918 25.251 18.0005C25.251 20.9172 24.2976 23.3547 22.391 25.313C20.4843 27.2713 18.1043 28.2505 15.251 28.2505ZM15.251 25.7505C17.4176 25.7505 19.2093 25.0159 20.626 23.5467C22.0426 22.0776 22.751 20.2288 22.751 18.0005C22.751 16.4797 22.1206 14.7609 20.8597 12.8442C19.5989 10.9276 17.7293 8.83382 15.251 6.56299C12.7718 8.83382 10.9022 10.9276 9.64223 12.8442C8.38223 14.7609 7.75181 16.4797 7.75098 18.0005C7.75098 20.2297 8.45931 22.0788 9.87598 23.548C11.2926 25.0172 13.0843 25.7513 15.251 25.7505Z" fill="#421A73"/>
</svg>
]]>
 <g id="Notes">
  <rect height="2200" id="artboard" style="fill:white;opacity:1" width="3300" x="0" y="0"/>
  <line id="" style="fill:none;stroke:black;opacity:1;stroke-width:0.5;" x1="263" x2="3036" y1="292" y2="292"/>
  <text id="reftext1" style="stroke:none;fill:black;font-family:-apple-system,&quot;SF Pro Display&quot;,&quot;SF Pro Text&quot;,Helvetica,sans-serif;font-weight:bold;" transform="matrix(1 0 0 1 263 322)">Weight/Scale Variations</text>
  <text id="reftext2" style="stroke:none;fill:black;font-family:-apple-system,&quot;SF Pro Display&quot;,&quot;SF Pro Text&quot;,Helvetica,sans-serif;text-anchor:middle;" transform="matrix(1 0 0 1 559.711 322)">Ultralight</text>
  <text style="stroke:none;fill:black;font-family:-apple-system,&quot;SF Pro Display&quot;,&quot;SF Pro Text&quot;,Helvetica,sans-serif;text-anchor:middle;" transform="matrix(1 0 0 1 856.422 322)">Thin</text>
  <text style="stroke:none;fill:black;font-family:-apple-system,&quot;SF Pro Display&quot;,&quot;SF Pro Text&quot;,Helvetica,sans-serif;text-anchor:middle;" transform="matrix(1 0 0 1 1153.13 322)">Light</text>
  <text style="stroke:none;fill:black;font-family:-apple-system,&quot;SF Pro Display&quot;,&quot;SF Pro Text&quot;,Helvetica,sans-serif;text-anchor:middle;" transform="matrix(1 0 0 1 1449.84 322)">Regular</text>
  <text style="stroke:none;fill:black;font-family:-apple-system,&quot;SF Pro Display&quot;,&quot;SF Pro Text&quot;,Helvetica,sans-serif;text-anchor:middle;" transform="matrix(1 0 0 1 1746.56 322)">Medium</text>
  <text style="stroke:none;fill:black;font-family:-apple-system,&quot;SF Pro Display&quot;,&quot;SF Pro Text&quot;,Helvetica,sans-serif;text-anchor:middle;" transform="matrix(1 0 0 1 2043.27 322)">Semibold</text>
  <text style="stroke:none;fill:black;font-family:-apple-system,&quot;SF Pro Display&quot;,&quot;SF Pro Text&quot;,Helvetica,sans-serif;text-anchor:middle;" transform="matrix(1 0 0 1 2339.98 322)">Bold</text>
  <text style="stroke:none;fill:black;font-family:-apple-system,&quot;SF Pro Display&quot;,&quot;SF Pro Text&quot;,Helvetica,sans-serif;text-anchor:middle;" transform="matrix(1 0 0 1 2636.69 322)">Heavy</text>
  <text style="stroke:none;fill:black;font-family:-apple-system,&quot;SF Pro Display&quot;,&quot;SF Pro Text&quot;,Helvetica,sans-serif;text-anchor:middle;" transform="matrix(1 0 0 1 2933.4 322)">Black</text>
  <line id="" style="fill:none;stroke:black;opacity:1;stroke-width:0.5;" x1="263" x2="3036" y1="1903" y2="1903"/>
  <g id="" transform="matrix(1 0 0 1 263 1933)">
   <path d="M9.24805 0.830078C13.5547 0.830078 17.1387-2.74414 17.1387-7.05078C17.1387-11.3574 13.5449-14.9316 9.23828-14.9316C4.94141-14.9316 1.36719-11.3574 1.36719-7.05078C1.36719-2.74414 4.95117 0.830078 9.24805 0.830078ZM9.24805-0.654297C5.70312-0.654297 2.87109-3.49609 2.87109-7.05078C2.87109-10.6055 5.69336-13.4473 9.23828-13.4473C12.793-13.4473 15.6348-10.6055 15.6445-7.05078C15.6543-3.49609 12.8027-0.654297 9.24805-0.654297ZM6.39648-6.31836L8.50586-6.31836L8.50586-4.19922C8.50586-3.75977 8.79883-3.45703 9.22852-3.45703C9.67773-3.45703 9.9707-3.75977 9.9707-4.19922L9.9707-6.31836L12.0996-6.31836C12.5391-6.31836 12.8418-6.61133 12.8418-7.04102C12.8418-7.48047 12.5391-7.7832 12.0996-7.7832L9.9707-7.7832L9.9707-9.89258C9.9707-10.3418 9.67773-10.6445 9.22852-10.6445C8.79883-10.6445 8.50586-10.3418 8.50586-9.89258L8.50586-7.7832L6.39648-7.7832C5.94727-7.7832 5.64453-7.48047 5.64453-7.04102C5.64453-6.61133 5.94727-6.31836 6.39648-6.31836Z"/>
  </g>
  <g id="" transform="matrix(1 0 0 1 281.506 1933)">
   <path d="M11.709 2.91016C17.1582 2.91016 21.6699-1.61133 21.6699-7.05078C21.6699-12.5 17.1484-17.0117 11.6992-17.0117C6.25977-17.0117 1.74805-12.5 1.74805-7.05078C1.74805-1.61133 6.26953 2.91016 11.709 2.91016ZM11.709 1.25C7.09961 1.25 3.41797-2.44141 3.41797-7.05078C3.41797-11.6602 7.08984-15.3516 11.6992-15.3516C16.3086-15.3516 20-11.6602 20.0098-7.05078C20.0195-2.44141 16.3184 1.25 11.709 1.25ZM7.98828-6.23047L10.8789-6.23047L10.8789-3.32031C10.8789-2.83203 11.2109-2.5 11.6895-2.5C12.1777-2.5 12.5195-2.83203 12.5195-3.32031L12.5195-6.23047L15.4297-6.23047C15.918-6.23047 16.25-6.5625 16.25-7.04102C16.25-7.5293 15.918-7.87109 15.4297-7.87109L12.5195-7.87109L12.5195-10.7617C12.5195-11.2695 12.1777-11.6016 11.6895-11.6016C11.2109-11.6016 10.8789-11.2598 10.8789-10.7617L10.8789-7.87109L7.98828-7.87109C7.48047-7.87109 7.14844-7.5293 7.14844-7.04102C7.14844-6.5625 7.49023-6.23047 7.98828-6.23047Z"/>
  </g>
  <g id="" transform="matrix(1 0 0 1 304.924 1933)">
   <path d="M14.9707 5.66406C21.9336 5.66406 27.6953-0.0976562 27.6953-7.05078C27.6953-14.0137 21.9238-19.7754 14.9609-19.7754C8.00781-19.7754 2.25586-14.0137 2.25586-7.05078C2.25586-0.0976562 8.01758 5.66406 14.9707 5.66406ZM14.9707 3.84766C8.93555 3.84766 4.08203-1.01562 4.08203-7.05078C4.08203-13.0957 8.92578-17.9492 14.9609-17.9492C21.0059-17.9492 25.8594-13.0957 25.8691-7.05078C25.8789-1.01562 21.0156 3.84766 14.9707 3.84766ZM10.0586-6.14258L14.0625-6.14258L14.0625-2.12891C14.0625-1.5918 14.4336-1.2207 14.9512-1.2207C15.4883-1.2207 15.8594-1.5918 15.8594-2.12891L15.8594-6.14258L19.8828-6.14258C20.4102-6.14258 20.791-6.51367 20.791-7.03125C20.791-7.56836 20.4199-7.94922 19.8828-7.94922L15.8594-7.94922L15.8594-11.9531C15.8594-12.5098 15.4883-12.8809 14.9512-12.8809C14.4336-12.8809 14.0625-12.5 14.0625-11.9531L14.0625-7.94922L10.0586-7.94922C9.50195-7.94922 9.13086-7.56836 9.13086-7.03125C9.13086-6.51367 9.51172-6.14258 10.0586-6.14258Z"/>
  </g>
  <text style="stroke:none;fill:black;font-family:-apple-system,&quot;SF Pro Display&quot;,&quot;SF Pro Text&quot;,Helvetica,sans-serif;font-weight:bold;" transform="matrix(1 0 0 1 263 1953)">Design Variations</text>
  <text style="stroke:none;fill:black;font-family:-apple-system,&quot;SF Pro Display&quot;,&quot;SF Pro Text&quot;,Helvetica,sans-serif;" transform="matrix(1 0 0 1 263 1971)">Symbols are supported in up to nine weights and three scales.</text>
  <text style="stroke:none;fill:black;font-family:-apple-system,&quot;SF Pro Display&quot;,&quot;SF Pro Text&quot;,Helvetica,sans-serif;" transform="matrix(1 0 0 1 263 1989)">For optimal layout with text and other symbols, vertically align</text>
  <text style="stroke:none;fill:black;font-family:-apple-system,&quot;SF Pro Display&quot;,&quot;SF Pro Text&quot;,Helvetica,sans-serif;" transform="matrix(1 0 0 1 263 2007)">symbols with the adjacent text.</text>
  <line id="" style="fill:none;stroke:#00AEEF;stroke-width:0.5;opacity:1.0;" x1="776" x2="776" y1="1919" y2="1933"/>
  <g id="" transform="matrix(1 0 0 1 776 1933)">
   <path d="M3.31055 0.126953C3.82812 0.126953 4.08203-0.0683594 4.26758-0.605469L5.52734-4.0625L11.2891-4.0625L12.5488-0.605469C12.7344-0.0683594 12.9883 0.126953 13.4961 0.126953C14.0137 0.126953 14.3457-0.185547 14.3457-0.673828C14.3457-0.839844 14.3164-0.986328 14.2383-1.20117L9.6582-13.3887C9.43359-13.9941 9.0332-14.2871 8.4082-14.2871C7.80273-14.2871 7.39258-13.9941 7.17773-13.3984L2.59766-1.19141C2.51953-0.976562 2.49023-0.830078 2.49023-0.664062C2.49023-0.175781 2.80273 0.126953 3.31055 0.126953ZM6.00586-5.53711L8.37891-12.1094L8.42773-12.1094L10.8008-5.53711Z"/>
  </g>
  <line id="" style="fill:none;stroke:#00AEEF;stroke-width:0.5;opacity:1.0;" x1="792.836" x2="792.836" y1="1919" y2="1933"/>
  <text style="stroke:none;fill:black;font-family:-apple-system,&quot;SF Pro Display&quot;,&quot;SF Pro Text&quot;,Helvetica,sans-serif;font-weight:bold;" transform="matrix(1 0 0 1 776 1953)">Margins</text>
  <text style="stroke:none;fill:black;font-family:-apple-system,&quot;SF Pro Display&quot;,&quot;SF Pro Text&quot;,Helvetica,sans-serif;" transform="matrix(1 0 0 1 776 1971)">Leading and trailing margins on the left and right side of each symbol</text>
  <text style="stroke:none;fill:black;font-family:-apple-system,&quot;SF Pro Display&quot;,&quot;SF Pro Text&quot;,Helvetica,sans-serif;" transform="matrix(1 0 0 1 776 1989)">can be adjusted by modifying the x-location of the margin guidelines.</text>
  <text style="stroke:none;fill:black;font-family:-apple-system,&quot;SF Pro Display&quot;,&quot;SF Pro Text&quot;,Helvetica,sans-serif;" transform="matrix(1 0 0 1 776 2007)">Modifications are automatically applied proportionally to all</text>
  <text style="stroke:none;fill:black;font-family:-apple-system,&quot;SF Pro Display&quot;,&quot;SF Pro Text&quot;,Helvetica,sans-serif;" transform="matrix(1 0 0 1 776 2025)">scales and weights.</text>
  <g id="" transform="matrix(1 0 0 1 1289 1933)">
   <path d="M2.8418 1.86523L4.54102 3.57422C5.40039 4.44336 6.38672 4.38477 7.31445 3.35938L17.4902-7.85156C17.7539-7.76367 18.0273-7.7832 18.3398-7.8418L19.4043-8.03711L20.0684-7.36328L20.0293-6.80664C19.9902-6.30859 20.1172-5.92773 20.6055-5.44922L21.3672-4.70703C21.8457-4.22852 22.4609-4.19922 22.9297-4.66797L25.8398-7.58789C26.3086-8.05664 26.2891-8.65234 25.8105-9.13086L25.0391-9.89258C24.5605-10.3711 24.1895-10.5273 23.7109-10.4883L23.1348-10.4395L22.4902-11.0742L22.7344-12.1973C22.8613-12.7637 22.7051-13.2031 22.1191-13.7891L19.9219-15.9766C16.582-19.2969 12.1484-19.2188 9.25781-16.3281C8.83789-15.918 8.80859-15.3418 9.04297-14.9512C9.27734-14.5898 9.73633-14.3555 10.3809-14.5215C11.8457-14.8633 13.3691-14.9219 14.7949-13.9844L14.209-12.5293C14.0137-12.0508 13.9844-11.6504 14.1113-11.2891L3.04688-0.898438C2.06055 0.0195312 1.98242 0.996094 2.8418 1.86523ZM10.752-15.957C13.1836-17.7344 16.4746-17.4316 18.7012-15.2051L21.1328-12.793C21.3672-12.5586 21.4062-12.373 21.3379-12.0312L21.0156-10.5469L22.5195-9.0625L23.5059-9.12109C23.7598-9.13086 23.8379-9.11133 24.0332-8.91602L24.6094-8.33984L22.168-5.89844L21.5918-6.47461C21.3965-6.66992 21.3672-6.74805 21.377-7.01172L21.4453-7.98828L19.9512-9.47266L18.4277-9.21875C18.1055-9.15039 17.959-9.17969 17.7148-9.41406L15.7129-11.416C15.459-11.6504 15.4297-11.8164 15.5859-12.1875L16.4648-14.2773C14.9023-15.7324 12.8711-16.3574 10.8398-15.7617C10.6836-15.7227 10.625-15.8496 10.752-15.957ZM5.27344 2.30469L4.10156 1.14258C3.63281 0.683594 3.74023 0.341797 4.14062-0.0195312L14.9512-10.1953L16.416-8.71094L6.42578 2.27539C6.07422 2.67578 5.74219 2.77344 5.27344 2.30469Z"/>
  </g>
  <text style="stroke:none;fill:black;font-family:-apple-system,&quot;SF Pro Display&quot;,&quot;SF Pro Text&quot;,Helvetica,sans-serif;font-weight:bold;" transform="matrix(1 0 0 1 1289 1953)">Exporting</text>
  <text style="stroke:none;fill:black;font-family:-apple-system,&quot;SF Pro Display&quot;,&quot;SF Pro Text&quot;,Helvetica,sans-serif;" transform="matrix(1 0 0 1 1289 1971)">Symbols should be outlined when exporting to ensure the</text>
  <text style="stroke:none;fill:black;font-family:-apple-system,&quot;SF Pro Display&quot;,&quot;SF Pro Text&quot;,Helvetica,sans-serif;" transform="matrix(1 0 0 1 1289 1989)">design is preserved when submitting to Xcode.</text>
  <text id="template-version" style="stroke:none;fill:black;font-family:-apple-system,&quot;SF Pro Display&quot;,&quot;SF Pro Text&quot;,Helvetica,sans-serif;text-anchor:end;" transform="matrix(1 0 0 1 3036 1933)">Template v.2.0</text>
  <text style="stroke:none;fill:black;font-family:-apple-system,&quot;SF Pro Display&quot;,&quot;SF Pro Text&quot;,Helvetica,sans-serif;text-anchor:end;" transform="matrix(1 0 0 1 3036 1951)">Requires Xcode 12 or greater</text>
  <text style="stroke:none;fill:black;font-family:-apple-system,&quot;SF Pro Display&quot;,&quot;SF Pro Text&quot;,Helvetica,sans-serif;" transform="matrix(1 0 0 1 263 726)">Small</text>
  <text style="stroke:none;fill:black;font-family:-apple-system,&quot;SF Pro Display&quot;,&quot;SF Pro Text&quot;,Helvetica,sans-serif;" transform="matrix(1 0 0 1 263 1156)">Medium</text>
  <text style="stroke:none;fill:black;font-family:-apple-system,&quot;SF Pro Display&quot;,&quot;SF Pro Text&quot;,Helvetica,sans-serif;" transform="matrix(1 0 0 1 263 1586)">Large</text>
 </g>
 <g id="Guides">
  <g id="H-reference" style="fill:#27AAE1;stroke:none;" transform="matrix(1 0 0 1 339 696)">
   <path d="M0.976562 0L3.66211 0L12.9883-24.4629L45.752-24.4629L55.127 0L57.7637 0L30.6152-70.459L28.125-70.459ZM29.3457-67.1387L29.4434-67.1387L44.873-26.709L13.8672-26.709Z"/>
  </g>
  <line id="Baseline-S" style="fill:none;stroke:#27AAE1;opacity:1;stroke-width:0.5;" x1="263" x2="3036" y1="696" y2="696"/>
  <line id="Capline-S" style="fill:none;stroke:#27AAE1;opacity:1;stroke-width:0.5;" x1="263" x2="3036" y1="625.541" y2="625.541"/>
  <g id="H-reference" style="fill:#27AAE1;stroke:none;" transform="matrix(1 0 0 1 339 1126)">
   <path d="M0.976562 0L3.66211 0L12.9883-24.4629L45.752-24.4629L55.127 0L57.7637 0L30.6152-70.459L28.125-70.459ZM29.3457-67.1387L29.4434-67.1387L44.873-26.709L13.8672-26.709Z"/>
  </g>
  <line id="Baseline-M" style="fill:none;stroke:#27AAE1;opacity:1;stroke-width:0.5;" x1="263" x2="3036" y1="1126" y2="1126"/>
  <line id="Capline-M" style="fill:none;stroke:#27AAE1;opacity:1;stroke-width:0.5;" x1="263" x2="3036" y1="1055.54" y2="1055.54"/>
  <g id="H-reference" style="fill:#27AAE1;stroke:none;" transform="matrix(1 0 0 1 339 1556)">
   <path d="M0.976562 0L3.66211 0L12.9883-24.4629L45.752-24.4629L55.127 0L57.7637 0L30.6152-70.459L28.125-70.459ZM29.3457-67.1387L29.4434-67.1387L44.873-26.709L13.8672-26.709Z"/>
  </g>
  <line id="Baseline-L" style="fill:none;stroke:#27AAE1;opacity:1;stroke-width:0.5;" x1="263" x2="3036" y1="1556" y2="1556"/>
  <line id="Capline-L" style="fill:none;stroke:#27AAE1;opacity:1;stroke-width:0.5;" x1="263" x2="3036" y1="1485.54" y2="1485.54"/>
  <line id="left-margin" x1="1406.421902958439" x2="1406.421902958439" y1="1030.79" y2="1150.12" style="fill:none;stroke:#00AEEF;stroke-width:0.5;opacity:1.0;"/>
  <line id="right-margin" x1="1495.8380970415608" x2="1495.8380970415608" y1="1030.79" y2="1150.12" style="fill:none;stroke:#00AEEF;stroke-width:0.5;opacity:1.0;"/>
 </g>
 <g id="Symbols">
  <g id="Black-L" transform="matrix(1.0,0.0,0.0,1.0,2877.006554816386,1463.0965743476363)">  <path fill-opacity="1" stroke="none" stroke-linecap="butt" stroke-miterlimit="4" stroke-dasharray="none" stroke-linejoin="miter" stroke-width="1px" stroke-opacity="1" fill="#000000" fill-rule="nonzero" d="M58.026,91.163C58.956,91.086,59.752,90.717,60.412,90.056C61.072,89.396,61.401,88.602,61.398,87.675C61.398,86.589,61.049,85.717,60.351,85.056C59.654,84.396,58.762,84.106,57.677,84.186C54.499,84.419,51.127,83.546,47.561,81.568C43.995,79.59,41.747,76.005,40.817,70.814C40.662,69.962,40.256,69.264,39.598,68.721C38.941,68.179,38.184,67.908,37.328,67.908C36.243,67.908,35.352,68.315,34.654,69.131C33.957,69.946,33.724,70.895,33.957,71.977C35.274,79.032,38.375,84.07,43.259,87.093C48.142,90.116,53.065,91.473,58.026,91.163ZM56.747,105.116C46.127,105.116,37.27,101.473,30.175,94.186C23.081,86.9,19.535,77.83,19.538,66.977C19.538,59.226,22.62,50.795,28.785,41.685C34.949,32.575,44.269,22.712,56.747,12.095C69.227,22.715,78.55,32.58,84.714,41.689C90.878,50.8,93.959,59.229,93.956,66.977C93.956,77.83,90.408,86.9,83.314,94.186C76.219,101.473,67.364,105.116,56.747,105.116ZM56.747,95.814C64.809,95.814,71.475,93.081,76.747,87.614C82.018,82.148,84.653,75.269,84.653,66.977C84.653,61.319,82.308,54.923,77.616,47.792C72.925,40.66,65.968,32.869,56.747,24.42C47.522,32.869,40.566,40.66,35.877,47.792C31.189,54.923,28.843,61.319,28.84,66.977C28.84,75.272,31.476,82.152,36.747,87.619C42.018,93.086,48.685,95.817,56.747,95.814ZM56.747,95.814"/>
</g>
  <g id="Heavy-L" transform="matrix(1.0,0.0,0.0,1.0,2580.296554816386,1463.0965743476363)">  <path fill-rule="nonzero" fill="#000000" fill-opacity="1" stroke="none" stroke-linejoin="miter" stroke-width="1px" stroke-miterlimit="4" stroke-dasharray="none" stroke-opacity="1" stroke-linecap="butt" d="M58.026,91.163C58.956,91.086,59.752,90.717,60.412,90.056C61.072,89.396,61.401,88.602,61.398,87.675C61.398,86.589,61.049,85.717,60.351,85.056C59.654,84.396,58.762,84.106,57.677,84.186C54.499,84.419,51.127,83.546,47.561,81.568C43.995,79.59,41.747,76.005,40.817,70.814C40.662,69.962,40.256,69.264,39.598,68.721C38.941,68.179,38.184,67.908,37.328,67.908C36.243,67.908,35.352,68.315,34.654,69.131C33.957,69.946,33.724,70.895,33.957,71.977C35.274,79.032,38.375,84.07,43.259,87.093C48.142,90.116,53.065,91.473,58.026,91.163ZM56.747,105.116C46.127,105.116,37.27,101.473,30.175,94.186C23.081,86.9,19.535,77.83,19.538,66.977C19.538,59.226,22.62,50.795,28.785,41.685C34.949,32.575,44.269,22.712,56.747,12.095C69.227,22.715,78.55,32.58,84.714,41.689C90.878,50.8,93.959,59.229,93.956,66.977C93.956,77.83,90.408,86.9,83.314,94.186C76.219,101.473,67.364,105.116,56.747,105.116ZM56.747,95.814C64.809,95.814,71.475,93.081,76.747,87.614C82.018,82.148,84.653,75.269,84.653,66.977C84.653,61.319,82.308,54.923,77.616,47.792C72.925,40.66,65.968,32.869,56.747,24.42C47.522,32.869,40.566,40.66,35.877,47.792C31.189,54.923,28.843,61.319,28.84,66.977C28.84,75.272,31.476,82.152,36.747,87.619C42.018,93.086,48.685,95.817,56.747,95.814ZM56.747,95.814"/>
</g>
  <g id="Bold-L" transform="matrix(1.0,0.0,0.0,1.0,2283.586554816386,1463.0965743476363)">  <path stroke-width="1px" stroke-linejoin="miter" stroke="none" stroke-opacity="1" stroke-dasharray="none" stroke-miterlimit="4" fill="#000000" stroke-linecap="butt" fill-opacity="1" fill-rule="nonzero" d="M58.026,91.163C58.956,91.086,59.752,90.717,60.412,90.056C61.072,89.396,61.401,88.602,61.398,87.675C61.398,86.589,61.049,85.717,60.351,85.056C59.654,84.396,58.762,84.106,57.677,84.186C54.499,84.419,51.127,83.546,47.561,81.568C43.995,79.59,41.747,76.005,40.817,70.814C40.662,69.962,40.256,69.264,39.598,68.721C38.941,68.179,38.184,67.908,37.328,67.908C36.243,67.908,35.352,68.315,34.654,69.131C33.957,69.946,33.724,70.895,33.957,71.977C35.274,79.032,38.375,84.07,43.259,87.093C48.142,90.116,53.065,91.473,58.026,91.163ZM56.747,105.116C46.127,105.116,37.27,101.473,30.175,94.186C23.081,86.9,19.535,77.83,19.538,66.977C19.538,59.226,22.62,50.795,28.785,41.685C34.949,32.575,44.269,22.712,56.747,12.095C69.227,22.715,78.55,32.58,84.714,41.689C90.878,50.8,93.959,59.229,93.956,66.977C93.956,77.83,90.408,86.9,83.314,94.186C76.219,101.473,67.364,105.116,56.747,105.116ZM56.747,95.814C64.809,95.814,71.475,93.081,76.747,87.614C82.018,82.148,84.653,75.269,84.653,66.977C84.653,61.319,82.308,54.923,77.616,47.792C72.925,40.66,65.968,32.869,56.747,24.42C47.522,32.869,40.566,40.66,35.877,47.792C31.189,54.923,28.843,61.319,28.84,66.977C28.84,75.272,31.476,82.152,36.747,87.619C42.018,93.086,48.685,95.817,56.747,95.814ZM56.747,95.814"/>
</g>
  <g id="Semibold-L" transform="matrix(1.0,0.0,0.0,1.0,1986.8765548163865,1463.0965743476363)">  <path fill-opacity="1" stroke-miterlimit="4" fill="#000000" fill-rule="nonzero" stroke-width="1px" stroke-linecap="butt" stroke-opacity="1" stroke="none" stroke-dasharray="none" stroke-linejoin="miter" d="M58.026,91.163C58.956,91.086,59.752,90.717,60.412,90.056C61.072,89.396,61.401,88.602,61.398,87.675C61.398,86.589,61.049,85.717,60.351,85.056C59.654,84.396,58.762,84.106,57.677,84.186C54.499,84.419,51.127,83.546,47.561,81.568C43.995,79.59,41.747,76.005,40.817,70.814C40.662,69.962,40.256,69.264,39.598,68.721C38.941,68.179,38.184,67.908,37.328,67.908C36.243,67.908,35.352,68.315,34.654,69.131C33.957,69.946,33.724,70.895,33.957,71.977C35.274,79.032,38.375,84.07,43.259,87.093C48.142,90.116,53.065,91.473,58.026,91.163ZM56.747,105.116C46.127,105.116,37.27,101.473,30.175,94.186C23.081,86.9,19.535,77.83,19.538,66.977C19.538,59.226,22.62,50.795,28.785,41.685C34.949,32.575,44.269,22.712,56.747,12.095C69.227,22.715,78.55,32.58,84.714,41.689C90.878,50.8,93.959,59.229,93.956,66.977C93.956,77.83,90.408,86.9,83.314,94.186C76.219,101.473,67.364,105.116,56.747,105.116ZM56.747,95.814C64.809,95.814,71.475,93.081,76.747,87.614C82.018,82.148,84.653,75.269,84.653,66.977C84.653,61.319,82.308,54.923,77.616,47.792C72.925,40.66,65.968,32.869,56.747,24.42C47.522,32.869,40.566,40.66,35.877,47.792C31.189,54.923,28.843,61.319,28.84,66.977C28.84,75.272,31.476,82.152,36.747,87.619C42.018,93.086,48.685,95.817,56.747,95.814ZM56.747,95.814"/>
</g>
  <g id="Medium-L" transform="matrix(1.0,0.0,0.0,1.0,1690.1665548163865,1463.0965743476363)">  <path stroke="none" stroke-linejoin="miter" stroke-linecap="butt" stroke-opacity="1" fill="#000000" fill-opacity="1" stroke-width="1px" fill-rule="nonzero" stroke-dasharray="none" stroke-miterlimit="4" d="M58.026,91.163C58.956,91.086,59.752,90.717,60.412,90.056C61.072,89.396,61.401,88.602,61.398,87.675C61.398,86.589,61.049,85.717,60.351,85.056C59.654,84.396,58.762,84.106,57.677,84.186C54.499,84.419,51.127,83.546,47.561,81.568C43.995,79.59,41.747,76.005,40.817,70.814C40.662,69.962,40.256,69.264,39.598,68.721C38.941,68.179,38.184,67.908,37.328,67.908C36.243,67.908,35.352,68.315,34.654,69.131C33.957,69.946,33.724,70.895,33.957,71.977C35.274,79.032,38.375,84.07,43.259,87.093C48.142,90.116,53.065,91.473,58.026,91.163ZM56.747,105.116C46.127,105.116,37.27,101.473,30.175,94.186C23.081,86.9,19.535,77.83,19.538,66.977C19.538,59.226,22.62,50.795,28.785,41.685C34.949,32.575,44.269,22.712,56.747,12.095C69.227,22.715,78.55,32.58,84.714,41.689C90.878,50.8,93.959,59.229,93.956,66.977C93.956,77.83,90.408,86.9,83.314,94.186C76.219,101.473,67.364,105.116,56.747,105.116ZM56.747,95.814C64.809,95.814,71.475,93.081,76.747,87.614C82.018,82.148,84.653,75.269,84.653,66.977C84.653,61.319,82.308,54.923,77.616,47.792C72.925,40.66,65.968,32.869,56.747,24.42C47.522,32.869,40.566,40.66,35.877,47.792C31.189,54.923,28.843,61.319,28.84,66.977C28.84,75.272,31.476,82.152,36.747,87.619C42.018,93.086,48.685,95.817,56.747,95.814ZM56.747,95.814"/>
</g>
  <g id="Regular-L" transform="matrix(1.0,0.0,0.0,1.0,1393.4565548163864,1463.0965743476363)">  <path stroke-linejoin="miter" stroke="none" fill-rule="nonzero" fill="#000000" stroke-dasharray="none" stroke-width="1px" fill-opacity="1" stroke-miterlimit="4" stroke-linecap="butt" stroke-opacity="1" d="M58.026,91.163C58.956,91.086,59.752,90.717,60.412,90.056C61.072,89.396,61.401,88.602,61.398,87.675C61.398,86.589,61.049,85.717,60.351,85.056C59.654,84.396,58.762,84.106,57.677,84.186C54.499,84.419,51.127,83.546,47.561,81.568C43.995,79.59,41.747,76.005,40.817,70.814C40.662,69.962,40.256,69.264,39.598,68.721C38.941,68.179,38.184,67.908,37.328,67.908C36.243,67.908,35.352,68.315,34.654,69.131C33.957,69.946,33.724,70.895,33.957,71.977C35.274,79.032,38.375,84.07,43.259,87.093C48.142,90.116,53.065,91.473,58.026,91.163ZM56.747,105.116C46.127,105.116,37.27,101.473,30.175,94.186C23.081,86.9,19.535,77.83,19.538,66.977C19.538,59.226,22.62,50.795,28.785,41.685C34.949,32.575,44.269,22.712,56.747,12.095C69.227,22.715,78.55,32.58,84.714,41.689C90.878,50.8,93.959,59.229,93.956,66.977C93.956,77.83,90.408,86.9,83.314,94.186C76.219,101.473,67.364,105.116,56.747,105.116ZM56.747,95.814C64.809,95.814,71.475,93.081,76.747,87.614C82.018,82.148,84.653,75.269,84.653,66.977C84.653,61.319,82.308,54.923,77.616,47.792C72.925,40.66,65.968,32.869,56.747,24.42C47.522,32.869,40.566,40.66,35.877,47.792C31.189,54.923,28.843,61.319,28.84,66.977C28.84,75.272,31.476,82.152,36.747,87.619C42.018,93.086,48.685,95.817,56.747,95.814ZM56.747,95.814"/>
</g>
  <g id="Light-L" transform="matrix(1.0,0.0,0.0,1.0,1096.7465548163864,1463.0965743476363)">  <path stroke-miterlimit="4" fill-rule="nonzero" stroke-linejoin="miter" stroke-dasharray="none" stroke-linecap="butt" fill-opacity="1" stroke-opacity="1" fill="#000000" stroke="none" stroke-width="1px" d="M58.026,91.163C58.956,91.086,59.752,90.717,60.412,90.056C61.072,89.396,61.401,88.602,61.398,87.675C61.398,86.589,61.049,85.717,60.351,85.056C59.654,84.396,58.762,84.106,57.677,84.186C54.499,84.419,51.127,83.546,47.561,81.568C43.995,79.59,41.747,76.005,40.817,70.814C40.662,69.962,40.256,69.264,39.598,68.721C38.941,68.179,38.184,67.908,37.328,67.908C36.243,67.908,35.352,68.315,34.654,69.131C33.957,69.946,33.724,70.895,33.957,71.977C35.274,79.032,38.375,84.07,43.259,87.093C48.142,90.116,53.065,91.473,58.026,91.163ZM56.747,105.116C46.127,105.116,37.27,101.473,30.175,94.186C23.081,86.9,19.535,77.83,19.538,66.977C19.538,59.226,22.62,50.795,28.785,41.685C34.949,32.575,44.269,22.712,56.747,12.095C69.227,22.715,78.55,32.58,84.714,41.689C90.878,50.8,93.959,59.229,93.956,66.977C93.956,77.83,90.408,86.9,83.314,94.186C76.219,101.473,67.364,105.116,56.747,105.116ZM56.747,95.814C64.809,95.814,71.475,93.081,76.747,87.614C82.018,82.148,84.653,75.269,84.653,66.977C84.653,61.319,82.308,54.923,77.616,47.792C72.925,40.66,65.968,32.869,56.747,24.42C47.522,32.869,40.566,40.66,35.877,47.792C31.189,54.923,28.843,61.319,28.84,66.977C28.84,75.272,31.476,82.152,36.747,87.619C42.018,93.086,48.685,95.817,56.747,95.814ZM56.747,95.814"/>
</g>
  <g id="Thin-L" transform="matrix(1.0,0.0,0.0,1.0,800.0365548163865,1463.0965743476363)">  <path stroke-linejoin="miter" stroke-opacity="1" stroke-dasharray="none" stroke-width="1px" stroke-miterlimit="4" fill="#000000" fill-rule="nonzero" stroke="none" stroke-linecap="butt" fill-opacity="1" d="M58.026,91.163C58.956,91.086,59.752,90.717,60.412,90.056C61.072,89.396,61.401,88.602,61.398,87.675C61.398,86.589,61.049,85.717,60.351,85.056C59.654,84.396,58.762,84.106,57.677,84.186C54.499,84.419,51.127,83.546,47.561,81.568C43.995,79.59,41.747,76.005,40.817,70.814C40.662,69.962,40.256,69.264,39.598,68.721C38.941,68.179,38.184,67.908,37.328,67.908C36.243,67.908,35.352,68.315,34.654,69.131C33.957,69.946,33.724,70.895,33.957,71.977C35.274,79.032,38.375,84.07,43.259,87.093C48.142,90.116,53.065,91.473,58.026,91.163ZM56.747,105.116C46.127,105.116,37.27,101.473,30.175,94.186C23.081,86.9,19.535,77.83,19.538,66.977C19.538,59.226,22.62,50.795,28.785,41.685C34.949,32.575,44.269,22.712,56.747,12.095C69.227,22.715,78.55,32.58,84.714,41.689C90.878,50.8,93.959,59.229,93.956,66.977C93.956,77.83,90.408,86.9,83.314,94.186C76.219,101.473,67.364,105.116,56.747,105.116ZM56.747,95.814C64.809,95.814,71.475,93.081,76.747,87.614C82.018,82.148,84.653,75.269,84.653,66.977C84.653,61.319,82.308,54.923,77.616,47.792C72.925,40.66,65.968,32.869,56.747,24.42C47.522,32.869,40.566,40.66,35.877,47.792C31.189,54.923,28.843,61.319,28.84,66.977C28.84,75.272,31.476,82.152,36.747,87.619C42.018,93.086,48.685,95.817,56.747,95.814ZM56.747,95.814"/>
</g>
  <g id="Ultralight-L" transform="matrix(1.0,0.0,0.0,1.0,503.3265548163864,1463.0965743476363)">  <path stroke-linejoin="miter" fill="#000000" stroke-linecap="butt" fill-opacity="1" stroke-dasharray="none" stroke-width="1px" stroke-opacity="1" fill-rule="nonzero" stroke-miterlimit="4" stroke="none" d="M58.026,91.163C58.956,91.086,59.752,90.717,60.412,90.056C61.072,89.396,61.401,88.602,61.398,87.675C61.398,86.589,61.049,85.717,60.351,85.056C59.654,84.396,58.762,84.106,57.677,84.186C54.499,84.419,51.127,83.546,47.561,81.568C43.995,79.59,41.747,76.005,40.817,70.814C40.662,69.962,40.256,69.264,39.598,68.721C38.941,68.179,38.184,67.908,37.328,67.908C36.243,67.908,35.352,68.315,34.654,69.131C33.957,69.946,33.724,70.895,33.957,71.977C35.274,79.032,38.375,84.07,43.259,87.093C48.142,90.116,53.065,91.473,58.026,91.163ZM56.747,105.116C46.127,105.116,37.27,101.473,30.175,94.186C23.081,86.9,19.535,77.83,19.538,66.977C19.538,59.226,22.62,50.795,28.785,41.685C34.949,32.575,44.269,22.712,56.747,12.095C69.227,22.715,78.55,32.58,84.714,41.689C90.878,50.8,93.959,59.229,93.956,66.977C93.956,77.83,90.408,86.9,83.314,94.186C76.219,101.473,67.364,105.116,56.747,105.116ZM56.747,95.814C64.809,95.814,71.475,93.081,76.747,87.614C82.018,82.148,84.653,75.269,84.653,66.977C84.653,61.319,82.308,54.923,77.616,47.792C72.925,40.66,65.968,32.869,56.747,24.42C47.522,32.869,40.566,40.66,35.877,47.792C31.189,54.923,28.843,61.319,28.84,66.977C28.84,75.272,31.476,82.152,36.747,87.619C42.018,93.086,48.685,95.817,56.747,95.814ZM56.747,95.814"/>
</g>
  <g id="Black-M" transform="matrix(1.0,0.0,0.0,1.0,2889.971902958439,1046.061922489689)">  <path fill-opacity="1" stroke="none" stroke-linecap="butt" stroke-miterlimit="4" stroke-dasharray="none" stroke-linejoin="miter" stroke-width="1px" stroke-opacity="1" fill="#000000" fill-rule="nonzero" d="M44.981,70.669C45.702,70.609,46.319,70.323,46.831,69.811C47.343,69.299,47.598,68.684,47.595,67.965C47.595,67.124,47.325,66.447,46.784,65.935C46.243,65.423,45.552,65.198,44.711,65.261C42.247,65.441,39.633,64.764,36.869,63.231C34.105,61.697,32.362,58.919,31.641,54.895C31.521,54.234,31.206,53.693,30.696,53.272C30.187,52.852,29.6,52.642,28.937,52.642C28.096,52.642,27.405,52.958,26.864,53.59C26.323,54.222,26.143,54.958,26.323,55.796C27.344,61.265,29.748,65.171,33.534,67.514C37.32,69.858,41.135,70.909,44.981,70.669ZM43.99,81.486C35.757,81.486,28.891,78.661,23.392,73.013C17.892,67.364,15.143,60.333,15.146,51.921C15.146,45.911,17.535,39.376,22.314,32.314C27.092,25.252,34.317,17.606,43.99,9.376C53.664,17.608,60.891,25.255,65.67,32.317C70.448,39.379,72.836,45.914,72.834,51.921C72.834,60.333,70.084,67.364,64.584,73.013C59.085,78.661,52.22,81.486,43.99,81.486ZM43.99,74.275C50.239,74.275,55.407,72.156,59.493,67.918C63.58,63.68,65.623,58.348,65.623,51.921C65.623,47.534,63.805,42.576,60.168,37.048C56.531,31.519,51.138,25.48,43.99,18.93C36.839,25.48,31.446,31.519,27.812,37.048C24.178,42.576,22.359,47.534,22.357,51.921C22.357,58.35,24.4,63.684,28.486,67.922C32.572,72.159,37.74,74.277,43.99,74.275ZM43.99,74.275"/>
</g>
  <g id="Heavy-M" transform="matrix(1.0,0.0,0.0,1.0,2593.261902958439,1046.061922489689)">  <path fill-rule="nonzero" fill="#000000" fill-opacity="1" stroke="none" stroke-linejoin="miter" stroke-width="1px" stroke-miterlimit="4" stroke-dasharray="none" stroke-opacity="1" stroke-linecap="butt" d="M44.981,70.669C45.702,70.609,46.319,70.323,46.831,69.811C47.343,69.299,47.598,68.684,47.595,67.965C47.595,67.124,47.325,66.447,46.784,65.935C46.243,65.423,45.552,65.198,44.711,65.261C42.247,65.441,39.633,64.764,36.869,63.231C34.105,61.697,32.362,58.919,31.641,54.895C31.521,54.234,31.206,53.693,30.696,53.272C30.187,52.852,29.6,52.642,28.937,52.642C28.096,52.642,27.405,52.958,26.864,53.59C26.323,54.222,26.143,54.958,26.323,55.796C27.344,61.265,29.748,65.171,33.534,67.514C37.32,69.858,41.135,70.909,44.981,70.669ZM43.99,81.486C35.757,81.486,28.891,78.661,23.392,73.013C17.892,67.364,15.143,60.333,15.146,51.921C15.146,45.911,17.535,39.376,22.314,32.314C27.092,25.252,34.317,17.606,43.99,9.376C53.664,17.608,60.891,25.255,65.67,32.317C70.448,39.379,72.836,45.914,72.834,51.921C72.834,60.333,70.084,67.364,64.584,73.013C59.085,78.661,52.22,81.486,43.99,81.486ZM43.99,74.275C50.239,74.275,55.407,72.156,59.493,67.918C63.58,63.68,65.623,58.348,65.623,51.921C65.623,47.534,63.805,42.576,60.168,37.048C56.531,31.519,51.138,25.48,43.99,18.93C36.839,25.48,31.446,31.519,27.812,37.048C24.178,42.576,22.359,47.534,22.357,51.921C22.357,58.35,24.4,63.684,28.486,67.922C32.572,72.159,37.74,74.277,43.99,74.275ZM43.99,74.275"/>
</g>
  <g id="Bold-M" transform="matrix(1.0,0.0,0.0,1.0,2296.551902958439,1046.061922489689)">  <path stroke-width="1px" stroke-linejoin="miter" stroke="none" stroke-opacity="1" stroke-dasharray="none" stroke-miterlimit="4" fill="#000000" stroke-linecap="butt" fill-opacity="1" fill-rule="nonzero" d="M44.981,70.669C45.702,70.609,46.319,70.323,46.831,69.811C47.343,69.299,47.598,68.684,47.595,67.965C47.595,67.124,47.325,66.447,46.784,65.935C46.243,65.423,45.552,65.198,44.711,65.261C42.247,65.441,39.633,64.764,36.869,63.231C34.105,61.697,32.362,58.919,31.641,54.895C31.521,54.234,31.206,53.693,30.696,53.272C30.187,52.852,29.6,52.642,28.937,52.642C28.096,52.642,27.405,52.958,26.864,53.59C26.323,54.222,26.143,54.958,26.323,55.796C27.344,61.265,29.748,65.171,33.534,67.514C37.32,69.858,41.135,70.909,44.981,70.669ZM43.99,81.486C35.757,81.486,28.891,78.661,23.392,73.013C17.892,67.364,15.143,60.333,15.146,51.921C15.146,45.911,17.535,39.376,22.314,32.314C27.092,25.252,34.317,17.606,43.99,9.376C53.664,17.608,60.891,25.255,65.67,32.317C70.448,39.379,72.836,45.914,72.834,51.921C72.834,60.333,70.084,67.364,64.584,73.013C59.085,78.661,52.22,81.486,43.99,81.486ZM43.99,74.275C50.239,74.275,55.407,72.156,59.493,67.918C63.58,63.68,65.623,58.348,65.623,51.921C65.623,47.534,63.805,42.576,60.168,37.048C56.531,31.519,51.138,25.48,43.99,18.93C36.839,25.48,31.446,31.519,27.812,37.048C24.178,42.576,22.359,47.534,22.357,51.921C22.357,58.35,24.4,63.684,28.486,67.922C32.572,72.159,37.74,74.277,43.99,74.275ZM43.99,74.275"/>
</g>
  <g id="Semibold-M" transform="matrix(1.0,0.0,0.0,1.0,1999.841902958439,1046.061922489689)">  <path fill-opacity="1" stroke-miterlimit="4" fill="#000000" fill-rule="nonzero" stroke-width="1px" stroke-linecap="butt" stroke-opacity="1" stroke="none" stroke-dasharray="none" stroke-linejoin="miter" d="M44.981,70.669C45.702,70.609,46.319,70.323,46.831,69.811C47.343,69.299,47.598,68.684,47.595,67.965C47.595,67.124,47.325,66.447,46.784,65.935C46.243,65.423,45.552,65.198,44.711,65.261C42.247,65.441,39.633,64.764,36.869,63.231C34.105,61.697,32.362,58.919,31.641,54.895C31.521,54.234,31.206,53.693,30.696,53.272C30.187,52.852,29.6,52.642,28.937,52.642C28.096,52.642,27.405,52.958,26.864,53.59C26.323,54.222,26.143,54.958,26.323,55.796C27.344,61.265,29.748,65.171,33.534,67.514C37.32,69.858,41.135,70.909,44.981,70.669ZM43.99,81.486C35.757,81.486,28.891,78.661,23.392,73.013C17.892,67.364,15.143,60.333,15.146,51.921C15.146,45.911,17.535,39.376,22.314,32.314C27.092,25.252,34.317,17.606,43.99,9.376C53.664,17.608,60.891,25.255,65.67,32.317C70.448,39.379,72.836,45.914,72.834,51.921C72.834,60.333,70.084,67.364,64.584,73.013C59.085,78.661,52.22,81.486,43.99,81.486ZM43.99,74.275C50.239,74.275,55.407,72.156,59.493,67.918C63.58,63.68,65.623,58.348,65.623,51.921C65.623,47.534,63.805,42.576,60.168,37.048C56.531,31.519,51.138,25.48,43.99,18.93C36.839,25.48,31.446,31.519,27.812,37.048C24.178,42.576,22.359,47.534,22.357,51.921C22.357,58.35,24.4,63.684,28.486,67.922C32.572,72.159,37.74,74.277,43.99,74.275ZM43.99,74.275"/>
</g>
  <g id="Medium-M" transform="matrix(1.0,0.0,0.0,1.0,1703.131902958439,1046.061922489689)">  <path stroke="none" stroke-linejoin="miter" stroke-linecap="butt" stroke-opacity="1" fill="#000000" fill-opacity="1" stroke-width="1px" fill-rule="nonzero" stroke-dasharray="none" stroke-miterlimit="4" d="M44.981,70.669C45.702,70.609,46.319,70.323,46.831,69.811C47.343,69.299,47.598,68.684,47.595,67.965C47.595,67.124,47.325,66.447,46.784,65.935C46.243,65.423,45.552,65.198,44.711,65.261C42.247,65.441,39.633,64.764,36.869,63.231C34.105,61.697,32.362,58.919,31.641,54.895C31.521,54.234,31.206,53.693,30.696,53.272C30.187,52.852,29.6,52.642,28.937,52.642C28.096,52.642,27.405,52.958,26.864,53.59C26.323,54.222,26.143,54.958,26.323,55.796C27.344,61.265,29.748,65.171,33.534,67.514C37.32,69.858,41.135,70.909,44.981,70.669ZM43.99,81.486C35.757,81.486,28.891,78.661,23.392,73.013C17.892,67.364,15.143,60.333,15.146,51.921C15.146,45.911,17.535,39.376,22.314,32.314C27.092,25.252,34.317,17.606,43.99,9.376C53.664,17.608,60.891,25.255,65.67,32.317C70.448,39.379,72.836,45.914,72.834,51.921C72.834,60.333,70.084,67.364,64.584,73.013C59.085,78.661,52.22,81.486,43.99,81.486ZM43.99,74.275C50.239,74.275,55.407,72.156,59.493,67.918C63.58,63.68,65.623,58.348,65.623,51.921C65.623,47.534,63.805,42.576,60.168,37.048C56.531,31.519,51.138,25.48,43.99,18.93C36.839,25.48,31.446,31.519,27.812,37.048C24.178,42.576,22.359,47.534,22.357,51.921C22.357,58.35,24.4,63.684,28.486,67.922C32.572,72.159,37.74,74.277,43.99,74.275ZM43.99,74.275"/>
</g>
  <g id="Regular-M" transform="matrix(1.0,0.0,0.0,1.0,1406.421902958439,1046.061922489689)">  <path stroke-linejoin="miter" stroke="none" fill-rule="nonzero" fill="#000000" stroke-dasharray="none" stroke-width="1px" fill-opacity="1" stroke-miterlimit="4" stroke-linecap="butt" stroke-opacity="1" d="M44.981,70.669C45.702,70.609,46.319,70.323,46.831,69.811C47.343,69.299,47.598,68.684,47.595,67.965C47.595,67.124,47.325,66.447,46.784,65.935C46.243,65.423,45.552,65.198,44.711,65.261C42.247,65.441,39.633,64.764,36.869,63.231C34.105,61.697,32.362,58.919,31.641,54.895C31.521,54.234,31.206,53.693,30.696,53.272C30.187,52.852,29.6,52.642,28.937,52.642C28.096,52.642,27.405,52.958,26.864,53.59C26.323,54.222,26.143,54.958,26.323,55.796C27.344,61.265,29.748,65.171,33.534,67.514C37.32,69.858,41.135,70.909,44.981,70.669ZM43.99,81.486C35.757,81.486,28.891,78.661,23.392,73.013C17.892,67.364,15.143,60.333,15.146,51.921C15.146,45.911,17.535,39.376,22.314,32.314C27.092,25.252,34.317,17.606,43.99,9.376C53.664,17.608,60.891,25.255,65.67,32.317C70.448,39.379,72.836,45.914,72.834,51.921C72.834,60.333,70.084,67.364,64.584,73.013C59.085,78.661,52.22,81.486,43.99,81.486ZM43.99,74.275C50.239,74.275,55.407,72.156,59.493,67.918C63.58,63.68,65.623,58.348,65.623,51.921C65.623,47.534,63.805,42.576,60.168,37.048C56.531,31.519,51.138,25.48,43.99,18.93C36.839,25.48,31.446,31.519,27.812,37.048C24.178,42.576,22.359,47.534,22.357,51.921C22.357,58.35,24.4,63.684,28.486,67.922C32.572,72.159,37.74,74.277,43.99,74.275ZM43.99,74.275"/>
</g>
  <g id="Light-M" transform="matrix(1.0,0.0,0.0,1.0,1109.7119029584392,1046.061922489689)">  <path stroke-miterlimit="4" fill-rule="nonzero" stroke-linejoin="miter" stroke-dasharray="none" stroke-linecap="butt" fill-opacity="1" stroke-opacity="1" fill="#000000" stroke="none" stroke-width="1px" d="M44.981,70.669C45.702,70.609,46.319,70.323,46.831,69.811C47.343,69.299,47.598,68.684,47.595,67.965C47.595,67.124,47.325,66.447,46.784,65.935C46.243,65.423,45.552,65.198,44.711,65.261C42.247,65.441,39.633,64.764,36.869,63.231C34.105,61.697,32.362,58.919,31.641,54.895C31.521,54.234,31.206,53.693,30.696,53.272C30.187,52.852,29.6,52.642,28.937,52.642C28.096,52.642,27.405,52.958,26.864,53.59C26.323,54.222,26.143,54.958,26.323,55.796C27.344,61.265,29.748,65.171,33.534,67.514C37.32,69.858,41.135,70.909,44.981,70.669ZM43.99,81.486C35.757,81.486,28.891,78.661,23.392,73.013C17.892,67.364,15.143,60.333,15.146,51.921C15.146,45.911,17.535,39.376,22.314,32.314C27.092,25.252,34.317,17.606,43.99,9.376C53.664,17.608,60.891,25.255,65.67,32.317C70.448,39.379,72.836,45.914,72.834,51.921C72.834,60.333,70.084,67.364,64.584,73.013C59.085,78.661,52.22,81.486,43.99,81.486ZM43.99,74.275C50.239,74.275,55.407,72.156,59.493,67.918C63.58,63.68,65.623,58.348,65.623,51.921C65.623,47.534,63.805,42.576,60.168,37.048C56.531,31.519,51.138,25.48,43.99,18.93C36.839,25.48,31.446,31.519,27.812,37.048C24.178,42.576,22.359,47.534,22.357,51.921C22.357,58.35,24.4,63.684,28.486,67.922C32.572,72.159,37.74,74.277,43.99,74.275ZM43.99,74.275"/>
</g>
  <g id="Thin-M" transform="matrix(1.0,0.0,0.0,1.0,813.0019029584391,1046.061922489689)">  <path stroke-linejoin="miter" stroke-opacity="1" stroke-dasharray="none" stroke-width="1px" stroke-miterlimit="4" fill="#000000" fill-rule="nonzero" stroke="none" stroke-linecap="butt" fill-opacity="1" d="M44.981,70.669C45.702,70.609,46.319,70.323,46.831,69.811C47.343,69.299,47.598,68.684,47.595,67.965C47.595,67.124,47.325,66.447,46.784,65.935C46.243,65.423,45.552,65.198,44.711,65.261C42.247,65.441,39.633,64.764,36.869,63.231C34.105,61.697,32.362,58.919,31.641,54.895C31.521,54.234,31.206,53.693,30.696,53.272C30.187,52.852,29.6,52.642,28.937,52.642C28.096,52.642,27.405,52.958,26.864,53.59C26.323,54.222,26.143,54.958,26.323,55.796C27.344,61.265,29.748,65.171,33.534,67.514C37.32,69.858,41.135,70.909,44.981,70.669ZM43.99,81.486C35.757,81.486,28.891,78.661,23.392,73.013C17.892,67.364,15.143,60.333,15.146,51.921C15.146,45.911,17.535,39.376,22.314,32.314C27.092,25.252,34.317,17.606,43.99,9.376C53.664,17.608,60.891,25.255,65.67,32.317C70.448,39.379,72.836,45.914,72.834,51.921C72.834,60.333,70.084,67.364,64.584,73.013C59.085,78.661,52.22,81.486,43.99,81.486ZM43.99,74.275C50.239,74.275,55.407,72.156,59.493,67.918C63.58,63.68,65.623,58.348,65.623,51.921C65.623,47.534,63.805,42.576,60.168,37.048C56.531,31.519,51.138,25.48,43.99,18.93C36.839,25.48,31.446,31.519,27.812,37.048C24.178,42.576,22.359,47.534,22.357,51.921C22.357,58.35,24.4,63.684,28.486,67.922C32.572,72.159,37.74,74.277,43.99,74.275ZM43.99,74.275"/>
</g>
  <g id="Ultralight-M" transform="matrix(1.0,0.0,0.0,1.0,516.2919029584391,1046.061922489689)">  <path stroke-linejoin="miter" fill="#000000" stroke-linecap="butt" fill-opacity="1" stroke-dasharray="none" stroke-width="1px" stroke-opacity="1" fill-rule="nonzero" stroke-miterlimit="4" stroke="none" d="M44.981,70.669C45.702,70.609,46.319,70.323,46.831,69.811C47.343,69.299,47.598,68.684,47.595,67.965C47.595,67.124,47.325,66.447,46.784,65.935C46.243,65.423,45.552,65.198,44.711,65.261C42.247,65.441,39.633,64.764,36.869,63.231C34.105,61.697,32.362,58.919,31.641,54.895C31.521,54.234,31.206,53.693,30.696,53.272C30.187,52.852,29.6,52.642,28.937,52.642C28.096,52.642,27.405,52.958,26.864,53.59C26.323,54.222,26.143,54.958,26.323,55.796C27.344,61.265,29.748,65.171,33.534,67.514C37.32,69.858,41.135,70.909,44.981,70.669ZM43.99,81.486C35.757,81.486,28.891,78.661,23.392,73.013C17.892,67.364,15.143,60.333,15.146,51.921C15.146,45.911,17.535,39.376,22.314,32.314C27.092,25.252,34.317,17.606,43.99,9.376C53.664,17.608,60.891,25.255,65.67,32.317C70.448,39.379,72.836,45.914,72.834,51.921C72.834,60.333,70.084,67.364,64.584,73.013C59.085,78.661,52.22,81.486,43.99,81.486ZM43.99,74.275C50.239,74.275,55.407,72.156,59.493,67.918C63.58,63.68,65.623,58.348,65.623,51.921C65.623,47.534,63.805,42.576,60.168,37.048C56.531,31.519,51.138,25.48,43.99,18.93C36.839,25.48,31.446,31.519,27.812,37.048C24.178,42.576,22.359,47.534,22.357,51.921C22.357,58.35,24.4,63.684,28.486,67.922C32.572,72.159,37.74,74.277,43.99,74.275ZM43.99,74.275"/>
</g>
  <g id="Black-S" transform="matrix(1.0,0.0,0.0,1.0,2899.6735600164575,625.7635795477078)">  <path fill-opacity="1" stroke="none" stroke-linecap="butt" stroke-miterlimit="4" stroke-dasharray="none" stroke-linejoin="miter" stroke-width="1px" stroke-opacity="1" fill="#000000" fill-rule="nonzero" d="M35.22,55.334C35.785,55.287,36.268,55.063,36.669,54.662C37.07,54.261,37.269,53.779,37.267,53.217C37.267,52.558,37.055,52.028,36.632,51.627C36.208,51.226,35.667,51.05,35.009,51.099C33.08,51.24,31.033,50.711,28.868,49.51C26.704,48.309,25.339,46.133,24.775,42.983C24.681,42.465,24.434,42.042,24.035,41.712C23.636,41.383,23.177,41.218,22.658,41.218C21.999,41.218,21.458,41.466,21.034,41.961C20.611,42.456,20.47,43.032,20.611,43.688C21.411,47.97,23.293,51.029,26.257,52.864C29.221,54.699,32.209,55.522,35.22,55.334ZM34.444,63.803C27.998,63.803,22.622,61.592,18.316,57.169C14.009,52.746,11.857,47.241,11.859,40.654C11.859,35.949,13.73,30.831,17.472,25.302C21.213,19.772,26.87,13.785,34.444,7.341C42.019,13.787,47.678,19.775,51.419,25.304C55.161,30.834,57.031,35.95,57.029,40.654C57.029,47.241,54.876,52.746,50.57,57.169C46.263,61.592,40.888,63.803,34.444,63.803ZM34.444,58.157C39.337,58.157,43.384,56.498,46.583,53.18C49.783,49.862,51.383,45.686,51.383,40.654C51.383,37.219,49.959,33.337,47.111,29.008C44.264,24.68,40.041,19.951,34.444,14.822C28.845,19.951,24.622,24.68,21.777,29.008C18.931,33.337,17.507,37.219,17.505,40.654C17.505,45.688,19.105,49.865,22.305,53.183C25.504,56.501,29.551,58.159,34.444,58.157ZM34.444,58.157"/>
</g>
  <g id="Heavy-S" transform="matrix(1.0,0.0,0.0,1.0,2602.9635600164574,625.7635795477078)">  <path fill-rule="nonzero" fill="#000000" fill-opacity="1" stroke="none" stroke-linejoin="miter" stroke-width="1px" stroke-miterlimit="4" stroke-dasharray="none" stroke-opacity="1" stroke-linecap="butt" d="M35.22,55.334C35.785,55.287,36.268,55.063,36.669,54.662C37.07,54.261,37.269,53.779,37.267,53.217C37.267,52.558,37.055,52.028,36.632,51.627C36.208,51.226,35.667,51.05,35.009,51.099C33.08,51.24,31.033,50.711,28.868,49.51C26.704,48.309,25.339,46.133,24.775,42.983C24.681,42.465,24.434,42.042,24.035,41.712C23.636,41.383,23.177,41.218,22.658,41.218C21.999,41.218,21.458,41.466,21.034,41.961C20.611,42.456,20.47,43.032,20.611,43.688C21.411,47.97,23.293,51.029,26.257,52.864C29.221,54.699,32.209,55.522,35.22,55.334ZM34.444,63.803C27.998,63.803,22.622,61.592,18.316,57.169C14.009,52.746,11.857,47.241,11.859,40.654C11.859,35.949,13.73,30.831,17.472,25.302C21.213,19.772,26.87,13.785,34.444,7.341C42.019,13.787,47.678,19.775,51.419,25.304C55.161,30.834,57.031,35.95,57.029,40.654C57.029,47.241,54.876,52.746,50.57,57.169C46.263,61.592,40.888,63.803,34.444,63.803ZM34.444,58.157C39.337,58.157,43.384,56.498,46.583,53.18C49.783,49.862,51.383,45.686,51.383,40.654C51.383,37.219,49.959,33.337,47.111,29.008C44.264,24.68,40.041,19.951,34.444,14.822C28.845,19.951,24.622,24.68,21.777,29.008C18.931,33.337,17.507,37.219,17.505,40.654C17.505,45.688,19.105,49.865,22.305,53.183C25.504,56.501,29.551,58.159,34.444,58.157ZM34.444,58.157"/>
</g>
  <g id="Bold-S" transform="matrix(1.0,0.0,0.0,1.0,2306.2535600164574,625.7635795477078)">  <path stroke-width="1px" stroke-linejoin="miter" stroke="none" stroke-opacity="1" stroke-dasharray="none" stroke-miterlimit="4" fill="#000000" stroke-linecap="butt" fill-opacity="1" fill-rule="nonzero" d="M35.22,55.334C35.785,55.287,36.268,55.063,36.669,54.662C37.07,54.261,37.269,53.779,37.267,53.217C37.267,52.558,37.055,52.028,36.632,51.627C36.208,51.226,35.667,51.05,35.009,51.099C33.08,51.24,31.033,50.711,28.868,49.51C26.704,48.309,25.339,46.133,24.775,42.983C24.681,42.465,24.434,42.042,24.035,41.712C23.636,41.383,23.177,41.218,22.658,41.218C21.999,41.218,21.458,41.466,21.034,41.961C20.611,42.456,20.47,43.032,20.611,43.688C21.411,47.97,23.293,51.029,26.257,52.864C29.221,54.699,32.209,55.522,35.22,55.334ZM34.444,63.803C27.998,63.803,22.622,61.592,18.316,57.169C14.009,52.746,11.857,47.241,11.859,40.654C11.859,35.949,13.73,30.831,17.472,25.302C21.213,19.772,26.87,13.785,34.444,7.341C42.019,13.787,47.678,19.775,51.419,25.304C55.161,30.834,57.031,35.95,57.029,40.654C57.029,47.241,54.876,52.746,50.57,57.169C46.263,61.592,40.888,63.803,34.444,63.803ZM34.444,58.157C39.337,58.157,43.384,56.498,46.583,53.18C49.783,49.862,51.383,45.686,51.383,40.654C51.383,37.219,49.959,33.337,47.111,29.008C44.264,24.68,40.041,19.951,34.444,14.822C28.845,19.951,24.622,24.68,21.777,29.008C18.931,33.337,17.507,37.219,17.505,40.654C17.505,45.688,19.105,49.865,22.305,53.183C25.504,56.501,29.551,58.159,34.444,58.157ZM34.444,58.157"/>
</g>
  <g id="Semibold-S" transform="matrix(1.0,0.0,0.0,1.0,2009.5435600164578,625.7635795477078)">  <path fill-opacity="1" stroke-miterlimit="4" fill="#000000" fill-rule="nonzero" stroke-width="1px" stroke-linecap="butt" stroke-opacity="1" stroke="none" stroke-dasharray="none" stroke-linejoin="miter" d="M35.22,55.334C35.785,55.287,36.268,55.063,36.669,54.662C37.07,54.261,37.269,53.779,37.267,53.217C37.267,52.558,37.055,52.028,36.632,51.627C36.208,51.226,35.667,51.05,35.009,51.099C33.08,51.24,31.033,50.711,28.868,49.51C26.704,48.309,25.339,46.133,24.775,42.983C24.681,42.465,24.434,42.042,24.035,41.712C23.636,41.383,23.177,41.218,22.658,41.218C21.999,41.218,21.458,41.466,21.034,41.961C20.611,42.456,20.47,43.032,20.611,43.688C21.411,47.97,23.293,51.029,26.257,52.864C29.221,54.699,32.209,55.522,35.22,55.334ZM34.444,63.803C27.998,63.803,22.622,61.592,18.316,57.169C14.009,52.746,11.857,47.241,11.859,40.654C11.859,35.949,13.73,30.831,17.472,25.302C21.213,19.772,26.87,13.785,34.444,7.341C42.019,13.787,47.678,19.775,51.419,25.304C55.161,30.834,57.031,35.95,57.029,40.654C57.029,47.241,54.876,52.746,50.57,57.169C46.263,61.592,40.888,63.803,34.444,63.803ZM34.444,58.157C39.337,58.157,43.384,56.498,46.583,53.18C49.783,49.862,51.383,45.686,51.383,40.654C51.383,37.219,49.959,33.337,47.111,29.008C44.264,24.68,40.041,19.951,34.444,14.822C28.845,19.951,24.622,24.68,21.777,29.008C18.931,33.337,17.507,37.219,17.505,40.654C17.505,45.688,19.105,49.865,22.305,53.183C25.504,56.501,29.551,58.159,34.444,58.157ZM34.444,58.157"/>
</g>
  <g id="Medium-S" transform="matrix(1.0,0.0,0.0,1.0,1712.8335600164578,625.7635795477078)">  <path stroke="none" stroke-linejoin="miter" stroke-linecap="butt" stroke-opacity="1" fill="#000000" fill-opacity="1" stroke-width="1px" fill-rule="nonzero" stroke-dasharray="none" stroke-miterlimit="4" d="M35.22,55.334C35.785,55.287,36.268,55.063,36.669,54.662C37.07,54.261,37.269,53.779,37.267,53.217C37.267,52.558,37.055,52.028,36.632,51.627C36.208,51.226,35.667,51.05,35.009,51.099C33.08,51.24,31.033,50.711,28.868,49.51C26.704,48.309,25.339,46.133,24.775,42.983C24.681,42.465,24.434,42.042,24.035,41.712C23.636,41.383,23.177,41.218,22.658,41.218C21.999,41.218,21.458,41.466,21.034,41.961C20.611,42.456,20.47,43.032,20.611,43.688C21.411,47.97,23.293,51.029,26.257,52.864C29.221,54.699,32.209,55.522,35.22,55.334ZM34.444,63.803C27.998,63.803,22.622,61.592,18.316,57.169C14.009,52.746,11.857,47.241,11.859,40.654C11.859,35.949,13.73,30.831,17.472,25.302C21.213,19.772,26.87,13.785,34.444,7.341C42.019,13.787,47.678,19.775,51.419,25.304C55.161,30.834,57.031,35.95,57.029,40.654C57.029,47.241,54.876,52.746,50.57,57.169C46.263,61.592,40.888,63.803,34.444,63.803ZM34.444,58.157C39.337,58.157,43.384,56.498,46.583,53.18C49.783,49.862,51.383,45.686,51.383,40.654C51.383,37.219,49.959,33.337,47.111,29.008C44.264,24.68,40.041,19.951,34.444,14.822C28.845,19.951,24.622,24.68,21.777,29.008C18.931,33.337,17.507,37.219,17.505,40.654C17.505,45.688,19.105,49.865,22.305,53.183C25.504,56.501,29.551,58.159,34.444,58.157ZM34.444,58.157"/>
</g>
  <g id="Regular-S" transform="matrix(1.0,0.0,0.0,1.0,1416.1235600164578,625.7635795477078)">  <path stroke-linejoin="miter" stroke="none" fill-rule="nonzero" fill="#000000" stroke-dasharray="none" stroke-width="1px" fill-opacity="1" stroke-miterlimit="4" stroke-linecap="butt" stroke-opacity="1" d="M35.22,55.334C35.785,55.287,36.268,55.063,36.669,54.662C37.07,54.261,37.269,53.779,37.267,53.217C37.267,52.558,37.055,52.028,36.632,51.627C36.208,51.226,35.667,51.05,35.009,51.099C33.08,51.24,31.033,50.711,28.868,49.51C26.704,48.309,25.339,46.133,24.775,42.983C24.681,42.465,24.434,42.042,24.035,41.712C23.636,41.383,23.177,41.218,22.658,41.218C21.999,41.218,21.458,41.466,21.034,41.961C20.611,42.456,20.47,43.032,20.611,43.688C21.411,47.97,23.293,51.029,26.257,52.864C29.221,54.699,32.209,55.522,35.22,55.334ZM34.444,63.803C27.998,63.803,22.622,61.592,18.316,57.169C14.009,52.746,11.857,47.241,11.859,40.654C11.859,35.949,13.73,30.831,17.472,25.302C21.213,19.772,26.87,13.785,34.444,7.341C42.019,13.787,47.678,19.775,51.419,25.304C55.161,30.834,57.031,35.95,57.029,40.654C57.029,47.241,54.876,52.746,50.57,57.169C46.263,61.592,40.888,63.803,34.444,63.803ZM34.444,58.157C39.337,58.157,43.384,56.498,46.583,53.18C49.783,49.862,51.383,45.686,51.383,40.654C51.383,37.219,49.959,33.337,47.111,29.008C44.264,24.68,40.041,19.951,34.444,14.822C28.845,19.951,24.622,24.68,21.777,29.008C18.931,33.337,17.507,37.219,17.505,40.654C17.505,45.688,19.105,49.865,22.305,53.183C25.504,56.501,29.551,58.159,34.444,58.157ZM34.444,58.157"/>
</g>
  <g id="Light-S" transform="matrix(1.0,0.0,0.0,1.0,1119.413560016458,625.7635795477078)">  <path stroke-miterlimit="4" fill-rule="nonzero" stroke-linejoin="miter" stroke-dasharray="none" stroke-linecap="butt" fill-opacity="1" stroke-opacity="1" fill="#000000" stroke="none" stroke-width="1px" d="M35.22,55.334C35.785,55.287,36.268,55.063,36.669,54.662C37.07,54.261,37.269,53.779,37.267,53.217C37.267,52.558,37.055,52.028,36.632,51.627C36.208,51.226,35.667,51.05,35.009,51.099C33.08,51.24,31.033,50.711,28.868,49.51C26.704,48.309,25.339,46.133,24.775,42.983C24.681,42.465,24.434,42.042,24.035,41.712C23.636,41.383,23.177,41.218,22.658,41.218C21.999,41.218,21.458,41.466,21.034,41.961C20.611,42.456,20.47,43.032,20.611,43.688C21.411,47.97,23.293,51.029,26.257,52.864C29.221,54.699,32.209,55.522,35.22,55.334ZM34.444,63.803C27.998,63.803,22.622,61.592,18.316,57.169C14.009,52.746,11.857,47.241,11.859,40.654C11.859,35.949,13.73,30.831,17.472,25.302C21.213,19.772,26.87,13.785,34.444,7.341C42.019,13.787,47.678,19.775,51.419,25.304C55.161,30.834,57.031,35.95,57.029,40.654C57.029,47.241,54.876,52.746,50.57,57.169C46.263,61.592,40.888,63.803,34.444,63.803ZM34.444,58.157C39.337,58.157,43.384,56.498,46.583,53.18C49.783,49.862,51.383,45.686,51.383,40.654C51.383,37.219,49.959,33.337,47.111,29.008C44.264,24.68,40.041,19.951,34.444,14.822C28.845,19.951,24.622,24.68,21.777,29.008C18.931,33.337,17.507,37.219,17.505,40.654C17.505,45.688,19.105,49.865,22.305,53.183C25.504,56.501,29.551,58.159,34.444,58.157ZM34.444,58.157"/>
</g>
  <g id="Thin-S" transform="matrix(1.0,0.0,0.0,1.0,822.7035600164578,625.7635795477078)">  <path stroke-linejoin="miter" stroke-opacity="1" stroke-dasharray="none" stroke-width="1px" stroke-miterlimit="4" fill="#000000" fill-rule="nonzero" stroke="none" stroke-linecap="butt" fill-opacity="1" d="M35.22,55.334C35.785,55.287,36.268,55.063,36.669,54.662C37.07,54.261,37.269,53.779,37.267,53.217C37.267,52.558,37.055,52.028,36.632,51.627C36.208,51.226,35.667,51.05,35.009,51.099C33.08,51.24,31.033,50.711,28.868,49.51C26.704,48.309,25.339,46.133,24.775,42.983C24.681,42.465,24.434,42.042,24.035,41.712C23.636,41.383,23.177,41.218,22.658,41.218C21.999,41.218,21.458,41.466,21.034,41.961C20.611,42.456,20.47,43.032,20.611,43.688C21.411,47.97,23.293,51.029,26.257,52.864C29.221,54.699,32.209,55.522,35.22,55.334ZM34.444,63.803C27.998,63.803,22.622,61.592,18.316,57.169C14.009,52.746,11.857,47.241,11.859,40.654C11.859,35.949,13.73,30.831,17.472,25.302C21.213,19.772,26.87,13.785,34.444,7.341C42.019,13.787,47.678,19.775,51.419,25.304C55.161,30.834,57.031,35.95,57.029,40.654C57.029,47.241,54.876,52.746,50.57,57.169C46.263,61.592,40.888,63.803,34.444,63.803ZM34.444,58.157C39.337,58.157,43.384,56.498,46.583,53.18C49.783,49.862,51.383,45.686,51.383,40.654C51.383,37.219,49.959,33.337,47.111,29.008C44.264,24.68,40.041,19.951,34.444,14.822C28.845,19.951,24.622,24.68,21.777,29.008C18.931,33.337,17.507,37.219,17.505,40.654C17.505,45.688,19.105,49.865,22.305,53.183C25.504,56.501,29.551,58.159,34.444,58.157ZM34.444,58.157"/>
</g>
  <g id="Ultralight-S" transform="matrix(1.0,0.0,0.0,1.0,525.9935600164578,625.7635795477078)">  <path stroke-linejoin="miter" fill="#000000" stroke-linecap="butt" fill-opacity="1" stroke-dasharray="none" stroke-width="1px" stroke-opacity="1" fill-rule="nonzero" stroke-miterlimit="4" stroke="none" d="M35.22,55.334C35.785,55.287,36.268,55.063,36.669,54.662C37.07,54.261,37.269,53.779,37.267,53.217C37.267,52.558,37.055,52.028,36.632,51.627C36.208,51.226,35.667,51.05,35.009,51.099C33.08,51.24,31.033,50.711,28.868,49.51C26.704,48.309,25.339,46.133,24.775,42.983C24.681,42.465,24.434,42.042,24.035,41.712C23.636,41.383,23.177,41.218,22.658,41.218C21.999,41.218,21.458,41.466,21.034,41.961C20.611,42.456,20.47,43.032,20.611,43.688C21.411,47.97,23.293,51.029,26.257,52.864C29.221,54.699,32.209,55.522,35.22,55.334ZM34.444,63.803C27.998,63.803,22.622,61.592,18.316,57.169C14.009,52.746,11.857,47.241,11.859,40.654C11.859,35.949,13.73,30.831,17.472,25.302C21.213,19.772,26.87,13.785,34.444,7.341C42.019,13.787,47.678,19.775,51.419,25.304C55.161,30.834,57.031,35.95,57.029,40.654C57.029,47.241,54.876,52.746,50.57,57.169C46.263,61.592,40.888,63.803,34.444,63.803ZM34.444,58.157C39.337,58.157,43.384,56.498,46.583,53.18C49.783,49.862,51.383,45.686,51.383,40.654C51.383,37.219,49.959,33.337,47.111,29.008C44.264,24.68,40.041,19.951,34.444,14.822C28.845,19.951,24.622,24.68,21.777,29.008C18.931,33.337,17.507,37.219,17.505,40.654C17.505,45.688,19.105,49.865,22.305,53.183C25.504,56.501,29.551,58.159,34.444,58.157ZM34.444,58.157"/>
</g>
 </g>
</svg>
