<svg width="340" height="329" viewBox="0 0 340 329" fill="none" xmlns="http://www.w3.org/2000/svg">
<path d="M31.1238 162.537V166.106L31.0964 166.132V162.563L31.1238 162.537Z" fill="#5A61FF"/>
<path d="M31.1238 162.537L31.0964 166.132V162.563L31.1238 162.537Z" fill="#5A61FF"/>
<g filter="url(#filter0_d_438_140)">
<rect x="8" y="8" width="324" height="312.789" rx="8" fill="#5A61FF"/>
</g>
<path d="M8 300.109H332V312.789C332 317.207 328.418 320.789 324 320.789H16C11.5817 320.789 8 317.207 8 312.789V300.109Z" fill="#3A2F7B"/>
<path d="M8 300.109H254.347V320.789H16C11.5817 320.789 8 317.207 8 312.789V300.109Z" fill="white"/>
<path d="M215.967 242.805C190.574 257.431 149.539 257.431 124.146 242.602C98.7537 227.975 98.5505 204.208 123.943 189.582C149.336 174.955 190.371 174.955 215.763 189.785C241.156 204.411 241.156 228.179 215.967 242.805Z" fill="#F2E8DF"/>
<path d="M145.679 98.5992C145.679 98.3961 145.476 97.9898 145.476 97.7866C145.476 96.9741 145.679 96.1615 145.883 95.3489C145.883 94.7395 146.086 92.3018 146.695 91.8955C142.226 94.5364 138.773 98.3961 135.725 102.662C133.288 105.912 131.053 109.366 129.631 113.429C128.616 116.476 128.412 119.523 128.412 122.57C128.412 123.179 128.819 130.899 129.225 130.696C127.194 131.305 124.959 132.118 122.928 132.727C120.693 133.54 118.255 134.352 116.021 135.165C113.989 135.977 111.755 136.79 110.333 138.618C109.317 139.837 108.911 141.462 108.504 143.087C107.692 146.947 106.879 150.604 106.27 154.463C105.66 157.713 104.848 160.761 105.051 164.011C105.051 165.839 105.254 167.667 106.067 169.293C106.067 169.496 106.27 169.699 106.473 169.699H106.676C107.082 169.496 107.286 169.293 107.489 168.886C107.489 169.699 107.489 170.715 107.895 171.324C107.895 171.527 108.098 171.527 108.098 171.73C108.301 171.933 108.504 171.933 108.708 171.73C109.926 171.527 110.536 170.715 111.145 169.902C111.755 169.089 112.77 168.886 113.583 168.277C115.614 167.058 117.24 165.23 118.255 162.995C119.271 160.964 119.677 158.526 119.677 156.291C119.677 155.073 119.068 153.854 118.865 152.635C118.662 150.807 119.068 148.978 120.693 148.166C123.537 146.541 126.99 146.744 130.038 146.338C134.304 145.931 138.366 144.509 142.226 142.478C143.242 141.868 144.257 141.259 144.867 140.446C145.883 139.024 145.883 137.196 145.679 135.368C145.476 133.743 145.273 132.321 144.461 130.899C144.054 130.492 142.226 127.242 141.617 127.445H141.413C144.054 120.132 145.476 112.413 146.492 104.897C146.695 103.678 146.695 102.459 146.289 101.443C146.289 100.224 145.883 99.4118 145.679 98.5992Z" fill="#929292"/>
<path d="M159.696 185.95C157.868 181.887 155.227 178.028 151.977 174.98C150.352 173.355 148.523 171.933 146.289 171.121C144.257 170.308 141.617 170.714 139.788 169.293C139.585 169.089 138.366 168.074 138.773 167.667C136.944 169.292 135.929 171.527 135.319 173.762C133.694 178.84 133.491 184.122 134.1 189.404C134.507 192.044 135.116 194.685 135.929 197.123C136.741 199.561 137.96 201.592 139.382 203.827C141.21 206.671 143.039 209.515 145.679 211.546C148.32 213.577 151.977 214.593 155.024 213.374C157.462 212.359 159.087 209.718 160.102 207.28C163.15 200.576 162.743 192.654 159.696 185.95Z" fill="#929292"/>
<path d="M136.944 209.718C133.288 210.937 128.819 213.984 128.819 217.843C129.225 217.437 129.428 217.031 129.631 216.625C129.428 217.843 129.225 218.656 129.428 219.875C129.631 221.094 129.834 222.313 130.241 223.531C130.241 223.735 130.444 223.938 130.647 223.938C130.85 223.938 131.053 223.938 131.053 223.938C132.882 223.938 134.71 223.531 136.335 222.922C136.335 223.125 136.132 223.531 136.132 223.735C139.382 223.125 142.429 221.906 145.476 220.687C147.711 219.672 149.945 218.656 151.977 217.031C153.805 215.812 155.43 214.187 156.852 212.765C157.665 211.952 158.477 211.14 159.493 210.327C160.306 209.515 161.525 208.499 161.931 207.483C162.743 205.655 160.915 203.623 159.29 203.014C157.868 202.405 156.04 203.014 154.821 201.795C154.618 201.592 154.618 201.592 154.415 201.389C154.008 201.389 152.993 201.998 152.586 202.201C151.977 202.608 151.367 202.811 150.758 203.217C149.539 204.03 148.32 204.842 147.101 205.655C145.679 206.671 144.257 207.686 142.632 208.499C141.21 209.108 139.788 209.311 138.366 209.515C137.96 209.515 137.351 209.718 136.944 209.718Z" fill="#929292"/>
<path d="M195.246 179.653C196.871 174.371 197.887 168.886 200.934 164.214C204.794 158.12 212.107 154.463 219.42 154.869C218.404 155.479 217.389 156.291 216.779 157.307C221.655 156.698 226.936 159.745 230.186 163.401C233.64 167.261 235.265 172.543 235.265 177.824C235.265 179.653 235.062 181.278 234.452 182.903C233.843 184.528 232.421 185.95 230.796 186.356C228.968 186.763 227.546 185.544 225.921 184.934C221.045 183.309 215.357 185.138 214.748 191.029C214.748 191.638 214.748 192.451 215.154 192.857C215.763 193.263 216.576 193.263 217.185 192.654C217.795 192.248 218.201 191.435 218.404 190.826C217.185 195.701 215.154 200.576 211.904 204.639C207.028 210.733 200.121 212.562 192.808 214.187C190.777 214.593 188.746 214.999 186.714 214.187C182.448 212.562 184.48 209.108 185.292 205.858C186.105 203.014 186.105 199.764 184.683 197.123C184.276 196.514 183.87 195.701 183.87 194.888C184.073 192.044 187.324 192.248 189.152 191.029C191.386 189.404 193.011 185.747 193.824 183.309C194.433 182.09 194.84 180.872 195.246 179.653Z" fill="#929292"/>
<path d="M135.522 105.1C135.319 105.506 135.116 106.115 134.913 106.522C132.475 111.803 131.053 117.694 130.647 123.586C130.241 129.883 131.663 135.977 132.475 142.275C134.1 155.682 135.929 169.293 138.366 182.497C140.195 192.654 145.476 202.202 152.789 209.515C157.055 213.781 162.337 217.437 168.431 218.656C174.322 219.875 181.229 218.656 185.495 214.187C189.761 209.718 190.98 203.217 191.59 197.123C194.23 171.73 190.574 145.931 191.386 120.335C191.59 111.803 192.402 103.068 191.183 94.5363C189.964 86.0043 186.511 77.4724 179.807 72.1907C176.963 75.6441 171.478 77.0661 167.416 75.2378C162.743 73.2064 160.306 70.9718 155.837 74.8315C154.008 76.4567 152.586 78.4881 151.367 80.5195C145.476 88.6452 139.585 96.5677 135.522 105.1Z" fill="#424242"/>
<path d="M170.463 180.872C168.838 180.872 167.009 181.075 165.587 181.887C163.556 182.903 161.931 184.325 160.915 186.356C159.696 188.997 160.509 192.248 161.728 194.888C162.743 197.732 164.368 200.17 165.587 203.014C166.806 205.858 168.228 208.499 170.26 210.733C171.682 212.562 173.307 214.187 175.338 215.203C179.401 217.234 184.683 216.828 188.339 213.984C191.996 210.937 191.996 205.045 191.183 200.983C190.371 195.701 185.902 190.826 182.245 187.169C180.417 185.341 178.182 183.512 175.744 182.294C173.916 181.481 172.088 180.872 170.463 180.872Z" fill="#DAD6D3"/>
<path d="M157.462 191.638C156.446 194.279 156.243 197.326 156.446 199.967C156.852 203.827 158.477 207.28 159.899 210.937C160.509 212.562 161.118 213.984 161.931 215.609C162.54 217.234 164.572 220.078 162.743 221.5C161.728 222.313 158.884 224.75 158.071 224.953C156.04 225.563 154.211 225.969 152.383 227.188C151.774 227.594 151.164 228.001 150.758 228.61C150.352 229.219 150.149 229.829 149.945 230.438C149.539 231.454 149.742 232.47 149.539 233.688C149.539 233.892 149.336 234.501 149.336 234.907C149.336 235.111 149.945 235.517 149.945 235.111C149.945 236.329 150.149 237.345 150.352 238.564C151.774 238.767 153.399 238.564 154.618 237.751C154.618 237.954 154.618 238.361 154.415 238.564C154.415 238.564 156.243 238.564 156.446 238.361C157.259 238.158 157.665 237.954 158.477 237.548C159.899 236.939 161.118 236.532 162.54 235.72C168.025 232.876 173.307 229.626 176.963 224.75C177.776 223.735 178.385 222.719 178.182 221.5C177.979 219.875 177.776 218.047 177.776 216.421C177.573 210.937 176.963 205.249 175.541 199.764C174.323 195.092 173.104 190.013 170.463 185.95C169.65 184.731 168.635 183.716 167.416 183.106C162.337 180.872 158.681 187.982 157.462 191.638Z" fill="#DAD6D3"/>
<path d="M180.417 110.991C179.401 108.756 177.979 106.522 175.541 105.506C173.307 104.49 170.869 104.287 168.634 104.49C164.775 105.1 161.525 107.334 159.087 110.381C153.399 117.085 150.352 125.82 148.727 134.352C148.523 135.571 148.32 136.79 148.32 138.212C144.461 139.024 140.398 139.837 136.538 140.649C130.85 141.868 124.756 143.29 120.693 147.353C118.255 149.791 116.833 153.041 115.208 156.291C113.786 158.932 112.567 161.573 111.552 164.214C110.536 167.058 109.723 170.714 111.755 173.152C111.958 172.949 111.958 172.746 112.161 172.543C112.161 173.152 112.161 173.762 112.364 174.371C112.567 174.98 112.77 175.59 113.38 175.59C113.786 175.59 113.989 175.387 114.396 175.184C115.005 174.777 115.818 174.168 116.427 173.558C116.427 173.762 116.427 174.168 116.427 174.371C118.865 173.762 121.099 172.746 123.131 171.324C125.162 169.902 126.99 168.074 128.616 166.042C129.428 164.823 130.444 163.605 130.85 162.183C131.256 160.761 131.256 159.135 130.444 157.713C130.241 157.307 130.038 157.104 130.038 156.698C129.834 155.276 131.256 154.463 132.475 154.463C135.319 154.26 138.163 154.26 141.007 154.463C146.086 154.869 150.961 155.682 156.04 155.885C160.103 156.088 164.165 154.057 167.212 151.416C175.135 144.306 180.62 134.758 182.245 124.195C182.245 119.929 182.245 115.257 180.417 110.991Z" fill="#DAD6D3"/>
<path d="M173.916 39.688C174.932 38.4691 176.354 37.6566 177.776 36.844C178.588 36.2346 179.604 35.8283 180.62 35.6251C182.448 35.2188 182.245 41.5162 182.245 42.7351C182.245 45.1728 181.839 47.4074 182.448 49.8451C182.651 50.6576 180.214 50.0482 180.01 49.8451C178.995 49.4388 177.776 49.2356 176.557 49.4388C174.932 49.6419 173.307 50.4545 171.885 51.2671C171.072 51.6733 169.65 52.6891 168.838 51.4702C167.416 49.4388 170.056 45.7822 171.072 44.1571C171.682 42.532 172.697 40.9068 173.916 39.688Z" fill="#424242"/>
<path d="M170.057 48.8294C171.275 48.4231 172.494 47.8137 173.713 47.6105C174.932 47.4074 176.354 47.6105 177.37 48.22C177.166 46.798 176.963 45.376 177.37 43.954C177.776 42.532 178.792 41.11 179.401 39.688C180.01 38.266 179.604 36.844 177.776 37.8597C175.338 39.2817 173.307 41.5163 171.885 43.954C171.072 45.5791 170.463 47.2043 170.057 48.8294Z" fill="#929292"/>
<path d="M193.418 94.3331C194.23 95.9582 195.449 97.5834 196.668 99.0054C195.652 100.427 193.824 100.63 191.996 100.427C188.949 100.224 186.105 99.6148 183.261 98.5991C180.823 97.7865 178.385 96.5677 176.151 95.3488C173.713 94.13 171.479 92.9111 169.041 91.6923C168.025 92.9111 167.213 93.9268 166.197 95.1457C165.994 95.552 165.587 95.9582 164.978 95.7551C164.775 95.7551 164.572 95.552 164.369 95.3488C162.337 93.1143 155.837 82.1446 155.43 81.9414C154.821 81.5352 151.977 82.3477 151.164 82.3477C152.586 79.5037 154.008 76.6598 155.024 73.6126C155.227 72.8001 155.633 72.1906 155.837 71.3781C156.04 70.5655 155.837 70.5655 155.227 69.9561C154.211 69.1435 153.196 67.9247 153.196 66.5027C153.196 66.0964 153.196 65.6901 153.196 65.4869C153.399 64.8775 153.805 64.065 154.211 63.6587C155.024 62.8461 156.04 62.4398 157.055 62.2367C156.243 62.0335 155.43 61.4241 155.024 60.6115C154.821 60.2053 154.618 59.5958 154.415 58.9864C154.415 58.5801 154.211 58.377 154.211 57.9707C154.008 56.955 154.008 55.9393 154.415 54.9236C154.618 53.9079 155.227 53.5016 156.243 52.8921C157.665 52.0796 159.29 51.4702 161.118 51.267C162.743 51.0639 164.572 50.8607 166.197 50.6576H166.4L166.603 50.4544C166.806 50.0482 167.213 49.845 167.416 49.4387C168.025 48.8293 168.635 48.2199 169.447 47.8136C170.26 47.4073 171.275 47.001 172.088 46.7979C173.916 46.3916 175.948 46.1885 177.776 46.5948C178.792 46.7979 179.807 47.2042 180.823 47.6105C181.636 48.0167 182.651 48.2199 183.464 48.6262C185.292 49.4387 186.917 50.6576 188.339 51.8764C192.808 55.9393 195.652 61.6272 196.465 67.5184C197.278 73.4095 196.465 79.5037 194.434 85.1917C193.824 86.6137 193.012 88.0357 192.605 89.4577C191.996 91.0828 192.605 92.9111 193.418 94.3331Z" fill="#DAD6D3"/>
<path d="M174.729 49.6419C172.697 51.0639 170.869 52.6891 170.26 55.1268C169.853 56.3456 169.853 57.1582 170.463 58.377C171.072 59.5959 171.885 60.6116 172.494 61.8304C175.135 66.0964 175.135 71.7844 174.119 76.4567C172.494 83.5666 170.26 90.4735 167.619 97.3803C165.587 96.974 163.962 95.552 162.54 94.13C159.696 91.0829 157.259 87.6295 155.43 83.9729C153.196 84.1761 150.758 84.1761 148.523 83.7698C150.149 81.5352 151.774 79.3007 152.993 76.8629C153.602 75.6441 154.415 74.4252 154.821 73.2064C155.024 72.597 155.633 71.7844 155.633 71.175C155.633 70.7687 155.43 70.5656 155.024 70.1593C154.008 69.3467 152.993 68.1278 152.993 66.7059C152.993 66.2996 152.993 65.8933 152.993 65.6901C153.196 65.0807 153.602 64.2682 154.008 63.8619C154.821 63.0493 155.837 62.643 156.852 62.4399C156.243 62.2367 155.837 61.8304 155.43 61.4242C157.665 60.6116 157.462 58.377 158.477 56.5488C158.884 55.9393 159.29 55.3299 159.696 54.5173C160.103 53.9079 160.306 53.2985 160.712 52.6891C161.118 52.2828 161.525 51.8765 161.728 51.2671C162.743 51.0639 163.759 51.0639 164.775 51.0639C165.181 51.2671 165.587 51.6734 165.994 51.8765C166.197 52.0796 166.603 52.2828 166.806 52.2828C167.212 52.2828 167.416 52.2828 167.822 52.2828C168.025 52.2828 168.228 52.2828 168.431 52.0796C169.447 51.6734 170.26 51.0639 171.072 50.2514C171.885 49.4388 172.9 48.6262 174.119 48.2199C174.526 48.0168 175.338 47.6105 175.744 48.2199C176.151 48.8294 175.338 49.4388 174.729 49.6419Z" fill="#F2F2F2"/>
<path d="M200.934 47.6106C201.137 48.4231 200.528 49.8451 200.121 50.4546C199.715 51.8765 198.903 53.2985 198.496 54.7205C198.09 55.9394 197.887 57.1582 197.684 58.3771C197.481 59.7991 197.074 61.2211 196.668 62.6431C196.059 64.6745 195.246 66.909 193.824 68.5342C193.215 69.3467 192.199 69.9562 191.183 69.753C190.574 69.5499 190.168 68.7373 189.964 68.1279C189.558 66.5028 189.558 64.8776 189.558 63.2525C189.558 61.6274 189.355 60.4085 188.949 58.7834C188.746 57.1582 188.339 55.9394 187.324 54.7205C186.917 54.3142 186.308 53.7048 186.308 53.0954C186.308 52.6891 186.511 52.486 186.714 52.0797C189.355 48.22 194.027 45.9854 198.699 46.3917C199.309 46.3917 199.918 46.5949 200.325 47.0011C200.934 47.2043 200.934 47.4074 200.934 47.6106Z" fill="#424242"/>
<path d="M188.746 51.6734C188.339 52.0796 187.933 52.2828 187.933 52.8922C187.933 53.7048 188.746 54.3142 189.355 54.7205C190.371 55.5331 190.777 56.9551 190.98 58.1739C191.183 59.3928 190.98 60.8147 190.98 62.0336C190.98 62.8462 190.98 63.4556 191.386 64.2682C191.59 64.8776 191.996 65.487 192.605 65.2839C192.808 65.2839 193.012 65.0807 193.215 65.0807C194.637 64.065 195.449 62.2367 195.652 60.4085C195.855 58.5802 195.856 56.7519 196.262 55.1268C196.668 54.1111 197.074 53.0954 197.481 51.8765C197.684 51.2671 198.496 49.2357 197.887 48.6262C197.481 48.2199 195.449 48.6262 194.84 48.8294C192.605 49.2357 190.574 50.2514 188.746 51.6734Z" fill="#DAD6D3"/>
<path d="M178.182 54.7205C178.792 54.9236 179.401 55.533 179.807 55.9393C180.417 56.7519 180.823 57.5645 181.026 58.5802V58.7833C181.026 58.9865 180.823 58.9865 180.62 58.9865C179.198 58.9865 177.979 58.7833 176.76 57.9708C176.151 57.5645 175.744 57.1582 175.338 56.7519C175.135 56.3456 174.322 55.7362 174.525 55.1268C174.729 54.5173 175.541 54.5173 176.151 54.5173C176.76 54.5173 177.573 54.3142 178.182 54.7205Z" fill="#424242"/>
<path d="M177.776 58.1739C178.673 58.1739 179.401 57.4463 179.401 56.5487C179.401 55.6512 178.673 54.9236 177.776 54.9236C176.878 54.9236 176.151 55.6512 176.151 56.5487C176.151 57.4463 176.878 58.1739 177.776 58.1739Z" fill="#78C5FF"/>
<path d="M177.776 58.1739C178.673 58.1739 179.401 57.4463 179.401 56.5487C179.401 55.6512 178.673 54.9236 177.776 54.9236C176.878 54.9236 176.151 55.6512 176.151 56.5487C176.151 57.4463 176.878 58.1739 177.776 58.1739Z" fill="#78C5FF"/>
<path d="M177.776 57.3613C178.225 57.3613 178.588 56.9975 178.588 56.5488C178.588 56.1 178.225 55.7362 177.776 55.7362C177.327 55.7362 176.963 56.1 176.963 56.5488C176.963 56.9975 177.327 57.3613 177.776 57.3613Z" fill="#1A1A1A"/>
<path d="M177.37 56.3456C177.594 56.3456 177.776 56.1637 177.776 55.9394C177.776 55.715 177.594 55.5331 177.37 55.5331C177.145 55.5331 176.963 55.715 176.963 55.9394C176.963 56.1637 177.145 56.3456 177.37 56.3456Z" fill="white"/>
<path d="M167.416 51.6733C167.822 51.6733 168.228 51.6733 168.635 51.6733C168.838 51.6733 168.838 51.4702 168.838 51.4702C168.838 51.2671 168.838 51.0639 168.838 51.0639C168.838 50.8608 168.634 50.6576 168.431 50.4545C168.228 50.2513 168.228 50.2513 168.025 50.2513C167.822 50.2513 167.822 50.2513 167.619 50.2513C167.416 50.2513 167.009 50.2513 166.806 50.4545C166.603 50.4545 166.4 50.6576 166.197 51.0639C166.197 51.2671 166.4 51.6733 166.4 51.8765C167.009 51.4702 167.212 51.6733 167.416 51.6733Z" fill="#424242"/>
<path d="M170.056 68.5341C167.009 70.5655 163.353 70.3624 159.899 69.3467C158.274 68.9404 156.649 68.5341 155.024 67.5184C154.211 66.909 153.399 66.2996 152.789 65.6901C152.993 65.0807 153.399 64.2682 153.805 63.8619C154.618 63.0493 155.633 62.643 156.649 62.4399C155.837 62.2367 155.024 61.6273 154.618 60.8147C154.415 60.4085 154.211 59.799 154.008 59.1896C154.415 58.9865 154.821 58.9865 155.227 58.7833C156.243 58.377 156.649 57.1582 157.259 56.3456C157.462 56.1425 157.665 55.9393 157.868 55.9393C158.071 55.9393 158.477 56.1425 158.477 56.3456C158.681 56.5488 158.681 56.955 158.681 57.1582C158.681 58.5802 159.087 60.0022 159.899 61.0179C160.509 61.8304 161.525 62.4399 162.54 63.0493C163.759 63.8619 164.978 64.4713 166.197 65.0807C167.416 65.487 168.634 65.8933 169.65 66.7059C170.666 67.1121 171.072 67.9247 170.056 68.5341Z" fill="#424242"/>
<path d="M163.353 54.3142C162.947 54.7205 162.54 54.9237 162.134 55.1268C161.728 55.33 161.321 55.5331 160.712 55.7362C160.509 55.7362 160.306 55.9394 160.306 55.9394C159.899 56.1425 159.493 56.1425 159.087 56.1425C158.477 56.1425 157.868 55.9394 157.868 55.33C157.665 54.7205 157.665 53.908 157.462 53.2985V53.0954C157.462 53.0954 157.462 52.8923 157.259 52.8923C156.852 52.486 156.852 51.8765 156.852 51.2671C156.852 50.8608 157.055 50.4546 157.462 50.2514C158.071 49.642 158.884 49.4388 159.493 49.4388C160.712 49.4388 161.931 49.8451 162.743 50.8608C162.947 51.2671 163.15 51.6734 163.353 52.0797C163.759 52.6891 163.759 53.7048 163.353 54.3142Z" fill="#424242"/>
<path d="M181.229 51.6733C180.214 50.8607 179.198 50.2513 177.979 49.845C176.963 49.6419 175.948 49.845 174.932 50.0482C174.323 50.2513 173.713 50.4544 173.51 51.0639C173.307 52.0796 174.323 52.2827 174.932 52.4859C175.948 52.8921 176.963 52.8921 177.776 53.2984C179.604 53.9078 181.026 55.1267 182.245 56.5487C182.448 56.7518 182.448 56.7518 182.651 56.7518C182.854 56.7518 183.058 56.7518 183.058 56.7518V56.5487C183.261 55.3298 182.855 54.111 182.245 52.8921C181.839 52.689 181.636 52.0796 181.229 51.6733Z" fill="#424242"/>
<path d="M169.65 48.4231C169.244 48.0168 168.431 48.0168 167.822 48.22C167.416 48.4231 167.009 48.6263 166.806 49.0326V49.2357C166.806 49.4388 166.806 49.642 166.806 49.8451V50.0483L167.009 49.8451C167.213 49.8451 167.416 49.642 167.619 49.642C167.822 49.642 168.025 49.8451 168.228 49.8451C168.635 50.0483 169.244 50.4545 169.65 50.4545C169.853 50.4545 169.853 50.4545 169.853 50.4545C169.853 50.4545 169.853 50.2514 170.057 50.2514C170.057 49.8451 170.057 49.4388 169.853 49.0326C170.057 48.8294 169.853 48.6263 169.65 48.4231Z" fill="#424242"/>
<path d="M168.431 50.8608C168.431 51.2671 167.822 51.4702 167.416 51.4702C167.009 51.4702 166.603 51.0639 166.603 50.6576C166.603 50.2514 167.212 50.0482 167.619 50.0482C168.228 50.0482 168.634 50.4545 168.431 50.8608Z" fill="#78C5FF"/>
<path d="M168.025 50.6577C168.025 50.8608 167.822 51.0639 167.619 50.8608C167.416 50.8608 167.213 50.6577 167.213 50.4545C167.213 50.2514 167.416 50.0482 167.619 50.2514C167.822 50.4545 168.025 50.4545 168.025 50.6577Z" fill="#1A1A1A"/>
<path d="M167.619 50.4545C167.619 50.6576 167.416 50.6576 167.212 50.6576C167.009 50.6576 167.009 50.4545 167.009 50.4545C167.009 50.2513 167.213 50.2513 167.416 50.2513C167.619 50.2513 167.619 50.2513 167.619 50.4545Z" fill="white"/>
<path d="M162.134 55.1268C161.728 55.3299 161.118 55.5331 160.712 55.7362C160.712 55.5331 160.712 55.3299 160.712 55.1268C160.509 54.7205 160.306 54.3142 160.306 53.9079C160.306 53.7048 160.306 53.5016 160.306 53.2985C160.306 53.0954 160.509 52.8922 160.712 52.8922C160.915 52.8922 161.321 53.0954 161.321 53.2985C161.525 53.5016 161.525 53.9079 161.525 54.1111C161.728 54.5173 161.728 54.9236 162.134 55.1268Z" fill="#1A1A1A"/>
<path d="M156.446 65.6902C157.462 66.2996 158.477 66.5027 159.493 66.909C160.915 67.3153 162.134 67.5184 163.556 67.5184C164.165 67.5184 164.978 67.5184 165.587 67.5184C165.994 67.5184 166.806 67.5184 166.806 66.7059C166.806 66.5027 166.603 66.2996 166.4 66.0964C166.197 65.8933 165.994 65.8933 165.791 65.8933C164.775 65.6902 163.759 65.2839 162.743 64.6744C162.337 64.4713 161.931 64.2682 161.525 63.8619C161.118 63.4556 160.915 63.0493 160.915 62.643C160.915 62.4399 160.915 62.2367 160.712 62.0336C160.712 62.0336 160.509 61.8305 160.306 61.8305C159.899 61.6273 159.696 61.6273 159.29 61.6273C158.274 61.6273 157.259 61.8305 156.243 62.2367C155.633 62.4399 155.024 62.643 154.415 63.2525C154.211 63.4556 154.211 63.6587 154.415 64.065C154.618 64.4713 155.024 64.6744 155.227 65.0807C155.633 65.2839 156.04 65.487 156.446 65.6902Z" fill="#FF7878"/>
<path d="M161.118 50.6576C165.718 50.6576 169.447 46.9287 169.447 42.3288C169.447 37.7289 165.718 34 161.118 34C156.518 34 152.789 37.7289 152.789 42.3288C152.789 46.9287 156.518 50.6576 161.118 50.6576Z" fill="#338259"/>
<path d="M159.696 44.3602C162.389 44.3602 164.572 42.1774 164.572 39.4848C164.572 36.7922 162.389 34.6094 159.696 34.6094C157.004 34.6094 154.821 36.7922 154.821 39.4848C154.821 42.1774 157.004 44.3602 159.696 44.3602Z" fill="#4BA677"/>
<defs>
<filter id="filter0_d_438_140" x="0" y="0" width="340" height="328.789" filterUnits="userSpaceOnUse" color-interpolation-filters="sRGB">
<feFlood flood-opacity="0" result="BackgroundImageFix"/>
<feColorMatrix in="SourceAlpha" type="matrix" values="0 0 0 0 0 0 0 0 0 0 0 0 0 0 0 0 0 0 127 0" result="hardAlpha"/>
<feOffset/>
<feGaussianBlur stdDeviation="4"/>
<feComposite in2="hardAlpha" operator="out"/>
<feColorMatrix type="matrix" values="0 0 0 0 0 0 0 0 0 0 0 0 0 0 0 0 0 0 0.15 0"/>
<feBlend mode="normal" in2="BackgroundImageFix" result="effect1_dropShadow_438_140"/>
<feBlend mode="normal" in="SourceGraphic" in2="effect1_dropShadow_438_140" result="shape"/>
</filter>
</defs>
</svg>
