<svg width="213" height="215" viewBox="0 0 213 215" fill="none" xmlns="http://www.w3.org/2000/svg">
<g clip-path="url(#clip0_209_847)">
<path d="M24.3 186.4C24 187.8 22.5 184.8 21.8 185.9C20.6 187.8 16.7 192.9 15.5 194.8C15.4 195 15.2 195.2 15 195.2C14.9 195.2 14.7 195.2 14.6 195.1C11.9 193.7 9.2 192.4 6.5 191C8.3 186.1 10.4 181.2 12.8 176.5C15 178.4 17.4 180 20 181.2L24.3 186.4Z" fill="#F59F18"/>
<path d="M18.5 184.8C16 187.9 14.1 191.3 12.8 195.1C12.6 195.6 13.4 195.7 13.5 195.3C14.7 191.7 16.6 188.3 19 185.4C19.4 184.9 18.8 184.4 18.5 184.8Z" fill="#C87C0D"/>
<path d="M16.6 183.2C14.6 186.4 12.9 189.7 11.3 193.2C11.1 193.6 11.7 194 11.9 193.6C13.5 190.2 15.3 186.9 17.2 183.6C17.5 183.2 16.8 182.8 16.6 183.2Z" fill="#C87C0D"/>
<path d="M13.6 181.8C11.8 185.4 10.3 189.1 9.19999 192.9C9.09999 193.4 9.79999 193.6 9.89999 193.1C11 189.3 12.4 185.7 14.2 182.2C14.5 181.8 13.8 181.4 13.6 181.8Z" fill="#C87C0D"/>
<path d="M11.3 181.3C10.1 184.9 8.89999 188.6 7.59999 192.2C7.39999 192.7 8.19999 192.8 8.29999 192.4C9.49999 188.8 10.7 185.1 12 181.5C12.1 181 11.4 180.8 11.3 181.3Z" fill="#C87C0D"/>
<path d="M37 110.7C37.1 117.3 37.2 123.8 37.3 130.4C37.3 132.6 37.4 134.9 36.9 137.1C35.2 144.4 28.4 149 23.6 154.7C20.4 158.5 18.1 162.8 15.8 167.2C13.6 171.3 11.4 175.4 9.2 179.5C8.9 180.1 8.6 180.7 8.7 181.3C8.8 182 9.4 182.5 9.9 183C13 185.5 20.2 188.2 24.1 188.9C24.5 189 24.9 189 25.2 188.9C25.7 188.7 26 188.2 26.2 187.7C29.6 181.1 33.4 174.6 37.5 168.4C40.2 164.4 45.3 158.9 48.1 155C50.6 151.5 47.4 148.6 49.9 145.1C50.6 144.2 51.2 143.2 51.4 142.1C51.6 140.8 51.2 139.5 50.8 138.3C48.4 131.4 46 124.5 43.6 117.6L37 110.7Z" fill="black"/>
<path d="M27.7 213.2C18.1 212.8 9.8 206.8 2.3 200.8C1.2 199.9 0 198.8 0 197.4C0 196.5 0.6 195.7 1.1 194.9C2.9 192.4 4.7 189.9 6.5 187.4C9.5 189.9 12.9 192.1 16.5 193.8C16.5 193.7 25 210.4 27.7 213.2Z" fill="black"/>
<path d="M56.2 190C55.9 194.1 55.6 198.3 55.3 202.4C55.3 202.7 55.2 203.1 55 203.3C54.8 203.5 54.4 203.5 54.1 203.5C51.1 203.5 48.2 203 45.4 202C45.2 196.2 44.4 191 45.1 185.3L56.2 190Z" fill="#F59F18"/>
<path d="M54.8 190.9C54.1 195.6 53.7 200.3 53.6 205C53.6 205.5 54.3 205.5 54.3 205C54.4 200.4 54.8 195.7 55.4 191.1C55.6 190.6 54.9 190.4 54.8 190.9Z" fill="#C87C0D"/>
<path d="M51.9 190C51.6 194.7 51.3 199.5 51 204.2C51 204.7 51.7 204.7 51.7 204.2C52 199.5 52.3 194.7 52.6 190C52.7 189.6 52 189.6 51.9 190Z" fill="#C87C0D"/>
<path d="M48.3 189.5C48.2 193.7 48.2 198 48.4 202.2C48.4 202.7 49.2 202.7 49.1 202.2C48.9 198 48.9 193.7 49 189.5C49.1 189.1 48.3 189.1 48.3 189.5Z" fill="#C87C0D"/>
<path d="M46 189.1C46.2 194 46.4 198.9 46.6 203.8C46.6 204.3 47.4 204.3 47.3 203.8C47.1 198.9 46.9 194 46.7 189.1C46.7 188.6 46 188.6 46 189.1Z" fill="#C87C0D"/>
<path d="M57.7 94.1001C57.6 101.6 58.6 109.2 60.9 116.4C62.3 120.9 64.1 125.2 65 129.8C67.6 142.8 62.7 155.9 61.3 169.1C60.5 176.7 60.8 184.4 61.1 192C58.5 193.7 55.1 194.1 52 193.7C48.9 193.3 45.9 192.2 42.9 191.1C42.3 190.9 41.7 190.7 41.4 190.2C40.7 189.3 41.1 187.9 41.8 187C42.5 186.1 39.9 185.5 40.6 184.5C41.7 182.8 41.4 180.6 41.2 178.6C39.7 167.7 43.4 156.6 45 145.8C45.2 144.4 45.4 142.9 45.1 141.5C44.9 140.6 44.4 139.7 43.9 138.9C39.7 131.8 35.4 124.6 31.2 117.5C30 115.5 28.8 113.4 28 111.2C26.9 108.1 26.7 104.9 26.5 101.6C26.3 98.1001 26.1 94.4001 27.2 91.0001C28.1 88.1001 30 85.6001 31.8 83.1001C40 87.1001 48.5 90.3001 57.2 92.7001L57.7 94.1001Z" fill="#3F3F3F"/>
<path d="M75.4 85.4999C75.7 85.3999 76 85.2999 76.3 85.2999C77.8 85.2999 79.2 85.1999 80.7 85.1999C80.2 84.9999 79.6 84.6999 79.1 84.4999C78.3 83.9999 77.5 83.6999 77 82.9999C76.5 82.2999 76.3 81.1999 77 80.5999C77.8 79.7999 79.1 80.1999 80.1 80.6999C86.8 83.7999 93.5 86.8999 100.1 90.1999L101.3 90.8999C103.1 91.8999 104.9 92.8999 106.7 93.9999C107.4 94.3999 108.1 94.7999 108.3 95.4999C108.6 96.1999 108.2 97.1999 107.4 97.1999C107.2 97.1999 107 97.0999 106.8 96.9999C99.7 93.7999 92.6 90.4999 85.5 87.2999C83.3 87.5999 81 87.9999 78.8 88.2999C77.8 88.4999 76.6 88.5999 75.7 87.9999C74.7 87.4999 74.5 85.8999 75.4 85.4999Z" fill="#54260C"/>
<path d="M132.7 154.2C131.9 156.9 130.2 159.3 128.1 161.1C125.6 163.1 122.6 164.3 120 166.2C116.9 168.5 114.7 171.8 113.7 175.5C113.3 176.8 113.1 178.3 112.2 179.3C111.3 180.3 109.3 180.5 108.7 179.3C108.4 178.7 108.5 178 108.6 177.4C109.8 170.6 113.8 164.4 119.5 160.5C120.7 159.7 121.9 159 122.8 157.9C123.6 156.9 124.1 155.7 124.6 154.5C125.4 152.5 126.3 150.4 127.1 148.4L132.7 154.2Z" fill="#54260C"/>
<path d="M149.9 151.4C146.2 153.8 145.6 159 146.4 163.4C146.9 165.8 147.7 168.1 147.5 170.6C147.4 173 146 175.6 143.7 176.2C142.7 176.5 141.3 176.6 141.1 177.6C140.8 178.8 142.6 179.4 143.8 179.2C148 178.6 151.8 175.6 153.4 171.7C154.1 169.9 154.4 167.8 155.3 166C156.9 162.6 160.3 160.4 163 157.8C164.3 156.6 165.5 154.8 164.6 153.3C164.2 152.6 163.3 152.2 162.5 151.8C158 150 153.2 148.9 148.4 148.7L149.9 151.4Z" fill="#54260C"/>
<path d="M125.6 101.1C124.5 100.1 124.5 98.3001 125.2 96.9001C125.9 95.6001 127.1 94.6001 128.3 93.7001C129.5 92.8001 130.7 91.8001 131.4 90.5001C132.3 88.9001 132.2 86.9001 131.9 85.0001C131.7 83.5001 131.2 81.9001 130.2 80.7001C129.2 79.5001 127.4 78.9001 126 79.6001C124.8 80.2001 124.2 81.5001 123.8 82.8001C123.4 84.1001 123.3 85.5001 122.6 86.6001C122.1 87.5001 121.4 88.1001 120.8 89.0001C119.1 91.5001 119.5 95.0001 120.8 97.8001C121.2 98.7001 121.8 99.6001 122.6 100.2C123.4 100.8 124.5 101.2 125.5 100.9L125.6 101.1Z" fill="#54260C"/>
<path d="M89.7 71C92.6 74.3 95.5 77.6 98.4 80.9C101.3 84.1 104.4 88.1 103.6 92.3C102.2 91.8 100.8 91 99.6 90.2C99.5 91.8 99.3 93.3 99.2 94.9C99.1 95.9 98.6 97.2 97.6 97C97.2 96.9 97 96.6 96.7 96.3C95.3 94.3 95.7 91.5 94.5 89.3C93.7 87.8 92.1 86.6 92.2 84.9C92.2 84.3 92.5 83.7 92.4 83.1C92.3 82.3 91.5 81.7 90.9 81.2C88.4 79.4 85.9 77.6 83.4 75.8C85.1 73.7 87.3 72 89.7 70.8V71Z" fill="#FED5B7"/>
<path d="M21.2 86.8C21 88.8 17.3 97.8 17.2 99.8C17.2 100.4 17.3 101 17.3 101.5C17.4 105 14.6 107.9 12.1 110.3C11.9 110.4 11.7 110.5 11.5 110.5C11 110.4 11 109.7 11.2 109.2C11.7 107.9 12.2 106.6 12.7 105.3C11.4 106.8 10 108.2 8.70001 109.7C8.20001 110.3 7.40001 111.2 6.60001 111.9C5.90001 112.4 5.00001 111.7 5.40001 110.9C6.00001 109.5 6.90001 108 7.60001 107.2C6.60001 108.8 4.60001 110.8 2.70001 111.9C2.30001 112.2 1.70001 111.7 1.90001 111.2C2.60001 109.5 4.00001 107.5 5.10001 106.4C4.70001 107.6 3.40001 109.2 2.20001 110.2C1.80001 110.6 1.20001 110.1 1.30001 109.6C1.90001 107.7 3.20001 105.5 4.20001 104.2C3.30001 104.8 2.30001 105.1 1.30001 105.3C1.10001 105.3 1.00001 105.3 0.800007 105.2C0.200007 104.9 0.500007 104.1 0.900007 103.6C2.60001 101.3 4.80001 99.2 7.20001 97.6C8.10001 97 9.00001 96.5 9.90001 95.7C11.8 94.1 14.9 84.3 14.7 81.8C17.5 82 20.1 83.7 21.4 86.1L21.2 86.8Z" fill="#FED5B7"/>
<path d="M12.5 85.1999C13 82.3999 13.6 79.4999 14.1 76.6999C14.5 74.5999 14.9 72.3999 15.4 70.2999C18.5 57.6999 21.6 31.1999 48 31.9999C51.6 32.0999 54.5 36.2999 58 35.5999C57.7 35.8999 57.5 36.1999 57.2 36.3999H58.4C61.8 35.7999 65.7 36.5999 67.7 39.3999C68.6 40.6999 69.1 42.2999 69.6 43.7999C71.4 49.6999 74.1 55.4999 78.5 59.7999C80.2 61.4999 82.1 62.8999 83.9 64.3999C86.7 66.7999 89.2 69.4999 91.4 72.4999C89 74.3999 86.9 76.5999 85 78.8999C82.7 76.9999 79.4 76.6999 76.7 75.2999C75 74.3999 73.5 73.0999 72 71.6999C69.9 69.7999 67.8 67.8999 65.7 65.8999C64.7 69.3999 64.2 72.8999 63.9 76.4999C63.8 78.1999 63.8 79.7999 63.4 81.4999C63 83.0999 62.3 84.5999 61.5 85.9999C60.2 88.5999 58.9 91.0999 57.6 93.6999C54.7 91.9999 51.1 92.6999 47.7 92.6999C42.1 92.6999 34.5 91.6999 29.3 89.7999C28.8 89.5999 28.4 89.4999 28 89.0999C27.5 88.5999 27.4 87.7999 27.3 86.9999C27 82.4999 30.6 71.0999 30.3 69.9999C29.3 72.1999 28.5 74.3999 27.8 76.6999C27.1 78.9999 26.6 81.3999 25.3 83.3999C24.5 84.6999 23.4 85.7999 22.8 87.1999C22.6 87.5999 22.5 88.0999 22.1 88.3999C22 88.8999 21.5 88.9999 21.1 88.9999C18.4 89.1999 15.7 88.4999 13.5 87.0999C13.1 86.8999 12.7 86.5999 12.5 86.0999C12.4 85.8999 12.4 85.4999 12.5 85.1999Z" fill="#847452"/>
<path d="M74.2 212.3C65.5 216.4 55.4 214.9 46 213.1C44.6 212.8 43 212.4 42.4 211.1C42 210.3 42.1 209.3 42.2 208.4C42.6 205.4 43.1 202.3 43.5 199.3C47.4 200.1 51.4 200.5 55.3 200.3C55.3 200.2 70.6 211.1 74.2 212.3Z" fill="black"/>
<path d="M132.1 107.1C130.7 103.6 129.1 99.8999 125.8 98.2999C121.6 96.2999 115.7 98.2999 112 96.0999C111.2 95.5999 110.3 95.9999 110 96.8999L109.8 97.4999C109 100.2 108.2 103.2 109.4 105.8C110.7 108.5 113.8 109.7 115.7 112C118.4 115.4 117.9 120.2 116.6 124.4C115.3 128.5 113.4 132.6 113.7 136.9C114.1 142.7 118.4 147.4 120 153C115.6 154.4 111.2 156.3 107.7 159.4C104.2 162.6 101.7 167.3 102 172.1C102 172.3 102 172.6 102.1 172.8C102.8 175.1 105.9 174 106.7 172.1C107.4 170.4 107.1 168.4 107.5 166.6C108.7 162 114.2 160.3 118.9 159.7C123.6 159.1 129 158.5 131.6 154.5C134.6 156.9 138.8 157.4 142.7 156.8C146.5 156.2 150.2 154.8 153.9 153.8C155.4 153.4 157.4 153.3 158 154.7C155.4 157.1 154.9 161.1 155.9 164.4C156.9 167.8 159.2 170.6 161.6 173.1C163.8 175.4 166.3 178.2 165.4 181.2C164.8 183.2 162.8 184.5 161.5 186.1C160.9 186.9 161.5 188.1 162.5 188.1C166.3 188.1 170.1 184.8 170.3 180.9C170.5 176.3 166.5 172.3 167.1 167.7C167.2 166.9 167.5 166 168.1 165.5C168.9 164.8 170 164.7 171 164.6C174.9 163.9 178.4 161.4 180.3 157.9C181.1 156.4 181.7 154.6 183.2 153.7C184.4 153.1 185.8 153.2 187.2 153.2C197.3 153.6 207.4 147.7 212 138.7C205.7 145.4 196.1 148.9 186.9 147.7C186.1 147.6 185.2 147.4 184.5 147C183.7 146.5 183.3 145.7 182.8 144.9C176.6 135 165.1 129.4 153.7 126.8C149.4 125.8 144.9 125.2 141.3 122.5C137.1 119.4 134.8 117.2 133.1 112.3L132.1 107.1Z" fill="#AF6137"/>
<path d="M134.8 113.6C135.5 114.5 135.6 115.9 136.2 116.8C131.3 119.6 118 119.4 116.9 118.9C116.7 118.8 116.7 116.1 116.7 115.3C122.8 117.4 134.8 113.6 134.8 113.6Z" fill="#EA7D7A"/>
<path d="M128.5 101.7C128.8 102.4 129.5 102.8 130.3 102.9C131 103 131.8 102.8 132.5 102.5C135.4 101.5 138.3 100.2 141.4 99.9001C144.5 99.7001 148 101.1 149 104C149.3 104.8 149.3 105.7 149.3 106.5C149.3 107.7 149.1 109 148.3 109.9C147 111.2 144.8 110.9 143.1 110.1C141.4 109.3 139.8 108.2 138 108.1C136.7 108.1 135.5 108.5 134.3 108.7C132.4 108.9 130.3 108.4 129 107C127.7 105.6 127.3 103.3 128.3 101.7H128.5Z" fill="#54260C"/>
<path d="M109.5 99.9C109.6 99.2 110.4 98.9 111.1 98.9C111.8 99 112.4 99.3 113.1 99.5C113.8 99.7 114.6 99.6 115 99C115.6 98.1 114.6 97 113.6 96.5C112.9 96.2 112.3 95.9 111.5 95.6C110.9 95.4 110.3 95.3 109.8 95.6C109.5 95.8 109.3 96.1 109.2 96.4C108.7 97.5 108.6 99.3 108.9 100.4L109.5 99.9Z" fill="black"/>
<path d="M49.3 34C45.7 34.5 42.4 36.3 39.3 37.9C38.9 38.1 39.3 38.8 39.7 38.5C42.8 36.9 45.9 35.1 49.4 34.7C49.7 34.7 49.7 34 49.3 34Z" fill="#4D3E25"/>
<path d="M64.6 38.8999C64.5 42.5999 65.6 46.0999 66.3 49.6999C66.6 51.4999 66.9 53.2999 66.8 55.1999C66.7 56.9999 66.3 58.7999 65.8 60.5999C65.3 62.5999 64.9 64.6999 65.3 66.6999C65.4 67.1999 66.1 66.9999 66 66.4999C65.7 64.6999 66 62.7999 66.5 60.9999C66.9 59.1999 67.4 57.3999 67.6 55.5999C67.8 51.9999 66.8 48.4999 66.1 44.8999C65.7 42.8999 65.4 40.8999 65.4 38.8999C65.4 38.3999 64.6 38.3999 64.6 38.8999Z" fill="#4D3E25"/>
<path d="M59.9 66.6001C59.4 66.4001 58.8 66.5001 58.3 66.6001C57.7 66.7001 57 66.9001 56.4 67.0001C55.1 67.3001 53.9 67.5001 52.6 67.8001C50.1 68.3001 47.6 68.8001 45.1 69.4001C44.1 69.6001 42.8 69.7001 42.2 70.6001C41.6 71.4001 42 72.4001 42.9 72.8001C43.3 73.0001 43.8 73.0001 44.3 73.1001C44.9 73.1001 45.5 73.2001 46.1 73.1001C47.3 73.1001 48.4 72.9001 49.6 72.7001C52.3 72.3001 54.9 71.6001 57.6 71.4001C57.5 71.2001 57.5 70.9001 57.4 70.7001C54.5 72.9001 50.9 73.4001 47.8 75.2001C46.9 75.7001 46.1 76.3001 45.4 77.0001C45.1 77.3001 45.6 77.9001 45.9 77.5001C48.4 75.0001 52.1 74.3001 55.2 72.9001C56.1 72.5001 57 72.0001 57.8 71.4001C58.1 71.2001 58 70.7001 57.6 70.7001C53.2 70.9001 49 72.6001 44.6 72.3001C44 72.3001 42.5 72.2001 42.7 71.3001C42.8 70.9001 43.2 70.6001 43.6 70.5001C44.1 70.3001 44.7 70.3001 45.2 70.1001C47.5 69.6001 49.8 69.1001 52.1 68.7001C53.4 68.4001 54.6 68.2001 55.9 67.9001C56.5 67.8001 57.2 67.6001 57.8 67.5001C58.4 67.4001 59.1 67.1001 59.6 67.4001C60.1 67.5001 60.3 66.8001 59.9 66.6001Z" fill="#4D3E25"/>
<path d="M30.8 70.6C32 65.2 33.3 59.7 35.3 54.5C35.8 53.2 36.4 51.9 37 50.7C37.6 49.5 38.3 48.3 38.9 47.1C39.5 45.9 39.9 44.7 40 43.4C40.1 42.3 39.9 41.2 39.5 40.2C38.6 37.9 36.8 36 34.4 35.3C33.9 35.2 33.7 35.9 34.2 36C36.2 36.6 37.8 38.2 38.6 40.1C39 41 39.2 42.1 39.2 43.1C39.2 44.4 38.7 45.6 38.2 46.7C37.6 47.9 37 49.1 36.4 50.2C35.8 51.4 35.3 52.6 34.8 53.9C33.8 56.4 33 59 32.3 61.6C31.5 64.5 30.8 67.5 30.2 70.5C30 70.9 30.7 71.1 30.8 70.6Z" fill="#4D3E25"/>
<path d="M22.3 88.4001C19 88.9001 15.5 88 12.8 86.1C12.4 85.8 12 86.5 12.4 86.7C15.3 88.8 19 89.6 22.5 89.1C23 89.1 22.8 88.3001 22.3 88.4001Z" fill="#4D3E25"/>
<path d="M21.1 86.7C20.7 87.4 20.4 88.1 20 88.7C19.9 88.9 20 89.1 20.1 89.2C20.3 89.3 20.5 89.2 20.6 89.1C21 88.4 21.3 87.7 21.7 87.1C21.8 86.9 21.7 86.7 21.6 86.6C21.4 86.4 21.2 86.5 21.1 86.7Z" fill="#4D3E25"/>
<path d="M19.4 85.9999C19.1 86.6999 18.8 87.4999 18.5 88.1999C18.4 88.3999 18.4 88.5999 18.6 88.6999C18.8 88.7999 19 88.7999 19.1 88.5999C19.4 87.8999 19.7 87.0999 20 86.3999C20.1 86.1999 20.1 85.9999 19.9 85.8999C19.8 85.7999 19.5 85.7999 19.4 85.9999Z" fill="#4D3E25"/>
<path d="M17.1 85.3C17 86.2 16.7 87 16.3 87.7C16.2 87.9 16.3 88.1 16.4 88.2C16.6 88.3 16.8 88.2 16.9 88.1C17.4 87.3 17.7 86.4 17.8 85.5C17.8 85.3 17.8 85.1 17.5 85C17.4 85 17.2 85.1 17.1 85.3Z" fill="#4D3E25"/>
<path d="M15.6 84.8C15.3 85.5 14.9 86.3 14.6 87C14.5 87.2 14.5 87.4 14.7 87.5C14.9 87.6 15.1 87.6 15.2 87.4C15.5 86.7 15.9 85.9 16.2 85.2C16.3 85 16.3 84.8 16.1 84.7C15.9 84.6 15.7 84.6 15.6 84.8Z" fill="#4D3E25"/>
<path d="M13.8 84.1999C13.8 84.9999 13.6 85.7999 13.1 86.4999C13 86.6999 13.1 86.8999 13.2 86.9999C13.4 87.0999 13.6 86.9999 13.7 86.8999C14.3 86.0999 14.5 85.1999 14.5 84.2999C14.5 84.0999 14.3 83.8999 14.1 83.8999C13.9 83.7999 13.8 83.9999 13.8 84.1999Z" fill="#4D3E25"/>
<path d="M91.2 72.1999C88.7 73.6999 86.5 75.6999 84.8 77.9999C84.5 78.3999 85.2 78.7999 85.4 78.3999C87.1 76.1999 89.2 74.2999 91.6 72.7999C91.9 72.5999 91.6 71.9999 91.2 72.1999Z" fill="#4D3E25"/>
<path d="M85.7 77.7001C85.2 76.9001 84.5 76.2001 83.6 75.8001C83.4 75.7001 83.2 75.7001 83.1 75.9001C83 76.1001 83 76.3001 83.2 76.4001C83.4 76.5001 83.6 76.6001 83.8 76.7001L83.9 76.8001C83.9 76.8001 83.9 76.8001 84 76.8001C84.1 76.9001 84.2 76.9001 84.3 77.0001C84.5 77.1001 84.6 77.3001 84.7 77.5001C84.7 77.5001 84.7 77.5001 84.7 77.6001L84.8 77.7001C84.9 77.8001 84.9 77.9001 85 78.0001C85.1 78.2001 85.3 78.2001 85.5 78.1001C85.8 78.1001 85.8 77.8001 85.7 77.7001Z" fill="#4D3E25"/>
<path d="M86.8 76.1C86.9 75.3 86.3 74.5 85.5 74.3C85.3 74.3 85.1 74.4 85 74.6C85 74.8 85.1 75 85.3 75.1H85.4C85.5 75.1 85.5 75.2 85.6 75.2L85.7 75.3C85.7 75.3 85.7 75.3 85.8 75.4C85.7 75.3 85.8 75.5 85.8 75.4C85.8 75.5 85.9 75.5 85.9 75.6C85.9 75.6 85.9 75.6 85.9 75.7C85.9 75.6 85.9 75.8 85.9 75.7V75.8V75.9C85.9 75.9 85.9 75.9 85.9 76C85.9 76.1 85.9 76.2 85.9 76.2C85.9 76.4 86.1 76.6 86.3 76.6C86.7 76.5 86.8 76.3 86.8 76.1Z" fill="#4D3E25"/>
<path d="M89 74.0999C88.7 73.2999 88.1 72.5999 87.2 72.3999C87 72.2999 86.8 72.4999 86.7 72.6999C86.7 72.8999 86.8 73.0999 87 73.1999C87.1 73.1999 87.2 73.2999 87.3 73.2999C87.3 73.2999 87.3 73.2999 87.4 73.2999C87.4 73.2999 87.5 73.2999 87.5 73.3999C87.6 73.3999 87.6 73.4999 87.7 73.4999C87.7 73.4999 87.7 73.4999 87.8 73.4999L87.9 73.5999C88 73.6999 88 73.6999 88.1 73.7999C88.1 73.7999 88.1 73.7999 88.1 73.8999L88.2 73.9999C88.2 74.0999 88.3 74.1999 88.3 74.1999C88.3 74.1999 88.3 74.1999 88.3 74.2999V74.3999C88.4 74.5999 88.6 74.6999 88.8 74.6999C88.9 74.4999 89.1 74.2999 89 74.0999Z" fill="#4D3E25"/>
<path d="M90.9 72.8001C90.4 72.0001 89.6 71.4001 88.7 71.1001C88.5 71.0001 88.3 71.2001 88.2 71.4001C88.2 71.6001 88.3 71.8001 88.5 71.9001C88.6 71.9001 88.7 72.0001 88.8 72.0001C88.8 72.0001 88.9 72.0001 88.9 72.1001C89.1 72.2001 89.2 72.3001 89.4 72.4001C89.4 72.4001 89.4 72.4001 89.5 72.5001L89.6 72.6001C89.7 72.7001 89.7 72.7001 89.8 72.8001L89.9 72.9001C89.9 72.9001 89.9 72.9001 89.9 73.0001C90 73.1001 90 73.2001 90.1 73.3001C90.2 73.5001 90.4 73.5001 90.6 73.4001C90.9 73.2001 91 72.9001 90.9 72.8001Z" fill="#4D3E25"/>
<path d="M27.5 63.2001C26.9 64.5001 26.6 65.9001 26.4 67.3001C26.4 67.5001 26.6 67.7001 26.8 67.7001C27 67.7001 27.1 67.5001 27.2 67.3001C27.3 66.0001 27.7 64.8001 28.2 63.6001C28.3 63.4001 28.3 63.2001 28.1 63.1001C27.9 63.0001 27.6 63.0001 27.5 63.2001Z" fill="#4D3E25"/>
<path d="M25 64.8001C24.8 65.2001 24.7 65.6001 24.5 66.0001C24.5 66.1001 24.5 66.2001 24.5 66.3001C24.5 66.4001 24.6 66.5001 24.7 66.5001C24.8 66.5001 24.9 66.5001 25 66.5001C25.1 66.4001 25.1 66.4001 25.2 66.3001C25.4 65.9001 25.5 65.5001 25.7 65.1001C25.7 65.0001 25.7 64.9001 25.7 64.8001C25.7 64.7001 25.6 64.6001 25.5 64.6001C25.4 64.6001 25.3 64.6001 25.2 64.6001C25.1 64.6001 25.1 64.7001 25 64.8001Z" fill="#4D3E25"/>
<path d="M22.8 60.0001C22.8 60.7001 22.8 61.5001 22.8 62.2001C22.8 62.4001 23 62.6001 23.2 62.6001C23.4 62.6001 23.6 62.4001 23.6 62.2001C23.6 61.5001 23.6 60.7001 23.6 60.0001C23.6 59.8001 23.4 59.6001 23.2 59.6001C23 59.6001 22.8 59.8001 22.8 60.0001Z" fill="#4D3E25"/>
<path d="M23.5 73.2C23.4 73.9 23.3 74.7 23.3 75.4C23.3 75.6 23.5 75.8 23.7 75.8C23.9 75.8 24 75.6 24.1 75.4C24.2 74.7 24.3 73.9 24.3 73.2C24.3 73 24.1 72.8 23.9 72.8C23.7 72.8 23.5 73 23.5 73.2Z" fill="#4D3E25"/>
<path d="M74.3 62.8001C74.8 63.6001 75.2 64.5001 75.5 65.4001C75.6 65.6001 75.8 65.7001 76 65.7001C76.2 65.6001 76.3 65.4001 76.3 65.2001C76 64.2001 75.6 63.3001 75 62.4001C74.9 62.2001 74.7 62.2001 74.5 62.3001C74.3 62.4001 74.2 62.7001 74.3 62.8001Z" fill="#4D3E25"/>
<path d="M72.3 64.9C72.4 65.6 72.5 66.4 72.5 67.1C72.5 67.3 72.7 67.5 72.9 67.5C73.1 67.5 73.3 67.3 73.3 67.1C73.2 66.4 73.1 65.6 73.1 64.9C73.1 64.7 72.9 64.5 72.7 64.5C72.4 64.5 72.2 64.7 72.3 64.9Z" fill="#4D3E25"/>
<path d="M69.7 60.7C69.7 60.8 69.8 60.8 69.8 60.9V60.8C69.8 60.9 69.9 61 69.9 61.1V61C69.9 61.1 69.9 61.2 69.9 61.3C69.8 61.5 70 61.7 70.2 61.8C70.4 61.8 70.6 61.7 70.7 61.5C70.8 61 70.7 60.5 70.4 60.2C70.3 60.1 70 60.1 69.9 60.2C69.6 60.3 69.6 60.6 69.7 60.7Z" fill="#4D3E25"/>
<path d="M36.1 83.6C36.2 83.8 36.2 83.9 36.3 84.1C36.3 84.2 36.3 84.3 36.4 84.3V84.4C36.4 84.3 36.4 84.4 36.4 84.5C36.4 84.7 36.4 84.8 36.4 85C36.4 85.1 36.4 85.2 36.4 85.2C36.4 85.1 36.4 85.3 36.4 85.2V85.3C36.4 85.5 36.5 85.7 36.7 85.8C36.9 85.8 37.1 85.7 37.2 85.5C37.3 84.8 37.3 84 37 83.3C36.9 83.1 36.7 83 36.5 83C36.2 83.2 36 83.4 36.1 83.6Z" fill="#4D3E25"/>
<path d="M34.3 80.7999C34.3 81.2999 34.3 81.7999 34.3 82.2999C34.3 82.4999 34.5 82.6999 34.7 82.6999C34.9 82.6999 35.1 82.4999 35.1 82.2999C35.1 81.7999 35.1 81.2999 35.1 80.7999C35.1 80.5999 34.9 80.3999 34.7 80.3999C34.5 80.3999 34.3 80.5999 34.3 80.7999Z" fill="#4D3E25"/>
<path d="M57.4 90.9001C53.5 89.7001 49.3 90.0001 45.2 89.7001C41.7 89.5001 38.2 89.0001 34.7 88.2001C32.9 87.7001 31 87.2001 29.3 86.4001C28.9 86.2001 28.5 86.8001 28.9 87.0001C32.1 88.5001 35.6 89.3001 39 89.8001C40.8 90.1001 42.5 90.3001 44.3 90.4001C46.3 90.6001 48.2 90.6001 50.2 90.7001C52.5 90.8001 54.9 90.9001 57.2 91.7001C57.6 91.8001 57.8 91.1001 57.4 90.9001Z" fill="#4D3E25"/>
<path d="M55.6 16.3999C54.8 17.3999 54.6 18.7999 54.7 20.0999C54.8 21.3999 54.9 22.6999 54.6 23.9999C54.4 24.5999 54.1 25.1999 54.2 25.7999C54.3 26.9999 55.6 27.7999 56.7 28.0999C56.9 28.1999 57 28.1999 57.2 28.0999C57.5 27.9999 57.5 27.5999 57.6 27.2999C57.7 25.6999 58.3 24.0999 59.1 22.5999C59.5 21.8999 60 21.1999 60.5 20.4999C61 19.6999 61.5 18.7999 61.9 17.9999L55.6 16.3999Z" fill="black"/>
<path d="M80.1 17.5999C78.7 20.7999 77.3 23.9999 75.9 27.2999C77.4 28.2999 78.8 29.2999 80.3 30.2999C78.5 30.0999 76.7 29.8999 75 29.7999C74.5 31.7999 73.9 32.7999 73.1 34.6999C72.8 35.4999 72.5 36.2999 71.8 36.8999C70.7 37.7999 64.9 34.9999 64.9 34.8999C63.2 37.0999 61.5 39.3999 59.8 41.5999C55.8 39.5999 53.1 37.8999 50.3 34.3999C53.4 30.7999 56.1 26.8999 58.4 22.6999C57.2 23.4999 54.7 21.5999 54.3 20.2999C53.8 18.9999 54.6 17.3999 55.8 16.7999C57.1 16.1999 58.6 16.4999 59.7 17.2999C61.1 13.9999 61.3 9.3999 63.3 6.3999C68.6 9.1999 75.3 13.6999 80.2 17.2999C80.4 17.3999 80.5 17.5999 80.5 17.7999C80.3 17.7999 80 17.6999 80.1 17.5999Z" fill="#FED5B7"/>
<path d="M60.5 41.4001C57.3 40.5001 54.4 38.8001 52.2 36.4001C51.5 35.7001 50.9 35.0001 50.4 34.2001C50.1 33.8001 49.5 34.2001 49.8 34.6001C51.8 37.4001 54.5 39.7001 57.7 41.1001C58.6 41.5001 59.5 41.8001 60.4 42.1001C60.7 42.3001 60.9 41.5001 60.5 41.4001Z" fill="#4D3E25"/>
<path d="M58.3 41.4C58.3 42 58.3 42.7 58.3 43.3C58.3 43.5 58.5 43.7 58.7 43.7C58.9 43.7 59.1 43.5 59.1 43.3C59.1 42.7 59.1 42 59.1 41.4C59.1 41.2 58.9 41 58.7 41C58.5 41 58.3 41.2 58.3 41.4Z" fill="#4D3E25"/>
<path d="M55.9 40C55.8 40.7 55.7 41.3999 55.6 42.0999C55.6 42.2999 55.6 42.4999 55.9 42.5999C56.1 42.5999 56.3 42.4999 56.4 42.2999C56.5 41.5999 56.6 40.9 56.7 40.2C56.7 40 56.7 39.8 56.4 39.7C56.2 39.7 56 39.7 55.9 40Z" fill="#4D3E25"/>
<path d="M53.8 39.0001C53.5 39.5001 53.3 39.9001 53 40.4001C52.9 40.6001 53 40.8001 53.1 40.9001C53.3 41.0001 53.5 40.9001 53.6 40.8001C53.9 40.3001 54.1 39.9001 54.4 39.4001C54.5 39.2001 54.4 39.0001 54.3 38.9001C54.1 38.8001 53.9 38.9001 53.8 39.0001Z" fill="#4D3E25"/>
<path d="M52 37.4C51.6 37.9 51.1 38.5 50.7 39C50.6 39.1 50.5 39.4 50.7 39.5C50.8 39.6 51.1 39.7 51.2 39.5C51.6 39 52.1 38.4 52.5 37.9C52.6 37.8 52.7 37.5 52.5 37.4C52.4 37.2 52.1 37.2 52 37.4Z" fill="#4D3E25"/>
<path d="M50.7 35.4001C50.5 35.3001 50.3 35.4001 50.2 35.5001C50 35.6001 49.9 35.7001 49.7 35.8001C49.3 36.1001 48.9 36.4001 48.6 36.7001C48.5 36.8001 48.3 37.0001 48.3 37.1001C48.2 37.3001 48.4 37.5001 48.6 37.6001C48.8 37.6001 49 37.5001 49.1 37.3001C49.2 37.2001 49.2 37.2001 49.3 37.1001C49.4 37.0001 49.6 36.9001 49.7 36.7001L49.8 36.6001C49.8 36.6001 49.9 36.6001 49.9 36.5001C50 36.4001 50.1 36.4001 50.2 36.3001C50.4 36.2001 50.5 36.1001 50.7 36.0001C50.8 36.0001 50.8 35.9001 50.9 35.9001C51 35.9001 50.8 35.9001 50.8 35.9001C51 36.0001 51.2 35.8001 51.3 35.6001C51 35.6001 50.9 35.4001 50.7 35.4001Z" fill="#4D3E25"/>
<path d="M58.8 20.6C58.5 19.6 58.1 18.6 57.6 17.6C57.5 17.4 57.3 17.4 57.1 17.5C57 17.6 56.9 17.8 57 18C57.5 18.9 57.8 19.8 58.1 20.8C58.3 21.3 59 21.1 58.8 20.6Z" fill="#7E4927"/>
<path d="M57.6 18.5999C57.2 18.9999 56.8 19.3999 56.4 19.7999C56.3 19.8999 56.3 20.1999 56.4 20.2999C56.5 20.3999 56.8 20.3999 56.9 20.2999C57.3 19.8999 57.7 19.4999 58.1 19.0999C58.2 18.9999 58.2 18.6999 58.1 18.5999C58 18.4999 57.8 18.4999 57.6 18.5999Z" fill="#7E4927"/>
<path opacity="0.33" d="M64.9 34.8001L57.3 30.1001L63.4 36.7001L64.9 34.8001Z" fill="#7E4927"/>
<path d="M72.7 30.8001C72 30.7001 69.7 28.7001 69.3 28.1001C69.4 28.6001 69.6 31.9001 71.8 32.7001C71.8 32.7001 72.4 31.2001 72.7 30.8001Z" fill="white"/>
<path d="M72.8 30.5001H72.7C72.7 30.5001 72.6 30.5001 72.6 30.4001C72.5 30.3001 72.3 30.2001 72.2 30.1001C71.9 29.9001 71.5 29.6001 71.2 29.4001C70.9 29.1001 70.6 28.8001 70.2 28.6001C70.1 28.5001 70 28.4001 69.8 28.2001C69.7 28.1001 69.7 28.1001 69.6 28.0001C69.6 28.0001 69.6 28.0001 69.6 27.9001C69.4 27.5001 68.9 27.8001 68.9 28.2001C68.9 28.1001 68.9 28.3001 68.9 28.2001C68.9 28.3001 68.9 28.3001 68.9 28.4001C68.9 28.5001 68.9 28.7001 69 28.8001C69 29.1001 69.1 29.5001 69.2 29.8001C69.4 30.6001 69.8 31.5001 70.4 32.1001C70.8 32.5001 71.2 32.8001 71.7 33.0001C71.9 33.1001 72.1 32.9001 72.2 32.7001C72.3 32.5001 72.4 32.2001 72.5 32.0001C72.6 31.8001 72.7 31.6001 72.8 31.4001C72.8 31.3001 72.9 31.2001 72.9 31.2001C72.9 31.2001 72.9 31.1001 73 31.1001C73.1 30.9001 73.2 30.7001 73 30.6001C72.9 30.5001 72.6 30.4001 72.5 30.6001C72.2 30.9001 72.1 31.3001 71.9 31.7001C71.8 32.0001 71.6 32.3001 71.5 32.6001C71.7 32.5001 71.8 32.4001 72 32.3001C71 31.9001 70.5 31.0001 70.2 30.0001C70.1 29.6001 70 29.1001 69.9 28.7001C69.9 28.6001 69.9 28.5001 69.9 28.4001C69.9 28.5001 69.9 28.4001 69.9 28.3001V28.2001C69.9 28.1001 69.9 27.9001 69.9 27.8001C69.7 27.9001 69.4 28.0001 69.2 28.1001C69.6 28.7001 70.3 29.3001 70.9 29.8001C71.3 30.1001 71.6 30.4001 72 30.6001C72.2 30.8001 72.5 31.0001 72.8 31.0001C73 31.0001 73.2 31.0001 73.3 30.7001C73.1 30.8001 73 30.5001 72.8 30.5001Z" fill="#7E4927"/>
<path d="M73.3431 24.1204C72.8291 23.9184 72.1995 24.2963 71.9368 24.9645C71.6742 25.6327 71.878 26.3382 72.392 26.5402C72.906 26.7422 73.5356 26.3643 73.7982 25.6961C74.0609 25.0279 73.8571 24.3224 73.3431 24.1204Z" fill="black"/>
<path d="M75.9 21.4C75.9 21.7 75.9 22 75.7 22.3C75.6 22.6 75.3 22.9 75 22.9C74.8 22.9 74.5 22.8 74.3 22.7C73 22.2 71.7 21.5 70.3 21.5C71.8 20.4 74 20.2 75.6 21.1L75.9 21.4Z" fill="black"/>
<path d="M80.8 13.7C81.9 15.7 82.4 17.9999 81.9 20.2999C81.8 20.5999 81.7 21 81.5 21.2C81 21.6 80.3 21.1 79.8 20.6C78.5 19.1 77.6 17.2 77.3 15.2C77.6 15.7 77.9 16.3 77.9 16.9C77.9 17.5 77.7 18.2 77.1 18.4C76.5 18.7 75.8 18.4 75.2 18C73.7 17 72.7 15.5 72.4 13.7C72.8 14.2 73.1 14.9 73.2 15.5C73.3 16.3 73.2 17.2 72.5 17.6C71.6 18.1 70.6 17.4 69.9 16.7C69.2 15.8 68.7 14.7 68.5 13.6C69.1 14.7 69.1 16.4 68 17.1C67.2 17.6 66.2 17.4 65.5 16.9C64.8 16.4 64.2 15.7 63.7 15C64 17.5 63.2 20.1 61.5 21.9C61.6 20.1999 61 18.3 59.6 17.2C58.2 16.1 56.1 16 54.8 17.2C55.1 15.2 54.6 12.1 55.8 10.6C57 9.09995 58.5 7.59995 59.6 5.99995C60.4 4.89995 61.2 3.59995 62.5 3.29995C63.2 3.09995 64 3.19995 64.6 3.59995C65 3.79995 67.9 3.59995 68.3 3.79995C68.7 3.99995 69.2 3.99995 69.7 3.99995C72.4 4.09995 74.2 6.49995 76.5 7.89995C78.9 9.29995 80.7 11.7 81 14.5L80.8 13.7Z" fill="black"/>
<path d="M64 5.1C63 3.5 63.2 1.3 64.6 0C63.1 0.9 61.5 1.9 61.1 3.6C60.6 2.9 59.8 2.5 58.9 2.5C58.1 2.4 57.2 2.7 56.4 2.9C58.5 3.4 60.2 5.6 60 7.8L64 5.1Z" fill="black"/>
<path d="M9.8 104.3C8.5 106.3 7 108.2 5.4 110C5.1 110.4 5.6 110.9 5.9 110.5C7.6 108.7 9.1 106.7 10.4 104.6C10.7 104.3 10.1 103.9 9.8 104.3Z" fill="#7E4927"/>
<path d="M8.19999 103.5C5.99999 105.6 3.89999 107.9 2.09999 110.3C1.79999 110.7 2.49999 111.1 2.69999 110.7C4.49999 108.3 6.49999 106.1 8.69999 104.1C9.09999 103.7 8.59999 103.1 8.19999 103.5Z" fill="#7E4927"/>
<path d="M6.69999 101.5C4.79999 103.3 3.09999 105.5 1.89999 107.8C1.69999 108.2 2.29999 108.6 2.49999 108.2C3.79999 105.9 5.39999 103.9 7.19999 102.1C7.59999 101.7 7.09999 101.2 6.69999 101.5Z" fill="#7E4927"/>
<path d="M11.1 104.9C9.09999 103.6 7.39999 102.1 5.79999 100.3C5.49999 99.8999 4.99999 100.5 5.29999 100.8C6.89999 102.6 8.69999 104.2 10.7 105.6C11.2 105.8 11.5 105.2 11.1 104.9Z" fill="#7E4927"/>
<path d="M15.1 95.9999C14.3 95.3999 13.4 94.9999 12.4 94.8999C12.2 94.8999 12 95.0999 12 95.2999C12 95.4999 12.2 95.6999 12.4 95.6999C12.8 95.6999 13.2 95.7999 13.6 95.9999C13.9 96.0999 14.3 96.3999 14.6 96.5999C14.8 96.6999 15 96.7999 15.1 96.5999C15.3 96.2999 15.3 96.0999 15.1 95.9999Z" fill="#7E4927"/>
<path d="M100.4 90.8001C100.3 88.8001 99.7 86.9001 98.7 85.2001C98.5 84.8001 97.8 85.2001 98.1 85.6001C99 87.2001 99.6 89.0001 99.7 90.8001C99.7 91.3001 100.5 91.3001 100.4 90.8001Z" fill="#7E4927"/>
<path d="M75.9 85.9C75.8 85.9 75.9 86 75.9 85.9C75.9 86 76 86 76 86C76 86 76 86 76.1 86.1C76.1 86.1 76.1 86.1 76.1 86.2C76.1 86.2 76.1 86.3 76.2 86.3C76.2 86.3 76.2 86.3 76.2 86.4V86.5V86.6C76.2 86.6 76.2 86.6 76.2 86.7C76.2 86.8 76.2 86.9 76.2 86.9C76.2 86.9 76.2 86.9 76.2 87V87.1C76.2 87 76.2 87 76.2 87.1C76.2 87.1 76.2 87.2 76.1 87.2C76 87.4 76.1 87.6 76.2 87.7C76.4 87.8 76.6 87.7 76.7 87.6C76.9 87.2 77 86.8 76.9 86.3C76.8 86.1 76.7 85.9 76.6 85.7C76.4 85.5 76.3 85.4 76 85.3C75.9 85.3 75.8 85.3 75.7 85.3C75.6 85.3 75.5 85.4 75.5 85.5C75.6 85.7 75.7 85.9 75.9 85.9Z" fill="#7E4927"/>
<path d="M78 81.3001C78 81.4001 78 81.4001 78 81.4001V81.5001C78 81.6001 78 81.6001 78 81.7001C78 81.7001 78 81.7001 78 81.8001V81.9001C78 82.0001 78 82.0001 77.9 82.1001V82.2001C77.9 82.2001 77.9 82.2001 77.8 82.3001C77.7 82.4001 77.7 82.4001 77.6 82.5001C77.6 82.6001 77.6 82.7001 77.6 82.8001C77.7 83.0001 77.9 83.1001 78.1 82.9001C78.4 82.7001 78.6 82.4001 78.7 82.0001C78.8 81.6001 78.8 81.3001 78.6 80.9001C78.5 80.7001 78.3 80.7001 78.1 80.8001C77.9 80.9001 77.9 81.1001 78 81.3001Z" fill="#7E4927"/>
<path d="M106.1 94.4C106 94.5 105.9 94.6 105.9 94.6C105.8 94.7 105.8 94.7 105.8 94.8C105.7 95 105.7 95.2 105.7 95.5C105.7 95.6 105.7 95.7 105.8 95.8C105.9 95.9 106 95.9 106.1 95.9C106.2 95.9 106.3 95.9 106.4 95.8C106.5 95.7 106.5 95.6 106.5 95.5C106.5 95.4 106.5 95.4 106.5 95.3V95.4C106.5 95.3 106.5 95.2 106.6 95.1V95.2C106.6 95.1 106.7 95 106.7 95C106.7 95 106.7 95.1 106.6 95.1C106.6 95 106.7 95 106.8 94.9C106.9 94.8 106.9 94.7 106.9 94.6C106.9 94.5 106.9 94.4 106.8 94.3C106.7 94.2 106.6 94.2 106.5 94.2H106.4C106.2 94.3 106.1 94.3 106.1 94.4Z" fill="#7E4927"/>
<path d="M111.4 101.6L111.3 101.7L111.2 101.8V101.9C111.2 102 111.2 102 111.2 102C111.2 102 111.2 102.1 111.3 102.1C111.3 102.1 111.4 102.1 111.4 102.2C111.5 102.2 111.5 102.3 111.6 102.3H111.7C111.8 102.3 111.8 102.3 111.9 102.2L112 102.1L112.1 102V101.9C112.1 101.8 112.1 101.8 112.1 101.8C112.1 101.8 112.1 101.7 112 101.7C112 101.7 111.9 101.7 111.9 101.6C111.8 101.6 111.8 101.5 111.7 101.5H111.6C111.5 101.5 111.4 101.5 111.4 101.6Z" fill="#54260C"/>
<path d="M114.5 102C114.5 102 114.6 102 114.6 101.9C114.6 101.9 114.6 101.8 114.7 101.8C114.7 101.7 114.7 101.7 114.7 101.7C114.7 101.6 114.7 101.5 114.6 101.4L114.5 101.3L114.4 101.2C114.4 101.2 114.3 101.2 114.3 101.1C114.2 101.1 114.2 101.1 114.2 101.1C114.1 101.1 114.1 101.1 114.1 101.1C114.1 101.1 114.1 101.1 114 101.1C114 101.1 114 101.1 113.9 101.1C113.9 101.1 113.8 101.1 113.8 101.2L113.7 101.3C113.7 101.3 113.7 101.4 113.6 101.4C113.6 101.5 113.6 101.5 113.6 101.6V101.7C113.6 101.8 113.6 101.8 113.6 101.8V101.9L113.7 102C113.7 102 113.8 102 113.8 102.1H113.9H114C114.4 102 114.5 102 114.5 102C114.5 101.9 114.5 101.8 114.6 101.8V101.7C114.6 101.6 114.6 101.6 114.5 101.5C114.5 101.5 114.5 101.4 114.4 101.4C114.4 101.4 114.3 101.3 114.2 101.3C114.2 101.3 114.2 101.3 114.3 101.3C114.3 101.3 114.3 101.3 114.3 101.4C114.3 101.4 114.3 101.4 114.3 101.5C114.3 101.5 114.3 101.5 114.3 101.6C114.3 101.6 114.3 101.6 114.3 101.5V101.6V101.7C114.3 101.7 114.3 101.7 114.2 101.7C114.2 101.7 114.2 101.7 114.1 101.7C114.1 101.7 114.1 101.7 114 101.7C114 101.7 114 101.7 113.9 101.7C113.9 101.7 113.9 101.7 113.8 101.7C113.8 101.7 113.8 101.7 113.8 101.8V101.7C113.8 101.7 113.8 101.7 113.8 101.6C113.8 101.6 113.8 101.6 113.9 101.6C113.8 101.6 113.8 101.7 113.8 101.7L113.7 101.8V101.9V102C113.7 102 113.7 102.1 113.8 102.1C113.8 102.1 113.9 102.2 114 102.2H114.1C114.4 102.1 114.4 102.1 114.5 102Z" fill="#54260C"/>
<path d="M120.782 101.76C120.315 101.59 119.737 102 119.492 102.674C119.246 103.349 119.426 104.034 119.893 104.204C120.36 104.374 120.938 103.964 121.183 103.29C121.429 102.615 121.249 101.93 120.782 101.76Z" fill="black"/>
<path d="M122.2 99.3C121.7 99.3 121.3 99.9 121.4 100.4C121.5 100.9 121.8 101.3 122.2 101.7C122.8 102.4 123.5 103.1 124.3 103.6C124.6 103.8 125.1 104 125.4 103.7C125.6 103.5 125.5 103.2 125.5 102.9C125.1 101.4 124 100.1 122.7 99.3H122.2Z" fill="#54260C"/>
<path d="M165 130.7C164.5 132 164 133.4 163.5 134.7C162.2 137.7 160.3 140.6 157.3 142C154.3 143.4 150.3 142.6 148.7 139.8C148.2 138.8 148 137.6 147.6 136.5C147.2 135.4 146.6 134.3 145.6 133.8C143.9 133 141.9 134.2 140 134.2C137.2 134.1 135.1 131.1 135.4 128.3C135.6 125.5 137.6 123.1 140 121.6C143.3 124.7 147.9 125.9 152.3 126.8C156.7 127.7 161.3 128.4 165 130.7Z" fill="#54260C"/>
<path d="M104.8 169.5C104.4 170.5 104.1 171.5 104 172.6C104 172.8 104.2 173 104.4 173C104.6 173 104.8 172.8 104.8 172.6C104.9 171.7 105.1 170.7 105.5 169.8C105.6 169.6 105.6 169.4 105.4 169.3C105.1 169.3 104.9 169.3 104.8 169.5Z" fill="#54260C"/>
<path d="M102.8 169.8C102.7 170.9 102.6 172 102.7 173.1C102.7 173.3 102.9 173.5 103.1 173.5C103.3 173.5 103.5 173.3 103.5 173.1C103.4 172 103.5 170.9 103.6 169.8C103.6 169.6 103.4 169.4 103.2 169.4C102.9 169.4 102.8 169.6 102.8 169.8Z" fill="#54260C"/>
<path d="M132.4 145.5C133 147.4 133.1 149.6 132.7 151.6C132.3 153.1 131.6 154.6 130.7 155.9C130.2 156.5 129.7 157.2 129 157.6C128.6 157.9 129 158.5 129.4 158.2C130.8 157.3 131.7 155.8 132.5 154.4C132.9 153.7 133.2 152.9 133.4 152.1C133.7 151.2 133.7 150.2 133.7 149.2C133.7 147.9 133.5 146.6 133.1 145.4C133 144.9 132.2 145.1 132.4 145.5Z" fill="#54260C"/>
<path d="M119.9 153.3C122.5 151.6 124.2 148.8 124.5 145.7C124.6 144.8 124.5 144 124.4 143.1C124.3 142.6 123.6 142.8 123.7 143.3C124.3 146.9 122.6 150.7 119.6 152.6C119.2 152.9 119.5 153.6 119.9 153.3Z" fill="#54260C"/>
<path d="M172.4 146.4C169.3 146.3 166.1 147.1 163.4 148.6C160.8 150.1 158.6 152.2 157.1 154.8C156.3 156.2 155.6 157.7 155.2 159.3C155.1 159.8 155.8 160 155.9 159.5C157.4 153.9 161.9 149.4 167.5 147.8C169.1 147.3 170.8 147.1 172.5 147.2C172.8 147.1 172.8 146.4 172.4 146.4Z" fill="#54260C"/>
<path d="M164.9 185.1C164.3 185.9 163.7 186.7 163.1 187.4C163 187.6 162.9 187.8 163.1 187.9C163.2 188 163.5 188.1 163.6 187.9C164.2 187.1 164.8 186.3 165.4 185.6C165.5 185.4 165.6 185.2 165.4 185.1C165.3 185 165 184.9 164.9 185.1Z" fill="#54260C"/>
<path d="M163.2 184.9C163 185.3 162.7 185.7 162.4 186.1C162.3 186.2 162.3 186.2 162.2 186.3C162.1 186.4 162.1 186.5 162 186.6C161.8 186.8 161.7 187 161.5 187.1C161.4 187.2 161.3 187.5 161.5 187.6C161.6 187.7 161.9 187.8 162 187.6C162.7 186.9 163.2 186.1 163.7 185.3C163.8 185.1 163.7 184.9 163.6 184.8C163.5 184.7 163.3 184.7 163.2 184.9Z" fill="#54260C"/>
<path d="M118.4 135.1C118.3 135.9 118.3 136.7 118.5 137.5C118.5 137.7 118.8 137.8 119 137.8C119.2 137.7 119.3 137.5 119.3 137.3C119.1 136.7 119.1 135.9 119.2 135.3C119.2 135.1 119.1 134.9 118.9 134.8C118.7 134.8 118.5 134.8 118.4 135.1Z" fill="#54260C"/>
<path d="M116.5 137C116.5 137.9 116.6 138.8 116.8 139.7C116.8 139.9 117.1 140 117.3 140C117.5 139.9 117.6 139.7 117.6 139.5C117.4 138.7 117.3 137.9 117.3 137C117.3 136.8 117.1 136.6 116.9 136.6C116.7 136.6 116.5 136.8 116.5 137Z" fill="#54260C"/>
<path d="M116.8 132.3C117 133.1 117 133.9 117.1 134.8C117.1 135 117.3 135.2 117.5 135.2C117.7 135.2 117.9 135 117.9 134.8C117.9 133.9 117.8 133 117.6 132.1C117.6 131.9 117.3 131.8 117.1 131.8C116.8 131.9 116.7 132.1 116.8 132.3Z" fill="#54260C"/>
<path d="M147.5 149.3C147.6 149.9 147.7 150.5 147.9 151.1C147.9 151.3 148.2 151.4 148.4 151.4C148.6 151.3 148.7 151.1 148.7 150.9C148.6 150.3 148.5 149.7 148.3 149.1C148.3 148.9 148 148.8 147.8 148.8C147.6 148.9 147.5 149.1 147.5 149.3Z" fill="#54260C"/>
<path d="M145.7 150.6C145.6 150.6 145.6 150.6 145.7 150.6C145.6 150.7 145.5 150.8 145.5 150.9V151V151.1C145.6 151.2 145.6 151.2 145.7 151.3C145.8 151.3 145.9 151.3 146 151.3L146.1 151.2C146.1 151.2 146.1 151.2 146.2 151.1C146.3 151 146.3 151 146.3 150.9C146.3 150.8 146.4 150.8 146.4 150.7C146.4 150.6 146.4 150.6 146.4 150.5C146.4 150.4 146.4 150.4 146.4 150.3C146.4 150.3 146.4 150.2 146.3 150.2L146.2 150.1H146.1H146C145.9 150.1 145.8 150.2 145.8 150.3V150.4C145.7 150.4 145.7 150.5 145.7 150.6Z" fill="#54260C"/>
<path d="M143.5 149.6C143.3 150 143.3 150.4 143.4 150.8C143.4 150.9 143.5 151 143.6 151C143.7 151 143.8 151.1 143.9 151C144 151 144.1 150.9 144.1 150.8C144.1 150.7 144.2 150.6 144.1 150.5C144.1 150.5 144.1 150.5 144.1 150.4V150.5C144.1 150.3 144.1 150.2 144.1 150V150.1C144.1 149.9 144.2 149.8 144.2 149.7C144.2 149.6 144.2 149.5 144.2 149.4C144.2 149.3 144.1 149.2 144 149.2C143.9 149.2 143.8 149.2 143.7 149.2C143.7 149.2 143.6 149.2 143.6 149.3C143.5 149.5 143.5 149.6 143.5 149.6Z" fill="#54260C"/>
<path d="M168.7 154.1C168.1 154.5 167.5 155 167 155.4C166.9 155.5 166.9 155.5 166.8 155.6C166.8 155.7 166.8 155.8 166.8 155.9C166.9 156.1 167.1 156.2 167.3 156C167.9 155.6 168.5 155.1 169 154.7C169.1 154.6 169.1 154.6 169.2 154.5C169.2 154.4 169.2 154.3 169.2 154.2C169.2 154 168.9 153.9 168.7 154.1Z" fill="#54260C"/>
<path d="M164.9 152.8C164.7 153 164.5 153.2 164.3 153.4C164.2 153.5 164.2 153.6 164.2 153.7C164.2 153.8 164.2 153.9 164.3 154C164.4 154.1 164.5 154.1 164.6 154.1C164.7 154.1 164.8 154.1 164.9 154C165.1 153.8 165.3 153.6 165.5 153.4C165.6 153.3 165.6 153.2 165.6 153.1C165.6 153 165.6 152.9 165.5 152.8C165.4 152.7 165.3 152.7 165.2 152.7C165 152.7 165 152.7 164.9 152.8Z" fill="#54260C"/>
<path d="M161.4 153.8C161.3 154.3 161.3 154.7 161.2 155.2C161.2 155.3 161.2 155.4 161.2 155.5C161.2 155.6 161.3 155.7 161.4 155.7C161.5 155.7 161.6 155.7 161.7 155.7C161.8 155.7 161.9 155.6 161.9 155.5C162 155 162 154.6 162.1 154.1C162.1 154 162.1 153.9 162.1 153.8C162.1 153.7 162 153.6 161.9 153.6C161.8 153.6 161.7 153.6 161.6 153.6C161.5 153.6 161.5 153.7 161.4 153.8Z" fill="#54260C"/>
<path d="M162.1 159C162.1 159.5 162.1 160.1 162.1 160.6C162.1 160.8 162.3 161 162.5 161C162.7 161 162.9 160.8 162.9 160.6C162.9 160.1 162.9 159.5 162.9 159C162.9 158.8 162.7 158.6 162.5 158.6C162.2 158.7 162.1 158.8 162.1 159Z" fill="#54260C"/>
<path d="M132.2 116.4C132.2 116.5 132.2 116.5 132.2 116.6C132.2 116.6 132.2 116.6 132.2 116.7C132.2 116.6 132.2 116.8 132.2 116.7C132.2 116.7 132.2 116.8 132.1 116.8L132 116.9C131.9 117 132.1 116.9 132 116.9C132 116.9 132 116.9 131.9 116.9H131.8C131.7 116.9 131.7 116.9 131.8 116.9C131.8 116.9 131.8 116.9 131.7 116.9C131.7 116.9 131.7 116.9 131.6 116.9C131.5 116.9 131.7 116.9 131.6 116.9H131.5C131.5 116.9 131.4 116.9 131.4 116.8C131.4 116.7 131.3 116.7 131.3 116.7V116.6C131.3 116.6 131.3 116.6 131.3 116.5V116.4C131.3 116.4 131.3 116.4 131.3 116.3V116.4C131.3 116.3 131.3 116.3 131.3 116.3C131.3 116.3 131.3 116.3 131.4 116.2C131.4 116.2 131.4 116.2 131.5 116.2C131.6 116.2 131.6 116.2 131.6 116.2C131.5 116.2 131.7 116.2 131.6 116.2C131.7 116.2 131.7 116.2 131.8 116.2C131.8 116.2 131.8 116.2 131.9 116.2H132C131.9 116.2 132.1 116.2 132 116.2C132 116.2 132 116.2 132.1 116.2L132.2 116.3C132.2 116.3 132.2 116.3 132.2 116.4C132.2 116.5 132.2 116.3 132.2 116.4V116.5C132.2 116.6 132.3 116.7 132.4 116.7C132.5 116.7 132.6 116.8 132.7 116.7C132.9 116.6 133 116.4 133 116.2C132.9 115.8 132.5 115.4 132.1 115.4C131.6 115.3 131.1 115.5 130.9 115.9C130.7 116.3 130.7 116.8 131 117.2C131.1 117.4 131.3 117.6 131.6 117.6C131.8 117.7 132.1 117.7 132.3 117.6C132.9 117.4 133.3 116.8 133.1 116.1C133.1 115.9 132.8 115.8 132.6 115.8C132.3 116 132.2 116.2 132.2 116.4Z" fill="#C23F37"/>
<path d="M127.2 117.1C127.2 117.2 127.2 117.2 127.2 117.3C127.2 117.3 127.2 117.3 127.2 117.4C127.2 117.3 127.2 117.5 127.2 117.4C127.2 117.4 127.2 117.5 127.1 117.5L127 117.6C126.9 117.7 127.1 117.6 127 117.6C127 117.6 127 117.6 126.9 117.6H126.8C126.7 117.6 126.7 117.6 126.8 117.6C126.8 117.6 126.8 117.6 126.7 117.6C126.7 117.6 126.7 117.6 126.6 117.6C126.5 117.6 126.7 117.6 126.6 117.6H126.5C126.5 117.6 126.4 117.6 126.4 117.5C126.4 117.4 126.3 117.4 126.3 117.4V117.3C126.3 117.3 126.3 117.3 126.3 117.2V117.1C126.3 117.1 126.3 117.1 126.3 117V117.1C126.3 117 126.3 117 126.3 117C126.3 117 126.3 117 126.4 116.9C126.4 116.9 126.4 116.9 126.5 116.9C126.6 116.9 126.6 116.9 126.6 116.9C126.5 116.9 126.7 116.9 126.6 116.9C126.7 116.9 126.7 116.9 126.8 116.9C126.8 116.9 126.8 116.9 126.9 116.9H127C126.9 116.9 127.1 116.9 127 116.9C127 116.9 127 116.9 127.1 116.9L127.2 117C127.2 117 127.2 117 127.2 117.1C127.2 117.2 127.2 117 127.2 117.1V117.2C127.2 117.3 127.3 117.4 127.4 117.4C127.5 117.4 127.6 117.5 127.7 117.4C127.9 117.3 128 117.1 128 116.9C127.9 116.5 127.5 116.1 127.1 116.1C126.6 116 126.1 116.2 125.9 116.6C125.7 117 125.7 117.5 126 117.9C126.1 118.1 126.3 118.3 126.6 118.3C126.8 118.4 127.1 118.4 127.3 118.3C127.9 118.1 128.3 117.5 128.1 116.8C128.1 116.6 127.8 116.5 127.6 116.5C127.2 116.7 127.1 116.9 127.2 117.1Z" fill="#C23F37"/>
<path d="M121.7 117.4C121.7 117.5 121.7 117.5 121.7 117.6C121.7 117.6 121.7 117.6 121.7 117.7C121.7 117.6 121.7 117.8 121.7 117.7C121.7 117.7 121.7 117.8 121.6 117.8L121.5 117.9C121.4 118 121.6 117.9 121.5 117.9C121.5 117.9 121.5 117.9 121.4 117.9H121.3C121.2 117.9 121.2 117.9 121.3 117.9C121.3 117.9 121.3 117.9 121.2 117.9C121.2 117.9 121.2 117.9 121.1 117.9C121 117.9 121.2 117.9 121.1 117.9H121C121 117.9 120.9 117.9 120.9 117.8C120.9 117.7 120.8 117.7 120.8 117.7V117.6C120.8 117.6 120.8 117.6 120.8 117.5V117.4C120.8 117.4 120.8 117.4 120.8 117.3V117.4C120.8 117.3 120.8 117.3 120.8 117.3C120.8 117.3 120.8 117.3 120.9 117.2C120.9 117.2 120.9 117.2 121 117.2C121.1 117.2 121.1 117.2 121.1 117.2C121 117.2 121.2 117.2 121.1 117.2C121.2 117.2 121.2 117.2 121.3 117.2C121.3 117.2 121.3 117.2 121.4 117.2H121.5C121.4 117.2 121.6 117.2 121.5 117.2C121.5 117.2 121.5 117.2 121.6 117.2L121.7 117.3C121.7 117.3 121.7 117.3 121.7 117.4C121.7 117.5 121.7 117.3 121.7 117.4V117.5C121.7 117.6 121.8 117.7 121.9 117.7C122 117.7 122.1 117.8 122.2 117.7C122.4 117.6 122.5 117.4 122.5 117.2C122.4 116.8 122 116.4 121.6 116.4C121.1 116.3 120.6 116.5 120.4 116.9C120.2 117.3 120.2 117.8 120.5 118.2C120.6 118.4 120.8 118.6 121.1 118.6C121.3 118.7 121.6 118.7 121.8 118.6C122.4 118.4 122.8 117.8 122.6 117.1C122.6 116.9 122.3 116.8 122.1 116.8C121.7 117 121.6 117.1 121.7 117.4Z" fill="#C23F37"/>
<path d="M128.2 101.1C127.9 100.7 127.8 100.2 127.9 99.7C128.1 98.1 129.3 96.8 129.7 95.2C129.8 94.8 129.8 94.3 129.5 94C129.1 93.8 128.7 94.1 128.4 94.4C127.3 95.5 126.6 96.9 126.5 98.4C127.1 97 127.2 95.4 126.7 94C126.6 93.7 126.4 93.3 126 93.3C125.9 93.3 125.8 93.4 125.7 93.4C125.3 93.7 125.1 94.2 124.9 94.7C124.7 95.3 124.6 96 124.6 96.6C124.7 96 124.7 95.4 124.5 94.8C124.4 94.4 124.1 94 123.8 93.8C123.4 93.6 122.9 93.7 122.7 94C122.6 94.2 122.6 94.4 122.6 94.6C122.6 96 122.9 97.4 123.6 98.6C123.7 98.6 123.8 98.6 123.9 98.4L128.2 101.1Z" fill="#AF6137"/>
<path d="M116.3 106C114.9 107.3 112.4 106.9 111.1 105.6C109.8 104.3 109.7 102.2 109.7 100.5C109.7 100 108.9 100 109 100.5C109 102.1 109.1 103.9 109.9 105.3C110.8 106.8 112.5 107.6 114.2 107.5C115.2 107.5 116.1 107.2 116.8 106.5C117.2 106.2 116.6 105.7 116.3 106Z" fill="#54260C"/>
<path d="M116.9 124.8C116 125.9 114.8 126.6 113.4 126.8C113.2 126.8 113.1 127.1 113.1 127.3C113.2 127.5 113.4 127.6 113.6 127.6C115.1 127.4 116.5 126.6 117.4 125.4C117.5 125.2 117.6 125 117.4 124.9C117.3 124.7 117.1 124.7 116.9 124.8Z" fill="#AF6137"/>
<path d="M116.2 127.5C115.4 128.2 114.5 128.6 113.4 128.9C112.9 129 113.1 129.7 113.6 129.6C114.7 129.3 115.8 128.8 116.7 128C116.9 127.9 116.8 127.6 116.7 127.5C116.6 127.4 116.4 127.4 116.2 127.5Z" fill="#AF6137"/>
<path d="M155.9 134C156.1 134.7 156.2 135.5 156.1 136.3C156.1 136.5 156.1 136.7 156.4 136.8C156.6 136.8 156.8 136.7 156.9 136.5C157 135.6 157 134.7 156.7 133.8C156.6 133.6 156.4 133.5 156.2 133.5C155.9 133.6 155.8 133.8 155.9 134Z" fill="#AF6137"/>
<path d="M152.9 134.9C152.9 135.1 152.9 135.2 152.9 135.4C152.9 135.5 152.9 135.6 153 135.7L153.1 135.8H153.2C153.3 135.8 153.4 135.8 153.5 135.7C153.6 135.6 153.6 135.5 153.6 135.4C153.6 135.2 153.6 135.1 153.6 134.9C153.6 134.8 153.6 134.7 153.5 134.6L153.4 134.5H153.3C153.2 134.5 153.1 134.5 153 134.6C152.9 134.7 152.9 134.8 152.9 134.9Z" fill="#AF6137"/>
<path d="M150.5 134.3C150.3 134.8 150.2 135.3 150 135.8C149.9 136 150.1 136.2 150.3 136.3C150.5 136.3 150.7 136.2 150.8 136C151 135.5 151.1 135 151.3 134.5C151.4 134.3 151.2 134.1 151 134C150.7 134 150.5 134.1 150.5 134.3Z" fill="#AF6137"/>
<path d="M178.9 136.3C177.6 137.4 175.8 137.7 174.2 137.2C173.7 137.1 173.5 137.8 174 137.9C175.9 138.5 177.9 138.1 179.4 136.8C179.6 136.7 179.5 136.4 179.4 136.3C179.3 136.2 179.1 136.2 178.9 136.3Z" fill="#AF6137"/>
<path d="M131.9 120.3C132.6 121 133.3 121.8 133.6 122.7C133.9 123.4 133.9 124.4 133.4 125C132.9 125.7 131.9 125.8 131.1 125.6C130.2 125.3 129.4 124.8 128.7 124.1C128.3 123.8 128 123.4 127.7 123C127.5 122.7 127.2 122.3 127.1 121.9C127 121.6 127 121.2 127.4 121.3C127.8 121.4 128.2 121.8 128.5 122.1C129.1 122.7 129.4 123.7 129.2 124.5C129 125.3 128.4 126 127.6 126.2C126.6 126.4 125.6 125.6 125 124.8C124.4 123.9 124.1 122.8 124.1 121.7C123.9 121.8 123.7 121.9 123.5 122C124.2 122.3 124.7 123.1 124.8 123.9C124.9 124.7 124.5 125.4 123.8 125.9C123.1 126.3 122.3 126.4 121.6 125.9C120.9 125.5 120.5 124.6 120.6 123.8C120.6 123.4 120 123.3 119.9 123.7C119.7 124.2 119.2 124.7 118.6 124.7C118.1 124.7 118.1 125.5 118.6 125.4C119.5 125.3 120.3 124.7 120.6 123.8C120.4 123.8 120.1 123.7 119.9 123.7C119.8 125.4 121.2 127 122.9 126.8C124.6 126.7 125.9 125.1 125.6 123.4C125.4 122.5 124.8 121.7 124 121.3C123.7 121.2 123.5 121.3 123.4 121.6C123.3 122.8 123.7 124.1 124.4 125.1C125.1 126 126.1 126.9 127.3 126.9C128.4 126.9 129.3 126.1 129.7 125.2C130.2 124.2 130 123 129.4 122C128.9 121.3 127.6 119.9 126.7 120.7C125.9 121.4 126.7 122.7 127.1 123.4C127.8 124.4 128.7 125.3 129.8 125.8C130.8 126.3 132 126.6 133.1 126.1C134.2 125.6 134.6 124.2 134.4 123.1C134.2 121.7 133.2 120.6 132.3 119.7C132.1 119.4 131.6 119.9 131.9 120.3Z" fill="#54260C"/>
<path d="M131.3 138.7V138.8C131.3 138.8 131.3 138.8 131.3 138.9C131.3 139 131.3 139.1 131.3 139.2C131.3 139.3 131.3 139.4 131.3 139.5C131.3 139.5 131.3 139.5 131.3 139.6C131.3 139.7 131.3 139.7 131.3 139.8C131.3 139.9 131.2 140 131.2 140.1C131.2 140.2 131.1 140.2 131.1 140.3C131 140.5 130.9 140.6 130.8 140.8C130.7 140.9 130.7 141.2 130.8 141.3C130.9 141.4 131.2 141.4 131.3 141.3C132 140.6 132.3 139.5 132.1 138.4C132 138.2 131.8 138.1 131.6 138.1C131.4 138.3 131.3 138.5 131.3 138.7Z" fill="#54260C"/>
<path d="M128.2 138.5C128.2 138.6 128.3 138.6 128.3 138.6V138.7C128.3 138.7 128.3 138.7 128.3 138.8V138.9C128.3 138.9 128.3 138.9 128.3 139V139.1C128.3 139 128.3 139.2 128.3 139.1C128.3 139.1 128.3 139.1 128.3 139.2C128.3 139.2 128.3 139.3 128.2 139.3L128.1 139.4C128.1 139.4 128.1 139.4 128 139.4C128 139.4 127.9 139.4 127.9 139.5C127.8 139.5 128 139.5 127.9 139.5C127.9 139.5 127.9 139.5 127.8 139.5C127.8 139.5 127.8 139.5 127.7 139.5C127.6 139.5 127.8 139.5 127.7 139.5C127.6 139.5 127.6 139.5 127.5 139.5C127.3 139.5 127.1 139.7 127.1 139.9C127.1 140.1 127.3 140.3 127.5 140.3C128.3 140.4 129 139.5 128.9 138.7C128.9 138.4 128.8 138.2 128.6 138C128.5 137.8 128.2 137.9 128.1 138C128 138.1 128 138.3 128.2 138.5Z" fill="#54260C"/>
<path d="M124.5 137.4C124.4 137.5 124.4 137.7 124.3 137.8C124.3 137.8 124.3 137.7 124.4 137.7C124.3 137.8 124.2 137.9 124.1 138C124.1 138 124.2 138 124.2 137.9C124.1 138 123.9 138.1 123.8 138.1C123.7 138.1 123.7 138.2 123.6 138.3C123.6 138.4 123.6 138.5 123.6 138.6C123.7 138.7 123.7 138.7 123.8 138.8H123.9C124 138.8 124 138.8 124.1 138.7C124.6 138.5 125 138.1 125.2 137.6C125.2 137.5 125.3 137.4 125.2 137.3C125.2 137.2 125.1 137.1 125 137.1C124.9 137.1 124.8 137 124.7 137.1C124.7 137.3 124.6 137.3 124.5 137.4Z" fill="#54260C"/>
<path d="M185 149.9C185.1 150.9 184.6 152 183.7 152.6C183.5 152.7 183.5 152.9 183.6 153.1C183.7 153.3 183.9 153.3 184.1 153.2C185.2 152.5 185.8 151.2 185.7 149.9C185.7 149.7 185.5 149.5 185.3 149.5C185.2 149.5 185 149.7 185 149.9Z" fill="#54260C"/>
<path d="M127.1 99.2C127.3 98.7 127.3 98.1 127.1 97.5C126.9 97 126.6 96.6 126.1 96.5C125.6 96.4 125.1 96.5 124.8 96.9C124.5 97.2 124.5 97.8 124.7 98.1C124.8 98.2 125 98.3 125.2 98.3C125.4 98.2 125.5 98 125.4 97.9C125.3 97.5 125.1 97.1 124.8 96.8C124.5 96.5 124.1 96.3 123.7 96.3C123 96.4 122.4 97.5 123.2 98C123.6 98.2 124 97.6 123.6 97.4C123.5 97.4 123.5 97.4 123.6 97.4C123.6 97.4 123.6 97.4 123.6 97.3C123.6 97.3 123.6 97.3 123.7 97.2H123.8H123.9H124L124.1 97.3C124.2 97.4 124.2 97.4 124.3 97.5C124.4 97.7 124.5 98 124.6 98.2C124.8 98.1 125.1 98 125.3 97.9C125.3 97.9 125.3 97.8 125.2 97.8C125.2 97.7 125.2 97.8 125.2 97.7V97.6C125.2 97.7 125.2 97.5 125.2 97.5C125.2 97.5 125.2 97.4 125.3 97.4C125.4 97.3 125.4 97.3 125.5 97.2H125.6C125.7 97.2 125.7 97.2 125.8 97.3C126.5 97.6 126.4 98.4 126.2 99C126.2 99.5 127 99.7 127.1 99.2Z" fill="#54260C"/>
<path d="M27.3 96.2C29.6 96.3 31.9 96.4 34.2 96.5C34.1 96.3 34 96.2 33.8 96C33 98.4 33.8 100.8 34 103.2C34.2 105 34.2 107.2 32.9 108.6C32.1 109.6 30.8 109.9 29.6 110.2C29.1 110.3 29.3 111 29.8 110.9C30.9 110.7 32.1 110.3 33 109.6C33.7 109 34.2 108.1 34.5 107.1C35.1 104.9 34.7 102.7 34.3 100.5C34.1 99.1 34 97.6 34.4 96.1C34.5 95.9 34.3 95.6 34 95.6C31.7 95.5 29.4 95.4 27.1 95.3C26.8 95.4 26.8 96.1 27.3 96.2Z" fill="black"/>
<path d="M33.9 98.8C31.8 99.4 29.6 99.6 27.5 99.3C27 99.2 26.8 99.9 27.3 100C29.6 100.3 31.9 100.2 34.1 99.5C34.5 99.4 34.3 98.7 33.9 98.8Z" fill="black"/>
<path d="M48.5 94.7C49.4 96.5 49.1 98.7 47.9 100.3C46.7 101.8 44.7 102.5 42.9 102.2C42.4 102.1 42.2 102.8 42.7 102.9C44.4 103.2 46.1 102.8 47.5 101.7C48.9 100.6 49.7 99 49.8 97.2C49.8 96.2 49.6 95.2 49.2 94.3C49 93.9 48.3 94.3 48.5 94.7Z" fill="black"/>
<path d="M41.6 95.4999C42.7 98.0999 42.4 101 42.6 103.7C42.8 106.5 43.6 109.1 44.6 111.7C45.6 114.3 46.9 116.8 48 119.4C49.2 122.2 50.4 124.9 51.5 127.7C52.6 130.4 53.6 133.2 53.9 136.1C54.3 139.1 54 142.1 53.8 145.1C53.3 151.2 52.8 157.3 52.3 163.3C51.8 169.4 51.3 175.5 50.8 181.6C50.7 182.4 50.7 183.1 50.6 183.9C50.6 184.4 51.3 184.4 51.3 183.9C51.8 177.8 52.3 171.7 52.8 165.6C53.3 159.5 53.8 153.3 54.3 147.2C54.5 144.2 54.9 141.2 54.7 138.1C54.6 135.2 53.9 132.4 52.9 129.6C50.9 124.1 48.4 118.8 46 113.4C44.9 110.8 43.9 108.2 43.4 105.4C42.9 102.7 43.3 99.8999 42.8 97.0999C42.7 96.3999 42.5 95.7999 42.2 95.0999C42.1 94.8999 41.4 95.0999 41.6 95.4999Z" fill="black"/>
<path d="M57.2 185.8C53.3 186.1 49.4 186 45.5 185.4C45.1 185.3 44.9 185.7 45.1 186C47.7 188.9 52.1 187.6 55.3 189C55.3 188.8 55.2 188.5 55.2 188.3C52.1 189.8 48.4 189.7 45.3 188.2C44.9 188 44.5 188.6 44.9 188.8C48.2 190.4 52.2 190.5 55.6 188.9C55.9 188.7 55.8 188.3 55.5 188.2C53.7 187.5 51.8 187.5 49.9 187.3C48.3 187.1 46.7 186.7 45.6 185.4C45.5 185.6 45.4 185.8 45.2 186C49.1 186.6 53.1 186.7 57.1 186.4C57.7 186.5 57.7 185.7 57.2 185.8Z" fill="black"/>
<path d="M55.7 138.9C53.5 139.7 51.3 140.4 49.1 141.2C48.7 141.4 48.8 142.1 49.3 141.9C51.5 141.1 53.7 140.4 55.9 139.6C56.3 139.5 56.1 138.8 55.7 138.9Z" fill="black"/>
<path d="M55.4 143.2C53.8 143.4 52.1 143.3 50.5 142.8C50 142.7 49.8 143.4 50.3 143.5C52 144 53.8 144.1 55.6 143.9C55.8 143.9 55.9 143.6 55.9 143.4C55.8 143.2 55.6 143.2 55.4 143.2Z" fill="black"/>
<path d="M25.3 210.6C18.8 207.9 12.5 204.5 6.69999 200.5C4.99999 199.4 3.39999 198.2 1.89999 196.9C1.49999 196.6 0.999986 197.1 1.39999 197.4C7.09999 201.8 13.2 205.7 19.6 208.8C21.4 209.7 23.3 210.5 25.2 211.3C25.5 211.5 25.7 210.8 25.3 210.6Z" fill="white"/>
<path d="M2.4 193.2C3.7 194.5 4.1 196.6 3.4 198.2C3.2 198.6 3.8 199 4 198.6C4.9 196.6 4.5 194.2 2.9 192.7C2.6 192.3 2.1 192.8 2.4 193.2Z" fill="white"/>
<path d="M22.9 205.6C21.2 205.3 19.4 206.1 18.5 207.6C18.2 208 18.9 208.4 19.1 208C19.8 206.8 21.3 206.1 22.6 206.4C22.8 206.4 23 206.3 23.1 206.1C23.2 205.9 23.1 205.6 22.9 205.6Z" fill="white"/>
<path d="M10.7 194.9L10.8 195V195.1V195.2C10.8 195.3 10.8 195.3 10.8 195.4V195.5V195.6C10.8 195.7 10.8 195.7 10.7 195.8C10.7 195.8 10.7 195.8 10.7 195.9C10.7 195.9 10.7 196 10.6 196C10.6 196 10.6 196.1 10.5 196.1C10.5 196.2 10.4 196.2 10.3 196.3C10.3 196.3 10.2 196.3 10.2 196.4C10.2 196.4 10.1 196.5 10.1 196.4H10H9.90001C9.80001 196.4 9.70001 196.4 9.70001 196.4H9.60001H9.50001C9.40001 196.4 9.30001 196.4 9.30001 196.3C9.30001 196.3 9.20001 196.3 9.20001 196.2C9.20001 196.2 9.10001 196.2 9.10001 196.1C9.00001 196 8.90001 195.9 8.80001 195.8C8.80001 195.8 8.80001 195.7 8.70001 195.6V195.5C8.70001 195.5 8.70001 195.5 8.70001 195.4C8.70001 195.3 8.70001 195.2 8.70001 195.2V195.1C8.70001 195.2 8.70001 195 8.70001 195C8.70001 194.9 8.70001 194.9 8.80001 194.8C8.80001 194.8 8.80001 194.8 8.80001 194.7C8.80001 194.7 8.80001 194.6 8.90001 194.6C8.90001 194.6 8.90001 194.6 8.90001 194.5L9.00001 194.4L9.10001 194.3C9.20001 194.3 9.20001 194.2 9.30001 194.2H9.40001C9.30001 194.2 9.40001 194.2 9.50001 194.2C9.60001 194.2 9.60001 194.2 9.70001 194.2C9.60001 194.2 9.80001 194.2 9.70001 194.2H9.80001C9.90001 194.2 9.90001 194.2 10 194.2H10.1C10.2 194.2 10.2 194.2 10.3 194.3H10.4C10.5 194.3 10.5 194.4 10.6 194.4C10.6 194.4 10.7 194.4 10.7 194.5C10.7 194.7 10.7 194.7 10.7 194.9C10.8 194.8 10.7 194.7 10.7 194.9C10.8 194.9 10.8 194.9 10.9 195V195.1V195.2C10.9 195.3 10.9 195.2 10.9 195.3C10.9 195.5 11.1 195.7 11.3 195.7C11.5 195.7 11.7 195.5 11.7 195.3C11.6 194.5 11.1 193.9 10.3 193.7C9.60001 193.5 8.80001 193.6 8.30001 194.2C7.70001 194.9 7.70001 196 8.30001 196.7C8.80001 197.4 9.90001 197.5 10.6 197.1C11.5 196.6 11.8 195.4 11.3 194.6C11.1 194.1 10.5 194.4 10.7 194.9Z" fill="white"/>
<path d="M18.9 201.3C18.1 201.3 17.3 201.5 16.7 201.9C16.5 202 16.5 202.2 16.6 202.4C16.7 202.6 16.9 202.7 17.1 202.5C17.2 202.4 17.4 202.3 17.5 202.2C17.5 202.2 17.6 202.2 17.6 202.1C17.5 202.1 17.7 202.1 17.7 202.1C17.8 202.1 17.9 202 17.9 202C18 202 18.1 202 18.1 201.9H18.2C18.2 201.9 18.2 201.9 18.3 201.9C18.5 201.9 18.6 201.9 18.8 201.9C19 201.9 19.2 201.7 19.2 201.5C19.3 201.4 19.1 201.3 18.9 201.3Z" fill="white"/>
<path d="M18.2 199.3C17.5 199.6 16.9 199.9 16.2 200.2C16 200.3 16 200.6 16.1 200.7C16.2 200.9 16.4 200.9 16.6 200.8C17.3 200.5 17.9 200.2 18.6 199.9C18.8 199.8 18.8 199.5 18.7 199.4C18.6 199.3 18.4 199.2 18.2 199.3Z" fill="white"/>
<path d="M69.7 210.2C66.9 211.9 63.6 212.2 60.4 212.1C58.7 212.1 57 211.9 55.3 211.8C53.5 211.7 51.7 211.5 49.9 211.3C47.9 211 45.8 210.6 43.9 210C43.4 209.9 43.2 210.6 43.7 210.7C47.3 211.8 51 212.2 54.7 212.5C58.1 212.8 61.5 213.1 64.8 212.6C66.6 212.3 68.4 211.8 70 210.8C70.5 210.6 70.1 210 69.7 210.2Z" fill="white"/>
<path d="M43.5 206.4C43.5 206.5 43.4 206.5 43.4 206.5C43.4 206.5 43.4 206.5 43.5 206.5C43.6 206.5 43.7 206.6 43.8 206.7C44 206.8 44.2 207 44.4 207.1C44.8 207.4 45.1 207.8 45.4 208.2C46 209 46.4 209.9 46.7 210.8C46.8 211.3 47.5 211.1 47.4 210.6C47.1 209.4 46.5 208.3 45.6 207.4C45.2 206.9 44.7 206.5 44.2 206.2C44 206 43.7 205.9 43.4 205.8C43.1 205.8 42.8 205.9 42.7 206.2C42.7 206.6 43.4 206.8 43.5 206.4Z" fill="white"/>
<path d="M66.2 208.1C64.5 208.8 63.1 210.1 62.5 211.8C62.4 212 62.6 212.2 62.8 212.3C63 212.4 63.2 212.2 63.3 212C63.9 210.6 65.1 209.4 66.5 208.8C66.7 208.7 66.8 208.6 66.8 208.3C66.6 208.2 66.4 208.1 66.2 208.1Z" fill="white"/>
<path d="M60.3 204.7C59.6 205.4 58.9 206.1 58.1 206.8C58 206.9 58 207.2 58.1 207.3C58.3 207.4 58.5 207.4 58.6 207.3C59.3 206.6 60 205.9 60.8 205.2C60.9 205.1 60.9 204.8 60.8 204.7C60.7 204.5 60.5 204.5 60.3 204.7Z" fill="white"/>
<path d="M58.8 203.9C58.3 204.4 57.7 204.9 57.2 205.4C57.1 205.5 57.1 205.8 57.2 205.9C57.4 206 57.6 206 57.7 205.9C58.2 205.4 58.8 204.9 59.3 204.4C59.4 204.3 59.4 204 59.3 203.9C59.2 203.8 59 203.8 58.8 203.9Z" fill="white"/>
<path d="M50.3 202.8C49 201.6 46.5 202.5 46.5 204.4C46.5 205.4 47.2 206.3 48.1 206.6C49 206.9 49.9 206.6 50.5 205.9C51.1 205.2 51.2 204 50.7 203.2C50.6 203 50.4 203 50.2 203.1C50 203.2 50 203.4 50.1 203.6C50.4 204.1 50.4 204.7 50.1 205.2C50 205.5 49.8 205.7 49.5 205.8C49.3 205.9 48.9 206 48.7 206C48 205.9 47.5 205.3 47.4 204.7C47.3 204.1 47.6 203.6 48.1 203.3C48.2 203.2 48.2 203.2 48.3 203.2C48.4 203.2 48.5 203.1 48.6 203.1C48.8 203.1 48.9 203.1 49.1 203.1C49.2 203.1 49.4 203.1 49.6 203.2C49.7 203.2 49.9 203.4 50 203.4C50.2 203.6 50.7 203.1 50.3 202.8Z" fill="white"/>
</g>
<defs>
<clipPath id="clip0_209_847">
<rect width="212.1" height="214.9" fill="white"/>
</clipPath>
</defs>
</svg>
