<svg width="203" height="289" viewBox="0 0 203 289" fill="none" xmlns="http://www.w3.org/2000/svg">
<path d="M51.6977 266.116L22.8515 249.458C20.8201 248.239 21.2264 246.411 23.4609 244.989L87.2475 208.22C89.4821 207.002 92.9355 206.798 94.9669 207.814L123.813 224.472C125.844 225.691 125.438 227.519 123.204 228.941L59.417 265.71C56.9793 267.132 53.5259 267.335 51.6977 266.116Z" fill="#F2E8DF"/>
<path d="M188.615 267.132C170.129 277.898 139.861 277.695 121.172 266.928C102.483 256.162 102.483 238.692 120.969 227.925C139.455 217.159 169.723 217.362 188.412 228.128C207.101 238.895 207.304 256.365 188.615 267.132Z" fill="#F2E8DF"/>
<path d="M82.7784 195.219C83.3878 195.829 83.7941 196.641 84.2004 197.251C84.4035 197.86 84.4035 198.469 84.4035 199.079C84.6066 202.532 84.8098 205.783 85.0129 209.236C85.2161 211.877 85.2161 214.518 84.2004 216.752C83.3878 218.377 82.1689 219.799 81.5595 221.425C80.9501 222.847 80.9501 224.472 81.3564 225.894C81.3564 225.894 81.3564 226.097 81.5595 226.097C81.7626 226.097 81.7627 225.894 81.9658 225.894C81.9658 225.894 81.7626 227.112 81.7626 227.316C82.5752 227.519 83.5909 227.316 84.2004 226.706C84.2004 226.909 84.2004 227.112 83.9972 227.316C85.6224 226.706 87.0443 226.097 88.2632 224.878C89.0758 224.268 89.8883 223.253 90.4978 222.44C90.904 221.831 91.1072 221.018 91.1072 220.409C91.1072 219.596 90.904 218.987 90.4978 218.174C89.8883 216.549 90.0915 214.721 90.2946 213.096C91.1072 207.611 91.9197 202.329 92.326 196.844C92.5292 195.219 92.5292 193.797 92.5292 192.172C92.5292 190.953 92.326 189.734 92.326 188.516C92.326 186.484 93.3417 184.453 93.9512 182.421C95.3732 178.562 96.1857 174.702 95.7794 170.639C95.5763 167.389 94.1543 164.342 90.2946 164.545C88.4663 164.545 86.8412 165.357 85.4192 166.373C78.3092 171.452 75.2621 181.609 79.1218 189.531C80.3407 191.563 81.5595 193.391 82.7784 195.219Z" fill="#1A1A1A"/>
<path d="M41.5404 207.611C41.3373 211.877 41.7436 216.346 41.9467 220.612C42.353 226.503 42.353 232.394 42.1499 238.285C42.1499 238.895 42.1499 239.301 41.9467 239.911C41.5404 240.52 40.931 240.926 40.3216 241.536C39.1027 242.551 38.2902 243.77 38.087 245.192C38.087 245.802 37.8839 247.02 38.6964 247.02C38.6964 247.427 38.6964 248.036 38.6964 248.646C39.9153 248.646 40.931 248.442 41.9467 248.036C41.9467 248.239 41.9467 248.442 41.7436 248.442C43.3687 248.442 45.197 248.239 46.8221 247.63C49.0567 246.817 50.885 244.583 50.885 242.145C50.885 240.723 50.2755 239.504 50.0724 238.285C49.8693 237.067 50.0724 236.051 50.0724 234.832C50.885 227.519 51.6975 220.003 54.5415 213.096C56.1667 208.83 58.6044 204.97 60.2295 200.501C60.8389 198.673 61.4483 196.438 60.4326 194.61C59.2138 192.172 56.1667 191.36 53.5258 190.953C51.6975 190.75 49.8693 190.547 48.041 190.953C42.5561 192.985 41.7436 202.736 41.5404 207.611Z" fill="#1A1A1A"/>
<path d="M104.718 149.309C109.39 143.418 115.484 138.746 122.391 135.699C126.251 134.074 130.111 132.855 134.377 132.855C138.439 132.855 142.705 134.074 145.752 136.714C145.346 136.308 143.112 138.34 142.705 138.746C141.893 139.762 141.283 140.98 141.283 142.199C141.08 144.637 141.487 147.481 138.846 148.903C138.846 149.106 138.643 148.903 138.846 149.106C138.846 149.716 138.846 150.325 138.846 150.934C138.846 151.95 138.846 153.169 138.643 154.185C138.236 155.2 137.424 156.216 136.408 156.216C136.611 154.388 136.205 152.356 134.783 151.341C133.158 150.122 130.923 150.731 128.892 151.341C129.095 153.169 129.501 155.2 129.704 157.029C126.86 156.622 124.016 156.419 121.172 156.013C119.953 155.81 118.531 155.81 117.516 156.419C116.703 157.029 116.094 158.044 115.484 158.857C113.25 162.31 105.937 167.389 101.468 166.17C94.3576 164.139 102.483 152.356 104.718 149.309Z" fill="#424242"/>
<path d="M107.562 182.015C106.546 184.046 105.124 186.078 103.499 187.703C101.467 189.734 100.045 190.75 97.4046 191.766C94.7638 192.782 92.123 193.797 90.0915 195.829C86.435 199.282 84.8098 203.954 81.9659 208.22C81.5596 209.033 80.9501 209.642 80.3407 210.252C75.4653 215.94 68.3553 219.393 61.0422 221.221C58.4014 221.831 55.5574 222.44 52.7134 222.44C50.0726 222.643 47.2286 222.44 44.5877 221.628C41.1343 220.815 37.8841 219.19 35.4464 216.752C34.0244 215.533 33.2118 213.908 32.1961 212.486C31.1804 211.268 30.1647 210.252 29.3521 208.83C28.7427 207.814 28.1332 206.595 28.7427 205.58C29.3521 204.361 30.3678 203.142 30.9772 201.923C31.1804 201.314 31.5867 200.907 31.7898 200.298C34.0244 195.829 35.8526 191.156 38.8998 186.89C42.15 182.421 46.2129 178.765 50.4789 175.311C52.3071 173.889 54.1354 172.467 55.9637 171.249C57.3857 170.233 59.0108 169.217 60.4328 168.201C66.5271 164.342 73.0276 160.888 79.7313 158.451C84.2004 156.825 89.0758 155.2 93.9512 155.403C98.4203 155.607 104.108 157.841 106.749 161.498C108.171 163.529 109.187 165.764 109.593 168.201C110.812 172.874 109.593 177.749 107.562 182.015Z" fill="#262626"/>
<path d="M82.7784 199.892C82.7784 202.532 82.5753 205.376 81.9658 208.017C81.5595 208.83 80.9501 209.439 80.3407 210.049C75.4653 215.737 68.3553 219.19 61.0422 221.018C58.4014 221.628 55.5574 222.237 52.7134 222.237C52.5102 221.425 52.3071 220.409 52.3071 219.596C52.104 217.159 52.5102 215.737 51.2914 213.502C48.8537 209.642 44.994 207.002 41.5406 204.361C38.4934 202.126 35.8526 200.095 32.196 200.095C34.4306 195.626 36.2589 190.953 39.306 186.687C42.5563 182.218 46.6191 178.562 50.8851 175.108C52.7134 173.686 54.5417 172.264 56.3699 171.045C58.1982 170.233 60.4328 170.842 62.261 171.452C69.5742 173.686 75.4653 179.374 79.1218 186.078C81.1533 190.547 82.5752 195.219 82.7784 199.892Z" fill="#FF903D"/>
<path d="M52.1038 190.953L45.8064 187.297L47.4315 184.656C48.4472 183.031 50.6818 182.421 52.3069 183.437L52.7132 183.64C53.5258 184.046 54.1352 184.859 54.3384 185.672C54.5415 186.687 54.3384 187.5 53.9321 188.312L52.1038 190.953ZM47.8378 186.89L51.6975 189.125L52.7132 187.703C53.1195 187.297 53.1195 186.687 52.9164 186.078C52.7132 185.672 52.5101 185.265 52.1038 184.859L51.6975 184.656C50.6818 184.046 49.463 184.453 48.8535 185.468L47.8378 186.89Z" fill="#338259"/>
<path d="M73.6368 207.205C73.2306 205.376 72.6211 203.548 71.4023 202.126C69.574 200.298 66.3237 199.891 63.886 200.907C61.4483 201.923 59.6201 204.361 58.6043 206.798C57.1824 210.252 57.3855 214.111 58.1981 217.565C59.0106 221.221 60.6358 224.472 61.8546 227.925C61.8546 228.738 61.8546 229.55 61.8546 230.363C61.6515 231.378 61.6515 232.394 61.4483 233.41C61.2452 235.441 60.8389 237.676 60.6358 239.707C60.2295 242.958 60.6358 246.411 57.9949 248.646C56.7761 249.661 55.9635 250.88 55.7604 252.302C55.7604 252.911 55.5572 254.13 56.3698 254.13C56.3698 254.537 56.3698 255.146 56.3698 255.755C57.5886 255.755 58.6044 255.552 59.6201 255.146C59.6201 255.349 59.6201 255.552 59.4169 255.552C61.042 255.552 62.8703 255.349 64.4955 254.74C66.73 253.927 68.5583 251.693 68.5583 249.255C68.5583 246.411 66.9332 243.567 67.7457 240.926C68.7615 237.676 70.1834 234.426 71.8086 231.378C73.6369 227.925 73.84 223.862 74.4494 220.003C74.8557 215.737 74.6526 211.471 73.6368 207.205Z" fill="#424242"/>
<path d="M37.0714 192.781C37.4777 192.985 37.6808 193.188 38.0871 193.391C38.4934 193.594 40.9311 194.813 40.1185 195.422C42.15 193.594 42.5562 194.813 43.3688 196.844C48.4474 196.844 53.3228 198.876 57.1825 202.329C56.573 202.329 55.7605 202.532 55.3542 202.735C57.7919 205.986 60.6359 209.439 60.839 213.502C51.9008 214.315 42.9625 212.08 33.8211 211.674C34.2274 211.674 34.8368 208.423 34.8368 208.017C35.04 207.205 35.04 205.986 34.6337 205.173C33.618 203.548 30.9772 204.157 31.3834 201.517C31.7897 197.251 34.0243 193.594 36.0557 189.938C35.8526 191.156 36.2588 192.172 37.0714 192.781Z" fill="#1A1A1A"/>
<path d="M98.0139 200.704C98.6234 201.314 99.0297 202.126 99.436 202.735C99.6391 203.345 99.6391 203.954 99.6391 204.564C99.8422 208.017 100.045 211.267 100.249 214.721C100.452 217.362 100.452 220.003 99.436 222.237C98.6234 223.862 97.4045 225.284 96.7951 226.909C96.1857 228.331 96.1857 229.957 96.592 231.379C96.592 231.379 96.592 231.582 96.7951 231.582C96.9982 231.582 96.9983 231.379 97.2014 231.379C97.2014 231.379 96.9982 232.597 96.9982 232.8C97.8108 233.004 98.8265 232.801 99.436 232.191C99.436 232.394 99.436 232.597 99.2328 232.8C100.858 232.191 102.28 231.582 103.499 230.363C104.311 229.753 105.124 228.738 105.733 227.925C106.14 227.316 106.343 226.503 106.343 225.894C106.343 225.081 106.14 224.472 105.733 223.659C105.124 222.034 105.327 220.206 105.53 218.581C106.343 213.096 107.155 207.814 107.562 202.329C107.765 200.704 107.765 199.282 107.765 197.657C107.765 196.438 107.562 195.219 107.562 194C107.562 191.969 108.577 189.938 109.187 187.906C110.609 184.046 111.421 180.187 111.015 176.124C110.812 172.874 109.39 169.826 105.53 170.03C103.702 170.03 102.077 170.842 100.655 171.858C93.5448 176.936 90.4977 187.094 94.3574 195.016C95.3731 197.048 96.592 198.876 98.0139 200.704Z" fill="#424242"/>
<path d="M26.7111 203.548C25.8986 203.548 24.8829 203.548 24.0703 203.751C23.0546 204.158 22.4452 205.173 21.8357 206.189C20.6169 208.83 20.4137 211.877 21.2263 214.721C22.6483 212.283 24.2734 209.845 26.7111 208.424C27.5237 207.814 28.5394 207.408 29.1488 206.798C29.7583 206.189 30.5708 204.97 29.9614 204.158C29.352 203.548 27.5237 203.548 26.7111 203.548Z" fill="#1A1A1A"/>
<path d="M30.1646 237.879C32.196 236.66 34.0243 235.035 35.8525 233.613C38.6965 231.175 41.3374 228.738 43.9782 226.097C44.9939 224.878 46.2128 223.862 47.0253 222.44C47.6348 221.425 48.041 220.409 48.041 219.393C48.041 218.784 48.041 218.377 48.041 217.768C48.041 217.159 48.2442 216.549 48.2442 215.94C48.2442 212.486 46.2128 209.236 43.5719 207.001C41.1342 205.173 38.2902 203.751 35.2431 203.548C32.196 203.345 29.1488 203.954 26.7111 205.783C25.4923 206.595 24.4766 207.814 23.4609 208.83C22.242 210.455 21.0232 212.08 20.4137 214.111C20.0075 215.533 19.6012 217.159 20.0075 218.581C20.4137 220.003 20.4137 221.628 19.8043 222.847C19.6012 223.659 18.9917 224.269 18.5855 225.081C17.5698 226.706 16.7572 228.128 15.5383 229.55C15.1321 230.16 14.5226 230.972 14.1163 231.785C13.7101 232.597 13.5069 233.41 13.7101 234.223C13.7101 234.629 13.9132 235.035 14.1163 235.441C14.7258 236.863 14.9289 238.488 16.554 239.301C16.9603 239.504 17.5698 239.707 17.976 239.91C18.5855 240.114 18.9917 240.317 19.6012 240.52C21.4295 240.926 23.4609 240.723 25.086 240.114C27.1174 239.504 28.7426 238.692 30.1646 237.879Z" fill="#424242"/>
<path d="M17.9761 237.676C20.4138 238.692 23.2578 238.285 25.6955 237.066C28.1332 235.848 29.9615 234.019 31.7897 232.191C32.196 231.785 32.6023 231.175 33.2117 230.972C33.4149 231.378 33.2117 231.785 33.0086 232.191C32.196 233.613 30.9772 234.629 29.7583 235.644C28.7426 236.457 27.7269 237.27 26.508 238.082C25.2892 238.692 24.0703 239.301 22.6483 239.301C20.8201 239.301 18.9918 238.692 17.3667 238.082C17.1635 238.082 16.9604 237.879 16.7572 237.879C16.5541 237.879 16.5541 237.879 16.3509 237.879C15.9447 237.879 15.5384 237.473 15.3352 237.27C15.1321 236.863 14.929 236.457 14.929 236.051C15.1321 236.254 15.3352 236.457 15.7415 236.457C15.9447 236.457 16.1478 236.254 16.5541 236.457C16.7572 236.457 16.9604 236.863 17.1635 237.066C17.1635 237.473 17.5698 237.676 17.9761 237.676Z" fill="#1A1A1A"/>
<path d="M40.1185 210.861C39.509 212.486 39.3059 214.315 39.509 215.94C39.7122 218.784 40.3216 221.628 41.1342 224.472C41.5405 225.894 41.9467 227.519 42.7593 228.941C43.5719 230.363 44.9939 231.379 46.4159 231.582C46.8221 231.582 47.2284 231.582 47.6347 231.582C48.2441 231.379 48.6504 230.769 48.6504 230.16C48.8536 229.55 48.8536 228.941 48.8536 228.331C49.2598 225.487 51.9007 223.05 54.7447 222.847C54.9478 222.847 55.151 222.847 55.3541 222.643C55.5573 222.643 55.5573 222.44 55.7604 222.237C56.3698 221.221 56.573 219.799 56.3698 218.581C56.1667 217.362 55.7604 216.143 54.9478 215.127C53.9321 213.299 52.5101 211.877 50.885 210.658C49.8693 209.845 48.8536 209.236 47.8379 208.83C46.619 208.22 45.197 207.408 43.5719 207.611C42.1499 207.814 40.931 209.236 40.1185 210.861Z" fill="#5C5C5C"/>
<path d="M30.5708 220.409C30.1645 220.409 29.7582 220.612 29.3519 220.612C28.9457 220.815 28.3362 221.222 28.5394 221.628C28.7425 222.034 29.3519 222.237 29.7582 222.237C30.9771 222.44 32.1959 222.44 33.4148 221.831C33.8211 221.628 33.4148 221.018 33.2116 220.815C33.0085 220.612 32.8054 220.612 32.3991 220.409C31.9928 220.409 31.1802 220.409 30.5708 220.409Z" fill="#1A1A1A"/>
<path d="M20.8202 220.003L21.0233 220.206H21.2265C21.2265 220.206 21.4296 220.003 21.4296 219.799C21.4296 219.19 21.4296 218.581 21.0233 218.174C20.8202 217.971 20.617 217.768 20.4139 217.768C19.8045 217.768 20.0076 218.581 20.0076 218.784C20.2107 219.19 20.617 219.596 20.8202 220.003Z" fill="#1A1A1A"/>
<path d="M13.9132 233.816C14.1164 234.019 14.3195 234.222 14.3195 234.426C14.5227 234.629 14.5227 235.035 14.7258 235.238C14.9289 235.644 16.1478 237.473 16.5541 236.66C16.5541 236.457 16.5541 236.254 16.5541 236.051C16.5541 235.848 16.3509 235.644 16.5541 235.441C16.7572 235.238 17.1635 235.238 17.5698 235.441C17.9761 235.644 18.3824 235.644 18.5855 235.441C18.5855 235.238 18.7886 235.238 18.7886 235.035C18.9918 233.41 17.7729 231.988 16.1478 231.785C15.9447 231.785 15.9447 231.785 15.7415 231.785C15.5384 231.785 15.5384 231.582 15.3352 231.378C14.7258 230.769 13.9132 231.378 13.7101 232.191C13.507 232.394 13.507 233.207 13.9132 233.816Z" fill="#1A1A1A"/>
<path d="M25.2892 210.049C25.0861 210.861 25.2892 211.877 25.0861 212.69C24.8829 214.315 24.4766 215.94 24.0703 217.565C23.8672 218.174 23.6641 218.581 23.6641 219.19V219.393C23.6641 219.596 23.8672 219.393 24.0703 219.393C25.0861 218.378 25.2892 217.159 25.4923 215.737C26.1018 213.908 27.1175 212.08 28.5395 210.861C29.1489 210.252 29.9615 209.642 30.774 209.439C31.9929 209.033 33.2117 208.83 34.2274 208.424C34.8369 208.22 35.4463 208.017 35.8526 207.611C36.0557 207.408 36.462 207.002 36.462 206.798C36.462 206.392 36.2589 206.189 36.0557 205.986C35.8526 205.783 35.4463 205.783 35.2432 205.783C34.4306 205.783 33.618 205.986 32.8054 206.392C32.196 206.595 30.9772 206.798 30.5709 206.392C30.5709 206.189 30.3678 206.189 30.3678 205.986C30.1646 205.783 29.7583 205.783 29.5552 205.783C28.9458 205.783 28.3363 206.189 27.93 206.392C26.9143 207.002 25.8986 207.814 25.4923 209.033C25.4923 209.033 25.2892 209.439 25.2892 210.049Z" fill="#262626"/>
<path d="M35.4463 220.409C35.04 219.393 34.4305 218.581 33.4148 217.971C32.8054 217.768 32.196 217.565 31.5866 217.362C30.3677 217.159 28.9457 217.159 27.7269 217.565C27.3206 217.768 26.7112 217.971 26.508 218.581C26.508 218.784 26.3049 218.784 26.508 218.987H26.7111C27.5237 219.19 28.3363 218.987 28.9457 219.393C28.7426 219.596 28.7426 219.596 28.5394 219.596C29.7583 219.393 30.9771 219.19 32.196 219.393C33.0086 219.596 34.4305 219.799 35.4463 220.409Z" fill="#262626"/>
<path d="M20.0075 215.737C20.0075 215.737 20.0075 215.94 20.2107 215.94L20.4138 216.143C20.4138 216.346 20.2107 216.346 20.0075 216.549C19.8044 216.955 20.8201 217.159 20.8201 217.362C21.0232 217.565 21.2264 217.565 21.4295 217.768C21.6327 217.971 21.6327 218.174 21.8358 218.174H22.0389C22.0389 218.174 22.2421 218.174 22.2421 217.971V217.768C22.4452 217.159 21.8358 216.346 21.2264 215.94C20.8201 215.737 20.4138 215.737 20.0075 215.737Z" fill="#262626"/>
<path d="M30.9771 222.44C31.5381 222.44 31.9928 221.986 31.9928 221.425C31.9928 220.864 31.5381 220.409 30.9771 220.409C30.4162 220.409 29.9614 220.864 29.9614 221.425C29.9614 221.986 30.4162 222.44 30.9771 222.44Z" fill="#FF9000"/>
<path d="M30.9771 222.034C31.3137 222.034 31.5865 221.761 31.5865 221.425C31.5865 221.088 31.3137 220.815 30.9771 220.815C30.6405 220.815 30.3677 221.088 30.3677 221.425C30.3677 221.761 30.6405 222.034 30.9771 222.034Z" fill="#424242"/>
<path d="M30.5708 221.628C30.7952 221.628 30.9771 221.446 30.9771 221.221C30.9771 220.997 30.7952 220.815 30.5708 220.815C30.3465 220.815 30.1646 220.997 30.1646 221.221C30.1646 221.446 30.3465 221.628 30.5708 221.628Z" fill="white"/>
<path d="M21.4294 218.581C21.6326 218.987 21.4294 219.393 21.2263 219.393C21.0232 219.393 20.6169 219.19 20.4137 218.784C20.2106 218.377 20.4137 217.971 20.6169 217.971C20.82 217.971 21.2263 218.174 21.4294 218.581Z" fill="#FF9000"/>
<path d="M21.0232 218.581C21.0232 218.784 21.0232 218.987 20.8201 218.987C20.617 218.987 20.617 218.784 20.4138 218.784C20.4138 218.581 20.4138 218.377 20.617 218.377C20.8201 218.377 21.0232 218.581 21.0232 218.581Z" fill="#1A1A1A"/>
<path d="M20.8201 218.377C20.8201 218.581 20.8201 218.581 20.8201 218.581C20.8201 218.581 20.6169 218.581 20.6169 218.377C20.6169 218.174 20.6169 218.174 20.6169 218.174C20.8201 218.174 20.8201 218.174 20.8201 218.377Z" fill="white"/>
<path d="M22.6484 223.253C21.6327 225.691 20.617 228.128 18.9919 229.956C18.5856 230.566 17.9762 230.972 17.3667 231.378C17.1636 231.378 17.1636 231.582 16.9605 231.378C16.7573 231.175 16.7573 230.972 16.7573 230.566C17.9762 227.113 20.2107 224.269 22.2422 221.221C22.6484 220.612 23.0547 220.003 23.2579 219.393C23.6642 217.768 22.8516 215.533 22.039 214.111C21.8359 213.908 21.8359 213.705 21.6327 213.502C21.6327 212.893 22.2422 212.689 22.8516 212.893C23.2579 213.096 23.6641 213.705 23.6641 214.111C23.8673 214.721 23.8673 215.127 24.0704 215.737C24.0704 215.94 24.2736 215.94 24.2736 216.143C24.6799 216.346 25.0861 216.143 25.2893 215.94C26.7113 214.924 28.3364 214.518 29.9615 214.315C30.1647 214.315 30.3678 214.315 30.7741 214.315C30.9773 214.315 31.1804 214.721 30.9773 214.924C30.7741 215.533 29.3521 215.737 28.7427 215.737C27.727 215.94 26.9144 216.346 26.1018 216.955C25.4924 217.565 24.883 218.174 24.4767 218.987C23.8673 220.409 23.2579 221.831 22.6484 223.253Z" fill="#5C5C5C"/>
<path d="M127.266 46.7227C126.048 48.9572 124.829 51.1918 123.813 53.4264C121.375 58.7081 119.141 63.9898 116.906 69.4746C116.906 69.6777 116.703 70.084 116.703 70.2871C116.703 70.6934 116.906 70.8966 116.906 71.3029C118.125 73.7406 120.969 74.9594 123.61 75.5688C127.47 76.3814 131.329 76.3814 135.189 75.5688C134.58 67.8494 135.189 59.9269 137.017 52.4107C137.627 49.5667 138.439 46.5195 138.642 43.6756C138.642 42.4567 138.642 41.441 138.236 40.4253C138.033 40.019 138.033 39.4096 138.033 38.8002C138.033 38.3939 138.439 37.5813 138.846 37.5813C137.017 37.5813 135.189 38.1907 133.767 39.2064C132.345 40.019 131.126 41.441 130.11 42.6598C129.298 43.8787 128.282 45.3007 127.266 46.7227Z" fill="#F2F2F2"/>
<path d="M94.3575 127.37L90.4978 125.135C91.3104 126.557 91.1072 128.386 90.2947 129.605C90.0915 129.808 89.8884 130.011 89.6852 130.214C89.0758 130.62 88.2632 130.62 87.6538 130.214L91.5135 132.449C92.1229 132.855 92.9355 132.855 93.5449 132.449C93.7481 132.245 93.9512 132.042 94.1544 131.839C94.9669 130.62 95.1701 128.792 94.3575 127.37Z" fill="#FFA645"/>
<path d="M92.1229 128.182L88.2632 125.948C88.0601 125.948 88.0601 125.745 88.0601 125.745C87.857 125.542 87.8569 125.135 87.8569 124.526C87.8569 124.323 87.857 124.12 87.6538 123.917L91.5135 126.151C91.7167 126.151 91.7166 126.354 91.7166 126.76C91.7166 127.167 91.7166 127.573 91.9198 127.979C91.9198 128.182 91.9198 128.182 92.1229 128.182Z" fill="#FF921C"/>
<path d="M80.9502 139.965L77.0905 137.73C76.6842 137.527 76.481 137.324 76.2779 136.918C75.6685 135.902 75.4653 134.277 76.0748 132.652C76.6842 131.027 77.903 128.995 78.9187 127.573C79.7313 126.557 80.3407 125.745 81.1533 125.135C82.169 124.12 83.1847 123.51 84.2004 122.901C85.4193 122.291 86.6381 121.682 87.857 121.479C88.8727 121.276 89.8884 121.479 90.701 121.885L94.5607 124.12C93.7481 123.713 92.7324 123.51 91.7167 123.713C90.4978 123.917 89.279 124.323 88.0601 125.135C87.0444 125.745 86.0287 126.557 85.013 127.37C84.2004 128.183 83.3879 128.995 82.7784 129.808C81.7627 131.23 80.5439 133.261 79.9345 134.886C79.325 136.511 79.5282 138.137 80.1376 139.152C80.3407 139.558 80.747 139.965 80.9502 139.965Z" fill="#FFA645"/>
<path d="M96.7951 128.183C96.7951 128.995 96.592 129.808 96.1857 130.62C95.9826 131.027 95.7794 131.433 95.3732 131.839C94.5606 132.855 93.5449 133.667 92.7323 134.277C92.326 134.48 91.9197 134.683 91.3103 134.886C90.2946 135.292 89.0758 135.699 88.0601 136.308C87.8569 136.511 87.4506 136.714 87.2475 136.918C86.0286 137.933 84.6066 139.152 83.3878 139.965C83.1846 140.168 82.7784 140.371 82.5752 140.371C81.5595 140.574 80.7469 140.168 80.1375 139.355C79.5281 138.34 79.325 136.714 79.9344 135.089C80.5438 133.464 81.7626 131.433 82.7784 130.011C83.5909 128.995 84.2004 128.183 85.0129 127.573C86.0286 126.557 87.0443 125.948 88.0601 125.339C89.2789 124.729 90.4977 124.12 91.7166 123.917C94.5606 123.307 96.592 124.932 96.7951 128.183ZM94.1543 131.839C94.9669 130.62 95.17 128.792 94.3575 127.37H94.1543C94.1543 127.37 93.9512 127.37 93.9512 127.573C93.748 127.776 93.5449 127.979 93.3417 128.183C92.7323 128.589 92.326 128.386 91.9197 127.979C91.5135 127.776 91.5135 127.37 91.5135 126.964C91.5135 126.354 91.1072 126.151 90.7009 126.354C90.4977 126.354 90.4978 126.557 90.2946 126.761C89.482 127.979 89.482 130.011 90.4978 131.433C91.3103 132.652 92.5292 132.855 93.5449 132.245C93.748 132.245 93.9512 132.042 94.1543 131.839Z" fill="#FF6D00"/>
<path d="M130.314 71.9122C130.11 71.0996 129.704 70.287 129.298 69.6776C127.673 67.6462 125.032 66.6305 122.391 66.8336C120.36 66.8336 119.344 67.8493 118.531 69.4745C117.516 71.0996 116.5 72.9279 115.484 74.553C114.672 75.975 113.656 77.8033 112.437 78.819C109.796 81.0535 107.765 83.8975 106.14 86.9447C104.108 90.8044 102.483 94.6641 100.655 98.7269C99.2328 101.571 97.8108 104.415 96.3889 107.259C95.3731 109.087 94.5606 110.915 93.5449 112.744C93.1386 113.556 92.5291 114.369 91.9197 114.978C91.7166 115.385 91.5134 115.791 91.1072 115.994C90.7009 116.4 90.4977 116.603 90.0915 117.01C89.6852 117.213 89.2789 117.619 88.8726 117.822C88.2632 118.025 87.8569 118.229 87.2475 118.432C86.2318 118.838 85.216 119.447 84.4035 120.463C83.794 121.072 83.3878 121.885 82.9815 122.698C82.7783 123.104 82.5752 123.713 82.5752 124.12C82.7783 124.12 82.7783 123.916 82.9815 123.713C83.3878 123.307 83.7941 123.104 84.2003 122.901C84.6066 122.698 85.216 122.494 85.6223 122.088C86.0286 121.885 86.4349 121.682 86.8412 121.885C87.0443 121.885 87.2475 122.088 87.2475 122.291C87.6537 122.698 88.06 123.307 88.4663 123.713C88.6695 123.916 89.0757 124.323 89.2789 124.729C89.482 125.338 89.8883 125.948 89.8883 126.557C89.8883 127.167 89.482 127.979 89.482 128.589C89.482 128.995 89.482 129.198 89.6852 129.604C89.8883 130.011 89.8883 130.417 90.0915 131.026C90.0915 131.23 90.2946 131.433 90.2946 131.636C90.7009 132.245 91.9197 131.839 92.5292 131.433C92.9354 131.23 93.1386 130.823 93.3417 130.417C94.1543 129.401 94.7637 128.386 95.3731 127.167C96.7951 124.323 96.7951 120.869 98.014 118.025C99.0297 115.791 100.249 113.353 102.28 111.728C104.311 109.697 106.343 107.665 108.171 105.634C113.046 100.149 117.922 94.6641 121.375 88.3667C121.985 87.5541 122.391 86.5384 122.797 85.5227C124.626 83.085 128.079 76.1781 128.688 75.3656C129.095 74.7561 129.907 73.9436 130.314 73.131C130.517 72.9279 130.517 72.3184 130.314 71.9122Z" fill="#663C33"/>
<path d="M123.813 237.067C123.407 237.879 123.001 238.895 122.798 239.911C122.188 242.348 122.594 245.395 125.032 246.411C126.251 247.021 127.876 247.021 129.298 246.614C132.955 245.802 136.205 243.567 138.439 240.723C139.658 239.301 140.674 237.473 142.299 236.457C144.331 235.035 146.768 234.629 148.597 233.004C150.222 231.785 151.237 229.957 151.441 227.925C151.847 225.894 151.441 223.862 150.628 222.034C150.222 221.018 149.612 220.003 148.8 219.393C149.003 219.393 147.378 220.612 147.175 220.612C146.565 221.018 146.159 220.815 145.346 220.409C144.127 219.8 142.705 219.393 141.487 219.393C140.674 219.393 139.658 219.596 139.049 220.206C138.439 220.612 138.439 221.222 138.033 221.831C137.627 222.644 136.814 223.05 136.408 223.659C135.799 224.269 135.189 224.878 134.58 225.488C131.939 227.722 129.298 229.957 126.86 232.394C125.845 234.02 124.626 235.442 123.813 237.067Z" fill="#262626"/>
<path d="M151.644 176.53C151.644 176.327 151.644 176.124 151.644 175.921C151.441 172.264 152.05 168.405 152.05 164.545C152.253 156.013 152.05 147.481 151.034 138.949C150.425 133.667 149.612 128.386 147.784 123.307C146.362 119.447 144.737 115.588 142.096 112.337C139.252 108.884 134.58 108.275 133.361 103.602C131.736 108.681 130.923 113.963 130.517 119.447C130.111 123.916 129.907 128.386 129.907 132.855C129.907 138.543 130.314 144.231 131.126 149.919C132.548 160.076 134.986 170.233 135.799 180.593C135.799 180.999 135.799 181.203 136.002 181.609C136.002 182.218 136.002 183.031 135.799 183.64C135.595 188.109 135.595 192.578 136.002 196.844C136.611 201.923 137.017 207.002 137.221 212.08C137.424 214.721 137.424 217.362 137.424 219.799C137.424 222.44 137.627 223.659 140.471 224.472C143.518 225.081 146.768 224.675 149.612 223.253C149.815 223.05 150.222 222.847 150.425 222.643C150.628 222.44 150.628 222.034 150.628 221.628C151.644 210.252 153.878 198.876 152.862 187.703C152.456 184.25 151.847 180.39 151.644 176.53Z" fill="#338259"/>
<path d="M160.785 258.193C160.582 258.803 160.175 259.615 159.972 260.225C159.363 262.256 158.957 264.897 160.175 266.725C161.191 268.351 163.019 268.96 164.848 269.163C169.723 269.569 174.599 266.725 177.849 263.069C179.068 261.85 180.083 260.428 180.49 258.803C181.302 256.771 181.302 254.537 182.115 252.709C182.724 251.287 183.334 250.271 183.537 248.646C183.74 247.224 183.74 245.802 183.537 244.38C183.131 241.536 181.912 238.692 180.083 236.457C180.49 236.864 178.865 238.082 178.661 238.082C178.052 238.082 177.036 237.27 176.63 237.067C175.411 236.66 173.583 236.051 172.567 237.067C167.692 241.942 161.191 256.975 160.785 258.193Z" fill="#404040"/>
<path d="M182.927 204.361C182.318 201.72 181.505 199.282 180.49 196.844C179.677 194.407 178.865 191.969 178.458 189.328C178.255 187.297 178.458 185.265 178.255 183.234C176.63 167.389 178.255 151.138 178.255 135.089C178.255 133.667 178.255 132.042 178.255 130.62C178.255 126.761 178.052 123.104 177.646 119.244C177.443 117.416 177.036 115.385 176.63 113.556C176.224 111.931 175.411 110.509 175.208 108.884C174.395 110.509 173.38 111.931 172.161 113.353C170.942 114.775 170.129 115.181 168.301 115.791C165.863 116.603 163.223 117.01 160.582 117.213C156.925 117.619 153.269 118.025 149.612 117.416C145.956 116.807 142.299 115.385 139.861 112.541C139.455 118.229 139.658 124.12 140.268 129.808C140.877 134.683 142.096 143.012 147.174 145.246C147.987 145.653 148.8 145.856 149.409 146.465C149.815 146.872 150.018 147.481 150.222 148.09C150.831 149.919 151.644 151.95 152.253 153.778C158.753 173.28 163.832 193.391 166.27 213.705C167.285 222.237 168.504 230.972 169.52 239.504C169.52 239.707 169.52 240.114 169.723 240.317C169.926 240.52 170.129 240.723 170.536 240.926C173.786 242.755 177.849 242.551 180.896 240.52C181.099 240.317 181.302 240.114 181.505 239.911C181.709 239.707 181.709 239.504 181.709 239.098C181.912 235.848 182.318 232.597 182.521 229.347C182.927 225.081 183.334 220.815 183.537 216.549C183.74 213.096 183.74 208.83 182.927 204.361Z" fill="#4BA677"/>
<path d="M130.923 114.572C130.72 115.994 130.923 117.213 131.533 118.432C133.767 122.698 138.033 125.948 142.705 127.167C144.127 127.573 145.549 127.979 146.971 128.183C153.878 129.401 160.785 127.979 167.489 125.745C169.317 125.135 171.145 124.323 172.974 123.307C173.786 122.698 174.802 122.088 175.614 121.479C176.63 120.463 176.833 119.651 176.833 118.229C177.036 114.978 176.63 111.931 175.818 108.884C175.005 109.9 174.192 110.916 173.177 111.931C172.364 112.744 171.348 112.947 170.13 113.353C160.988 115.994 150.831 115.588 142.705 110.916C140.471 109.697 138.439 108.072 136.002 107.056C135.392 106.853 134.783 106.65 134.173 106.65C133.767 106.65 133.564 106.65 133.158 106.243C132.955 105.837 132.751 105.634 132.548 105.228C132.142 106.243 131.939 107.259 131.736 108.275C131.533 109.29 131.329 110.103 131.126 111.119C130.923 112.134 130.72 113.15 130.517 113.963C131.126 113.963 131.126 114.166 130.923 114.572Z" fill="#262626"/>
<path d="M137.221 37.7845C135.595 38.1907 133.97 39.0033 132.751 40.6284C130.72 43.2693 130.72 45.9101 130.72 49.1604C130.72 59.3175 132.142 69.0683 132.751 79.2254C133.158 84.7102 131.939 106.446 131.939 107.665C131.939 108.884 131.533 110.103 131.736 111.322C132.142 114.166 134.783 116.604 137.017 118.026C139.252 119.448 141.893 120.26 144.534 120.87C153.675 123.104 163.223 122.495 171.958 119.041C173.583 118.432 175.005 117.619 176.224 116.197C177.239 114.978 177.443 112.744 177.849 111.119C178.458 108.478 181.505 96.8988 182.318 93.8516C183.131 91.2108 183.943 88.7731 184.553 86.1322C185.975 81.46 187.397 76.7877 188.615 72.1154C189.225 70.2872 189.631 68.662 189.834 67.0369C190.241 62.9741 190.241 58.5049 186.99 55.4578C179.474 48.1447 170.942 41.441 160.988 39.0033C158.144 38.3939 155.3 37.9876 152.456 37.7845C149.003 37.3782 145.549 37.3782 142.096 37.3782C140.268 37.3782 138.846 37.3782 137.221 37.7845Z" fill="#D9D9D9"/>
<path d="M147.581 54.2389C147.377 54.4421 147.174 54.6452 147.174 54.8484C147.174 55.0515 147.174 55.6609 147.174 55.8641C147.174 56.4735 147.377 58.9112 147.377 59.5206C147.377 59.9269 147.377 60.3332 147.784 60.5363C148.799 61.1458 149.815 61.3489 151.034 61.3489C151.44 61.3489 151.643 61.3489 152.05 61.1458C152.253 60.9426 152.456 60.7395 152.659 60.5363C153.878 58.7081 155.3 57.0829 156.519 55.2547C156.519 55.0515 156.722 55.0515 156.722 54.8484C156.722 54.6452 156.722 54.4421 156.519 54.2389C155.706 52.817 155.097 51.395 154.487 49.7698C153.472 50.5824 151.847 50.3792 151.034 49.5667C150.831 49.3635 150.628 49.1604 150.221 49.1604L150.018 49.3635C149.612 50.1761 149.409 50.9887 149.003 51.5981C148.799 52.817 148.19 53.4264 147.581 54.2389Z" fill="#FFA600"/>
<path d="M147.581 59.5205C142.299 70.6933 138.033 109.697 138.033 109.697L140.471 123.713L147.987 114.166L152.05 60.9425L147.581 59.5205Z" fill="#FFA600"/>
<path d="M147.784 48.9571C148.393 49.3634 149.003 49.7697 149.612 50.3791C149.815 50.5823 150.018 50.7854 150.425 50.7854C150.831 50.7854 151.034 50.5823 151.44 50.5823C151.644 50.5823 151.847 50.5823 151.847 50.7854C152.253 50.9885 152.659 51.3948 152.862 51.598C153.066 52.0043 153.472 52.2074 153.878 51.8011C154.488 51.3948 154.894 50.9885 155.503 50.5823C156.519 49.7697 157.535 48.9571 158.55 48.1446C160.582 46.5194 162.41 44.6911 164.238 43.066C165.051 42.4566 165.66 41.644 166.473 40.8314C164.442 37.7843 163.223 34.1278 163.02 30.2681C161.801 32.0963 159.972 33.1121 158.144 34.1278C155.706 35.3466 152.862 36.1592 150.018 35.956C149.409 38.1906 148.8 40.6283 148.393 43.066C148.19 43.6754 148.19 44.488 147.987 45.0974C147.987 45.7069 147.784 46.3163 147.784 46.9257C147.784 47.332 147.581 48.9571 147.784 48.9571Z" fill="#663C33"/>
<path d="M164.035 38.3938C163.832 39.0033 163.629 39.8158 163.426 40.2221C162.004 42.4567 160.582 44.8944 158.347 46.5195C156.316 48.1446 153.675 49.1603 151.44 50.5823C152.862 52.6138 154.284 54.6452 155.91 56.4735C156.519 55.864 157.128 55.2546 157.738 54.8483C160.988 52.0043 164.238 49.3635 166.879 45.9101C167.285 45.5038 167.692 44.8944 167.895 44.2849C168.098 43.6755 168.098 43.0661 167.895 42.4567C167.692 42.0504 167.285 41.6441 167.082 41.441C166.676 40.8315 166.067 40.2221 166.067 39.4095C165.864 38.597 166.067 37.9875 165.66 37.175C165.254 36.5655 164.848 35.9561 164.238 35.3467C164.035 35.3467 164.035 35.1436 163.832 35.1436C163.832 35.5498 164.035 35.9561 164.035 36.3624C164.238 36.9718 164.035 37.7844 164.035 38.3938Z" fill="#F2F2F2"/>
<path d="M149.612 53.2232C149.003 54.442 147.784 55.2546 146.362 55.0514C146.565 55.0514 146.971 53.02 146.971 52.8169C147.174 52.0043 147.174 51.3949 146.971 50.5823C146.971 49.9729 146.768 49.3635 146.768 48.9572C146.565 48.3478 146.565 47.5352 146.768 46.9258C146.971 46.5195 147.174 46.1132 147.378 45.7069C147.784 45.0975 148.19 44.4881 148.596 44.0818C148.19 45.3006 148.19 46.7226 149.003 47.7383C149.206 48.1446 149.612 48.7541 150.018 49.1603C150.425 49.5666 150.628 49.7698 151.034 49.9729C151.644 50.3792 152.253 50.3792 152.659 50.9886C152.05 50.7855 151.44 50.9886 151.034 51.3949C150.222 51.8012 150.018 52.4106 149.612 53.2232Z" fill="#F2F2F2"/>
<path d="M138.439 28.8462C138.642 30.2682 138.846 31.8933 139.049 33.3153C139.455 36.1593 139.861 39.0033 140.268 41.8473C140.674 44.4881 141.893 46.3164 144.737 46.5195C145.955 46.5195 147.174 46.3164 148.393 46.1133C152.05 45.0975 155.503 43.4724 158.55 41.2378C159.16 40.8316 159.769 40.2221 159.972 39.6127C160.175 39.0033 159.972 38.3939 159.972 37.7844C159.972 36.7687 160.582 36.3624 161.394 35.9562C162.41 35.5499 163.426 34.7373 164.035 33.9247C165.051 32.5027 165.66 30.8776 166.27 29.2525C167.082 26.8148 167.895 24.1739 168.098 21.5331C168.301 17.4702 167.285 11.9854 164.238 8.93828C163.629 8.32886 162.816 7.71943 162.004 7.31315C159.16 5.89116 156.113 5.28173 152.862 5.68801C149.815 5.89116 146.768 7.11001 144.127 8.73514C142.908 9.34457 141.893 10.1571 141.08 11.376C138.236 14.8294 138.439 19.9079 138.439 23.9708C138.236 25.3928 138.236 27.2211 138.439 28.8462Z" fill="#874F43"/>
<path d="M150.628 20.5174C150.628 20.7205 150.628 21.1268 150.628 21.3299C150.628 22.7519 151.847 24.1739 153.269 24.1739C152.456 25.1896 152.253 26.6116 152.862 27.6273C153.472 28.643 154.691 29.4556 156.113 29.2525C155.706 29.6587 155.706 30.2682 155.91 30.6744C156.113 31.0807 156.722 31.487 157.128 31.487C157.738 31.6902 158.347 31.6902 158.957 31.487C159.566 31.0807 159.972 30.4713 160.176 29.8619C160.379 29.0493 160.176 27.8305 160.988 27.4242C161.801 26.8148 162.613 26.4085 163.426 26.4085C165.051 26.4085 165.864 27.6273 165.66 29.0493C165.66 29.8619 165.457 30.6744 165.254 31.6902C165.254 31.6902 165.254 31.6902 165.254 31.8933H165.457C166.473 31.6902 167.489 31.0807 167.895 30.065C168.301 29.2525 168.504 28.0336 168.098 27.0179C168.504 26.6116 168.708 26.2053 168.911 25.799C169.52 24.9865 169.926 23.9708 170.13 22.7519C170.333 21.7362 169.926 20.5174 169.317 19.7048L169.926 18.6891C170.13 18.2828 170.333 17.6734 170.333 17.2671C170.333 16.6577 170.13 15.8451 169.52 15.4388C169.317 15.2357 169.114 15.2357 168.911 15.0325C168.708 14.8294 168.911 14.6262 168.911 14.4231C169.114 13.4074 168.708 12.1885 167.895 11.5791C167.692 11.1728 167.286 10.9697 166.879 10.9697C165.864 10.7665 164.442 12.3917 163.426 12.5948C162.004 13.0011 160.379 13.0011 158.957 12.3917C157.941 11.9854 157.128 11.376 156.113 11.376C155.097 11.376 154.284 12.1885 153.878 13.0011C153.269 14.4231 153.472 16.0482 152.659 17.2671C151.847 18.4859 151.034 19.2985 150.628 20.5174Z" fill="#262626"/>
<path d="M146.971 18.0796C147.174 18.0796 147.378 18.0797 147.581 18.2828C149.003 18.6891 150.628 18.8922 152.05 18.8922C154.081 18.8922 156.113 18.2828 157.332 16.8608C157.535 16.6577 157.535 16.4545 157.738 16.4545C158.144 16.2514 158.347 16.4545 158.754 16.4545C159.769 16.4545 160.176 15.4388 160.785 14.8294C161.801 14.22 163.02 14.22 164.238 14.22C165.051 14.22 166.27 14.0168 167.082 14.6262C167.692 14.8294 168.098 15.0325 168.504 15.6419C168.504 15.4388 168.504 15.0325 168.504 14.8294C168.504 14.22 168.504 13.4074 168.301 12.798C168.301 12.3917 168.098 11.7823 167.895 11.376C167.489 10.5634 167.082 9.54769 166.676 9.14141C166.473 8.93826 164.442 8.1257 164.238 8.73512C164.848 6.7037 163.426 4.266 161.394 3.85972C160.988 2.64086 159.972 1.8283 158.754 1.42201C157.535 1.01573 156.316 0.812587 155.097 1.01573C154.081 1.01573 153.066 1.42201 152.659 2.23458C151.237 1.21887 149.409 1.42201 147.987 2.03144C146.768 2.43772 145.549 3.04715 144.737 3.85972C143.924 4.67228 143.315 6.09428 143.315 7.31313C141.283 6.90684 139.049 8.32884 138.236 10.3603C137.424 12.5948 137.83 16.2514 140.065 17.6734C141.893 18.6891 144.127 19.0954 146.159 18.6891C146.565 18.0796 146.768 18.0796 146.971 18.0796Z" fill="#424242"/>
<path d="M155.097 72.3186C154.691 72.928 152.862 89.1794 152.862 89.1794L159.972 93.2422L168.707 89.1794L170.129 74.7563L155.097 72.3186Z" fill="#F2F2F2"/>
<path d="M195.522 103.602C195.319 102.79 195.319 101.977 195.116 101.165C194.913 99.7426 194.71 98.5238 194.507 97.1018C194.1 94.6641 193.897 92.2264 193.491 89.5855C193.288 88.3667 193.288 87.1478 193.085 85.929C192.881 85.3195 192.678 84.507 192.272 84.1007C191.663 83.2881 190.647 82.8818 189.631 82.4756C188.615 82.0693 187.397 81.663 186.381 81.4598C185.162 81.2567 183.943 81.2567 182.927 81.663C179.677 83.085 179.88 86.9447 180.287 89.7887C180.896 92.8358 181.912 95.6798 182.521 98.7269C183.131 101.774 183.943 104.821 184.146 108.071C184.146 111.119 184.146 114.369 184.146 117.416C184.146 123.917 182.927 137.73 182.927 138.136C182.318 141.387 180.083 143.418 178.052 146.059C177.443 146.872 177.036 147.684 176.63 148.497C176.021 150.122 176.224 151.747 175.817 153.372C175.614 155.2 174.802 156.825 174.802 158.451C174.802 158.654 174.802 158.857 174.802 158.857C175.005 159.263 175.817 159.06 176.224 158.857C177.036 158.044 177.239 156.622 178.458 156.419C178.661 157.841 177.036 158.654 176.833 160.076C176.833 160.279 176.833 160.685 176.833 160.888C176.833 161.091 177.036 161.091 177.239 161.295C178.458 161.904 179.677 162.107 181.099 161.701C181.709 162.513 182.927 162.513 183.943 162.107C184.959 161.701 185.771 160.888 186.584 160.482C187.193 160.076 188.006 159.669 188.209 159.06C188.209 158.857 188.209 158.654 188.412 158.654C188.615 158.451 188.819 158.451 189.022 158.247C190.037 157.841 190.241 156.622 190.444 155.607C190.85 152.966 190.647 150.325 190.647 147.684C190.647 146.059 190.647 144.434 190.85 143.012C191.053 141.387 192.881 131.839 193.288 128.589C193.897 123.307 194.71 117.822 195.116 112.541C195.319 110.103 195.522 107.665 195.725 105.227C195.725 104.618 195.725 104.009 195.522 103.602Z" fill="#874F43"/>
<path d="M175.208 72.5216C175.208 79.2253 177.239 85.929 179.271 92.2264C179.677 93.2421 181.709 93.4453 182.724 93.6484C184.146 93.8515 185.568 93.6484 186.99 93.4453C188.819 93.039 190.647 92.6327 192.272 91.8201C193.085 91.4138 193.694 91.0076 194.1 90.3981C194.506 89.7887 194.303 88.9761 194.506 88.3667C194.913 80.6473 193.897 72.5216 192.069 65.0054C192.069 64.8022 192.069 64.8022 192.069 64.5991C191.663 62.5677 191.053 60.7394 190.037 58.9111C189.428 58.0986 188.819 57.286 188.006 56.6766C186.584 55.864 184.756 56.0671 183.334 56.6766C181.912 57.286 180.693 58.5048 179.88 59.9268C176.833 63.5834 175.208 68.0525 175.208 72.5216Z" fill="#F2F2F2"/>
<path d="M157.535 131.433C159.16 131.433 160.785 130.823 162.207 130.011C162.41 129.808 162.207 127.979 162.207 127.776C162.207 126.964 162.207 126.151 162.004 125.339C161.801 123.917 161.597 122.495 160.582 121.479C160.379 121.276 159.972 121.073 159.769 121.073C158.753 120.869 157.535 121.073 156.722 121.682C156.519 121.682 156.519 121.885 156.519 121.885C156.316 122.291 157.128 122.291 157.331 122.495C157.535 122.698 157.738 123.51 157.738 123.917C157.941 126.557 157.941 128.995 157.535 131.433Z" fill="#4BA677"/>
<path d="M131.736 119.651C131.736 120.26 131.736 120.666 131.736 121.276C131.939 121.682 132.142 122.088 132.345 122.291C132.954 123.104 133.564 123.713 134.173 124.323C134.173 123.104 134.173 121.885 134.58 120.463C134.783 119.854 134.986 119.244 135.189 118.635C135.392 118.432 135.392 117.822 135.798 117.822C136.002 117.619 136.408 117.822 136.814 118.025C136.814 117.619 136.814 117.213 136.611 116.807C136.408 116.4 136.205 115.994 135.798 115.791C135.189 115.181 134.173 114.978 133.564 115.791C132.548 116.603 131.939 118.025 131.736 119.651Z" fill="#338259"/>
<path d="M52.5101 185.062L51.0881 184.25C53.9321 179.578 58.8075 176.734 63.2767 173.89C64.2924 173.28 65.3081 172.671 66.3238 172.061C68.1521 170.842 70.3866 169.217 72.0118 167.389C74.0432 164.951 75.262 161.904 75.6683 158.451C76.0746 155.607 76.0746 152.357 75.4652 148.497C75.4652 148.091 75.262 147.481 75.262 147.075C74.8557 145.043 74.6526 143.012 74.6526 140.981C74.8557 137.933 75.8715 135.293 77.9029 133.667L78.9186 134.886C77.2935 136.105 76.4809 138.34 76.2777 140.981C76.2777 143.012 76.4809 144.84 76.8872 146.872C76.8872 147.278 77.0903 147.887 77.0903 148.294C77.6997 152.357 77.6997 155.607 77.2934 158.654C76.684 162.514 75.262 165.764 73.2306 168.405C71.4023 170.639 69.1678 172.264 67.1364 173.483C66.1206 174.093 65.1049 174.702 64.0892 175.312C59.8232 177.952 55.151 180.796 52.5101 185.062Z" fill="#338259"/>
<path d="M24.4767 274.851C18.9919 278.101 9.85052 278.101 4.36569 274.851C-1.11915 271.601 -1.32229 266.522 4.36569 263.272C9.85052 260.022 18.9919 260.022 24.4767 263.272C29.9616 266.522 29.9616 271.804 24.4767 274.851Z" fill="#F2E8DF"/>
<path d="M14.3195 271.195C22.173 271.195 28.5395 264.828 28.5395 256.975C28.5395 249.121 22.173 242.755 14.3195 242.755C6.46609 242.755 0.0996094 249.121 0.0996094 256.975C0.0996094 264.828 6.46609 271.195 14.3195 271.195Z" fill="#338259"/>
<path d="M11.6787 260.631C16.1663 260.631 19.8043 256.993 19.8043 252.506C19.8043 248.018 16.1663 244.38 11.6787 244.38C7.19097 244.38 3.55298 248.018 3.55298 252.506C3.55298 256.993 7.19097 260.631 11.6787 260.631Z" fill="#4BA677"/>
<path d="M45.1971 287.243C41.7437 289.274 35.8526 289.274 32.196 287.243C28.5395 285.211 28.5395 281.758 32.196 279.726C35.6494 277.695 41.5406 277.695 45.1971 279.726C48.6505 281.961 48.6505 285.211 45.1971 287.243Z" fill="#F2E8DF"/>
<path d="M38.6966 285.008C43.7452 285.008 47.8379 280.915 47.8379 275.867C47.8379 270.818 43.7452 266.725 38.6966 266.725C33.6479 266.725 29.5552 270.818 29.5552 275.867C29.5552 280.915 33.6479 285.008 38.6966 285.008Z" fill="#FF6D00"/>
<path d="M36.8684 278.101C39.7854 278.101 42.1501 275.737 42.1501 272.82C42.1501 269.903 39.7854 267.538 36.8684 267.538C33.9514 267.538 31.5867 269.903 31.5867 272.82C31.5867 275.737 33.9514 278.101 36.8684 278.101Z" fill="#FFA645"/>
</svg>
