<svg width="158" height="147" viewBox="0 0 158 147" fill="none" xmlns="http://www.w3.org/2000/svg">
<path opacity="0.2" d="M102.9 133.1C104.7 133 106.5 133.2 108.2 133C111 132.5 113.5 130.8 115.9 129.2C126.9 121.7 138.8 115.4 151.2 110.4C152.6 109.8 154.1 109.3 155.3 108.3C156.5 107.3 157.5 105.9 157.4 104.4C157.4 102.5 156 101 154.7 99.6C153.1 98 151.4 96.3 149.3 95.4C146.8 94.4 143.9 94.6 141.4 95.4C138.8 96.2 136.5 97.6 134.2 99C125.7 104.1 117.1 109.3 108.6 114.4C103.5 117.5 98.3 120.6 93.9 124.6C92.7 125.7 91.6 126.8 90.9 128.2C90.2 129.6 90 131.4 90.8 132.8C93.4 138 99.2 133.2 102.9 133.1Z" fill="#CF3837"/>
<path opacity="0.2" d="M8.90001 123.1C7.20001 124.1 5.50001 125.1 4.10001 126.5C2.80001 128 2.00001 130 2.40001 131.9C2.90001 134.1 4.80001 135.7 6.60001 136.9C9.90001 139.2 13.5 141.2 17.1 143C20.4 144.6 24.1 146 27.6 144.9C31.5 143.7 33.9 139.8 37.1 137.2C42.4 132.9 50.5 132.5 56.2 136.3C57.8 137.3 66.8 138.5 68.6 138.2C70.3 137.9 78.3 137.4 79.3 135.9C82.9 131.2 74.2 127.5 79.5 125C68.6 120.5 57.7 116.1 46.7 111.6C43.7 110.4 40.6 109.1 37.3 108.8C32.1 108.3 29.1 111.2 25 113.6C19.9 117 14.4 120 8.90001 123.1Z" fill="#CF3837"/>
<path d="M51.4 28.8999V49.2999L58 67.6999L69.2 72.7999L62.8 45.8999L64.9 14.7999L54.1 12.7999L51.4 28.8999Z" fill="#C7301C"/>
<path d="M80.1 87.3L79.6 96.6L65.9 103.3C65.9 103.3 58.5 100.2 58.3 100C58.1 99.8 56.2 95.3 56.2 95.3L48.1 81.7L43 71.3L47.9 64.2L55.6 60.6L64.9 65.5L73.5 80L80.1 87.3Z" fill="#C7B299"/>
<path opacity="0.3" d="M79.6 96.6L65.9 103.3C65.9 103.3 58.5 100.2 58.3 100C58.1 99.8 56.2 95.3 56.2 95.3L48.1 81.7L43 71.3L47.9 64.2L55.6 60.6L52.7 68L55.6 76.6L54.9 81L56.2 86.9C56.2 86.9 60.7 96 61.5 96C62.3 96 66.6 99.8 66.6 99.8L79.6 96.6Z" fill="#534741"/>
<path d="M95.3 130.5C101.6 134.1 101.6 140 95.4 143.6C89.2 147.2 79 147.2 72.8 143.6C66.5 140 66.4999 134.1 72.6999 130.5C78.9 126.9 89.1 126.9 95.3 130.5Z" fill="#B3B3B3"/>
<path d="M68.7999 134.3L71.2999 129.5L96.7999 129.6L99.2999 134.4L68.7999 134.3Z" fill="#B3B3B3"/>
<path d="M93.3999 126.4C98.5999 129.4 98.5999 134.3 93.4999 137.3C88.2999 140.3 79.8999 140.3 74.5999 137.3C69.3999 134.3 69.2999 129.4 74.4999 126.4C79.7999 123.3 88.1999 123.3 93.3999 126.4Z" fill="#E6E6E6"/>
<path d="M93.7 135.2C93.2 135.6 92.7 136.1 92 136.5C91.6 136.7 91.3 136.9 90.9 137.1C86.9 138.9 81.2 138.9 77.2 137.1C76.8 136.9 76.5 136.8 76.1 136.6C75.3 136.1 74.6 135.6 74.1 135.1C71.8 132.6 72.5 129.5 76 127.4C80.4 124.9 87.5 124.9 91.9 127.4C95.7 129.4 96.3 132.7 93.7 135.2Z" fill="#B3B3B3"/>
<path d="M93.7 135.2C93.2 135.6 92.7 136.1 92 136.5C91.6 136.7 91.3 136.9 90.9 137.1C86.9 138.9 81.2 138.9 77.2 137.1C76.8 136.9 76.5 136.8 76.1 136.6C75.3 136.1 74.6 135.6 74.1 135.1C71.8 132.6 72.5 129.5 76 127.4C80.4 124.9 87.5 124.9 91.9 127.4C95.7 129.4 96.3 132.7 93.7 135.2Z" fill="#B3B3B3"/>
<path d="M90.9 137C86.9 138.8 81.2 138.8 77.2 137C75.1 135.2 75.5 132.7 78.3 131.1C81.5 129.3 86.7 129.3 89.9 131.1C92.6 132.7 93 135.1 90.9 137Z" fill="#CCCCCC"/>
<path d="M93.8999 133.6C93.7999 133.8 93.7999 134 93.7999 134.5C93.7999 134.6 93.7999 134.9 93.6999 135.2C93.1999 135.6 92.6999 136.1 91.9999 136.5C91.5999 136.7 91.2999 136.9 90.8999 137.1C86.8999 138.9 81.1999 138.9 77.1999 137.1C76.7999 136.9 76.4999 136.8 76.0999 136.6C75.2999 136.1 74.5999 135.6 74.0999 135.1L73.8999 134.7V133H74.6999L75.3999 132.3L75.7999 131L76.5999 131.7L76.9999 130L78.3999 130.2L79.4999 129.1L80.5999 128.2L81.4999 129.3L82.5999 128.2L83.2999 128.9L84.7999 128.2L85.7999 129.2L87.6999 128.9H88.3999L89.4999 129.4L90.2999 128.9H90.9999C90.9999 128.9 91.8999 130.2 91.9999 130.3C92.0999 130.5 92.7999 131.3 92.7999 131.3L93.8999 131.7C93.8999 131.7 93.8999 133.4 93.8999 133.6Z" fill="#603813"/>
<path d="M141.6 85.6C141.1 87 140.5 88.6 139.8 90.5C139.6 91.2 139.5 91.4 139.9 91.7C141.5 93 143.8 91.9 143.6 95.2C143.5 96.8 142.4 100.1 141.7 100.9C140.8 101.9 138.6 103.2 137.4 103.3C136.1 103.3 135.2 102.4 136 101.3C136.9 100 138.9 99.5 138.9 99.5C139.7 98.8 140.1 96.1 139.1 96.2C138.4 96.2 134.2 97.7 133.3 97.1C132.8 96.8 132.9 97 131.2 86.5C131.1 86.1 131.1 85.8 131.2 85.5L141.6 85.6Z" fill="#915413"/>
<path d="M88.7 107.5C87.9 108.2 87.4 110.8 87.4 112.7C89.1 112.4 90.7 111.5 91.9 110.2C93 109 93.8 107.5 94.4 106C94.7 105.4 94.7 105 94 104.9C91.5 104.7 91.9 104.6 88.7 107.5Z" fill="#915413"/>
<path d="M113.8 112C114.4 116.4 113.2 116.6 112.8 117.7C112.5 118.4 112.7 118.9 113.5 119.2C115.2 119.7 116 119.1 116.8 117.8C118.3 115.3 117.9 115.5 116.9 104.9C116.9 104.7 114.4 105.1 114.1 105.2C112.5 105.5 113 106.2 113.8 112Z" fill="#915413"/>
<path d="M94.4 107.6C97.3 109.7 99.9 110.7 102.7 112.9C103 112.7 103.2 112.5 103.5 112.3C104.4 111.6 105.3 110.9 106.2 110.2C107.5 109.2 108.9 108.3 110.6 107.7C112.7 106.8 115 106.9 117.3 106.8C119.2 106.7 121.1 106.5 122.7 105.7C123 105.5 123.3 105.4 123.5 105.2C127.3 102.3 125.3 98.4 140.3 92.1C140.9 91.9 141.5 91.6 142.1 91.4C142.2 91.4 142.3 91.3 142.4 91.3L144 90.2C143.6 90.5 143.3 90.7 142.9 91C146.5 89.1 148.6 84.7 147.6 80.7C147.4 79.8 147 78.9 147.1 77.9C147.5 74.9 154.1 68.6 151.1 66.5C149.7 67.1 148.9 68.4 148 69.6C146.6 71.4 145.4 74.7 143 75.4C134.6 78 124.3 79.5 116.8 82.7C107.6 86.7 99.4 98.6 98.4 100.5C97.9 101.4 97.6 102.5 97.2 103.5C96.5 105 95.8 106.6 94.4 107.6Z" fill="#C9843A"/>
<path d="M101.7 110.5C102.4 111 103 111.6 103.4 112.3C104.3 111.6 105.2 110.9 106.1 110.2C107.4 109.2 108.8 108.3 110.5 107.7C112.6 106.8 114.9 106.9 117.2 106.8C117.3 106.6 117.3 106.4 117.2 106.2C117.1 105.5 117.2 102.7 116.5 102.4C115.9 102.2 113.7 103.9 113.2 104.2C110.9 105.4 108.5 106.8 106.1 107.6C104.5 108.3 102.7 109 101.7 110.5Z" fill="#915413"/>
<path d="M94.4 107.6C97.3 109.7 99.9 110.7 102.7 112.9C103.9 112 105 111.1 106.2 110.2C105.8 109.1 104.8 108 104.1 107.2C103.1 106.1 102 105.2 100.7 104.5C100.4 104.3 98.3 103.4 97.3 103.2C96.5 105 95.8 106.6 94.4 107.6Z" fill="#261B0D"/>
<path d="M85.7 126.1C86.3 126.8 87.4 127.9 88.8 128.4C90.3 128.9 91.6 128.5 92.6 128C94.8 127.1 94 125.4 97.2 122.9C99.4 120.7 102 117.5 102.5 116.6C103 115.7 104.1 112.8 103.7 110.6C103.6 110.1 103.5 109.6 103.2 109.2C102.7 108.4 102 107.8 101.2 107.2C100.3 106.5 96.9 104 94.4 104.5C93.8 104.6 93.2 105 92.7 105.4C84.4 111.8 88.6 113.7 87.3 117.6C86.3 121.1 84.6 124.9 85.7 126.1Z" fill="#C9843A"/>
<path d="M97.2 122.9C99.4 120.7 102 117.5 102.5 116.6C103 115.7 104.1 112.8 103.7 110.6C103.7 110.6 103.6 110.5 103.6 110.4C102.1 108.2 101.4 107.2 99.4 109.6C97.6 111.7 98.3 113.3 98.9 114.7C100.2 117.5 97.9 120.1 97.2 122.9Z" fill="#915413"/>
<path d="M103.8 109.6C106.4 112.6 106.6 112.5 106.8 114.1C107.8 122.4 106.7 122.3 103.7 125.3C103.1 125.9 102.3 126.6 101.5 126.5C100.6 126.4 100.1 125.4 99.9 124.5C99.2 121.1 101.4 117.2 99.5 114.1C98.7 112.8 97.5 112.1 99 109.8C100.6 107 102 107.6 103.8 109.6Z" fill="#C9843A"/>
<path d="M122.1 97.3001L122.6 105.6C122.9 105.4 123.2 105.3 123.4 105.1C127.2 102.2 125.2 98.3001 140.2 92.0001C140.4 92.4001 140.6 92.8001 140.8 93.1001L142.2 91.7001L142 91.3001L140.4 89.1001C140.4 89.1001 135.9 91.8001 132.3 93.6001C128.8 95.3001 122.1 97.3001 122.1 97.3001Z" fill="#915413"/>
<path d="M146 101.6C147.2 102.2 150.8 100.7 151.5 100.7C152.5 100.7 153.1 103.3 152.6 104C152.6 104 150.8 104.5 150.4 105.8C150 106.9 151.2 107.8 152.5 107.7C153.6 107.7 155.4 106.4 155.9 105.3C156.3 104.5 156.1 101.2 155.6 99.6001C154.5 96.3001 152.6 97.4001 150.6 96.1001C150.1 95.8001 150 95.5001 150 94.9001C149.8 79.6001 149.1 83.1001 147.5 79.0001C147.3 78.6001 147.2 78.1001 147.2 77.7001C147.1 77.0001 147.1 76.3001 147 75.6001L140.8 83.9001C134.6 91.0001 145.1 101.2 146 101.6Z" fill="#C9843A"/>
<path d="M108.7 127.5C110.2 126.2 110.8 126.8 112.4 124C113.6 121.8 114.8 119.6 116.1 117.4C117.3 115.3 117 115.8 115.7 105.3C115.7 105 114.7 97.1 114.7 96.8C114.8 96 120.1 94.5 123.1 93.3C125 92.5 126.2 95.9 125.1 99.6C123.8 106.2 123 113.7 122 116.3C121.5 117.6 121.2 117.9 114.7 126.9C113.5 128.6 112.7 129.7 110.7 130.4C109.9 130.7 108.8 130.9 108.2 130.2C107.6 129.4 108 128.2 108.7 127.5Z" fill="#C9843A"/>
<path d="M88.6 128.3C88.7 128.3 88.7 128.3 88.8 128.3C88.9 128.3 88.9 128.2 89 128.2C89.2 128.1 89.4 127.9 89.5 127.7C89.7 127.5 89.9 127.3 89.9 127C89.8 126.8 89.6 126.7 89.4 126.6C88.9 126.4 88.4 126.2 87.9 126.1C87.4 126 86.9 125.7 86.4 125.8C86.2 125.8 86.2 125.8 86.2 126C86.3 126.2 86.4 126.4 86.5 126.5C86.7 126.9 87 127.2 87.4 127.5C87.8 127.9 88.2 128.1 88.6 128.3Z" fill="#261B0D"/>
<path d="M27.7 103.3L28 109.5C28 109.5 27.1 113.1 27.2 115.9C27.3 119 30.6 119.3 32.3 121.1C33.2 122 35.4 125.3 37.7 126.6C41.6 128.9 47.8 129.7 49.3 125.5C50.4 122.4 42.6 117.5 42.6 117.5C42.6 117.5 37.9 114.1 37.3 111.6C36.6 109.1 35.7 103.3 35.7 103.3H27.7Z" fill="#1A1A1A"/>
<path d="M41 58.0999C41.1 59.0999 37.3 80.4999 37.2 84.8999C37 89.1999 38.2 110 38.2 110C36.1 115.6 26 108.5 26 108.5C26 108.5 25.2 104.7 24.2 99.7999C22.9 93.4999 21.4 85.2999 21.1 81.3999C20.9 78.7999 23.8 66.2999 23.8 66.2999C23.8 66.2999 22.4 59.7999 20 49.9999C19 45.8999 17.8 41.0999 16.4 35.9999C11.8 18.8999 40.2 38.1999 40.2 38.1999C40.2 38.1999 40.9 57.0999 41 58.0999Z" fill="#214B71"/>
<path opacity="0.5" d="M26.5 54.8999C26.5 54.8999 29.6 69.6999 25.5 76.4999C21.5 83.1999 24 99.3999 24.1 99.7999C22.8 93.4999 21.3 85.2999 21 81.3999C20.8 78.7999 23.7 66.2999 23.7 66.2999C23.7 66.2999 22.4 59.7999 20 49.9999L28.5 45.8999L26.5 54.8999Z" fill="#25435C"/>
<path d="M6.5 115.9L6.8 122.1C6.8 122.1 5.9 125.7 6 128.5C6.1 131.6 9.40001 131.9 11.1 133.7C12 134.6 14.2 137.9 16.5 139.2C20.4 141.5 26.6 142.3 28.1 138.1C29.2 135 21.4 130.1 21.4 130.1C21.4 130.1 16.7 126.7 16.1 124.2C15.4 121.7 14.5 115.9 14.5 115.9H6.5Z" fill="#1A1A1A"/>
<path d="M12.8 17.6C12.8 17.6 -3.40001 22.9 0.69999 41.5C4.69999 60 4.29999 75.4 4.29999 75.4C4.29999 75.4 0.89999 88.9 0.99999 91.7C1.29999 99.1 4.99999 120.9 4.99999 120.9C4.99999 120.9 14.9 128.6 17.2 122.5C17.2 122.5 16.8 100.1 17.1 95.4C17.4 90.7 21.9 67.6 21.9 66.5C21.9 65.4 23.6 46.3 23.6 46.3L34.5 40.8L12.8 17.6Z" fill="#214B71"/>
<path d="M62.6 20.4999C62.5 21.2999 62.3 22.0999 62.1 22.7999C59.8 30.1999 50.7 33.9999 49.4 34.4999C47.9 35.0999 43.4 40.3999 35.8 41.9999C28.2 43.5999 19.6 38.4999 16.5 35.8999C15.4 34.9999 14.6 33.9999 13.9 32.9999C9.40002 26.1999 12.8 17.4999 12.8 17.4999L16.4 14.9999C19.2 13.6999 23.6 12.7999 30.5 8.09994C39.3 1.99994 46.9 -0.600059 54.5 0.999941C60.4 2.19994 63.7 11.6999 62.6 20.4999Z" fill="#C7301C"/>
<path d="M62.1 22.7999C59.8 30.1999 50.7 34 49.4 34.5C47.9 35.1 43.4 40.4 35.8 42C28.2 43.6 19.6 38.5 16.5 35.9C15.4 35 14.6 34 13.9 33C19.4 33.5 45.1 35.2 49.2 21.7L62.1 22.7999Z" fill="#852013"/>
<path d="M51.4 10.3C51.4 10.3 52.7 0.699976 61.1 0.599976C67 0.599976 69.7 4.39998 71.5 7.99998C73.9 12.6 74.6 18 70.7 20.4C68.7 22.1 62.6 29 59.7 29C53.8 29 54.1 20.4 53.4 18.9C52.8 17.2 51.4 10.3 51.4 10.3Z" fill="#F79974"/>
<path d="M53.2 9.09998L50.9 10.1C50.9 10.1 45.1 13.9 47.4 18.4C49 21.7 51.4 26.2 56.3 23.9C61.2 21.7 62.7 12.1 62.7 12.1L53.2 9.09998Z" fill="#F79974"/>
<path d="M49.7 14.8C49.7 14.8 50.5999 8.79996 51.2999 7.39996C52.0999 6.09996 53.8999 -0.800042 62.0999 0.0999576C70.3999 0.999958 73.4 9.49996 73.5 10.7C73.5 10.7 75.7 18.9 73.5 20.5C71.4 22.1 63.8999 22.7 60.5999 19C57.9999 16 57 17.2 55.9 17.5C54.3 17.9 54.6999 16.4 53.5999 15.2L53.2 16.9L49.7 14.8Z" fill="black"/>
<path d="M51.1 13.3999C51.3 12.7999 51.7 12.2999 52.3 12.0999C52.9 11.8999 53.6 12.1999 54.1 12.7999C54.7 13.5999 54.7 14.5999 54.5 15.3999C54.4 15.9999 54.2 16.5999 53.8 16.9999C53.4 17.3999 52.8 17.5999 52.3 17.2999C50.7 16.6999 50.7 14.4999 51.1 13.3999Z" fill="#F79974"/>
<path d="M34.2 16.8999C34.2 16.8999 27.8 19.3999 27.8 29.7999C27.8 40.1999 30.6 50.1999 31.9 53.2999C34.5 59.5999 40.7 78.6999 48 81.5999C48 81.5999 56.5 81.0999 53.1 74.9999L44.5 53.2999L42 33.6999C42.1 33.7999 47.7 15.6999 34.2 16.8999Z" fill="#C7301C"/>
<path d="M48.2 80.6999C47.9 82.6999 48.3 85.3999 48.3 85.3999V88.0999L49.3 90.3999L49.9 91.0999L50.8 92.2999L52.1 93.1999L52.9 93.8999L53.8 94.1999L54.6 94.9999L56.2 95.2999L55 92.8999C54 90.7999 53.8 88.7999 54.7 86.9999L56.2 86.7999L59 87.7999L59.9 87.9999C60.8 88.2999 61.2 87.4999 60.6 86.8999L57.8 84.7999L54.9 80.8999L53.4 78.8999C53.5 76.8999 48.5 78.8999 48.2 80.6999Z" fill="#F79974"/>
<path d="M59.6 98.5999L65.1 101.6L78.8 95.9999V88.0999L72.8 88.9999L65.9 90.6999L59.6 98.5999Z" fill="#1A1A1A"/>
<path d="M66.7999 68.6999C66.5999 69.2999 66.7999 71.8999 66.7999 72.4999C66.8999 74.2999 67.3999 76.0999 67.1999 77.8999C67.0999 78.4999 67.0999 79.1999 67.5999 79.4999C67.9999 79.7999 68.5999 79.5999 68.8999 79.1999C69.1999 78.7999 69.2999 78.2999 69.2999 77.7999C69.2999 76.8999 69.2999 74.6999 70.1999 74.4999C70.9999 75.7999 73.3999 79.7999 73.5999 80.0999C73.6999 78.6999 73.7999 77.2999 73.8999 75.8999C73.8999 75.2999 73.9999 74.6999 73.7999 74.0999C73.5999 73.4999 73.2999 72.8999 72.8999 72.3999C71.9999 71.1999 70.9999 70.0999 69.7999 69.1999C68.5999 68.2999 67.1999 67.2999 66.7999 68.6999Z" fill="#F79974"/>
<path d="M59.6 98.6L65.2 101.6L68.1 106.4H69.2V109.2L71.5 110.4L72.9 113.5L74.5 114.3L75.9 116.8L77.8 112.2L76.8 106.5L78.8 103.4L76.9 100L76.7 97.4L74.4 93.9C74.4 93.9 73.7 92.7 72.8 92.4C71.9 92.1 65.9 90.8 65.9 90.8L59.6 98.6Z" fill="#603813"/>
<path d="M77.8 114.7C77.8 114.8 77.4 116 77.4 116L78.4 116.7L79.1 115.5C79.1 115.5 79.2 114.7 79.1 114.6C79 114.6 77.8 114.7 77.8 114.7Z" fill="#603813"/>
<path d="M77.4 118.1C77.4 118.1 76.9 119.2 77.1 119.3C77.2 119.4 77.6 119.9 77.8 119.8C78 119.7 78.5 119.2 78.5 119.1C78.5 119 78.3 118 78.3 118H77.4V118.1Z" fill="#603813"/>
<path d="M74.9 116.8C74.9 116.9 74.6 117.5 74.7 117.6C74.8 117.8 75.3 118.4 75.4 118.1C75.5 117.9 75.9 117.7 75.9 117.6C76 117.5 75.9 117 75.9 117L74.9 116.8Z" fill="#603813"/>
<path d="M75.8999 120.6C75.8999 120.6 75.3999 121.8 75.2999 121.9C75.1999 122 75.8999 122.8 75.8999 122.8C75.8999 122.8 76.8999 122.5 76.7999 122.3C76.7999 122.1 76.9999 121.5 76.9999 121.5L75.8999 120.6Z" fill="#603813"/>
<path d="M78 120.6C78 120.6 77.6 121 77.8 121.1C77.9 121.2 78.5 121.5 78.5 121.5C78.5 121.5 78.7 121.3 78.8 121.1C78.9 120.9 78.8 120.4 78.8 120.4L78.3 119.9L78 120.6Z" fill="#603813"/>
<path d="M75.9 119C75.9 119 75 119.6 75.1 119.6C75.2 119.7 75.9 119.9 75.9 119.9C75.9 119.9 76.4 120.2 76.4 120.1C76.4 120 76.7 119.5 76.7 119.5L75.9 119Z" fill="#603813"/>
<path d="M79.7 122.8C79.7 123 79.7 124.3 79.7 124.3L80.4 124.8L81 124.1L81.2 123.3L80.7 122.8L80.4 123.1L79.7 122.8Z" fill="#603813"/>
<path d="M77.8 122.5V122.9L78.3 123.3L78.5 122.9C78.5 122.9 79 122.2 78.8 122.2C78.6 122.2 78.3 122.4 78.3 122.4L77.8 122.5Z" fill="#603813"/>
<path d="M80.3 120.1V121L80.8 121.1C80.8 121.1 81.4 120.8 81.4 120.6C81.4 120.4 81.4 119.9 81.4 119.9L80.6 119.6L80.3 120.1Z" fill="#603813"/>
<path d="M77.4 125.9C77.4 125.9 76.9 126.8 77 126.8C77.2 126.7 77.7 127.4 77.7 127.4C77.7 127.4 78.4 127.1 78.4 127C78.4 126.9 78.9 126.7 78.8 126.4C78.7 126.1 78.8 125.3 78.8 125.3H78L77.4 125.9Z" fill="#603813"/>
<path d="M76.7 124.1V124.8H77L77.4 124.5L77.8 123.8L77 123.6L76.7 124.1Z" fill="#603813"/>
<path d="M79.6999 127.4C79.5999 127.4 79.4999 128.2 79.6999 128.2C79.8999 128.3 80.3999 128.8 80.4999 128.7C80.5999 128.6 81.2999 127.8 81.2999 127.8L80.7999 126.6H79.9999L79.6999 127.4Z" fill="#603813"/>
</svg>
