<svg width="125" height="277" viewBox="0 0 125 277" fill="none" xmlns="http://www.w3.org/2000/svg">
<path d="M101.218 267.741C80.4979 279.727 46.5733 279.727 25.6496 267.538C4.72602 255.553 4.52287 235.848 25.4465 223.862C46.167 211.877 80.0916 211.877 101.015 224.066C121.939 236.051 122.142 255.756 101.218 267.741Z" fill="#F2E8DF"/>
<path d="M104.672 221.628C88.6234 230.769 62.6212 230.769 46.573 221.425C30.5248 212.08 30.3217 197.048 46.3699 187.906C62.4181 178.765 88.4203 178.765 104.468 188.109C120.517 197.454 120.517 212.486 104.672 221.628Z" fill="#F2E8DF"/>
<path d="M83.545 31.8934C84.3575 32.2996 85.1701 32.7059 85.9826 32.7059C85.7795 33.5185 86.1858 34.3311 86.7952 34.7373C87.8109 35.5499 89.2329 35.7531 90.4518 35.3468C91.6706 34.9405 92.4832 33.7216 92.6863 32.5028C92.6863 31.8934 92.6863 31.0808 92.0769 30.6745C92.6863 30.0651 93.0926 29.2525 93.2957 28.2368C93.4989 27.2211 93.2957 26.4085 93.2957 25.3928C93.0926 24.5803 93.0926 23.7677 92.4832 22.9551C92.0769 22.1426 91.2643 21.7363 90.4518 21.7363C90.8581 20.5174 90.0455 18.8923 88.8266 18.486C87.4046 18.0797 86.5921 18.8923 85.5764 19.7048C84.5607 20.5174 83.9512 21.33 84.5607 22.752C84.7638 23.3614 83.1386 24.5803 82.7323 25.1897C81.7166 26.6117 81.3104 28.6431 82.1229 30.2682C82.5292 31.0808 82.9355 31.4871 83.545 31.8934Z" fill="#262626"/>
<path d="M60.5899 73.3341C60.1836 71.9121 59.5741 70.4901 58.5584 69.4744C57.5427 68.4587 55.9176 67.8493 54.4956 68.4587C52.4642 69.0682 52.2611 71.3027 51.6516 73.131C50.8391 75.5687 49.4171 77.8033 48.4013 80.241C47.3856 82.4755 39.4631 105.634 38.4474 106.649C37.4317 107.665 36.416 108.478 35.1971 109.087C34.5877 109.493 33.9783 109.697 33.572 110.306C33.3689 110.712 33.1657 111.119 32.9625 111.525C32.5563 112.744 31.9469 113.963 31.5406 115.181C31.3374 115.588 31.1343 115.994 31.1343 116.4C31.1343 116.806 31.1343 117.416 31.1343 117.822C31.5406 120.057 32.5563 122.088 32.9625 124.12C32.9625 124.526 32.9626 124.932 33.3689 125.338C33.572 125.745 34.1814 125.948 34.3846 125.745C34.5877 125.542 34.7908 125.338 34.994 125.135C35.1971 124.932 35.4003 124.932 35.6034 124.932C36.2129 124.729 36.8223 124.12 37.2285 123.51C38.0411 122.088 38.6506 120.26 38.6506 118.635C38.6506 118.025 38.6506 117.416 38.8537 116.806C39.26 115.181 40.8851 114.369 42.1039 113.15C42.7134 112.541 43.3228 111.931 43.9323 111.119C44.1354 110.712 44.3385 110.509 44.5417 110.103C44.7448 109.697 44.7448 109.087 44.7448 108.681C44.7448 108.275 44.948 108.071 44.948 107.665C51.6516 99.9457 56.1207 90.8043 59.7773 81.2567C60.3867 79.8347 60.793 78.4127 60.9962 76.7875C60.9962 75.5687 60.793 74.3498 60.5899 73.3341Z" fill="#663C33"/>
<path d="M52.6674 48.5508C51.8548 50.9885 48.6045 64.3959 47.3857 68.865C47.1825 69.4745 46.7763 70.8965 46.9794 71.5059C46.9794 71.709 47.1825 71.9122 47.1825 72.1153C48.1982 73.3342 49.4171 74.3499 51.0423 74.9593C52.4643 75.5687 54.0894 75.975 55.7145 76.1781C55.7145 74.9593 55.3082 73.9436 55.3082 72.9279C55.3082 71.5059 55.3082 70.0839 55.5114 68.6619C55.9176 65.8179 56.5271 63.1771 57.1365 60.5362C58.5585 55.4577 60.3868 50.176 61.1994 44.8943C61.4025 43.6754 60.9962 42.4566 61.1994 41.2377C61.1994 40.4252 62.0119 39.2063 62.8245 39.0032C61.4025 39.4095 59.9805 40.0189 58.5585 40.6283C57.3396 41.2377 56.3239 41.8472 55.5114 42.8629C54.0894 44.2849 53.2768 46.3163 52.6674 48.5508Z" fill="#F2F2F2"/>
<path d="M50.8391 210.049C47.9951 212.283 45.3543 214.518 42.9166 216.956C41.6977 218.174 40.4788 219.393 39.6663 220.815C38.4474 222.847 37.0254 226.3 38.8537 228.332C39.6663 229.144 40.8851 229.55 42.1039 229.55C44.1354 229.55 46.1668 228.941 47.9951 227.925C49.8234 226.91 51.2454 225.488 52.6673 223.862C53.8862 222.44 54.9019 221.018 56.3239 220.003C57.7459 218.987 59.3711 218.378 61.1993 217.768C62.6213 217.362 64.2464 216.956 65.059 215.737C66.0747 214.315 66.6841 212.486 66.481 210.658C66.481 209.033 65.8716 207.408 65.059 205.783L64.8559 205.58L64.6527 206.189C64.4496 206.392 64.4496 206.595 64.2465 206.799C63.8402 207.205 63.4339 207.205 62.8244 206.799C62.0119 206.189 61.1993 205.58 60.1836 205.173C59.3711 204.767 58.7616 204.564 57.949 204.97C57.1365 205.377 56.3239 205.986 55.5113 206.392C53.8862 207.408 52.4642 208.424 51.0422 209.642C51.0422 209.846 51.0422 209.846 50.8391 210.049Z" fill="#262626"/>
<path d="M67.2936 177.952C67.6999 169.827 70.5438 143.215 70.747 141.387C71.7627 130.62 72.7784 120.057 73.3879 109.29C73.3879 108.884 73.9973 101.774 73.3879 101.571C70.1376 101.368 67.0904 99.7426 64.4496 97.7112C63.0276 96.4924 61.1994 95.0704 60.1836 93.4452C59.5742 92.6327 59.1679 91.617 58.5585 90.8044C58.3553 90.3981 57.3396 88.9761 57.5428 88.3667C54.4956 94.8672 51.4485 101.165 50.2296 108.071C49.6202 111.119 49.6202 114.369 49.2139 117.619C48.4014 125.745 48.6045 133.87 48.8077 141.996C49.214 149.716 48.8077 157.435 49.6202 165.154C49.6202 165.357 50.2297 174.702 50.4328 178.968C50.8391 185.469 51.6517 201.923 51.6517 203.548C51.6517 205.376 51.4485 207.814 52.6674 209.236C54.0894 210.861 57.3396 211.471 59.371 211.471C62.0119 211.471 64.6527 210.252 66.481 208.424C65.6684 200.907 66.0747 193.391 66.481 185.875C66.8873 183.234 67.0905 180.593 67.2936 177.952Z" fill="#338259"/>
<path d="M104.672 194C104.266 193.188 103.859 192.172 103.25 191.36C103.656 191.766 102.437 192.578 102.031 192.578C101.422 192.375 100.609 191.563 99.7965 191.36C99.187 191.156 98.3745 190.953 97.765 191.36C96.9525 191.766 96.343 192.578 95.5305 193.188C93.0928 195.626 91.0613 198.47 89.2331 201.314C87.4048 204.361 85.5765 207.408 84.1545 210.658C83.3419 212.283 83.1388 213.705 83.9514 215.33C84.7639 216.549 86.186 217.159 87.6079 216.955C88.8268 216.955 90.0456 216.346 91.2645 215.94C93.499 214.924 95.5305 213.705 97.3587 212.08C99.187 210.455 100.609 208.423 101.422 205.986C101.625 205.173 101.828 204.158 102.437 203.345C102.844 202.736 103.453 202.126 103.859 201.72C105.078 200.298 105.484 198.266 105.078 196.438C105.281 195.626 104.875 194.813 104.672 194Z" fill="#404040"/>
<path d="M104.672 192.985C104.062 189.328 101.828 172.061 101.015 167.186C100.406 163.529 99.7963 160.076 98.9837 156.419C98.1711 153.169 97.3586 150.325 97.3586 146.668C97.3586 137.933 99.9995 129.401 99.7963 120.869C99.39 108.884 93.0926 97.7113 85.9826 87.9604C85.9826 89.1793 86.1858 91.4139 85.5764 92.2264C84.7638 93.2421 82.9355 93.8516 81.9198 94.2579C79.279 95.2736 76.2319 95.6798 73.3879 95.0704C68.9188 94.0547 65.2622 91.2107 61.1994 89.1793C60.3868 88.773 60.3868 92.6327 60.1837 93.039C60.1837 93.8516 60.1837 94.8673 60.1837 95.6798C60.1837 96.6955 59.7773 97.7113 59.7773 98.727C59.7773 101.571 60.1836 104.415 60.7931 107.462C61.4025 111.119 62.4182 114.572 63.2308 118.025C63.4339 118.838 63.6371 119.651 64.0433 120.26C65.059 121.682 66.6842 122.088 68.3093 122.901C70.747 124.12 72.7784 126.557 73.9973 128.995C75.2161 131.433 76.0287 134.277 76.8413 136.918C77.6538 140.371 84.5606 166.576 85.7795 170.842C87.2015 176.124 90.4518 192.579 91.0612 195.626C91.0612 196.032 91.2644 196.438 91.4675 196.641C91.6706 197.048 92.0769 197.251 92.4832 197.454C94.5146 198.673 96.9523 198.673 99.1869 198.063C101.421 197.454 103.25 196.032 104.875 194.204C105.078 194.001 105.281 193.797 105.281 193.391C104.672 193.797 104.672 193.391 104.672 192.985Z" fill="#4BA677"/>
<path d="M54.2926 95.883C53.8863 96.8988 53.6832 97.7113 53.8863 98.727C54.2926 99.5396 54.6989 100.555 55.3083 101.165C56.5271 102.79 58.1523 104.009 59.7774 104.821C62.6214 106.243 65.6686 106.446 68.9188 106.65C75.4194 106.65 81.9199 105.228 88.0142 102.79C89.233 102.384 90.4519 101.774 91.2644 100.962C92.2802 99.9459 92.6864 98.5239 92.2802 97.305C91.8739 95.4768 91.0613 93.8516 90.4519 92.0233C90.0456 92.8359 88.8267 93.2422 88.0142 93.4453C80.2948 95.4768 71.9659 96.0862 64.6528 93.0391C62.012 92.0233 59.5743 90.3982 56.9335 89.3825C56.324 89.1794 55.9177 88.9762 55.3083 89.1794C54.0894 89.5856 54.6989 91.2108 54.6989 92.0233C54.902 93.2422 54.6989 94.461 54.2926 95.883Z" fill="#262626"/>
<path d="M57.5427 41.2379C57.5427 41.441 57.3395 41.441 57.3395 41.6442C56.7301 42.863 56.1207 43.8787 55.7144 45.3007C54.9018 47.5353 54.2924 49.973 53.8861 52.6138C52.8704 58.3018 51.8547 64.3961 52.0579 70.2872C52.0579 73.9437 52.6673 77.6003 53.2767 81.0537C53.683 84.1008 54.2924 87.3511 54.6987 90.3982C54.9018 91.6171 55.105 92.6328 55.5113 93.6485C56.9333 96.8988 60.3867 98.5239 63.6369 99.3365C72.9815 101.977 83.5449 101.165 92.28 96.8988C92.6862 96.6956 93.2957 96.4925 93.4988 95.8831C93.702 95.4768 93.9051 95.0705 93.9051 94.4611C95.9365 84.304 96.1396 73.9437 98.9836 64.1929C99.9993 60.5364 101.421 56.8798 100.812 53.2233C100.203 48.9573 96.7491 45.5039 93.4988 42.4567C90.2486 39.6128 86.9983 36.9719 83.5449 34.5342C82.1229 33.7216 82.326 32.9091 82.1229 31.2839C74.6066 33.9248 67.2935 36.7688 59.7773 39.4096C58.5584 40.2222 58.1521 40.4253 57.5427 41.2379Z" fill="#D9D9D9"/>
<path d="M69.3251 67.4431L67.0906 81.0536L71.3566 86.1322L79.4822 83.8976L81.7168 70.4902L69.3251 67.4431Z" fill="#F2F2F2"/>
<path d="M66.8873 48.1445C66.6841 48.3477 66.6841 48.5508 66.481 48.5508C66.481 48.754 66.481 49.1602 66.481 49.3634C66.481 49.9728 66.6841 52.0042 66.6841 52.4105C66.6841 52.8168 66.6841 53.0199 67.0904 53.4262C67.903 53.8325 68.9187 54.2388 69.7312 54.2388C69.9344 54.2388 70.3407 54.2388 70.5438 54.0356C70.7469 53.8325 70.9501 53.8325 70.9501 53.6294C72.169 52.2074 73.1847 50.7854 74.4035 49.1602L74.6066 48.9571C74.6066 48.754 74.6067 48.5508 74.4035 48.5508C73.7941 47.332 73.1847 46.1131 72.7784 44.6911C71.9658 45.3005 70.5438 45.3005 69.9344 44.488C69.7313 44.2848 69.5281 44.0817 69.325 44.2848L69.1218 44.488C68.7156 45.0974 68.7156 45.91 68.3093 46.5194C68.1061 46.9257 67.4967 47.5351 66.8873 48.1445Z" fill="#FFA600"/>
<path d="M66.8875 52.6138C62.2152 61.9583 57.9492 95.0704 57.9492 95.0704L59.7775 107.056L66.2781 99.1333L70.544 54.2389L66.8875 52.6138Z" fill="#FFA600"/>
<path d="M67.9031 40.6285C67.9031 41.0348 67.9031 41.4411 68.1062 41.8473C68.3094 42.4568 68.5125 43.0662 68.9188 43.4725C69.5282 44.6913 69.7313 45.9102 70.5439 46.9259L70.7471 47.129C70.9502 47.129 70.9502 47.129 71.1534 47.129C71.5596 46.9259 71.9659 46.7227 72.3722 46.3165C76.6382 43.0662 80.701 39.6128 83.9513 35.3468C84.1544 35.1437 84.3576 34.7374 84.1544 34.5342C84.1544 34.3311 83.9513 34.3311 83.9513 34.1279C82.9356 32.9091 82.5293 31.4871 82.123 29.862C81.9199 28.2368 81.9199 26.8148 81.9199 25.1897C81.3104 27.018 79.8885 28.6431 78.4665 29.6588C77.8571 30.0651 77.0445 30.4714 76.4351 30.6745C75.2162 31.0808 73.9973 31.0808 72.5753 31.0808C71.9659 31.0808 71.3565 31.284 70.7471 31.0808C70.5439 31.0808 69.3251 30.4714 69.3251 30.6745C68.9188 32.7059 68.7157 34.5342 68.3094 36.5656C68.1062 37.9876 67.9031 39.4096 67.9031 40.6285Z" fill="#663C33"/>
<path d="M81.5135 36.1594C80.7009 37.5814 79.4821 38.8002 78.2632 39.8159C75.6224 42.2536 72.5752 44.2851 69.5281 46.3165C71.3564 48.1447 72.7784 50.1762 73.9972 52.4107C75.2161 50.3793 77.0443 48.551 78.6695 46.9259C81.1072 44.2851 83.3418 41.6442 85.3732 38.8002C85.7795 38.1908 86.1857 37.5814 85.9826 36.9719C85.9826 36.3625 85.3732 35.9562 84.9669 35.3468C84.7637 35.1437 84.5606 34.9405 84.3575 34.5342C84.1543 34.128 84.1543 33.9248 84.1543 33.5185C84.1543 32.9091 83.9512 32.2997 83.748 31.6903C83.5449 31.4871 83.3418 31.284 83.1386 31.0808C82.9355 30.8777 82.5292 30.8777 82.3261 30.8777C82.3261 30.8777 82.326 30.8777 82.1229 30.8777C81.9198 31.6903 82.9354 32.0965 82.7323 32.9091C82.5292 34.128 82.1229 35.1437 81.5135 36.1594Z" fill="#F2F2F2"/>
<path d="M69.3251 34.7373C69.3251 34.9404 69.3251 34.9404 69.1219 35.1436C68.3094 36.7687 67.9031 38.3939 68.1062 40.2221C68.3094 41.8473 68.9188 43.4724 69.7314 44.8944C69.9345 45.0975 70.1377 45.3007 70.1377 45.707C70.3408 46.3164 69.7314 46.5195 69.3251 46.9258C68.9188 47.3321 68.3094 47.9415 67.9031 48.3478C67.2937 48.9572 66.278 49.3635 65.2623 49.1604C65.0591 49.1604 64.856 49.1604 64.856 48.9572C64.856 48.7541 64.856 48.551 64.856 48.551C65.2622 47.3321 65.8717 46.1133 65.8717 44.8944C66.0748 43.2693 65.6685 41.6441 65.8717 40.019C66.4811 37.9876 67.9031 36.1593 69.3251 34.7373Z" fill="#F2F2F2"/>
<path d="M60.5899 14.6261C59.9805 16.6575 59.7773 18.689 59.9805 20.7204C60.3868 23.1581 60.7931 25.5958 61.1993 28.0335C61.4025 29.4555 61.8088 30.8775 62.0119 32.5026C62.215 33.3152 62.4182 34.3309 62.8245 34.9403C63.0276 35.3466 63.2307 35.7529 63.637 35.956C64.0433 36.1592 64.2464 36.3623 64.6527 36.3623C66.481 36.7686 68.3093 36.3623 70.1376 35.956C72.3721 35.3466 74.6067 34.534 76.8412 33.5183C77.8569 33.112 79.0758 32.5026 79.8884 31.4869C80.7009 30.6743 81.3104 29.4555 81.1072 28.2366C82.5292 28.0335 83.7481 27.0178 84.5607 26.0021C85.3732 24.7832 85.9827 23.5644 86.5921 22.1424C88.0141 17.6733 88.0141 12.5947 85.5764 8.53187C84.9669 7.51616 84.1544 6.50045 83.1386 5.68788C78.2632 1.4219 70.747 2.43761 66.0747 6.50045C63.4339 8.53187 61.4024 11.3759 60.5899 14.6261Z" fill="#874F43"/>
<path d="M88.8267 21.3299C90.2487 19.2985 90.6551 16.2514 89.2331 14.2199C89.8425 12.1885 89.2331 9.75081 87.6079 8.32882C87.4048 6.2974 85.7796 4.46912 83.7482 4.06284C82.7325 2.4377 80.4979 1.42199 78.6697 1.82827C78.4665 1.82827 78.2634 1.82827 78.0602 1.82827C77.8571 1.82827 77.8571 1.62513 77.6539 1.62513C76.4351 0.812565 74.6068 0.609423 73.1849 1.21885C72.9817 1.21885 72.7785 1.42199 72.5754 1.42199C72.3723 1.42199 72.1691 1.42199 71.7628 1.42199C70.1377 1.21885 68.3094 2.4377 67.9032 3.85969C65.8717 3.85969 64.2466 5.48483 64.0435 7.31311C63.0278 7.31311 62.2152 7.92253 61.8089 8.7351C61.4026 9.95395 61.8089 11.3759 63.434 11.1728C64.0434 10.9697 64.4497 10.5634 64.4497 10.1571C65.2623 10.1571 66.0749 10.3602 66.8874 10.1571C67.7 9.95395 68.5126 9.54767 68.9189 8.93824C68.5126 9.54767 68.9188 10.5634 69.5283 10.9697C70.1377 11.5791 70.7471 11.7822 71.5597 11.9854C71.1534 12.7979 71.7629 13.8136 72.3723 14.4231C73.1849 15.0325 73.9974 15.2356 75.0131 15.4388C74.81 16.4545 75.2163 17.2671 75.8257 18.0796C76.4351 18.6891 77.0445 19.2985 77.6539 19.9079C77.0445 20.3142 77.0446 21.1268 77.2477 21.9393C77.4508 22.7519 78.0603 23.1582 78.4666 23.5645C78.6697 23.5645 78.6697 23.7676 78.8728 23.9707C78.8728 24.1739 78.8728 24.1739 78.8728 24.377C78.6697 24.9865 78.6697 25.799 79.076 26.2053C79.4822 26.8147 80.0916 27.0179 80.7011 27.0179C80.9042 25.799 81.1074 24.5802 81.7168 23.7676C81.9199 23.3613 82.3262 22.955 82.7325 22.955C83.3419 22.7519 83.9514 23.1582 84.3577 23.7676C85.1702 24.9865 84.5608 26.6116 83.5451 27.6273C84.5608 27.4242 85.3734 27.0179 86.1859 26.6116C87.2016 26.0022 88.2174 25.1896 88.4205 24.1739C88.4205 23.7676 88.4205 23.1582 88.0142 22.955C88.2173 22.7519 88.2174 22.5487 88.4205 22.3456C88.4205 21.7362 88.6236 21.533 88.8267 21.3299Z" fill="#424242"/>
<path d="M36.4161 114.166C35.8067 115.588 35.1973 117.01 34.791 118.635C34.791 119.041 34.791 119.651 35.1973 120.057C35.4004 120.26 35.8067 120.26 36.0098 120.26C36.4161 120.26 36.6193 120.057 36.8224 119.854C38.0413 118.838 38.6507 117.213 39.2601 115.791C39.4632 115.181 40.0727 114.572 40.2758 113.963C40.6821 113.15 41.0884 112.338 41.4947 111.525C41.901 110.712 42.3073 109.9 41.901 109.087C41.4947 108.478 40.6821 108.072 39.8696 108.072C39.057 108.072 38.4475 108.681 38.0412 109.29C37.635 109.697 37.4318 110.306 37.2287 110.916C37.0255 111.322 37.0255 111.728 37.0255 112.338C37.0255 112.744 36.6193 113.353 36.4161 114.166Z" fill="#874F43"/>
<path d="M72.5752 214.721C75.6223 216.346 79.0758 217.362 82.5292 218.174C82.9355 218.174 83.1387 218.378 83.5449 218.581C83.7481 218.784 83.9512 219.19 84.1543 219.596C85.9826 224.269 87.8109 228.941 88.4203 233.816C88.6235 235.645 88.6235 237.676 89.2329 239.301C90.2486 242.145 93.9051 239.098 94.9208 237.676C96.1397 236.051 96.7491 234.019 96.9523 232.191C96.9523 231.582 96.9523 231.175 96.9523 230.566C96.7491 229.957 96.3428 229.347 95.9365 228.941C94.1083 227.113 92.0769 225.488 90.6549 223.253C89.8423 221.831 89.2329 220.206 88.8266 218.784C88.4203 217.362 87.8109 215.94 87.2015 214.315C86.3889 212.486 85.1701 211.268 83.3418 210.049C80.7009 208.424 78.4663 206.595 76.8412 203.954C75.0129 200.907 74.6066 197.251 72.5752 194.407C72.3721 194.204 72.169 194.001 71.9658 193.797C71.7627 193.797 71.3564 193.797 71.1533 194.001C69.325 194.813 67.4967 195.829 65.8716 197.048C64.2464 198.47 63.2307 200.298 63.0276 202.329C63.0276 208.017 68.1061 212.486 72.5752 214.721Z" fill="#1A1A1A"/>
<path d="M28.6967 221.831C28.4935 226.097 28.8998 230.363 29.1029 234.629C29.5092 240.52 29.5092 246.208 29.3061 252.099C29.3061 252.708 29.3061 253.115 29.1029 253.724C28.6967 254.334 28.0873 254.74 27.681 255.146C26.4621 255.959 25.6495 257.381 25.4464 258.803C25.4464 259.412 25.2432 260.631 26.0558 260.631C26.0558 261.037 26.0558 261.647 26.0558 262.053C27.2747 262.053 28.2904 261.85 29.3061 261.444C29.3061 261.647 29.3061 261.85 29.1029 261.85C30.7281 261.85 32.5563 261.647 33.9783 261.037C36.2129 260.225 38.0412 257.99 37.8381 255.756C37.8381 254.537 37.2286 253.115 37.0255 251.896C36.8223 250.88 37.0255 249.661 37.0255 248.646C37.838 241.333 38.6506 234.019 41.4946 227.113C43.1197 222.847 45.5575 218.987 46.9795 214.721C47.5889 212.893 47.9951 210.861 47.1826 209.033C45.9637 206.595 43.1197 205.783 40.4789 205.376C38.6506 205.173 36.8223 204.97 35.1972 205.376C29.7124 207.408 28.8998 216.955 28.6967 221.831Z" fill="#1A1A1A"/>
<path d="M93.7021 166.779C94.921 165.357 96.3429 164.342 97.968 163.123C100.203 161.498 102.844 160.076 103.859 157.435C103.859 157.841 104.062 158.247 104.062 158.654C106.297 157.232 107.719 154.997 108.735 152.56C109.75 150.122 110.36 147.481 110.766 144.84C110.969 143.621 111.375 142.606 111.985 141.793C112.797 140.777 113.61 141.184 114.626 141.59C118.485 143.621 122.751 147.887 123.97 152.153C124.377 153.372 124.58 154.794 124.376 156.013C123.767 159.873 120.517 162.513 117.063 164.342C115.641 165.154 114.219 165.764 112.594 166.17C109.141 167.389 105.484 168.201 102.64 170.436C103.047 170.233 103.656 170.233 104.062 170.639C101.828 171.249 99.9995 172.264 98.3744 173.889C96.7492 175.515 95.7335 177.546 94.9209 179.577C93.2958 183.64 88.0141 184.656 87.4047 179.577C86.9984 176.327 88.6236 172.874 90.4518 170.233C91.6707 169.217 92.6864 167.998 93.7021 166.779Z" fill="#424242"/>
<path d="M95.9366 198.673C94.9209 200.704 93.4989 202.532 91.8737 204.361C90.4518 205.783 88.6235 208.017 86.7952 209.033C87.2015 208.83 87.6078 208.627 88.0141 208.423C82.5292 214.315 76.435 219.393 69.7313 223.862C68.9187 224.472 67.903 225.081 67.0905 225.69C62.2151 228.738 56.9334 231.378 51.6517 233.41C52.058 234.019 52.4643 234.629 53.0737 235.238C47.5889 235.644 41.9008 235.644 37.0254 233.004C31.7437 230.16 28.2903 224.878 25.0401 219.799C24.8369 220.409 24.837 221.221 24.6338 221.831C23.415 220.002 22.3992 217.768 21.9929 215.533C21.7898 214.518 21.5867 213.502 21.3835 212.486C21.3835 212.283 21.3835 212.08 21.1804 211.674C20.9772 209.845 20.7741 208.017 20.7741 206.189C20.7741 205.173 20.3678 202.532 20.7741 201.517C20.9772 201.313 21.1804 201.11 21.5867 201.11C25.6495 200.095 29.1029 197.454 31.7438 194.203C33.3689 192.375 34.5878 190.344 35.8066 188.312C36.8223 186.484 37.4317 184.453 38.6506 182.828C40.682 180.39 43.526 181.609 46.1668 182.421C47.1825 182.624 48.1982 183.031 49.2139 183.031C50.0265 183.031 50.8391 183.234 51.6517 183.234C53.2768 183.234 54.6988 183.031 56.3239 182.624C57.949 182.218 59.3711 181.812 60.7931 180.999C60.7931 181.406 60.7931 181.812 60.7931 182.218C64.2465 179.78 67.903 177.343 71.7627 175.718C75.6224 173.889 79.8884 172.874 84.1544 173.28C83.9512 173.28 83.545 173.483 83.545 173.889C83.545 173.483 88.2172 173.889 88.6235 173.889C90.2487 174.296 92.0769 174.905 93.4989 175.921C96.1398 177.749 97.968 181.812 98.5775 184.859C99.1869 189.734 97.968 194.407 95.9366 198.673Z" fill="#262626"/>
<path d="M64.6528 191.563H62.2152V164.139L76.2319 136.105C76.4351 135.902 76.2319 135.699 76.0288 135.496L58.7617 125.135C58.5586 124.932 58.1523 125.135 57.9492 125.338L41.6978 150.122L40.0726 186.281L37.8381 185.875L39.6664 149.309L56.324 124.12C57.1366 122.901 58.9649 122.494 60.1837 123.307L77.4508 133.667C78.6697 134.48 79.0759 136.105 78.4665 137.324L64.6528 164.748V191.563Z" fill="#FF903D"/>
<path d="M20.774 208.423C23.618 208.423 26.4621 207.205 28.4935 205.173C28.8998 205.986 29.7123 206.189 30.5249 205.986C31.3375 205.783 31.9469 205.173 32.5563 204.767C35.6034 201.923 38.2443 198.673 39.6663 194.61C40.2757 194.813 40.8851 194.407 41.2914 194C41.9008 193.594 42.3071 192.985 42.9166 192.578C43.1197 192.375 43.1197 192.375 43.3228 192.172C43.3228 191.969 43.3228 191.766 43.3228 191.766C43.3228 187.906 43.1197 184.046 42.5103 180.39C41.0883 180.187 39.6663 179.171 38.4474 178.358C36.416 176.936 34.3846 176.733 31.9469 176.124C31.1343 175.921 30.3218 175.718 29.5092 175.718C29.306 175.718 29.306 175.718 29.1029 175.718L28.8997 175.921C28.2903 178.155 28.2903 180.39 27.4778 182.624C26.8683 184.656 25.8526 186.687 24.6338 188.515C22.3992 191.563 19.3521 194.203 16.1018 196.235C16.1018 196.235 17.9301 198.673 18.1332 198.876C18.7427 199.688 18.9458 200.298 19.1489 201.517C19.7584 203.751 20.1646 206.189 20.774 208.423Z" fill="#1A1A1A"/>
<path d="M86.5921 216.955C86.9983 217.565 87.6077 218.174 87.8109 218.987C88.014 219.596 88.014 220.206 88.014 220.815C88.2171 224.065 88.4203 227.519 88.6235 230.769C88.8266 233.207 88.8266 235.848 87.8109 238.285C86.9983 239.911 85.7795 241.129 85.17 242.754C84.5606 244.176 84.5606 245.802 84.9669 247.224C84.9669 247.224 84.9669 247.427 85.17 247.427C85.3732 247.427 85.3732 247.224 85.5763 247.224C85.5763 247.224 85.3732 248.442 85.3732 248.646C86.1858 248.849 86.9983 248.646 87.6078 248.036C87.6078 248.239 87.6077 248.442 87.4046 248.646C89.0297 248.239 90.4517 247.427 91.6706 246.411C92.4832 245.802 93.2957 244.989 93.9051 243.973C94.3114 243.364 94.5146 242.551 94.5146 241.942C94.5146 241.129 94.3114 240.52 93.9051 239.91C93.2957 238.285 93.4989 236.66 93.702 234.832C94.5146 229.55 95.3272 224.065 95.7334 218.784C95.9366 217.362 95.9365 215.737 95.9365 214.315C95.9365 213.096 95.7334 212.08 95.7334 210.861C95.7334 208.83 96.7491 206.798 97.3585 204.767C98.7805 201.11 99.5931 197.048 99.1868 193.188C98.9837 189.938 97.5617 186.89 93.9051 187.094C92.0768 187.094 90.4517 187.906 89.0297 188.922C81.9197 193.797 79.0757 203.954 82.7323 211.674C84.1543 213.502 85.1701 215.33 86.5921 216.955Z" fill="#424242"/>
<path d="M49.8234 219.596C47.3857 229.347 46.1668 239.504 45.3542 249.661C45.3542 250.474 45.1511 251.286 45.5574 251.896C45.7605 252.505 46.1668 252.912 46.37 253.521C49.0108 256.974 52.058 260.022 55.1051 263.272C55.9177 264.084 56.9334 265.1 58.1522 265.506C59.1679 265.913 60.1836 265.71 61.1994 265.303C61.1994 265.303 61.4024 265.303 61.4024 265.1V264.897C62.0119 264.694 62.4182 264.491 63.0276 264.288C63.0276 263.881 63.0276 263.678 63.0276 263.272C63.2308 263.272 63.4339 263.069 63.4339 262.662C63.637 261.24 63.4339 259.818 62.6213 258.803C62.215 258.193 61.6056 257.584 60.793 257.584C60.3868 257.381 59.7773 257.584 59.371 257.381C58.5585 257.178 58.1522 256.568 57.7459 255.959C56.7302 254.74 55.9177 253.318 54.9019 252.099C54.4957 251.693 54.0894 251.083 54.0894 250.474C53.8862 249.458 54.0893 248.442 54.4956 247.427C57.5428 239.301 61.8088 231.582 62.8245 222.847C63.2307 220.206 63.2308 217.159 61.1994 215.33C60.1836 214.518 58.9648 213.908 57.7459 213.705C56.7302 213.502 55.5113 213.502 54.2925 213.908C52.2611 214.315 50.2297 217.362 49.8234 219.596Z" fill="#424242"/>
<path d="M14.883 170.639C14.0704 170.436 13.0547 170.436 12.2422 170.842C11.2265 171.248 10.4139 172.264 10.0076 173.28C8.58561 175.718 8.38247 178.765 8.99189 181.609C10.4139 179.171 12.2422 176.936 14.4768 175.514C15.2893 175.108 16.305 174.702 16.9144 173.889C17.5238 173.483 18.3364 172.061 17.727 171.452C17.3207 170.842 15.6956 170.639 14.883 170.639Z" fill="#1A1A1A"/>
<path d="M16.7114 204.361C18.7428 203.142 20.7742 201.72 22.6025 200.298C25.4465 198.063 28.0874 195.626 30.7282 193.188C31.9471 192.172 32.9628 190.953 33.7753 189.735C34.3848 188.922 34.791 187.906 34.9941 186.891C34.9941 186.484 34.9941 185.875 35.1973 185.469C35.1973 184.859 35.4004 184.25 35.4004 183.64C35.6036 180.187 33.5721 176.937 31.1344 174.702C28.8999 172.671 26.0559 171.249 23.2119 170.842C20.1648 170.436 17.1176 171.045 14.6799 172.671C13.4611 173.483 12.4454 174.499 11.4297 175.515C10.2109 176.937 8.992 178.765 8.17943 180.593C7.57001 182.015 7.36683 183.437 7.56997 184.859C7.77311 186.281 7.77315 187.906 7.16372 189.125C6.75744 189.938 6.35113 190.547 5.7417 191.157C4.72599 192.579 3.71028 194.001 2.69458 195.423C2.08515 196.032 1.6789 196.845 1.27262 197.454C0.866335 198.266 0.663168 199.079 0.86631 199.892C0.86631 200.298 1.06948 200.704 1.27262 201.11C1.88204 202.532 1.882 204.158 3.50713 204.97C3.91341 205.173 4.52287 205.376 4.92915 205.58C5.33543 205.783 5.94488 205.986 6.35117 206.189C8.17944 206.798 10.0077 206.595 11.836 205.986C13.6642 205.986 15.2894 205.173 16.7114 204.361Z" fill="#424242"/>
<path d="M4.72587 203.954C7.16357 204.97 9.80444 204.767 12.2421 203.751C14.6798 202.736 16.7113 201.11 18.5396 199.282C18.9458 198.876 19.5552 198.47 19.9615 198.063C20.1647 198.47 19.9615 198.876 19.7584 199.282C18.9458 200.704 17.727 201.72 16.5081 202.532C15.4924 203.345 14.2736 204.157 13.0547 204.767C11.8358 205.376 10.617 205.783 9.19502 205.783C7.36674 205.783 5.74159 204.97 3.91331 204.361C3.71017 204.361 3.50705 204.157 3.30391 204.157C3.10077 204.157 3.10075 204.157 2.8976 204.157C2.49132 204.157 2.08504 203.751 1.88189 203.548C1.67875 203.142 1.47559 202.735 1.47559 202.329C1.67873 202.532 1.88192 202.736 2.2882 202.736C2.49135 202.736 2.69446 202.532 2.8976 202.736C3.10075 202.939 3.30386 203.142 3.50701 203.345C4.11643 203.548 4.31959 203.751 4.72587 203.954Z" fill="#1A1A1A"/>
<path d="M27.681 178.562C27.0716 180.187 26.8684 181.812 26.8684 183.64C26.8684 186.484 27.4778 189.328 28.0873 192.172C28.4936 193.594 28.8999 195.219 29.5093 196.438C30.3219 197.86 31.5407 198.876 32.9627 199.282C33.3689 199.282 33.7752 199.485 34.1815 199.282C34.791 199.079 35.1973 198.469 35.4004 197.86C35.6035 197.251 35.6036 196.641 35.8067 196.032C36.4161 193.188 39.057 190.953 41.901 190.953C42.1041 190.953 42.3072 190.953 42.5104 190.953C42.7135 190.953 42.7135 190.75 42.9167 190.547C43.5261 189.531 43.7292 188.109 43.7292 186.89C43.5261 185.672 43.1198 184.453 42.5104 183.437C41.4947 181.609 40.2758 180.187 38.8538 178.765C38.0413 177.952 37.0255 177.343 36.0098 176.733C34.7909 175.921 33.3689 175.311 31.947 175.311C29.7124 175.514 28.2905 176.936 27.681 178.562Z" fill="#5C5C5C"/>
<path d="M17.727 187.5C17.3208 187.5 16.9145 187.5 16.5082 187.703C16.102 187.906 15.4925 188.312 15.6956 188.719C15.8988 189.125 16.5082 189.328 16.9145 189.531C18.1333 189.937 19.3522 189.734 20.5711 189.328C20.9774 189.125 20.7742 188.719 20.3679 188.312C20.1648 188.109 19.9616 188.109 19.7585 187.906C19.149 187.5 18.3365 187.5 17.727 187.5Z" fill="#1A1A1A"/>
<path d="M8.38244 186.484L8.58553 186.687H8.78869L8.99184 186.484C8.99184 185.875 8.99182 185.265 8.58553 184.859C8.38239 184.656 8.17927 184.453 7.97613 184.453C7.56985 184.453 7.56982 185.265 7.56982 185.468C7.77297 185.671 7.97616 186.281 8.38244 186.484Z" fill="#1A1A1A"/>
<path d="M1.06939 199.892C1.27254 200.095 1.2725 200.298 1.47564 200.501C1.67878 200.704 1.6788 201.11 1.6788 201.314C1.88194 201.72 2.89768 203.548 3.30397 202.736C3.30397 202.532 3.30397 202.329 3.30397 202.126C3.30397 201.923 3.10083 201.72 3.30397 201.517C3.50711 201.314 3.91339 201.314 4.31968 201.517C4.72596 201.72 5.13225 201.72 5.33539 201.517C5.33539 201.314 5.53848 201.314 5.53848 201.11C5.74162 199.485 4.52281 198.063 3.10081 197.86C2.89767 197.86 2.89765 197.86 2.69451 197.86C2.49136 197.86 2.4914 197.657 2.28826 197.454C1.67883 196.844 1.06937 197.454 0.663086 198.063C0.663086 198.47 0.663111 199.282 1.06939 199.892Z" fill="#1A1A1A"/>
<path d="M13.0548 176.936C12.8517 177.749 12.8517 178.765 12.8517 179.577C12.6485 181.202 12.2422 182.624 11.6328 184.249C11.4297 184.859 11.2266 185.265 11.2266 185.875V186.078C11.2266 186.281 11.4297 186.078 11.6328 186.078C12.6485 185.265 12.8517 183.843 13.258 182.624C13.8674 180.796 15.0863 179.171 16.5083 177.952C17.3208 177.343 17.9302 176.936 18.7428 176.53C19.9616 176.124 21.1805 175.921 22.1962 175.718C22.8056 175.514 23.415 175.311 23.8213 174.905C24.0245 174.702 24.4308 174.296 24.4308 174.092C24.4308 173.889 24.2276 173.483 24.0245 173.28C23.8213 173.077 23.4151 173.077 23.2119 173.077C22.3994 173.077 21.5868 173.28 20.7742 173.483C20.1648 173.686 18.946 173.889 18.5397 173.28C18.5397 173.077 18.3365 173.077 18.3365 172.874C18.1334 172.67 17.7271 172.67 17.524 172.67C16.9145 172.67 16.3051 173.077 15.8988 173.28C14.8831 173.889 13.8674 174.702 13.4611 175.718C13.258 176.124 13.0548 176.53 13.0548 176.936Z" fill="#262626"/>
<path d="M22.6025 187.703C22.1962 186.687 21.5868 185.875 20.7742 185.265C20.1648 184.859 19.5554 184.656 18.9459 184.656C17.7271 184.25 16.3051 184.25 15.0862 184.656C14.68 184.859 14.0705 185.062 13.8674 185.468C13.8674 185.671 13.6642 185.671 13.8674 185.875H14.0705C14.8831 186.078 15.6957 185.875 16.3051 186.281C16.102 186.484 16.1019 186.484 15.8988 186.484C17.1177 186.281 18.3365 186.281 19.5554 186.484C20.368 186.687 21.5868 187.093 22.6025 187.703Z" fill="#262626"/>
<path d="M7.56993 182.421C7.56993 182.421 7.56994 182.625 7.77308 182.625L7.97623 182.828C7.97623 183.031 7.77307 183.031 7.56993 183.234C7.36678 183.437 8.1794 183.843 8.38254 184.047C8.58569 184.25 8.7888 184.25 8.99194 184.453C9.19509 184.656 9.19511 184.859 9.39825 184.859C9.39825 184.859 9.3982 184.859 9.60135 184.859H9.8045V184.656C10.0076 184.047 9.60137 183.234 8.99194 182.828C8.58566 182.421 7.97621 182.421 7.56993 182.421Z" fill="#262626"/>
<path d="M18.1334 189.531C18.6943 189.531 19.1491 189.076 19.1491 188.515C19.1491 187.955 18.6943 187.5 18.1334 187.5C17.5724 187.5 17.1177 187.955 17.1177 188.515C17.1177 189.076 17.5724 189.531 18.1334 189.531Z" fill="#FF9000"/>
<path d="M18.1333 189.125C18.4699 189.125 18.7427 188.852 18.7427 188.516C18.7427 188.179 18.4699 187.906 18.1333 187.906C17.7968 187.906 17.5239 188.179 17.5239 188.516C17.5239 188.852 17.7968 189.125 18.1333 189.125Z" fill="#424242"/>
<path d="M17.9302 188.516C18.1546 188.516 18.3365 188.334 18.3365 188.109C18.3365 187.885 18.1546 187.703 17.9302 187.703C17.7058 187.703 17.5239 187.885 17.5239 188.109C17.5239 188.334 17.7058 188.516 17.9302 188.516Z" fill="white"/>
<path d="M8.78879 185.265C8.99193 185.671 8.78877 186.078 8.58563 186.078C8.38249 186.078 7.97623 185.875 7.97623 185.468C7.77309 185.062 7.97624 184.656 8.17939 184.656C8.38253 184.656 8.78879 184.859 8.78879 185.265Z" fill="#FF9000"/>
<path d="M8.58572 185.265C8.58572 185.468 8.58577 185.671 8.38263 185.671C8.17949 185.671 8.17946 185.468 7.97632 185.265C7.97632 185.062 7.97633 184.859 8.17947 184.859C8.38261 185.062 8.58572 185.062 8.58572 185.265Z" fill="#1A1A1A"/>
<path d="M8.3826 185.062C8.3826 185.265 8.3826 185.265 8.3826 185.265C8.3826 185.265 8.17944 185.265 8.17944 185.062C8.17944 184.859 8.17944 184.859 8.17944 184.859C8.38259 184.859 8.3826 184.859 8.3826 185.062Z" fill="white"/>
<path d="M10.0076 189.938C8.99186 192.172 7.97616 194.61 6.14789 196.438C5.7416 197.048 5.13214 197.454 4.52271 197.657C4.31957 197.657 4.31961 197.657 4.11647 197.657C3.91333 197.454 3.91333 197.251 4.11647 196.844C5.33532 193.594 7.77301 190.75 10.0076 187.906C10.4139 187.297 10.8201 186.89 11.0233 186.281C11.6327 184.656 10.8201 182.421 10.0076 180.999C9.80443 180.796 9.80442 180.593 9.80442 180.39C9.80442 179.781 10.617 179.577 11.0233 179.781C11.4296 179.984 11.6327 180.593 11.8358 181.203C11.8358 181.812 11.8359 182.218 12.2421 182.828C12.2421 183.031 12.4453 183.031 12.4453 183.234C12.6484 183.437 13.0547 183.234 13.461 183.031C14.883 182.218 16.5081 181.609 18.1332 181.609C18.3364 181.609 18.5395 181.609 18.7426 181.609C18.9458 181.812 19.1489 182.015 18.9458 182.218C18.7427 182.828 17.3207 182.828 16.7112 183.031C15.6955 183.234 14.883 183.64 14.0704 184.046C13.461 184.656 12.8516 185.265 12.4453 185.875C11.2264 187.094 10.617 188.516 10.0076 189.938Z" fill="#5C5C5C"/>
<path d="M64.6528 191.563C64.4496 194 63.0276 196.235 61.6057 198.266C57.3397 204.158 52.4643 208.83 46.9795 212.08C41.4946 215.33 35.4004 216.956 29.5093 216.956C28.6967 216.956 28.0872 216.956 27.2747 216.956C25.2433 216.752 23.415 216.346 21.7898 215.534C21.5867 214.518 21.3836 213.502 21.1804 212.486C23.2118 213.705 25.0401 214.315 27.4778 214.518C33.5721 214.924 40.0726 213.299 45.7606 210.049C51.0423 207.002 55.7145 202.532 59.7774 196.844C60.9962 195.219 62.2151 193.391 62.4182 191.36L64.6528 191.563Z" fill="#FF903D"/>
<path d="M70.5438 218.174C70.3406 220.003 70.1375 221.831 69.7312 223.659C68.9187 224.269 67.903 224.878 67.0904 225.487C67.4967 223.05 67.903 220.612 68.3093 218.174C69.1218 209.033 67.903 201.314 64.8558 195.219C61.8087 189.531 56.9333 185.265 51.6516 183.64C53.2767 183.64 54.6987 183.437 56.3239 183.031C60.793 185.468 64.4496 189.328 67.0904 194C70.1375 200.501 71.5595 208.627 70.5438 218.174Z" fill="#FF903D"/>
<path d="M100.203 81.4598C100.203 81.2566 100.203 81.2567 99.9995 81.0535C99.9995 81.0535 99.7963 80.8504 99.5932 80.8504C97.5618 80.2409 95.5304 79.6315 93.2958 80.0378C91.4675 80.4441 89.8424 81.4598 89.0298 83.0849C88.0141 84.9132 88.2172 86.7415 88.2172 88.7729C88.2172 90.6012 88.6235 92.6326 88.4204 94.4609C88.2173 96.086 87.2015 97.9143 86.389 99.3363C83.9513 103.805 81.5136 108.275 79.0759 112.541C78.0601 114.166 77.2476 115.791 76.0287 117.213C75.2162 118.228 74.2004 120.666 72.7784 121.072C72.169 121.276 71.3565 121.479 70.747 121.479C68.9187 121.682 67.2936 121.682 65.4653 121.479C65.059 121.479 64.4496 121.479 64.0434 121.682C63.6371 121.885 63.434 122.088 63.2308 122.291C61.8088 123.916 60.5899 125.542 59.7774 127.573C59.5742 127.979 59.5742 128.182 59.5742 128.589C59.7774 129.198 60.1837 129.401 60.7931 129.808C60.9962 129.808 60.9962 130.011 61.1994 130.011C61.4025 130.214 61.4025 130.417 61.4025 130.417C61.6056 131.433 62.8245 132.042 63.8402 131.839C64.4496 132.855 65.6685 133.261 66.8873 132.855C67.4968 133.667 68.7156 133.87 69.7313 133.464C70.747 133.058 71.1533 132.042 71.7627 131.026C71.7627 130.823 71.9659 130.823 71.9659 130.62C72.169 130.62 72.1691 130.62 72.3722 130.62C77.4507 130.417 81.1073 125.745 83.9513 122.088C85.5764 120.057 86.9984 118.228 88.4204 116.197C91.2644 112.134 98.7806 100.149 99.5932 98.3206C100.812 95.6797 101.015 92.8357 101.015 89.9917C101.421 87.554 101.015 84.3038 100.203 81.4598Z" fill="#874F43"/>
<path d="M103.656 59.9268C103.453 58.5048 103.047 56.8796 102.437 55.4576C101.625 53.0199 100.609 50.3791 98.3743 48.9571C94.5146 46.3163 91.6707 51.5979 90.4518 54.4419C90.2487 54.8482 90.2487 55.0514 90.0455 55.4576C86.9984 63.7865 85.9827 72.7247 86.1858 81.4598C86.1858 83.0849 86.1858 84.7101 86.389 86.3352C86.5921 88.5698 88.6235 88.7729 90.4518 89.1792C92.8895 89.5855 95.5303 89.5855 98.1712 89.3823C98.7806 89.3823 99.5932 89.1792 100.203 88.9761C101.625 88.5698 103.656 88.1635 104.265 86.7415C104.469 86.5384 104.469 86.1321 104.469 85.7258C104.469 81.8661 104.672 68.0524 104.265 65.0053C104.062 63.177 103.859 61.5519 103.656 59.9268Z" fill="#F2F2F2"/>
<path d="M66.6841 105.634C66.6841 106.243 66.6841 106.65 66.8873 107.259C67.2935 107.868 68.5124 108.072 69.1218 108.478C69.325 107.056 69.3249 105.431 69.5281 104.009C69.5281 103.399 69.5281 102.79 69.5281 102.18C69.5281 101.774 69.5281 101.165 69.9344 100.962C70.3407 100.758 70.1375 100.352 69.7312 100.149C69.5281 99.9458 69.325 99.7427 69.1218 99.7427C68.9187 99.7427 68.7156 99.5396 68.3093 99.5396C67.903 99.5396 67.4967 99.5395 67.0904 99.7427C66.8873 99.9458 66.6841 100.149 66.481 100.555C66.481 101.571 66.6841 104.821 66.6841 105.634Z" fill="#4BA677"/>
<path d="M54.2925 100.758C54.4956 101.774 55.5114 102.587 56.3239 102.79C56.1208 101.774 56.1208 100.962 56.1208 99.9459C56.324 99.3365 56.3239 98.5239 56.5271 97.9145C56.5271 97.5082 56.7303 96.4925 57.1365 96.4925C57.1365 96.4925 57.3396 96.4925 57.3396 96.6957C57.3396 96.0862 56.9334 95.4768 56.3239 95.0705C56.1208 94.8674 55.9177 94.8674 55.7145 94.8674C55.1051 94.6642 54.902 95.6799 54.6988 96.0862C54.0894 97.5082 53.6831 98.9302 53.6831 100.352C54.2925 100.555 54.2925 100.555 54.2925 100.758Z" fill="#338259"/>
</svg>
