<?xml version="1.0" encoding="UTF-8"?>
<!-- Generator: CustomSymbols v2.6.7.45 by @serious_bret https://bretlester.com/app_content/CustomSymbols/ -->
<!-- Guides: Left/Right 0.0/0.0 Cap/Base 0.022/0.022 -->
<!-- Settings: RefScale 1.0 Min/Max Stroke Scales 0.5/2.21 -->
<!DOCTYPE svg
PUBLIC "-//W3C//DTD SVG 1.1//EN"
       "http://www.w3.org/Graphics/SVG/1.1/DTD/svg11.dtd">
<svg version="1.1" xmlns="http://www.w3.org/2000/svg" xmlns:xlink="http://www.w3.org/1999/xlink" width="3300" height="2200">
<![CDATA[<svg width="25" height="25" viewBox="0 0 25 25" fill="none" xmlns="http://www.w3.org/2000/svg">
<path fill-rule="evenodd" clip-rule="evenodd" d="M12.3793 2.5C9.44527 2.5 7.06677 4.88864 7.06677 7.83517C7.06677 10.7817 9.44527 13.1703 12.3793 13.1703C15.3133 13.1703 17.6918 10.7817 17.6918 7.83517C17.6918 4.88864 15.3133 2.5 12.3793 2.5ZM12.3793 3.94767C14.5172 3.94767 16.2503 5.68816 16.2503 7.83517C16.2503 9.98218 14.5172 11.7227 12.3793 11.7227C10.2414 11.7227 8.5083 9.98218 8.5083 7.83517C8.5083 5.68816 10.2414 3.94767 12.3793 3.94767ZM10.205 15.3209C9.42733 15.3749 8.64121 15.4859 7.8658 15.6521C6.36918 15.9604 5.17185 16.5763 4.66224 17.5999C4.47003 18.0002 4.37339 18.4288 4.37502 18.8627C4.37444 19.2935 4.4703 19.7227 4.65562 20.1153C5.14494 21.1271 6.2028 21.6997 7.63124 22.0171L7.88713 22.0705C8.64148 22.2407 9.42784 22.3553 10.2195 22.409C10.2869 22.4288 10.4476 22.4472 10.623 22.4561L10.7672 22.4615C10.8414 22.4633 10.9256 22.4637 11.051 22.4637C12.1888 22.5263 13.3684 22.5081 14.5425 22.4081C15.1682 22.3653 15.7981 22.2835 16.4227 22.1636L16.8901 22.0666C18.4326 21.7623 19.5876 21.1836 20.0936 20.1164C20.4687 19.3241 20.4687 18.4047 20.0938 17.6127C19.589 16.5483 18.4487 15.9744 16.8784 15.6509C16.2623 15.5194 15.6362 15.422 15.0057 15.3599L14.5447 15.3209C13.1009 15.1935 11.6488 15.1935 10.205 15.3209ZM14.4186 16.763L14.4312 16.764C15.1549 16.8149 15.8741 16.9165 16.5837 17.068C17.7501 17.3083 18.5417 17.7067 18.7921 18.2348C18.9807 18.633 18.9807 19.0958 18.7919 19.4944C18.5579 19.9879 17.847 20.3691 16.8195 20.6021L16.5945 20.6498C15.871 20.8112 15.1541 20.9152 14.4326 20.9647C13.3129 21.0599 12.1999 21.0771 11.0898 21.0171L10.6962 21.0103C10.5869 21.0048 10.4948 20.9942 10.4095 20.9771C9.73372 20.9261 9.12566 20.8454 8.53527 20.7283L8.18275 20.6537C7.01271 20.4244 6.21415 20.0243 5.95524 19.489C5.86464 19.297 5.81625 19.0803 5.81654 18.8609C5.81573 18.6428 5.86348 18.431 5.95618 18.2379C6.20793 17.7324 7.05419 17.2971 8.16106 17.069C8.87573 16.9159 9.59462 16.8144 10.3179 16.764C11.691 16.643 13.0587 16.643 14.4186 16.763Z" fill="#D2D2D2"/>
</svg>
]]>
 <g id="Notes">
  <rect height="2200" id="artboard" style="fill:white;opacity:1" width="3300" x="0" y="0"/>
  <line id="" style="fill:none;stroke:black;opacity:1;stroke-width:0.5;" x1="263" x2="3036" y1="292" y2="292"/>
  <text id="reftext1" style="stroke:none;fill:black;font-family:-apple-system,&quot;SF Pro Display&quot;,&quot;SF Pro Text&quot;,Helvetica,sans-serif;font-weight:bold;" transform="matrix(1 0 0 1 263 322)">Weight/Scale Variations</text>
  <text id="reftext2" style="stroke:none;fill:black;font-family:-apple-system,&quot;SF Pro Display&quot;,&quot;SF Pro Text&quot;,Helvetica,sans-serif;text-anchor:middle;" transform="matrix(1 0 0 1 559.711 322)">Ultralight</text>
  <text style="stroke:none;fill:black;font-family:-apple-system,&quot;SF Pro Display&quot;,&quot;SF Pro Text&quot;,Helvetica,sans-serif;text-anchor:middle;" transform="matrix(1 0 0 1 856.422 322)">Thin</text>
  <text style="stroke:none;fill:black;font-family:-apple-system,&quot;SF Pro Display&quot;,&quot;SF Pro Text&quot;,Helvetica,sans-serif;text-anchor:middle;" transform="matrix(1 0 0 1 1153.13 322)">Light</text>
  <text style="stroke:none;fill:black;font-family:-apple-system,&quot;SF Pro Display&quot;,&quot;SF Pro Text&quot;,Helvetica,sans-serif;text-anchor:middle;" transform="matrix(1 0 0 1 1449.84 322)">Regular</text>
  <text style="stroke:none;fill:black;font-family:-apple-system,&quot;SF Pro Display&quot;,&quot;SF Pro Text&quot;,Helvetica,sans-serif;text-anchor:middle;" transform="matrix(1 0 0 1 1746.56 322)">Medium</text>
  <text style="stroke:none;fill:black;font-family:-apple-system,&quot;SF Pro Display&quot;,&quot;SF Pro Text&quot;,Helvetica,sans-serif;text-anchor:middle;" transform="matrix(1 0 0 1 2043.27 322)">Semibold</text>
  <text style="stroke:none;fill:black;font-family:-apple-system,&quot;SF Pro Display&quot;,&quot;SF Pro Text&quot;,Helvetica,sans-serif;text-anchor:middle;" transform="matrix(1 0 0 1 2339.98 322)">Bold</text>
  <text style="stroke:none;fill:black;font-family:-apple-system,&quot;SF Pro Display&quot;,&quot;SF Pro Text&quot;,Helvetica,sans-serif;text-anchor:middle;" transform="matrix(1 0 0 1 2636.69 322)">Heavy</text>
  <text style="stroke:none;fill:black;font-family:-apple-system,&quot;SF Pro Display&quot;,&quot;SF Pro Text&quot;,Helvetica,sans-serif;text-anchor:middle;" transform="matrix(1 0 0 1 2933.4 322)">Black</text>
  <line id="" style="fill:none;stroke:black;opacity:1;stroke-width:0.5;" x1="263" x2="3036" y1="1903" y2="1903"/>
  <g id="" transform="matrix(1 0 0 1 263 1933)">
   <path d="M9.24805 0.830078C13.5547 0.830078 17.1387-2.74414 17.1387-7.05078C17.1387-11.3574 13.5449-14.9316 9.23828-14.9316C4.94141-14.9316 1.36719-11.3574 1.36719-7.05078C1.36719-2.74414 4.95117 0.830078 9.24805 0.830078ZM9.24805-0.654297C5.70312-0.654297 2.87109-3.49609 2.87109-7.05078C2.87109-10.6055 5.69336-13.4473 9.23828-13.4473C12.793-13.4473 15.6348-10.6055 15.6445-7.05078C15.6543-3.49609 12.8027-0.654297 9.24805-0.654297ZM6.39648-6.31836L8.50586-6.31836L8.50586-4.19922C8.50586-3.75977 8.79883-3.45703 9.22852-3.45703C9.67773-3.45703 9.9707-3.75977 9.9707-4.19922L9.9707-6.31836L12.0996-6.31836C12.5391-6.31836 12.8418-6.61133 12.8418-7.04102C12.8418-7.48047 12.5391-7.7832 12.0996-7.7832L9.9707-7.7832L9.9707-9.89258C9.9707-10.3418 9.67773-10.6445 9.22852-10.6445C8.79883-10.6445 8.50586-10.3418 8.50586-9.89258L8.50586-7.7832L6.39648-7.7832C5.94727-7.7832 5.64453-7.48047 5.64453-7.04102C5.64453-6.61133 5.94727-6.31836 6.39648-6.31836Z"/>
  </g>
  <g id="" transform="matrix(1 0 0 1 281.506 1933)">
   <path d="M11.709 2.91016C17.1582 2.91016 21.6699-1.61133 21.6699-7.05078C21.6699-12.5 17.1484-17.0117 11.6992-17.0117C6.25977-17.0117 1.74805-12.5 1.74805-7.05078C1.74805-1.61133 6.26953 2.91016 11.709 2.91016ZM11.709 1.25C7.09961 1.25 3.41797-2.44141 3.41797-7.05078C3.41797-11.6602 7.08984-15.3516 11.6992-15.3516C16.3086-15.3516 20-11.6602 20.0098-7.05078C20.0195-2.44141 16.3184 1.25 11.709 1.25ZM7.98828-6.23047L10.8789-6.23047L10.8789-3.32031C10.8789-2.83203 11.2109-2.5 11.6895-2.5C12.1777-2.5 12.5195-2.83203 12.5195-3.32031L12.5195-6.23047L15.4297-6.23047C15.918-6.23047 16.25-6.5625 16.25-7.04102C16.25-7.5293 15.918-7.87109 15.4297-7.87109L12.5195-7.87109L12.5195-10.7617C12.5195-11.2695 12.1777-11.6016 11.6895-11.6016C11.2109-11.6016 10.8789-11.2598 10.8789-10.7617L10.8789-7.87109L7.98828-7.87109C7.48047-7.87109 7.14844-7.5293 7.14844-7.04102C7.14844-6.5625 7.49023-6.23047 7.98828-6.23047Z"/>
  </g>
  <g id="" transform="matrix(1 0 0 1 304.924 1933)">
   <path d="M14.9707 5.66406C21.9336 5.66406 27.6953-0.0976562 27.6953-7.05078C27.6953-14.0137 21.9238-19.7754 14.9609-19.7754C8.00781-19.7754 2.25586-14.0137 2.25586-7.05078C2.25586-0.0976562 8.01758 5.66406 14.9707 5.66406ZM14.9707 3.84766C8.93555 3.84766 4.08203-1.01562 4.08203-7.05078C4.08203-13.0957 8.92578-17.9492 14.9609-17.9492C21.0059-17.9492 25.8594-13.0957 25.8691-7.05078C25.8789-1.01562 21.0156 3.84766 14.9707 3.84766ZM10.0586-6.14258L14.0625-6.14258L14.0625-2.12891C14.0625-1.5918 14.4336-1.2207 14.9512-1.2207C15.4883-1.2207 15.8594-1.5918 15.8594-2.12891L15.8594-6.14258L19.8828-6.14258C20.4102-6.14258 20.791-6.51367 20.791-7.03125C20.791-7.56836 20.4199-7.94922 19.8828-7.94922L15.8594-7.94922L15.8594-11.9531C15.8594-12.5098 15.4883-12.8809 14.9512-12.8809C14.4336-12.8809 14.0625-12.5 14.0625-11.9531L14.0625-7.94922L10.0586-7.94922C9.50195-7.94922 9.13086-7.56836 9.13086-7.03125C9.13086-6.51367 9.51172-6.14258 10.0586-6.14258Z"/>
  </g>
  <text style="stroke:none;fill:black;font-family:-apple-system,&quot;SF Pro Display&quot;,&quot;SF Pro Text&quot;,Helvetica,sans-serif;font-weight:bold;" transform="matrix(1 0 0 1 263 1953)">Design Variations</text>
  <text style="stroke:none;fill:black;font-family:-apple-system,&quot;SF Pro Display&quot;,&quot;SF Pro Text&quot;,Helvetica,sans-serif;" transform="matrix(1 0 0 1 263 1971)">Symbols are supported in up to nine weights and three scales.</text>
  <text style="stroke:none;fill:black;font-family:-apple-system,&quot;SF Pro Display&quot;,&quot;SF Pro Text&quot;,Helvetica,sans-serif;" transform="matrix(1 0 0 1 263 1989)">For optimal layout with text and other symbols, vertically align</text>
  <text style="stroke:none;fill:black;font-family:-apple-system,&quot;SF Pro Display&quot;,&quot;SF Pro Text&quot;,Helvetica,sans-serif;" transform="matrix(1 0 0 1 263 2007)">symbols with the adjacent text.</text>
  <line id="" style="fill:none;stroke:#00AEEF;stroke-width:0.5;opacity:1.0;" x1="776" x2="776" y1="1919" y2="1933"/>
  <g id="" transform="matrix(1 0 0 1 776 1933)">
   <path d="M3.31055 0.126953C3.82812 0.126953 4.08203-0.0683594 4.26758-0.605469L5.52734-4.0625L11.2891-4.0625L12.5488-0.605469C12.7344-0.0683594 12.9883 0.126953 13.4961 0.126953C14.0137 0.126953 14.3457-0.185547 14.3457-0.673828C14.3457-0.839844 14.3164-0.986328 14.2383-1.20117L9.6582-13.3887C9.43359-13.9941 9.0332-14.2871 8.4082-14.2871C7.80273-14.2871 7.39258-13.9941 7.17773-13.3984L2.59766-1.19141C2.51953-0.976562 2.49023-0.830078 2.49023-0.664062C2.49023-0.175781 2.80273 0.126953 3.31055 0.126953ZM6.00586-5.53711L8.37891-12.1094L8.42773-12.1094L10.8008-5.53711Z"/>
  </g>
  <line id="" style="fill:none;stroke:#00AEEF;stroke-width:0.5;opacity:1.0;" x1="792.836" x2="792.836" y1="1919" y2="1933"/>
  <text style="stroke:none;fill:black;font-family:-apple-system,&quot;SF Pro Display&quot;,&quot;SF Pro Text&quot;,Helvetica,sans-serif;font-weight:bold;" transform="matrix(1 0 0 1 776 1953)">Margins</text>
  <text style="stroke:none;fill:black;font-family:-apple-system,&quot;SF Pro Display&quot;,&quot;SF Pro Text&quot;,Helvetica,sans-serif;" transform="matrix(1 0 0 1 776 1971)">Leading and trailing margins on the left and right side of each symbol</text>
  <text style="stroke:none;fill:black;font-family:-apple-system,&quot;SF Pro Display&quot;,&quot;SF Pro Text&quot;,Helvetica,sans-serif;" transform="matrix(1 0 0 1 776 1989)">can be adjusted by modifying the x-location of the margin guidelines.</text>
  <text style="stroke:none;fill:black;font-family:-apple-system,&quot;SF Pro Display&quot;,&quot;SF Pro Text&quot;,Helvetica,sans-serif;" transform="matrix(1 0 0 1 776 2007)">Modifications are automatically applied proportionally to all</text>
  <text style="stroke:none;fill:black;font-family:-apple-system,&quot;SF Pro Display&quot;,&quot;SF Pro Text&quot;,Helvetica,sans-serif;" transform="matrix(1 0 0 1 776 2025)">scales and weights.</text>
  <g id="" transform="matrix(1 0 0 1 1289 1933)">
   <path d="M2.8418 1.86523L4.54102 3.57422C5.40039 4.44336 6.38672 4.38477 7.31445 3.35938L17.4902-7.85156C17.7539-7.76367 18.0273-7.7832 18.3398-7.8418L19.4043-8.03711L20.0684-7.36328L20.0293-6.80664C19.9902-6.30859 20.1172-5.92773 20.6055-5.44922L21.3672-4.70703C21.8457-4.22852 22.4609-4.19922 22.9297-4.66797L25.8398-7.58789C26.3086-8.05664 26.2891-8.65234 25.8105-9.13086L25.0391-9.89258C24.5605-10.3711 24.1895-10.5273 23.7109-10.4883L23.1348-10.4395L22.4902-11.0742L22.7344-12.1973C22.8613-12.7637 22.7051-13.2031 22.1191-13.7891L19.9219-15.9766C16.582-19.2969 12.1484-19.2188 9.25781-16.3281C8.83789-15.918 8.80859-15.3418 9.04297-14.9512C9.27734-14.5898 9.73633-14.3555 10.3809-14.5215C11.8457-14.8633 13.3691-14.9219 14.7949-13.9844L14.209-12.5293C14.0137-12.0508 13.9844-11.6504 14.1113-11.2891L3.04688-0.898438C2.06055 0.0195312 1.98242 0.996094 2.8418 1.86523ZM10.752-15.957C13.1836-17.7344 16.4746-17.4316 18.7012-15.2051L21.1328-12.793C21.3672-12.5586 21.4062-12.373 21.3379-12.0312L21.0156-10.5469L22.5195-9.0625L23.5059-9.12109C23.7598-9.13086 23.8379-9.11133 24.0332-8.91602L24.6094-8.33984L22.168-5.89844L21.5918-6.47461C21.3965-6.66992 21.3672-6.74805 21.377-7.01172L21.4453-7.98828L19.9512-9.47266L18.4277-9.21875C18.1055-9.15039 17.959-9.17969 17.7148-9.41406L15.7129-11.416C15.459-11.6504 15.4297-11.8164 15.5859-12.1875L16.4648-14.2773C14.9023-15.7324 12.8711-16.3574 10.8398-15.7617C10.6836-15.7227 10.625-15.8496 10.752-15.957ZM5.27344 2.30469L4.10156 1.14258C3.63281 0.683594 3.74023 0.341797 4.14062-0.0195312L14.9512-10.1953L16.416-8.71094L6.42578 2.27539C6.07422 2.67578 5.74219 2.77344 5.27344 2.30469Z"/>
  </g>
  <text style="stroke:none;fill:black;font-family:-apple-system,&quot;SF Pro Display&quot;,&quot;SF Pro Text&quot;,Helvetica,sans-serif;font-weight:bold;" transform="matrix(1 0 0 1 1289 1953)">Exporting</text>
  <text style="stroke:none;fill:black;font-family:-apple-system,&quot;SF Pro Display&quot;,&quot;SF Pro Text&quot;,Helvetica,sans-serif;" transform="matrix(1 0 0 1 1289 1971)">Symbols should be outlined when exporting to ensure the</text>
  <text style="stroke:none;fill:black;font-family:-apple-system,&quot;SF Pro Display&quot;,&quot;SF Pro Text&quot;,Helvetica,sans-serif;" transform="matrix(1 0 0 1 1289 1989)">design is preserved when submitting to Xcode.</text>
  <text id="template-version" style="stroke:none;fill:black;font-family:-apple-system,&quot;SF Pro Display&quot;,&quot;SF Pro Text&quot;,Helvetica,sans-serif;text-anchor:end;" transform="matrix(1 0 0 1 3036 1933)">Template v.2.0</text>
  <text style="stroke:none;fill:black;font-family:-apple-system,&quot;SF Pro Display&quot;,&quot;SF Pro Text&quot;,Helvetica,sans-serif;text-anchor:end;" transform="matrix(1 0 0 1 3036 1951)">Requires Xcode 12 or greater</text>
  <text style="stroke:none;fill:black;font-family:-apple-system,&quot;SF Pro Display&quot;,&quot;SF Pro Text&quot;,Helvetica,sans-serif;" transform="matrix(1 0 0 1 263 726)">Small</text>
  <text style="stroke:none;fill:black;font-family:-apple-system,&quot;SF Pro Display&quot;,&quot;SF Pro Text&quot;,Helvetica,sans-serif;" transform="matrix(1 0 0 1 263 1156)">Medium</text>
  <text style="stroke:none;fill:black;font-family:-apple-system,&quot;SF Pro Display&quot;,&quot;SF Pro Text&quot;,Helvetica,sans-serif;" transform="matrix(1 0 0 1 263 1586)">Large</text>
 </g>
 <g id="Guides">
  <g id="H-reference" style="fill:#27AAE1;stroke:none;" transform="matrix(1 0 0 1 339 696)">
   <path d="M0.976562 0L3.66211 0L12.9883-24.4629L45.752-24.4629L55.127 0L57.7637 0L30.6152-70.459L28.125-70.459ZM29.3457-67.1387L29.4434-67.1387L44.873-26.709L13.8672-26.709Z"/>
  </g>
  <line id="Baseline-S" style="fill:none;stroke:#27AAE1;opacity:1;stroke-width:0.5;" x1="263" x2="3036" y1="696" y2="696"/>
  <line id="Capline-S" style="fill:none;stroke:#27AAE1;opacity:1;stroke-width:0.5;" x1="263" x2="3036" y1="625.541" y2="625.541"/>
  <g id="H-reference" style="fill:#27AAE1;stroke:none;" transform="matrix(1 0 0 1 339 1126)">
   <path d="M0.976562 0L3.66211 0L12.9883-24.4629L45.752-24.4629L55.127 0L57.7637 0L30.6152-70.459L28.125-70.459ZM29.3457-67.1387L29.4434-67.1387L44.873-26.709L13.8672-26.709Z"/>
  </g>
  <line id="Baseline-M" style="fill:none;stroke:#27AAE1;opacity:1;stroke-width:0.5;" x1="263" x2="3036" y1="1126" y2="1126"/>
  <line id="Capline-M" style="fill:none;stroke:#27AAE1;opacity:1;stroke-width:0.5;" x1="263" x2="3036" y1="1055.54" y2="1055.54"/>
  <g id="H-reference" style="fill:#27AAE1;stroke:none;" transform="matrix(1 0 0 1 339 1556)">
   <path d="M0.976562 0L3.66211 0L12.9883-24.4629L45.752-24.4629L55.127 0L57.7637 0L30.6152-70.459L28.125-70.459ZM29.3457-67.1387L29.4434-67.1387L44.873-26.709L13.8672-26.709Z"/>
  </g>
  <line id="Baseline-L" style="fill:none;stroke:#27AAE1;opacity:1;stroke-width:0.5;" x1="263" x2="3036" y1="1556" y2="1556"/>
  <line id="Capline-L" style="fill:none;stroke:#27AAE1;opacity:1;stroke-width:0.5;" x1="263" x2="3036" y1="1485.54" y2="1485.54"/>
  <line id="left-margin" x1="1414.2785559950312" x2="1414.2785559950312" y1="1030.79" y2="1150.12" style="fill:none;stroke:#00AEEF;stroke-width:0.5;opacity:1.0;"/>
  <line id="right-margin" x1="1487.9814440049686" x2="1487.9814440049686" y1="1030.79" y2="1150.12" style="fill:none;stroke:#00AEEF;stroke-width:0.5;opacity:1.0;"/>
 </g>
 <g id="Symbols">
  <g id="Black-L" transform="matrix(1.0,0.0,0.0,1.0,2887.1416372335902,1473.2316567648404)">  <path stroke-linecap="butt" stroke-linejoin="miter" stroke-miterlimit="4" fill-rule="evenodd" fill-opacity="1" stroke-width="1px" stroke-dasharray="none" fill="#000000" clip-rule="evenodd" stroke-opacity="1" stroke="none" d="M47.079,9.508C35.921,9.508,26.875,18.592,26.875,29.798C26.875,41.004,35.921,50.088,47.079,50.088C58.238,50.088,67.283,41.004,67.283,29.798C67.283,18.592,58.238,9.508,47.079,9.508ZM47.079,15.013C55.21,15.013,61.801,21.632,61.801,29.798C61.801,37.963,55.21,44.582,47.079,44.582C38.949,44.582,32.358,37.963,32.358,29.798C32.358,21.632,38.949,15.013,47.079,15.013ZM38.81,58.266C35.853,58.472,32.863,58.894,29.914,59.526C24.222,60.699,19.669,63.041,17.731,66.934C17,68.456,16.632,70.086,16.639,71.736C16.636,73.375,17.001,75.007,17.706,76.5C19.567,80.348,23.59,82.525,29.022,83.733L29.995,83.936C32.864,84.583,35.855,85.019,38.865,85.223C39.122,85.298,39.733,85.368,40.4,85.402L40.948,85.423C41.231,85.429,41.551,85.431,42.028,85.431C46.355,85.669,50.841,85.6,55.306,85.22C57.686,85.057,60.081,84.746,62.457,84.29L64.234,83.921C70.1,82.764,74.493,80.563,76.417,76.504C77.844,73.491,77.844,69.994,76.418,66.982C74.498,62.934,70.162,60.752,64.19,59.521C61.847,59.021,59.466,58.651,57.068,58.415L55.314,58.266C49.824,57.782,44.301,57.782,38.81,58.266ZM54.835,63.751L54.883,63.755C57.635,63.948,60.37,64.335,63.069,64.911C67.505,65.825,70.515,67.34,71.468,69.348C72.185,70.863,72.185,72.623,71.467,74.139C70.577,76.015,67.873,77.465,63.966,78.351L63.11,78.533C60.359,79.146,57.632,79.542,54.888,79.73C50.63,80.092,46.397,80.158,42.175,79.929L40.678,79.904C40.263,79.883,39.912,79.842,39.588,79.777C37.018,79.583,34.706,79.276,32.46,78.831L31.12,78.547C26.67,77.675,23.633,76.154,22.648,74.118C22.304,73.388,22.12,72.564,22.121,71.729C22.118,70.9,22.299,70.094,22.652,69.36C23.609,67.438,26.828,65.782,31.037,64.915C33.755,64.332,36.489,63.946,39.24,63.755C44.462,63.294,49.663,63.294,54.835,63.751ZM54.835,63.751"/>
</g>
  <g id="Heavy-L" transform="matrix(1.0,0.0,0.0,1.0,2590.43163723359,1473.2316567648404)">  <path stroke-linecap="butt" stroke-width="1px" stroke-dasharray="none" fill-rule="evenodd" stroke="none" stroke-opacity="1" stroke-linejoin="miter" clip-rule="evenodd" stroke-miterlimit="4" fill="#000000" fill-opacity="1" d="M47.079,9.508C35.921,9.508,26.875,18.592,26.875,29.798C26.875,41.004,35.921,50.088,47.079,50.088C58.238,50.088,67.283,41.004,67.283,29.798C67.283,18.592,58.238,9.508,47.079,9.508ZM47.079,15.013C55.21,15.013,61.801,21.632,61.801,29.798C61.801,37.963,55.21,44.582,47.079,44.582C38.949,44.582,32.358,37.963,32.358,29.798C32.358,21.632,38.949,15.013,47.079,15.013ZM38.81,58.266C35.853,58.472,32.863,58.894,29.914,59.526C24.222,60.699,19.669,63.041,17.731,66.934C17,68.456,16.632,70.086,16.639,71.736C16.636,73.375,17.001,75.007,17.706,76.5C19.567,80.348,23.59,82.525,29.022,83.733L29.995,83.936C32.864,84.583,35.855,85.019,38.865,85.223C39.122,85.298,39.733,85.368,40.4,85.402L40.948,85.423C41.231,85.429,41.551,85.431,42.028,85.431C46.355,85.669,50.841,85.6,55.306,85.22C57.686,85.057,60.081,84.746,62.457,84.29L64.234,83.921C70.1,82.764,74.493,80.563,76.417,76.504C77.844,73.491,77.844,69.994,76.418,66.982C74.498,62.934,70.162,60.752,64.19,59.521C61.847,59.021,59.466,58.651,57.068,58.415L55.314,58.266C49.824,57.782,44.301,57.782,38.81,58.266ZM54.835,63.751L54.883,63.755C57.635,63.948,60.37,64.335,63.069,64.911C67.505,65.825,70.515,67.34,71.468,69.348C72.185,70.863,72.185,72.623,71.467,74.139C70.577,76.015,67.873,77.465,63.966,78.351L63.11,78.533C60.359,79.146,57.632,79.542,54.888,79.73C50.63,80.092,46.397,80.158,42.175,79.929L40.678,79.904C40.263,79.883,39.912,79.842,39.588,79.777C37.018,79.583,34.706,79.276,32.46,78.831L31.12,78.547C26.67,77.675,23.633,76.154,22.648,74.118C22.304,73.388,22.12,72.564,22.121,71.729C22.118,70.9,22.299,70.094,22.652,69.36C23.609,67.438,26.828,65.782,31.037,64.915C33.755,64.332,36.489,63.946,39.24,63.755C44.462,63.294,49.663,63.294,54.835,63.751ZM54.835,63.751"/>
</g>
  <g id="Bold-L" transform="matrix(1.0,0.0,0.0,1.0,2293.72163723359,1473.2316567648404)">  <path fill="#000000" clip-rule="evenodd" stroke-miterlimit="4" stroke-dasharray="none" stroke-width="1px" fill-rule="evenodd" fill-opacity="1" stroke-linejoin="miter" stroke="none" stroke-opacity="1" stroke-linecap="butt" d="M47.079,9.508C35.921,9.508,26.875,18.592,26.875,29.798C26.875,41.004,35.921,50.088,47.079,50.088C58.238,50.088,67.283,41.004,67.283,29.798C67.283,18.592,58.238,9.508,47.079,9.508ZM47.079,15.013C55.21,15.013,61.801,21.632,61.801,29.798C61.801,37.963,55.21,44.582,47.079,44.582C38.949,44.582,32.358,37.963,32.358,29.798C32.358,21.632,38.949,15.013,47.079,15.013ZM38.81,58.266C35.853,58.472,32.863,58.894,29.914,59.526C24.222,60.699,19.669,63.041,17.731,66.934C17,68.456,16.632,70.086,16.639,71.736C16.636,73.375,17.001,75.007,17.706,76.5C19.567,80.348,23.59,82.525,29.022,83.733L29.995,83.936C32.864,84.583,35.855,85.019,38.865,85.223C39.122,85.298,39.733,85.368,40.4,85.402L40.948,85.423C41.231,85.429,41.551,85.431,42.028,85.431C46.355,85.669,50.841,85.6,55.306,85.22C57.686,85.057,60.081,84.746,62.457,84.29L64.234,83.921C70.1,82.764,74.493,80.563,76.417,76.504C77.844,73.491,77.844,69.994,76.418,66.982C74.498,62.934,70.162,60.752,64.19,59.521C61.847,59.021,59.466,58.651,57.068,58.415L55.314,58.266C49.824,57.782,44.301,57.782,38.81,58.266ZM54.835,63.751L54.883,63.755C57.635,63.948,60.37,64.335,63.069,64.911C67.505,65.825,70.515,67.34,71.468,69.348C72.185,70.863,72.185,72.623,71.467,74.139C70.577,76.015,67.873,77.465,63.966,78.351L63.11,78.533C60.359,79.146,57.632,79.542,54.888,79.73C50.63,80.092,46.397,80.158,42.175,79.929L40.678,79.904C40.263,79.883,39.912,79.842,39.588,79.777C37.018,79.583,34.706,79.276,32.46,78.831L31.12,78.547C26.67,77.675,23.633,76.154,22.648,74.118C22.304,73.388,22.12,72.564,22.121,71.729C22.118,70.9,22.299,70.094,22.652,69.36C23.609,67.438,26.828,65.782,31.037,64.915C33.755,64.332,36.489,63.946,39.24,63.755C44.462,63.294,49.663,63.294,54.835,63.751ZM54.835,63.751"/>
</g>
  <g id="Semibold-L" transform="matrix(1.0,0.0,0.0,1.0,1997.0116372335904,1473.2316567648404)">  <path stroke-opacity="1" fill-opacity="1" fill="#000000" stroke-linecap="butt" stroke="none" stroke-miterlimit="4" clip-rule="evenodd" stroke-dasharray="none" fill-rule="evenodd" stroke-width="1px" stroke-linejoin="miter" d="M47.079,9.508C35.921,9.508,26.875,18.592,26.875,29.798C26.875,41.004,35.921,50.088,47.079,50.088C58.238,50.088,67.283,41.004,67.283,29.798C67.283,18.592,58.238,9.508,47.079,9.508ZM47.079,15.013C55.21,15.013,61.801,21.632,61.801,29.798C61.801,37.963,55.21,44.582,47.079,44.582C38.949,44.582,32.358,37.963,32.358,29.798C32.358,21.632,38.949,15.013,47.079,15.013ZM38.81,58.266C35.853,58.472,32.863,58.894,29.914,59.526C24.222,60.699,19.669,63.041,17.731,66.934C17,68.456,16.632,70.086,16.639,71.736C16.636,73.375,17.001,75.007,17.706,76.5C19.567,80.348,23.59,82.525,29.022,83.733L29.995,83.936C32.864,84.583,35.855,85.019,38.865,85.223C39.122,85.298,39.733,85.368,40.4,85.402L40.948,85.423C41.231,85.429,41.551,85.431,42.028,85.431C46.355,85.669,50.841,85.6,55.306,85.22C57.686,85.057,60.081,84.746,62.457,84.29L64.234,83.921C70.1,82.764,74.493,80.563,76.417,76.504C77.844,73.491,77.844,69.994,76.418,66.982C74.498,62.934,70.162,60.752,64.19,59.521C61.847,59.021,59.466,58.651,57.068,58.415L55.314,58.266C49.824,57.782,44.301,57.782,38.81,58.266ZM54.835,63.751L54.883,63.755C57.635,63.948,60.37,64.335,63.069,64.911C67.505,65.825,70.515,67.34,71.468,69.348C72.185,70.863,72.185,72.623,71.467,74.139C70.577,76.015,67.873,77.465,63.966,78.351L63.11,78.533C60.359,79.146,57.632,79.542,54.888,79.73C50.63,80.092,46.397,80.158,42.175,79.929L40.678,79.904C40.263,79.883,39.912,79.842,39.588,79.777C37.018,79.583,34.706,79.276,32.46,78.831L31.12,78.547C26.67,77.675,23.633,76.154,22.648,74.118C22.304,73.388,22.12,72.564,22.121,71.729C22.118,70.9,22.299,70.094,22.652,69.36C23.609,67.438,26.828,65.782,31.037,64.915C33.755,64.332,36.489,63.946,39.24,63.755C44.462,63.294,49.663,63.294,54.835,63.751ZM54.835,63.751"/>
</g>
  <g id="Medium-L" transform="matrix(1.0,0.0,0.0,1.0,1700.3016372335903,1473.2316567648404)">  <path fill-rule="evenodd" fill="#000000" clip-rule="evenodd" stroke-miterlimit="4" stroke-linejoin="miter" fill-opacity="1" stroke="none" stroke-linecap="butt" stroke-width="1px" stroke-opacity="1" stroke-dasharray="none" d="M47.079,9.508C35.921,9.508,26.875,18.592,26.875,29.798C26.875,41.004,35.921,50.088,47.079,50.088C58.238,50.088,67.283,41.004,67.283,29.798C67.283,18.592,58.238,9.508,47.079,9.508ZM47.079,15.013C55.21,15.013,61.801,21.632,61.801,29.798C61.801,37.963,55.21,44.582,47.079,44.582C38.949,44.582,32.358,37.963,32.358,29.798C32.358,21.632,38.949,15.013,47.079,15.013ZM38.81,58.266C35.853,58.472,32.863,58.894,29.914,59.526C24.222,60.699,19.669,63.041,17.731,66.934C17,68.456,16.632,70.086,16.639,71.736C16.636,73.375,17.001,75.007,17.706,76.5C19.567,80.348,23.59,82.525,29.022,83.733L29.995,83.936C32.864,84.583,35.855,85.019,38.865,85.223C39.122,85.298,39.733,85.368,40.4,85.402L40.948,85.423C41.231,85.429,41.551,85.431,42.028,85.431C46.355,85.669,50.841,85.6,55.306,85.22C57.686,85.057,60.081,84.746,62.457,84.29L64.234,83.921C70.1,82.764,74.493,80.563,76.417,76.504C77.844,73.491,77.844,69.994,76.418,66.982C74.498,62.934,70.162,60.752,64.19,59.521C61.847,59.021,59.466,58.651,57.068,58.415L55.314,58.266C49.824,57.782,44.301,57.782,38.81,58.266ZM54.835,63.751L54.883,63.755C57.635,63.948,60.37,64.335,63.069,64.911C67.505,65.825,70.515,67.34,71.468,69.348C72.185,70.863,72.185,72.623,71.467,74.139C70.577,76.015,67.873,77.465,63.966,78.351L63.11,78.533C60.359,79.146,57.632,79.542,54.888,79.73C50.63,80.092,46.397,80.158,42.175,79.929L40.678,79.904C40.263,79.883,39.912,79.842,39.588,79.777C37.018,79.583,34.706,79.276,32.46,78.831L31.12,78.547C26.67,77.675,23.633,76.154,22.648,74.118C22.304,73.388,22.12,72.564,22.121,71.729C22.118,70.9,22.299,70.094,22.652,69.36C23.609,67.438,26.828,65.782,31.037,64.915C33.755,64.332,36.489,63.946,39.24,63.755C44.462,63.294,49.663,63.294,54.835,63.751ZM54.835,63.751"/>
</g>
  <g id="Regular-L" transform="matrix(1.0,0.0,0.0,1.0,1403.5916372335903,1473.2316567648404)">  <path stroke-opacity="1" fill-rule="evenodd" stroke-miterlimit="4" stroke-linecap="butt" stroke-linejoin="miter" fill="#000000" stroke="none" stroke-dasharray="none" stroke-width="1px" fill-opacity="1" clip-rule="evenodd" d="M47.079,9.508C35.921,9.508,26.875,18.592,26.875,29.798C26.875,41.004,35.921,50.088,47.079,50.088C58.238,50.088,67.283,41.004,67.283,29.798C67.283,18.592,58.238,9.508,47.079,9.508ZM47.079,15.013C55.21,15.013,61.801,21.632,61.801,29.798C61.801,37.963,55.21,44.582,47.079,44.582C38.949,44.582,32.358,37.963,32.358,29.798C32.358,21.632,38.949,15.013,47.079,15.013ZM38.81,58.266C35.853,58.472,32.863,58.894,29.914,59.526C24.222,60.699,19.669,63.041,17.731,66.934C17,68.456,16.632,70.086,16.639,71.736C16.636,73.375,17.001,75.007,17.706,76.5C19.567,80.348,23.59,82.525,29.022,83.733L29.995,83.936C32.864,84.583,35.855,85.019,38.865,85.223C39.122,85.298,39.733,85.368,40.4,85.402L40.948,85.423C41.231,85.429,41.551,85.431,42.028,85.431C46.355,85.669,50.841,85.6,55.306,85.22C57.686,85.057,60.081,84.746,62.457,84.29L64.234,83.921C70.1,82.764,74.493,80.563,76.417,76.504C77.844,73.491,77.844,69.994,76.418,66.982C74.498,62.934,70.162,60.752,64.19,59.521C61.847,59.021,59.466,58.651,57.068,58.415L55.314,58.266C49.824,57.782,44.301,57.782,38.81,58.266ZM54.835,63.751L54.883,63.755C57.635,63.948,60.37,64.335,63.069,64.911C67.505,65.825,70.515,67.34,71.468,69.348C72.185,70.863,72.185,72.623,71.467,74.139C70.577,76.015,67.873,77.465,63.966,78.351L63.11,78.533C60.359,79.146,57.632,79.542,54.888,79.73C50.63,80.092,46.397,80.158,42.175,79.929L40.678,79.904C40.263,79.883,39.912,79.842,39.588,79.777C37.018,79.583,34.706,79.276,32.46,78.831L31.12,78.547C26.67,77.675,23.633,76.154,22.648,74.118C22.304,73.388,22.12,72.564,22.121,71.729C22.118,70.9,22.299,70.094,22.652,69.36C23.609,67.438,26.828,65.782,31.037,64.915C33.755,64.332,36.489,63.946,39.24,63.755C44.462,63.294,49.663,63.294,54.835,63.751ZM54.835,63.751"/>
</g>
  <g id="Light-L" transform="matrix(1.0,0.0,0.0,1.0,1106.8816372335905,1473.2316567648404)">  <path stroke-linecap="butt" fill-rule="evenodd" fill-opacity="1" stroke-width="1px" stroke-linejoin="miter" stroke="none" stroke-miterlimit="4" stroke-dasharray="none" clip-rule="evenodd" stroke-opacity="1" fill="#000000" d="M47.079,9.508C35.921,9.508,26.875,18.592,26.875,29.798C26.875,41.004,35.921,50.088,47.079,50.088C58.238,50.088,67.283,41.004,67.283,29.798C67.283,18.592,58.238,9.508,47.079,9.508ZM47.079,15.013C55.21,15.013,61.801,21.632,61.801,29.798C61.801,37.963,55.21,44.582,47.079,44.582C38.949,44.582,32.358,37.963,32.358,29.798C32.358,21.632,38.949,15.013,47.079,15.013ZM38.81,58.266C35.853,58.472,32.863,58.894,29.914,59.526C24.222,60.699,19.669,63.041,17.731,66.934C17,68.456,16.632,70.086,16.639,71.736C16.636,73.375,17.001,75.007,17.706,76.5C19.567,80.348,23.59,82.525,29.022,83.733L29.995,83.936C32.864,84.583,35.855,85.019,38.865,85.223C39.122,85.298,39.733,85.368,40.4,85.402L40.948,85.423C41.231,85.429,41.551,85.431,42.028,85.431C46.355,85.669,50.841,85.6,55.306,85.22C57.686,85.057,60.081,84.746,62.457,84.29L64.234,83.921C70.1,82.764,74.493,80.563,76.417,76.504C77.844,73.491,77.844,69.994,76.418,66.982C74.498,62.934,70.162,60.752,64.19,59.521C61.847,59.021,59.466,58.651,57.068,58.415L55.314,58.266C49.824,57.782,44.301,57.782,38.81,58.266ZM54.835,63.751L54.883,63.755C57.635,63.948,60.37,64.335,63.069,64.911C67.505,65.825,70.515,67.34,71.468,69.348C72.185,70.863,72.185,72.623,71.467,74.139C70.577,76.015,67.873,77.465,63.966,78.351L63.11,78.533C60.359,79.146,57.632,79.542,54.888,79.73C50.63,80.092,46.397,80.158,42.175,79.929L40.678,79.904C40.263,79.883,39.912,79.842,39.588,79.777C37.018,79.583,34.706,79.276,32.46,78.831L31.12,78.547C26.67,77.675,23.633,76.154,22.648,74.118C22.304,73.388,22.12,72.564,22.121,71.729C22.118,70.9,22.299,70.094,22.652,69.36C23.609,67.438,26.828,65.782,31.037,64.915C33.755,64.332,36.489,63.946,39.24,63.755C44.462,63.294,49.663,63.294,54.835,63.751ZM54.835,63.751"/>
</g>
  <g id="Thin-L" transform="matrix(1.0,0.0,0.0,1.0,810.1716372335906,1473.2316567648404)">  <path stroke-width="1px" stroke-dasharray="none" stroke="none" fill-rule="evenodd" stroke-opacity="1" stroke-miterlimit="4" stroke-linecap="butt" clip-rule="evenodd" stroke-linejoin="miter" fill="#000000" fill-opacity="1" d="M47.079,9.508C35.921,9.508,26.875,18.592,26.875,29.798C26.875,41.004,35.921,50.088,47.079,50.088C58.238,50.088,67.283,41.004,67.283,29.798C67.283,18.592,58.238,9.508,47.079,9.508ZM47.079,15.013C55.21,15.013,61.801,21.632,61.801,29.798C61.801,37.963,55.21,44.582,47.079,44.582C38.949,44.582,32.358,37.963,32.358,29.798C32.358,21.632,38.949,15.013,47.079,15.013ZM38.81,58.266C35.853,58.472,32.863,58.894,29.914,59.526C24.222,60.699,19.669,63.041,17.731,66.934C17,68.456,16.632,70.086,16.639,71.736C16.636,73.375,17.001,75.007,17.706,76.5C19.567,80.348,23.59,82.525,29.022,83.733L29.995,83.936C32.864,84.583,35.855,85.019,38.865,85.223C39.122,85.298,39.733,85.368,40.4,85.402L40.948,85.423C41.231,85.429,41.551,85.431,42.028,85.431C46.355,85.669,50.841,85.6,55.306,85.22C57.686,85.057,60.081,84.746,62.457,84.29L64.234,83.921C70.1,82.764,74.493,80.563,76.417,76.504C77.844,73.491,77.844,69.994,76.418,66.982C74.498,62.934,70.162,60.752,64.19,59.521C61.847,59.021,59.466,58.651,57.068,58.415L55.314,58.266C49.824,57.782,44.301,57.782,38.81,58.266ZM54.835,63.751L54.883,63.755C57.635,63.948,60.37,64.335,63.069,64.911C67.505,65.825,70.515,67.34,71.468,69.348C72.185,70.863,72.185,72.623,71.467,74.139C70.577,76.015,67.873,77.465,63.966,78.351L63.11,78.533C60.359,79.146,57.632,79.542,54.888,79.73C50.63,80.092,46.397,80.158,42.175,79.929L40.678,79.904C40.263,79.883,39.912,79.842,39.588,79.777C37.018,79.583,34.706,79.276,32.46,78.831L31.12,78.547C26.67,77.675,23.633,76.154,22.648,74.118C22.304,73.388,22.12,72.564,22.121,71.729C22.118,70.9,22.299,70.094,22.652,69.36C23.609,67.438,26.828,65.782,31.037,64.915C33.755,64.332,36.489,63.946,39.24,63.755C44.462,63.294,49.663,63.294,54.835,63.751ZM54.835,63.751"/>
</g>
  <g id="Ultralight-L" transform="matrix(1.0,0.0,0.0,1.0,513.4616372335905,1473.2316567648404)">  <path fill-opacity="1" fill-rule="evenodd" fill="#000000" stroke="none" stroke-miterlimit="4" stroke-linecap="butt" stroke-width="1px" clip-rule="evenodd" stroke-dasharray="none" stroke-opacity="1" stroke-linejoin="miter" d="M47.079,9.508C35.921,9.508,26.875,18.592,26.875,29.798C26.875,41.004,35.921,50.088,47.079,50.088C58.238,50.088,67.283,41.004,67.283,29.798C67.283,18.592,58.238,9.508,47.079,9.508ZM47.079,15.013C55.21,15.013,61.801,21.632,61.801,29.798C61.801,37.963,55.21,44.582,47.079,44.582C38.949,44.582,32.358,37.963,32.358,29.798C32.358,21.632,38.949,15.013,47.079,15.013ZM38.81,58.266C35.853,58.472,32.863,58.894,29.914,59.526C24.222,60.699,19.669,63.041,17.731,66.934C17,68.456,16.632,70.086,16.639,71.736C16.636,73.375,17.001,75.007,17.706,76.5C19.567,80.348,23.59,82.525,29.022,83.733L29.995,83.936C32.864,84.583,35.855,85.019,38.865,85.223C39.122,85.298,39.733,85.368,40.4,85.402L40.948,85.423C41.231,85.429,41.551,85.431,42.028,85.431C46.355,85.669,50.841,85.6,55.306,85.22C57.686,85.057,60.081,84.746,62.457,84.29L64.234,83.921C70.1,82.764,74.493,80.563,76.417,76.504C77.844,73.491,77.844,69.994,76.418,66.982C74.498,62.934,70.162,60.752,64.19,59.521C61.847,59.021,59.466,58.651,57.068,58.415L55.314,58.266C49.824,57.782,44.301,57.782,38.81,58.266ZM54.835,63.751L54.883,63.755C57.635,63.948,60.37,64.335,63.069,64.911C67.505,65.825,70.515,67.34,71.468,69.348C72.185,70.863,72.185,72.623,71.467,74.139C70.577,76.015,67.873,77.465,63.966,78.351L63.11,78.533C60.359,79.146,57.632,79.542,54.888,79.73C50.63,80.092,46.397,80.158,42.175,79.929L40.678,79.904C40.263,79.883,39.912,79.842,39.588,79.777C37.018,79.583,34.706,79.276,32.46,78.831L31.12,78.547C26.67,77.675,23.633,76.154,22.648,74.118C22.304,73.388,22.12,72.564,22.121,71.729C22.118,70.9,22.299,70.094,22.652,69.36C23.609,67.438,26.828,65.782,31.037,64.915C33.755,64.332,36.489,63.946,39.24,63.755C44.462,63.294,49.663,63.294,54.835,63.751ZM54.835,63.751"/>
</g>
  <g id="Black-M" transform="matrix(1.0,0.0,0.0,1.0,2897.8285559950314,1053.9185755262813)">  <path stroke-linecap="butt" stroke-linejoin="miter" stroke-miterlimit="4" fill-rule="evenodd" fill-opacity="1" stroke-width="1px" stroke-dasharray="none" fill="#000000" clip-rule="evenodd" stroke-opacity="1" stroke="none" d="M36.496,7.37C27.846,7.37,20.834,14.412,20.834,23.099C20.834,31.786,27.846,38.828,36.496,38.828C45.145,38.828,52.157,31.786,52.157,23.099C52.157,14.412,45.145,7.37,36.496,7.37ZM36.496,11.638C42.798,11.638,47.908,16.769,47.908,23.099C47.908,29.429,42.798,34.56,36.496,34.56C30.193,34.56,25.083,29.429,25.083,23.099C25.083,16.769,30.193,11.638,36.496,11.638ZM30.086,45.168C27.793,45.327,25.475,45.654,23.189,46.144C18.777,47.053,15.247,48.869,13.745,51.887C13.178,53.067,12.893,54.33,12.898,55.609C12.896,56.879,13.179,58.145,13.725,59.302C15.168,62.285,18.287,63.973,22.498,64.909L23.252,65.066C25.476,65.568,27.794,65.906,30.128,66.064C30.327,66.123,30.801,66.177,31.318,66.203L31.743,66.219C31.962,66.224,32.21,66.226,32.58,66.226C35.934,66.41,39.412,66.356,42.873,66.062C44.718,65.935,46.575,65.694,48.416,65.341L49.794,65.055C54.341,64.158,57.747,62.452,59.238,59.305C60.344,56.97,60.344,54.259,59.239,51.924C57.751,48.786,54.389,47.094,49.759,46.141C47.943,45.753,46.097,45.466,44.239,45.283L42.879,45.168C38.623,44.792,34.342,44.792,30.086,45.168ZM42.508,49.419L42.545,49.422C44.678,49.572,46.799,49.872,48.891,50.318C52.329,51.027,54.663,52.201,55.401,53.758C55.957,54.932,55.957,56.297,55.401,57.472C54.711,58.927,52.615,60.05,49.586,60.737L48.923,60.878C46.79,61.354,44.676,61.66,42.549,61.806C39.248,62.087,35.967,62.138,32.694,61.961L31.534,61.941C31.211,61.925,30.94,61.893,30.688,61.843C28.696,61.693,26.903,61.455,25.163,61.109L24.124,60.889C20.674,60.213,18.32,59.034,17.557,57.456C17.29,56.89,17.147,56.251,17.148,55.604C17.145,54.961,17.286,54.337,17.56,53.767C18.302,52.277,20.797,50.994,24.06,50.321C26.167,49.87,28.286,49.571,30.418,49.422C34.466,49.065,38.499,49.065,42.508,49.419ZM42.508,49.419"/>
</g>
  <g id="Heavy-M" transform="matrix(1.0,0.0,0.0,1.0,2601.1185559950313,1053.9185755262813)">  <path stroke-linecap="butt" stroke-width="1px" stroke-dasharray="none" fill-rule="evenodd" stroke="none" stroke-opacity="1" stroke-linejoin="miter" clip-rule="evenodd" stroke-miterlimit="4" fill="#000000" fill-opacity="1" d="M36.496,7.37C27.846,7.37,20.834,14.412,20.834,23.099C20.834,31.786,27.846,38.828,36.496,38.828C45.145,38.828,52.157,31.786,52.157,23.099C52.157,14.412,45.145,7.37,36.496,7.37ZM36.496,11.638C42.798,11.638,47.908,16.769,47.908,23.099C47.908,29.429,42.798,34.56,36.496,34.56C30.193,34.56,25.083,29.429,25.083,23.099C25.083,16.769,30.193,11.638,36.496,11.638ZM30.086,45.168C27.793,45.327,25.475,45.654,23.189,46.144C18.777,47.053,15.247,48.869,13.745,51.887C13.178,53.067,12.893,54.33,12.898,55.609C12.896,56.879,13.179,58.145,13.725,59.302C15.168,62.285,18.287,63.973,22.498,64.909L23.252,65.066C25.476,65.568,27.794,65.906,30.128,66.064C30.327,66.123,30.801,66.177,31.318,66.203L31.743,66.219C31.962,66.224,32.21,66.226,32.58,66.226C35.934,66.41,39.412,66.356,42.873,66.062C44.718,65.935,46.575,65.694,48.416,65.341L49.794,65.055C54.341,64.158,57.747,62.452,59.238,59.305C60.344,56.97,60.344,54.259,59.239,51.924C57.751,48.786,54.389,47.094,49.759,46.141C47.943,45.753,46.097,45.466,44.239,45.283L42.879,45.168C38.623,44.792,34.342,44.792,30.086,45.168ZM42.508,49.419L42.545,49.422C44.678,49.572,46.799,49.872,48.891,50.318C52.329,51.027,54.663,52.201,55.401,53.758C55.957,54.932,55.957,56.297,55.401,57.472C54.711,58.927,52.615,60.05,49.586,60.737L48.923,60.878C46.79,61.354,44.676,61.66,42.549,61.806C39.248,62.087,35.967,62.138,32.694,61.961L31.534,61.941C31.211,61.925,30.94,61.893,30.688,61.843C28.696,61.693,26.903,61.455,25.163,61.109L24.124,60.889C20.674,60.213,18.32,59.034,17.557,57.456C17.29,56.89,17.147,56.251,17.148,55.604C17.145,54.961,17.286,54.337,17.56,53.767C18.302,52.277,20.797,50.994,24.06,50.321C26.167,49.87,28.286,49.571,30.418,49.422C34.466,49.065,38.499,49.065,42.508,49.419ZM42.508,49.419"/>
</g>
  <g id="Bold-M" transform="matrix(1.0,0.0,0.0,1.0,2304.4085559950313,1053.9185755262813)">  <path fill="#000000" clip-rule="evenodd" stroke-miterlimit="4" stroke-dasharray="none" stroke-width="1px" fill-rule="evenodd" fill-opacity="1" stroke-linejoin="miter" stroke="none" stroke-opacity="1" stroke-linecap="butt" d="M36.496,7.37C27.846,7.37,20.834,14.412,20.834,23.099C20.834,31.786,27.846,38.828,36.496,38.828C45.145,38.828,52.157,31.786,52.157,23.099C52.157,14.412,45.145,7.37,36.496,7.37ZM36.496,11.638C42.798,11.638,47.908,16.769,47.908,23.099C47.908,29.429,42.798,34.56,36.496,34.56C30.193,34.56,25.083,29.429,25.083,23.099C25.083,16.769,30.193,11.638,36.496,11.638ZM30.086,45.168C27.793,45.327,25.475,45.654,23.189,46.144C18.777,47.053,15.247,48.869,13.745,51.887C13.178,53.067,12.893,54.33,12.898,55.609C12.896,56.879,13.179,58.145,13.725,59.302C15.168,62.285,18.287,63.973,22.498,64.909L23.252,65.066C25.476,65.568,27.794,65.906,30.128,66.064C30.327,66.123,30.801,66.177,31.318,66.203L31.743,66.219C31.962,66.224,32.21,66.226,32.58,66.226C35.934,66.41,39.412,66.356,42.873,66.062C44.718,65.935,46.575,65.694,48.416,65.341L49.794,65.055C54.341,64.158,57.747,62.452,59.238,59.305C60.344,56.97,60.344,54.259,59.239,51.924C57.751,48.786,54.389,47.094,49.759,46.141C47.943,45.753,46.097,45.466,44.239,45.283L42.879,45.168C38.623,44.792,34.342,44.792,30.086,45.168ZM42.508,49.419L42.545,49.422C44.678,49.572,46.799,49.872,48.891,50.318C52.329,51.027,54.663,52.201,55.401,53.758C55.957,54.932,55.957,56.297,55.401,57.472C54.711,58.927,52.615,60.05,49.586,60.737L48.923,60.878C46.79,61.354,44.676,61.66,42.549,61.806C39.248,62.087,35.967,62.138,32.694,61.961L31.534,61.941C31.211,61.925,30.94,61.893,30.688,61.843C28.696,61.693,26.903,61.455,25.163,61.109L24.124,60.889C20.674,60.213,18.32,59.034,17.557,57.456C17.29,56.89,17.147,56.251,17.148,55.604C17.145,54.961,17.286,54.337,17.56,53.767C18.302,52.277,20.797,50.994,24.06,50.321C26.167,49.87,28.286,49.571,30.418,49.422C34.466,49.065,38.499,49.065,42.508,49.419ZM42.508,49.419"/>
</g>
  <g id="Semibold-M" transform="matrix(1.0,0.0,0.0,1.0,2007.6985559950313,1053.9185755262813)">  <path stroke-opacity="1" fill-opacity="1" fill="#000000" stroke-linecap="butt" stroke="none" stroke-miterlimit="4" clip-rule="evenodd" stroke-dasharray="none" fill-rule="evenodd" stroke-width="1px" stroke-linejoin="miter" d="M36.496,7.37C27.846,7.37,20.834,14.412,20.834,23.099C20.834,31.786,27.846,38.828,36.496,38.828C45.145,38.828,52.157,31.786,52.157,23.099C52.157,14.412,45.145,7.37,36.496,7.37ZM36.496,11.638C42.798,11.638,47.908,16.769,47.908,23.099C47.908,29.429,42.798,34.56,36.496,34.56C30.193,34.56,25.083,29.429,25.083,23.099C25.083,16.769,30.193,11.638,36.496,11.638ZM30.086,45.168C27.793,45.327,25.475,45.654,23.189,46.144C18.777,47.053,15.247,48.869,13.745,51.887C13.178,53.067,12.893,54.33,12.898,55.609C12.896,56.879,13.179,58.145,13.725,59.302C15.168,62.285,18.287,63.973,22.498,64.909L23.252,65.066C25.476,65.568,27.794,65.906,30.128,66.064C30.327,66.123,30.801,66.177,31.318,66.203L31.743,66.219C31.962,66.224,32.21,66.226,32.58,66.226C35.934,66.41,39.412,66.356,42.873,66.062C44.718,65.935,46.575,65.694,48.416,65.341L49.794,65.055C54.341,64.158,57.747,62.452,59.238,59.305C60.344,56.97,60.344,54.259,59.239,51.924C57.751,48.786,54.389,47.094,49.759,46.141C47.943,45.753,46.097,45.466,44.239,45.283L42.879,45.168C38.623,44.792,34.342,44.792,30.086,45.168ZM42.508,49.419L42.545,49.422C44.678,49.572,46.799,49.872,48.891,50.318C52.329,51.027,54.663,52.201,55.401,53.758C55.957,54.932,55.957,56.297,55.401,57.472C54.711,58.927,52.615,60.05,49.586,60.737L48.923,60.878C46.79,61.354,44.676,61.66,42.549,61.806C39.248,62.087,35.967,62.138,32.694,61.961L31.534,61.941C31.211,61.925,30.94,61.893,30.688,61.843C28.696,61.693,26.903,61.455,25.163,61.109L24.124,60.889C20.674,60.213,18.32,59.034,17.557,57.456C17.29,56.89,17.147,56.251,17.148,55.604C17.145,54.961,17.286,54.337,17.56,53.767C18.302,52.277,20.797,50.994,24.06,50.321C26.167,49.87,28.286,49.571,30.418,49.422C34.466,49.065,38.499,49.065,42.508,49.419ZM42.508,49.419"/>
</g>
  <g id="Medium-M" transform="matrix(1.0,0.0,0.0,1.0,1710.9885559950312,1053.9185755262813)">  <path fill-rule="evenodd" fill="#000000" clip-rule="evenodd" stroke-miterlimit="4" stroke-linejoin="miter" fill-opacity="1" stroke="none" stroke-linecap="butt" stroke-width="1px" stroke-opacity="1" stroke-dasharray="none" d="M36.496,7.37C27.846,7.37,20.834,14.412,20.834,23.099C20.834,31.786,27.846,38.828,36.496,38.828C45.145,38.828,52.157,31.786,52.157,23.099C52.157,14.412,45.145,7.37,36.496,7.37ZM36.496,11.638C42.798,11.638,47.908,16.769,47.908,23.099C47.908,29.429,42.798,34.56,36.496,34.56C30.193,34.56,25.083,29.429,25.083,23.099C25.083,16.769,30.193,11.638,36.496,11.638ZM30.086,45.168C27.793,45.327,25.475,45.654,23.189,46.144C18.777,47.053,15.247,48.869,13.745,51.887C13.178,53.067,12.893,54.33,12.898,55.609C12.896,56.879,13.179,58.145,13.725,59.302C15.168,62.285,18.287,63.973,22.498,64.909L23.252,65.066C25.476,65.568,27.794,65.906,30.128,66.064C30.327,66.123,30.801,66.177,31.318,66.203L31.743,66.219C31.962,66.224,32.21,66.226,32.58,66.226C35.934,66.41,39.412,66.356,42.873,66.062C44.718,65.935,46.575,65.694,48.416,65.341L49.794,65.055C54.341,64.158,57.747,62.452,59.238,59.305C60.344,56.97,60.344,54.259,59.239,51.924C57.751,48.786,54.389,47.094,49.759,46.141C47.943,45.753,46.097,45.466,44.239,45.283L42.879,45.168C38.623,44.792,34.342,44.792,30.086,45.168ZM42.508,49.419L42.545,49.422C44.678,49.572,46.799,49.872,48.891,50.318C52.329,51.027,54.663,52.201,55.401,53.758C55.957,54.932,55.957,56.297,55.401,57.472C54.711,58.927,52.615,60.05,49.586,60.737L48.923,60.878C46.79,61.354,44.676,61.66,42.549,61.806C39.248,62.087,35.967,62.138,32.694,61.961L31.534,61.941C31.211,61.925,30.94,61.893,30.688,61.843C28.696,61.693,26.903,61.455,25.163,61.109L24.124,60.889C20.674,60.213,18.32,59.034,17.557,57.456C17.29,56.89,17.147,56.251,17.148,55.604C17.145,54.961,17.286,54.337,17.56,53.767C18.302,52.277,20.797,50.994,24.06,50.321C26.167,49.87,28.286,49.571,30.418,49.422C34.466,49.065,38.499,49.065,42.508,49.419ZM42.508,49.419"/>
</g>
  <g id="Regular-M" transform="matrix(1.0,0.0,0.0,1.0,1414.2785559950312,1053.9185755262813)">  <path stroke-opacity="1" fill-rule="evenodd" stroke-miterlimit="4" stroke-linecap="butt" stroke-linejoin="miter" fill="#000000" stroke="none" stroke-dasharray="none" stroke-width="1px" fill-opacity="1" clip-rule="evenodd" d="M36.496,7.37C27.846,7.37,20.834,14.412,20.834,23.099C20.834,31.786,27.846,38.828,36.496,38.828C45.145,38.828,52.157,31.786,52.157,23.099C52.157,14.412,45.145,7.37,36.496,7.37ZM36.496,11.638C42.798,11.638,47.908,16.769,47.908,23.099C47.908,29.429,42.798,34.56,36.496,34.56C30.193,34.56,25.083,29.429,25.083,23.099C25.083,16.769,30.193,11.638,36.496,11.638ZM30.086,45.168C27.793,45.327,25.475,45.654,23.189,46.144C18.777,47.053,15.247,48.869,13.745,51.887C13.178,53.067,12.893,54.33,12.898,55.609C12.896,56.879,13.179,58.145,13.725,59.302C15.168,62.285,18.287,63.973,22.498,64.909L23.252,65.066C25.476,65.568,27.794,65.906,30.128,66.064C30.327,66.123,30.801,66.177,31.318,66.203L31.743,66.219C31.962,66.224,32.21,66.226,32.58,66.226C35.934,66.41,39.412,66.356,42.873,66.062C44.718,65.935,46.575,65.694,48.416,65.341L49.794,65.055C54.341,64.158,57.747,62.452,59.238,59.305C60.344,56.97,60.344,54.259,59.239,51.924C57.751,48.786,54.389,47.094,49.759,46.141C47.943,45.753,46.097,45.466,44.239,45.283L42.879,45.168C38.623,44.792,34.342,44.792,30.086,45.168ZM42.508,49.419L42.545,49.422C44.678,49.572,46.799,49.872,48.891,50.318C52.329,51.027,54.663,52.201,55.401,53.758C55.957,54.932,55.957,56.297,55.401,57.472C54.711,58.927,52.615,60.05,49.586,60.737L48.923,60.878C46.79,61.354,44.676,61.66,42.549,61.806C39.248,62.087,35.967,62.138,32.694,61.961L31.534,61.941C31.211,61.925,30.94,61.893,30.688,61.843C28.696,61.693,26.903,61.455,25.163,61.109L24.124,60.889C20.674,60.213,18.32,59.034,17.557,57.456C17.29,56.89,17.147,56.251,17.148,55.604C17.145,54.961,17.286,54.337,17.56,53.767C18.302,52.277,20.797,50.994,24.06,50.321C26.167,49.87,28.286,49.571,30.418,49.422C34.466,49.065,38.499,49.065,42.508,49.419ZM42.508,49.419"/>
</g>
  <g id="Light-M" transform="matrix(1.0,0.0,0.0,1.0,1117.5685559950314,1053.9185755262813)">  <path stroke-linecap="butt" fill-rule="evenodd" fill-opacity="1" stroke-width="1px" stroke-linejoin="miter" stroke="none" stroke-miterlimit="4" stroke-dasharray="none" clip-rule="evenodd" stroke-opacity="1" fill="#000000" d="M36.496,7.37C27.846,7.37,20.834,14.412,20.834,23.099C20.834,31.786,27.846,38.828,36.496,38.828C45.145,38.828,52.157,31.786,52.157,23.099C52.157,14.412,45.145,7.37,36.496,7.37ZM36.496,11.638C42.798,11.638,47.908,16.769,47.908,23.099C47.908,29.429,42.798,34.56,36.496,34.56C30.193,34.56,25.083,29.429,25.083,23.099C25.083,16.769,30.193,11.638,36.496,11.638ZM30.086,45.168C27.793,45.327,25.475,45.654,23.189,46.144C18.777,47.053,15.247,48.869,13.745,51.887C13.178,53.067,12.893,54.33,12.898,55.609C12.896,56.879,13.179,58.145,13.725,59.302C15.168,62.285,18.287,63.973,22.498,64.909L23.252,65.066C25.476,65.568,27.794,65.906,30.128,66.064C30.327,66.123,30.801,66.177,31.318,66.203L31.743,66.219C31.962,66.224,32.21,66.226,32.58,66.226C35.934,66.41,39.412,66.356,42.873,66.062C44.718,65.935,46.575,65.694,48.416,65.341L49.794,65.055C54.341,64.158,57.747,62.452,59.238,59.305C60.344,56.97,60.344,54.259,59.239,51.924C57.751,48.786,54.389,47.094,49.759,46.141C47.943,45.753,46.097,45.466,44.239,45.283L42.879,45.168C38.623,44.792,34.342,44.792,30.086,45.168ZM42.508,49.419L42.545,49.422C44.678,49.572,46.799,49.872,48.891,50.318C52.329,51.027,54.663,52.201,55.401,53.758C55.957,54.932,55.957,56.297,55.401,57.472C54.711,58.927,52.615,60.05,49.586,60.737L48.923,60.878C46.79,61.354,44.676,61.66,42.549,61.806C39.248,62.087,35.967,62.138,32.694,61.961L31.534,61.941C31.211,61.925,30.94,61.893,30.688,61.843C28.696,61.693,26.903,61.455,25.163,61.109L24.124,60.889C20.674,60.213,18.32,59.034,17.557,57.456C17.29,56.89,17.147,56.251,17.148,55.604C17.145,54.961,17.286,54.337,17.56,53.767C18.302,52.277,20.797,50.994,24.06,50.321C26.167,49.87,28.286,49.571,30.418,49.422C34.466,49.065,38.499,49.065,42.508,49.419ZM42.508,49.419"/>
</g>
  <g id="Thin-M" transform="matrix(1.0,0.0,0.0,1.0,820.8585559950315,1053.9185755262813)">  <path stroke-width="1px" stroke-dasharray="none" stroke="none" fill-rule="evenodd" stroke-opacity="1" stroke-miterlimit="4" stroke-linecap="butt" clip-rule="evenodd" stroke-linejoin="miter" fill="#000000" fill-opacity="1" d="M36.496,7.37C27.846,7.37,20.834,14.412,20.834,23.099C20.834,31.786,27.846,38.828,36.496,38.828C45.145,38.828,52.157,31.786,52.157,23.099C52.157,14.412,45.145,7.37,36.496,7.37ZM36.496,11.638C42.798,11.638,47.908,16.769,47.908,23.099C47.908,29.429,42.798,34.56,36.496,34.56C30.193,34.56,25.083,29.429,25.083,23.099C25.083,16.769,30.193,11.638,36.496,11.638ZM30.086,45.168C27.793,45.327,25.475,45.654,23.189,46.144C18.777,47.053,15.247,48.869,13.745,51.887C13.178,53.067,12.893,54.33,12.898,55.609C12.896,56.879,13.179,58.145,13.725,59.302C15.168,62.285,18.287,63.973,22.498,64.909L23.252,65.066C25.476,65.568,27.794,65.906,30.128,66.064C30.327,66.123,30.801,66.177,31.318,66.203L31.743,66.219C31.962,66.224,32.21,66.226,32.58,66.226C35.934,66.41,39.412,66.356,42.873,66.062C44.718,65.935,46.575,65.694,48.416,65.341L49.794,65.055C54.341,64.158,57.747,62.452,59.238,59.305C60.344,56.97,60.344,54.259,59.239,51.924C57.751,48.786,54.389,47.094,49.759,46.141C47.943,45.753,46.097,45.466,44.239,45.283L42.879,45.168C38.623,44.792,34.342,44.792,30.086,45.168ZM42.508,49.419L42.545,49.422C44.678,49.572,46.799,49.872,48.891,50.318C52.329,51.027,54.663,52.201,55.401,53.758C55.957,54.932,55.957,56.297,55.401,57.472C54.711,58.927,52.615,60.05,49.586,60.737L48.923,60.878C46.79,61.354,44.676,61.66,42.549,61.806C39.248,62.087,35.967,62.138,32.694,61.961L31.534,61.941C31.211,61.925,30.94,61.893,30.688,61.843C28.696,61.693,26.903,61.455,25.163,61.109L24.124,60.889C20.674,60.213,18.32,59.034,17.557,57.456C17.29,56.89,17.147,56.251,17.148,55.604C17.145,54.961,17.286,54.337,17.56,53.767C18.302,52.277,20.797,50.994,24.06,50.321C26.167,49.87,28.286,49.571,30.418,49.422C34.466,49.065,38.499,49.065,42.508,49.419ZM42.508,49.419"/>
</g>
  <g id="Ultralight-M" transform="matrix(1.0,0.0,0.0,1.0,524.1485559950314,1053.9185755262813)">  <path fill-opacity="1" fill-rule="evenodd" fill="#000000" stroke="none" stroke-miterlimit="4" stroke-linecap="butt" stroke-width="1px" clip-rule="evenodd" stroke-dasharray="none" stroke-opacity="1" stroke-linejoin="miter" d="M36.496,7.37C27.846,7.37,20.834,14.412,20.834,23.099C20.834,31.786,27.846,38.828,36.496,38.828C45.145,38.828,52.157,31.786,52.157,23.099C52.157,14.412,45.145,7.37,36.496,7.37ZM36.496,11.638C42.798,11.638,47.908,16.769,47.908,23.099C47.908,29.429,42.798,34.56,36.496,34.56C30.193,34.56,25.083,29.429,25.083,23.099C25.083,16.769,30.193,11.638,36.496,11.638ZM30.086,45.168C27.793,45.327,25.475,45.654,23.189,46.144C18.777,47.053,15.247,48.869,13.745,51.887C13.178,53.067,12.893,54.33,12.898,55.609C12.896,56.879,13.179,58.145,13.725,59.302C15.168,62.285,18.287,63.973,22.498,64.909L23.252,65.066C25.476,65.568,27.794,65.906,30.128,66.064C30.327,66.123,30.801,66.177,31.318,66.203L31.743,66.219C31.962,66.224,32.21,66.226,32.58,66.226C35.934,66.41,39.412,66.356,42.873,66.062C44.718,65.935,46.575,65.694,48.416,65.341L49.794,65.055C54.341,64.158,57.747,62.452,59.238,59.305C60.344,56.97,60.344,54.259,59.239,51.924C57.751,48.786,54.389,47.094,49.759,46.141C47.943,45.753,46.097,45.466,44.239,45.283L42.879,45.168C38.623,44.792,34.342,44.792,30.086,45.168ZM42.508,49.419L42.545,49.422C44.678,49.572,46.799,49.872,48.891,50.318C52.329,51.027,54.663,52.201,55.401,53.758C55.957,54.932,55.957,56.297,55.401,57.472C54.711,58.927,52.615,60.05,49.586,60.737L48.923,60.878C46.79,61.354,44.676,61.66,42.549,61.806C39.248,62.087,35.967,62.138,32.694,61.961L31.534,61.941C31.211,61.925,30.94,61.893,30.688,61.843C28.696,61.693,26.903,61.455,25.163,61.109L24.124,60.889C20.674,60.213,18.32,59.034,17.557,57.456C17.29,56.89,17.147,56.251,17.148,55.604C17.145,54.961,17.286,54.337,17.56,53.767C18.302,52.277,20.797,50.994,24.06,50.321C26.167,49.87,28.286,49.571,30.418,49.422C34.466,49.065,38.499,49.065,42.508,49.419ZM42.508,49.419"/>
</g>
  <g id="Black-S" transform="matrix(1.0,0.0,0.0,1.0,2905.8253193441096,631.9153388753596)">  <path stroke-linecap="butt" stroke-linejoin="miter" stroke-miterlimit="4" fill-rule="evenodd" fill-opacity="1" stroke-width="1px" stroke-dasharray="none" fill="#000000" clip-rule="evenodd" stroke-opacity="1" stroke="none" d="M28.576,5.771C21.803,5.771,16.313,11.285,16.313,18.087C16.313,24.888,21.803,30.402,28.576,30.402C35.349,30.402,40.839,24.888,40.839,18.087C40.839,11.285,35.349,5.771,28.576,5.771ZM28.576,9.113C33.511,9.113,37.512,13.13,37.512,18.087C37.512,23.043,33.511,27.06,28.576,27.06C23.641,27.06,19.64,23.043,19.64,18.087C19.64,13.13,23.641,9.113,28.576,9.113ZM23.557,35.366C21.762,35.491,19.947,35.747,18.157,36.131C14.702,36.843,11.939,38.264,10.762,40.627C10.319,41.551,10.095,42.541,10.099,43.542C10.098,44.537,10.319,45.527,10.747,46.434C11.876,48.769,14.318,50.091,17.616,50.824L18.206,50.947C19.948,51.34,21.763,51.604,23.59,51.728C23.746,51.774,24.117,51.817,24.522,51.837L24.855,51.85C25.026,51.854,25.22,51.855,25.51,51.855C28.136,51.999,30.859,51.957,33.57,51.726C35.014,51.627,36.468,51.439,37.91,51.162L38.989,50.938C42.549,50.236,45.216,48.9,46.384,46.436C47.249,44.607,47.249,42.485,46.384,40.657C45.219,38.2,42.587,36.875,38.962,36.128C37.539,35.825,36.094,35.6,34.639,35.456L33.575,35.366C30.242,35.072,26.89,35.072,23.557,35.366ZM33.284,38.695L33.313,38.698C34.983,38.815,36.643,39.05,38.281,39.399C40.974,39.954,42.801,40.874,43.379,42.093C43.815,43.012,43.815,44.08,43.379,45C42.839,46.14,41.198,47.02,38.826,47.557L38.306,47.667C36.636,48.04,34.981,48.28,33.316,48.394C30.731,48.614,28.162,48.654,25.599,48.515L24.691,48.5C24.439,48.487,24.226,48.462,24.029,48.423C22.469,48.305,21.065,48.119,19.703,47.849L18.889,47.676C16.188,47.147,14.345,46.224,13.747,44.988C13.538,44.545,13.426,44.044,13.427,43.538C13.425,43.035,13.535,42.546,13.749,42.1C14.33,40.933,16.284,39.928,18.839,39.402C20.489,39.048,22.148,38.814,23.818,38.698C26.987,38.418,30.144,38.418,33.284,38.695ZM33.284,38.695"/>
</g>
  <g id="Heavy-S" transform="matrix(1.0,0.0,0.0,1.0,2609.1153193441096,631.9153388753596)">  <path stroke-linecap="butt" stroke-width="1px" stroke-dasharray="none" fill-rule="evenodd" stroke="none" stroke-opacity="1" stroke-linejoin="miter" clip-rule="evenodd" stroke-miterlimit="4" fill="#000000" fill-opacity="1" d="M28.576,5.771C21.803,5.771,16.313,11.285,16.313,18.087C16.313,24.888,21.803,30.402,28.576,30.402C35.349,30.402,40.839,24.888,40.839,18.087C40.839,11.285,35.349,5.771,28.576,5.771ZM28.576,9.113C33.511,9.113,37.512,13.13,37.512,18.087C37.512,23.043,33.511,27.06,28.576,27.06C23.641,27.06,19.64,23.043,19.64,18.087C19.64,13.13,23.641,9.113,28.576,9.113ZM23.557,35.366C21.762,35.491,19.947,35.747,18.157,36.131C14.702,36.843,11.939,38.264,10.762,40.627C10.319,41.551,10.095,42.541,10.099,43.542C10.098,44.537,10.319,45.527,10.747,46.434C11.876,48.769,14.318,50.091,17.616,50.824L18.206,50.947C19.948,51.34,21.763,51.604,23.59,51.728C23.746,51.774,24.117,51.817,24.522,51.837L24.855,51.85C25.026,51.854,25.22,51.855,25.51,51.855C28.136,51.999,30.859,51.957,33.57,51.726C35.014,51.627,36.468,51.439,37.91,51.162L38.989,50.938C42.549,50.236,45.216,48.9,46.384,46.436C47.249,44.607,47.249,42.485,46.384,40.657C45.219,38.2,42.587,36.875,38.962,36.128C37.539,35.825,36.094,35.6,34.639,35.456L33.575,35.366C30.242,35.072,26.89,35.072,23.557,35.366ZM33.284,38.695L33.313,38.698C34.983,38.815,36.643,39.05,38.281,39.399C40.974,39.954,42.801,40.874,43.379,42.093C43.815,43.012,43.815,44.08,43.379,45C42.839,46.14,41.198,47.02,38.826,47.557L38.306,47.667C36.636,48.04,34.981,48.28,33.316,48.394C30.731,48.614,28.162,48.654,25.599,48.515L24.691,48.5C24.439,48.487,24.226,48.462,24.029,48.423C22.469,48.305,21.065,48.119,19.703,47.849L18.889,47.676C16.188,47.147,14.345,46.224,13.747,44.988C13.538,44.545,13.426,44.044,13.427,43.538C13.425,43.035,13.535,42.546,13.749,42.1C14.33,40.933,16.284,39.928,18.839,39.402C20.489,39.048,22.148,38.814,23.818,38.698C26.987,38.418,30.144,38.418,33.284,38.695ZM33.284,38.695"/>
</g>
  <g id="Bold-S" transform="matrix(1.0,0.0,0.0,1.0,2312.4053193441096,631.9153388753596)">  <path fill="#000000" clip-rule="evenodd" stroke-miterlimit="4" stroke-dasharray="none" stroke-width="1px" fill-rule="evenodd" fill-opacity="1" stroke-linejoin="miter" stroke="none" stroke-opacity="1" stroke-linecap="butt" d="M28.576,5.771C21.803,5.771,16.313,11.285,16.313,18.087C16.313,24.888,21.803,30.402,28.576,30.402C35.349,30.402,40.839,24.888,40.839,18.087C40.839,11.285,35.349,5.771,28.576,5.771ZM28.576,9.113C33.511,9.113,37.512,13.13,37.512,18.087C37.512,23.043,33.511,27.06,28.576,27.06C23.641,27.06,19.64,23.043,19.64,18.087C19.64,13.13,23.641,9.113,28.576,9.113ZM23.557,35.366C21.762,35.491,19.947,35.747,18.157,36.131C14.702,36.843,11.939,38.264,10.762,40.627C10.319,41.551,10.095,42.541,10.099,43.542C10.098,44.537,10.319,45.527,10.747,46.434C11.876,48.769,14.318,50.091,17.616,50.824L18.206,50.947C19.948,51.34,21.763,51.604,23.59,51.728C23.746,51.774,24.117,51.817,24.522,51.837L24.855,51.85C25.026,51.854,25.22,51.855,25.51,51.855C28.136,51.999,30.859,51.957,33.57,51.726C35.014,51.627,36.468,51.439,37.91,51.162L38.989,50.938C42.549,50.236,45.216,48.9,46.384,46.436C47.249,44.607,47.249,42.485,46.384,40.657C45.219,38.2,42.587,36.875,38.962,36.128C37.539,35.825,36.094,35.6,34.639,35.456L33.575,35.366C30.242,35.072,26.89,35.072,23.557,35.366ZM33.284,38.695L33.313,38.698C34.983,38.815,36.643,39.05,38.281,39.399C40.974,39.954,42.801,40.874,43.379,42.093C43.815,43.012,43.815,44.08,43.379,45C42.839,46.14,41.198,47.02,38.826,47.557L38.306,47.667C36.636,48.04,34.981,48.28,33.316,48.394C30.731,48.614,28.162,48.654,25.599,48.515L24.691,48.5C24.439,48.487,24.226,48.462,24.029,48.423C22.469,48.305,21.065,48.119,19.703,47.849L18.889,47.676C16.188,47.147,14.345,46.224,13.747,44.988C13.538,44.545,13.426,44.044,13.427,43.538C13.425,43.035,13.535,42.546,13.749,42.1C14.33,40.933,16.284,39.928,18.839,39.402C20.489,39.048,22.148,38.814,23.818,38.698C26.987,38.418,30.144,38.418,33.284,38.695ZM33.284,38.695"/>
</g>
  <g id="Semibold-S" transform="matrix(1.0,0.0,0.0,1.0,2015.6953193441095,631.9153388753596)">  <path stroke-opacity="1" fill-opacity="1" fill="#000000" stroke-linecap="butt" stroke="none" stroke-miterlimit="4" clip-rule="evenodd" stroke-dasharray="none" fill-rule="evenodd" stroke-width="1px" stroke-linejoin="miter" d="M28.576,5.771C21.803,5.771,16.313,11.285,16.313,18.087C16.313,24.888,21.803,30.402,28.576,30.402C35.349,30.402,40.839,24.888,40.839,18.087C40.839,11.285,35.349,5.771,28.576,5.771ZM28.576,9.113C33.511,9.113,37.512,13.13,37.512,18.087C37.512,23.043,33.511,27.06,28.576,27.06C23.641,27.06,19.64,23.043,19.64,18.087C19.64,13.13,23.641,9.113,28.576,9.113ZM23.557,35.366C21.762,35.491,19.947,35.747,18.157,36.131C14.702,36.843,11.939,38.264,10.762,40.627C10.319,41.551,10.095,42.541,10.099,43.542C10.098,44.537,10.319,45.527,10.747,46.434C11.876,48.769,14.318,50.091,17.616,50.824L18.206,50.947C19.948,51.34,21.763,51.604,23.59,51.728C23.746,51.774,24.117,51.817,24.522,51.837L24.855,51.85C25.026,51.854,25.22,51.855,25.51,51.855C28.136,51.999,30.859,51.957,33.57,51.726C35.014,51.627,36.468,51.439,37.91,51.162L38.989,50.938C42.549,50.236,45.216,48.9,46.384,46.436C47.249,44.607,47.249,42.485,46.384,40.657C45.219,38.2,42.587,36.875,38.962,36.128C37.539,35.825,36.094,35.6,34.639,35.456L33.575,35.366C30.242,35.072,26.89,35.072,23.557,35.366ZM33.284,38.695L33.313,38.698C34.983,38.815,36.643,39.05,38.281,39.399C40.974,39.954,42.801,40.874,43.379,42.093C43.815,43.012,43.815,44.08,43.379,45C42.839,46.14,41.198,47.02,38.826,47.557L38.306,47.667C36.636,48.04,34.981,48.28,33.316,48.394C30.731,48.614,28.162,48.654,25.599,48.515L24.691,48.5C24.439,48.487,24.226,48.462,24.029,48.423C22.469,48.305,21.065,48.119,19.703,47.849L18.889,47.676C16.188,47.147,14.345,46.224,13.747,44.988C13.538,44.545,13.426,44.044,13.427,43.538C13.425,43.035,13.535,42.546,13.749,42.1C14.33,40.933,16.284,39.928,18.839,39.402C20.489,39.048,22.148,38.814,23.818,38.698C26.987,38.418,30.144,38.418,33.284,38.695ZM33.284,38.695"/>
</g>
  <g id="Medium-S" transform="matrix(1.0,0.0,0.0,1.0,1718.9853193441095,631.9153388753596)">  <path fill-rule="evenodd" fill="#000000" clip-rule="evenodd" stroke-miterlimit="4" stroke-linejoin="miter" fill-opacity="1" stroke="none" stroke-linecap="butt" stroke-width="1px" stroke-opacity="1" stroke-dasharray="none" d="M28.576,5.771C21.803,5.771,16.313,11.285,16.313,18.087C16.313,24.888,21.803,30.402,28.576,30.402C35.349,30.402,40.839,24.888,40.839,18.087C40.839,11.285,35.349,5.771,28.576,5.771ZM28.576,9.113C33.511,9.113,37.512,13.13,37.512,18.087C37.512,23.043,33.511,27.06,28.576,27.06C23.641,27.06,19.64,23.043,19.64,18.087C19.64,13.13,23.641,9.113,28.576,9.113ZM23.557,35.366C21.762,35.491,19.947,35.747,18.157,36.131C14.702,36.843,11.939,38.264,10.762,40.627C10.319,41.551,10.095,42.541,10.099,43.542C10.098,44.537,10.319,45.527,10.747,46.434C11.876,48.769,14.318,50.091,17.616,50.824L18.206,50.947C19.948,51.34,21.763,51.604,23.59,51.728C23.746,51.774,24.117,51.817,24.522,51.837L24.855,51.85C25.026,51.854,25.22,51.855,25.51,51.855C28.136,51.999,30.859,51.957,33.57,51.726C35.014,51.627,36.468,51.439,37.91,51.162L38.989,50.938C42.549,50.236,45.216,48.9,46.384,46.436C47.249,44.607,47.249,42.485,46.384,40.657C45.219,38.2,42.587,36.875,38.962,36.128C37.539,35.825,36.094,35.6,34.639,35.456L33.575,35.366C30.242,35.072,26.89,35.072,23.557,35.366ZM33.284,38.695L33.313,38.698C34.983,38.815,36.643,39.05,38.281,39.399C40.974,39.954,42.801,40.874,43.379,42.093C43.815,43.012,43.815,44.08,43.379,45C42.839,46.14,41.198,47.02,38.826,47.557L38.306,47.667C36.636,48.04,34.981,48.28,33.316,48.394C30.731,48.614,28.162,48.654,25.599,48.515L24.691,48.5C24.439,48.487,24.226,48.462,24.029,48.423C22.469,48.305,21.065,48.119,19.703,47.849L18.889,47.676C16.188,47.147,14.345,46.224,13.747,44.988C13.538,44.545,13.426,44.044,13.427,43.538C13.425,43.035,13.535,42.546,13.749,42.1C14.33,40.933,16.284,39.928,18.839,39.402C20.489,39.048,22.148,38.814,23.818,38.698C26.987,38.418,30.144,38.418,33.284,38.695ZM33.284,38.695"/>
</g>
  <g id="Regular-S" transform="matrix(1.0,0.0,0.0,1.0,1422.2753193441094,631.9153388753596)">  <path stroke-opacity="1" fill-rule="evenodd" stroke-miterlimit="4" stroke-linecap="butt" stroke-linejoin="miter" fill="#000000" stroke="none" stroke-dasharray="none" stroke-width="1px" fill-opacity="1" clip-rule="evenodd" d="M28.576,5.771C21.803,5.771,16.313,11.285,16.313,18.087C16.313,24.888,21.803,30.402,28.576,30.402C35.349,30.402,40.839,24.888,40.839,18.087C40.839,11.285,35.349,5.771,28.576,5.771ZM28.576,9.113C33.511,9.113,37.512,13.13,37.512,18.087C37.512,23.043,33.511,27.06,28.576,27.06C23.641,27.06,19.64,23.043,19.64,18.087C19.64,13.13,23.641,9.113,28.576,9.113ZM23.557,35.366C21.762,35.491,19.947,35.747,18.157,36.131C14.702,36.843,11.939,38.264,10.762,40.627C10.319,41.551,10.095,42.541,10.099,43.542C10.098,44.537,10.319,45.527,10.747,46.434C11.876,48.769,14.318,50.091,17.616,50.824L18.206,50.947C19.948,51.34,21.763,51.604,23.59,51.728C23.746,51.774,24.117,51.817,24.522,51.837L24.855,51.85C25.026,51.854,25.22,51.855,25.51,51.855C28.136,51.999,30.859,51.957,33.57,51.726C35.014,51.627,36.468,51.439,37.91,51.162L38.989,50.938C42.549,50.236,45.216,48.9,46.384,46.436C47.249,44.607,47.249,42.485,46.384,40.657C45.219,38.2,42.587,36.875,38.962,36.128C37.539,35.825,36.094,35.6,34.639,35.456L33.575,35.366C30.242,35.072,26.89,35.072,23.557,35.366ZM33.284,38.695L33.313,38.698C34.983,38.815,36.643,39.05,38.281,39.399C40.974,39.954,42.801,40.874,43.379,42.093C43.815,43.012,43.815,44.08,43.379,45C42.839,46.14,41.198,47.02,38.826,47.557L38.306,47.667C36.636,48.04,34.981,48.28,33.316,48.394C30.731,48.614,28.162,48.654,25.599,48.515L24.691,48.5C24.439,48.487,24.226,48.462,24.029,48.423C22.469,48.305,21.065,48.119,19.703,47.849L18.889,47.676C16.188,47.147,14.345,46.224,13.747,44.988C13.538,44.545,13.426,44.044,13.427,43.538C13.425,43.035,13.535,42.546,13.749,42.1C14.33,40.933,16.284,39.928,18.839,39.402C20.489,39.048,22.148,38.814,23.818,38.698C26.987,38.418,30.144,38.418,33.284,38.695ZM33.284,38.695"/>
</g>
  <g id="Light-S" transform="matrix(1.0,0.0,0.0,1.0,1125.5653193441096,631.9153388753596)">  <path stroke-linecap="butt" fill-rule="evenodd" fill-opacity="1" stroke-width="1px" stroke-linejoin="miter" stroke="none" stroke-miterlimit="4" stroke-dasharray="none" clip-rule="evenodd" stroke-opacity="1" fill="#000000" d="M28.576,5.771C21.803,5.771,16.313,11.285,16.313,18.087C16.313,24.888,21.803,30.402,28.576,30.402C35.349,30.402,40.839,24.888,40.839,18.087C40.839,11.285,35.349,5.771,28.576,5.771ZM28.576,9.113C33.511,9.113,37.512,13.13,37.512,18.087C37.512,23.043,33.511,27.06,28.576,27.06C23.641,27.06,19.64,23.043,19.64,18.087C19.64,13.13,23.641,9.113,28.576,9.113ZM23.557,35.366C21.762,35.491,19.947,35.747,18.157,36.131C14.702,36.843,11.939,38.264,10.762,40.627C10.319,41.551,10.095,42.541,10.099,43.542C10.098,44.537,10.319,45.527,10.747,46.434C11.876,48.769,14.318,50.091,17.616,50.824L18.206,50.947C19.948,51.34,21.763,51.604,23.59,51.728C23.746,51.774,24.117,51.817,24.522,51.837L24.855,51.85C25.026,51.854,25.22,51.855,25.51,51.855C28.136,51.999,30.859,51.957,33.57,51.726C35.014,51.627,36.468,51.439,37.91,51.162L38.989,50.938C42.549,50.236,45.216,48.9,46.384,46.436C47.249,44.607,47.249,42.485,46.384,40.657C45.219,38.2,42.587,36.875,38.962,36.128C37.539,35.825,36.094,35.6,34.639,35.456L33.575,35.366C30.242,35.072,26.89,35.072,23.557,35.366ZM33.284,38.695L33.313,38.698C34.983,38.815,36.643,39.05,38.281,39.399C40.974,39.954,42.801,40.874,43.379,42.093C43.815,43.012,43.815,44.08,43.379,45C42.839,46.14,41.198,47.02,38.826,47.557L38.306,47.667C36.636,48.04,34.981,48.28,33.316,48.394C30.731,48.614,28.162,48.654,25.599,48.515L24.691,48.5C24.439,48.487,24.226,48.462,24.029,48.423C22.469,48.305,21.065,48.119,19.703,47.849L18.889,47.676C16.188,47.147,14.345,46.224,13.747,44.988C13.538,44.545,13.426,44.044,13.427,43.538C13.425,43.035,13.535,42.546,13.749,42.1C14.33,40.933,16.284,39.928,18.839,39.402C20.489,39.048,22.148,38.814,23.818,38.698C26.987,38.418,30.144,38.418,33.284,38.695ZM33.284,38.695"/>
</g>
  <g id="Thin-S" transform="matrix(1.0,0.0,0.0,1.0,828.8553193441096,631.9153388753596)">  <path stroke-width="1px" stroke-dasharray="none" stroke="none" fill-rule="evenodd" stroke-opacity="1" stroke-miterlimit="4" stroke-linecap="butt" clip-rule="evenodd" stroke-linejoin="miter" fill="#000000" fill-opacity="1" d="M28.576,5.771C21.803,5.771,16.313,11.285,16.313,18.087C16.313,24.888,21.803,30.402,28.576,30.402C35.349,30.402,40.839,24.888,40.839,18.087C40.839,11.285,35.349,5.771,28.576,5.771ZM28.576,9.113C33.511,9.113,37.512,13.13,37.512,18.087C37.512,23.043,33.511,27.06,28.576,27.06C23.641,27.06,19.64,23.043,19.64,18.087C19.64,13.13,23.641,9.113,28.576,9.113ZM23.557,35.366C21.762,35.491,19.947,35.747,18.157,36.131C14.702,36.843,11.939,38.264,10.762,40.627C10.319,41.551,10.095,42.541,10.099,43.542C10.098,44.537,10.319,45.527,10.747,46.434C11.876,48.769,14.318,50.091,17.616,50.824L18.206,50.947C19.948,51.34,21.763,51.604,23.59,51.728C23.746,51.774,24.117,51.817,24.522,51.837L24.855,51.85C25.026,51.854,25.22,51.855,25.51,51.855C28.136,51.999,30.859,51.957,33.57,51.726C35.014,51.627,36.468,51.439,37.91,51.162L38.989,50.938C42.549,50.236,45.216,48.9,46.384,46.436C47.249,44.607,47.249,42.485,46.384,40.657C45.219,38.2,42.587,36.875,38.962,36.128C37.539,35.825,36.094,35.6,34.639,35.456L33.575,35.366C30.242,35.072,26.89,35.072,23.557,35.366ZM33.284,38.695L33.313,38.698C34.983,38.815,36.643,39.05,38.281,39.399C40.974,39.954,42.801,40.874,43.379,42.093C43.815,43.012,43.815,44.08,43.379,45C42.839,46.14,41.198,47.02,38.826,47.557L38.306,47.667C36.636,48.04,34.981,48.28,33.316,48.394C30.731,48.614,28.162,48.654,25.599,48.515L24.691,48.5C24.439,48.487,24.226,48.462,24.029,48.423C22.469,48.305,21.065,48.119,19.703,47.849L18.889,47.676C16.188,47.147,14.345,46.224,13.747,44.988C13.538,44.545,13.426,44.044,13.427,43.538C13.425,43.035,13.535,42.546,13.749,42.1C14.33,40.933,16.284,39.928,18.839,39.402C20.489,39.048,22.148,38.814,23.818,38.698C26.987,38.418,30.144,38.418,33.284,38.695ZM33.284,38.695"/>
</g>
  <g id="Ultralight-S" transform="matrix(1.0,0.0,0.0,1.0,532.1453193441096,631.9153388753596)">  <path fill-opacity="1" fill-rule="evenodd" fill="#000000" stroke="none" stroke-miterlimit="4" stroke-linecap="butt" stroke-width="1px" clip-rule="evenodd" stroke-dasharray="none" stroke-opacity="1" stroke-linejoin="miter" d="M28.576,5.771C21.803,5.771,16.313,11.285,16.313,18.087C16.313,24.888,21.803,30.402,28.576,30.402C35.349,30.402,40.839,24.888,40.839,18.087C40.839,11.285,35.349,5.771,28.576,5.771ZM28.576,9.113C33.511,9.113,37.512,13.13,37.512,18.087C37.512,23.043,33.511,27.06,28.576,27.06C23.641,27.06,19.64,23.043,19.64,18.087C19.64,13.13,23.641,9.113,28.576,9.113ZM23.557,35.366C21.762,35.491,19.947,35.747,18.157,36.131C14.702,36.843,11.939,38.264,10.762,40.627C10.319,41.551,10.095,42.541,10.099,43.542C10.098,44.537,10.319,45.527,10.747,46.434C11.876,48.769,14.318,50.091,17.616,50.824L18.206,50.947C19.948,51.34,21.763,51.604,23.59,51.728C23.746,51.774,24.117,51.817,24.522,51.837L24.855,51.85C25.026,51.854,25.22,51.855,25.51,51.855C28.136,51.999,30.859,51.957,33.57,51.726C35.014,51.627,36.468,51.439,37.91,51.162L38.989,50.938C42.549,50.236,45.216,48.9,46.384,46.436C47.249,44.607,47.249,42.485,46.384,40.657C45.219,38.2,42.587,36.875,38.962,36.128C37.539,35.825,36.094,35.6,34.639,35.456L33.575,35.366C30.242,35.072,26.89,35.072,23.557,35.366ZM33.284,38.695L33.313,38.698C34.983,38.815,36.643,39.05,38.281,39.399C40.974,39.954,42.801,40.874,43.379,42.093C43.815,43.012,43.815,44.08,43.379,45C42.839,46.14,41.198,47.02,38.826,47.557L38.306,47.667C36.636,48.04,34.981,48.28,33.316,48.394C30.731,48.614,28.162,48.654,25.599,48.515L24.691,48.5C24.439,48.487,24.226,48.462,24.029,48.423C22.469,48.305,21.065,48.119,19.703,47.849L18.889,47.676C16.188,47.147,14.345,46.224,13.747,44.988C13.538,44.545,13.426,44.044,13.427,43.538C13.425,43.035,13.535,42.546,13.749,42.1C14.33,40.933,16.284,39.928,18.839,39.402C20.489,39.048,22.148,38.814,23.818,38.698C26.987,38.418,30.144,38.418,33.284,38.695ZM33.284,38.695"/>
</g>
 </g>
</svg>
