<svg width="111" height="182" viewBox="0 0 111 182" fill="none" xmlns="http://www.w3.org/2000/svg">
<path d="M3.35795 57.459C3.35795 57.459 3.91762 61.9363 1.49241 69.3985C-0.373139 74.9951 -0.932803 83.017 1.49241 87.8674C3.91762 92.9044 2.98484 96.6355 2.98484 96.6355C2.98484 96.6355 6.15627 95.3296 7.2756 92.5312C8.02182 90.6657 6.52938 85.6287 6.52938 85.6287C6.52938 85.6287 8.95459 88.2405 10.8201 88.2405C12.6857 88.2405 13.4319 87.3077 13.4319 87.3077C13.4319 87.3077 11.1932 84.1363 9.70081 79.8455C8.20837 75.5548 7.46215 70.3313 8.76804 67.3464C10.0739 64.5481 8.02182 57.6455 8.02182 57.6455L3.35795 57.459Z" fill="#2C1D1B"/>
<path d="M21.6403 39.3631C19.9613 43.4673 18.4688 47.758 19.4016 52.2353C20.5209 57.832 22.0134 57.832 23.8789 62.1227C24.9982 64.7345 23.6924 66.6 22.3865 68.279C21.2671 69.958 21.0806 72.5698 24.8117 78.7261C27.61 83.2034 29.289 89.1731 31.7142 87.8672C35.6319 85.8151 34.8856 85.2555 33.3932 79.8454C32.2739 75.7412 28.7293 70.7042 28.7293 70.7042C28.7293 70.7042 33.2066 66.4135 33.3932 61.0034C33.5798 55.5933 24.4386 32.4605 21.6403 39.3631Z" fill="#BE6E2C"/>
<path d="M22.5731 5.96988C22.5731 5.96988 21.0807 1.86568 13.0588 5.22366C5.03699 8.39509 3.358 15.6707 4.47732 20.8942C5.59665 26.1178 3.73111 30.5951 4.10422 36.7514C4.47732 42.9077 3.73111 41.7884 2.05211 50.9295C1.3059 55.5934 5.59665 64.1749 10.4471 64.3615C14.3647 64.548 24.0656 65.4808 27.4235 54.2875C29.1025 49.064 25.3714 43.8405 25.9311 39.9228C27.4235 31.5279 30.7815 25.185 29.4756 19.5884C28.916 15.8573 22.5731 5.96988 22.5731 5.96988Z" fill="#BE6E2C"/>
<path d="M22.7596 34.1396C22.5731 34.5128 21.2672 38.0573 21.4537 39.7363C21.8268 42.9077 24.2521 44.7733 25.7445 45.8926C27.2369 46.8254 30.5949 49.8102 30.5949 49.8102C30.5949 49.8102 27.4235 40.296 26.8638 37.1245C26.1176 34.1396 22.7596 34.1396 22.7596 34.1396Z" fill="#513231"/>
<path d="M26.1176 32.274C23.6924 32.6471 21.8269 31.3412 20.1479 32.6471C18.4689 33.7664 19.7748 34.3261 21.6403 35.0723C23.5058 35.8185 24.0655 36.9378 26.1176 39.3631C27.2369 43.0941 30.4084 49.6236 33.2067 53.3546C35.4453 56.3395 36.5647 57.0857 41.6016 60.0706C46.6386 63.0555 57.0857 69.5849 57.0857 69.5849C57.0857 69.5849 60.0705 77.6068 63.0554 74.0622C68.4655 67.9059 65.2941 58.2051 61.3764 55.5933C57.8319 53.3546 49.2504 52.9815 46.2655 51.3025C45.3327 50.7429 37.8706 41.9748 33.9529 38.8034C30.2218 35.2588 26.1176 32.274 26.1176 32.274Z" fill="#FFB8A3"/>
<path d="M3.73105 44.027C2.05206 48.1312 1.86551 51.4892 2.61173 55.9665C3.91761 62.869 3.91761 62.4959 5.96971 66.7867C7.08904 69.3984 5.78315 71.264 4.47727 72.943C3.35794 74.6219 3.17139 77.2337 6.90248 83.39C9.7008 87.8673 11.3798 93.8371 13.805 92.5312C17.7226 90.4791 16.9764 89.9194 15.484 84.5093C14.3647 80.4051 10.8201 75.3682 10.8201 75.3682C10.8201 75.3682 15.2974 71.0774 15.484 65.6673C15.8571 60.4438 6.52937 37.1245 3.73105 44.027Z" fill="#BE6E2C"/>
<path d="M26.4907 28.3565C26.4907 28.3565 28.3563 31.7145 28.9159 34.1397C29.6622 36.938 29.4756 40.296 29.6622 42.1615C30.0353 45.333 35.2588 46.2657 36.1916 43.0943C37.684 37.6842 32.8336 25.9313 31.1546 24.2523C29.289 22.5733 26.4907 28.3565 26.4907 28.3565Z" fill="#984F1D"/>
<path d="M17.3495 11.38C17.3495 11.38 9.70079 16.9766 7.46213 20.5212C5.22348 24.0657 7.46214 27.7968 10.0739 31.3413C12.6857 35.0724 15.6705 42.9077 13.0588 46.2657C10.6336 49.6237 5.41003 49.9968 6.15625 53.1682C6.52936 55.2203 7.46214 56.3397 6.90247 59.138C5.78314 63.6153 6.15625 66.9733 6.15625 66.9733C6.15625 66.9733 2.05205 62.1229 1.67894 57.0859C0.932723 49.6237 4.47726 42.7212 4.29071 39.9229C4.10415 36.7514 0.559614 21.8271 3.73104 13.8052C6.90247 5.78336 15.2974 4.85059 15.2974 4.85059L17.3495 11.38Z" fill="#513231"/>
<path d="M28.1697 6.71605C28.1697 6.71605 30.7814 4.4774 31.7142 2.79841C32.647 1.11941 34.8856 -0.559578 36.3781 0.186641C37.8705 0.746305 31.3411 9.14126 31.3411 9.14126L28.1697 6.71605Z" fill="#2C1D1B"/>
<path d="M27.9832 9.32787C27.9832 9.32787 32.8336 2.42535 34.326 0.932913C35.6319 -0.372969 37.684 -0.186415 37.1243 1.49258C36.5647 3.17157 36.005 10.4472 33.5798 11.9396C31.1546 13.4321 27.9832 9.32787 27.9832 9.32787Z" fill="#513231"/>
<path d="M27.2369 8.20855C27.2369 8.20855 22.9462 2.05225 16.7899 4.2909C8.76803 6.90267 5.41005 13.059 7.46215 20.3346C8.39492 23.6926 8.95459 25.7447 13.0588 28.1699C17.163 30.5951 25.9311 25.3716 25.9311 25.3716L27.2369 8.20855Z" fill="#BE6E2C"/>
<path d="M35.6318 15.8572C35.0722 10.074 29.4755 4.29078 22.573 5.96977C14.7377 8.02187 12.8722 11.3799 12.4991 16.0437C11.7528 24.0656 13.6184 28.1698 19.7747 30.0353C21.4537 31.9009 22.9461 36.5647 26.6772 36.5647C29.289 36.5647 31.1545 35.2588 31.5276 32.8336C32.0873 30.0353 32.4604 25.9311 33.5797 23.1328C35.0722 20.1479 36.005 19.5883 35.6318 15.8572Z" fill="#D28037"/>
<path d="M16.9765 0.559814C16.9765 0.559814 14.1782 1.49259 13.0588 4.47746C11.9395 7.46234 10.8202 12.1262 11.1933 13.8052C11.5664 15.4842 12.3126 16.2304 12.3126 16.2304L13.6185 16.0438L16.9765 0.559814Z" fill="#2C1D1B"/>
<path d="M13.6185 15.6707C13.6185 15.6707 15.111 13.432 17.3496 11.1934C19.2152 9.32784 21.6404 8.20852 21.6404 8.20852C21.6404 8.20852 20.3345 6.15642 19.9614 4.10432C19.7748 2.05221 19.0286 -0.372996 16.9765 0.373223C15.111 1.11944 14.1782 5.59675 13.6185 7.27574C12.1261 11.3799 12.4992 13.9917 13.6185 15.6707Z" fill="#513231"/>
<path d="M28.1697 11.1935C25.9311 11.7531 27.0504 16.417 25.558 18.2825C23.6924 20.3346 21.4538 18.096 19.7748 21.454C19.4017 22.2002 19.2151 24.2523 18.4689 25.5582C17.5361 26.8641 16.2302 26.8641 16.2302 28.3565C16.2302 29.2893 18.842 29.4758 19.9613 30.0355C20.7075 31.901 21.8269 33.9531 23.879 35.8187C26.1176 37.8708 30.4084 37.4977 31.3411 35.4456C32.2739 33.2069 32.4605 33.2069 32.647 29.6624C32.8336 26.1178 34.1395 22.9464 35.0722 21.2674C35.8185 19.775 35.4454 18.096 33.7664 17.7229C31.7143 17.1632 31.5277 14.9246 31.1546 13.8052C30.4084 11.9397 29.8487 10.6338 28.1697 11.1935Z" fill="#513231"/>
<path d="M22.1999 21.4538C20.7075 21.8269 20.7075 23.1328 21.6403 24.2521C22.3865 24.9983 23.1327 24.8118 23.1327 24.8118C23.1327 24.8118 24.0655 25.7446 24.4386 25.9311C25.1848 26.1177 24.9982 24.8118 24.6251 23.6925C24.0655 21.2673 23.1327 21.2673 22.1999 21.4538Z" fill="#2C1D1B"/>
<path d="M31.7143 24.4387C31.1546 23.6925 31.7143 21.0807 32.8336 20.148C33.953 19.2152 34.6992 21.0807 33.953 22.2001C33.5799 22.9463 32.4605 23.1328 32.4605 23.1328C32.4605 23.1328 31.9009 24.8118 31.7143 24.4387Z" fill="#2C1D1B"/>
<path d="M29.2891 32.8338C26.6773 33.2069 25.9311 33.3935 26.3042 35.0725C26.4907 36.1918 28.1697 36.7515 28.1697 36.7515C28.1697 36.7515 30.9681 37.3111 31.5277 34.1397C31.9008 32.0876 30.2218 32.6472 29.2891 32.8338Z" fill="#2C1D1B"/>
<path d="M23.1328 23.8791C23.4419 23.8791 23.6924 23.6285 23.6924 23.3194C23.6924 23.0103 23.4419 22.7598 23.1328 22.7598C22.8237 22.7598 22.5731 23.0103 22.5731 23.3194C22.5731 23.6285 22.8237 23.8791 23.1328 23.8791Z" fill="white"/>
<path d="M32.8336 22.5732C33.1427 22.5732 33.3933 22.3226 33.3933 22.0135C33.3933 21.7044 33.1427 21.4539 32.8336 21.4539C32.5245 21.4539 32.2739 21.7044 32.2739 22.0135C32.2739 22.3226 32.5245 22.5732 32.8336 22.5732Z" fill="white"/>
<path d="M69.0252 98.6875C69.7714 99.0606 73.6891 101.299 76.4874 107.456C79.2857 113.798 77.9798 122.38 75.1815 123.686C72.3832 124.992 69.0252 127.417 69.0252 127.417C69.0252 127.417 75.1815 129.842 79.2857 135.252C83.3899 140.662 89.9193 147.005 89.9193 147.005L83.0168 152.602C83.0168 152.602 71.2639 146.259 65.1076 141.782C58.9513 137.491 53.1681 129.282 53.5412 127.23C53.7277 124.992 69.0252 98.6875 69.0252 98.6875Z" fill="#2C1D1B"/>
<path d="M66.5999 102.232C63.9882 103.351 61.1899 103.911 58.7647 104.471C52.9815 105.776 47.9445 105.03 42.5344 103.351C42.3478 106.896 43.2806 110.44 43.8403 113.985C33.2067 119.208 26.8638 128.536 26.1176 132.64C25.7445 135.252 26.6773 138.05 29.289 139.17C30.968 139.916 32.8336 139.356 34.5126 139.356C37.4974 139.356 55.7798 138.797 62.6823 128.35C71.8235 126.671 72.01 112.679 69.3983 106.896C68.8386 105.217 67.9058 103.538 66.5999 102.232Z" fill="#3F2A28"/>
<path d="M39.1765 53.9145L40.1092 62.6825C43.8403 63.9884 49.9966 62.8691 53.5412 60.6304C52.9815 58.9514 50.3697 51.6758 50.7429 50.1834C53.9143 47.9447 52.795 44.9598 51.6756 39.7363C50.3697 34.3262 44.5866 29.8489 39.5496 29.6624C38.9899 29.4758 37.8706 30.222 35.6319 32.8338C31.5277 37.3111 29.8487 44.4002 32.0874 48.6909C33.3933 51.1161 36.5647 52.9817 39.1765 53.9145Z" fill="#FFC8B5"/>
<path d="M56.8991 42.348C58.205 34.5127 53.7277 26.6774 46.452 25.3716C42.7209 24.6253 37.684 26.1178 35.6319 28.543C35.6319 30.7816 34.6991 35.259 38.8033 38.8035C36.5646 48.3178 48.6907 54.8472 48.6907 54.8472C48.6907 54.8472 55.4067 50.3699 56.8991 42.348Z" fill="#3F2A28"/>
<path d="M36.9377 40.1094C36.9377 40.1094 39.1764 38.4304 40.2957 41.2287C41.4151 44.2136 38.0571 47.7581 38.0571 47.7581L36.9377 40.1094Z" fill="#FFC8B5"/>
<path d="M55.2201 55.407C51.3025 56.3397 42.3479 59.6977 39.5496 60.4439C30.968 63.0557 30.7815 72.7565 30.968 79.659C31.1546 85.6288 34.326 87.3078 38.2437 88.2406C38.8033 97.0086 42.9075 108.575 42.9075 108.575C42.9075 108.575 46.2655 109.508 55.5932 108.575C65.1075 107.642 72.0101 102.046 72.0101 102.046C72.0101 102.046 66.6 83.5767 65.2941 74.0624C64.921 71.0775 63.9882 63.2422 61.1899 58.7649C59.6974 56.3397 56.3395 55.2204 55.2201 55.407Z" fill="#C8C857"/>
<path d="M56.3395 31.3413C54.4739 28.543 51.489 28.1699 49.6235 30.222C47.3848 31.3413 45.8924 34.6993 46.2655 36.9379C46.4521 39.1766 47.758 41.6018 49.8101 42.7211C51.6756 43.6539 53.3546 42.9077 55.0336 41.9749C59.3243 39.7363 58.9512 35.2589 56.3395 31.3413Z" fill="#C8C857"/>
<path d="M73.5025 47.9448C68.0924 47.7582 66.9731 45.7061 66.9731 42.5347C66.9731 39.9229 67.1596 37.1246 66.0403 34.6994C64.5479 31.1549 60.8168 28.7297 56.8991 29.1028C49.8101 29.849 48.3176 37.4977 50.3697 42.9078C52.0487 47.5717 55.0336 50.1834 57.8319 52.2355C61.7495 55.2204 71.2638 54.1011 73.5025 47.9448Z" fill="#2C1D1B"/>
<path d="M85.0688 142.155C85.0688 142.155 81.7108 142.714 79.4722 144.953C77.2335 147.192 78.3528 149.99 78.3528 149.99C78.3528 149.99 82.6436 151.856 90.2923 158.385C97.568 164.355 106.336 170.698 109.321 168.272C111.746 166.22 111.746 164.541 109.507 161.93C107.828 159.877 102.232 155.96 101.672 154.094C100.366 149.804 101.486 149.057 95.7024 147.751C88.6133 146.259 85.0688 142.155 85.0688 142.155Z" fill="#FFC8B5"/>
<path d="M26.1176 133.76C26.3041 135.439 26.8638 140.476 28.5428 143.087C30.2218 145.699 38.0571 154.281 43.6537 157.639C49.2503 160.997 52.7949 163.235 52.7949 163.235L59.3243 157.266C59.3243 157.266 54.2873 145.513 51.1159 141.409C47.9445 137.304 44.9596 135.066 44.9596 135.066C44.9596 135.066 25.931 132.267 26.1176 133.76Z" fill="#3F2A28"/>
<path d="M58.5782 154.654C58.5782 154.654 55.2202 155.213 52.9815 157.452C50.7429 159.877 51.6756 162.303 51.6756 162.303C51.6756 162.303 55.9664 164.168 63.6151 170.698C70.8908 176.667 79.6588 183.01 82.6437 180.585C85.0689 178.533 85.0689 176.854 82.8303 174.242C81.1513 172.19 75.5546 168.272 74.995 166.407C73.6891 162.116 74.8084 161.37 69.0252 160.064C61.9361 158.758 58.5782 154.654 58.5782 154.654Z" fill="#FFC8B5"/>
<path d="M39.9227 66.4134C39.363 64.7344 36.0051 61.7495 30.7815 64.3613C26.8639 64.1747 22.9462 62.6823 18.6555 63.6151C17.163 57.0857 15.1109 47.1983 12.8723 41.4151C11.0067 36.5647 7.64875 33.9529 6.52943 32.4604C4.85043 30.4083 2.05212 26.8638 0.932788 32.4604C1.46627e-05 37.1243 5.22354 44.5865 7.83531 47.0117C7.83531 47.0117 8.95464 61.3764 10.4471 69.5848C10.8202 71.8235 11.9395 73.689 15.6706 75.368C18.2824 76.4873 26.8639 79.8453 31.3412 79.6588C32.6471 83.763 37.3109 85.8151 38.9899 84.5092C43.8403 80.2184 40.2958 68.0924 39.9227 66.4134Z" fill="#FFC8B5"/>
<path d="M3.73109 17.3496C1.86554 18.0958 0.932771 19.5882 1.67899 24.8118C2.23865 28.5429 2.23865 31.5277 4.29075 33.7664C6.34286 36.005 10.4471 42.721 13.0588 46.4521C15.484 49.6235 18.842 52.0487 21.8269 51.8622C24.8118 51.4891 26.4908 48.5042 23.3193 46.079C21.6403 44.7731 19.5882 43.6538 18.6555 42.3479C16.6034 39.5496 12.4992 30.9681 11.1933 25.1849C9.88739 19.4017 6.34286 16.2303 3.73109 17.3496Z" fill="#D28037"/>
</svg>
