<svg width="157" height="172" viewBox="0 0 157 172" fill="none" xmlns="http://www.w3.org/2000/svg">
<path d="M115.881 19.6324C112.461 19.8507 112.689 21.1608 109.954 25.3093C107.218 29.4577 106.762 38.628 106.762 38.628C106.762 38.628 97.4161 41.9031 92.629 44.7416C90.1214 46.27 83.9665 44.5232 81.9149 49.1084C79.6353 54.3486 83.5106 57.4053 88.0698 54.1302C91.7171 51.5101 93.3128 50.6368 95.3645 49.9817C98.7838 48.89 104.711 47.7983 109.042 46.7066C113.373 45.3966 120.212 35.5713 121.808 33.6062C123.859 30.7678 123.175 19.1957 115.881 19.6324Z" fill="#FFB8A3"/>
<path d="M130.014 63.0821C124.771 58.7153 107.446 67.6673 107.446 67.6673C103.115 72.6891 100.608 75.3092 103.115 80.7677C104.483 84.0428 106.534 84.9162 110.866 84.9162C114.969 85.1345 119.528 81.2044 122.036 79.676C123.175 79.021 128.874 74.2175 133.434 70.9424C138.449 67.2306 144.831 62.2087 145.287 60.6804C145.971 58.7153 144.148 55.2219 136.625 58.0603C134.573 58.9336 132.294 60.462 130.014 63.0821Z" fill="#FFB8A3"/>
<path d="M115.881 55.0034C115.881 55.0034 109.726 61.117 106.079 67.0122C102.887 72.034 102.659 73.344 102.659 73.344C102.659 73.344 105.167 73.7807 109.042 75.9641C113.601 78.3659 115.653 79.8942 115.653 79.8942C115.653 79.8942 119.072 77.4925 124.771 73.344C130.47 69.1956 131.382 58.9335 131.382 58.9335L115.881 55.0034Z" fill="#3F2A28"/>
<path d="M140.956 70.2872C135.713 65.9204 123.859 68.7588 123.859 68.9772C119.528 73.999 114.741 82.0776 117.248 87.7545C118.616 91.0296 119.984 92.3396 124.315 92.558C128.418 92.7763 132.978 90.1562 135.029 88.4095C138.905 85.3527 140.956 81.4226 145.287 78.1475C150.302 74.4357 155.773 70.7239 156.229 69.1955C156.913 67.2305 155.318 63.737 148.023 67.4488C143.692 69.1955 143.236 67.6671 140.956 70.2872Z" fill="#FFC8B5"/>
<path d="M121.352 54.1301C121.352 54.1301 120.44 60.6803 121.124 63.5188C121.808 66.3572 122.264 68.759 122.264 68.759C122.264 68.759 120.668 71.1607 119.072 74.4358C118.16 76.1825 116.565 80.986 116.565 80.986C116.565 80.986 119.528 80.331 123.859 82.5144C127.963 84.4795 130.47 86.6629 130.47 86.6629C130.47 86.6629 137.993 80.1127 140.5 72.9074C142.324 70.2873 145.515 67.4489 142.78 60.462C139.816 53.4751 139.588 54.3485 139.588 54.3485H121.352V54.1301Z" fill="#513231"/>
<path d="M141.184 56.9685C140.728 53.9117 140.044 50.6366 140.272 47.1432C141.184 35.7895 138.677 30.5493 135.941 28.1475C130.926 23.5624 123.403 21.379 116.337 21.1606C115.425 21.1606 114.057 23.1257 111.55 29.2392C110.638 31.4227 109.498 36.6628 110.638 42.7764C111.777 48.0165 112.689 51.7283 113.601 56.7502C116.337 63.7371 132.522 64.3921 141.184 56.9685Z" fill="#8CA2FF"/>
<path d="M114.969 24.2174C114.969 24.2174 114.285 29.0209 114.969 30.5493C116.565 34.0427 117.704 34.0427 122.036 32.296C126.367 30.3309 129.33 26.1825 129.33 26.1825L127.051 19.8506L114.969 24.2174Z" fill="#FFB8A3"/>
<path d="M119.072 2.38331C116.793 2.16497 109.726 4.56671 106.99 9.15187C104.939 12.427 106.534 17.4488 107.218 19.8506C108.358 24.2174 112.461 29.2392 117.704 29.6759C122.947 29.8942 127.507 26.4008 129.33 22.2523C133.434 13.5187 129.102 3.69335 119.072 2.38331Z" fill="#FFC8B5"/>
<path d="M131.154 10.0253C130.242 7.84191 127.963 5.87684 125.683 5.44016C125.455 2.82007 118.388 -2.20176 112.233 1.07335C109.726 2.38339 102.887 7.18689 104.711 13.9554C106.306 15.0471 108.13 15.7022 109.726 15.9205C112.233 16.3572 118.616 16.5755 121.124 14.8288C121.58 16.1389 126.823 23.9991 129.102 23.7808C132.522 19.6323 132.978 13.5188 131.154 10.0253Z" fill="#3F2A28"/>
<path d="M122.719 19.6323C122.719 19.6323 125.227 15.0472 127.735 17.4489C130.242 19.8507 125.683 23.7808 125.683 23.7808L122.719 19.6323Z" fill="#FFC8B5"/>
<path d="M134.573 29.4575C127.051 31.8593 129.558 46.7064 129.558 46.7064C129.558 46.7064 121.58 51.2916 114.969 53.9117C110.638 55.6584 108.586 54.785 106.306 56.5318C99.0118 61.9903 104.255 67.0121 108.13 64.6104C111.777 62.427 113.601 61.3352 117.932 59.8069C121.124 58.7152 128.19 56.5318 131.382 55.4401C137.993 53.475 140.5 46.4881 141.184 44.3047C142.552 38.1911 140.728 30.1125 134.573 29.4575Z" fill="#FFC8B5"/>
<path d="M121.124 125.309C121.124 125.309 127.735 129.457 133.434 134.261C139.132 139.064 135.941 143.431 130.926 146.706C125.911 149.763 121.352 151.947 119.3 159.588C117.248 167.23 127.051 171.16 127.051 171.16C127.051 171.16 126.595 165.265 130.47 160.462C133.434 156.968 141.868 154.785 141.868 154.785C141.868 154.785 138.905 158.278 140.728 161.335C142.78 164.829 146.655 165.265 146.655 165.265C146.655 165.265 141.64 158.933 145.743 155.877C149.847 152.82 162.612 144.086 154.178 134.261C145.515 124.436 127.279 121.597 127.279 121.597L121.124 125.309Z" fill="#D28037"/>
<path d="M78.7235 31.2041C71.2009 32.9509 68.4654 33.6059 68.4654 39.5011C68.4654 43.6495 69.8331 48.8897 73.0246 54.5666C67.3256 53.4749 58.6632 56.5316 59.1191 59.1517C59.803 62.6452 63.6783 66.1386 72.3407 69.4137C77.3558 71.3788 87.6139 72.0338 88.7537 70.0688C89.6655 68.322 91.7171 62.6452 86.4741 55.2216C82.5988 49.7631 78.4956 43.4312 79.1794 42.1212C81.459 42.9945 85.7902 43.6495 88.5257 42.1212C93.7688 39.2827 91.7171 36.226 88.5257 33.6059C87.158 32.5142 82.8268 30.3308 78.7235 31.2041Z" fill="#D28037"/>
<path d="M24.9253 47.7982C24.9253 47.7982 21.9619 42.3397 21.5059 40.8113C21.05 39.2829 28.1167 39.0646 30.1684 42.3397C32.22 45.3965 24.9253 47.7982 24.9253 47.7982Z" fill="#2C1D1B"/>
<path d="M126.367 55.2217C121.124 56.3134 119.528 59.5885 121.124 65.4837C122.719 71.1606 132.522 85.3527 132.522 85.3527C132.522 85.3527 123.403 78.1475 116.109 75.7457C108.13 73.1256 101.519 75.9641 99.9236 82.2959C98.1 89.5012 112.461 101.073 117.932 106.095C124.087 111.772 128.874 113.737 131.838 110.68C134.117 108.278 134.573 103.693 134.573 101.292C134.573 96.4881 137.993 95.833 140.044 95.6147C143.236 95.178 146.655 94.7413 148.707 92.9946C150.302 91.6846 150.758 91.4662 150.074 88.1911C149.163 85.1344 143.692 81.6409 140.044 76.8374C135.257 70.9422 131.838 63.9553 131.61 61.9903C131.382 60.0252 132.522 59.3702 132.066 58.0601C130.926 56.5317 128.19 54.785 126.367 55.2217Z" fill="#D28037"/>
<path d="M54.104 57.4051C53.1922 52.1649 52.0524 46.9247 51.1406 41.6845C50.9126 40.1562 50.4567 38.4094 48.1771 37.5361C46.5814 37.0994 44.7577 38.8461 43.6179 42.5579C43.39 41.9029 37.919 30.9859 34.9555 30.3308C31.9921 29.6758 32.6759 33.6059 31.9921 35.571C30.8523 39.2828 30.6243 41.2479 28.1168 44.7413C23.3296 46.488 19.6823 47.3614 17.4027 51.2915C15.5791 54.3483 14.4393 58.2784 16.035 63.3003C17.4027 68.1038 30.1684 80.3308 44.3018 73.3439C51.5965 69.8505 55.2438 65.2653 54.104 57.4051Z" fill="#BE6E2C"/>
<path d="M24.9253 70.2872C24.9253 70.2872 31.0802 84.0427 35.8673 87.7544C40.6545 91.4662 55.4717 93.6496 63.9062 82.0776C73.9364 68.3221 64.818 57.4051 53.6481 55.44C41.5663 53.475 24.9253 70.2872 24.9253 70.2872Z" fill="#BE6E2C"/>
<path d="M132.066 102.82C127.735 92.3397 110.866 78.5843 98.7838 75.0908C93.0849 65.9205 90.5773 65.4838 83.2827 61.7721C74.8482 57.1869 65.7299 54.5668 58.4352 60.462C55.9277 61.117 30.1684 72.4707 33.3598 80.331C37.9189 91.248 37.2351 97.1432 52.9642 104.13C60.0309 107.187 73.9364 104.348 86.2461 117.231C91.4892 122.689 103.571 126.401 111.55 126.838C125.455 127.929 137.081 114.829 132.066 102.82Z" fill="#BE6E2C"/>
<path d="M29.4845 79.4575C29.4845 79.4575 37.919 76.8374 39.5147 84.4793C40.8824 92.1212 44.5298 101.51 52.7363 97.5797C60.9428 93.4313 61.1707 87.7544 69.8331 91.0295C72.3407 91.9029 74.6203 97.5797 75.76 99.1081C80.5472 105.658 81.9149 112.427 90.8053 112.645C101.747 113.082 105.395 116.575 113.145 119.85C116.793 121.379 121.124 121.816 124.999 120.287C129.33 118.322 132.75 113.955 132.75 113.955C132.75 113.955 128.19 126.182 117.704 128.802C107.218 131.423 93.5408 124.436 84.6504 118.54C75.76 112.427 58.6632 110.462 48.1771 104.13C37.463 97.5797 31.0802 89.9378 29.4845 79.4575Z" fill="#513231"/>
<path d="M30.1684 29.4575C29.0286 30.9859 30.1684 32.2959 29.4845 36.6627C29.2565 37.7544 28.5727 41.4662 27.8888 42.7763C24.9253 44.523 22.1898 46.9247 22.1898 46.9247C22.1898 46.9247 21.506 52.6016 26.0651 52.8199C30.6243 52.8199 33.1318 54.3483 35.6394 55.44C39.0588 56.9684 42.2502 57.1867 45.8975 56.095C49.3169 55.0033 52.5083 49.5448 52.5083 49.5448C52.5083 49.5448 51.3685 38.4094 48.861 35.1343C47.9491 33.8243 46.3534 34.916 45.6695 35.7894C44.5297 37.0994 41.5663 41.6845 41.5663 41.6845C41.5663 41.6845 41.5663 31.4225 38.3749 29.2391C35.6394 26.619 30.8522 28.3658 30.1684 29.4575Z" fill="#513231"/>
<path d="M36.5512 28.5842C34.2716 29.2392 33.3598 31.2043 34.9555 37.0995C36.5512 42.558 36.5512 44.9598 36.3233 48.6716C36.3233 50.1999 37.0071 52.3834 38.1469 52.82C39.7426 53.4751 41.1104 51.0733 41.3383 49.1082C41.7943 45.8331 44.3018 38.8462 44.9857 37.5362C46.3534 34.9161 49.0889 35.1344 49.0889 35.1344C49.0889 35.1344 48.4051 33.8244 46.5814 34.2611C44.5298 34.6978 42.4781 38.8462 42.4781 38.8462C42.4781 38.8462 41.3383 27.0558 36.5512 28.5842Z" fill="#2C1D1B"/>
<path d="M34.9555 28.1475C34.9555 28.1475 31.3082 27.2741 30.1684 28.5842C29.0286 29.8942 30.1684 32.5143 30.6243 32.5143C31.0802 32.5143 31.7641 30.9859 32.6759 29.8942C33.5877 28.8025 34.9555 28.1475 34.9555 28.1475Z" fill="#2C1D1B"/>
<path d="M39.9706 43.2129C39.0588 43.2129 36.3233 46.9247 34.9555 49.9815C33.8157 53.0382 34.7275 58.4967 37.691 58.9334C40.8824 59.3701 40.8824 55.44 39.9706 51.9465C38.8308 47.798 39.9706 43.2129 39.9706 43.2129Z" fill="#FF5E4C"/>
<path d="M0.761749 59.1519C0.761749 59.1519 3.49725 63.9553 5.77683 66.1388C8.05642 68.3222 20.3662 70.9422 20.5941 69.6322C20.8221 68.3222 20.5941 64.392 20.5941 64.392L0.761749 59.1519Z" fill="#2C1D1B"/>
<path d="M16.4909 52.8201C16.4909 52.8201 7.82846 53.6934 3.49725 55.0035C-0.37804 56.0952 -0.605999 57.4052 0.761751 59.1519C2.1295 60.6803 2.81338 62.6454 6.68867 65.0471C10.336 67.4489 20.1382 67.4489 20.1382 67.4489C20.1382 67.4489 22.1898 65.2655 18.9984 61.3354C16.9468 58.9336 16.4909 52.8201 16.4909 52.8201Z" fill="#513231"/>
<path d="M50.6846 62.427C43.162 64.1738 40.4265 64.8288 40.4265 70.724C40.4265 74.8724 41.7942 80.1126 44.9857 85.7895C38.6028 84.0427 34.2716 82.296 32.6759 84.0428C30.1684 86.8812 35.6394 97.3615 44.0738 100.637C49.0889 102.602 59.347 103.257 60.4868 101.292C61.3987 99.5449 62.0825 91.4663 56.8395 84.0428C52.9642 78.5842 50.2287 74.6541 51.1405 73.3441C53.4201 74.2174 57.7513 74.8724 60.4868 73.3441C65.7299 70.5056 63.6782 67.4489 60.4868 64.8288C59.1191 63.7371 54.7879 61.5537 50.6846 62.427Z" fill="#D28037"/>
<path d="M128.646 56.75C125.455 56.75 124.087 58.2784 124.999 63.7369C125.911 69.1954 132.978 77.7107 137.537 82.5142C141.868 87.3177 146.199 93.2129 148.023 92.3395C150.074 91.4662 151.214 89.7194 148.707 85.7893C146.199 81.8592 136.169 70.2871 134.117 66.1386C132.066 61.9902 133.206 56.5317 128.646 56.75Z" fill="#BE6E2C"/>
<path d="M76.8998 91.248C74.3923 93.6497 73.0245 94.0864 73.2525 97.5798C73.4805 101.073 78.4955 105.003 78.4955 105.003C78.4955 105.003 72.1127 109.807 77.3558 116.794C81.231 122.034 98.7838 130.768 101.975 130.768C112.005 130.768 104.711 122.689 104.711 122.689C104.711 122.689 110.866 125.309 113.601 121.816C117.476 117.012 112.005 113.519 105.395 108.934C102.203 106.75 96.0483 101.292 91.0333 96.7065C84.6504 89.9379 79.1794 88.8462 76.8998 91.248Z" fill="#D28037"/>
<path d="M78.9515 92.1212C77.1278 94.7413 76.6719 95.833 79.6353 98.8897C82.5988 101.947 100.38 112.209 105.623 115.047C110.638 117.885 112.233 118.977 112.689 117.449C113.145 115.92 112.689 115.047 107.674 111.335C102.659 107.623 93.9967 100.2 90.3494 97.143C86.4741 93.8679 81.0031 89.5011 78.9515 92.1212Z" fill="#BE6E2C"/>
</svg>
