<svg width="203" height="155" viewBox="0 0 203 155" fill="none" xmlns="http://www.w3.org/2000/svg">
<g clip-path="url(#clip0_211_2720)">
<path d="M103.6 46.6C102.9 46 101.8 45.9 101 46.5C100.3 47.1 100.2 48.3 100.9 48.9C100.4 48.2 99.1 48.1 98.5 48.8C97.9 49.5 98.2 50.8 99.1 51.1C98.4 50.7 97.5 51.5 97.5 52.4C97.6 53.2 98.2 53.9 98.8 54.5C98.2 54.4 97.8 55.2 98 55.8C98.2 56.4 98.8 56.7 99.3 57C102.1 58.6 105.1 60.1 108.3 60.3C110.2 60.4 112.1 59.9 114 59.4C112.9 56.9 111.6 54.5 110.2 52.2L103.6 46.6Z" fill="#E8B897"/>
<path d="M39.7 120.4C38.9 121.9 37.3 122.9 35.6 123.2C33.9 123.5 32.2 123.2 30.6 122.6C24.2 120.4 19.1 114.3 12.3 113.9C9.30005 113.7 6.30005 114.7 3.50005 115.9C2.50005 116.3 1.50005 116.9 0.800045 117.7C0.100045 118.5 -0.199955 119.8 0.300045 120.7C0.800045 121.7 2.30005 122 3.00005 121.2C1.90005 122 0.900045 123.1 0.600045 124.4C0.200045 125.7 0.600045 127.3 1.70005 128C2.80005 128.7 4.70005 128.1 4.90005 126.8C3.70005 127.8 4.80005 129.9 6.30005 130.2C7.80005 130.5 9.30005 129.8 10.6 129C12.5 127.9 14.4 126.7 16.2 125.4C15.7 127.3 17.5 129.2 19.4 129.4C21.4 129.6 23.2 128.6 24.7 127.2C24.9 128.3 25.9 129.1 27 129.4C28.1 129.7 29.2 129.5 30.3 129.2C32.6 128.7 34.9 128 36.9 126.8C38.9 125.6 40.5 123.6 41.1 121.3L39.7 120.4Z" fill="#7E4927"/>
<path d="M79.2001 26.3001C80.7001 24.9001 82.7001 24.2001 84.7001 24.0001C87.6001 23.8001 90.6001 23.9001 93.5001 24.1001C95.9001 24.3001 98.6001 24.8001 100 26.7001C100.7 27.7001 101 28.9001 101.7 30.0001C103.6 33.0001 107.7 33.5001 111 35.0001C111.5 35.2001 112 35.5001 112.3 35.9001C112.6 36.3001 112.8 36.8001 112.9 37.3001C113.6 40.8001 111.4 44.4001 108.3 46.3001C105.2 48.2001 101.6 48.7001 98.0001 49.0001C98.8001 72.9001 98.5001 96.8001 96.9001 120.7C96.7001 123.6 96.5001 126.6 97.2001 129.5C98.0001 132.6 100.1 135.6 103.4 136.3C104 136.4 104.6 136.9 104.8 137.5C105.1 138.3 104.6 138.6 104.2 138.9C101 141.2 96.2001 140 93.4001 137.1C90.7001 134.2 89.6001 130.2 88.9001 126.2C88.3001 122.3 88.0001 118.2 86.4001 114.6C84.4001 118.1 82.3001 121.6 79.5001 124.6C76.7001 127.5 73.1001 129.8 69.0001 130.3C66.0001 130.6 62.2001 130.3 60.8001 133C63.0001 133.1 64.2001 136.4 62.6001 137.8C61.2001 139.1 59.0001 138.6 57.2001 138C53.5001 136.9 49.7001 135.7 46.0001 134.6C44.7001 134.2 43.3001 133.8 42.3001 132.8C41.3001 131.9 40.8001 130.7 40.4001 129.4C37.7001 121.8 38.6001 113.4 40.5001 105.5C41.1001 102.8 41.9001 100.1 43.3001 97.7001C44.5001 95.6001 46.3001 93.7001 47.6001 91.7001C49.8001 88.2001 49.3001 89.9001 50.6001 86.0001C54.1001 76.0001 60.4001 64.5001 65.9001 53.4001C68.9001 47.3001 71.7001 41.4001 73.7001 35.9001C73.8001 35.6001 73.9001 35.4001 74.0001 35.1001L76.8001 29.2001C77.4001 28.2001 78.2001 27.2001 79.2001 26.3001Z" fill="#F59F18"/>
<path d="M78.6 91.3C79.3 103 79.9 114.7 81.8 126.3C82.2 128.7 82.6 131.1 83.9 133.2C84.8 134.8 86.2 136.5 85.4 138.2C85.1 138.7 84.7 139.1 84.2 139.4C81.9 140.6 78.9 139.4 77.4 137.3C75.8 135.2 75.3 132.6 74.8 130C72.4 118 69.3 106.1 65.5 94.4L78.6 91.3Z" fill="#F59F18"/>
<path d="M99.8001 30.4C100.2 29.1 99.2001 27.7 97.9001 27.2C96.6001 26.7 95.2001 27 93.9001 27.3C92.6001 27.6 91.2001 28.1 90.4001 29.2C89.6001 30.3 89.6001 31.9 89.9001 33.2C90.2001 34.6 90.8001 35.9 91.0001 37.3C91.2001 38.5 91.1001 39.8 91.8001 40.8C92.5001 41.8 93.8001 42.1 94.9001 42.1C97.4001 41.9 99.6001 40.1 100.4 37.7C101.3 35.4 100.9 32.7 99.8001 30.4Z" fill="#EFB05E"/>
<path d="M50.7001 86.0001C52.9001 87.7001 55.7001 88.5001 58.4001 87.7001C61.1001 86.9001 63.3001 84.5001 63.3001 81.7001C63.3001 79.0001 61.4001 76.4001 61.9001 73.7001C62.4001 70.7001 65.6001 68.8001 66.9001 66.1001C68.5001 62.8001 69.3001 54.9001 66.0001 53.4001C60.7001 62.8001 53.9001 75.8001 50.7001 86.0001Z" fill="#7E4927"/>
<path d="M97.5 36C98.3284 36 99 35.2837 99 34.4001C99 33.5164 98.3284 32.8 97.5 32.8C96.6716 32.8 96 33.5164 96 34.4001C96 35.2837 96.6716 36 97.5 36Z" fill="black"/>
<path d="M97.7 31.3C97.4 31.6 97 31.6 96.7 31.7C95.5 31.9 94.3 32 93.1 32.2C92.9 32.2 92.7 32.1999 92.6 32.1C92.2 31.6999 92.5 31.2 92.9 30.9C94.2 29.8 96 29.3 97.7 29.4L97.9 29.5C98.7 30 98.6 31.1 97.7 31.3Z" fill="black"/>
<path d="M100.4 42.1001C100.8 43.0001 101.3 43.9001 102.1 44.5001C102.9 45.1001 104 45.2001 105 45.2001C106.1 45.2001 107.2 45.2001 108.2 44.7001C109.1 44.3001 109.9 43.6001 110.5 42.8001C111.2 41.8001 111.7 40.8001 112.1 39.6001C112.3 39.1001 111.5 39.0001 111.4 39.4001C110.8 41.1001 109.9 42.8001 108.3 43.7001C107.4 44.2001 106.5 44.3001 105.5 44.3001C104.6 44.3001 103.7 44.3001 102.9 44.0001C101.9 43.6001 101.4 42.7001 101 41.8001C100.9 41.6001 100.8 41.5001 100.5 41.5001C100.5 41.7001 100.3 41.9001 100.4 42.1001Z" fill="#7E4927"/>
<path d="M112.5 40.0001C112.2 40.6001 111.2 40.8001 110.7 40.3001C110.2 39.8001 110.3 38.9001 109.9 38.4001C109.2 37.5001 107.8 37.9001 106.6 37.8001C106.3 37.8001 105.9 37.6001 105.8 37.3001C105.6 36.8001 106.2 36.3001 106.8 36.1001C107.9 35.7001 109.1 35.3001 110.3 35.4001C111.5 35.5001 112.7 36.1001 113.3 37.1001C113.9 38.0001 113.5 39.5001 112.5 40.0001Z" fill="black"/>
<path d="M104.8 41C104.9 41 104.9 41 104.8 41C104.9 41 105 41 105 41C105 41 105.1 41 105.1 40.9L105.2 40.7999V40.7V40.5999C105.2 40.4999 105.2 40.5 105.1 40.4C105.1 40.4 105 40.3999 105 40.2999C104.9 40.2999 104.9 40.2 104.8 40.2H104.7C104.6 40.2 104.6 40.2 104.6 40.2C104.6 40.2 104.5 40.1999 104.5 40.2999L104.4 40.4V40.5V40.5999C104.4 40.6999 104.4 40.6999 104.5 40.7999C104.5 40.7999 104.6 40.8 104.6 40.9C104.7 40.9 104.8 41 104.8 41Z" fill="black"/>
<path d="M99.5001 137.2C99.6001 137.2 99.6001 137.2 99.7001 137.3C99.7001 137.3 99.8001 137.3 99.9001 137.4C100 137.5 100.1 137.5 100.3 137.6C100.4 137.6 100.4 137.7 100.5 137.7C100.5 137.7 100.6 137.7 100.6 137.8C100.7 137.9 100.8 138 100.9 138.1C100.9 138.2 101 138.2 101 138.3C101 138.3 101 138.4 101.1 138.4C101.2 138.5 101.3 138.6 101.3 138.8C101.3 138.9 101.4 138.9 101.4 139C101.4 139.1 101.5 139.1 101.5 139.2C101.6 139.3 101.6 139.5 101.6 139.6C101.6 139.8 101.9 139.9 102.1 139.9C102.3 139.8 102.4 139.6 102.4 139.4C102.1 138.1 101 137 99.7001 136.6C99.5001 136.5 99.3001 136.7 99.2001 136.9C99.2001 136.9 99.3001 137.1 99.5001 137.2Z" fill="#AF6A0E"/>
<path d="M101.6 136.5C101.7 136.6 101.7 136.6 101.7 136.6L101.8 136.7C101.9 136.8 102 136.9 102.1 137C102.2 137.1 102.3 137.2 102.4 137.3C102.5 137.4 102.6 137.5 102.6 137.6C102.7 137.8 102.9 138 103 138.2C103.1 138.3 103.1 138.4 103.2 138.5C103.3 138.6 103.3 138.7 103.3 138.8C103.4 139 103.5 139.1 103.8 139.1C104 139.1 104.1 138.8 104.1 138.6C103.7 137.5 103 136.6 102.1 135.9C101.9 135.8 101.7 135.9 101.6 136C101.3 136.2 101.4 136.4 101.6 136.5Z" fill="#AF6A0E"/>
<path d="M81.1001 136.6C81.9001 137.1 82.5001 138 82.7001 139C82.7001 139.2 83.0001 139.3 83.2001 139.3C83.4001 139.2 83.5001 139 83.5001 138.8C83.3001 137.6 82.6001 136.6 81.6001 135.9C81.4001 135.8 81.2001 135.9 81.1001 136C80.9001 136.3 81.0001 136.5 81.1001 136.6Z" fill="#AF6A0E"/>
<path d="M82.8001 135.9C83.7001 136.6 84.2001 137.6 84.4001 138.7C84.4001 138.9 84.7001 139 84.9001 139C85.1001 138.9 85.2001 138.7 85.2001 138.5C85.0001 137.3 84.3001 136.2 83.4001 135.4C83.2001 135.3 83.0001 135.2 82.9001 135.4C82.7001 135.5 82.6001 135.7 82.8001 135.9Z" fill="#AF6A0E"/>
<path d="M58.6 135.7C59.9 136.1 60.9 137 61.5 138.2C61.6 138.4 61.8 138.4 62 138.3C62.2 138.2 62.2 138 62.1 137.8C61.4 136.4 60.2 135.4 58.8 134.9C58.6 134.8 58.4 135 58.3 135.2C58.3 135.5 58.4 135.7 58.6 135.7Z" fill="#AF6A0E"/>
<path d="M60.7 134.6C61.8 135.1 62.5 136 62.8 137.1C62.8 137.3 63.1 137.4 63.3 137.4C63.5 137.3 63.6 137.1 63.6 136.9C63.3 135.6 62.3 134.5 61.1 133.9C60.9 133.8 60.7 133.8 60.6 134C60.5 134.3 60.5 134.5 60.7 134.6Z" fill="#AF6A0E"/>
<path d="M61.3 132.8C63.5 129.9 65.7 127 67.6 123.9C69.5 120.8 71.1 117.6 72.1 114.1C73.1 110.6 73.6 106.8 72.4 103.3C71.4 100.2 69.2 97.5 66.5 95.7C63.5 93.7 59.9 92.7 56.3 92.7C55.8 92.7 55.4 92.7 54.9 92.7C54.4 92.7 54.4 93.5 54.9 93.4C58.4 93.2 61.9 93.9 65 95.6C67.8 97.2 70.1 99.6 71.3 102.6C72.7 105.9 72.4 109.5 71.6 112.9C70.8 116.3 69.3 119.5 67.6 122.5C65.6 125.9 63.2 129.1 60.8 132.2C60.5 132.7 61 133.2 61.3 132.8Z" fill="#AF6A0E"/>
<path d="M81.8 124.2C81.6 118.5 81.5 112.9 81.5 107.2C81.4 101.6 81.4 95.9 81.5 90.3C81.5 87.1 81.6 83.9 81.6 80.7C81.6 80.2 80.9 80.2 80.9 80.7C80.8 86.4 80.8 92 80.8 97.7C80.8 103.3 80.9 109 81 114.6C81.1 117.8 81.1 121 81.2 124.2C81.1 124.7 81.8 124.7 81.8 124.2Z" fill="#AF6A0E"/>
<path d="M74.8 128.7C74.7 123.3 74.5 117.9 74.4 112.5C74.3 107.1 74 101.7 74 96.4C74 93.4 74.1 90.4 74.6 87.4C74.7 86.9 74 86.7 73.9 87.2C73 92.5 73.3 97.9 73.5 103.2C73.6 108.6 73.8 114.1 73.9 119.5C74 122.6 74.1 125.6 74.1 128.7C74.1 129.2 74.8 129.2 74.8 128.7Z" fill="#AF6A0E"/>
<path d="M86.3 115C88.8 111 90.9 106.8 92.6 102.4C94.3 98.0001 95.7 93.5001 96.7 89.0001C97.3 86.3001 97.8 83.5001 97.1 80.8001C97 80.3001 96.3 80.5001 96.4 81.0001C97 83.4001 96.6 85.8001 96.1 88.2001C95.6 90.5001 95.1 92.7001 94.4 94.9001C93.1 99.3001 91.4 103.6 89.4 107.8C88.3 110.1 87 112.4 85.6 114.6C85.4 115 86.1 115.4 86.3 115Z" fill="#AF6A0E"/>
<path d="M79.5 53.6999C78.6 55.1999 77.9 56.7999 77.5 58.4999C77.3 59.3999 77.2 60.1999 77.1 61.0999C77.1 61.8999 77 62.8999 77.3 63.6999C77.6 64.3999 78.1 64.9999 78.8 65.1999C79.6 65.3999 80.3 65.0999 80.9 64.5999C82.2 63.4999 83.2 62.0999 84 60.6999C84.9 59.1999 85.7 57.1999 84.8 55.4999C84.7 55.2999 84.5 55.2999 84.4 55.2999C82.8 55.5999 82.6 57.5999 82.3 58.8999C81.9 60.7999 81.7 62.6999 82.1 64.5999C82.3 65.3999 82.5 66.1999 83.1 66.7999C83.7 67.3999 84.6 67.2999 85.3 66.8999C86.6 66.0999 87.5 64.6999 88 63.2999C88.6 61.6999 88.6 59.8999 88.1 58.2999C88 58.0999 87.8 57.8999 87.6 58.0999C86.4 58.9999 86.3 60.6999 86.3 62.0999C86.3 62.9999 86.4 63.8999 86.6 64.6999C86.7 65.3999 86.9 66.0999 87.3 66.7999C87.6 67.2999 88 67.7999 88.7 67.9999C89.4 68.1999 90.2 67.8999 90.8 67.3999C91.9 66.4999 92.5 65.0999 92.8 63.6999C93.1 62.0999 92.9 60.3999 92.1 58.9999C92 58.7999 91.8 58.7999 91.6 58.8999C90.8 59.2999 90.7 60.2999 90.7 61.0999C90.7 62.1999 90.8 63.2999 91 64.3999C91.2 65.2999 91.4 66.4999 92.1 67.0999C92.7 67.5999 93.7 67.5999 94.1 66.8999C94.4 66.4999 93.7 66.0999 93.5 66.4999C93.4 66.6999 93.1 66.6999 92.9 66.6999C92.6 66.5999 92.4 66.2999 92.3 66.0999C92 65.3999 91.8 64.5999 91.7 63.7999C91.6 62.9999 91.5 62.0999 91.5 61.1999C91.5 60.5999 91.5 59.8999 92.1 59.5999C91.9 59.5999 91.8 59.4999 91.6 59.4999C92.7 61.5999 92.5 64.3999 91 66.2999C90.6 66.7999 90.1 67.1999 89.5 67.3999C88.9 67.4999 88.5 67.1999 88.2 66.6999C87.9 66.1999 87.7 65.6999 87.6 65.0999C87.4 64.3999 87.3 63.5999 87.3 62.8999C87.3 62.0999 87.2 61.2999 87.4 60.5999C87.5 59.9999 87.7 59.2999 88.2 58.8999C88 58.7999 87.8 58.7999 87.7 58.6999C88.6 61.0999 87.9 63.9999 86 65.7999C85.6 66.1999 84.9 66.8999 84.2 66.5999C83.6 66.3999 83.4 65.4999 83.2 64.9999C82.8 63.3999 82.9 61.6999 83.2 60.0999C83.3 59.2999 83.5 58.3999 83.7 57.6999C83.9 57.0999 84.2 56.4999 84.9 56.2999C84.8 56.1999 84.6 56.1999 84.5 56.0999C85.2 57.3999 84.5 58.9999 83.9 60.1999C83.2 61.4999 82.3 62.6999 81.3 63.7999C80.9 64.2999 80.3 64.7999 79.6 64.7999C79 64.7999 78.5 64.1999 78.3 63.6999C78 62.9999 78.1 62.1999 78.1 61.3999C78.1 60.5999 78.2 59.8999 78.4 59.0999C78.8 57.3999 79.4 55.7999 80.3 54.2999C80.4 53.5999 79.8 53.2999 79.5 53.6999Z" fill="#AF6A0E"/>
<path d="M86.7001 24.6C89.7001 22.8 91.5001 19.4 94.5001 17.6C94.7001 17.5 95.0001 17.3 95.3001 17.3C95.8001 17.3 96.2001 17.7 96.4001 18.1C96.6001 18.6 96.5001 19.1 96.4001 19.6C96.1001 20.8001 95.5001 22 94.5001 22.9C94.9001 22.5 95.3001 22.2 95.8001 21.9C96.3001 21.7 96.8001 21.5001 97.4001 21.6C97.9001 21.7 98.4001 22.1 98.6001 22.6C98.7001 23.1 98.4001 23.8 97.8001 23.8C98.2001 23.7 98.7001 23.6001 99.1001 23.7001C99.5001 23.8001 100 24.2001 99.9001 24.7001C99.9001 25.0001 99.7001 25.2 99.5001 25.4C98.3001 26.5 96.6001 27.0001 95.0001 26.7001L86.7001 24.6Z" fill="#F59F18"/>
<path d="M86.7 24.4001C85.2 26.3001 85.3 29.1001 85.5 31.5001C85.9 35.9001 86.3 40.3001 86.9 44.7001C87 45.5001 87.1 46.2001 86.9 47.0001C86.7 47.6001 86.4 48.2001 86 48.6001C84.6 50.2001 82.5 51.0001 80.4 51.2001C78.3 51.3001 76.2 50.8001 74.2 50.1001C73.7 49.9001 73.1 49.7001 72.7 49.3001C71.9 48.6001 71.7 47.5001 71.8 46.5001C71.9 42.6001 74.5 39.3001 76.2 35.8001C77.3 33.5001 78 30.9001 79.4 28.7001C80.8 26.6001 84 24.3001 86.7 24.4001Z" fill="#7E4927"/>
<path d="M97.7001 48.3C94.4001 48.2 90.5001 48.1 88.1001 45.4C87.8001 45 87.3001 45.6 87.6001 45.9C90.1001 48.7 94.2001 49 97.7001 49C98.1001 49.1 98.1001 48.3 97.7001 48.3Z" fill="#AF6A0E"/>
<path d="M96.7001 135.4C97.4001 135.1 98.1001 134.8 98.7001 134.3C98.9001 134.2 98.9001 134 98.8001 133.8C98.7001 133.6 98.5001 133.5 98.3001 133.7C98.0001 133.9 97.7001 134.1 97.4001 134.3C97.2001 134.4 97.1001 134.5 96.9001 134.5C96.9001 134.5 96.8001 134.5 96.8001 134.6C96.8001 134.6 96.7001 134.7 96.7001 134.6C96.6001 134.6 96.5001 134.7 96.4001 134.7C96.2001 134.8 96.1001 135 96.1001 135.2C96.3001 135.3 96.5001 135.5 96.7001 135.4Z" fill="#AF6A0E"/>
<path d="M80.9 133.8C81.4 133.6 81.9 133.4 82.3 133.2C82.4 133.2 82.4 133.1 82.5 133C82.5 132.9 82.5 132.8 82.5 132.7C82.4 132.6 82.4 132.6 82.3 132.5C82.2 132.5 82.1 132.5 82 132.5C81.5 132.7 81 132.9 80.6 133.1C80.5 133.1 80.5 133.2 80.4 133.3C80.4 133.4 80.4 133.5 80.4 133.6C80.5 133.7 80.5 133.7 80.6 133.8C80.7 133.8 80.8 133.8 80.9 133.8Z" fill="#AF6A0E"/>
<path d="M66.7 106.2C66.7 107.1 66.5 108.1 66.3 109C66.2 109.5 66.9 109.7 67 109.2C67.2 108.2 67.4 107.2 67.4 106.2C67.4 106 67.2 105.8 67 105.8C66.9 105.8 66.7 105.9 66.7 106.2Z" fill="#AF6A0E"/>
<path d="M68.8001 108.7C68.6001 109.3 68.4001 109.9 68.2001 110.5C68.1001 110.7 68.3001 110.9 68.5001 111C68.7001 111 68.9001 110.9 69.0001 110.7C69.2001 110.1 69.4001 109.5 69.6001 108.9C69.7001 108.7 69.5001 108.5 69.3001 108.4C69.1001 108.4 68.9001 108.5 68.8001 108.7Z" fill="#AF6A0E"/>
<path d="M70.8 105.8C70.5 106.4 70.4 107.1 70.3 107.7C70.3 107.9 70.5 108.1 70.7 108.1C70.9 108.1 71.1 107.9 71.1 107.7C71.1 107.6 71.1 107.5 71.1 107.5V107.4C71.1 107.4 71.1 107.4 71.1 107.3C71.1 107.2 71.1 107 71.2 106.9C71.2 106.8 71.3 106.6 71.3 106.5C71.3 106.4 71.4 106.4 71.4 106.3V106.2C71.4 106.3 71.4 106.2 71.4 106.1C71.5 105.9 71.5 105.7 71.3 105.6C71.1 105.6 70.9 105.6 70.8 105.8Z" fill="#AF6A0E"/>
<path d="M66.2 117.1C66.1 117.5 66 117.9 65.9 118.3C65.9 118.5 66 118.7 66.2 118.8C66.4 118.8 66.6 118.7 66.7 118.5C66.8 118.1 66.9 117.7 67 117.3C67 117.1 66.9 116.9 66.7 116.8C66.5 116.8 66.3 116.9 66.2 117.1Z" fill="#AF6A0E"/>
<path d="M73.2001 70.3C73.0001 70.9 72.8001 71.5 72.6001 72.1C72.5001 72.3 72.7001 72.5 72.9001 72.6C73.1001 72.6 73.3001 72.5 73.4001 72.3C73.6001 71.7 73.8001 71.1 74.0001 70.5C74.1001 70.3 73.9001 70.1 73.7001 70C73.5001 70 73.3001 70.1 73.2001 70.3Z" fill="#AF6A0E"/>
<path d="M75.1 70.9C75 71.1 74.9 71.2 74.8 71.4C74.8 71.6 74.8 71.8 74.8 72C74.8 72.1 74.9 72.2 75 72.2C75.1 72.2 75.2 72.3 75.3 72.2C75.5 72.1 75.6 71.9 75.6 71.7C75.6 71.6 75.6 71.6 75.6 71.5V71.6C75.6 71.5 75.6 71.5 75.7 71.4V71.5C75.7 71.4 75.8 71.4 75.8 71.3C75.8 71.3 75.8 71.4 75.7 71.4C75.8 71.3 75.8 71.3 75.8 71.3V71.2C75.8 71.1 75.8 71 75.7 70.9C75.6 70.8 75.5 70.8 75.4 70.8C75.3 70.8 75.1 70.8 75.1 70.9Z" fill="#AF6A0E"/>
<path d="M77.8 70.6C77.7 71.1 77.5 71.6 77.4 72.1C77.3 72.3 77.5 72.5 77.7 72.6C77.9 72.6 78.1 72.5 78.2 72.3C78.3 71.8 78.5 71.3 78.6 70.8C78.7 70.6 78.5 70.4 78.3 70.3C78.1 70.3 77.9 70.4 77.8 70.6Z" fill="#AF6A0E"/>
<path d="M88.4 81.5C88.1 82.1 87.9 82.8 87.9 83.4C87.9 83.6 88.1 83.8 88.3 83.8C88.5 83.8 88.7 83.6 88.7 83.4C88.7 83.3 88.7 83.3 88.7 83.2V83.1C88.7 83 88.8 82.8 88.8 82.7C88.8 82.6 88.9 82.4 88.9 82.3V82.2C88.9 82.2 88.9 82.2 88.9 82.1C88.9 82 89 82 89 81.9C89.1 81.7 89.1 81.5 88.9 81.4C88.8 81.2 88.5 81.3 88.4 81.5Z" fill="#AF6A0E"/>
<path d="M90.6 83.1C90.5 83.7 90.5 84.3 90.4 84.8C90.4 85 90.6 85.2 90.8 85.2C91 85.2 91.1 85 91.2 84.8C91.3 84.2 91.3 83.6 91.4 83.1C91.4 82.9 91.2 82.7 91 82.7C90.7 82.7 90.6 82.9 90.6 83.1Z" fill="#AF6A0E"/>
<path d="M91 75.8001C90.9 76.5001 91 77.1001 91.1 77.8001C91.1 78.0001 91.4 78.1001 91.6 78.1001C91.8 78.0001 91.9 77.8001 91.9 77.6001C91.9 77.4001 91.8 77.3001 91.8 77.1001V77.0001C91.8 77.1001 91.8 77.0001 91.8 76.9001C91.8 76.8001 91.8 76.7001 91.8 76.7001C91.8 76.4001 91.8 76.1001 91.8 75.8001C91.8 75.6001 91.6 75.4001 91.4 75.4001C91.2 75.5001 91 75.6001 91 75.8001Z" fill="#AF6A0E"/>
<path d="M89.5 91.7C89.4 91.7 89.3 91.8 89.2 91.9C89.1 92 89.1 92.1 89 92.2C89 92.3 89 92.4 89 92.6C89 92.7 89.1 92.8 89.2 92.9C89.3 93 89.4 93 89.5 93C89.6 93 89.7 93 89.8 92.9C89.9 92.8 89.9 92.7 89.9 92.6C89.9 92.5 89.9 92.4 89.8 92.3C89.8 92.3 89.8 92.4 89.9 92.4C89.9 92.4 89.9 92.4 89.9 92.3C89.9 92.3 89.9 92.4 89.8 92.4C89.8 92.4 89.8 92.4 89.9 92.3C89.9 92.3 89.8 92.3 89.8 92.4C89.8 92.4 89.8 92.4 89.9 92.4H89.8C89.8 92.4 89.8 92.4 89.9 92.4C89.9 92.4 90 92.4 90 92.3L90.1 92.2V92.1V92C90.1 91.9 90 91.8 89.9 91.8H89.8C89.7 91.7 89.6 91.7 89.5 91.7Z" fill="#AF6A0E"/>
<path d="M91.3001 91.5C91.2001 91.9 91.2001 92.3 91.1001 92.7C91.1001 92.8 91.1001 92.9 91.1001 93C91.1001 93.1 91.2001 93.2 91.3001 93.2C91.4001 93.2 91.5001 93.2 91.6001 93.2C91.7001 93.2 91.8001 93.1 91.8001 93C91.9001 92.6 91.9001 92.2 92.0001 91.8C92.0001 91.7 92.0001 91.6 92.0001 91.5C92.0001 91.4 91.9001 91.3 91.8001 91.3C91.7001 91.3 91.6001 91.3 91.5001 91.3C91.4001 91.3 91.3001 91.4 91.3001 91.5Z" fill="#AF6A0E"/>
<path d="M86.9 88.1C86.9 88.9 86.9 89.7 86.9 90.4C86.9 90.6 87.1 90.8 87.3 90.8C87.5 90.8 87.7 90.6 87.7 90.4C87.7 89.6 87.7 88.8 87.7 88.1C87.7 87.9 87.5 87.7 87.3 87.7C87.1 87.7 86.9 87.9 86.9 88.1Z" fill="#AF6A0E"/>
<path d="M157.2 62.5C153.3 65 149.4 67.5 145.5 70C137.2 66.8 129.3 62.9 121.7 58.3C120 57.3 118.3 56.2 117 54.7C116.2 53.7 115.5 52.6 114.6 51.7C113.4 50.4 111.8 49.6 110.3 48.8C108.3 47.7 106.3 46.7 104.3 45.6C103.9 45.4 103.4 45.1 102.9 45.2C102 45.4 101.7 46.7 102.1 47.6C102.6 48.4 103.4 49 104.1 49.6C106.4 51.7 106.9 55.1 108.7 57.6C109.7 59 111 60.1 112.2 61.2C113.7 62.5 115.3 63.9 116.8 65.2C122.8 70.4 128.9 75.6 135.4 80.1C137.2 81.3 139 82.5 141.1 82.9C143.4 83.3 145.8 82.8 148 82.1C153.6 80.4 159 77.9 163.9 74.6C162.9 70.7 161.1 66.9 158.7 63.6L157.2 62.5Z" fill="#E8B897"/>
<path d="M177.1 28.6001C176.6 29.6001 176.7 30.9001 177.2 31.9001C177.7 32.9001 178.7 33.7001 179.8 34.0001C180.6 34.2001 181.4 34.1001 182.1 33.7001C182.8 33.3001 183.2 32.4001 183 31.6001C182.9 31.1001 182.5 30.7001 182.6 30.2001C182.6 29.9001 182.8 29.6001 183 29.3001C183.7 28.4001 184.6 27.6001 184.8 26.4001C185.1 25.0001 184.4 23.6001 183.4 22.6001L177.1 28.6001Z" fill="black"/>
<path d="M158.4 110.6C146.1 116 124.7 116 113.4 123.9C110.5 126 107.5 129.1 107.6 133.1C107.6 136.3 109.7 139.1 112.1 140.5C114.5 142 117.3 142.4 120 142.8C120.1 144.9 120.2 147 121 148.8C122.6 152.2 126.3 153.3 129.6 153.8C145.9 156.2 169.6 151.2 185.5 146.3C188.2 145.5 190.9 144.6 193.6 143.5C196.1 142.4 198.7 141 200.4 138.6C202.3 135.8 202.9 132 202.6 128.5C202.3 124.9 201.2 121.5 200.2 118.2C199.2 115 198.1 111.7 197.1 108.5C187 110.1 176.8 110.4 166.7 109.4L158.4 110.6Z" fill="#3F3F3F"/>
<path d="M167.6 48.2C164.1 53.6 153.3 62.5 148.7 67C148.5 67.2 148.3 67.5 148.3 67.8C148.3 68 148.4 68.1 148.5 68.3C152 73.6 155.7 78.6999 159.7 83.5999C163.2 80.2999 166.8 76.8999 170.3 73.5999C170.6 73.3999 170.8 73.0999 170.9 72.6999C170.9 72.3999 170.8 72.2 170.7 71.9C168.1 66.9 165.1 62.0999 161.7 57.5999L167.6 48.2Z" fill="white"/>
<path d="M159.1 12.8C158.7 16.1 158.4 19.3 158 22.6C156 23.3 153.9 23.9 151.8 24.3L157 26.1C156.9 28.9 156.8 31.8 156.7 34.6C156.7 35.7 156.7 36.9 157.6 37.5C158.1 37.8 158.7 37.9 159.3 37.9C161.4 37.9 166.2 37.3 166.2 37.3C166.2 37.3 165.4 47.4 166.2 51.7C166.3 52 168 51 168.4 51.1C168.7 51.2 169.1 51.2 169.4 51.1C173.5 50.4 178.9 48.8 182.2 46.2C180.9 41.3 179 33.9 178.2 27.7C179.6 29.3 182.8 28 183 26C183.3 23.9 180.4 20.4 178.7 21.6C179.1 17.7 179 15.9 178.4 12C173 12.3 164.3 13.1 158.9 12.7L159.1 12.8Z" fill="#FED5B7"/>
<path d="M165.7 39.7001C170.8 39.7001 179.6 35.9001 179.6 35.9001C179.6 35.9001 185.6 44.3001 187.5 47.1001C192.2 53.8001 196.2 61.3001 197.5 69.4001C198.1 73.6001 198 77.8001 198.1 82.0001C198.2 91.0001 201.7 115.8 200.8 116.1C196.7 117.4 188.7 119.6 184.4 119C181.9 118.7 179.4 117.7 176.9 117.4C175.1 117.2 173.3 117.3 171.5 117.1C167 116.6 163 114.1 159.2 111.7C158.9 111.5 158.6 111.3 158.4 111C158.2 110.7 158.3 110.3 158.3 109.9C158.9 105.1 158.9 100.2 158.8 95.3001C158.8 90.6001 158.8 85.8001 158.3 81.1001C157.8 76.2001 156.9 71.4001 156.8 66.5001C156.8 61.6001 163.8 49.2001 164.5 47.2001C164.8 46.5001 165.2 45.8001 165.6 45.2001L165.7 39.7001Z" fill="#C23F37"/>
<path d="M163 68.8C158.3 74 153.7 79.4 149.2 84.8C148.5 81.9 144.2 72.2 143.4 70C142.3 66.9 142 63.6 141.7 60.4C141.3 56.6 141 52.7 140.6 48.9C140.4 47.2 140.3 45.4 139.8 43.8C139.5 42.7 137.8 42.9 137.8 44.1C137.8 47.8 137.9 51.4 138.4 55C138.1 54.1 137.7 53.1 136.8 52.7C135.9 52.3 134.6 53.1 135 54C134.6 53.2 133.5 52.8 132.6 53.1C131.7 53.5 131.3 54.5 131.5 55.4C131 54.5 129.4 54.9 128.9 55.9C128.4 56.9 128.7 58 129 59.1C129.6 61.1 130.2 63.2 131.1 65.1C131.7 66.3 132.4 67.5 132.9 68.7C133.7 70.7 134.1 72.9 134.5 75C135.8 82.7 137.2 90.4 139.3 98C139.9 100 140.7 102.3 142.5 103.3C145 104.6 148.1 103.1 150.4 101.4C158.4 95.7 165.2 88.7 172 81.6C172.2 81.4 172.5 81.1 172.5 80.8C172.5 80.5 172.3 80.1 172.1 79.9C169.7 76.6 167.3 73.3 164.9 70C164.4 69.2 163.4 68.4 162.6 68.9L163 68.8Z" fill="#FED5B7"/>
<path d="M175.1 51.9001C170.6 52.6001 167.2 56.3001 164.9 60.2001C162.6 64.1001 161.2 68.5001 158.8 72.3001C158.5 72.8001 158.1 73.3001 158.3 73.9001C158.4 74.2001 158.6 74.4001 158.7 74.7001C161.7 78.6001 166.4 86.0001 169.3 89.9001C171.4 88.2001 172.3 84.0001 174.7 83.0001C181 80.3001 186 74.1001 186.4 67.2001C186.8 60.3001 183.9 53.5001 177.2 51.9001H175.1Z" fill="#C23F37"/>
<path d="M165.7 39.9999C169.5 39.6999 173.3 38.8999 176.8 37.5999C177.8 37.1999 178.8 36.7999 179.8 36.2999C180.2 36.0999 179.9 35.4999 179.4 35.6999C175.1 37.7999 170.4 38.9999 165.6 39.2999C165.3 39.1999 165.3 39.9999 165.7 39.9999Z" fill="white"/>
<path d="M167.5 39.5001C167.7 41.1001 167.9 42.6001 168.1 44.2001C168.1 44.4001 168.3 44.6001 168.5 44.6001C168.7 44.6001 168.9 44.4001 168.9 44.2001C168.7 42.6001 168.5 41.1001 168.3 39.5001C168.3 39.3001 168.1 39.1001 167.9 39.1001C167.6 39.1001 167.4 39.3001 167.5 39.5001Z" fill="white"/>
<path d="M169 39.7001C169.2 41.2001 169.3 42.6 169.5 44.1C169.5 44.3 169.7 44.5 169.9 44.5C170.1 44.5 170.3 44.3 170.3 44.1C170.1 42.6 170 41.2001 169.8 39.7001C169.8 39.5001 169.6 39.3 169.4 39.3C169.2 39.3 169 39.5001 169 39.7001Z" fill="white"/>
<path d="M171.3 39.2001C171.6 40.6001 171.8 42.0001 172 43.5001C172 43.7001 172.2 43.9001 172.4 43.9001C172.6 43.9001 172.8 43.7001 172.8 43.5001C172.7 42.0001 172.4 40.5001 172.1 39.0001C171.9 38.5001 171.2 38.7001 171.3 39.2001Z" fill="white"/>
<path d="M173.8 38.4001C174 39.7001 174.3 41.0001 174.7 42.3001C174.8 42.8001 175.5 42.6001 175.4 42.1001C175 40.8001 174.7 39.5001 174.5 38.2001C174.5 38.0001 174.2 37.9001 174 37.9001C173.9 38.0001 173.8 38.2001 173.8 38.4001Z" fill="white"/>
<path d="M176.3 37.8C176.4 39.3 176.7 40.8 177.2 42.3C177.3 42.8 178.1 42.6 177.9 42.1C177.5 40.7 177.2 39.3 177.1 37.8C177 37.3 176.3 37.3 176.3 37.8Z" fill="white"/>
<path d="M178.5 37.2999C178.9 38.7999 179.3 40.2999 179.6 41.7999C179.7 42.2999 180.4 42.0999 180.3 41.5999C180 40.0999 179.6 38.5999 179.2 37.0999C179.1 36.5999 178.4 36.7999 178.5 37.2999Z" fill="white"/>
<path d="M166 45.3001C168 45.3001 170.1 45.1001 172.1 44.7001C174.3 44.3001 176.5 43.8001 178.7 43.0001C179.7 42.7001 180.7 42.3001 181.7 41.8001C182.1 41.6001 181.7 40.9001 181.3 41.2001C179.5 42.1001 177.6 42.7001 175.7 43.2001C173.6 43.8001 171.4 44.2001 169.2 44.4001C168.2 44.5001 167.1 44.6001 166.1 44.6001C165.5 44.5001 165.5 45.3001 166 45.3001Z" fill="white"/>
<path d="M157.7 73.4C158.7 75.4 159.9 77.3 161.2 79.2C162.5 81.1 163.8 82.9 165.2 84.6C166 85.6 166.8 86.6 167.6 87.7C167.9 88.1 168.4 87.5 168.1 87.2C165.3 83.7 162.6 80.2 160.2 76.4C159.5 75.3 158.9 74.2 158.3 73.1C158.2 72.6 157.5 72.9 157.7 73.4Z" fill="white"/>
<path d="M167.2 86.1999C167.5 85.8999 167.8 85.4999 168.1 85.1999C168.3 85.0999 168.4 84.8999 168.6 84.7999L168.7 84.6999C168.7 84.6999 168.7 84.6999 168.8 84.5999C168.9 84.4999 169 84.4999 169.1 84.3999C169.3 84.2999 169.3 84.0999 169.2 83.8999C169.1 83.6999 168.9 83.5999 168.7 83.7999C167.9 84.2999 167.2 84.9999 166.7 85.6999C166.6 85.7999 166.5 86.0999 166.7 86.1999C166.8 86.2999 167.1 86.2999 167.2 86.1999Z" fill="white"/>
<path d="M165.7 83.9999C165.8 83.8999 165.9 83.7999 165.9 83.6999L166 83.5999L166.1 83.4999C166.3 83.2999 166.4 83.1 166.6 82.9C167 82.5 167.3 82.2 167.7 81.9C167.9 81.8 167.8 81.5 167.7 81.4C167.5 81.3 167.3 81.3 167.2 81.4C166.4 82.1 165.6 82.8999 165 83.6999C164.9 83.8999 165 84.0999 165.1 84.1999C165.4 84.1999 165.6 84.0999 165.7 83.9999Z" fill="white"/>
<path d="M163.8 81.7C164.4 81 165 80.3 165.6 79.5C165.7 79.3 165.8 79.1 165.6 79C165.5 78.9 165.2 78.8 165.1 79C164.5 79.7 163.9 80.4 163.3 81.2C163.2 81.4 163.1 81.6 163.3 81.7C163.4 81.9 163.6 81.9 163.8 81.7Z" fill="white"/>
<path d="M162.4 79.4001C162.5 79.2001 162.6 79.1001 162.7 78.9001L162.8 78.8001C162.8 78.8001 162.8 78.8001 162.8 78.7001L162.9 78.6001C163.1 78.3001 163.4 78.0001 163.7 77.8001C163.9 77.7001 163.8 77.4001 163.7 77.3001C163.5 77.2001 163.3 77.2001 163.2 77.3001C162.6 77.8001 162.1 78.4001 161.7 79.1001C161.6 79.3001 161.7 79.5001 161.8 79.6001C162.1 79.6001 162.3 79.5001 162.4 79.4001Z" fill="white"/>
<path d="M160.6 76.9C160.7 76.8 160.7 76.6999 160.8 76.5999L160.9 76.4999L161 76.4C161.2 76.2 161.3 76 161.5 75.9C161.8 75.5 162.1 75.2 162.5 74.9C162.6 74.8 162.6 74.5 162.5 74.4C162.3 74.3 162.1 74.3 162 74.4C161.3 75.1 160.6 75.7999 160 76.5999C159.9 76.7999 160 76.9999 160.1 77.0999C160.3 77.0999 160.5 77 160.6 76.9Z" fill="white"/>
<path d="M159 73.9001C159.7 73.3001 160.4 72.7001 161.1 72.1001C161.2 72.0001 161.2 71.7001 161.1 71.6001C160.9 71.5001 160.7 71.5001 160.6 71.6001C159.9 72.2001 159.2 72.8001 158.5 73.4001C158.4 73.5001 158.4 73.8001 158.5 73.9001C158.7 74.1001 158.9 74.0001 159 73.9001Z" fill="white"/>
<path d="M158.4 71.8C160.3 69.9 162.1 67.9 163.8 65.8C165.4 63.8 166.7 61.6 168.2 59.5C170.8 55.9 174.7 52 179.6 52.6C181.9 52.9 184 54.2 185.5 55.9C186.3 56.8 186.9 57.8 187.3 59C187.7 60.2 187.7 61.5 187.5 62.8C187.1 65.2 186 67.5 184.9 69.6C183.9 71.6 182.7 73.5 181.3 75.4C178.6 79 175.3 82.2 171.6 84.8C171.1 85.1 170.7 85.4 170.2 85.7C169.8 86 170.2 86.6 170.6 86.3C174.6 83.8 178.1 80.6 181.1 76.9C182.6 75.1 183.9 73.1 185 71.1C186.2 69 187.3 66.7 188 64.3C188.4 63 188.6 61.7 188.4 60.3C188.3 59 187.9 57.8 187.2 56.7C186 54.7 184 53 181.8 52.2C179.6 51.3 177.1 51.5 174.9 52.4C172.7 53.3 170.8 55 169.2 56.8C167.5 58.8 166.2 61 164.7 63.2C163.1 65.5 161.3 67.5 159.4 69.5C158.9 70 158.5 70.5 158 71C157.5 71.6 158 72.1 158.4 71.8Z" fill="white"/>
<path d="M176.4 46.5C177.2 47.4 177.7 48.7 177.7 49.9C177.7 50.4 178.5 50.4 178.4 49.9C178.3 48.5 177.8 47.1 176.9 46C176.8 45.8 176.5 45.9 176.4 46C176.3 46.1 176.3 46.3 176.4 46.5Z" fill="white"/>
<path d="M161.2 58.4001C161 59.0001 160.9 59.7001 161 60.4001C161 60.6001 161.3 60.7001 161.5 60.7001C161.7 60.6001 161.8 60.4001 161.8 60.2001C161.8 60.2001 161.8 60.2001 161.8 60.1001V60.0001C161.8 59.9001 161.8 59.9001 161.8 59.8001C161.8 59.7001 161.8 59.5001 161.8 59.4001C161.8 59.3001 161.8 59.5001 161.8 59.4001V59.3001C161.8 59.2001 161.8 59.2001 161.8 59.1001C161.8 59.0001 161.9 58.8001 161.9 58.7001C162 58.5001 161.8 58.3001 161.6 58.2001C161.4 58.1001 161.2 58.2001 161.2 58.4001Z" fill="white"/>
<path d="M162.6 57.9C162.6 58.3 162.6 58.8 162.6 59.2C162.6 59.4 162.8 59.6 163 59.6C163.2 59.6 163.4 59.4 163.4 59.2C163.4 58.8 163.4 58.3 163.4 57.9C163.4 57.7 163.2 57.5 163 57.5C162.8 57.5 162.6 57.7 162.6 57.9Z" fill="white"/>
<path d="M165.2 53.8C165.1 54.3 165 54.8 164.9 55.3C164.9 55.5 165 55.7 165.2 55.8C165.4 55.8 165.6 55.7 165.7 55.5C165.8 55 165.9 54.5 166 54C166 53.8 165.9 53.6 165.7 53.5C165.5 53.5 165.3 53.6 165.2 53.8Z" fill="white"/>
<path d="M175.7 70.7C175.6 71.3 175.6 71.9 175.5 72.4C175.5 72.6 175.7 72.8 175.9 72.8C176.1 72.8 176.2 72.6 176.3 72.4C176.4 71.8 176.4 71.2 176.5 70.7C176.5 70.5 176.3 70.3 176.1 70.3C175.9 70.4 175.8 70.5 175.7 70.7Z" fill="white"/>
<path d="M177.5 70.2C177.4 70.6 177.4 71.1 177.3 71.5C177.3 71.6 177.3 71.7 177.3 71.8C177.3 71.9 177.4 72 177.5 72C177.6 72 177.7 72 177.8 72C177.9 72 178 71.9 178 71.8C178.1 71.4 178.1 70.9 178.2 70.5C178.2 70.4 178.2 70.3 178.2 70.2C178.2 70.1 178.1 70 178 70C177.9 70 177.8 70 177.7 70C177.6 70 177.5 70.1 177.5 70.2Z" fill="white"/>
<path d="M179.5 69C179.4 69.4 179.3 69.8 179.2 70.2C179.2 70.4 179.3 70.6 179.5 70.7C179.7 70.7 179.9 70.6 180 70.4C180.1 70 180.2 69.6 180.3 69.2C180.3 69 180.2 68.8 180 68.7C179.8 68.7 179.6 68.8 179.5 69Z" fill="white"/>
<path d="M179.1 65.5001C179.1 66.0001 179.1 66.6001 179.1 67.1001C179.1 67.3001 179.3 67.5001 179.5 67.5001C179.7 67.5001 179.9 67.3001 179.9 67.1001C179.9 66.6001 179.9 66.0001 179.9 65.5001C179.9 65.3001 179.7 65.1001 179.5 65.1001C179.2 65.1001 179.1 65.3001 179.1 65.5001Z" fill="white"/>
<path d="M184.5 85.1C184.6 86 184.6 87 184.6 87.9C184.6 88.1 184.8 88.3 185 88.3C185.2 88.3 185.4 88.1 185.4 87.9C185.5 87 185.4 86 185.3 85.1C185.3 84.9 185.1 84.7 184.9 84.7C184.7 84.8 184.5 84.9 184.5 85.1Z" fill="white"/>
<path d="M187.2 85C187.1 85 187.1 85 187 85.1L186.9 85.2C186.8 85.3 186.8 85.3 186.8 85.3C186.8 85.3 186.8 85.4 186.7 85.4C186.7 85.5 186.7 85.5 186.7 85.6C186.7 85.7 186.7 85.7 186.7 85.8C186.7 85.9 186.8 85.9 186.8 86L186.9 86.1C186.9 86.1 187 86.1 187 86.2C187.1 86.2 187.1 86.2 187.2 86.2H187.3C187.4 86.2 187.4 86.2 187.5 86.1C187.6 86 187.6 86 187.7 85.9V85.8V85.7C187.6 85.6 187.6 85.6 187.5 85.5H187.4C187.3 85.5 187.3 85.5 187.2 85.6C187.2 85.6 187.2 85.6 187.3 85.6C187.3 85.6 187.3 85.6 187.2 85.6H187.3C187.3 85.6 187.3 85.6 187.2 85.6H187.3C187.3 85.6 187.3 85.6 187.2 85.6H187.3C187.3 85.6 187.3 85.6 187.2 85.6C187.2 85.6 187.3 85.6 187.3 85.7C187.3 85.7 187.3 85.8 187.4 85.8V85.9C187.4 85.9 187.4 85.9 187.4 85.8V85.9C187.4 85.9 187.4 85.9 187.4 85.8V85.9C187.4 85.9 187.4 85.9 187.4 85.8V85.9C187.4 85.9 187.4 85.9 187.4 85.8C187.4 85.8 187.4 85.9 187.3 85.9C187.3 85.9 187.2 85.9 187.2 86H187.1C187.2 86 187.2 86 187.3 85.9L187.4 85.8V85.7V85.6C187.4 85.5 187.3 85.4 187.2 85.4H187.1C187.4 85 187.3 85 187.2 85Z" fill="white"/>
<path d="M189.4 83.6C189.3 84.1 189.2 84.6 189.1 85.1C189.1 85.3 189.2 85.5 189.4 85.6C189.6 85.6 189.8 85.5 189.9 85.3C190 84.8 190.1 84.3 190.2 83.8C190.2 83.6 190.1 83.4 189.9 83.3C189.7 83.3 189.5 83.4 189.4 83.6Z" fill="white"/>
<path d="M188.7 78.4C188.7 78.8 188.7 79.3 188.7 79.7C188.7 79.9 188.9 80.1 189.1 80.1C189.3 80.1 189.5 79.9 189.5 79.7C189.5 79.3 189.5 78.8 189.5 78.4C189.5 78.2 189.3 78 189.1 78C188.9 78.1 188.7 78.2 188.7 78.4Z" fill="white"/>
<path d="M169 94.2C169 94.8 169 95.4 169.2 96C169.2 96.2 169.5 96.3 169.7 96.3C169.9 96.2 170 96 170 95.8C170 95.7 169.9 95.5 169.9 95.4V95.3C169.9 95.3 169.9 95.3 169.9 95.2C169.9 95.2 169.9 95.2 169.9 95.1V95C169.9 94.7 169.9 94.4 169.9 94.1C169.9 93.9 169.7 93.7 169.5 93.7C169.2 93.8 169 94 169 94.2Z" fill="white"/>
<path d="M171.1 93.7001C170.9 94.2001 170.8 94.8001 171 95.3001C171.1 95.5001 171.3 95.6001 171.5 95.6001C171.7 95.5001 171.8 95.3001 171.8 95.1001C171.8 95.0001 171.7 94.9001 171.7 94.8001V94.9001C171.7 94.8001 171.7 94.6001 171.7 94.5001V94.6001C171.7 94.5001 171.7 94.4001 171.8 94.3001V94.2001C171.8 94.1001 171.8 94.3001 171.8 94.2001C171.8 94.2001 171.8 94.2001 171.8 94.1001C171.9 93.9001 171.9 93.7001 171.7 93.6001C171.5 93.5001 171.2 93.5001 171.1 93.7001Z" fill="white"/>
<path d="M173.7 91.4C173.7 91.7 173.7 92.1 173.7 92.4C173.7 92.6 173.9 92.8 174.1 92.8C174.3 92.8 174.5 92.6 174.5 92.4C174.5 92.1 174.5 91.7 174.5 91.4C174.5 91.2 174.3 91 174.1 91C173.8 91.1 173.7 91.2 173.7 91.4Z" fill="white"/>
<path d="M175.3 94.4001C175.1 95.0001 175.1 95.5001 175.1 96.1001C175.1 96.2001 175.1 96.3001 175.2 96.4001C175.3 96.5001 175.4 96.5001 175.5 96.5001C175.7 96.5001 175.9 96.3001 175.9 96.1001C175.9 95.8001 175.9 95.6001 175.9 95.3001C175.9 95.2001 175.9 95.2001 175.9 95.1001V95.0001C175.9 94.9001 176 94.7001 176 94.6001C176.1 94.4001 175.9 94.2001 175.7 94.1001C175.6 94.1001 175.3 94.2001 175.3 94.4001Z" fill="white"/>
<path d="M176.2 98.4C176.2 98.6 176.2 98.9 176.2 99.1C176.2 99.2 176.2 99.3 176.3 99.4C176.4 99.5 176.5 99.5 176.6 99.5C176.7 99.5 176.8 99.5 176.9 99.4C177 99.3 177 99.2 177 99.1C177 98.9 177 98.6 177 98.4C177 98.3 177 98.2 176.9 98.1C176.8 98 176.7 98 176.6 98C176.5 98 176.4 98 176.3 98.1C176.2 98.2 176.2 98.3 176.2 98.4Z" fill="white"/>
<path d="M178.5 26.3C179.1 25.7 179.8 25.1 180.4 24.5C180.5 24.4 180.5 24.1 180.4 24C180.2 23.9 180 23.9 179.9 24C179.3 24.6 178.6 25.2 178 25.8C177.9 25.9 177.9 26.2 178 26.3C178.1 26.4 178.4 26.4 178.5 26.3Z" fill="#7E4927"/>
<path d="M179.1 25.2C179.4 25.6 179.6 26 179.9 26.4C180 26.6 180.2 26.6 180.4 26.5C180.6 26.4 180.6 26.2 180.5 26C180.2 25.6 180 25.2 179.7 24.8C179.6 24.6 179.4 24.6 179.2 24.7C179 24.8 179 25 179.1 25.2Z" fill="#7E4927"/>
<path opacity="0.38" d="M166.3 37.3L172.8 34.5L166.3 38.1V37.3Z" fill="#7E4927"/>
<path d="M157.8 30.1001C158.6 30.4001 159.4 30.1001 160.1 29.8001C160.8 29.5001 161.4 29.0001 161.9 28.4001C162 28.2001 162 28.0001 161.9 27.9001C161.8 27.8001 161.5 27.7001 161.4 27.9001C161 28.4001 160.5 28.8001 159.9 29.1001C159.6 29.3001 159.3 29.4001 159 29.5001C158.7 29.6001 158.4 29.7001 158.1 29.5001C157.9 29.4001 157.7 29.4001 157.6 29.6001C157.5 29.7001 157.6 30.0001 157.8 30.1001Z" fill="#7E4927"/>
<path d="M161.943 22.1494C161.353 22.2951 161.004 22.9348 161.163 23.5782C161.321 24.2216 161.928 24.625 162.518 24.4794C163.108 24.3337 163.457 23.694 163.298 23.0506C163.139 22.4072 162.532 22.0038 161.943 22.1494Z" fill="black"/>
<path d="M161.5 21.0999C161.7 21.2999 162 21.1999 162.3 21.1999C163.2 21.0999 164.1 20.9999 165 20.8999C165.1 20.8999 165.3 20.7999 165.4 20.6999C165.6 20.3999 165.3 19.9999 165 19.8999C163.8 19.2999 162.4 19.2999 161.2 19.6999L161.1 19.7999C160.6 20.1999 160.9 20.9999 161.5 21.0999Z" fill="black"/>
<path d="M180.3 21.8C178.9 22 177.8 23.2 178.2 24.6C177.5 24.7 176.8 24.8 176.2 24.9C176.9 22.2 177.2 19.5 177.2 16.8C177.2 15.8 177 14.5 176 14.2C175.1 13.9 174.2 14.5 173.4 15.2C172.8 15.7 172.2 16.1 171.4 16.3C170.7 16.5 169.8 16.3 169.3 15.7C169.1 15.4 169 15.1 168.8 14.8C168.2 14 167 14.2 166.1 14.6C165.2 15 164.3 15.6 163.3 15.5C161.9 15.3 160.9 13.6 159.5 13.9C159.1 14 158.8 14.2 158.4 14.3C157.2 14.7 155.8 14.1 155.3 12.9C154.8 11.7 155.1 10.3 155.9 9.40001C157.5 7.60001 160.7 7.70001 162.1 5.70001C162.6 5.00001 162.9 4.00001 163.4 3.30001C164.4 2.00001 166.3 1.70001 168 1.90001C169.6 2.10001 171.3 2.60001 172.9 2.40001C174.5 2.20001 176.2 1.40001 177.7 2.20001C178.5 2.60001 179.1 3.40001 179.8 4.00001C180.8 4.70001 182 4.90001 183.1 5.30001C184.2 5.70001 185.4 6.30001 185.8 7.40001C186.6 9.50001 184.3 11.8 185.4 13.8C185.6 14.3 186 14.6 186.3 15.1C187.1 16.4 186.6 18.1 186 19.5C185.1 21.4 184.4 24.3 183.1 26C183 24.5 181.5 22.2 180.1 21.9H180.3V21.8Z" fill="black"/>
<path d="M158 9.70003C158.9 8.90003 159.9 8.20003 160.6 7.30003C161.2 6.40003 161.4 5.40003 161.6 4.40003C161.7 3.90003 161.9 3.50003 162.1 3.10003C162.4 2.70003 162.8 2.40003 163.3 2.10003C163.8 1.80003 164.4 1.60003 164.9 1.40003C165.5 1.20003 166.1 1.00003 166.7 0.900029C167.9 0.700029 169.1 0.900029 170.3 1.30003C171.5 1.70003 172.5 2.30003 173.7 2.80003C174.3 3.00003 174.8 3.20003 175.4 3.10003C176 3.00003 176.6 2.90003 177.2 2.70003C178.2 2.50003 179.3 2.60003 180.3 3.00003C181.4 3.50003 182.3 4.30003 182.8 5.30003C183.3 6.40003 183.4 7.80003 182.6 8.80003C182.3 9.20003 182.8 9.70003 183.1 9.30003C184.7 7.30003 183.8 4.60003 182 3.20003C181.1 2.50003 180.1 2.00003 179 1.90003C178.4 1.80003 177.9 1.80003 177.3 1.90003C176.6 2.00003 176 2.20003 175.3 2.30003C174 2.40003 172.8 1.60003 171.6 1.10003C170.4 0.600029 169.2 0.200029 167.9 0.100029C166.5 2.91318e-05 165.3 0.500029 164 1.00003C163 1.40003 161.9 1.80003 161.2 2.80003C160.5 3.80003 160.6 5.10003 160.1 6.20003C159.9 6.80003 159.4 7.30003 158.9 7.80003C158.3 8.30003 157.7 8.80003 157.2 9.30003C157.1 9.40003 157.6 10 158 9.70003Z" fill="black"/>
<path d="M130.9 55.2001C131.1 56.0001 131.3 56.7001 131.7 57.4001C131.8 57.6001 132.1 57.6001 132.2 57.5001C132.4 57.4001 132.4 57.2001 132.3 57.0001C132.3 56.9001 132.2 56.9001 132.2 56.8001C132.2 56.7001 132.1 56.6001 132.1 56.5001C132 56.3001 132 56.2001 131.9 56.0001C131.8 55.6001 131.7 55.3001 131.6 54.9001C131.6 54.7001 131.3 54.6001 131.1 54.6001C131 54.8001 130.9 55.0001 130.9 55.2001Z" fill="#7E4927"/>
<path d="M134.3 53.6001C134.5 54.4001 134.8 55.1001 135 55.9001C135.1 56.1001 135.3 56.2001 135.5 56.2001C135.7 56.1001 135.8 55.9001 135.8 55.7001C135.6 54.9001 135.3 54.2001 135.1 53.4001C135 53.2001 134.8 53.1001 134.6 53.1001C134.4 53.2001 134.3 53.4001 134.3 53.6001Z" fill="#7E4927"/>
<path d="M130.7 58.2001C133.6 57.2001 136.5 56.4001 139.5 55.6001C140 55.5001 139.8 54.8001 139.3 54.9001C136.3 55.6001 133.4 56.5001 130.5 57.5001C130 57.7001 130.2 58.4001 130.7 58.2001Z" fill="#7E4927"/>
<path d="M141.7 64.2001C143.2 63.9001 144.5 62.6001 144.9 61.1001C145.3 59.5001 144.8 57.7001 145.1 56.0001C145.2 55.3001 145.5 54.7001 145.8 54.1001C145.9 53.9001 146 53.7001 145.9 53.5001C145.8 53.1001 145.2 53.2001 144.9 53.4001C144 53.9001 143.3 54.7001 143.1 55.7001C143 56.2001 143 56.7001 142.8 57.1001C142.3 58.2001 140.8 58.7001 140.5 59.9001L141.7 64.2001Z" fill="#FED5B7"/>
<path d="M136.1 68.9001C137.2 68.5001 138.3 68.1001 139.3 67.7001C139.5 67.6001 139.6 67.4001 139.6 67.2001C139.5 67.0001 139.3 66.9001 139.1 66.9001C138 67.3001 136.9 67.7001 135.9 68.1001C135.7 68.2001 135.6 68.4001 135.6 68.6001C135.7 68.9001 135.9 69.0001 136.1 68.9001Z" fill="#7E4927"/>
<path d="M102.2 45.1001C101.1 46.5001 101.7 48.4001 102.8 49.5001C103.4 50.1001 104.2 50.6001 104.9 51.0001C105.8 51.5001 106.8 52.1001 107.7 52.6001C107.7 52.4001 107.6 52.3001 107.6 52.1001C107 53.2001 107.1 54.5001 107.8 55.5001C108.4 56.5001 109.5 57.1001 110.6 57.4001C111.1 57.5001 111.3 56.8001 110.8 56.7001C109.9 56.4001 109 56.0001 108.5 55.2001C107.9 54.4001 107.8 53.3001 108.3 52.5001C108.4 52.3001 108.3 52.1001 108.2 52.0001C107.4 51.5001 106.6 51.1001 105.8 50.6001C105.1 50.2001 104.4 49.8001 103.8 49.3001C102.8 48.5001 101.8 46.8001 102.8 45.6001C103.1 45.3001 102.5 44.8001 102.2 45.1001Z" fill="#7E4927"/>
<path d="M99.4 56.4001C100.3 56.8001 101.2 57.2001 102.1 57.4001C102.8 57.6001 103.9 58.0001 104.3 57.2001C104.7 56.5001 104 55.6001 103.5 55.1001C102.9 54.5001 102.2 54.1001 101.5 53.7001C101.4 53.9001 101.2 54.1001 101.1 54.3001C101.5 54.5001 102 54.8001 102.4 55.0001C102.8 55.2001 103.2 55.5001 103.6 55.6001C104.3 55.8001 104.9 55.4001 105.1 54.7001C105.3 53.3001 104 51.9001 102.8 51.4001C102.5 51.2001 102 51.7001 102.3 52.0001C102.8 52.4001 103.4 52.8001 104 53.2001C104.5 53.4001 105 53.7001 105.6 53.5001C106.1 53.4001 106.5 52.9001 106.4 52.3001C106.3 51.6001 105.8 51.2001 105.2 50.9001C104.8 50.7001 104.4 51.3001 104.8 51.5001C105.1 51.7001 105.6 51.9001 105.6 52.3001C105.6 52.7001 105.2 52.7001 105 52.6001C104.6 52.5001 104.3 52.3001 103.9 52.1001C103.5 51.9001 103.1 51.6001 102.8 51.3001C102.6 51.5001 102.5 51.7001 102.3 51.9001C102.8 52.1001 103.3 52.5001 103.6 52.9001C103.9 53.3001 104.2 53.7001 104.2 54.2001C104.2 54.4001 104.2 54.6001 104.1 54.7001C103.9 54.9001 103.6 54.6001 103.4 54.5001C102.7 54.1001 102.1 53.8001 101.4 53.4001C101 53.2001 100.6 53.8001 101 54.0001C101.6 54.3001 102.1 54.6001 102.6 55.0001C102.8 55.2001 103 55.4001 103.2 55.6001C103.3 55.8001 103.6 56.2001 103.5 56.4001C103.4 56.6001 103 56.5001 102.8 56.5001C102.4 56.4001 102.1 56.3001 101.7 56.2001C101 56.0001 100.3 55.7001 99.6 55.4001C99.3 55.6001 98.9 56.2001 99.4 56.4001Z" fill="#7E4927"/>
<path d="M104.9 57.4C105.7 57.5 106.6 57.8 107.3 58.2C107.5 58.3 107.7 58.1999 107.8 58.0999C107.9 57.8999 107.8 57.6999 107.7 57.5999C106.8 57.0999 105.9 56.8 104.9 56.7C104.7 56.7 104.5 56.8999 104.5 57.0999C104.6 57.1999 104.7 57.3 104.9 57.4Z" fill="#7E4927"/>
<path d="M113.1 59C113.8 58.2 114.4 57.3 115.1 56.5C115.2 56.3 115.3 56.1 115.1 56C115 55.9 114.7 55.8 114.6 56C113.9 56.8 113.3 57.7 112.6 58.5C112.5 58.7 112.4 58.9 112.6 59C112.7 59.2 113 59.2 113.1 59Z" fill="#7E4927"/>
<path d="M145.9 70.7999C146.2 71.7999 146.4 72.8999 146.7 73.8999C146.8 74.3999 147.5 74.1999 147.4 73.6999C147.1 72.6999 146.9 71.5999 146.6 70.5999C146.5 70.0999 145.8 70.2999 145.9 70.7999Z" fill="#7E4927"/>
<path d="M149.2 85.3C149 86.7 148.9 88.2 148.9 89.6C148.9 90.1 149.6 90.1 149.6 89.6C149.6 88.2 149.7 86.8 149.9 85.5C149.9 85.3 149.9 85.1 149.6 85C149.5 85 149.3 85.1 149.2 85.3Z" fill="#7E4927"/>
<path d="M67.1 45.1C67.9 45.3 68.7 45.6 69.4 45.8C69.6 45.9 69.8 45.7 69.9 45.5C69.9 45.3 69.8 45.1 69.6 45C68.8 44.8 68 44.5 67.3 44.3C67.1 44.2 66.9 44.4 66.8 44.6C66.8 44.9 66.9 45 67.1 45.1Z" fill="#F59F18"/>
<path d="M69 43.5C69.7 43.9 70.4 44.1 71.1 44.2C71.3 44.2 71.5 44.2 71.6 43.9C71.6 43.7 71.5 43.5 71.3 43.4C70.9 43.4 70.6 43.3 70.3 43.2C70.2 43.2 70.1 43.1 70.1 43.1C70.1 43.1 70 43 70 43.1H69.9C69.7 43 69.6 42.9 69.4 42.8C69.2 42.7 69 42.8 68.9 42.9C68.8 43.2 68.8 43.4 69 43.5Z" fill="#F59F18"/>
<path d="M97.7 67C98.1 67.9 99.1 68.5 100.1 68.4C100.3 68.4 100.5 68.2 100.5 68C100.5 67.8 100.3 67.6 100.1 67.6C100 67.6 99.9 67.6 99.8 67.6H99.7C99.6 67.6 99.5 67.5 99.4 67.5C99.4 67.5 99.4 67.5 99.3 67.5C99.3 67.5 99.2 67.5 99.2 67.4L99.1 67.3C99 67.2 99.2 67.3 99.1 67.3C99 67.2 99 67.2 98.9 67.1L98.8 67C98.8 67 98.8 67 98.8 66.9C98.7 66.8 98.7 66.7 98.6 66.6C98.5 66.4 98.3 66.4 98.1 66.5C97.7 66.6 97.6 66.8 97.7 67Z" fill="#F59F18"/>
<path d="M98.1001 68.8999C98.4001 69.3999 98.9001 69.7999 99.5001 69.9999C99.7001 70.0999 99.9001 69.8999 100 69.6999C100 69.4999 99.9001 69.2999 99.7001 69.1999C99.6001 69.1999 99.6001 69.1999 99.5001 69.0999H99.6001C99.4001 68.9999 99.3001 68.8999 99.1001 68.7999C99.1001 68.7999 99.2001 68.7999 99.2001 68.8999C99.1001 68.7999 99.0001 68.6999 98.8001 68.5999C98.8001 68.5999 98.8001 68.6999 98.9001 68.6999C98.8001 68.5999 98.8001 68.5999 98.8001 68.4999C98.7001 68.2999 98.5001 68.2999 98.3001 68.3999C98.0001 68.4999 98.0001 68.6999 98.1001 68.8999Z" fill="#F59F18"/>
<path d="M96.9 108.2C97 108.5 97.2 108.7 97.4 108.9C97.6 109.1 97.9 109.3 98.2 109.4C98.3 109.4 98.4 109.4 98.5 109.4C98.6 109.4 98.7 109.3 98.7 109.2C98.7 109.1 98.7 109 98.7 108.9C98.6 108.8 98.6 108.8 98.5 108.7H98.6C98.4 108.6 98.3 108.5 98.1 108.4C98.1 108.4 98.2 108.4 98.2 108.5C98.1 108.4 97.9001 108.2 97.8001 108.1C97.8001 108.1 97.8 108.2 97.9 108.2C97.8 108.1 97.8 108 97.7 107.9C97.6 107.7 97.4 107.7 97.2 107.8C96.9 107.8 96.8 108 96.9 108.2Z" fill="#F59F18"/>
<path d="M96.9001 109.9C97.3001 110.3 97.8001 110.7 98.4001 110.9C98.6001 111 98.8001 110.8 98.9001 110.6C98.9001 110.4 98.8001 110.2 98.6001 110.1C98.5001 110.1 98.5001 110.1 98.4001 110H98.3001C98.2001 109.9 98.1001 109.9 98.0001 109.8C97.9001 109.8 97.9001 109.7 97.8001 109.7C97.7001 109.7 97.7001 109.6 97.7001 109.6C97.6001 109.5 97.5001 109.4 97.4001 109.3C97.3001 109.2 97.0001 109.2 96.9001 109.3C96.8001 109.6 96.8001 109.8 96.9001 109.9Z" fill="#F59F18"/>
<path d="M39.9001 101.5C40.4001 101.6 41.0001 101.7 41.5001 101.8C41.7001 101.8 41.9001 101.7 42.0001 101.5C42.0001 101.3 41.9001 101.1 41.7001 101C41.2001 100.9 40.6001 100.8 40.1001 100.7C39.9001 100.7 39.7001 100.8 39.6001 101C39.6001 101.2 39.7001 101.4 39.9001 101.5Z" fill="#F59F18"/>
<path d="M40 102.7C40.7 102.8 41.3 102.7 41.9 102.4C42.1 102.3 42.1 102.1 42 101.9C41.9 101.7 41.7 101.7 41.5 101.8C41.4 101.8 41.4 101.9 41.3 101.9C41.3 101.9 41.3 101.9 41.2 101.9H41.1C41 101.9 40.8 102 40.7 102H40.6C40.7 102 40.7 102 40.6 102C40.6 102 40.6 102 40.5 102C40.4 102 40.4 102 40.3 102C40.2 102 40.2 102 40.1 102H40C39.9 102 39.8 102 39.7 102C39.6 102 39.5 102.1 39.5 102.2C39.7 102.4 39.7 102.7 40 102.7Z" fill="#F59F18"/>
<path d="M56 80.9001C56 81.1001 56 81.2001 56 81.4001C56 81.5001 56 81.6001 56 81.7001V81.8001V81.9001C55.9 82.2001 55.9 82.6001 55.8 82.9001C55.7 83.1001 55.9 83.3001 56.1 83.4001C56.3 83.4001 56.5 83.3001 56.6 83.1001C56.8 82.4001 56.9 81.7001 56.9 81.0001C56.9 80.8001 56.7 80.6001 56.5 80.6001C56.2 80.6001 56 80.7001 56 80.9001Z" fill="#F59F18"/>
<path d="M58.1 80.6C58.1 80.7 58.1 80.9 58.1 81C58.1 81.1 58.1 81.1 58.1 81.2C58.1 81.1 58.1 81.3 58.1 81.2V81.3C58.1 81.6 58 81.8 57.9 82.1C57.9 82.2 57.9 82.3 57.9 82.4C57.9 82.5 58 82.6 58.1 82.6C58.2 82.6 58.3 82.6 58.4 82.6C58.5 82.5 58.5 82.5 58.6 82.4C58.8 81.9 58.9 81.3 58.9 80.7C58.9 80.5 58.7 80.3 58.5 80.3C58.2 80.3 58 80.4 58.1 80.6Z" fill="#F59F18"/>
<path d="M59.8001 77C59.6001 77.4 59.6001 77.9 59.7001 78.4C59.7001 78.6 60.0001 78.7 60.2001 78.7C60.4001 78.6 60.5001 78.4 60.5001 78.2C60.5001 78 60.5001 77.8 60.5001 77.7V77.8C60.5001 77.6 60.6001 77.5 60.6001 77.3C60.6001 77.2 60.6001 77.1 60.6001 77C60.6001 76.9 60.5001 76.8 60.4001 76.8C60.3001 76.8 60.2001 76.8 60.1001 76.8C59.9001 76.9 59.8001 76.9 59.8001 77Z" fill="#F59F18"/>
<path d="M75.8001 40.4C75.8001 40.7 75.8001 41 75.8001 41.3C75.8001 41.4 75.8001 41.4 75.8001 41.5C75.8001 41.5 75.8001 41.5 75.8001 41.6C75.8001 41.6 75.8001 41.6 75.8001 41.7C75.8001 41.8 75.7001 42 75.7001 42.1C75.7001 42.3 75.8001 42.5 76.0001 42.6C76.2001 42.6 76.4001 42.5 76.5001 42.3C76.7001 41.7 76.7001 41.1 76.6001 40.4C76.6001 40.2 76.4001 40 76.2001 40C76.0001 40 75.8001 40.2 75.8001 40.4Z" fill="#F59F18"/>
<path d="M77.7001 40.6001C77.7001 40.9001 77.8001 41.2001 77.8001 41.5001C77.8001 41.6001 77.9001 41.7001 78.0001 41.7001C78.1001 41.7001 78.2001 41.8001 78.3001 41.7001C78.4001 41.7001 78.5001 41.6001 78.5001 41.5001C78.5001 41.4001 78.6001 41.3001 78.5001 41.2001C78.5001 40.9001 78.4001 40.6001 78.4001 40.3001C78.4001 40.2001 78.3001 40.1001 78.2001 40.1001C78.1001 40.1001 78.0001 40.0001 77.9001 40.1001C77.8001 40.1001 77.7001 40.2001 77.7001 40.3001C77.7001 40.4001 77.7001 40.5001 77.7001 40.6001Z" fill="#F59F18"/>
<path d="M37.2001 122.7C34.8001 123.6 32.0001 123.5 29.6001 122.4C27.1001 121.2 25.4001 119 23.4001 117.2C19.8001 114 15.0001 111.3 10.1001 112.9C7.8001 113.7 5.8001 115.2 5.0001 117.5C4.8001 117.9 5.6001 118.1 5.7001 117.7C6.4001 115.7 8.1001 114.3 10.1001 113.7C12.2001 112.9 14.5001 113 16.6001 113.7C19.0001 114.5 21.2001 116.1 23.0001 117.8C24.9001 119.6 26.6001 121.8 29.0001 123C31.6001 124.3 34.6001 124.4 37.3001 123.4C37.9001 123.3 37.7001 122.6 37.2001 122.7Z" fill="#7E4927"/>
<path d="M166.2 121.1C158.7 122.8 151.1 124.4 143.6 126.1C140 126.9 136.4 127.8 132.9 129C129.8 130.1 126.8 131.6 124.4 133.9C121.9 136.3 120.1 139.5 120 143C120 143.5 120.7 143.5 120.7 143C120.8 140 122.3 137.1 124.3 135C126.6 132.7 129.5 131.1 132.5 130C135.9 128.7 139.4 127.9 142.9 127.1C146.6 126.3 150.3 125.5 153.9 124.6C158 123.7 162.2 122.8 166.3 121.8C166.8 121.7 166.6 121 166.2 121.1Z" fill="black"/>
<path d="M200.5 119.8C198.7 120.3 196.9 120.7 195.1 121.2C194.9 121.2 194.8 121.4 194.8 121.6C194.9 124.6 194.9 127.6 195 130.6C195.1 132.8 195.4 135.6 197.7 136.6C198.7 137 199.9 137 200.8 136.2C201.2 135.9 200.6 135.4 200.3 135.7C199.7 136.3 198.7 136.2 198 135.9C197.1 135.5 196.5 134.7 196.2 133.7C195.9 132.6 195.8 131.4 195.8 130.3C195.8 128.9 195.7 127.6 195.7 126.2C195.7 124.7 195.6 123.1 195.6 121.6C195.5 121.7 195.4 121.8 195.3 122C197.1 121.5 198.9 121.1 200.7 120.6C201.1 120.4 200.9 119.7 200.5 119.8Z" fill="black"/>
<path d="M196.6 125.3C198.2 124.8 199.7 124.3 201.3 123.8C201.8 123.7 201.6 122.9 201.1 123.1C199.5 123.6 198 124.1 196.4 124.6C195.9 124.7 196.1 125.4 196.6 125.3Z" fill="black"/>
<path d="M111.9 131.4C111.1 132.2 110.9 133.6 111.6 134.5C111.7 134.7 111.9 134.7 112.1 134.6C112.3 134.5 112.3 134.3 112.2 134.1C112.1 134 112.1 133.9 112 133.8C112 133.7 112 133.9 112 133.8C112 133.8 112 133.8 112 133.7C112 133.6 112 133.6 112 133.5C112 133.4 112 133.4 112 133.3C112 133.2 112 133.4 112 133.3V133.2C112 133.1 112 133 112 132.9C112 132.9 112 132.9 112 132.8C112 132.7 112 132.7 112 132.6C112 132.5 112 132.5 112 132.4V132.3C112 132.3 112 132.3 112 132.2C112 132.1 112.1 132 112.2 131.9C112.2 131.9 112.2 131.9 112.3 131.8L112.4 131.7C112.5 131.6 112.5 131.3 112.4 131.2C112.3 131.2 112.1 131.2 111.9 131.4Z" fill="black"/>
<path d="M114.2 131.7C113.8 132.3 114 133.3 114.7 133.6C114.9 133.7 115.1 133.6 115.2 133.5C115.3 133.3 115.2 133.1 115.1 133C115.1 133 115 133 115 132.9C114.9 132.8 114.9 132.8 114.9 132.8C114.9 132.7 114.8 132.7 114.8 132.6C114.8 132.5 114.8 132.5 114.8 132.5V132.4C114.8 132.5 114.8 132.5 114.8 132.4C114.8 132.3 114.8 132.3 114.8 132.3V132.2C114.8 132.2 114.8 132.2 114.8 132.1V132C114.8 131.9 114.9 131.9 114.9 131.9C115 131.7 114.9 131.5 114.8 131.4C114.5 131.5 114.3 131.6 114.2 131.7Z" fill="black"/>
<path d="M125 141.4C124.6 142.4 124.6 143.5 125.1 144.4C125.2 144.6 125.4 144.6 125.6 144.5C125.8 144.4 125.8 144.2 125.7 144C125.3 143.3 125.3 142.4 125.6 141.7C125.7 141.5 125.7 141.3 125.5 141.2C125.3 141.1 125.1 141.2 125 141.4Z" fill="black"/>
<path d="M127.9 142.4C127.9 142.5 127.9 142.5 127.9 142.6C127.9 142.7 127.9 142.7 127.9 142.8C127.9 142.9 128 143 128.1 143C128.2 143.1 128.3 143.1 128.4 143.2C128.5 143.2 128.5 143.2 128.6 143.2C128.7 143.2 128.7 143.2 128.8 143.2C128.9 143.2 128.9 143.2 129 143.1L129.1 143L129.2 142.9V142.8C129.2 142.7 129.2 142.6 129.1 142.5C129 142.4 128.9 142.4 128.8 142.4C128.7 142.4 128.6 142.4 128.5 142.5C128.5 142.5 128.6 142.5 128.6 142.4C128.6 142.4 128.6 142.4 128.5 142.4H128.6C128.6 142.4 128.6 142.4 128.5 142.4H128.6C128.6 142.4 128.5 142.4 128.5 142.3C128.5 142.3 128.6 142.3 128.6 142.4C128.6 142.4 128.6 142.4 128.5 142.3C128.5 142.3 128.5 142.4 128.6 142.4C128.6 142.4 128.6 142.4 128.6 142.3V142.4C128.6 142.4 128.6 142.4 128.6 142.3V142.4C128.6 142.4 128.6 142.4 128.6 142.3V142.4C128.6 142.3 128.6 142.2 128.6 142.1C128.6 142 128.5 141.9 128.4 141.9C128.3 141.9 128.2 141.9 128.1 141.9C128 142.2 127.9 142.3 127.9 142.4Z" fill="black"/>
<path d="M160.1 108.9C161.6 110.7 163.3 112.3 165.3 113.5C167.4 114.8 169.7 115.4 172.1 115.5C174.7 115.6 177.2 115.3 179.8 115.4C181.1 115.4 182.4 115.6 183.6 116C184.9 116.4 186 116.9 187.3 117.1C190.3 117.6 193.2 116.5 196 115.4C196.4 115.2 196.2 114.5 195.8 114.7C193.4 115.6 190.9 116.6 188.3 116.5C187 116.4 185.8 116 184.5 115.5C183.3 115.1 182.1 114.9 180.9 114.8C178.4 114.6 175.9 114.9 173.4 114.9C171 114.9 168.6 114.6 166.4 113.4C164.1 112.2 162.2 110.4 160.6 108.5C160.3 108 159.8 108.5 160.1 108.9Z" fill="white"/>
</g>
<defs>
<clipPath id="clip0_211_2720">
<rect width="202.6" height="154.5" fill="white"/>
</clipPath>
</defs>
</svg>
