<svg width="210" height="227" viewBox="0 0 210 227" fill="none" xmlns="http://www.w3.org/2000/svg">
<path d="M94.4779 88.9874C91.0819 82.9791 70.4445 61.8192 66.526 57.6395C62.0851 52.9373 55.5542 50.5862 49.2846 50.5862C43.015 50.5862 38.0516 53.721 37.7904 59.9905C37.5292 64.6927 39.0966 70.4399 41.9701 74.6196C50.8521 86.8976 69.3996 104.4 81.4163 112.76L122.169 130.523L126.348 108.58L94.4779 88.9874Z" fill="#DADADA"/>
<path d="M91.0815 225.874H3.82966C3.56843 217.514 4.61334 128.434 4.87458 87.9425C4.87458 76.4482 5.13583 68.8725 5.13583 68.35L38.0512 49.28C47.4556 52.9373 72.0115 62.0804 73.5789 63.6478C86.9018 75.4033 91.0815 208.11 91.0815 225.874Z" fill="#EDEDED"/>
<path opacity="0.15" d="M45.1045 199.489L50.3291 225.873H3.82966C3.56843 217.514 4.61334 128.434 4.87458 87.9424L15.5851 90.816L64.1745 170.753L45.1045 199.489Z" fill="#1D1D1B"/>
<path d="M68.877 28.3813C69.6607 28.3813 70.4444 28.6426 70.9668 29.4263H75.669V33.0835H70.9668C70.4444 33.606 69.6607 34.1285 68.877 34.1285C67.3096 34.1285 66.0034 32.8223 66.0034 31.2549C66.0034 29.6875 67.3096 28.3813 68.877 28.3813Z" fill="#485678"/>
<path d="M82.7224 15.5809C82.9837 14.0135 82.9837 12.4461 83.2449 10.6175C83.5061 9.05007 83.5061 7.74391 84.0286 6.17651C88.992 9.05008 92.1268 14.7972 91.3431 20.5443C91.0819 23.9404 89.5145 27.3364 90.8207 30.4712C88.4696 29.4262 85.8573 28.3813 84.2899 26.2914C83.2449 24.7241 82.7225 22.8954 82.4612 21.0668C82.2 19.4994 82.4612 17.6707 82.7224 15.5809Z" fill="#1D1D1B"/>
<path d="M38.835 46.6677L31.7817 52.9373L34.6553 72.2685L43.276 71.4849L36.4839 76.4483L68.0932 113.282C56.3377 95.5183 47.1945 72.2686 38.835 46.6677Z" fill="#DADADA"/>
<path d="M67.5709 69.6562L75.4078 67.5664L70.9669 48.4964C70.9669 48.4964 62.8687 45.1003 62.6074 45.1003C64.1748 66.5215 64.4361 86.8976 62.3462 104.661L63.9136 106.49L75.1466 72.0074L67.5709 69.6562Z" fill="#DADADA"/>
<path d="M40.9248 57.9007L55.0314 90.0323L63.1296 106.751L66.0032 53.7209C65.2195 71.4848 48.7618 68.8724 40.9248 57.9007Z" fill="#488399"/>
<path d="M38.0513 49.28L44.3208 25.769C55.0314 27.0752 65.4807 28.1201 68.0931 27.8589C68.0931 27.8589 66.5257 46.1452 66.5257 53.9822C68.6155 72.0073 40.1411 70.1787 38.0513 49.28Z" fill="#FFCFA1"/>
<path d="M142.022 209.677C142.806 211.506 144.112 214.118 145.418 216.73C146.202 218.298 146.986 219.865 147.508 220.649C148.031 222.739 149.337 225.351 152.211 225.351L158.48 225.612C163.444 225.612 162.66 223 161.092 221.171C159.525 219.343 155.607 219.081 154.823 217.514L152.994 214.64L152.211 213.334C151.166 210.983 150.643 208.371 151.166 205.759L152.733 200.795C154.3 195.57 144.112 191.129 142.284 198.966L142.022 209.677Z" fill="#1D1D1B"/>
<path d="M145.418 216.469C146.202 218.037 146.986 219.604 147.508 220.388C148.031 222.478 149.337 225.09 152.211 225.09L158.48 225.351C163.444 225.351 162.66 222.739 161.092 220.91C159.525 219.081 155.607 218.82 154.823 217.253L152.994 214.379C152.733 214.118 152.472 214.118 152.211 214.379C151.427 214.641 151.688 216.469 150.904 216.469C150.643 215.424 149.337 214.379 148.292 214.379C148.292 215.163 148.031 215.947 148.031 216.73C146.986 216.208 146.202 216.208 145.418 216.469Z" fill="#945900"/>
<path d="M40.4028 218.037C40.4028 218.298 40.4028 218.298 40.4028 218.298C40.4028 218.559 40.4028 218.82 40.6641 219.082C41.1865 221.171 42.4927 225.612 45.6275 225.612L50.5909 225.874C55.0319 225.874 54.5094 223 52.942 221.171C51.8971 219.604 49.546 219.082 48.2398 218.298C47.7174 218.037 47.4561 217.775 47.1949 217.253L40.4028 218.037Z" fill="#1D1D1B"/>
<path d="M39.0967 201.579V202.101L39.6191 212.289C39.6191 212.289 56.3381 207.848 66.7874 198.967C71.2284 195.048 74.8856 190.607 75.1468 185.121L68.616 168.664H63.1301L56.8605 168.402C54.7707 168.402 52.6808 168.664 51.1134 168.925C47.4562 172.321 45.8887 177.807 45.6275 186.166L45.3663 190.085L45.105 195.309L44.8438 198.183L39.0967 201.579Z" fill="#1D1D1B"/>
<path d="M39.0967 202.885C39.3579 207.587 39.3579 212.551 39.8804 216.208C39.8804 216.73 40.1416 217.253 40.1416 218.037V218.298C40.1416 218.559 40.1416 218.82 40.4028 219.082L47.9786 223V218.037V215.163L48.2398 201.318L39.0967 202.885Z" fill="#1D1D1B"/>
<path d="M27.3408 218.037C27.3408 218.037 28.1245 225.612 32.5655 225.612L37.5289 225.874C41.9699 225.874 41.4474 223 39.88 221.171C38.8351 219.865 37.0065 219.343 35.4391 218.559C34.9166 218.298 34.3941 217.775 34.1329 217.253L27.3408 218.037Z" fill="#3C3C3B"/>
<path d="M41.9702 195.309L44.8438 195.832H45.105L48.2398 196.354L58.9504 197.922L64.4362 198.705L66.7874 198.967L108.846 205.497C111.197 205.759 113.809 206.02 116.16 206.281L145.418 207.587C145.68 207.587 145.68 207.587 145.941 207.587C149.337 207.587 152.733 206.804 155.607 204.714C157.435 203.669 159.003 202.363 160.57 200.795C163.705 197.922 166.578 194.526 168.668 190.346C169.452 188.778 169.974 186.95 169.713 185.121L168.929 175.978L168.407 170.492C168.668 169.97 168.929 169.186 168.929 168.663C170.236 165.529 171.542 162.655 171.542 155.602V155.341V154.557C171.542 154.296 171.542 154.034 171.542 153.773C177.289 154.034 178.334 155.079 183.82 152.99C185.91 152.99 187.738 153.251 189.306 153.251C197.665 153.512 202.106 152.728 206.286 147.765C206.547 147.504 206.808 147.242 207.069 146.981C207.331 146.72 207.592 146.459 207.592 146.198C207.853 145.936 208.114 145.414 208.376 145.153C208.898 144.369 208.637 143.063 207.853 142.54C207.069 141.756 206.025 140.973 204.98 140.45C201.061 138.099 196.098 136.793 190.351 135.748C186.432 135.226 184.081 134.181 180.946 131.568L179.379 129.74C177.811 128.434 173.37 127.127 171.542 126.866L162.399 125.821C157.958 125.299 154.823 126.083 149.337 130.785C148.814 131.307 148.292 131.568 148.031 132.091C145.418 143.063 142.806 155.341 139.933 161.61C139.671 162.133 139.41 162.655 139.149 163.178L115.899 168.402L67.8323 169.186H62.6076H59.734L44.5825 190.607L41.9702 195.309Z" fill="#3C3C3B"/>
<path d="M35.4395 199.489C36.7456 200.534 37.7905 201.579 39.0967 202.101C40.4029 202.885 41.709 203.408 42.7539 203.93C45.6275 204.975 48.7623 205.236 51.6359 204.714C55.5544 203.93 59.7341 202.101 64.1751 198.705C66.0037 197.399 68.0936 195.571 69.9222 193.742C70.1834 193.481 70.1834 193.481 70.4447 193.22L62.8689 168.925L56.5993 168.664C54.5094 168.664 52.4196 168.925 50.8522 169.186C44.0601 170.753 40.6641 176.239 38.313 186.95L35.4395 198.444V199.489Z" fill="#3C3C3B"/>
<path d="M28.1245 211.767L35.9615 209.416L37.2677 209.155L51.8967 204.975L50.5905 201.84L48.2394 196.354L47.4557 195.048L44.8434 195.832L35.7003 198.967L29.6919 200.795L29.4307 202.101L28.1245 211.767Z" fill="#3C3C3B"/>
<path d="M27.3408 218.037L34.6554 223.522L35.4391 218.298L36.484 213.334L37.0064 210.461L37.2677 209.155L37.5289 207.587L38.5738 202.101H29.4307L28.1245 211.767V213.073L27.3408 218.037Z" fill="#3C3C3B"/>
<path d="M58.689 169.186C58.4278 171.798 58.1665 174.672 57.9053 177.284C53.4643 176.762 49.0234 176.501 44.8436 178.329C39.8802 180.419 37.5291 185.644 34.9168 189.823C28.9084 198.705 21.3326 206.02 11.4058 210.2C9.8384 210.722 8.27101 211.245 6.44238 211.767C10.3609 209.938 14.2794 207.849 17.6754 204.975C21.8551 201.579 24.9899 197.66 27.8635 193.22C30.737 188.517 32.8269 183.554 35.4393 178.852C38.0516 174.149 42.7538 171.537 47.9784 169.97C51.3744 169.186 55.0317 169.186 58.689 169.186Z" fill="#3C3C3B"/>
<path d="M166.839 142.279C166.578 143.324 167.623 143.846 168.668 144.108C169.452 144.369 170.497 144.63 171.019 145.414C171.803 146.459 171.019 147.765 170.758 148.81C170.235 151.161 170.758 153.773 172.064 155.863V155.602C172.064 155.341 172.064 155.341 172.064 155.08V154.818C172.064 154.557 172.064 154.296 172.064 154.035C177.811 154.296 178.856 155.08 183.82 153.512C184.081 153.512 184.081 153.512 184.342 153.251C186.954 153.251 189.305 153.512 191.134 153.512C198.449 153.512 202.89 152.728 206.547 148.026C205.502 147.765 204.718 147.242 203.935 146.459C202.628 145.414 201.322 144.108 199.494 143.324C197.404 142.54 194.791 142.802 192.963 144.108C193.224 144.63 193.485 145.414 193.485 146.198C190.873 146.459 188.261 145.153 185.909 144.108C184.342 143.585 182.775 143.063 180.946 143.324C179.379 143.585 178.072 144.369 176.505 144.891C174.938 145.414 173.109 145.414 172.064 144.369C171.542 143.585 171.28 142.802 170.758 142.018C170.497 141.234 169.713 140.45 168.668 140.189C168.146 140.189 167.623 140.45 167.101 140.712C167.362 141.234 166.839 141.757 166.839 142.279Z" fill="#C77800"/>
<path d="M177.386 129.7C176.403 129.932 175.741 130.689 175.906 131.391C176.072 132.093 177.003 132.474 177.986 132.242C178.969 132.011 179.631 131.254 179.466 130.551C179.3 129.849 178.369 129.468 177.386 129.7Z" fill="#C77800"/>
<path d="M146.202 207.848C149.598 207.848 152.994 207.065 155.868 204.975C161.092 201.318 165.795 196.877 168.929 190.868C169.713 189.301 170.236 187.472 169.974 185.644L169.191 176.5C168.668 178.59 168.668 180.941 168.407 183.031C168.146 185.644 167.362 188.517 165.272 189.823C165.011 189.823 165.011 190.085 164.75 190.085C164.488 190.085 164.227 189.823 163.966 189.823C162.921 189.301 162.137 188.517 161.092 187.995C160.831 190.607 160.57 193.481 158.741 195.048C157.174 196.354 154.3 196.877 153.778 198.967C153.517 199.75 153.517 200.534 153.255 201.056C152.733 202.885 150.643 203.408 149.076 204.452C147.77 204.975 146.725 206.281 146.202 207.848Z" fill="#C77800"/>
<path d="M40.1416 216.469C40.1416 216.992 40.4029 217.514 40.4029 218.298V218.559C40.4029 218.82 40.4029 219.082 40.6641 219.343C41.1866 221.433 42.4927 225.874 45.6275 225.874L50.5909 226.135C55.0319 226.135 54.5094 223.261 52.942 221.433C51.8971 219.865 49.546 219.343 48.2398 218.559V215.685C47.7174 216.208 47.1949 216.73 46.6724 217.253C46.15 216.469 45.6275 215.424 45.3663 214.379C44.8438 214.118 44.3213 214.641 44.0601 215.163C43.7989 215.686 43.5377 216.208 43.2764 216.73C42.2315 216.73 40.9253 216.73 40.1416 216.469Z" fill="#945900"/>
<path d="M27.3408 218.036C27.3408 218.036 28.1245 225.612 32.5655 225.612L37.5289 225.873C41.9699 225.873 41.4474 223 39.88 221.171C38.8351 219.865 37.0065 219.343 35.4391 218.559L37.0064 210.722C35.9615 211.767 35.1778 212.812 34.1329 214.118C33.8717 214.64 33.3492 214.902 32.8267 215.163C32.3043 215.424 31.5206 215.163 31.5206 214.64C30.9981 215.424 30.7369 216.208 30.2144 216.992C29.9532 216.992 29.6919 216.992 29.6919 216.992C29.1694 215.685 28.647 214.64 28.1245 213.334L27.3408 218.036Z" fill="#C77800"/>
<path d="M184.342 134.964C183.297 134.442 182.252 133.658 181.468 132.875C181.468 132.613 181.207 132.613 181.207 132.613C180.946 132.352 180.423 132.613 179.901 132.613C178.334 133.397 176.766 133.92 174.937 134.703C174.676 134.703 174.415 134.965 174.415 135.487L174.676 135.748C174.937 136.009 175.46 136.271 175.721 136.271C177.027 137.054 178.595 137.838 180.162 137.577C180.423 137.577 180.946 137.316 181.207 137.054C181.991 136.532 183.036 136.271 183.819 135.748C184.081 135.487 184.603 135.226 184.342 134.964Z" fill="#C77800"/>
<path d="M206.547 145.153L208.637 145.936C208.898 145.675 209.159 145.153 209.42 144.891C209.943 144.108 209.682 142.802 208.898 142.279C208.114 141.495 207.069 140.712 206.024 140.189L205.502 141.757C204.979 143.063 205.241 144.369 206.547 145.153Z" fill="#1D1D1B"/>
<path d="M175.199 152.206C175.721 152.728 176.505 152.728 177.289 152.728C178.073 152.728 178.595 152.206 179.379 152.206C181.207 151.945 182.775 152.728 184.342 153.251C184.603 153.251 184.603 153.251 184.865 152.989C187.477 152.989 189.828 153.251 191.657 153.251C189.044 152.989 186.171 152.467 183.558 151.683C182.775 151.422 181.73 151.161 180.946 150.9C179.379 150.377 177.811 150.116 175.983 150.116C175.721 150.116 175.46 150.116 175.199 150.116C174.677 150.638 174.677 151.683 175.199 152.206Z" fill="#3C3C3B"/>
<path d="M177.027 135.748C179.117 137.838 181.73 136.532 181.207 133.136L178.334 134.181L177.027 135.748Z" fill="#1D1D1B"/>
<path d="M181.207 134.181V134.442C181.207 134.442 181.207 134.703 181.207 134.964C181.207 135.226 181.207 135.226 180.946 135.487C180.946 135.748 180.685 135.748 180.685 136.009C180.685 136.271 180.423 136.271 180.423 136.532L180.162 136.793H179.901C179.64 136.793 179.64 137.054 179.378 137.054C179.117 137.054 179.117 137.054 178.856 137.054C178.595 137.054 178.595 137.054 178.334 137.054C178.072 137.054 178.072 137.054 177.811 136.793C177.55 136.793 177.55 136.532 177.55 136.532L177.289 136.271C177.027 136.271 177.027 136.009 177.027 136.009C177.027 136.009 177.027 136.009 177.289 136.271L177.55 136.532L177.811 136.793C178.072 136.793 178.072 137.054 178.334 137.054C178.595 137.054 178.595 137.054 178.856 137.315C179.117 137.315 179.378 137.315 179.378 137.315C179.64 137.315 179.901 137.315 179.901 137.054L180.162 136.793L180.423 136.532C180.685 136.271 180.685 136.271 180.946 136.009C180.946 135.748 181.207 135.748 181.207 135.487C181.207 135.226 181.207 135.226 181.207 134.964C181.207 134.703 181.207 134.703 181.207 134.442C181.207 134.181 181.207 134.181 181.207 134.181Z" fill="#575756"/>
<path d="M181.73 133.136C181.73 133.136 181.73 133.136 181.468 133.136C181.207 133.136 180.946 133.136 180.685 133.136C180.423 133.136 180.423 133.136 180.162 133.136C179.901 133.136 179.901 133.136 179.64 133.397C179.378 133.397 179.378 133.397 179.117 133.658C178.856 133.658 178.856 133.919 178.595 133.919C178.333 133.919 178.333 134.181 178.072 134.181C177.811 134.181 177.811 134.442 177.55 134.442C177.289 134.703 177.027 134.964 176.766 135.226C176.505 135.487 176.505 135.748 176.505 135.748C176.505 136.009 176.505 136.009 176.505 136.009C176.505 136.009 176.505 136.009 176.766 135.748C177.027 135.748 177.027 135.487 177.289 135.226L177.55 134.964C177.55 134.964 177.811 134.703 178.072 134.703C178.333 134.442 178.595 134.181 178.856 134.181C179.117 133.919 179.378 133.919 179.901 133.658C180.162 133.658 180.162 133.397 180.423 133.397C180.685 133.397 180.685 133.397 180.946 133.136C180.946 133.397 181.207 133.397 181.73 133.136Z" fill="#575756"/>
<path d="M180.837 134.081C180.698 134.043 180.493 134.351 180.38 134.769C180.267 135.187 180.289 135.556 180.428 135.594C180.567 135.631 180.772 135.323 180.885 134.905C180.998 134.488 180.977 134.118 180.837 134.081Z" fill="#F6F6F6"/>
<path opacity="0.3" d="M35.1778 213.334C35.7003 213.334 35.9615 213.334 36.484 213.334L37.0064 210.461L37.2677 209.155L51.8967 204.975C55.8152 204.191 59.9949 202.363 64.4359 198.967L66.787 199.228L108.846 205.759C111.197 206.02 113.809 206.281 116.16 206.542L145.418 207.849C145.679 207.849 145.679 207.849 145.941 207.849C149.337 207.849 152.733 207.065 155.606 204.975C157.435 203.93 159.002 202.624 160.57 201.057C157.957 201.057 155.084 201.057 152.471 201.057C147.769 201.057 142.806 201.057 138.365 199.489C133.924 197.922 129.483 194.787 128.177 190.346C127.654 188.779 127.393 186.689 126.348 185.383C126.087 190.085 123.213 194.526 119.034 196.616C115.638 198.444 111.458 198.444 107.801 198.444C98.6575 198.444 89.2531 198.183 80.1099 197.66C78.2813 197.66 76.4527 197.399 74.624 196.877C73.0566 196.354 71.4892 195.309 70.183 194.003C68.8769 192.697 68.0932 191.13 67.5707 189.562C65.2196 192.958 62.3461 196.093 58.95 198.183C56.5989 199.75 53.9866 201.057 51.3743 201.84C51.113 201.84 50.8518 202.101 50.5906 202.101C47.9782 202.885 45.3659 203.408 43.0148 204.191C42.4923 204.453 41.7087 204.714 41.1862 204.975C39.88 205.498 38.5738 206.542 37.5289 207.587C37.0064 208.11 36.484 208.893 36.2227 209.416C35.439 210.722 34.9166 212.028 35.1778 213.334Z" fill="#1D1D1B"/>
<path d="M136.537 206.281C136.798 209.155 137.843 215.163 138.365 217.775C138.626 218.559 138.626 219.343 138.626 219.343C138.888 221.433 139.933 225.09 143.59 225.09L149.859 225.351C154.823 225.351 154.039 222.739 152.472 220.91C150.904 219.082 146.986 218.82 146.202 217.253L145.68 215.424L145.157 212.812C144.896 210.461 145.157 207.587 146.463 205.236L149.598 201.057C152.733 196.616 144.374 189.301 140.455 196.093L136.537 206.281Z" fill="#3C3C3B"/>
<path d="M138.365 217.775C138.626 218.559 138.626 219.343 138.626 219.343C138.888 221.433 139.933 225.09 143.59 225.09L149.859 225.351C154.823 225.351 154.039 222.739 152.472 220.91C150.904 219.082 146.986 218.82 146.202 217.253L145.68 215.424C145.419 215.424 145.157 215.686 144.896 215.424C144.896 214.379 144.374 213.596 143.329 212.812C143.067 213.596 142.545 214.641 142.284 215.424C141.761 214.379 141.239 213.334 140.716 212.29C140.455 213.857 140.194 215.686 139.933 217.253C139.41 217.514 138.888 217.514 138.365 217.775Z" fill="#C77800"/>
<path opacity="0.3" d="M120.601 179.635C117.989 181.725 115.638 184.338 113.809 187.472C113.548 184.86 114.593 182.509 115.899 180.158C119.818 172.843 127.132 166.835 135.492 166.312C130.267 169.186 127.916 175.456 126.087 181.464C126.349 179.897 124.781 178.59 123.214 178.59C122.43 178.329 121.385 178.852 120.601 179.635Z" fill="#1D1D1B"/>
<path opacity="0.3" d="M166.578 143.063C166.578 143.324 166.839 144.369 166.839 144.63C168.929 148.81 168.407 153.773 168.407 158.475C168.407 161.871 168.407 165.529 169.452 168.664C170.758 165.529 172.064 162.655 172.064 155.602V155.341V154.557C172.064 154.296 172.064 154.035 172.064 153.773C177.811 154.035 178.856 155.079 184.342 152.99C186.432 152.99 188.26 153.251 189.828 153.251C187.477 152.206 184.864 151.422 182.513 150.377C179.379 149.071 173.631 149.855 171.803 147.242C171.019 146.459 171.542 146.198 170.758 145.414C169.974 144.369 168.929 144.369 167.884 144.108C166.839 143.846 166.839 141.757 166.578 143.063Z" fill="#1D1D1B"/>
<path opacity="0.3" d="M140.716 161.61C142.806 161.088 145.157 160.304 147.247 160.565C149.076 160.826 150.643 161.61 152.472 162.394C155.607 163.439 159.786 163.439 161.876 160.826C163.444 158.737 163.182 155.602 162.66 153.251C161.093 146.72 158.219 140.189 159.003 133.658C159.003 133.136 159.003 132.613 158.741 132.352C158.48 132.091 158.219 132.091 158.219 132.091C156.913 131.83 155.345 131.568 154.039 131.307C152.994 131.046 151.688 131.046 150.643 130.785C150.121 131.307 149.598 131.568 149.337 132.091C146.202 143.063 143.851 155.341 140.716 161.61Z" fill="#1D1D1B"/>
<path d="M148.031 132.352C145.157 134.703 141.239 145.153 142.022 148.549C143.851 155.08 145.418 156.908 151.166 160.043C154.3 161.872 158.48 161.349 161.092 158.737C161.092 158.737 164.75 153.773 162.137 146.459C160.048 141.234 159.003 137.054 159.786 127.911C159.264 123.209 148.031 132.352 148.031 132.352Z" fill="#1D1D1B"/>
<path opacity="0.3" d="M71.2282 173.104C69.1383 175.717 65.2198 176.762 62.3462 175.194C61.8237 176.239 62.6075 177.545 62.8687 178.59C63.6524 180.941 62.8687 183.815 61.5625 185.905C60.2564 188.256 58.689 190.085 57.644 192.436C64.4361 188.256 69.3995 180.941 71.2282 173.104Z" fill="#1D1D1B"/>
<path d="M81.4161 34.9122C79.5875 32.2998 76.7139 30.7324 73.8403 30.7324V32.8223C76.1914 32.8223 78.5425 34.1285 80.1099 36.2183C81.6773 38.5694 82.1998 41.443 81.9385 44.3165L80.8936 52.4148C78.8038 62.0804 76.1914 68.8724 72.5342 72.2685V74.8808C76.9751 71.4848 80.3712 64.1702 82.7223 52.9372L83.7672 44.5778C84.0284 41.1818 83.2447 37.7857 81.4161 34.9122Z" fill="#9D9D9C"/>
<path opacity="0.1" d="M51.8966 48.4963C49.5455 55.5496 49.2843 61.2968 53.7253 66.2602C58.1662 70.9624 66.2645 68.6113 70.7054 64.6928L51.8966 48.4963Z" fill="#1D1D1B"/>
<path d="M41.4473 32.561C40.6636 27.3363 41.1861 24.9853 42.4923 19.7606C49.2843 -4.27284 62.346 2.51923 71.2279 4.87033C81.6772 8.00513 91.8653 15.3196 86.3794 33.606C85.3345 35.1734 84.5508 36.2183 84.5508 36.2183L86.1182 44.0553C86.3794 45.6227 85.3345 48.4962 81.6772 48.7575L79.3261 55.5495C76.975 62.0803 71.2279 66.5213 66.0032 64.6927C53.9865 58.6843 49.0231 51.3698 53.464 38.0469C49.8068 36.7407 41.9698 36.4795 41.4473 32.561Z" fill="#FFCFA1"/>
<path d="M82.7225 5.65407C41.7089 -12.371 35.7005 16.6259 38.0516 43.0104C41.1864 44.5778 44.06 44.839 46.4111 43.2716C50.852 40.3981 52.1582 30.7325 52.1582 30.7325C52.1582 30.7325 59.734 33.3448 62.0851 33.8672C62.8688 31.2549 64.6974 24.2017 65.2198 21.8506C68.0934 16.3647 75.4079 14.536 87.4247 22.373C88.7308 20.8056 89.2533 19.2382 89.5145 17.4096C89.5145 16.6259 89.5145 15.8422 89.5145 15.0585C89.2533 11.14 86.6409 7.22147 82.7225 5.65407Z" fill="#1D1D1B"/>
<path d="M49.2845 30.21C48.2396 33.8672 50.5907 39.0919 52.9418 39.8756C55.2929 40.398 56.3378 37.2633 57.3827 33.606C57.9052 30.9937 58.9501 27.5976 56.599 26.2915C54.5092 24.9853 50.8519 24.7241 49.2845 30.21Z" fill="#FFD2A1"/>
<path d="M53.9866 74.0971C49.2844 71.4848 45.6272 64.4315 43.2761 52.676L42.2312 44.3165C41.7087 41.443 42.4924 38.5694 44.0598 36.2183C45.6272 33.8672 47.9783 32.8223 50.3294 32.8223V30.7324C47.4558 30.7324 44.5822 32.2998 42.7536 34.9122C40.925 37.5245 40.1413 41.1817 40.6638 44.839L41.7087 53.1985C44.321 66.2601 48.5008 74.0971 54.2479 76.4482V74.0971H53.9866Z" fill="#9D9D9C"/>
<path d="M53.2031 29.6875C52.6807 29.6875 52.1582 29.9487 51.897 30.4712H49.0234V33.3447H51.897C52.1582 33.8672 52.6807 34.1285 53.2031 34.1285C54.2481 34.1285 55.0318 33.0835 55.0318 32.0386C55.0318 30.7324 54.2481 29.6875 53.2031 29.6875Z" fill="#A63F43"/>
<path d="M103.621 174.411C95.2615 173.366 84.8122 169.186 80.6325 159.782C79.3263 157.169 78.8039 154.557 78.2814 151.945C77.7589 150.116 77.4977 148.026 76.714 146.198C75.4078 142.54 73.318 139.144 70.9669 135.748C68.6158 132.352 66.2647 128.695 64.9585 124.515C63.1299 119.552 63.1299 114.327 62.8687 109.102L62.085 89.7712H64.6973L65.481 109.102C65.7422 114.066 65.7422 119.029 67.5708 123.732C68.877 127.389 70.9669 130.785 73.318 134.181C75.6691 137.577 77.7589 141.234 79.3263 145.153C80.11 147.242 80.6325 149.071 80.8937 151.161C81.4162 153.773 82.1999 156.386 83.2448 158.476C87.1633 166.835 96.5677 170.753 104.143 171.537L103.621 174.411Z" fill="#A63F43"/>
<path d="M63.3912 92.6447C58.689 92.6447 56.3379 83.2403 56.3379 76.4482H58.9502C58.9502 84.024 61.8238 90.0323 63.3912 90.0323C65.2198 90.0323 67.8321 82.9791 67.8321 75.4033H70.4445C70.4445 82.4566 68.0934 92.6447 63.3912 92.6447Z" fill="#A63F43"/>
<path d="M62.0846 78.5382C57.3824 78.5382 52.6802 76.9708 50.0679 74.3584L51.8965 72.5298C54.5088 75.1421 59.7335 76.4483 64.6969 75.6646C68.8767 75.1421 72.2727 73.0523 74.1013 69.9175L76.4524 71.2236C74.3626 75.1421 70.1828 77.4932 65.2194 78.2769C64.1745 78.2769 63.1295 78.5382 62.0846 78.5382Z" fill="#A63F43"/>
<path d="M110.936 165.79C110.674 165.268 109.891 165.268 109.368 165.268C108.846 165.268 108.323 165.529 107.801 165.79C106.756 166.051 105.45 165.79 104.143 165.529C103.099 165.006 101.27 164.745 100.225 164.484C98.1351 163.7 96.3065 163.7 94.2166 163.439C93.1717 163.178 88.4695 163.7 87.4246 164.223C86.3796 164.745 89.2532 165.006 89.2532 166.051C89.2532 167.88 90.8206 169.186 92.388 169.709C93.9554 170.231 95.784 170.231 97.6126 170.492C99.18 170.753 101.009 171.537 102.576 171.015C103.099 171.015 103.621 170.753 104.405 170.492C104.927 170.492 105.45 170.492 106.233 170.231C107.801 169.97 109.368 169.186 110.413 168.141C111.197 167.619 111.719 166.574 110.936 165.79Z" fill="#E3BB8F"/>
<path d="M107.664 174.51L109.416 171.005L101.939 167.268L100.187 170.773L107.664 174.51Z" fill="#DCD9C8"/>
<path d="M113.025 183.031C117.354 183.031 120.862 179.523 120.862 175.194C120.862 170.866 117.354 167.357 113.025 167.357C108.697 167.357 105.188 170.866 105.188 175.194C105.188 179.523 108.697 183.031 113.025 183.031Z" fill="#F1EEDB"/>
<path d="M113.025 179.635C115.478 179.635 117.466 177.647 117.466 175.194C117.466 172.742 115.478 170.753 113.025 170.753C110.573 170.753 108.584 172.742 108.584 175.194C108.584 177.647 110.573 179.635 113.025 179.635Z" fill="#DCD9C8"/>
<path opacity="0.1" d="M111.458 182.77C107.801 179.897 106.756 174.933 108.846 170.753C109.368 169.447 110.152 168.664 111.197 167.619C109.629 168.141 108.323 168.925 107.278 169.97L102.054 167.357L100.486 170.753L105.711 173.366C104.927 176.762 106.495 180.419 109.891 181.986C110.152 182.248 110.936 182.509 111.458 182.77Z" fill="#1D1D1B"/>
<path d="M107.664 174.51L109.416 171.005L101.939 167.268L100.187 170.773L107.664 174.51Z" fill="#DCD9C8"/>
<path d="M113.025 183.031C117.354 183.031 120.862 179.523 120.862 175.194C120.862 170.866 117.354 167.357 113.025 167.357C108.697 167.357 105.188 170.866 105.188 175.194C105.188 179.523 108.697 183.031 113.025 183.031Z" fill="#9D9D9C"/>
<path d="M113.025 179.635C115.478 179.635 117.466 177.647 117.466 175.194C117.466 172.742 115.478 170.753 113.025 170.753C110.573 170.753 108.584 172.742 108.584 175.194C108.584 177.647 110.573 179.635 113.025 179.635Z" fill="#575756"/>
<path opacity="0.1" d="M111.458 182.77C107.801 179.897 106.756 174.933 108.846 170.753C109.368 169.447 110.152 168.664 111.197 167.619C109.629 168.141 108.323 168.925 107.278 169.97L102.054 167.357L100.486 170.753L105.711 173.366C104.927 176.762 106.495 180.419 109.891 181.986C110.152 182.248 110.936 182.509 111.458 182.77Z" fill="#1D1D1B"/>
<path d="M107.017 176.239C107.278 176.501 107.539 176.501 107.801 176.762C116.421 184.338 116.683 178.59 114.593 177.023C114.593 176.762 103.621 167.357 102.315 166.312L102.054 166.051C101.27 165.529 100.486 165.006 99.7025 164.745H99.4412C99.18 164.745 99.18 164.745 98.9187 164.745C97.3513 164.484 95.784 164.223 93.9553 163.961C93.6941 163.961 93.6941 163.961 93.4329 163.961C92.9104 163.961 92.3879 163.7 92.1267 163.7C90.5593 163.439 88.7307 163.439 87.1633 163.961H86.9021C85.3347 164.484 84.0285 165.79 82.4611 166.574C80.8937 167.357 79.0651 167.096 76.9752 166.312H76.7139C75.669 166.051 74.6241 165.529 73.5791 165.006L73.3179 164.745C72.0118 166.835 70.4444 170.492 69.1382 173.105C68.3545 174.411 68.0933 175.717 67.832 175.978V176.239C67.832 176.239 69.3994 177.284 72.273 178.852C75.669 180.942 80.6324 183.815 85.8571 186.689C87.947 187.995 96.5677 188.256 97.8738 188.517C98.3963 188.517 98.9188 188.779 99.4412 188.517C99.7025 188.517 99.9637 188.517 100.225 188.517C100.486 188.256 100.747 188.256 101.009 188.256C102.315 187.472 102.576 186.166 102.054 185.383C105.45 186.427 106.233 182.248 105.188 181.464C105.188 181.464 104.927 181.464 104.927 181.203C104.927 181.203 105.188 181.203 105.188 181.464C108.062 180.419 107.801 176.762 107.017 176.239Z" fill="#FFCFA1"/>
<path opacity="0.1" d="M67.8322 175.194C67.5709 175.194 67.5709 175.456 67.8322 175.194C67.8322 175.456 76.4528 180.68 85.8572 185.905C87.9471 187.211 96.5678 187.472 97.874 187.734C98.9189 187.995 99.7026 187.995 100.225 187.734C100.486 187.472 100.748 187.472 101.27 187.472C91.6044 185.905 91.3431 183.554 91.6044 182.509C91.6044 181.986 91.6044 181.464 91.8656 180.942C92.3881 179.635 94.4779 179.374 95.0004 178.068C95.5228 177.284 95.2616 175.978 95.5229 175.194C96.0453 174.411 96.829 174.149 97.6127 173.627C98.9189 172.582 99.4414 171.015 99.1801 169.447C99.4414 170.753 98.3964 171.798 97.3515 172.582C96.3066 173.366 95.2616 173.888 94.4779 174.933C93.6942 175.978 93.6942 177.545 92.6493 178.59C91.8656 179.374 90.8207 179.635 90.2982 180.158C89.7757 180.68 89.5145 181.464 88.992 181.986C88.4696 182.77 87.4246 183.031 86.3797 183.031C85.3348 183.031 84.5511 182.77 83.7674 182.248C77.759 180.158 72.7956 177.807 67.8322 175.194Z" fill="#1D1D1B"/>
<path d="M30.4756 80.6279C28.3858 74.6195 23.4224 69.9173 17.6752 67.305C11.9281 64.6927 6.18098 65.4764 3.30742 71.2235C1.21756 75.4032 0.172616 81.4116 1.21755 86.1138C4.09111 101.004 13.7567 124.776 21.3325 137.054L67.832 182.248L82.461 166.051L43.2761 120.858C42.4924 113.543 32.3043 85.8526 30.4756 80.6279Z" fill="#DADADA"/>
<path d="M150.904 136.271L157.173 134.442C157.957 134.181 158.741 133.92 159.524 133.92L166.578 133.136C168.145 132.875 169.19 131.83 169.19 130.523C169.19 129.217 167.884 128.434 166.317 128.434L156.912 128.956L142.544 133.136C142.544 133.136 142.283 134.703 142.544 134.703L144.895 136.009C146.985 136.793 149.075 136.793 150.904 136.271Z" fill="#FFCFA1"/>
<path d="M181.468 130.001C181.207 130.001 180.684 130.001 180.423 130.001L165.272 127.127L161.614 128.695L156.912 130.785C151.165 133.658 148.03 134.703 145.679 134.964C144.634 134.964 144.373 135.226 143.589 134.964C140.977 134.964 140.716 134.964 140.716 134.964C140.716 134.964 139.932 132.352 139.932 132.613L142.544 123.993C143.589 123.993 145.94 124.254 146.985 123.993L158.741 120.597C159.786 120.074 161.092 120.074 162.398 120.335L171.541 122.164C171.803 122.164 172.064 122.164 172.064 122.425L183.297 127.127C183.819 127.389 184.08 127.911 183.819 128.434C183.819 128.695 183.558 128.956 183.558 128.956C183.297 129.217 183.297 129.479 183.036 129.74C182.774 130.001 182.774 130.001 182.513 130.262C182.513 130.262 182.252 130.262 182.252 130.523C181.991 130.001 181.729 130.001 181.468 130.001Z" fill="#FFCFA1"/>
<path d="M147.508 121.903L126.087 108.58C117.466 113.021 117.727 120.858 121.907 130.523L140.716 138.883L147.508 121.903Z" fill="#DADADA"/>
</svg>
