<svg width="140" height="203" viewBox="0 0 140 203" fill="none" xmlns="http://www.w3.org/2000/svg">
<path d="M79.9362 15.5064C79.9362 15.5064 74.1134 4.87348 85.7589 1.32918C96.645 -1.96196 94.6197 12.9747 98.6703 12.2152C101.202 11.7089 100.442 9.4304 102.721 6.89875C104.746 4.87344 108.797 5.88609 110.822 9.4304C114.873 16.519 115.379 22.595 118.164 17.2785C118.164 17.2785 118.924 20.3165 116.898 21.8355C115.379 23.1013 113.101 23.1013 111.075 20.3165C107.025 14.2406 103.734 18.038 103.48 20.8228C102.974 25.3798 94.8729 27.152 92.3412 21.5823C88.5438 13.2279 82.9741 12.2153 82.2146 15.5064H79.9362Z" fill="#260D08"/>
<path d="M79.4298 150.696C81.2019 146.393 80.6956 132.975 80.6956 132.975H75.3791H70.0627C70.0627 132.975 69.8095 146.646 71.3285 150.696C73.1007 154.747 69.3032 161.076 70.569 169.431C71.8349 177.785 73.8602 183.608 72.8475 186.899C71.8348 190.19 71.3285 191.709 71.8349 195.253C72.3412 198.798 73.607 200.823 75.3791 200.823C76.645 200.823 78.4171 198.798 78.9235 195.253C79.4298 191.709 78.9235 189.937 77.9108 186.899C76.8981 183.608 78.6703 177.785 80.1893 169.431C81.4551 161.076 77.6576 154.747 79.4298 150.696Z" fill="url(#paint0_linear_212_1976)"/>
<path d="M91.8351 150.696C93.6072 146.393 93.1009 132.975 93.1009 132.975H87.7844H82.468C82.468 132.975 82.2148 146.646 83.7338 150.696C85.5059 154.747 81.7085 161.076 82.9743 169.431C84.2401 177.785 86.2654 183.608 85.2528 186.899C84.2401 190.19 83.7338 191.709 84.2401 195.253C84.7464 198.798 86.5186 200.823 87.7844 200.823C89.5566 200.823 90.8224 198.798 91.3287 195.253C91.8351 191.709 91.3287 189.937 90.3161 186.899C89.3034 183.608 91.0756 177.785 92.5946 169.431C93.8604 161.076 90.0629 154.747 91.8351 150.696Z" fill="url(#paint1_linear_212_1976)"/>
<path d="M82.7212 146.646C82.9744 148.418 83.2275 149.683 83.4807 150.696C83.7338 151.456 83.987 152.468 83.987 153.481L93.1009 146.646H82.7212Z" fill="url(#paint2_linear_212_1976)"/>
<path d="M79.1767 156.013C78.9235 153.987 78.6704 151.962 79.4298 150.443C79.9362 149.43 80.1893 147.658 80.4425 145.886L70.3159 143.354C70.5691 146.139 70.8223 148.924 71.3286 150.443C72.3412 152.975 71.3286 156.519 70.5691 161.076L79.1767 156.013Z" fill="url(#paint3_linear_212_1976)"/>
<path d="M71.835 194.494C71.835 194.747 71.835 195 71.835 195.253C72.3413 198.797 73.6071 200.823 75.3793 200.823V196.266C72.8476 196.266 71.835 194.747 71.835 194.494Z" fill="#B6CDE9"/>
<path d="M78.9237 194.494C78.9237 194.747 78.9237 195 78.9237 195.253C78.4174 198.797 77.1515 200.823 75.3794 200.823V196.266C77.911 196.266 78.9237 194.747 78.9237 194.494Z" fill="#B6CDE9"/>
<path d="M91.3285 194.494C91.3285 194.747 91.3285 195 91.3285 195.253C90.8222 198.797 89.5563 200.823 87.7842 200.823V196.266C90.0627 196.266 91.0753 194.747 91.3285 194.494Z" fill="#B6CDE9"/>
<path d="M83.9868 194.494C83.9868 194.747 83.9868 195 83.9868 195.253C84.4931 198.797 85.759 200.823 87.5311 200.823V196.266C85.2526 196.266 84.24 194.747 83.9868 194.494Z" fill="#B6CDE9"/>
<path d="M95.8856 54.7469C95.3792 51.7089 92.8476 50.4431 91.0754 49.9367C89.5564 49.4304 86.7716 49.1773 85.2526 48.4178C83.4805 47.4051 83.7337 42.595 83.7337 42.595H80.1894H76.645C76.645 42.595 76.8982 47.4051 75.1261 48.4178C73.3539 49.4305 70.8223 49.4304 69.3033 49.9367C67.7843 50.4431 64.9995 51.7089 64.4931 54.7469C63.9868 57.2786 63.9868 60.5697 63.9868 60.5697L79.9362 74.7469L95.8856 60.5697C96.3919 60.5697 96.3919 57.2786 95.8856 54.7469Z" fill="url(#paint4_linear_212_1976)"/>
<path d="M76.3921 46.6456C76.8984 44.8735 76.6453 42.8481 76.6453 42.8481H80.1896H83.987C83.987 42.8481 83.987 42.8482 83.987 43.1013V43.8608L76.3921 46.6456Z" fill="#EDAB72"/>
<path d="M90.0626 31.9621C90.0626 31.9621 91.5816 25.8861 89.8095 22.3418C88.0373 18.5443 85.2525 16.519 80.4424 16.519C75.3791 16.519 72.8475 18.5443 71.0753 22.3418C69.3031 25.6329 70.8221 31.9621 70.8221 31.9621C68.5436 31.4558 69.05 33.9874 69.8095 35C70.3158 36.0127 70.3158 36.0127 70.8221 37.0254C71.3285 38.5444 72.5943 37.5317 72.5943 37.5317C73.3538 39.3038 73.8601 39.8101 76.3917 42.3418C78.6702 44.6203 79.6829 44.3671 80.6955 44.3671C81.9614 44.3671 82.7209 44.3671 84.9993 42.3418C87.7842 39.8101 88.2905 39.3038 88.7968 37.5317C88.7968 37.5317 90.0626 38.5444 90.569 37.0254C90.8221 36.0127 90.8221 36.0127 91.5816 35C91.8348 33.9874 92.3411 31.4558 90.0626 31.9621Z" fill="#F4C297"/>
<path d="M80.4426 23.1013C80.4426 23.1013 79.9362 28.1645 70.8223 31.962H70.0628C70.0628 31.962 68.0375 27.405 69.0501 23.3544C70.316 18.0379 73.8603 13.7342 80.4426 15.5063V23.1013Z" fill="#37120B"/>
<path d="M80.4424 23.1013C80.4424 23.1013 80.9487 28.1645 90.0626 31.962H90.8221C90.8221 31.962 92.8474 27.405 91.8348 23.3544C90.569 18.0379 87.0247 13.7342 80.4424 15.5063V23.1013Z" fill="#37120B"/>
<path d="M53.354 100.57C53.354 100.57 51.3287 102.848 50.5692 103.608C49.8097 104.367 45.7591 112.468 47.0249 113.987C48.2907 115.253 48.0376 114.24 49.3034 111.962C50.3161 109.937 51.3287 107.658 52.0882 108.165C52.5945 108.671 51.0756 110.19 51.3287 111.203C51.3287 111.962 52.3414 110.696 53.6072 109.177C54.1135 108.418 54.873 107.152 55.1262 106.899C56.6452 104.114 56.392 103.354 57.4047 102.342C58.1642 101.329 53.354 100.57 53.354 100.57Z" fill="url(#paint5_linear_212_1976)"/>
<path d="M105.506 108.165C105.506 108.165 106.012 111.203 106.519 112.215C107.025 113.228 106.519 122.342 104.746 122.848C102.974 123.354 103.734 122.595 103.734 120.063C103.734 117.785 103.734 115.253 102.974 115.506C102.215 115.76 102.974 117.532 102.215 118.544C101.708 119.051 101.455 117.785 101.202 115.76C101.202 115 100.949 113.481 100.949 112.975C100.696 109.684 101.455 109.177 101.202 107.911C100.949 106.899 105.506 108.165 105.506 108.165Z" fill="url(#paint6_linear_212_1976)"/>
<path d="M69.0503 50.1899C66.0124 50.9494 62.2149 52.7216 61.2022 55.2532C59.4301 59.8102 57.4048 70.6963 56.139 77.5318C54.8731 84.3672 50.5693 102.089 50.5693 102.089L58.1643 104.62L66.7719 72.9748C66.7719 72.9748 67.7845 75.2533 68.0377 76.2659C68.544 77.2786 70.063 90.19 69.5567 92.7216L80.9491 95.0001V63.3545C80.9491 63.3545 69.8098 55.7596 69.0503 50.1899Z" fill="#C90E00"/>
<path d="M58.1642 104.367L56.3921 103.608C56.3921 103.608 63.4807 76.7722 66.5187 70.1899L66.7718 72.4685L58.1642 104.367Z" fill="#C90E00"/>
<path d="M92.8476 50.1899C95.8855 50.9494 99.683 52.7216 100.696 55.2532C102.468 59.8102 103.734 70.19 104.746 77.0254C106.012 83.8608 106.772 95.0001 107.025 98.038C107.278 101.076 107.784 109.177 107.784 109.177L99.683 109.937C99.683 109.937 98.9235 97.0254 98.4172 93.7343C97.6577 90.4431 95.3792 72.9748 95.3792 72.9748C95.3792 72.9748 94.3666 75.2533 94.1134 76.2659C93.6071 77.2786 92.0881 90.19 92.5944 92.7216L81.202 95.0001V63.3545C80.9488 63.3545 92.0881 55.7596 92.8476 50.1899Z" fill="#C90E00"/>
<path d="M99.6829 109.684L101.455 109.43C101.455 109.43 98.4171 77.0254 95.3791 70.1899L95.126 72.4685C95.126 72.4685 97.6576 90.19 98.1639 93.2279C99.1766 96.7722 99.6829 109.684 99.6829 109.684Z" fill="#C90E00"/>
<path d="M90.063 77.2785C95.1263 74.7469 95.1263 69.6836 95.1263 69.6836C95.3795 70.1899 95.3795 72.2152 95.3795 74.4937C95.1263 73.481 95.1263 72.7215 95.1263 72.7215C95.1263 72.7215 94.1137 75.0001 93.8605 76.0127C93.3542 77.0254 91.8352 89.9368 92.3415 92.4684L91.582 92.7216L87.0251 92.9747C87.0251 92.9747 84.9997 80.0633 90.063 77.2785Z" fill="#C90E00"/>
<path d="M71.835 77.2785C66.7717 74.7469 66.7717 69.6836 66.7717 69.6836C66.5186 70.1899 66.5186 72.2152 66.5186 74.4937C66.7717 73.481 66.7717 72.7215 66.7717 72.7215C66.7717 72.7215 67.7844 75.0001 68.0375 76.0127C68.5439 77.0254 70.0629 89.9368 69.5565 92.4684L70.316 92.7216L74.873 92.9747C74.873 92.9747 76.8983 80.0633 71.835 77.2785Z" fill="#C90E00"/>
<path d="M69.5568 92.7217L54.1138 138.038C54.1138 138.038 64.9998 148.671 80.9492 148.671V92.9748H69.5568V92.7217Z" fill="#B6CDE9"/>
<path d="M92.3411 92.7217L107.784 138.038C107.784 138.038 96.8981 148.671 80.9487 148.671V92.9748H92.3411V92.7217Z" fill="#B6CDE9"/>
<path d="M54.1138 137.785C54.1138 137.785 59.4302 143.101 68.0378 146.139L75.1264 92.9748L74.6201 92.7217H69.3036L54.1138 137.785Z" fill="#90B8EB"/>
<path d="M49.5567 199.304C49.5567 199.304 48.2909 195.253 56.139 195L60.696 199.304H49.5567Z" fill="#592912"/>
<path d="M22.7214 164.62C22.7214 164.62 19.9366 191.962 17.9112 194.494C15.8859 197.279 11.0758 196.772 11.329 200.57C11.5821 204.62 20.4429 198.291 20.4429 198.291L30.8226 169.177L22.7214 164.62Z" fill="#592912"/>
<path d="M37.4051 106.646C40.6962 120.063 40.9494 120.316 43.9873 125.633C47.5316 131.456 55.1266 136.013 59.4304 141.329C63.7342 146.645 78.4177 158.544 83.9873 171.962C89.557 185.126 91.076 192.468 97.1519 193.987C102.975 195.759 117.911 189.937 128.544 193.987C139.177 198.038 143.481 201.076 136.139 201.076C128.797 201.076 98.6709 201.076 98.6709 201.076C98.6709 201.076 89.8101 200.316 87.2785 198.291C84.7468 196.266 86.519 202.089 80.443 202.089C74.6202 202.089 51.3291 202.089 51.3291 202.089C51.3291 202.089 48.5443 202.089 48.5443 199.81C48.5443 197.532 53.8608 195.759 56.3924 196.266C56.3924 196.266 42.2152 191.709 47.0253 178.038C47.0253 178.038 40.6962 176.772 36.8987 171.962C36.8987 171.962 31.5823 180.569 29.3038 186.645C27.0253 192.721 25.2532 202.089 21.2025 202.089C16.8987 202.089 15.3797 202.089 15.3797 202.089H13.3544C13.3544 202.089 9.81012 200.823 13.3544 198.291C16.8987 196.013 18.1646 197.785 20.1899 193.734C21.962 189.683 26.519 171.962 26.0127 168.924C25.5063 165.886 7.53164 156.013 11.5823 142.089C14.6202 131.709 15.1266 129.43 12.8481 122.342C10.0633 115.759 37.4051 106.646 37.4051 106.646Z" fill="#753617"/>
<path d="M78.6706 186.139C74.3668 184.367 73.3542 183.101 74.1137 179.81C74.62 176.266 79.4301 175 78.6706 174.24C77.9111 173.481 64.7466 167.152 64.7466 167.152L45.7592 175.759C45.7592 175.759 44.4934 176.266 44.2402 177.532C45.7592 178.038 46.7719 178.291 46.7719 178.291C42.9744 189.683 51.8352 194.747 55.1263 196.266C56.6453 197.025 65.5061 197.278 67.7845 196.266C70.3162 195 72.3415 194.747 77.658 196.266C82.9744 197.785 79.9364 198.038 83.2276 199.051C83.9871 199.304 84.7466 199.557 84.9997 199.557C85.2529 199.051 85.5061 198.544 85.7592 198.291C87.0251 195 82.9744 187.911 78.6706 186.139Z" fill="#B26631"/>
<path d="M21.7086 98.5442C21.7086 98.5442 20.696 97.2784 20.4428 96.0126C20.1896 94.4936 19.9365 91.4556 18.4175 89.1771C16.8985 86.8986 16.3922 85.886 15.3795 85.886C14.3669 85.886 11.582 90.1898 10.8226 94.4936C10.3162 98.7974 9.80989 98.5442 10.0631 99.81C10.3162 101.076 9.30356 101.582 9.80989 102.089C10.3162 102.848 11.582 104.367 11.582 104.62L21.7086 98.5442Z" fill="#753617"/>
<path d="M19.4303 98.5442C19.4303 99.0505 18.1645 100.063 17.405 99.3037C16.6455 98.5442 16.6455 94.4936 16.3924 92.4683C16.1392 90.6961 15.3797 88.4176 15.1265 88.1644C14.8734 87.6581 14.1139 86.3923 15.1265 86.3923C15.886 86.3923 18.4177 88.1645 18.924 90.1898C19.4303 92.2151 19.6835 94.9999 19.6835 95.5062C19.6835 96.0125 19.6835 98.291 19.6835 98.291L19.4303 98.5442Z" fill="#753617"/>
<path d="M18.4176 89.1771C16.8986 86.8986 16.3923 85.886 15.3796 85.886C15.1264 85.886 14.8733 86.1392 14.6201 86.1392C15.1264 86.6455 15.8859 87.4049 16.3923 87.9113C17.1518 88.9239 17.4049 89.9366 17.9113 90.6961C18.4176 91.4556 18.6708 93.2278 18.6708 93.9873C18.4176 94.7468 18.9239 96.0126 18.6708 96.5189C18.4176 97.0253 18.9239 98.0379 18.9239 98.291C18.9239 98.5442 17.9113 98.7974 17.6581 99.5569C17.4049 100.063 17.4049 100.823 17.9113 100.316C18.4176 99.8101 18.6708 99.81 18.6708 99.81L19.6834 99.5569L21.4556 98.5442C21.4556 98.5442 20.4429 97.2784 20.1897 96.0126C20.1897 94.7467 19.9366 91.7087 18.4176 89.1771Z" fill="#3A251D"/>
<path d="M13.3544 103.101C13.1013 102.848 11.8354 100.823 11.8354 100.063C11.8354 99.3038 12.3418 95.7595 12.3418 95C12.3418 94.2405 13.6076 89.4303 14.3671 88.4177C15.1266 87.405 17.1519 90.443 17.4051 91.4557C17.9114 92.4683 17.4051 93.9873 17.4051 95C17.4051 96.0126 18.1646 96.7721 18.4177 97.7848C18.6709 98.5443 17.9114 99.8101 17.9114 100.063C17.9114 100.316 16.3924 101.329 15.8861 101.582C15.1266 102.089 13.8608 103.608 13.3544 103.101Z" fill="#B26631"/>
<path d="M26.5186 98.5442C26.5186 98.5442 27.5312 97.2784 27.7844 96.0126C28.0375 94.4936 28.2907 91.4556 29.8097 89.1771C31.3287 86.8986 31.835 85.886 32.8477 85.886C33.8603 85.886 36.6451 90.1898 37.4046 94.4936C37.911 98.7974 38.4173 98.5442 38.1641 99.81C38.1641 101.076 38.9236 101.582 38.4173 102.089C37.911 102.848 36.6451 104.367 36.6451 104.62L26.5186 98.5442Z" fill="#753617"/>
<path d="M28.7971 98.5442C28.7971 99.0505 30.0629 100.063 30.8224 99.3037C31.5819 98.5442 31.5819 94.4936 31.8351 92.4683C32.0882 90.6961 32.8477 88.4176 33.1009 88.1644C33.3541 87.6581 33.8604 86.3923 33.1009 86.3923C32.0882 86.3923 29.8098 88.1645 29.3034 90.1898C28.7971 92.2151 28.5439 94.9999 28.5439 95.5062C28.5439 96.0125 28.5439 98.291 28.5439 98.291L28.7971 98.5442Z" fill="#753617"/>
<path d="M29.8099 89.1771C31.3289 86.8986 31.8353 85.886 32.8479 85.886C33.1011 85.886 33.3543 86.1392 33.6074 86.1392C33.1011 86.6455 32.3416 87.4049 31.8353 87.9113C31.0758 88.9239 30.8226 89.9366 30.3163 90.6961C29.8099 91.4556 29.5568 93.2278 29.5568 93.9873C29.8099 94.7468 29.3036 96.0126 29.5568 96.5189C29.8099 97.0253 29.3036 98.0379 29.3036 98.291C29.3036 98.5442 30.3163 98.7974 30.5694 99.5569C30.8226 100.063 30.8226 100.823 30.3163 100.316C29.8099 99.8101 29.5568 99.81 29.5568 99.81L28.5441 99.5569L26.772 98.5442C26.772 98.5442 27.7846 97.2784 28.0378 96.0126C28.0378 94.7467 28.291 91.7087 29.8099 89.1771Z" fill="#3A251D"/>
<path d="M34.8733 103.101C35.1264 102.848 36.3922 100.823 36.3922 100.063C36.3922 99.3038 35.8859 95.7595 35.8859 95C35.8859 94.2405 34.6201 89.4303 33.8606 88.4177C33.1011 87.405 31.0758 90.443 30.8226 91.4557C30.3163 92.4683 30.8226 93.9873 30.8226 95C30.8226 96.0126 30.0631 96.7721 29.81 97.7848C29.5568 98.5443 30.3163 99.8101 30.3163 100.063C30.3163 100.316 31.8353 101.329 32.3416 101.582C33.1011 102.089 34.6201 103.608 34.8733 103.101Z" fill="#B26631"/>
<path d="M39.4302 115.759C39.4302 114.24 38.6707 112.722 38.6707 110.696C38.6707 108.671 37.1517 107.911 37.1517 107.911L35.6327 104.367L32.0884 102.848L28.0378 103.354L24.2403 114.494L20.4428 103.354L16.3922 102.848L12.8479 104.367L11.3289 107.911C11.3289 107.911 9.80991 108.924 9.80991 110.696C9.80991 112.722 9.05041 114.24 9.05041 115.759C9.05041 117.278 8.54408 117.785 9.55674 119.051C10.5694 120.57 11.0757 121.329 11.0757 122.595C11.3289 123.861 13.3542 126.646 14.1137 127.405C14.8732 128.165 17.9112 129.937 18.9238 130.696C19.6833 131.456 20.696 131.962 24.2403 131.962C27.7846 131.962 28.7972 131.203 29.5567 130.696C30.3162 129.937 33.3542 128.165 34.3669 127.405C35.1264 126.646 37.1517 123.861 37.4048 122.595C37.658 121.329 37.9112 120.57 38.9238 119.051C39.9365 117.532 39.4302 117.278 39.4302 115.759Z" fill="#B26631"/>
<path d="M13.1011 108.165C13.1011 108.165 13.3543 109.684 13.3543 111.709C13.3543 113.734 11.8353 113.228 13.3543 115C14.8733 116.772 15.1265 117.279 14.8733 117.785C14.6201 118.291 14.367 118.291 14.8733 119.557C15.3796 120.57 15.886 120.823 16.1391 122.342C16.3923 123.861 19.4303 127.405 19.4303 128.418C19.4303 129.43 23.9872 130.443 23.9872 130.443V116.772L13.1011 108.165Z" fill="#753617"/>
<path d="M16.8985 115.253L19.4302 119.304L23.4808 123.608L22.7213 125.127C22.7213 125.127 19.9365 123.861 19.4302 123.101C18.9239 121.582 15.6327 116.519 16.8985 115.253Z" fill="#1A0D07"/>
<path d="M21.9617 121.582C21.9617 121.582 21.9617 121.835 21.7085 123.354C21.4554 124.873 21.4554 126.139 22.2149 126.899C22.9744 127.911 22.7212 128.165 24.2402 128.165V120.57L21.9617 121.582Z" fill="#E19B93"/>
<path d="M17.4047 114.747C17.1515 114.494 16.6452 113.481 16.1389 112.975C15.3794 112.468 15.3794 111.456 15.1262 111.202C14.873 110.949 13.8604 109.177 13.6072 108.924C13.6072 108.671 13.1009 107.911 13.8604 107.658C14.6199 107.405 16.392 107.911 17.4047 108.418C18.4174 108.924 19.9363 110.949 20.1895 112.468C20.1895 114.494 17.911 115.506 17.4047 114.747Z" fill="#753617"/>
<path d="M17.6581 98.0379C17.6581 98.0379 13.8606 100.57 13.3543 101.076C12.8479 101.582 11.8353 102.848 11.8353 103.861C11.8353 104.873 10.8226 106.139 11.0758 106.899C11.329 107.658 11.3289 107.911 11.3289 107.911C11.3289 107.911 12.0884 106.646 12.3416 106.139C12.5948 105.633 13.3543 104.873 13.6074 104.873C13.8606 104.873 13.8606 105.38 13.6074 106.139C13.3543 106.899 12.8479 108.671 13.6074 108.671C14.3669 108.671 15.6327 108.165 16.1391 108.924C16.3922 109.684 17.4049 109.937 17.6581 110.696C17.9112 111.456 18.6707 113.228 18.1644 113.734C17.6581 113.987 17.4049 115 17.1517 115.253C16.6454 115.253 17.1517 116.266 17.6581 117.025C18.1644 117.785 18.6707 119.051 18.9239 119.81C19.177 120.57 19.6834 122.595 21.2024 122.595C22.9745 122.595 22.9745 122.089 24.2403 122.089V98.0379C24.2403 98.0379 23.4809 97.5316 22.4682 97.5316C21.2024 97.2785 17.6581 98.0379 17.6581 98.0379Z" fill="#3A251D"/>
<path d="M21.4553 118.291C21.4553 117.025 22.468 116.266 22.468 116.266C22.468 116.266 21.7085 116.012 21.2021 117.025C20.4426 118.038 21.2021 118.797 21.2021 120.316C21.2021 120.823 20.949 121.582 20.6958 122.088C20.949 122.088 21.2021 122.088 21.2021 122.088C22.9743 122.088 22.9743 121.582 24.2401 121.582V120.063C24.2401 120.316 21.4553 119.557 21.4553 118.291Z" fill="#663B2D"/>
<path d="M14.8733 105.126C14.1138 105.886 14.8733 107.911 16.1392 106.645C17.405 105.38 19.1771 104.62 19.4303 105.633C19.9366 106.645 19.9366 107.152 20.6961 107.658C21.7088 107.911 21.7088 107.658 21.9619 105.886C22.2151 104.114 23.4809 103.607 22.2151 102.595C21.2024 101.582 19.9366 102.088 18.924 102.088C18.4176 102.088 16.6455 103.354 14.8733 105.126Z" fill="#663B2D"/>
<path d="M20.696 107.152C20.696 107.152 20.1896 105.38 19.4301 105.126C18.6706 104.873 16.3922 105.633 15.6327 106.139C15.1263 106.645 14.3668 107.911 15.6327 108.164C16.8985 108.418 17.9112 108.924 18.6706 108.924C19.4301 108.671 20.9491 108.164 20.696 107.152Z" fill="#663B2D"/>
<path d="M16.6455 101.582C16.8987 101.835 15.6329 102.595 15.6329 103.101C15.6329 103.607 15.6329 103.607 15.3797 104.367C15.1265 105.126 14.8734 105.886 15.1265 106.645C15.3797 107.405 15.1265 107.405 15.6329 107.405C16.1392 107.658 16.1392 107.152 16.6455 107.405C16.8987 107.658 16.8987 108.164 17.1519 108.164C17.6582 108.164 17.6582 108.418 17.6582 108.418C17.6582 108.418 16.8987 108.671 16.1392 108.671C15.3797 108.671 15.1265 108.418 14.3671 108.418C13.3544 108.164 12.8481 107.405 13.3544 106.645C13.8607 106.139 14.3671 105.633 14.1139 104.873C14.1139 104.114 13.8607 103.861 14.3671 103.354C15.1265 102.848 14.8734 102.595 15.1265 102.088C15.6329 102.088 16.3924 101.329 16.6455 101.582Z" fill="#1D130F"/>
<path d="M24.2401 111.709C24.2401 111.709 23.2275 111.962 22.7211 113.481C22.2148 115 21.2021 117.785 21.2021 117.785L24.2401 116.772V111.709Z" fill="#663B2D"/>
<path d="M21.2021 117.531C21.2021 117.531 22.468 118.797 23.2275 118.797L23.987 117.531V115.759C24.2401 115.759 21.7085 116.012 21.2021 117.531Z" fill="#0F0804"/>
<path d="M17.4048 107.911C17.4048 107.911 16.8984 107.658 16.8984 107.405C16.8984 107.152 16.8984 106.646 17.1516 106.646C17.4048 106.392 17.6579 106.139 18.1643 106.139C18.4174 106.139 19.1769 106.392 19.4301 106.899C19.6832 107.405 18.9238 107.658 18.9238 107.658C18.6706 107.658 17.4048 107.911 17.4048 107.911Z" fill="#100A07"/>
<path d="M17.4048 107.152C17.4048 107.911 17.6579 108.418 18.4174 108.418C19.1769 108.418 19.4301 107.911 19.6833 107.911C19.9364 107.911 19.9364 108.164 19.9364 107.405C19.9364 106.899 19.4301 106.392 18.9238 106.392C18.1643 106.392 17.4048 106.645 17.4048 107.152Z" fill="#330800"/>
<path d="M24.2403 119.557C24.2403 119.557 23.734 119.557 23.2277 119.557C22.7213 119.557 22.215 118.544 22.4682 118.291C22.7213 118.038 22.9745 117.785 23.2277 117.785C23.4808 118.038 23.734 116.772 23.734 116.772C23.4808 116.772 22.7213 116.266 22.7213 116.519C22.7213 117.025 22.4682 117.532 21.9618 117.532C21.2023 117.532 20.696 116.772 21.2023 116.013C21.7087 115.253 21.7087 114.747 22.4682 114.747C23.2277 114.494 24.4935 114.747 24.4935 114.747V119.557H24.2403Z" fill="#1A0D07"/>
<path d="M18.4177 107.405C18.5575 107.405 18.6709 107.292 18.6709 107.152C18.6709 107.012 18.5575 106.899 18.4177 106.899C18.2779 106.899 18.1646 107.012 18.1646 107.152C18.1646 107.292 18.2779 107.405 18.4177 107.405Z" fill="black"/>
<path d="M18.1643 107.152C18.3041 107.152 18.4175 107.038 18.4175 106.899C18.4175 106.759 18.3041 106.646 18.1643 106.646C18.0245 106.646 17.9111 106.759 17.9111 106.899C17.9111 107.038 18.0245 107.152 18.1643 107.152Z" fill="white"/>
<path d="M21.7088 104.367C21.4556 103.861 22.2151 103.608 21.2024 103.354C20.1898 103.101 20.1898 103.354 19.6834 103.861C19.1771 104.367 19.4303 105.38 19.6834 105.633C20.4429 106.392 19.6834 107.152 20.6961 107.152C20.6961 107.152 20.6961 107.658 20.1898 108.165C19.6834 108.671 19.1771 109.177 19.9366 109.177C20.6961 109.177 21.4556 108.924 21.7088 108.165C21.7088 107.405 21.7088 106.646 21.7088 106.646C21.7088 106.392 21.7088 106.139 21.7088 105.886C21.2024 105.127 21.9619 104.873 21.7088 104.367Z" fill="#1D130F"/>
<path d="M35.1263 108.165C35.1263 108.165 34.8731 109.684 34.8731 111.709C34.8731 113.734 36.3921 113.228 34.8731 115C33.3542 116.772 33.101 117.279 33.3542 117.785C33.6073 118.291 33.8605 118.291 33.3542 119.557C32.8478 120.57 32.3415 120.823 32.0883 122.342C31.8352 123.861 28.7972 127.405 28.7972 128.418C28.7972 129.43 24.2402 130.443 24.2402 130.443V116.772L35.1263 108.165Z" fill="#753617"/>
<path d="M31.3289 115.253L28.7972 119.304L25.2529 123.608L26.0124 125.127C26.0124 125.127 28.2909 123.861 28.7972 123.101C29.3036 121.582 32.5947 116.519 31.3289 115.253Z" fill="#1A0D07"/>
<path d="M26.5187 121.582C26.5187 121.582 26.5187 121.835 26.7719 123.354C27.025 124.873 27.025 126.139 26.2656 126.899C25.5061 127.911 25.7592 128.165 24.2402 128.165V120.57L26.5187 121.582Z" fill="#E19B93"/>
<path d="M31.0758 114.747C31.329 114.494 31.8353 113.481 32.3416 112.975C33.1011 112.468 33.1011 111.456 33.3543 111.202C33.6075 110.949 34.6201 109.177 34.8733 108.924C34.8733 108.671 35.3796 107.911 34.6201 107.658C33.8606 107.405 32.0885 107.911 31.0758 108.418C30.0632 108.924 28.5442 110.949 28.291 112.468C28.291 114.494 30.5695 115.506 31.0758 114.747Z" fill="#753617"/>
<path d="M30.5696 98.0379C30.5696 98.0379 34.3671 100.57 34.8734 101.076C35.3797 101.582 36.3924 102.848 36.3924 103.861C36.3924 104.873 37.405 106.139 37.1519 106.899C36.8987 107.658 36.8987 107.911 36.8987 107.911C36.8987 107.911 36.1392 106.646 35.886 106.139C35.6329 105.633 34.8734 104.873 34.6202 104.873C34.3671 104.873 34.3671 105.38 34.6202 106.139C34.8734 106.899 35.3797 108.671 34.3671 108.671C33.6076 108.671 32.3417 108.165 31.8354 108.924C31.5822 109.684 30.5696 109.937 30.3164 110.696C30.0633 111.456 29.3038 113.228 29.8101 113.734C30.3164 113.987 30.5696 115 31.0759 115.253C31.5822 115.253 31.0759 116.266 30.5696 117.025C30.0633 117.785 29.5569 119.051 29.3038 119.81C29.3038 120.57 28.5443 122.595 27.0253 122.595C25.2531 122.595 25.2531 122.089 23.9873 122.089V98.0379C23.9873 98.0379 24.7468 97.5316 25.7595 97.5316C27.0253 97.2785 30.5696 98.0379 30.5696 98.0379Z" fill="#3A251D"/>
<path d="M26.7721 118.291C26.7721 117.025 25.7595 116.266 25.7595 116.266C25.7595 116.266 26.519 116.012 27.0253 117.025C27.7848 118.038 27.0253 118.797 27.0253 120.316C27.0253 120.823 27.2784 121.582 27.5316 122.088C27.2784 122.088 27.0253 122.088 27.0253 122.088C25.2531 122.088 25.2531 121.582 23.9873 121.582V120.063C24.2405 120.316 26.7721 119.557 26.7721 118.291Z" fill="#663B2D"/>
<path d="M26.7719 96.519C26.2656 96.519 26.5188 97.0253 25.7593 96.7721C24.9998 96.519 24.7466 96.519 24.2403 96.519C23.734 96.519 23.4808 96.519 22.7213 96.7721C21.9618 97.0253 22.215 96.519 21.7086 96.519C21.2023 96.519 18.9238 97.5317 18.9238 97.7849C18.9238 98.2912 19.6833 99.0507 20.1897 98.7975C20.696 98.5443 21.4555 97.7849 21.9618 97.7849C22.4681 97.7849 22.7213 97.2785 22.9745 97.5317C23.2276 97.7849 24.2403 97.7849 24.2403 97.7849C24.2403 97.7849 24.9998 97.7849 25.5061 97.5317C25.7593 97.2785 26.0124 97.7849 26.5188 97.7849C27.0251 97.7849 27.7846 98.7975 28.2909 98.7975C28.7972 99.0507 29.5567 98.038 29.5567 97.7849C29.5567 97.5317 27.2783 96.519 26.7719 96.519Z" fill="#8A4724"/>
<path d="M33.3544 105.126C34.1139 105.886 33.3544 107.911 32.0886 106.645C30.8228 105.38 29.0506 104.62 28.7974 105.633C28.2911 106.645 28.2911 107.152 27.5316 107.658C26.519 107.911 26.519 107.658 26.2658 105.886C26.0126 104.114 24.7468 103.607 26.0126 102.595C27.0253 101.582 28.2911 102.088 29.3038 102.088C29.8101 102.088 31.5823 103.354 33.3544 105.126Z" fill="#663B2D"/>
<path d="M27.7847 107.152C27.7847 107.152 28.291 105.38 29.0505 105.126C29.81 104.873 32.0885 105.633 32.8479 106.139C33.3543 106.645 34.1138 107.911 32.8479 108.164C31.5821 108.418 30.5695 108.924 29.81 108.924C28.7973 108.671 27.2783 108.164 27.7847 107.152Z" fill="#663B2D"/>
<path d="M31.582 101.582C31.3288 101.835 32.5947 102.595 32.5947 103.101C32.5947 103.607 32.5947 103.607 32.8478 104.367C33.101 105.126 33.3541 105.886 33.101 106.645C32.8478 107.405 33.101 107.405 32.5947 107.405C32.0883 107.658 32.0883 107.152 31.582 107.405C31.3288 107.658 31.3288 108.164 31.0757 108.164C30.5693 108.164 30.5693 108.418 30.5693 108.418C30.5693 108.418 31.3288 108.671 32.0883 108.671C32.8478 108.671 33.101 108.418 33.8605 108.418C34.8731 108.164 35.3795 107.405 34.8731 106.645C34.3668 106.139 33.8605 105.633 34.1136 104.873C34.1136 104.114 34.3668 103.861 33.8605 103.354C33.101 102.848 33.3541 102.595 33.101 102.088C32.8478 102.088 32.0883 101.329 31.582 101.582Z" fill="#1D130F"/>
<path d="M24.2402 111.709C24.2402 111.709 25.2529 111.962 25.7592 113.481C26.2656 115 27.2782 117.785 27.2782 117.785L24.2402 116.772V111.709Z" fill="#663B2D"/>
<path d="M27.2781 117.531C27.2781 117.531 26.0123 118.797 25.2528 118.797L24.4933 117.531V115.759C24.2402 115.759 26.7718 116.012 27.2781 117.531Z" fill="#0F0804"/>
<path d="M30.8226 107.911C30.8226 107.911 31.3289 107.658 31.3289 107.405C31.3289 107.152 31.3289 106.646 31.0758 106.646C30.8226 106.392 30.5694 106.139 30.0631 106.139C29.8099 106.139 29.0504 106.392 28.7973 106.899C28.5441 107.405 29.3036 107.658 29.3036 107.658C29.5568 107.658 30.8226 107.911 30.8226 107.911Z" fill="#100A07"/>
<path d="M31.0756 107.152C31.0756 107.911 30.8224 108.418 30.0629 108.418C29.3034 108.418 29.0503 107.911 28.7971 107.911C28.5439 107.911 28.5439 108.164 28.5439 107.405C28.5439 106.899 29.0503 106.392 29.5566 106.392C30.3161 106.392 30.8224 106.645 31.0756 107.152Z" fill="#330800"/>
<path d="M24.2405 119.557C24.2405 119.557 24.7468 119.557 25.2531 119.557C25.7595 119.557 26.2658 118.544 26.0126 118.291C25.7595 118.038 25.5063 117.785 25.2531 117.785C25 118.038 24.7468 116.772 24.7468 116.772C25 116.772 25.7595 116.266 25.7595 116.519C25.7595 117.025 26.0126 117.532 26.519 117.532C27.2784 117.532 27.7848 116.772 27.2784 116.013C26.7721 115.253 26.7721 114.747 26.0126 114.747C25.2531 114.494 23.9873 114.747 23.9873 114.747V119.557H24.2405Z" fill="#1A0D07"/>
<path d="M29.8098 107.405C29.9496 107.405 30.063 107.292 30.063 107.152C30.063 107.012 29.9496 106.899 29.8098 106.899C29.67 106.899 29.5566 107.012 29.5566 107.152C29.5566 107.292 29.67 107.405 29.8098 107.405Z" fill="black"/>
<path d="M30.0632 107.152C30.203 107.152 30.3164 107.038 30.3164 106.899C30.3164 106.759 30.203 106.646 30.0632 106.646C29.9234 106.646 29.8101 106.759 29.8101 106.899C29.8101 107.038 29.9234 107.152 30.0632 107.152Z" fill="white"/>
<path d="M26.2657 122.342C25.2531 122.342 24.9999 122.088 24.4936 122.088H23.9872C22.9746 122.088 22.9746 122.595 21.9619 122.595C21.9619 122.595 21.9619 122.848 22.4682 123.607C23.2277 124.367 23.9872 124.114 23.9872 124.114C23.9872 124.114 24.9999 124.367 25.5062 123.607C26.5189 122.595 26.2657 122.342 26.2657 122.342Z" fill="#E17C71"/>
<path d="M26.5188 104.367C26.772 103.861 26.0125 103.608 27.0251 103.354C28.0378 103.101 28.0378 103.354 28.5441 103.861C29.0504 104.367 28.7973 105.38 28.5441 105.633C27.7846 106.392 28.5441 107.152 27.5315 107.152C27.5315 107.152 27.5315 107.658 28.0378 108.165C28.5441 108.671 29.0504 109.177 28.2909 109.177C27.5315 109.177 26.772 108.924 26.5188 108.165C26.5188 107.405 26.5188 106.646 26.5188 106.646C26.5188 106.392 26.5188 106.139 26.5188 105.886C27.2783 105.127 26.2656 104.873 26.5188 104.367Z" fill="#1D130F"/>
<path d="M28.2907 99.0505C27.2781 98.291 26.0122 97.2783 25.2528 97.2783C24.4933 97.2783 24.2401 97.7847 24.2401 97.7847C24.2401 97.7847 23.9869 97.5315 23.2274 97.2783C22.4679 97.2783 21.2021 98.291 20.1895 99.0505C19.1768 99.81 19.43 101.329 21.2021 101.076C22.9743 101.076 22.7211 100.569 23.2274 101.582C23.7338 102.342 23.4806 104.367 24.2401 105.38C24.9996 104.367 24.7464 102.595 25.2528 101.582C25.7591 100.823 25.5059 101.076 27.2781 101.076C29.0502 101.329 29.3034 99.81 28.2907 99.0505Z" fill="#1D130F"/>
<path d="M128.291 194.24C117.658 190.19 102.721 196.013 96.8984 194.24C91.0756 192.468 89.3035 185.38 83.7339 172.215C78.1642 159.051 63.4807 146.899 59.1769 141.582C57.4047 139.557 55.3794 137.532 53.1009 135.506C53.3541 138.038 53.6073 141.329 52.5946 143.861C50.8225 148.418 49.5566 155 49.8098 158.291C50.063 161.582 51.0756 164.114 46.5187 165.633C41.9617 167.152 43.4807 171.456 44.2402 173.987C44.7465 175.759 43.4807 176.519 42.7212 177.025C44.9997 178.038 46.7718 178.291 46.7718 178.291C48.7971 174.494 55.6326 170.949 60.4427 170.19C65.2528 169.684 69.3035 172.215 71.8351 174.494C73.3541 175.759 77.6579 173.987 77.9111 176.013C77.9111 178.038 80.949 183.861 84.4933 186.392C88.0377 188.671 88.7971 189.684 89.8098 192.722C90.5693 195.76 94.6199 197.025 97.4047 197.785C100.19 198.544 103.734 197.025 108.544 196.266C113.354 195.506 111.835 196.772 116.645 198.544C118.417 199.304 120.949 200.316 123.987 201.329C129.303 201.329 134.114 201.329 136.139 201.329C143.481 201.329 138.924 198.038 128.291 194.24Z" fill="#1D130F"/>
<path d="M38.4174 170.19C39.9364 168.671 40.9491 168.671 39.6832 165.38C38.4174 162.089 37.4047 163.861 38.6706 159.051C39.9364 154.24 37.9111 152.468 41.4554 150.696C44.9997 148.924 46.7718 146.646 47.7845 144.62C48.544 142.595 46.7718 139.304 49.0503 136.013C49.8098 135 50.3161 133.987 50.5693 133.228C48.0377 130.949 45.7592 128.671 43.987 126.139C43.4807 126.645 42.7212 127.405 41.2022 128.418C37.1516 131.202 36.6453 131.202 33.3541 137.278C30.063 143.354 30.063 140.823 31.0756 144.62C31.8351 148.165 31.582 148.164 33.3541 144.873C35.3794 141.329 34.8731 137.785 37.1516 136.519C39.4301 135.506 40.4427 134.24 42.9744 136.772C45.506 139.304 46.7718 138.544 42.9744 142.342C39.1769 146.392 34.6199 147.658 35.1263 152.721C35.6326 157.785 35.8858 159.304 34.6199 161.076C33.6073 162.848 34.8731 162.342 36.3921 165.633C37.9111 168.924 36.3921 172.468 36.3921 172.468L38.4174 170.19Z" fill="#3A251D"/>
<path d="M22.7215 151.962C21.962 147.912 25.5063 147.405 23.2278 142.595C21.2025 137.785 21.962 138.798 20.443 136.519C19.1772 134.241 15.1265 133.987 13.1012 131.456C12.8481 134.241 12.0886 137.279 10.5696 142.342C6.51895 156.266 24.4936 166.139 25 169.177C26.0126 167.405 27.2784 161.582 26.7721 159.051C26.5189 156.519 23.7341 156.013 22.7215 151.962Z" fill="#B26631"/>
<path d="M40.696 119.051L25.253 145.127L13.6074 128.165C13.8606 129.431 13.6074 130.696 13.6074 132.215L25.5062 149.684L41.9619 121.836C41.4555 121.076 40.9492 120.063 40.696 119.051Z" fill="#C90E00"/>
<path d="M25.2529 155C28.7484 155 31.5821 152.166 31.5821 148.671C31.5821 145.175 28.7484 142.342 25.2529 142.342C21.7575 142.342 18.9238 145.175 18.9238 148.671C18.9238 152.166 21.7575 155 25.2529 155Z" fill="#F7911E"/>
<path d="M25.253 153.987C28.1892 153.987 30.5694 151.607 30.5694 148.671C30.5694 145.735 28.1892 143.354 25.253 143.354C22.3168 143.354 19.9365 145.735 19.9365 148.671C19.9365 151.607 22.3168 153.987 25.253 153.987Z" fill="#F7AD3E"/>
<path d="M23.2278 151.203H24.7468V147.152L24.9999 146.393L24.4936 146.899L23.4809 147.658L22.9746 146.899L25.2531 144.874H26.0126V151.203H27.5316V152.468H23.2278V151.203Z" fill="#F7911E"/>
<path d="M10.5693 189.177V198.544H15.3795C15.3795 198.544 11.582 194.494 12.3415 189.177H10.5693Z" fill="#F7911E"/>
<path d="M10.5694 189.177V198.544H5.75928C5.75928 198.544 9.55674 194.494 8.79725 189.177H10.5694Z" fill="#F7911E"/>
<path d="M10.5693 190.19C15.3794 190.19 19.43 181.582 19.43 170.696H1.7085C1.7085 181.582 5.75913 190.19 10.5693 190.19Z" fill="#F7AD3E"/>
<path d="M20.4429 170.19C20.4429 170.949 19.9365 171.709 18.9239 171.709H1.96186C1.20237 171.709 0.442871 171.202 0.442871 170.19C0.442871 169.43 1.20237 168.671 1.96186 168.671H18.9239C19.9365 168.671 20.4429 169.43 20.4429 170.19Z" fill="#F7911E"/>
<path d="M15.3795 198.544H5.75928V202.342H15.3795V198.544Z" fill="#F7AD3E"/>
<path d="M10.5694 175.253L11.8353 177.532L14.3669 178.038L12.5948 179.81L12.8479 182.342L10.5694 181.076L8.29096 182.342L8.79729 179.81L6.77197 178.038L9.55678 177.532L10.5694 175.253Z" fill="#F7911E"/>
<defs>
<linearGradient id="paint0_linear_212_1976" x1="75.3288" y1="200.71" x2="75.3288" y2="132.848" gradientUnits="userSpaceOnUse">
<stop stop-color="#F4C297"/>
<stop offset="1" stop-color="#EDB380"/>
</linearGradient>
<linearGradient id="paint1_linear_212_1976" x1="87.6758" y1="200.71" x2="87.6758" y2="132.848" gradientUnits="userSpaceOnUse">
<stop stop-color="#F4C297"/>
<stop offset="1" stop-color="#EDB380"/>
</linearGradient>
<linearGradient id="paint2_linear_212_1976" x1="90.6673" y1="145.96" x2="82.1964" y2="150.58" gradientUnits="userSpaceOnUse">
<stop stop-color="#F4C297"/>
<stop offset="1" stop-color="white"/>
</linearGradient>
<linearGradient id="paint3_linear_212_1976" x1="78.3825" y1="147.918" x2="66.5233" y2="154.387" gradientUnits="userSpaceOnUse">
<stop stop-color="#F4C297"/>
<stop offset="1" stop-color="white"/>
</linearGradient>
<linearGradient id="paint4_linear_212_1976" x1="80.363" y1="74.8894" x2="80.363" y2="42.6578" gradientUnits="userSpaceOnUse">
<stop offset="0.503" stop-color="#F4C297"/>
<stop offset="0.7697" stop-color="#EDB380"/>
</linearGradient>
<linearGradient id="paint5_linear_212_1976" x1="57.3211" y1="107.439" x2="46.9242" y2="107.439" gradientUnits="userSpaceOnUse">
<stop stop-color="#F4C297"/>
<stop offset="1" stop-color="#EDB380"/>
</linearGradient>
<linearGradient id="paint6_linear_212_1976" x1="106.619" y1="115.287" x2="101.005" y2="115.287" gradientUnits="userSpaceOnUse">
<stop stop-color="#F4C297"/>
<stop offset="1" stop-color="#EDB380"/>
</linearGradient>
</defs>
</svg>
