<svg width="191" height="170" viewBox="0 0 191 170" fill="none" xmlns="http://www.w3.org/2000/svg">
<g clip-path="url(#clip0_209_653)">
<path d="M55.8 82.1999C62.6 81.1999 69.5 80.1999 76.4 80.6999C80 80.9999 83.8 81.6999 86.6 83.9999C87.4 84.5999 88.1 85.3999 88.5 86.2999C89.2 87.8999 88.9 89.7999 88.5 91.4999C85.4 105.3 80.1 118.6 72.8 130.6C72.6 130.9 72.4 131.2 72.1 131.3C71.7 131.5 71.3 131.4 70.9 131.3C64.6 129.8 58.4 127.3 52.8 124C53.7 121.5 54 118.7 52.8 116.3C50.7 112.2 44.9 111.4 42.1 107.8C39.6 104.5 40.3 99.6999 42 95.8999C44.6 90.2999 49.4 85.6999 55.1 83.2999L55.8 82.1999Z" fill="#C95F5F"/>
<path d="M174.8 159.1C179.8 154.5 183.2 148.3 184.9 141.7C186.7 135.1 186.8 128.2 185.9 121.5C191.6 129.5 191.4 140.5 187.9 149.6C186.6 152.9 184.8 156.2 182.2 158.6C179.6 161.1 176 162.7 172.5 162.4L174.8 159.1Z" fill="#7E4927"/>
<path d="M66.5 28.1C65 28.5 63.3 28.7 61.8 28.1C60.3 27.5 59.1 26.2 59 24.6C59 22.2 61.3 20.7 62.8 18.8C64.2 17 64.7 14.7 65.9 12.8C67 10.9 69.2 9.20002 71.4 9.80002C73 10.2 74 11.7 74.8 13.2C75.4 14.2 75.9 15.3 76.2 16.5C76.8 19 76.1 21.7 75 24.1C74.3 25.6 73.3 27.1 72 28.2C70.7 29.3 68.9 29.9 67.3 29.7L66.5 28.1Z" fill="black"/>
<path d="M23.9 123.4C20.9 124.7 18 126.5 15.5 128.7C15.3 128.9 15.1 129.1 15 129.3C14.9 129.6 15 130 15.1 130.3C15.8 132.5 16.5 134.7 18 136.4C19.6 138.3 21.9 139.6 24.4 139.8C25 139.9 25.7 139.9 26.3 139.6C26.8 139.4 27.2 138.9 27.6 138.5C29.5 136.6 31.8 134.9 34.3 133.8C31.7 130.4 29.2 126.9 26.6 123.5L23.9 123.4Z" fill="#F59F18"/>
<path d="M15.4 134.3C18.6 131 21.9 127.9 25.5 125C26.5 124.2 27.5 123.4 28.6 122.6C29 122.3 28.6 121.7 28.2 122C24.5 124.8 21 127.8 17.7 131C16.8 131.9 15.8 132.8 14.9 133.8C14.6 134.1 15.1 134.6 15.4 134.3Z" fill="#C87C0D"/>
<path d="M16.3 136.4C19.3 133.3 22.6 130.4 26 127.8C27 127 28 126.3 29 125.6C29.4 125.3 29 124.7 28.6 125C25 127.5 21.5 130.3 18.4 133.3C17.5 134.2 16.6 135 15.8 135.9C15.4 136.2 16 136.7 16.3 136.4Z" fill="#C87C0D"/>
<path d="M18.7 139.2C22.2 135 26 131.2 30.2 127.7C31.4 126.7 32.6 125.8 33.8 124.8C34.2 124.5 33.8 123.9 33.4 124.2C29 127.5 24.9 131.1 21.2 135.1C20.1 136.2 19.1 137.4 18.1 138.6C17.9 139.1 18.4 139.6 18.7 139.2Z" fill="#C87C0D"/>
<path d="M20.8 140.6C24.1 138.1 27.4 135.6 30.7 133.1C31.7 132.4 32.6 131.7 33.6 130.9C34 130.6 33.6 130 33.2 130.3C29.9 132.8 26.6 135.3 23.3 137.8C22.3 138.5 21.4 139.2 20.4 140C20.1 140.3 20.4 140.9 20.8 140.6Z" fill="#C87C0D"/>
<path d="M13.1 128.8C14.1 128.3 15.3 128.5 16.2 129.2C17.5 130.2 18.1 132 18.7 133.5C19.3 135.1 20.3 136.7 22 137.1C23.5 137.4 25 136.5 26.4 136.9C28.2 137.3 29.1 139.4 29.4 141.3C29.7 143.1 29.7 145.2 30.8 146.6C32 148.2 34.1 148.6 35.9 149.5C37.7 150.3 39.5 152.1 38.9 154C38.4 155.7 36.4 156.3 34.7 156.7C31 157.4 27.2 157.8 23.6 156.7C20 155.7 16.7 153 15.7 149.4C15.3 147.9 15.2 146.1 13.9 145.2C13.3 145.7 12.6 146.2 12 146.8C9.30004 145.2 7.10004 142.8 5.70004 140C5.40004 139.5 11.5 131.2 11.5 131.2L13.1 128.8Z" fill="black"/>
<path d="M39.3 139C38.7 141.2 38.6 143.5 38.8 145.8C38.8 146.2 38.9001 146.7 39.2001 146.9C39.5001 147.2 40.0001 147.2 40.4001 147.2C43.0001 147.1 45.5 147.1 48.1 147C48.6 147 49.1 147 49.5 146.6C50.2 146 50.1 144.6 51 144.3C52 143.8 52.8001 145.3 53.7001 146C54.5 146.6 55.5 146.8 56.5 146.9C62.7001 147.4 69 147.1 75.1 145.9C75.5 145.8 75.8 145.8 76.1 145.5C76.6 145.1 76.7 144.4 76.7 143.8C76.5 141.5 74.3 139.8 72.1 139.2C69.9 138.6 67.5 138.7 65.2 138.2C62.2 137.5 59.5 135.8 57.7001 133.3C57.2001 132.6 56.7 131.7 55.8 131.4C54.1 130.7 52.4001 132.2 50.9001 133.1C47.9001 134.9 44.2001 134.8 40.7001 134.6C40.2001 134.6 39.7001 134.6 39.4001 134.8C39.1001 135 39.0001 135.3 38.9001 135.6C38.4001 136.9 38 138.2 37.8 139.6L39.3 139Z" fill="black"/>
<path d="M61.2 44C65.6 46.3 67.7 51.3 69.3 56C70.8 60.7 72.3 65.8 76 69.1C76.4 69.5 76.9 69.8 77.1 70.3C77.3 70.8 77.2 71.4 77.2 71.9C76.6 76 76.1 80.1 75.5 84.3C70.3 84.9 64.9 82.6 61.2 78.9C57.4 75.2 55 70.3 53.5 65.3L61.2 44Z" fill="#54260C"/>
<path d="M148 145C145.8 146.6 144.4 149.2 144.1 152C143.9 154.7 144.9 157.5 146.8 159.5C144.2 159.5 141.6 159.7 139.1 160.2C138.7 160.3 138.3 160.4 138 160.6C137.5 161.1 137.8 162 138.2 162.6C139.2 163.8 141 164 142.5 164.1C146.5 164.4 150.5 164.7 154.6 165C154.9 165 155.2 165 155.6 165C156.7 164.7 157.1 163.4 157.2 162.3C157.7 156.2 154.2 150.3 154.9 144.2L148 145Z" fill="#C47916"/>
<path d="M134.6 131.8C134.1 139.8 132.8 147.8 130.7 155.5C130.6 155.9 130.5 156.3 130.1 156.6C129.8 156.8 129.3 156.8 129 156.8C127.6 156.9 126.2 157.7 125.5 158.9C125.1 159.5 124.9 160.4 125.3 161C125.6 161.5 126.2 161.7 126.8 161.8C128.5 162.2 130.3 162.3 132 162.1C132.8 162 133.5 161.9 134.2 161.4C135.1 160.8 135.6 159.8 136 158.8C139.5 150.7 142.2 142.2 144 133.6L134.6 131.8Z" fill="#C47916"/>
<path d="M133.3 85.1C133.9 82.4 134.3 79.7 134.4 77C134.4 76.7 134.4 76.3 134.3 76C134.2 75.6 133.8 75.3 133.5 75.1C131.7 73.7 129.3 73.3 127.1 72.8C124.7 72.3 122.4 71.9 120 71.4C119.4 71.3 118.7 71.2 118.4 71.7C118.3 71.9 118.3 72.1 118.3 72.3C118.3 73.7 119.3 74.8 120.2 75.9C121.6 77.5 123.1 79.1 124.9 80.4C126.7 81.7 128.7 82.5 130.9 82.6C131.1 83.9 132 85 133.2 85.5L133.3 85.1Z" fill="#54260C"/>
<path d="M95.4 25.1C93.4 29.3 87.9 36.4001 87.9 36.4001L91.1 41.2001L85.5 40C85.5 40 82.6 44.1 80.7 45.6C78.8 47.2 75.9 47.7001 73.9 46.2001C72.2 44.9001 70 40.9001 70 40.9001C70 40.9001 64.8 43.9 62 45.1C59.1 40.3 56.6 36.4 53.7 31.6C58.5 29.1 63.3 26.7001 68.1 24.2C66.3 24.4 64.3 21.7 64.4 19.8C64.5 18 66.1 16.4 68 16.2C69.8 16 71.7 17 72.7 18.6C74.2 15.4 76.4 12.6 79.1 10.3C83.7 14.9 90.8 20.4 95.4 25V25.1Z" fill="#D1845A"/>
<path d="M68.7 81.2999C71 84.7999 76 85.4999 80 84.1999C84 82.8999 87.2 80.0999 90.6 77.6999C91.9 76.7999 93.1 75.9999 94.5 75.1999C95.1 74.7999 95.7001 74.4999 96.4001 74.3999C97.3001 74.2999 98.2 74.4999 99.1 74.5999C102.5 74.8999 105.7 71.6999 105.5 68.2999C107.1 67.5999 108.7 66.8999 110.4 66.1999C110.9 65.9999 111.3 65.3999 111.2 64.8999C111.1 63.8999 109.9 63.7999 109 63.8999C106.2 64.0999 103.4 64.2999 100.5 64.4999C99.7001 64.5999 98.8 64.5999 98.1 65.1999C97.6 65.5999 97.3001 66.2999 96.8001 66.7999C96.1001 67.4999 95 67.6999 94.1 67.7999C87.7 68.7999 81.3001 69.7999 74.8001 70.7999C74.0001 70.8999 73.1 71.0999 72.4001 71.5999C71.8001 72.0999 71.4 72.8999 71.1 73.6999L68.5 80.5999C68.3 80.8999 68.4 81.1999 68.7 81.2999Z" fill="#D1845A"/>
<path d="M99.7 65.3C102.3 63.4 105.1 61.5 108.3 60.9C108.7 60.8 109.1 60.8 109.4 60.9C109.8 61 110 61.2999 110.3 61.4999C111.4 62.5999 112.2 63.9 112.8 65.3C112.9 65.7 113.1 66.1 112.9 66.4C112.6 67.1 111.6 67.0999 111 66.6999C110.4 66.2999 110 65.5999 109.4 65.0999C107.9 66.9999 105.4 68.0999 103 67.9999L99.7 65.3Z" fill="#D1845A"/>
<path d="M110.7 61.9C111.5 61.2 112.9 61.7 113.4 62.7C113.9 63.7 113.7 64.8 113.2 65.8C113.6 65.3 114.5 65.6 114.7 66.2C114.9 66.8 114.5 67.5 114.1 67.9C114.8 68.1 115.2 69.1 114.9 69.8C114.6 70.5 113.8 70.9 113 71C112.4 71 111.8 70.9 111.3 70.9C110.4 70.9 109.5 71.1 108.7 71.2C107.3 71.5 106 71.8 104.6 72.1C104 72.2 103.4 72.4 102.8 72.1C102 71.8 101.6 70.8 101.7 70C101.8 69.1 102.3 68.4 102.7 67.7C103.4 66.6 104.2 65.6 105.2 64.8C106.2 64 107.5 63.5 108.8 63.7L110.7 61.9Z" fill="#D1845A"/>
<path d="M136.4 85.4999C133.3 82.6999 128.5 81.9999 124.7 83.8999C123.1 84.6999 121.7 85.8999 120 86.5999C116.6 87.9999 112.7 86.8999 109 87.2999C108.8 87.2999 108.6 87.3999 108.4 87.3999C106.5 88.0999 107.3 90.4999 108.4 91.8999C111.4 95.1999 116 96.5999 120.4 97.5999C122.4 98.0999 124.5 98.5999 125.9 100.1C126.6 100.9 127.1 101.9 127.5 103C129.7 108.6 130.1 114.7 131 120.7C131.9 126.7 133.3 132.8 136.9 137.5C140.3 141.9 145.4 144.8 150.7 146.5C148 148.5 147.5 152.5 148.5 155.8C149.5 159.1 151.9 161.6 154.2 164.1C151.6 164.3 149.1 164.4 146.5 164.6C145.3 164.7 144 164.8 143 165.7C142.5 166.2 142.3 166.9 142.4 167.5C142.7 168.8 144.4 169.1 145.7 169.1C151.7 169.3 157.6 169.6 163.6 169.8C165.7 169.9 168 169.9 169.6 168.6C170.1 168.1 170.6 167.6 171 167C172.1 165.5 173.2 164 174.3 162.5C175.6 160.8 176.9 159 177.6 157C178.6 154.4 178.6 151.6 178.3 148.8C177.5 141.4 174.5 134.5 171.1 127.9C169.3 124.4 167.3 120.9 164.6 117.9C162.6 115.7 160.3 113.8 158.1 111.9C150.6 105.2 144.1 97.2999 139.1 88.5999C138.4 87.2999 137.5 86.2999 136.4 85.4999Z" fill="#F59F18"/>
<path d="M134.1 107.6C132.8 110.3 131.3 112.8 129.6 115.2C127.9 113.6 126.2 112.1 124.4 110.5C122 108.3 119.5 106.1 116.4 105C113.3 104 109.5 104.5 107.5 107.1C107.2 107.6 106.9 108.2 107.1 108.7C107.2 109 107.5 109.2 107.8 109.3C109.4 110.1 111.3 109.5 113 109.6C116.4 109.7 119.2 112.3 121.2 115.1C123.2 117.9 124.6 121.1 126.9 123.6C128.3 125.2 130.3 126.5 132.4 126.3C134.7 126.1 136.4 124.1 137.9 122.3C139.1 120.8 140.2 119.4 141.4 117.9C141.8 117.4 142.2 116.9 142.3 116.3C142.4 115.6 142.2 114.9 141.9 114.3C140.7 111.6 138.8 109.3 136.5 107.4L134.1 107.6Z" fill="#F59F18"/>
<path d="M134.2 87.0999C137.1 84.3999 140.2 81.9999 143.5 79.8999C143.9 79.5999 144.3 79.3999 144.8 79.3999C145.4 79.3999 145.9 79.6999 146.3 79.9999C149.9 82.5999 153 85.8999 155.2 89.6999C154.4 90.6999 153.1 91.2999 151.8 91.3999C150.5 91.4999 149.2 91.2999 148 90.8999C145.2 90.0999 142.5 88.6999 140.2 86.7999C139.9 86.4999 139.5 86.2999 139.1 86.1999C138.7 86.0999 138.3 86.2999 138 86.3999C136.8 86.7999 135.7 87.2999 134.5 87.6999L134.2 87.0999Z" fill="#7E4927"/>
<path d="M2.80005 95.2C3.50005 100.3 3.10005 105.9 6.20005 110.1C8.00005 112.5 10.8 114 13.6 115.1C18.7 117.2 24.2001 118.4 29.7001 118.6C27.4001 120.4 25.2 122.2 22.9 123.9C26.5 130.3 30.7001 136.4 35.4001 142.1C35.6001 142.4 35.9 142.7 36.3 142.8C36.7001 142.9 37 142.7 37.3 142.5C48 136.6 58.7 130.7 69.4 124.8C71.8 123.5 74.3 122.1 76.2 120.2C79.1 117.3 80.9 113.3 80.9 109.2C80.9 108.2 80.8 107.1 80.4 106.2C79.8 104.6 78.5 103.4 77.1 102.5C71.4 98.3 64.1 96.8 58.3 92.7C56.1 91.1 54.1001 89.2 51.9001 87.6C49.5 85.8 46.8 84.5 44.1 83.2C43.4 82.9 42.6 82.5 41.8 82.5C40.6 82.4 39.5 83 38.5 83.5C34.1 85.4 29.4001 86.1 24.7001 87.2C18.9001 88.6 13.3 90.8 7.80005 93C7.20005 93.2 6.70005 93.4 6.10005 93.7L2.80005 95.2Z" fill="#EA7D7A"/>
<path d="M61.9 91.5C70.4 93.5 78.9 95.5 87.4 97.5C90.9 98.3 94.3 99.1 97.9 99.3C101.2 99.5 104.5 99.1 107.8 99.5C111.1 99.9 114.5 101 116.5 103.6C115.2 105.4 111.8 103.7 109.4 103.8C109.8 106.2 114.7 105.7 114.7 108.1C114.7 109.4 113 110.1 111.7 109.6C111.7 109.6 111.7 109.7 111.8 109.7C112.5 111 111.1 112.5 109.8 111.9C109.7 111.9 109.7 111.8 109.6 111.8C109.7 113.2 107.8 114.2 106.7 113.3C106.7 114.3 105.3 114.6 104.3 114.4C100 113.7 96.5 110.8 92.4 109.6C87.5 108.1 82.2 109.1 77 109.4C69.9 109.7 62.7 108.6 56.1 106.2C55.2 105.9 54.2 105.4 53.9 104.4C53.7 103.6 54.1 102.7 54.5 102C56.5 98.5 59 95.2 61.8 92.3L61.9 91.5Z" fill="#D1845A"/>
<path d="M57.9 28.4C59.9 30.1 59.1 34.3 60.5 36.5C62.4 39.6 64.4 42.7 65.6 46.2C68.7 54.8 67.1 64.6 62.7 72.6C62.2 73.6 61.6 74.6 61.4 75.7C61.2 76.8 61.3 78 61.5 79.1C62.2 83.3 63.3 87.4 64.8 91.3C65 91.8 65.2 92.2 65.1 92.7C65.1 93.2 64.8 93.6 64.6 94.1C62.8 97.1 61.1 100.1 59.3 103.1C58.6 104.4 57.7 105.7 56.4 106.3C54.4 107.2 52 105.9 50.5 104.2C47.1 100.4 46.3 95.1 44.7 90.3C44.6 90 44.5 89.6 44.2 89.5C43.8 89.3 43.4 89.4 43 89.6C37.2 91.6 31 92.8 24.9 93.2C20.1 93.5 15.2 93.2 10.6 94.5C8.30002 95 6.20002 95.9 4.00002 96.2C3.30002 96.3 2.50002 96.3 1.90002 95.9C1.50002 95.6 1.30002 95.1 1.10002 94.7C-0.199981 91.5 -0.399981 87.9 0.600019 84.6C1.90002 80.3 5.00002 76.7 8.30002 73.7C9.60002 72.5 11.1 71.3 12 69.7C13 68 13.2 66 13.7 64.1C16.1 55.1 23.7 48.7 30.9 42.8C36.8 38 43 33 50.5 31.3L57.9 28.4Z" fill="#7E4927"/>
<path d="M28.7 120.2C33.2 116.8 37.8 113.5 42.5 110.3C43.8 109.4 45.2 108.5 46.5 107.6C46.9 107.3 46.5 106.7 46.1 107C41.4 110.1 36.7 113.4 32.2 116.7C30.9 117.6 29.6 118.6 28.3 119.6C27.9 119.8 28.3 120.5 28.7 120.2Z" fill="#C23F37"/>
<path d="M42.1 106C41.9 107.4 41.4 108.8 40.7 110.1C40.5 110.5 41.1 110.9 41.3 110.5C42 109.2 42.6 107.7 42.8 106.2C42.8 106 42.7 105.8 42.5 105.7C42.4 105.7 42.1 105.8 42.1 106Z" fill="#C23F37"/>
<path d="M29.5 120.1C29.9 119.8 30.6 120.9 30.7 121.1C31.1 121.7 31.6 122.3 32 123C32.9 124.2 33.8 125.5 34.7 126.7C36.5 129.2 38.3 131.7 40 134.2C41 135.6 42 137 43 138.4C43.3 138.8 43.9 138.4 43.6 138C39.8 132.6 35.9 127.3 32.1 121.9C31.8 121.5 31.6 121.2 31.3 120.8C31.1 120.5 30.9 120.1 30.6 119.9C30.1 119.4 29.4 119.1 28.9 119.6C28.6 119.9 29.2 120.4 29.5 120.1Z" fill="#C23F37"/>
<path d="M4.00003 102.1C6.80003 100.7 9.50003 99.2001 12.3 97.8001C12.1 97.8001 12 97.8001 11.8 97.7001C13.8 100.1 15.8 102.6 17.8 105C18.7 106.1 19.8 107.2 20.4 108.5C21 109.6 21 110.9 20.4 112C19.8 113.3 18.7 114.3 17.6 115.3C17.2 115.6 17.8 116.1 18.1 115.8C20 114.1 22.1 111.8 21.3 109.1C20.9 107.7 19.9 106.6 18.9 105.5C17.8 104.2 16.8 102.9 15.7 101.6C14.5 100.1 13.3 98.7001 12.1 97.2001C12 97.1001 11.8 97.1001 11.6 97.1001C8.80003 98.5001 6.10003 100 3.30003 101.4C3.20003 101.6 3.60003 102.3 4.00003 102.1Z" fill="#C23F37"/>
<path d="M5.8 106.9C8.6 104.8 11.3 102.7 14.1 100.7C14.5 100.4 14.1 99.8001 13.7 100.1C10.9 102.2 8.2 104.3 5.4 106.3C5 106.5 5.4 107.1 5.8 106.9Z" fill="#C23F37"/>
<path d="M42.5 127.2C46.7 123.9 50.8 120.4 54.8 116.9C55.9 115.9 57.1 114.9 58.2 113.8C58.6 113.5 58 112.9 57.7 113.3C53.8 117 49.7 120.5 45.6 123.9C44.4 124.9 43.2 125.8 42 126.8C41.6 127 42.1 127.5 42.5 127.2Z" fill="#C23F37"/>
<path d="M23.9 104.1C27.5 103.8 31.1 103.6 34.7 103.3C35.2 103.3 35.2 102.5 34.7 102.6C31.1 102.9 27.5 103.1 23.9 103.4C23.4 103.4 23.4 104.1 23.9 104.1Z" fill="#C23F37"/>
<path d="M72.5 17.5C71.4 19.4 70.4 21.3 69.3 23.1C69.3 24.1 70.6 24.5 71.5 24.1C72.4 23.7 72.9 22.8 73.3 22C74.8 19.4 76.6 16.9 78.7 14.7C79.2 14.2 79.7 13.7 80.4 13.6C81.7 13.4 82.7 14.7 83 16C83.3 17.3 83.3 18.6 84 19.7C85.3 21.8 88.4 21.9 90 23.7C90.7 24.4 92.7 26.5 93.4 27.1C94.4 28 95.9 28 97.2 27.7C99.8 27.1 102.1 25.1 102.9 22.6C103.7 20.1 102.9 17 100.9 15.4C99.7 14.4 98.1 13.9 96.7 13.1C95 12 91.9 9.60004 90.9 8.10004C89.8 6.50004 89.1 4.60004 87.6 3.30004C86 1.90004 83.7 1.40004 81.5 1.10004C79.9 0.900043 78.1 0.600043 76.5 1.10004C73.8 1.80004 72 4.20004 70.4 6.50004C68 9.90004 65.4 13.5 65.1 17.7C66.3 17.1 67.6 16.4 69 16.3C70.4 16.3 71.9 17 72.2 18.4L72.5 17.5Z" fill="black"/>
<path d="M108.5 108.2C109.5 109.3 110.9 110.1 112.3 110.3C112.5 110.3 112.7 110.2 112.8 110C112.8 109.8 112.7 109.6 112.5 109.5C111.1 109.3 109.9 108.6 109 107.6C108.7 107.3 108.2 107.8 108.5 108.2Z" fill="#7E4927"/>
<path d="M106.6 110.5C107.6 111.6 109 112.2 110.4 112.3C110.9 112.3 110.9 111.6 110.4 111.6C109.1 111.5 108 111 107.1 110C107 109.9 106.7 109.9 106.6 110C106.4 110.2 106.5 110.4 106.6 110.5Z" fill="#7E4927"/>
<path d="M104.5 111.9C105.2 112.9 106.2 113.6 107.4 113.8C107.6 113.8 107.8 113.8 107.9 113.5C107.9 113.3 107.8 113.1 107.6 113C107.1 112.9 106.6 112.8 106.2 112.5C105.8 112.2 105.4 111.9 105.1 111.5C105 111.3 104.8 111.3 104.6 111.4C104.4 111.5 104.4 111.7 104.5 111.9Z" fill="#7E4927"/>
<path d="M109.1 106.6C107.2 108.4 105.3 110.2 103.4 112C103.1 112.3 103.6 112.9 103.9 112.5C105.8 110.7 107.7 108.9 109.6 107.1C109.9 106.8 109.4 106.3 109.1 106.6Z" fill="#7E4927"/>
<path d="M92.8 103.8C92.2 105 91.9 106.4 91.9 107.7C91.9 108.2 92.6 108.2 92.6 107.7C92.6 106.5 92.9 105.3 93.4 104.2C93.5 104 93.5 103.8 93.3 103.7C93.2 103.6 92.9 103.7 92.8 103.8Z" fill="#7E4927"/>
<path d="M98.7 65.5999C100.5 65.4999 102.3 65.2999 104.1 65.2999C105.6 65.1999 107.4 65.2999 108.6 66.2999C108.9 66.4999 109.1 66.7999 109.3 66.9999C109.4 67.0999 109.5 67.2999 109.4 67.4999C109.3 67.6999 109.1 67.7999 109 67.8999C108.5 68.2999 107.7 68.3999 107 68.1999C106.3 67.9999 105.8 67.4999 105.1 67.3999C104.4 67.2999 103.9 67.6999 103.5 68.1999C103 68.7999 102.7 69.4999 102 69.8999C101.3 70.3999 100.5 70.5999 99.7 70.5999C99.2 70.5999 99.2 71.2999 99.7 71.2999C101.3 71.2999 102.7 70.3999 103.7 69.0999C104.1 68.5999 104.5 67.7999 105.3 67.9999C105.6 68.0999 105.9 68.2999 106.2 68.4999C106.6 68.6999 106.9 68.7999 107.3 68.8999C108.1 68.9999 108.8 68.6999 109.4 68.2999C109.7 68.0999 110 67.7999 110 67.3999C110.1 66.9999 109.8 66.5999 109.5 66.1999C108.5 64.8999 106.7 64.3999 105.1 64.3999C104 64.3999 102.9 64.4999 101.8 64.4999C100.7 64.5999 99.5 64.5999 98.4 64.6999C98.2 64.8999 98.2 65.5999 98.7 65.5999Z" fill="#7E4927"/>
<path d="M107.9 61.4C107.8 62.4 107.1 63.4 106.2 64C106 64.1 106 64.3 106.1 64.5C106.2 64.7 106.4 64.7 106.6 64.6C107.7 63.9 108.5 62.7 108.6 61.4C108.6 61.2 108.4 61 108.2 61C108.1 61 107.9 61.2 107.9 61.4Z" fill="#7E4927"/>
<path d="M110 62.7999C110 63.8999 109.5 64.9999 108.6 65.5999C108.4 65.6999 108.4 65.8999 108.5 66.0999C108.6 66.2999 108.8 66.2999 109 66.1999C110.1 65.4999 110.9 64.0999 110.8 62.7999C110.8 62.5999 110.6 62.3999 110.4 62.3999C110.2 62.4999 110 62.5999 110 62.7999Z" fill="#7E4927"/>
<path d="M111.9 65.4C111.9 65.5 111.9 65.5 111.9 65.4C111.8 65.6 111.9 65.5 111.9 65.4C111.8 65.5 111.8 65.6 111.8 65.6C111.8 65.6 111.8 65.7 111.7 65.7C111.7 65.7 111.7 65.7 111.7 65.8C111.7 65.8 111.7 65.8 111.6 65.9L111.5 66L111.4 66.1C111.4 66.1 111.4 66.1 111.3 66.1C111.2 66.2 111.1 66.2 111 66.3C111 66.3 110.9 66.3 110.9 66.4C110.9 66.4 110.9 66.4 110.8 66.4C110.7 66.4 110.6 66.5 110.5 66.5C110.4 66.5 110.4 66.5 110.3 66.5C110.1 66.5 109.9 66.7 109.9 66.9C109.9 67.1 110.1 67.3 110.3 67.3C111.4 67.3 112.4 66.6 112.7 65.5C112.8 65.3 112.6 65.1 112.4 65C112.1 65.1 112 65.2 111.9 65.4Z" fill="#7E4927"/>
<path d="M109 68.7001C110.3 69.2001 111.8 69.0001 112.9 68.1001C113.1 68.0001 113 67.7001 112.9 67.6001C112.7 67.4001 112.5 67.5001 112.4 67.6001C111.5 68.3001 110.3 68.5001 109.2 68.0001C109 67.9001 108.8 68.1001 108.7 68.3001C108.7 68.4001 108.8 68.6001 109 68.7001Z" fill="#7E4927"/>
<path d="M109.9 68.2C109.5 68.3 109.1 68.3 108.7 68.6C108.3 68.8 108 69.2 107.9 69.6C107.8 70 107.9 70.5 108.3 70.8C108.6 71.1 109.1 71.3 109.5 71.3C110 71.4 110.5 71.4 111 71.2C111.2 71.1 111.3 70.9 111.3 70.7C111.3 70.5 111 70.4 110.8 70.4C110.4 70.6 110 70.6 109.6 70.5C109.4 70.5 109.2 70.4 109.1 70.3L109 70.2C109 70.2 109 70.2 108.9 70.2L108.8 70.1L108.7 70V69.9C108.7 70 108.7 69.8 108.7 69.8C108.7 69.8 108.7 69.8 108.7 69.7V69.6C108.7 69.7 108.7 69.5 108.7 69.5C108.7 69.5 108.7 69.4 108.8 69.4L108.9 69.3L109 69.2C109.2 69.1 109.3 69 109.5 68.9C109.7 68.8 109.9 68.8 110.2 68.8C110.4 68.8 110.5 68.5 110.5 68.3C110.3 68.2 110.1 68.2 109.9 68.2Z" fill="#7E4927"/>
<path d="M106.6 69.2999C104.9 68.9999 103.1 69.7999 102.4 71.3999C102.3 71.5999 102.3 71.7999 102.5 71.8999C102.7 71.9999 102.9 71.8999 103 71.7999C103.6 70.5999 105 69.7999 106.4 69.9999C106.6 69.9999 106.8 69.8999 106.9 69.6999C106.9 69.4999 106.8 69.2999 106.6 69.2999Z" fill="#7E4927"/>
<path d="M95 69.3C95 70.7 95 72.1 95 73.5C95 74 95.7 74 95.7 73.5C95.7 72.1 95.7 70.7 95.7 69.3C95.8 68.8 95 68.8 95 69.3Z" fill="#7E4927"/>
<path d="M80.2 36.5C79.3 38.5 80.5 41.1 82.7 41.7C83.2 41.8 83.4 41.1 82.9 41C81.2 40.6 80.2 38.5 80.9 36.9C81 36.7 81 36.5 80.8 36.4C80.5 36.3 80.3 36.3 80.2 36.5Z" fill="#7E4927"/>
<path opacity="0.49" d="M70.1 40.9L65.8 32.2L67.1 42.2999L70.1 40.9Z" fill="#7E4927"/>
<path d="M67 19.3C67.5 20.4 67.6 21.5 67.6 22.7C67.6 22.9 67.8 23.1 68 23.1C68.2 23.1 68.4 22.9 68.4 22.7C68.5 21.4 68.3 20.1 67.7 19C67.6 18.8 67.4 18.8 67.2 18.9C67 18.9 67 19.2 67 19.3Z" fill="#7E4927"/>
<path d="M66 20.6C66.6 20.8 67.3 21 67.9 21.2C68.1 21.3 68.3 21.1 68.4 20.9C68.4 20.7 68.3 20.5 68.1 20.4C67.5 20.2 66.8 20 66.2 19.8C66 19.7 65.8 19.9 65.7 20.1C65.7 20.3 65.8 20.5 66 20.6Z" fill="#7E4927"/>
<path d="M100.5 18.8C101.4 18.1 101.7 17 101.5 15.9C101.3 14.7 100.6 13.7 99.7 12.9C98.8 12.2 97.8 11.7 96.8 11.2C95.8 10.7 94.9 10.2 93.9 9.7C93.1 9.2 92.2 8.7 91.6 8C90.9 7.3 90.3 6.4 89.8 5.5C88.8 3.8 87.8 1.8 86.1 0.699998C83.9 -0.700002 80.9 -0.100002 79.3 2C79 2.4 79.7 2.8 79.9 2.4C81.2 0.699998 83.6 0.199998 85.5 1.3C87.2 2.3 88.1 4.1 89 5.7C89.5 6.5 90 7.4 90.7 8.1C91.3 8.8 92 9.3 92.7 9.8C93.6 10.4 94.5 10.9 95.4 11.4C96.2 11.8 97.1 12.2 97.9 12.7C99 13.3 100.2 14.1 100.6 15.3C101 16.3 100.9 17.6 100 18.3C99.6 18.6 100.1 19.1 100.5 18.8Z" fill="black"/>
<path d="M82.7114 33.6861C83.3332 34.045 84.2402 33.6382 84.7372 32.7773C85.2343 31.9164 85.1332 30.9274 84.5114 30.5685C83.8897 30.2095 82.9827 30.6164 82.4856 31.4773C81.9886 32.3382 82.0897 33.3271 82.7114 33.6861Z" fill="black"/>
<path d="M89 27.5C88.8 28.8 87.2 29.7 86 29.2C85.5 29 85.1 28.6 84.7 28.3C83.6 27.7 82.2 27.9 81 27.5C80.9 27.5 80.8 27.4 80.7 27.3C80.6 27.1 80.8 26.8 81.1 26.7C83.6 25.5 86.7 25.6 89 27.2V27.5Z" fill="black"/>
<path d="M62 76.4C61.1 72.8 61.8 69 62.3 65.3C62.8 61.6 62.9 57.8 62.7 54C62.3 48.2 60.9 41.1 55.2 38.3C52.5 37 49.1 36.8 46.6 38.6C46.2 38.9 46.6 39.5 47 39.2C49.2 37.7 52 37.7 54.4 38.7C57 39.8 58.9 42 60 44.5C61.3 47.3 61.7 50.5 62 53.5C62.3 57.1 62.2 60.8 61.7 64.4C61.2 68.4 60.4 72.4 61.4 76.4C61.4 77.1 62.1 76.9 62 76.4Z" fill="#54260C"/>
<path d="M41.4 50.5C40.6 56.7 39.8 62.9 40.4 69.1C40.6 70.7 40.8 72.2 41.2 73.7C41.5 75.2 42 76.6 42.4 78.1C42.8 79.7 43 81.2 43 82.8C43 84.3 42.9 85.7 43.1 87.2C43.5 90.2 44.6 93.1 45.8 95.9C46 96.3 46.6 96 46.4 95.5C45.3 93.1 44.3 90.5 43.9 87.9C43.7 86.5 43.7 85.1 43.7 83.6C43.7 82 43.6 80.5 43.3 78.9C43 77.4 42.5 75.9 42.1 74.5C41.7 73 41.4 71.5 41.2 70C40.8 67 40.8 63.9 41 60.8C41.2 57.3 41.7 53.9 42.1 50.4C42.1 50.2 41.9 50 41.7 50C41.6 50.1 41.5 50.3 41.4 50.5Z" fill="#54260C"/>
<path d="M49 101.5C51 99.7 53.8 99 56.1 97.7C58.3 96.4 60.2 94.6 61.7 92.5C62.5 91.3 63.2 90 63.7 88.7C63.9 88.3 63.2 88.1 63 88.5C62.1 90.8 60.7 93 58.9 94.7C58 95.6 57 96.3 55.9 97C54.8 97.7 53.5 98.2 52.3 98.7C50.9 99.3 49.6 100 48.5 101C48.1 101.3 48.7 101.8 49 101.5Z" fill="#54260C"/>
<path d="M58.5 97.7001C56.8 98.9001 55.3 100.3 54.1 101.9C54 102.1 53.9 102.3 54.1 102.4C54.2 102.5 54.5 102.6 54.6 102.4C55.8 100.8 57.3 99.4001 58.9 98.3001C59.1 98.2001 59.1 98.0001 59 97.8001C58.9 97.7001 58.7 97.6001 58.5 97.7001Z" fill="#54260C"/>
<path d="M59.3 98.8999C58.9 99.7999 58.3 100.6 57.7 101.3C57.6 101.4 57.6 101.7 57.7 101.8C57.8 101.9 58.1 102 58.2 101.8C58.9 101 59.5 100.2 59.9 99.1999C60 98.9999 59.9 98.7999 59.8 98.6999C59.7 98.5999 59.4 98.6999 59.3 98.8999Z" fill="#54260C"/>
<path d="M59.8 75.7C58.4 77 57 78.3 55.6 79.6C55.3 79.8 55.6 80.4 56 80.2C56.8 79.9 57.5 79.6 58.3 79.4C58.5 79.3 58.6 79.3 58.8 79.2C58.9 79.2 58.9 79.2 59 79.1C59.1 79.1 59.1 79 59 79V79.1C58.8 79.4 58.7 79.7 58.5 80C57.7 81.3 56.9 82.5 56 83.7C55.7 84.1 56.4 84.5 56.6 84.1C57.2 83.4 57.7 82.6 58.2 81.8C58.7 81.1 59.2 80.3 59.6 79.5C59.7 79.2 59.8 78.9 59.7 78.6C59.5 78.2 59.1 78.3 58.7 78.4C57.8 78.7 56.8 79.1 55.9 79.4C56 79.6 56.1 79.8 56.3 80C57.7 78.7 59.1 77.4 60.5 76.1C60.7 75.9 60.2 75.4 59.8 75.7Z" fill="#54260C"/>
<path d="M1.70003 92.1C3.80003 92.8 6.00003 92.1 8.00003 91.3C9.10003 90.9 10.1 90.4 11.2 90.1C12.4 89.7 13.5 89.5 14.8 89.4C17.4 89.2 20 89.1 22.6 89C25.2 88.9 27.8 88.8 30.4 88.7C33.4 88.6 36.3 88.4 39.3 88.3C39.8 88.3 39.8 87.5 39.3 87.6C34.1 87.8 28.9 88 23.7 88.3C21.1 88.4 18.5 88.5 16 88.7C14.7 88.8 13.5 88.9 12.2 89.2C11.1 89.5 10.1 89.9 9.00003 90.3C6.80003 91.2 4.30003 92.2 1.90003 91.5C1.50003 91.2 1.30003 91.9 1.70003 92.1Z" fill="#54260C"/>
<path d="M13 69.8001C15.1 71.8001 17.6 73.3001 20.4 74.2001C20.7 74.3001 21 73.9001 20.8 73.7001C19.4 71.1001 17 69.4001 14.6 67.8001C14.5 68.0001 14.4 68.3001 14.3 68.5001C17.4 69.1001 20.4 69.7001 23.5 70.3001C24 70.4001 24.2 69.7001 23.7 69.6001C20.6 69.0001 17.6 68.4001 14.5 67.8001C14.1 67.7001 13.9 68.2001 14.2 68.5001C16.4 70.0001 18.8 71.7001 20.1 74.1001C20.2 73.9001 20.4 73.7001 20.5 73.6001C17.9 72.8001 15.4 71.4001 13.4 69.4001C13.2 68.9001 12.7 69.4001 13 69.8001Z" fill="#54260C"/>
<path d="M38.8 51.9C39 53.3 39.5001 54.7 40.2001 55.9C40.4001 56.3 41.1 55.9 40.8 55.5C40.1 54.3 39.6001 53 39.4001 51.7C39.4001 51.5 39.1001 51.4 38.9001 51.4C38.9001 51.5 38.8 51.7 38.8 51.9Z" fill="#54260C"/>
<path d="M7.00001 137.6C7.80001 138.9 8.70001 140.2 9.50001 141.6C9.80001 142.1 10.2 142.6 10.8 142.7C11.4 142.8 12 142.6 12.5 142.4C13 142.2 13.6 141.9 14.2 142C14.7 142.1 15.2 142.4 15.6 142.8C16.6 143.8 16.8 145.2 17.1 146.5C17.3 147.8 17.7 149 18.4 150.1C19.1 151.1 20 152 21 152.7C23.3 154.3 26.2 154.9 28.9 155.3C31.4 155.7 34.4 155.8 36.3 153.8C36.6 153.5 36.1 152.9 35.8 153.3C34.2 155 31.6 154.9 29.5 154.7C26.9 154.4 24.1 153.8 21.9 152.4C20.9 151.8 20 151 19.3 150C18.5 148.9 18.2 147.7 17.9 146.5C17.7 145.2 17.4 143.9 16.7 142.9C16.1 142 15.1 141.3 13.9 141.4C13.2 141.4 12.6 141.8 12 142C11.7 142.1 11.4 142.2 11.1 142.1C10.8 142 10.5 141.8 10.4 141.5C9.40001 140.1 8.60001 138.7 7.70001 137.3C7.40001 136.9 6.80001 137.2 7.00001 137.6Z" fill="white"/>
<path d="M27.3 142.3C25.5 142.7 24.3 144.5 23.9 146.2C23.6 147.2 23.6 148.2 24 149.1C24.3 149.9 25 150.6 25.9 150.8C26.8 151.1 27.7 150.8 28.5 150.4C29.2 150 30.1 149.3 30.4 148.6C30.5 148.3 30.6 147.9 30.5 147.6C30.4 147.2 29.9 147 29.5 147.1C28.7 147.2 28 147.9 27.7 148.6C27.3 149.5 27.5 150.4 28.1 151.1C28.7 151.8 29.7 152.1 30.6 151.9C31.1 151.8 30.9 151.1 30.4 151.2C29.2 151.5 28 150.4 28.3 149.2C28.4 148.6 28.8 148.1 29.4 147.9C29.6 147.8 29.9 147.7 29.8 148C29.8 148.3 29.6 148.5 29.4 148.7C28.6 149.6 27.1 150.7 25.8 150.1C24.4 149.5 24.2 147.7 24.6 146.4C25 145 25.9 143.4 27.5 143C28 142.9 27.8 142.2 27.3 142.3Z" fill="white"/>
<path d="M40.5 143.9C42.3 145.1 44.6 144.6 46.4 143.8C48.3 143 50.2 141.7 52.3 141.5C53.3 141.4 54.2 141.5 55 142.1C55.8 142.7 56.3 143.5 57 144.2C57.9 144.9 59 145 60.1 145C61.4 145 62.7 145 64 144.9C66.9 144.7 69.8 144.3 72.7 143.8C73.2 143.7 73 143 72.5 143.1C70 143.6 67.5 143.9 64.9 144.1C63.6 144.2 62.4 144.3 61.1 144.3C60 144.3 58.7 144.5 57.7 143.9C56.9 143.4 56.5 142.5 55.7 141.9C55 141.3 54.1 140.9 53.1 140.9C51 140.8 49.1 141.8 47.3 142.7C45.4 143.7 42.8 144.8 40.7 143.4C40.4 143 40.1 143.6 40.5 143.9Z" fill="white"/>
<path d="M55.2 135.4C55 137.1 55.3 138.9 56.6 140C57.7 141 59.4 141.3 60.6 140.4C61.2 140 61.6 139.3 61.7 138.6C61.8 137.9 61.4 137.2 60.8 136.9C60.2 136.6 59.5 136.7 59.2 137.4C58.9 138.1 59.1 138.8 59.5 139.4C60.3 140.9 61.9 141.9 63.6 142.1C64.1 142.2 64.1 141.4 63.6 141.4C62.5 141.3 61.4 140.7 60.6 139.8C60.2 139.4 59.9 138.9 59.8 138.3C59.7 137.9 59.8 137.3 60.3 137.5C60.7 137.7 61 138.2 60.9 138.6C60.8 139.1 60.5 139.6 60 139.9C59 140.5 57.8 140.2 57 139.5C55.9 138.5 55.7 136.9 55.9 135.4C56 134.9 55.2 135 55.2 135.4Z" fill="white"/>
<path d="M130.8 126.8C134.5 128.4 138.5 126.8 141.6 124.6C142.5 123.9 143.4 123.2 144.3 122.5C144.7 122.2 144.1 121.7 143.8 122C141 124.3 137.9 126.7 134.1 126.8C133.1 126.8 132.1 126.6 131.1 126.2C130.7 126 130.3 126.6 130.8 126.8Z" fill="#7E4927"/>
<path d="M129.4 115.7C131.4 116 133.5 115.8 135.4 115.1C136.3 114.7 137.2 114.2 138 113.6C138.8 113 139.4 112.4 140.2 111.8C141 111.2 141.9 110.6 142.9 110.6C143.4 110.6 143.4 109.8 142.9 109.9C141 110 139.6 111.4 138.3 112.5C136.8 113.8 135 114.7 133 115.1C131.9 115.3 130.7 115.3 129.6 115.1C129.1 114.9 128.9 115.7 129.4 115.7Z" fill="#7E4927"/>
<path d="M147.9 150.9C148.4 148.8 149.7 147 151.4 145.6C153.3 144.1 155.6 143.2 157.9 142.6C159.3 142.2 160.7 142 162.2 141.8C162.7 141.7 162.5 141 162 141.1C157.1 141.9 151.9 143.1 148.8 147.3C148 148.3 147.5 149.5 147.2 150.7C147.1 151.2 147.8 151.4 147.9 150.9Z" fill="#7E4927"/>
<path d="M145 165.4C143.8 165.8 143.2 167.3 143.7 168.5C143.8 168.7 144 168.7 144.2 168.6C144.4 168.5 144.4 168.3 144.3 168.1C144.3 168 144.3 168.2 144.3 168.1V168C144.3 167.9 144.3 167.9 144.3 167.8V167.7C144.3 167.6 144.3 167.6 144.3 167.5C144.3 167.4 144.3 167.4 144.3 167.3V167.2C144.3 167.1 144.4 167 144.4 166.9C144.4 166.9 144.4 166.9 144.4 166.8C144.4 166.7 144.5 166.7 144.5 166.6C144.5 166.6 144.5 166.6 144.5 166.5C144.5 166.4 144.6 166.4 144.6 166.4L144.7 166.3C144.7 166.3 144.7 166.3 144.8 166.3C144.8 166.3 144.9 166.2 145 166.2H145.1C145.3 166.1 145.4 165.9 145.4 165.7C145.4 165.5 145.2 165.3 145 165.4Z" fill="#7E4927"/>
<path d="M147.1 166.5C146.2 166.8 145.5 167.7 145.5 168.7C145.5 168.9 145.7 169.1 145.9 169.1C146.1 169.1 146.3 168.9 146.3 168.7C146.3 168.6 146.3 168.6 146.3 168.5V168.4C146.3 168.5 146.3 168.5 146.3 168.4C146.3 168.3 146.3 168.3 146.3 168.3V168.2C146.3 168.2 146.3 168.1 146.4 168.1C146.4 168.1 146.4 168.1 146.4 168C146.4 167.9 146.5 167.8 146.6 167.7C146.6 167.7 146.6 167.7 146.6 167.6L146.7 167.5L146.8 167.4C146.8 167.4 146.8 167.4 146.9 167.4C147 167.3 147.1 167.3 147.1 167.3C147.1 167.3 147.1 167.3 147.2 167.3C147.3 167.3 147.3 167.3 147.4 167.2C147.6 167.1 147.7 166.9 147.7 166.7C147.5 166.6 147.3 166.5 147.1 166.5Z" fill="#7E4927"/>
<path d="M127.9 158.5C127.2 158.6 126.7 159 126.4 159.6C126.1 160.2 126.1 160.9 126.5 161.5C126.6 161.7 126.8 161.7 127 161.6C127.2 161.5 127.3 161.3 127.1 161.1C127.1 161 127 161 127 160.9C127 160.9 127 160.9 127 160.8C127 160.7 127 160.7 127 160.6V160.5C127 160.4 127 160.4 127 160.3V160.2C127 160.1 127 160.1 127 160V159.9C127 159.9 127 159.9 127 159.8C127.1 159.7 127.1 159.6 127.2 159.5C127.2 159.5 127.2 159.5 127.3 159.4L127.4 159.3C127.4 159.3 127.4 159.3 127.5 159.3C127.5 159.3 127.6 159.2 127.7 159.2C127.7 159.2 127.7 159.2 127.8 159.2H127.9H128C128 159.2 128 159.2 128.1 159.2C128 159.2 128 159.2 128.1 159.2C128.3 159.2 128.5 159 128.5 158.8C128.2 158.7 128.1 158.5 127.9 158.5Z" fill="#7E4927"/>
<path d="M129.7 159.3C128.8 159.6 128.2 160.7 128.5 161.6C128.6 161.8 128.8 161.9 129 161.9C129.2 161.8 129.3 161.6 129.3 161.4V161.3C129.3 161.3 129.3 161.3 129.3 161.2V161.1V161C129.3 160.9 129.3 160.9 129.3 161V160.9V160.8V160.7C129.3 160.6 129.3 160.8 129.3 160.7C129.3 160.7 129.3 160.7 129.3 160.6C129.3 160.6 129.3 160.5 129.4 160.5C129.4 160.5 129.4 160.5 129.4 160.4C129.5 160.3 129.5 160.3 129.5 160.3L129.6 160.2C129.5 160.2 129.7 160.1 129.6 160.2C129.6 160.2 129.7 160.2 129.7 160.1L129.8 160C129.9 160 129.9 160 129.9 160C130.1 159.9 130.2 159.7 130.2 159.5C130.1 159.4 129.9 159.2 129.7 159.3Z" fill="#7E4927"/>
<path d="M108 91.0999C109.3 91.1999 109.5 89.0999 110.7 88.5999C112 87.9999 113.8 89.5999 114.7 88.4999C114.5 87.6999 113.6 87.2999 112.8 87.0999C111.6 86.7999 110.3 86.7 109 86.9C108.5 87 108.1 87.1 107.7 87.3C107.1 87.7 106.7 88.3999 106.7 89.1999C106.8 89.8999 107.2 90.6 107.9 90.9L108 91.0999Z" fill="black"/>
<path d="M121.7 89.3999C121.9 88.5999 122.6 87.9999 123.5 88.0999C124.3 88.1999 124.9 88.9999 124.9 89.6999C124.9 90.1999 125.6 90.1999 125.6 89.6999C125.6 88.4999 124.7 87.4999 123.5 87.2999C122.3 87.1999 121.2 87.9999 121 89.1999C121 89.3999 121.1 89.5999 121.3 89.6999C121.5 89.6999 121.7 89.5999 121.7 89.3999Z" fill="black"/>
<path d="M108.4 91.2999C109.2 92.9999 110.8 94.2999 112.6 94.7999C113.6 94.9999 114.6 94.9999 115.5 94.4999C116.3 93.9999 116.8 93.2999 116.8 92.3999C116.8 91.8999 116.1 91.8999 116.1 92.3999C116 93.0999 115.5 93.6999 114.9 93.9999C114.1 94.3999 113.2 94.2999 112.4 93.9999C110.9 93.4999 109.7 92.3999 109 90.9999C108.8 90.4999 108.2 90.8999 108.4 91.2999Z" fill="#7E4927"/>
<path d="M123.4 84.0999C123 83.9999 122.6 84.5 122.8 85C122.9 85.4 123.3 85.7 123.7 85.8C124.1 85.9 124.5 85.8999 124.9 86.0999C125.5 86.2999 126.1 86.8 126.7 87C127.3 87.2 128.2 86.8999 128.3 86.1999C128.3 85.7999 128 85.3999 127.7 85.1999C127.1 84.5999 126.4 83.9999 125.6 83.6999C124.8 83.3999 123.8 83.3 123.1 83.8L123.4 84.0999Z" fill="black"/>
<path d="M155.6 126.7C155.3 127.3 155.7 128.1 156.3 128.4C156.9 128.7 157.7 128.5 158.2 128.1C159 127.4 159 126 158.1 125.4C157.2 124.8 155.8 125.4 155.8 126.5L155.6 126.7Z" fill="#7E4927"/>
<path d="M160.8 129.5C159.8 130.8 160.1 132.8 161.4 133.7C162.7 134.6 164.7 134.3 165.6 133C166.2 132.2 166.3 131.2 166.4 130.2C166.4 129.8 166.5 129.3 166.3 129C166.1 128.5 165.5 128.1 165 127.9C163.2 127.3 161.1 128.3 160.4 130L160.8 129.5Z" fill="#7E4927"/>
<path d="M160.5 122.2C160.5 122.7 160.5 123.1 160.7 123.6C160.9 124 161.5 124.3 161.9 124.1C162.1 124 162.2 123.8 162.3 123.6C162.6 123 162.4 122.3 161.9 121.9C161.4 121.6 160.5 122 160.6 122.6L160.5 122.2Z" fill="#7E4927"/>
<path d="M138.3 84.9C139.5 86.2 140.8 87.4 142.2 88.4C142.4 88.5 142.6 88.4 142.7 88.3C142.8 88.1 142.7 87.9 142.6 87.8C141.2 86.8 139.9 85.7 138.8 84.4C138.5 84 138 84.5 138.3 84.9Z" fill="#54260C"/>
<path d="M144.8 83C145.4 84.2 145.9 85.3 146.5 86.5C146.6 86.7 146.8 86.7 147 86.6C147.2 86.5 147.2 86.3 147.1 86.1C146.5 84.9 146 83.8 145.4 82.6C145.3 82.4 145.1 82.4 144.9 82.5C144.7 82.6 144.7 82.8 144.8 83Z" fill="#54260C"/>
<path d="M147.1 84.3999C147.4 85.4999 148 86.4999 148.8 87.2999C148.9 87.3999 149.2 87.3999 149.3 87.2999C149.4 87.1999 149.4 86.8999 149.3 86.7999C148.6 86.0999 148 85.1999 147.8 84.1999C147.7 83.9999 147.5 83.8999 147.3 83.8999C147.2 83.8999 147.1 84.1999 147.1 84.3999Z" fill="#54260C"/>
<path d="M127.4 105.1C134.1 104.3 140.5 101.7 145.9 97.7C146.5 97.2 146.7 96.4 146.2 95.8C146.1 95.7 146.1 95.6 146 95.5C145.5 94.8 144.6 94.6 143.9 95.1C139 98.9 133.1 101.4 127 102.3C126.1 102.4 125.6 103.3 125.9 104.2C126.1 104.8 126.7 105.2 127.4 105.1Z" fill="#7E4927"/>
<path d="M131 103.3C134.9 102.8 138.6 101.6 141.9 99.5999C142.8 98.9999 143.7 98.3999 144.8 98.0999C145.3 97.9999 145.1 97.2999 144.6 97.3999C143.7 97.6999 142.9 98.0999 142.1 98.5999C141.3 99.0999 140.5 99.5999 139.6 99.9999C137.9 100.9 136 101.5 134.2 102C133.1 102.3 132.1 102.5 131 102.6C130.5 102.6 130.5 103.4 131 103.3Z" fill="#54260C"/>
<path d="M158.2 112.9C159.3 112.9 160.4 112.9 161.5 112.9C162 112.9 162 112.2 161.5 112.2C160.4 112.2 159.3 112.2 158.2 112.2C157.8 112.2 157.8 112.9 158.2 112.9Z" fill="#F59F18"/>
<path d="M160.1 115C161 115 161.9 115 162.8 115C163 115 163.2 114.8 163.2 114.6C163.2 114.4 163 114.2 162.8 114.2C161.9 114.2 161 114.2 160.1 114.2C159.9 114.2 159.7 114.4 159.7 114.6C159.7 114.8 159.9 115 160.1 115Z" fill="#F59F18"/>
<path d="M175.2 139C175.9 138.4 176.8 138 177.7 137.8C177.9 137.8 178 137.5 178 137.3C177.9 137.1 177.7 137 177.5 137C176.5 137.2 175.5 137.7 174.7 138.4C174.5 138.5 174.6 138.8 174.7 138.9C174.8 139.2 175 139.2 175.2 139Z" fill="#F59F18"/>
<path d="M175.8 140C176.5 139.7 177.2 139.5 177.9 139.2C178.1 139.1 178.2 138.9 178.2 138.7C178.1 138.5 177.9 138.4 177.7 138.4C177 138.7 176.3 138.9 175.6 139.2C175.4 139.3 175.3 139.5 175.3 139.7C175.4 139.9 175.6 140 175.8 140Z" fill="#F59F18"/>
<path d="M125.3 119.6C124.7 120.4 124 121.2 123.4 122C123.3 122.2 123.2 122.4 123.4 122.5C123.5 122.6 123.8 122.7 123.9 122.5C124.5 121.7 125.2 120.9 125.8 120.1C125.9 119.9 126 119.7 125.8 119.6C125.7 119.5 125.5 119.4 125.3 119.6Z" fill="#F59F18"/>
<path d="M125.8 121.4C125.7 121.7 125.6 122 125.4 122.3C125.2 122.6 125.1 122.9 124.8 123.2C124.7 123.4 124.8 123.6 124.9 123.7C125.1 123.8 125.3 123.7 125.4 123.6C125.8 123 126.2 122.3 126.4 121.6C126.5 121.4 126.3 121.2 126.1 121.1C126.1 121.1 125.9 121.2 125.8 121.4Z" fill="#F59F18"/>
<path d="M124.7 98.2001C124.1 98.6001 123.6 99.0001 123.2 99.6001C123.1 99.7001 123.1 99.8001 123.1 99.9001C123.1 100 123.1 100.1 123.2 100.2C123.3 100.3 123.6 100.4 123.7 100.2C123.9 100 124.1 99.7001 124.3 99.5001C124.4 99.4001 124.5 99.3001 124.7 99.2001C124.7 99.2001 124.8 99.2001 124.8 99.1001C124.9 99.1001 124.9 99.0001 125 99.0001C125.2 98.9001 125.2 98.7001 125.1 98.5001C125.1 98.2001 124.9 98.1001 124.7 98.2001Z" fill="#F59F18"/>
<path d="M125.5 98.8999C125.2 99.4999 124.9 100.1 124.7 100.8C124.6 101 124.6 101.2 124.8 101.3C125 101.4 125.2 101.4 125.3 101.2C125.6 100.6 125.9 99.9999 126.1 99.2999C126.2 99.0999 126.2 98.8999 126 98.7999C125.8 98.5999 125.6 98.6999 125.5 98.8999Z" fill="#F59F18"/>
<path d="M131.7 106.4C131.2 107.8 131 109.5 132.3 110.6C133.5 111.5 135.2 110.8 136.2 110C137.2 109.2 138.1 108 138.2 106.6C138.3 106 138.1 105.3 137.5 105.2C136.8 105 136.2 105.9 135.9 106.5C135.6 107.1 135.4 107.9 135.7 108.6C135.9 109.2 136.4 109.8 137.1 109.9C138.5 110.1 139.9 108.8 140.5 107.6C140.8 106.9 141 106.2 141 105.5C141 104.9 140.6 104.1 139.9 104.5C139.4 104.8 139.2 105.5 139.2 106C139.2 106.6 139.4 107.1 139.8 107.5C140.8 108.7 142.5 108.5 143.6 107.6C144.6 106.7 145.3 104.8 144 103.9C143.8 103.8 143.5 103.9 143.5 104.1C143.3 105 143.9 105.7 144.7 105.9C145.7 106.2 146.7 105.7 147.5 105.2C147.9 105 147.5 104.3 147.1 104.6C146.5 104.9 145.8 105.4 145.1 105.3C144.6 105.3 144 104.8 144.1 104.3C143.9 104.4 143.7 104.4 143.6 104.5C144.4 105 143.9 106.3 143.4 106.8C142.8 107.4 141.8 107.9 140.9 107.5C140.2 107.2 139.8 106.3 140 105.6C140 105.4 140.1 105.3 140.2 105.2L140.3 105.1C140.2 105.2 140.2 105 140.2 105.1C140.2 105.2 140.2 105.4 140.2 105.5C140.2 106 140.1 106.5 139.8 107C139.4 107.9 138.6 108.8 137.6 109.1C136.4 109.4 136 108.1 136.3 107.2C136.4 107 136.5 106.7 136.7 106.5C136.8 106.4 137 106 137.2 106C137.5 106 137.3 106.9 137.2 107.1C136.9 108 136.4 108.9 135.6 109.5C134.8 110.1 133.4 110.8 132.5 110.2C131.4 109.4 131.7 107.9 132.1 106.8C132.5 106.2 131.8 106 131.7 106.4Z" fill="#C87C0D"/>
<path d="M148.1 131.3C148.1 132.2 148.4 133 149 133.7C149.1 133.8 149.4 133.8 149.5 133.7C149.6 133.5 149.6 133.3 149.5 133.2C149.3 133 149.1 132.6 149 132.4C148.9 132.2 148.9 132 148.9 131.9C148.9 131.9 148.9 131.9 148.9 131.8V131.7C148.9 131.6 148.9 131.5 148.9 131.4C148.9 131.2 148.7 131 148.5 131C148.3 130.9 148.1 131.1 148.1 131.3Z" fill="#C87C0D"/>
<path d="M151.3 129.5C151 130.5 151.1 131.6 151.6 132.5C151.7 132.7 151.9 132.7 152.1 132.6C152.3 132.5 152.3 132.3 152.2 132.1C151.8 131.3 151.8 130.5 152 129.6C152.1 129.4 151.9 129.2 151.7 129.1C151.5 129.2 151.3 129.3 151.3 129.5Z" fill="#C87C0D"/>
<path d="M153.1 118.6C153.7 119.6 154 120.8 154.1 122C154.1 122.5 154.9 122.5 154.8 122C154.8 120.7 154.4 119.4 153.7 118.3C153.6 117.8 152.9 118.1 153.1 118.6Z" fill="#C87C0D"/>
<path d="M155.6 136.2C155.8 136.6 156 137 156.2 137.4C156.3 137.6 156.5 137.6 156.7 137.5C156.9 137.4 156.9 137.2 156.8 137C156.6 136.6 156.4 136.2 156.2 135.8C156.1 135.6 155.9 135.6 155.7 135.7C155.6 135.8 155.5 136.1 155.6 136.2Z" fill="#C87C0D"/>
<path d="M158.2 136.4C158.4 136.8 158.6 137.2 158.8 137.7C158.8 137.8 158.9 137.8 159 137.9C159.1 137.9 159.2 137.9 159.3 137.9C159.4 137.8 159.4 137.8 159.5 137.7C159.5 137.6 159.5 137.5 159.5 137.4C159.3 137 159.1 136.6 158.9 136.1C158.9 136 158.8 136 158.7 135.9C158.6 135.9 158.5 135.9 158.4 135.9C158.3 136 158.3 136 158.2 136.1C158.1 136.2 158.1 136.3 158.2 136.4Z" fill="#C87C0D"/>
<path d="M154.7 147.7C153.6 148.7 153 150.2 153.2 151.7C153.2 151.9 153.4 152.1 153.6 152.1C153.8 152.1 154 151.9 154 151.7C153.8 150.4 154.3 149.1 155.3 148.3C155.5 148.2 155.4 147.9 155.3 147.8C155.1 147.5 154.8 147.6 154.7 147.7Z" fill="#C87C0D"/>
<path d="M156.1 151.2C155.8 151.5 155.7 151.8 155.6 152.2C155.5 152.6 155.6 153 155.7 153.4C155.7 153.5 155.8 153.5 155.9 153.6C156 153.6 156.1 153.6 156.2 153.6C156.4 153.5 156.4 153.3 156.3 153.1C156.3 153 156.3 153 156.3 152.9V152.8C156.3 152.7 156.3 152.6 156.3 152.5V152.4C156.3 152.3 156.3 152.5 156.3 152.4C156.3 152.4 156.3 152.4 156.3 152.3C156.3 152.2 156.3 152.2 156.3 152.1V152C156.4 151.9 156.4 151.8 156.4 151.8C156.4 151.8 156.4 151.7 156.5 151.7C156.6 151.6 156.6 151.3 156.5 151.2C156.5 151.1 156.3 151.1 156.1 151.2Z" fill="#C87C0D"/>
<path d="M157.9 152.5C157.9 153.1 157.9 153.6 157.9 154.2C157.9 154.4 158.1 154.6 158.3 154.6C158.5 154.6 158.7 154.4 158.7 154.2C158.7 153.6 158.7 153.1 158.7 152.5C158.7 152.3 158.5 152.1 158.3 152.1C158 152.1 157.9 152.3 157.9 152.5Z" fill="#C87C0D"/>
<path d="M154.7 156.9C154.7 157.6 155 158.3 155.5 158.8C155.6 158.9 155.9 158.9 156 158.8C156.1 158.7 156.1 158.4 156 158.3C155.9 158.2 155.9 158.2 155.9 158.1C155.9 158 155.8 158 155.8 158C155.8 157.9 155.7 157.9 155.7 157.8V157.7C155.6 157.6 155.6 157.4 155.6 157.3V157.2C155.6 157.2 155.6 157.2 155.6 157.1C155.6 157 155.6 156.9 155.6 156.9C155.6 156.7 155.4 156.5 155.2 156.5C154.9 156.5 154.7 156.6 154.7 156.9Z" fill="#C87C0D"/>
<path d="M162.9 146.8C162.8 147.5 162.9 148.2 163.1 148.9C163.2 149.1 163.4 149.2 163.6 149.2C163.8 149.1 163.9 148.9 163.9 148.7C163.8 148.6 163.8 148.4 163.8 148.3C163.8 148.2 163.8 148.1 163.8 148.1V148C163.8 148.1 163.8 148 163.8 147.9C163.8 147.8 163.8 147.6 163.8 147.5C163.8 147.4 163.8 147.4 163.8 147.3V147.2C163.8 147.2 163.8 147 163.8 147.1C163.8 147 163.8 146.9 163.8 146.8C163.8 146.7 163.7 146.6 163.6 146.6C163.2 146.5 162.9 146.6 162.9 146.8Z" fill="#C87C0D"/>
<path d="M136 123.7C136.8 123.8 137.6 123.7 138.4 123.5C138.6 123.4 138.7 123.2 138.7 123C138.6 122.8 138.4 122.7 138.2 122.7C138 122.8 137.8 122.8 137.7 122.8C137.5 122.8 137.4 122.9 137.2 122.9C136.8 122.9 136.4 122.9 136.1 122.9C135.9 122.9 135.7 123.1 135.7 123.3C135.6 123.6 135.8 123.7 136 123.7Z" fill="#C87C0D"/>
<path d="M137.1 121.2C137.4 121.1 137.8 120.9 138.1 120.8C138.2 120.8 138.3 120.7 138.3 120.6C138.3 120.5 138.4 120.4 138.3 120.3C138.3 120.2 138.2 120.1 138.1 120.1C138 120.1 137.9 120 137.8 120.1C137.5 120.2 137.1 120.4 136.8 120.5C136.7 120.5 136.6 120.6 136.6 120.7C136.6 120.8 136.5 120.9 136.6 121C136.6 121.1 136.7 121.2 136.8 121.2C136.9 121.2 137 121.3 137.1 121.2Z" fill="#C87C0D"/>
<path d="M131.4 123.9C131.6 124 131.8 124.2 132 124.3C132.1 124.4 132.2 124.4 132.3 124.3C132.4 124.3 132.5 124.2 132.5 124.1C132.5 124 132.6 123.9 132.5 123.8C132.5 123.7 132.4 123.6 132.3 123.6C132.1 123.5 131.9 123.3 131.7 123.2C131.6 123.1 131.5 123.1 131.4 123.2C131.3 123.2 131.2 123.3 131.2 123.4C131.2 123.5 131.1 123.6 131.2 123.7C131.3 123.8 131.3 123.8 131.4 123.9Z" fill="#C87C0D"/>
<path d="M124.2 116.4C124.3 116.8 124.3 117.2 124.4 117.6C124.4 117.7 124.5 117.8 124.6 117.8C124.7 117.8 124.8 117.9 124.9 117.8C125 117.8 125.1 117.7 125.1 117.6C125.1 117.5 125.2 117.4 125.1 117.3C125 116.9 125 116.5 124.9 116.1C124.9 116 124.8 115.9 124.7 115.9C124.6 115.9 124.5 115.8 124.4 115.9C124.3 115.9 124.2 116 124.2 116.1C124.1 116.2 124.1 116.3 124.2 116.4Z" fill="#C87C0D"/>
<path d="M126.5 116.7C126.7 117 126.9 117.3 127.1 117.5C127.2 117.6 127.2 117.6 127.3 117.7C127.4 117.7 127.5 117.7 127.6 117.7C127.7 117.6 127.7 117.6 127.8 117.5C127.8 117.4 127.8 117.3 127.8 117.2C127.6 116.9 127.4 116.6 127.2 116.4C127.1 116.3 127.1 116.3 127 116.2C126.9 116.2 126.8 116.2 126.7 116.2C126.6 116.3 126.6 116.3 126.5 116.4C126.4 116.5 126.4 116.6 126.5 116.7Z" fill="#C87C0D"/>
<path d="M109.1 104.5C109.6 105.1 110.1 105.6 110.8 106C111.4 106.4 112.2 106.7 112.9 107C113.4 107.2 114.3 107.9 113.8 108.5C113.5 109 112.7 109.1 112.2 109.2C112 109.2 111.9 109.5 111.9 109.7C112 110.2 112 110.6 111.7 111C111.3 111.4 110.8 111.5 110.3 111.6C109.8 111.7 110 112.4 110.5 112.3C111.2 112.2 111.9 111.9 112.3 111.4C112.8 110.9 112.8 110.2 112.6 109.5C112.5 109.7 112.4 109.8 112.3 110C113 109.9 113.8 109.7 114.2 109.1C114.7 108.4 114.5 107.5 113.9 107C113.3 106.4 112.3 106.2 111.6 105.8C110.8 105.4 110.1 104.8 109.5 104C109.3 103.6 108.8 104.2 109.1 104.5Z" fill="#7E4927"/>
<path d="M66.1 90.3C70.3 90.7 74.4 92.4 77.7 95.1C78.1 95.4 78.6 94.9 78.2 94.6C74.7 91.8 70.5 90 66.1 89.6C65.6 89.5 65.6 90.3 66.1 90.3Z" fill="#C23F37"/>
<path d="M55.8 29.8001C57.6 33.8001 58.5 38.2001 61.3 41.6001C62 42.5001 62.9 43.2001 63.8 43.8001C64.2 44.1001 64.6 43.4001 64.2 43.2001C60.6 40.9001 59.2 36.7001 57.8 33.0001C57.4 31.8001 56.9 30.6001 56.4 29.5001C56.2 29.0001 55.6 29.4001 55.8 29.8001Z" fill="#54260C"/>
</g>
<defs>
<clipPath id="clip0_209_653">
<rect width="190.4" height="169.8" fill="white"/>
</clipPath>
</defs>
</svg>
