<svg width="65" height="40" viewBox="0 0 65 40" fill="none" xmlns="http://www.w3.org/2000/svg">
<g clip-path="url(#clip0_211_4845)">
<path fill-rule="evenodd" clip-rule="evenodd" d="M25.0819 19.2134C25.0819 19.2134 26.0116 19.9106 26.3021 20.2786C26.5926 20.6466 27.0381 21.1696 27.4836 21.3632C27.9484 21.5763 28.5488 21.7119 28.5488 21.7119C28.5488 21.7119 28.9362 21.983 28.9943 21.6538C29.0524 21.3245 29.1299 21.4407 29.3623 21.1308C29.5947 20.8209 29.033 20.3561 29.033 20.3561C29.033 20.3561 29.6335 20.7628 29.8271 20.3174C29.924 20.1043 29.8078 20.0268 29.6528 19.9106C29.3817 19.7169 28.9168 19.5233 28.5876 19.3102C28.3164 19.1359 27.5804 18.6323 27.5804 18.6323C27.5804 18.6323 28.1615 18.4774 28.4714 18.3999C28.7813 18.3224 28.9362 18.0706 28.665 17.9738C28.3939 17.877 27.8709 17.8188 27.5223 17.8188C27.1931 17.8188 25.6823 18.0125 25.6823 18.0125L25.0819 19.2134Z" fill="#F2AD97"/>
<path fill-rule="evenodd" clip-rule="evenodd" d="M15.9402 12.7831C15.9402 12.7831 16.5212 14.1195 16.7537 14.7199C16.9861 15.3203 17.3541 16.5212 18.613 17.0441C19.8719 17.567 25.2951 19.3296 25.2951 19.3296L25.8761 18.1287C25.8761 18.1287 23.9006 16.8891 23.1839 16.3856C22.4673 15.882 21.7894 15.5721 21.0534 15.1847C20.3174 14.7974 19.6976 14.4487 19.6976 14.4487L18.4774 11.621L15.9402 12.7831Z" fill="#F2AD97"/>
<path fill-rule="evenodd" clip-rule="evenodd" d="M13.7321 7.57307C13.9064 8.81264 15.6108 13.9065 15.6108 13.9065C15.6108 13.9065 16.6374 13.2092 17.3734 12.88C18.1094 12.5507 19.0584 12.1052 19.0584 12.1052C19.0584 12.1052 18.2643 9.47116 17.935 8.65769C17.6058 7.84422 17.4315 7.14697 17.0828 6.64339C16.7342 6.13981 16.3081 5.52003 15.9014 5.46192C15.8239 5.44256 14.8167 5.44256 14.2744 5.9655C13.7321 6.50781 13.674 7.20507 13.7321 7.57307Z" fill="#C2DAE8"/>
<path fill-rule="evenodd" clip-rule="evenodd" d="M14.0614 35.8314C13.9258 36.0057 13.7128 36.2188 13.3835 36.3544C12.7056 36.6449 12.2795 36.6255 11.5629 36.6836C10.9043 36.7224 8.309 36.4899 7.86353 36.4512C7.88289 36.7417 7.97974 36.9935 8.38647 37.071C9.1031 37.1872 11.253 37.2647 11.8921 37.3034C12.5313 37.3421 14.1195 37.284 14.41 36.9741C14.7005 36.6643 14.8361 36.1413 14.4294 35.967C14.3519 35.9283 14.1776 35.8702 14.0614 35.8314Z" fill="#8DD7F7"/>
<path fill-rule="evenodd" clip-rule="evenodd" d="M20.3561 2.40173C20.3561 2.40173 19.6589 3.17647 18.9616 3.54446C18.245 3.91246 17.6833 4.06741 16.7343 4.24172C15.7852 4.39667 15.0105 4.51288 15.0105 4.51288L16.7536 8.50275C16.7536 8.50275 18.7098 7.39875 19.1553 7.1857C19.6202 6.97265 19.9688 6.74023 20.453 6.77897C20.9372 6.81771 22.3123 5.82992 22.6416 5.28761C22.9515 4.7453 23.4163 3.35078 22.8353 2.96341C22.2349 2.57605 20.3561 2.40173 20.3561 2.40173Z" fill="#F9B7A2"/>
<path fill-rule="evenodd" clip-rule="evenodd" d="M19.039 7.24377C19.0778 7.2244 19.1165 7.20503 19.1553 7.18567C19.6201 6.97261 19.9687 6.7402 20.4529 6.77893C20.5691 6.7983 20.7628 6.7402 20.9759 6.62399C21.1696 6.29472 21.2858 6.04294 21.2858 6.04294L21.5763 3.29264L20.7435 2.84717L19.4845 3.40885C19.4845 3.40885 19.4264 4.76463 19.3102 5.51999C19.194 6.04294 18.9616 6.68209 19.039 7.24377Z" fill="#F2AD97"/>
<path fill-rule="evenodd" clip-rule="evenodd" d="M10.8075 34.0883L7.88289 34.2238C7.88289 34.2238 7.88289 35.2891 7.88289 35.7346C7.88289 35.9476 7.86353 36.1994 7.86353 36.4318C8.309 36.4706 10.9043 36.703 11.5629 36.6642C12.2795 36.6255 12.7056 36.6449 13.3835 36.335C13.7128 36.1994 13.9258 35.9863 14.0614 35.812C13.5578 35.6184 12.8412 35.3278 12.5119 35.2116C12.1052 35.076 11.6016 34.8436 11.3305 34.6887C11.0787 34.5531 10.8075 34.0883 10.8075 34.0883Z" fill="#00ACC1"/>
<path fill-rule="evenodd" clip-rule="evenodd" d="M25.3337 3.25389C25.3337 3.25389 25.4305 4.06736 25.2756 4.74525C25.1207 5.42314 24.7333 5.65556 24.4815 5.92672C24.2297 6.21724 23.9198 6.43029 23.823 6.83703C23.7068 7.24376 23.6487 7.55365 23.3194 7.49555C22.9901 7.41808 22.8933 7.41808 22.5834 7.72797C22.2735 8.03786 21.7118 8.67701 21.2857 8.59954C20.8596 8.52207 20.0849 7.61176 19.9106 6.95324C19.7363 6.29471 20.2398 4.64841 20.6078 3.93178C20.9758 3.21515 21.8474 2.44042 22.8158 2.24674C23.7842 2.07243 24.1135 2.13053 24.404 2.36295C24.6752 2.59537 25.3337 3.25389 25.3337 3.25389Z" fill="#F9B7A2"/>
<path fill-rule="evenodd" clip-rule="evenodd" d="M18.8066 3.62191C18.8066 3.62191 19.4458 2.4017 20.1043 1.49139C20.7628 0.581083 21.9637 0.0968753 22.5447 0.0194021C23.1064 -0.0580711 24.1329 0.27119 24.8495 0.968449C25.5468 1.66571 25.7018 2.30486 25.8567 3.04086C26.0116 3.77685 25.5855 4.14485 24.927 3.9318C24.2685 3.71875 24.1136 3.29264 23.4163 3.81559C22.719 4.33853 22.351 4.55158 21.7506 4.51285C21.1502 4.47411 20.5111 3.9318 20.5111 3.9318L18.8066 3.62191Z" fill="#7F351A"/>
<path fill-rule="evenodd" clip-rule="evenodd" d="M12.4732 37.5746C12.3377 37.7489 12.1246 37.962 11.7954 38.0975C11.1175 38.3881 10.6914 38.3687 9.97473 38.4268C9.31621 38.4655 6.72086 38.2331 6.27539 38.1944C6.29476 38.4849 6.3916 38.7367 6.79833 38.8142C7.51496 38.9304 9.66484 39.0078 10.304 39.0466C10.9431 39.0853 12.5313 39.0272 12.8219 38.7173C13.1124 38.4074 13.248 37.8845 12.8412 37.7102C12.7444 37.6714 12.5895 37.6133 12.4732 37.5746Z" fill="#8DD7F7"/>
<path fill-rule="evenodd" clip-rule="evenodd" d="M9.21937 35.8314L6.29476 35.967C6.29476 35.967 6.29476 37.0323 6.29476 37.4777C6.29476 37.6908 6.27539 37.9426 6.27539 38.175C6.72086 38.2137 9.31621 38.4461 9.97473 38.4074C10.6914 38.3687 11.1175 38.388 11.7954 38.0781C12.1246 37.9426 12.3377 37.7295 12.4732 37.5552C11.9697 37.3615 11.253 37.071 10.9238 36.9548C10.517 36.8192 10.0135 36.5868 9.74232 36.4318C9.49053 36.2963 9.21937 35.8314 9.21937 35.8314Z" fill="#00ACC1"/>
<path fill-rule="evenodd" clip-rule="evenodd" d="M7.61177 15.0879C7.61177 15.0879 9.1806 18.0125 9.47113 18.7291C9.76165 19.4651 10.4783 21.3632 10.672 22.5059C10.8463 23.6487 11.0012 25.1981 10.9625 26.3409C10.9237 27.503 11.04 29.2267 10.9625 29.9434C10.9044 30.66 10.9625 31.4928 11.0787 32.3257C11.1949 33.1585 11.6016 34.3981 11.2724 34.7467C10.9237 35.0953 9.70355 35.5408 9.31618 35.1922C8.92881 34.8435 9.21934 29.2461 9.10313 27.9484C8.98692 26.6508 9.31618 23.7455 8.87071 22.564C8.42524 21.3826 7.61177 18.6323 7.20504 17.6832C6.77893 16.7342 6.23662 16.1725 6.39157 15.4559C6.54651 14.7392 7.05009 13.5771 7.05009 13.5771L7.61177 15.0879Z" fill="#647B97"/>
<path fill-rule="evenodd" clip-rule="evenodd" d="M1.54948 9.93591C1.54948 9.93591 0.368017 10.9043 0.116229 11.9696C-0.135558 13.0155 -0.11619 14.7586 1.04591 16.6954C2.20801 18.6323 3.93178 20.8596 4.59031 21.7893C5.24883 22.719 6.15914 24.0941 6.21724 25.3337C6.29471 26.5733 6.15914 28.8006 6.08166 29.6916C6.00419 30.5631 6.00419 32.3644 5.77177 33.2941C5.53935 34.2238 5.44251 35.5021 5.82988 35.9475C6.19787 36.393 7.22439 36.4511 8.01849 36.4511C8.81259 36.4511 9.52922 36.4124 9.78101 35.657C10.0328 34.921 9.52922 33.7783 9.62606 32.868C9.7229 31.9577 9.93596 29.6141 10.1296 28.4714C10.3233 27.3286 10.5945 24.5009 10.2652 23.4356C9.93596 22.3704 9.31617 19.8331 8.8707 19.0584C8.42523 18.2836 7.16629 15.0104 7.16629 15.0104C7.16629 15.0104 5.94609 13.6546 4.9002 12.5894C3.89305 11.5047 1.54948 9.93591 1.54948 9.93591Z" fill="#7C92AC"/>
<path fill-rule="evenodd" clip-rule="evenodd" d="M1.54943 9.93591C1.54943 9.93591 0.735958 10.5944 0.329224 11.4273C2.45974 13.674 4.53214 14.9329 7.37928 15.4752C7.26307 15.1654 7.1856 14.9717 7.1856 14.9717C7.1856 14.9717 5.9654 13.6159 4.91951 12.5506C3.89299 11.5047 1.54943 9.93591 1.54943 9.93591Z" fill="#647B97"/>
<path d="M20.6348 3.1809C20.3679 3.10275 20.0443 3.40557 19.9121 3.85726C19.7798 4.30895 19.889 4.73847 20.1559 4.81663C20.4228 4.89478 20.7464 4.59196 20.8786 4.14027C21.0109 3.68858 20.9017 3.25905 20.6348 3.1809Z" fill="#F9B7A2"/>
<path fill-rule="evenodd" clip-rule="evenodd" d="M15.5141 3.95118C13.9452 3.75749 11.9309 4.02865 10.8269 4.35791C9.70356 4.68717 7.7861 5.30696 6.41095 6.02358C5.0358 6.74021 4.00929 7.45684 3.29266 7.99915C2.55666 8.54146 0.77478 10.304 0.77478 10.304C0.77478 10.304 2.30488 11.9115 3.56381 12.7638C4.84212 13.616 5.01644 13.7903 5.88801 14.2938C6.75958 14.7974 7.47621 15.0105 7.47621 15.0105C7.47621 15.0105 8.67704 13.9258 9.47115 13.3835C10.2652 12.8412 11.2143 12.2795 12.6088 11.6791C13.984 11.0981 14.8362 10.4783 15.6884 10.0328C16.5212 9.58735 17.0635 9.27746 17.6058 8.85136C18.1288 8.40588 18.2644 8.09599 18.2837 7.59242C18.3031 7.08884 17.7995 5.88801 17.7995 5.88801C17.7995 5.88801 17.1023 4.14486 15.5141 3.95118Z" fill="#D4E6F1"/>
<path fill-rule="evenodd" clip-rule="evenodd" d="M2.76967 8.42519C1.93684 9.16119 0.755371 10.3233 0.755371 10.3233C0.755371 10.3233 2.28547 11.9309 3.54441 12.7831C4.82271 13.6353 4.99703 13.8096 5.8686 14.3132C6.74017 14.8167 7.4568 15.0298 7.4568 15.0298C7.4568 15.0298 8.65764 13.9452 9.45174 13.4028C10.2458 12.8605 11.1949 12.2989 12.5894 11.6984C13.9645 11.1174 14.8168 10.4976 15.669 10.0521C16.1725 9.78097 16.5793 9.56792 16.9279 9.3355C16.7148 8.40582 16.2694 7.22436 15.4172 6.81762C13.9258 6.101 10.9237 9.10308 7.55364 9.78097C5.36503 10.2264 3.67998 9.19992 2.76967 8.42519Z" fill="#C2DAE8"/>
<path fill-rule="evenodd" clip-rule="evenodd" d="M15.4946 13.1512C15.4946 13.1512 16.0757 14.4876 16.3081 15.088C16.5405 15.6884 16.9085 16.8892 18.1675 17.4122C19.4264 17.9351 24.8495 19.6976 24.8495 19.6976L25.4306 18.4968C25.4306 18.4968 23.455 17.2572 22.7384 16.7537C22.0217 16.2501 21.3439 15.9402 20.6079 15.5528C19.8719 15.1655 19.2521 14.8168 19.2521 14.8168L18.0319 12.0084L15.4946 13.1512Z" fill="#F9B7A2"/>
<path fill-rule="evenodd" clip-rule="evenodd" d="M15.4946 13.1512C15.4946 13.1512 15.7658 13.7709 15.9982 14.352C16.6955 14.0615 17.935 13.5579 18.5936 13.2867L18.0319 12.0084L15.4946 13.1512Z" fill="#F2AD97"/>
<path fill-rule="evenodd" clip-rule="evenodd" d="M13.7709 7.55369C13.8484 8.79326 15.1654 14.0033 15.1654 14.0033C15.1654 14.0033 16.2501 13.3836 17.0054 13.1124C17.7608 12.8412 18.7486 12.4732 18.7486 12.4732C18.7486 12.4732 18.1675 9.78105 17.8964 8.94821C17.6252 8.11537 17.509 7.39875 17.1991 6.8758C16.8892 6.35286 16.5212 5.69434 16.1145 5.61686C16.037 5.5975 15.0298 5.52002 14.4488 6.00423C13.8484 6.48844 13.7515 7.1857 13.7709 7.55369Z" fill="#D4E6F1"/>
<path fill-rule="evenodd" clip-rule="evenodd" d="M50.5706 27.6193C50.5706 27.6193 51.3454 30.1178 51.4035 30.9893C51.4809 31.8803 51.5197 32.5194 51.0936 33.2942C50.6675 34.0689 50.4738 34.3594 49.8346 34.5725C49.2149 34.7855 48.537 34.5337 48.4789 35.2697C48.4401 36.0057 49.7572 35.9864 50.59 35.9476C51.4228 35.9089 52.0426 35.0954 52.5656 34.3013C53.1079 33.5072 54.27 30.1759 54.0957 28.8007C53.9407 27.4256 52.9529 26.4572 52.9529 26.4572L50.5706 27.6193Z" fill="#C38E2C"/>
<path fill-rule="evenodd" clip-rule="evenodd" d="M55.6451 21.034C55.6451 21.034 57.0203 20.7241 58.163 21.4601C59.3057 22.1767 59.5382 23.0677 60.158 24.191C60.7777 25.3144 60.5841 26.2441 61.6299 26.399C62.6758 26.554 65.1162 26.1666 65 26.8445C64.8838 27.5224 64.2059 28.1615 63.2763 28.7813C62.3466 29.3817 60.8552 29.4011 59.7706 29.0137C58.686 28.6264 57.8338 26.8058 57.5045 26.1279C57.1752 25.4306 55.6451 21.034 55.6451 21.034Z" fill="#AE7A14"/>
<path fill-rule="evenodd" clip-rule="evenodd" d="M38.7366 28.4714C38.7366 28.4714 38.4848 30.1565 38.1943 31.2217C37.9038 32.287 37.8263 33.972 37.284 34.5531C36.7417 35.1341 35.6958 34.6887 35.3472 35.5602C34.9985 36.4318 35.4634 36.3737 36.5867 36.4318C37.7101 36.4899 38.0006 36.3156 38.5236 35.6958C39.0271 35.076 41.2157 29.5561 41.2157 29.5561L38.7366 28.4714Z" fill="#AE7A14"/>
<path fill-rule="evenodd" clip-rule="evenodd" d="M35.3665 21.7506C35.3665 21.7506 35.2503 23.0483 35.4633 23.8812C35.6764 24.7334 35.9475 25.7405 36.4898 26.2247C36.8385 26.5346 37.0321 26.7864 37.2065 27.0576C37.3808 26.922 42.7071 27.0963 43.6755 28.3746C47.2199 28.3359 48.7693 28.2778 52.0619 27.1931C52.5849 24.6365 57.5044 23.397 59.0345 26.5152C59.0152 26.1085 58.9764 25.7211 58.9183 25.3919C58.7053 24.1717 58.2792 22.3317 57.5044 21.2083C56.7491 20.085 55.9162 19.2909 54.696 18.981C53.4758 18.6517 50.4156 18.6324 48.9436 18.7098C47.4523 18.7873 45.6123 18.826 44.5664 18.9035C43.5205 18.981 41.7193 18.981 40.809 19.0585C39.8987 19.1359 37.8262 18.8648 37.8262 18.8648L35.3665 21.7506Z" fill="#C38E2C"/>
<path fill-rule="evenodd" clip-rule="evenodd" d="M37.1871 27.077C37.3614 26.9414 42.7071 27.1157 43.6561 28.394C47.2005 28.3553 48.75 28.2972 52.0426 27.2125C52.2169 26.3797 52.8561 25.6824 53.7083 25.237C52.798 24.9464 51.6746 24.7528 50.5125 24.9658C47.8784 25.4306 46.2128 25.6437 42.6877 26.0117C40.7509 26.186 38.6591 26.6702 37.1871 27.077Z" fill="#AE7A14"/>
<path fill-rule="evenodd" clip-rule="evenodd" d="M52.062 27.2125C52.062 27.2125 53.534 28.9169 54.483 29.5948C55.4321 30.2727 57.1559 30.7762 57.5626 31.2604C57.95 31.7447 58.318 32.4613 58.2986 33.2941C58.2792 34.127 58.4342 34.9792 57.9112 35.1922C57.3883 35.4053 56.7685 35.2697 56.7685 36.0444C56.7685 36.8385 57.8531 36.8966 58.7053 36.5867C59.5575 36.2768 59.7706 35.2309 59.9643 34.4368C60.158 33.6427 60.1192 32.5 59.9062 31.6478C59.6931 30.815 59.1508 29.924 59.0733 29.2461C59.0152 28.7619 59.0733 27.5998 59.0346 26.5152C58.2986 25.0239 57.5626 23.2226 55.0254 23.1839C51.6553 23.1451 52.062 27.2125 52.062 27.2125Z" fill="#C38E2C"/>
<path fill-rule="evenodd" clip-rule="evenodd" d="M37.2065 27.0769C37.3034 27.2318 37.3809 27.4061 37.4583 27.6192C37.6907 28.1809 37.807 28.8007 38.5623 29.343C39.3177 29.8853 41.6419 30.3501 41.7387 30.7181C41.8356 31.1055 41.8162 33.1004 42.4553 33.604C43.0945 34.1076 45.2056 34.5143 45.9804 34.2819C46.7357 34.0495 46.697 34.0107 46.5808 33.5653C46.4646 33.1392 46.1353 32.7324 45.6511 32.8099C45.1669 32.8874 44.857 32.8874 44.5084 32.7905C44.1598 32.6937 43.8499 32.868 44.0435 32.0158C44.2372 31.1636 44.4115 31.2992 44.3147 30.5244C44.1985 29.7497 43.6949 28.3746 43.6949 28.3746C42.6684 26.9994 41.8162 25.6436 39.86 25.8567C38.911 25.9729 37.9619 26.4377 37.2065 27.0769Z" fill="#C38E2C"/>
<path fill-rule="evenodd" clip-rule="evenodd" d="M52.8367 18.7485C51.5003 18.671 49.8927 18.671 48.9437 18.7098C47.4523 18.7872 45.6123 18.826 44.5664 18.9035C43.5205 18.9809 41.7193 18.9809 40.809 19.0584C39.8987 19.1359 37.8263 18.8647 37.8263 18.8647L35.3278 21.7506C35.3278 21.7506 38.6978 24.7139 42.7458 23.5906C44.4502 23.1257 45.9803 22.1767 47.1231 21.2858C48.7113 20.0656 53.5533 21.3245 52.8367 18.7485Z" fill="#404041"/>
<path fill-rule="evenodd" clip-rule="evenodd" d="M34.34 21.925C34.34 21.925 34.553 22.5641 35.0566 22.5835C35.5602 22.6222 35.8313 22.2542 36.2768 21.6151C36.548 21.2471 38.3686 18.5742 38.0974 18.3999C37.7488 18.1675 37.3227 17.6446 36.9741 17.9545C36.6254 18.2643 34.34 21.925 34.34 21.925Z" fill="#00ADEE"/>
<path fill-rule="evenodd" clip-rule="evenodd" d="M32.0739 20.8984C31.9965 20.9953 29.2849 22.7384 29.2849 22.7384C29.2849 22.7384 30.0209 23.1258 30.447 23.1258C30.8731 23.1064 32.2289 22.0218 32.2289 22.0218L32.0739 20.8984Z" fill="#D0D2D3"/>
<path fill-rule="evenodd" clip-rule="evenodd" d="M32.2289 16.25C32.2289 16.25 30.9312 17.1215 30.5051 17.7026C30.0596 18.2836 29.924 18.6129 29.5173 18.826C29.1106 19.039 27.3481 19.7944 27.135 19.9881C26.922 20.1817 26.3409 20.1817 26.9026 20.9177C27.4643 21.6537 28.5683 22.0992 29.0331 21.983C29.5173 21.8668 31.2217 20.8984 31.5897 20.8984C31.9771 20.8984 32.1708 21.1114 31.9577 21.46C31.7447 21.8087 30.9699 22.3316 30.7182 22.4672C30.4664 22.6221 29.8272 23.0095 29.6529 23.0482C29.4979 23.0676 29.0331 23.1838 29.4786 23.4743C29.9241 23.7649 30.4083 23.5518 30.8731 23.3194C31.3379 23.1063 32.4613 22.3316 32.6743 22.4866C32.8874 22.6415 33.6428 22.6609 34.34 21.9249C35.0373 21.1889 35.5796 19.9106 36.3543 19.2714C36.7417 19.0003 36.9741 18.3417 36.8966 18.0706C36.7998 17.7413 36.2187 17.6251 36.1413 17.5089C35.9863 17.2571 34.8436 15.514 34.0882 15.6108C33.3135 15.727 32.8099 15.8432 32.7325 15.9401C32.7131 15.9982 32.2289 16.25 32.2289 16.25Z" fill="#CE952F"/>
<path fill-rule="evenodd" clip-rule="evenodd" d="M28.2971 19.3877C27.7742 19.6395 27.2512 19.8719 27.135 19.9687C26.922 20.1624 26.3409 20.1624 26.9026 20.8984C27.4643 21.6344 28.5683 22.0799 29.0331 21.9637C29.5173 21.8475 31.2217 20.879 31.5897 20.879C31.9771 20.879 32.1708 21.0921 31.9577 21.4407C31.7447 21.7893 30.9699 22.3123 30.7182 22.4479C30.4664 22.6028 29.8272 22.9902 29.6529 23.0289C29.4979 23.0483 29.0331 23.1645 29.4786 23.455C29.9241 23.7455 30.4083 23.5325 30.8731 23.3001C31.3379 23.087 32.4613 22.3123 32.6743 22.4672C32.7131 22.4866 32.7712 22.506 32.8487 22.5253C32.9068 22.2929 32.9455 22.0411 32.9455 21.8475C32.9261 21.1696 32.9261 20.8597 32.7325 20.8403C32.5194 20.8209 32.3257 20.4917 32.132 20.0656C31.919 19.6588 31.5123 19.4264 31.5123 19.4264C31.5123 19.4264 32.0352 18.6129 31.8415 18.6129C31.7253 18.6129 31.0861 18.1287 30.5826 17.7026C30.3889 18.0319 30.1758 19.1746 29.2268 19.3683C28.7813 19.5039 28.4908 19.4652 28.2971 19.3877Z" fill="#404041"/>
<path fill-rule="evenodd" clip-rule="evenodd" d="M32.3645 14.4875C32.3838 15.1266 32.4419 15.7271 32.4226 15.8433C32.4032 15.9595 32.2482 16.3856 32.9455 16.7148C33.6428 17.0441 34.5918 16.8311 34.6693 16.2113C34.7468 15.5721 34.4562 15.0879 34.1657 14.6424C33.8558 14.197 33.4878 13.5965 33.3522 13.3448C33.2167 13.093 32.9842 12.7056 32.6743 12.8024C32.0546 13.0155 32.3451 13.7709 32.3645 14.4875Z" fill="#C38E2C"/>
<path fill-rule="evenodd" clip-rule="evenodd" d="M33.1779 16.8117C33.8364 17.0054 34.5918 16.7729 34.6693 16.2113C34.7467 15.5721 34.4562 15.0879 34.1657 14.6424C33.8558 14.197 33.4878 13.5965 33.3522 13.3448C33.236 13.1317 33.0423 12.8024 32.7905 12.7831C32.9648 12.9961 33.0811 13.461 33.1585 13.7902C33.236 14.197 33.5265 15.0492 33.7783 15.4559C34.0301 15.8626 34.0495 16.1919 33.6621 16.3081C33.4103 16.405 33.2554 16.6374 33.1779 16.8117Z" fill="#70501C"/>
<path fill-rule="evenodd" clip-rule="evenodd" d="M30.6406 18.1675C30.6406 18.1675 31.3766 18.5742 31.183 18.6904C30.9893 18.7873 30.5825 18.9228 30.5438 18.6904C30.5244 18.458 30.6406 18.1675 30.6406 18.1675Z" fill="#F09A20"/>
<path d="M29.6142 23.1258C30.5341 23.1258 31.2798 22.4841 31.2798 21.6925C31.2798 20.901 30.5341 20.2593 29.6142 20.2593C28.6942 20.2593 27.9485 20.901 27.9485 21.6925C27.9485 22.4841 28.6942 23.1258 29.6142 23.1258Z" fill="#647B97"/>
<path d="M29.6141 22.4866C30.1276 22.4866 30.5438 22.1311 30.5438 21.6925C30.5438 21.254 30.1276 20.8984 29.6141 20.8984C29.1007 20.8984 28.6844 21.254 28.6844 21.6925C28.6844 22.1311 29.1007 22.4866 29.6141 22.4866Z" fill="#8DD7F7"/>
<path fill-rule="evenodd" clip-rule="evenodd" d="M24.7333 19.6588C24.7333 19.6588 25.663 20.3561 25.9535 20.7241C26.244 21.0921 26.6895 21.615 27.1349 21.8087C27.5998 22.0217 28.2002 22.1573 28.2002 22.1573C28.2002 22.1573 28.5876 22.4285 28.6457 22.0992C28.7038 21.7699 28.7813 21.8862 29.0137 21.5763C29.2461 21.2664 28.6844 20.8015 28.6844 20.8015C28.6844 20.8015 29.2848 21.2083 29.4785 20.7628C29.5753 20.5497 29.4591 20.4723 29.3042 20.3561C29.033 20.1624 28.5682 19.9687 28.2389 19.7556C27.9678 19.5813 27.2318 19.0778 27.2318 19.0778C27.2318 19.0778 27.8128 18.9228 28.1227 18.8453C28.4326 18.7679 28.5876 18.5161 28.3164 18.4192C28.0453 18.3224 27.5223 18.2643 27.1737 18.2643C26.8444 18.2643 25.3337 18.458 25.3337 18.458L24.7333 19.6588Z" fill="#F9B7A2"/>
<path d="M30.7762 18.7679C30.8832 18.7679 30.9699 18.6639 30.9699 18.5355C30.9699 18.4072 30.8832 18.3031 30.7762 18.3031C30.6692 18.3031 30.5825 18.4072 30.5825 18.5355C30.5825 18.6639 30.6692 18.7679 30.7762 18.7679Z" fill="#404041"/>
<path d="M30.7763 18.6711C30.8298 18.6711 30.8731 18.6104 30.8731 18.5355C30.8731 18.4606 30.8298 18.3999 30.7763 18.3999C30.7228 18.3999 30.6794 18.4606 30.6794 18.5355C30.6794 18.6104 30.7228 18.6711 30.7763 18.6711Z" fill="#231F20"/>
</g>
<defs>
<clipPath id="clip0_211_4845">
<rect width="65" height="39.0465" fill="white"/>
</clipPath>
</defs>
</svg>
