<?xml version="1.0" encoding="UTF-8"?>
<!-- Generator: CustomSymbols v2.6.7.45 by @serious_bret https://bretlester.com/app_content/CustomSymbols/ -->
<!-- Guides: Left/Right 0.0/0.0 Cap/Base 0.017/0.017 -->
<!-- Settings: RefScale 1.0 Min/Max Stroke Scales 0.5/2.21 -->
<!DOCTYPE svg
PUBLIC "-//W3C//DTD SVG 1.1//EN"
       "http://www.w3.org/Graphics/SVG/1.1/DTD/svg11.dtd">
<svg version="1.1" xmlns="http://www.w3.org/2000/svg" xmlns:xlink="http://www.w3.org/1999/xlink" width="3300" height="2200">
<![CDATA[<svg width="24" height="24" viewBox="0 0 24 24" fill="none" xmlns="http://www.w3.org/2000/svg">
<path fill-rule="evenodd" clip-rule="evenodd" d="M12 17.8476C17.6392 17.8476 20.2481 17.1242 20.5 14.2205C20.5 11.3188 18.6812 11.5054 18.6812 7.94511C18.6812 5.16414 16.0452 2 12 2C7.95477 2 5.31885 5.16414 5.31885 7.94511C5.31885 11.5054 3.5 11.3188 3.5 14.2205C3.75295 17.1352 6.36177 17.8476 12 17.8476Z" stroke="#171725" stroke-width="1.5" stroke-linecap="round" stroke-linejoin="round"/>
<path d="M14.3887 20.8572C13.0246 22.372 10.8966 22.3899 9.51941 20.8572" stroke="#171725" stroke-width="1.5" stroke-linecap="round" stroke-linejoin="round"/>
</svg>
]]>
 <g id="Notes">
  <rect height="2200" id="artboard" style="fill:white;opacity:1" width="3300" x="0" y="0"/>
  <line id="" style="fill:none;stroke:black;opacity:1;stroke-width:0.5;" x1="263" x2="3036" y1="292" y2="292"/>
  <text id="reftext1" style="stroke:none;fill:black;font-family:-apple-system,&quot;SF Pro Display&quot;,&quot;SF Pro Text&quot;,Helvetica,sans-serif;font-weight:bold;" transform="matrix(1 0 0 1 263 322)">Weight/Scale Variations</text>
  <text id="reftext2" style="stroke:none;fill:black;font-family:-apple-system,&quot;SF Pro Display&quot;,&quot;SF Pro Text&quot;,Helvetica,sans-serif;text-anchor:middle;" transform="matrix(1 0 0 1 559.711 322)">Ultralight</text>
  <text style="stroke:none;fill:black;font-family:-apple-system,&quot;SF Pro Display&quot;,&quot;SF Pro Text&quot;,Helvetica,sans-serif;text-anchor:middle;" transform="matrix(1 0 0 1 856.422 322)">Thin</text>
  <text style="stroke:none;fill:black;font-family:-apple-system,&quot;SF Pro Display&quot;,&quot;SF Pro Text&quot;,Helvetica,sans-serif;text-anchor:middle;" transform="matrix(1 0 0 1 1153.13 322)">Light</text>
  <text style="stroke:none;fill:black;font-family:-apple-system,&quot;SF Pro Display&quot;,&quot;SF Pro Text&quot;,Helvetica,sans-serif;text-anchor:middle;" transform="matrix(1 0 0 1 1449.84 322)">Regular</text>
  <text style="stroke:none;fill:black;font-family:-apple-system,&quot;SF Pro Display&quot;,&quot;SF Pro Text&quot;,Helvetica,sans-serif;text-anchor:middle;" transform="matrix(1 0 0 1 1746.56 322)">Medium</text>
  <text style="stroke:none;fill:black;font-family:-apple-system,&quot;SF Pro Display&quot;,&quot;SF Pro Text&quot;,Helvetica,sans-serif;text-anchor:middle;" transform="matrix(1 0 0 1 2043.27 322)">Semibold</text>
  <text style="stroke:none;fill:black;font-family:-apple-system,&quot;SF Pro Display&quot;,&quot;SF Pro Text&quot;,Helvetica,sans-serif;text-anchor:middle;" transform="matrix(1 0 0 1 2339.98 322)">Bold</text>
  <text style="stroke:none;fill:black;font-family:-apple-system,&quot;SF Pro Display&quot;,&quot;SF Pro Text&quot;,Helvetica,sans-serif;text-anchor:middle;" transform="matrix(1 0 0 1 2636.69 322)">Heavy</text>
  <text style="stroke:none;fill:black;font-family:-apple-system,&quot;SF Pro Display&quot;,&quot;SF Pro Text&quot;,Helvetica,sans-serif;text-anchor:middle;" transform="matrix(1 0 0 1 2933.4 322)">Black</text>
  <line id="" style="fill:none;stroke:black;opacity:1;stroke-width:0.5;" x1="263" x2="3036" y1="1903" y2="1903"/>
  <g id="" transform="matrix(1 0 0 1 263 1933)">
   <path d="M9.24805 0.830078C13.5547 0.830078 17.1387-2.74414 17.1387-7.05078C17.1387-11.3574 13.5449-14.9316 9.23828-14.9316C4.94141-14.9316 1.36719-11.3574 1.36719-7.05078C1.36719-2.74414 4.95117 0.830078 9.24805 0.830078ZM9.24805-0.654297C5.70312-0.654297 2.87109-3.49609 2.87109-7.05078C2.87109-10.6055 5.69336-13.4473 9.23828-13.4473C12.793-13.4473 15.6348-10.6055 15.6445-7.05078C15.6543-3.49609 12.8027-0.654297 9.24805-0.654297ZM6.39648-6.31836L8.50586-6.31836L8.50586-4.19922C8.50586-3.75977 8.79883-3.45703 9.22852-3.45703C9.67773-3.45703 9.9707-3.75977 9.9707-4.19922L9.9707-6.31836L12.0996-6.31836C12.5391-6.31836 12.8418-6.61133 12.8418-7.04102C12.8418-7.48047 12.5391-7.7832 12.0996-7.7832L9.9707-7.7832L9.9707-9.89258C9.9707-10.3418 9.67773-10.6445 9.22852-10.6445C8.79883-10.6445 8.50586-10.3418 8.50586-9.89258L8.50586-7.7832L6.39648-7.7832C5.94727-7.7832 5.64453-7.48047 5.64453-7.04102C5.64453-6.61133 5.94727-6.31836 6.39648-6.31836Z"/>
  </g>
  <g id="" transform="matrix(1 0 0 1 281.506 1933)">
   <path d="M11.709 2.91016C17.1582 2.91016 21.6699-1.61133 21.6699-7.05078C21.6699-12.5 17.1484-17.0117 11.6992-17.0117C6.25977-17.0117 1.74805-12.5 1.74805-7.05078C1.74805-1.61133 6.26953 2.91016 11.709 2.91016ZM11.709 1.25C7.09961 1.25 3.41797-2.44141 3.41797-7.05078C3.41797-11.6602 7.08984-15.3516 11.6992-15.3516C16.3086-15.3516 20-11.6602 20.0098-7.05078C20.0195-2.44141 16.3184 1.25 11.709 1.25ZM7.98828-6.23047L10.8789-6.23047L10.8789-3.32031C10.8789-2.83203 11.2109-2.5 11.6895-2.5C12.1777-2.5 12.5195-2.83203 12.5195-3.32031L12.5195-6.23047L15.4297-6.23047C15.918-6.23047 16.25-6.5625 16.25-7.04102C16.25-7.5293 15.918-7.87109 15.4297-7.87109L12.5195-7.87109L12.5195-10.7617C12.5195-11.2695 12.1777-11.6016 11.6895-11.6016C11.2109-11.6016 10.8789-11.2598 10.8789-10.7617L10.8789-7.87109L7.98828-7.87109C7.48047-7.87109 7.14844-7.5293 7.14844-7.04102C7.14844-6.5625 7.49023-6.23047 7.98828-6.23047Z"/>
  </g>
  <g id="" transform="matrix(1 0 0 1 304.924 1933)">
   <path d="M14.9707 5.66406C21.9336 5.66406 27.6953-0.0976562 27.6953-7.05078C27.6953-14.0137 21.9238-19.7754 14.9609-19.7754C8.00781-19.7754 2.25586-14.0137 2.25586-7.05078C2.25586-0.0976562 8.01758 5.66406 14.9707 5.66406ZM14.9707 3.84766C8.93555 3.84766 4.08203-1.01562 4.08203-7.05078C4.08203-13.0957 8.92578-17.9492 14.9609-17.9492C21.0059-17.9492 25.8594-13.0957 25.8691-7.05078C25.8789-1.01562 21.0156 3.84766 14.9707 3.84766ZM10.0586-6.14258L14.0625-6.14258L14.0625-2.12891C14.0625-1.5918 14.4336-1.2207 14.9512-1.2207C15.4883-1.2207 15.8594-1.5918 15.8594-2.12891L15.8594-6.14258L19.8828-6.14258C20.4102-6.14258 20.791-6.51367 20.791-7.03125C20.791-7.56836 20.4199-7.94922 19.8828-7.94922L15.8594-7.94922L15.8594-11.9531C15.8594-12.5098 15.4883-12.8809 14.9512-12.8809C14.4336-12.8809 14.0625-12.5 14.0625-11.9531L14.0625-7.94922L10.0586-7.94922C9.50195-7.94922 9.13086-7.56836 9.13086-7.03125C9.13086-6.51367 9.51172-6.14258 10.0586-6.14258Z"/>
  </g>
  <text style="stroke:none;fill:black;font-family:-apple-system,&quot;SF Pro Display&quot;,&quot;SF Pro Text&quot;,Helvetica,sans-serif;font-weight:bold;" transform="matrix(1 0 0 1 263 1953)">Design Variations</text>
  <text style="stroke:none;fill:black;font-family:-apple-system,&quot;SF Pro Display&quot;,&quot;SF Pro Text&quot;,Helvetica,sans-serif;" transform="matrix(1 0 0 1 263 1971)">Symbols are supported in up to nine weights and three scales.</text>
  <text style="stroke:none;fill:black;font-family:-apple-system,&quot;SF Pro Display&quot;,&quot;SF Pro Text&quot;,Helvetica,sans-serif;" transform="matrix(1 0 0 1 263 1989)">For optimal layout with text and other symbols, vertically align</text>
  <text style="stroke:none;fill:black;font-family:-apple-system,&quot;SF Pro Display&quot;,&quot;SF Pro Text&quot;,Helvetica,sans-serif;" transform="matrix(1 0 0 1 263 2007)">symbols with the adjacent text.</text>
  <line id="" style="fill:none;stroke:#00AEEF;stroke-width:0.5;opacity:1.0;" x1="776" x2="776" y1="1919" y2="1933"/>
  <g id="" transform="matrix(1 0 0 1 776 1933)">
   <path d="M3.31055 0.126953C3.82812 0.126953 4.08203-0.0683594 4.26758-0.605469L5.52734-4.0625L11.2891-4.0625L12.5488-0.605469C12.7344-0.0683594 12.9883 0.126953 13.4961 0.126953C14.0137 0.126953 14.3457-0.185547 14.3457-0.673828C14.3457-0.839844 14.3164-0.986328 14.2383-1.20117L9.6582-13.3887C9.43359-13.9941 9.0332-14.2871 8.4082-14.2871C7.80273-14.2871 7.39258-13.9941 7.17773-13.3984L2.59766-1.19141C2.51953-0.976562 2.49023-0.830078 2.49023-0.664062C2.49023-0.175781 2.80273 0.126953 3.31055 0.126953ZM6.00586-5.53711L8.37891-12.1094L8.42773-12.1094L10.8008-5.53711Z"/>
  </g>
  <line id="" style="fill:none;stroke:#00AEEF;stroke-width:0.5;opacity:1.0;" x1="792.836" x2="792.836" y1="1919" y2="1933"/>
  <text style="stroke:none;fill:black;font-family:-apple-system,&quot;SF Pro Display&quot;,&quot;SF Pro Text&quot;,Helvetica,sans-serif;font-weight:bold;" transform="matrix(1 0 0 1 776 1953)">Margins</text>
  <text style="stroke:none;fill:black;font-family:-apple-system,&quot;SF Pro Display&quot;,&quot;SF Pro Text&quot;,Helvetica,sans-serif;" transform="matrix(1 0 0 1 776 1971)">Leading and trailing margins on the left and right side of each symbol</text>
  <text style="stroke:none;fill:black;font-family:-apple-system,&quot;SF Pro Display&quot;,&quot;SF Pro Text&quot;,Helvetica,sans-serif;" transform="matrix(1 0 0 1 776 1989)">can be adjusted by modifying the x-location of the margin guidelines.</text>
  <text style="stroke:none;fill:black;font-family:-apple-system,&quot;SF Pro Display&quot;,&quot;SF Pro Text&quot;,Helvetica,sans-serif;" transform="matrix(1 0 0 1 776 2007)">Modifications are automatically applied proportionally to all</text>
  <text style="stroke:none;fill:black;font-family:-apple-system,&quot;SF Pro Display&quot;,&quot;SF Pro Text&quot;,Helvetica,sans-serif;" transform="matrix(1 0 0 1 776 2025)">scales and weights.</text>
  <g id="" transform="matrix(1 0 0 1 1289 1933)">
   <path d="M2.8418 1.86523L4.54102 3.57422C5.40039 4.44336 6.38672 4.38477 7.31445 3.35938L17.4902-7.85156C17.7539-7.76367 18.0273-7.7832 18.3398-7.8418L19.4043-8.03711L20.0684-7.36328L20.0293-6.80664C19.9902-6.30859 20.1172-5.92773 20.6055-5.44922L21.3672-4.70703C21.8457-4.22852 22.4609-4.19922 22.9297-4.66797L25.8398-7.58789C26.3086-8.05664 26.2891-8.65234 25.8105-9.13086L25.0391-9.89258C24.5605-10.3711 24.1895-10.5273 23.7109-10.4883L23.1348-10.4395L22.4902-11.0742L22.7344-12.1973C22.8613-12.7637 22.7051-13.2031 22.1191-13.7891L19.9219-15.9766C16.582-19.2969 12.1484-19.2188 9.25781-16.3281C8.83789-15.918 8.80859-15.3418 9.04297-14.9512C9.27734-14.5898 9.73633-14.3555 10.3809-14.5215C11.8457-14.8633 13.3691-14.9219 14.7949-13.9844L14.209-12.5293C14.0137-12.0508 13.9844-11.6504 14.1113-11.2891L3.04688-0.898438C2.06055 0.0195312 1.98242 0.996094 2.8418 1.86523ZM10.752-15.957C13.1836-17.7344 16.4746-17.4316 18.7012-15.2051L21.1328-12.793C21.3672-12.5586 21.4062-12.373 21.3379-12.0312L21.0156-10.5469L22.5195-9.0625L23.5059-9.12109C23.7598-9.13086 23.8379-9.11133 24.0332-8.91602L24.6094-8.33984L22.168-5.89844L21.5918-6.47461C21.3965-6.66992 21.3672-6.74805 21.377-7.01172L21.4453-7.98828L19.9512-9.47266L18.4277-9.21875C18.1055-9.15039 17.959-9.17969 17.7148-9.41406L15.7129-11.416C15.459-11.6504 15.4297-11.8164 15.5859-12.1875L16.4648-14.2773C14.9023-15.7324 12.8711-16.3574 10.8398-15.7617C10.6836-15.7227 10.625-15.8496 10.752-15.957ZM5.27344 2.30469L4.10156 1.14258C3.63281 0.683594 3.74023 0.341797 4.14062-0.0195312L14.9512-10.1953L16.416-8.71094L6.42578 2.27539C6.07422 2.67578 5.74219 2.77344 5.27344 2.30469Z"/>
  </g>
  <text style="stroke:none;fill:black;font-family:-apple-system,&quot;SF Pro Display&quot;,&quot;SF Pro Text&quot;,Helvetica,sans-serif;font-weight:bold;" transform="matrix(1 0 0 1 1289 1953)">Exporting</text>
  <text style="stroke:none;fill:black;font-family:-apple-system,&quot;SF Pro Display&quot;,&quot;SF Pro Text&quot;,Helvetica,sans-serif;" transform="matrix(1 0 0 1 1289 1971)">Symbols should be outlined when exporting to ensure the</text>
  <text style="stroke:none;fill:black;font-family:-apple-system,&quot;SF Pro Display&quot;,&quot;SF Pro Text&quot;,Helvetica,sans-serif;" transform="matrix(1 0 0 1 1289 1989)">design is preserved when submitting to Xcode.</text>
  <text id="template-version" style="stroke:none;fill:black;font-family:-apple-system,&quot;SF Pro Display&quot;,&quot;SF Pro Text&quot;,Helvetica,sans-serif;text-anchor:end;" transform="matrix(1 0 0 1 3036 1933)">Template v.2.0</text>
  <text style="stroke:none;fill:black;font-family:-apple-system,&quot;SF Pro Display&quot;,&quot;SF Pro Text&quot;,Helvetica,sans-serif;text-anchor:end;" transform="matrix(1 0 0 1 3036 1951)">Requires Xcode 12 or greater</text>
  <text style="stroke:none;fill:black;font-family:-apple-system,&quot;SF Pro Display&quot;,&quot;SF Pro Text&quot;,Helvetica,sans-serif;" transform="matrix(1 0 0 1 263 726)">Small</text>
  <text style="stroke:none;fill:black;font-family:-apple-system,&quot;SF Pro Display&quot;,&quot;SF Pro Text&quot;,Helvetica,sans-serif;" transform="matrix(1 0 0 1 263 1156)">Medium</text>
  <text style="stroke:none;fill:black;font-family:-apple-system,&quot;SF Pro Display&quot;,&quot;SF Pro Text&quot;,Helvetica,sans-serif;" transform="matrix(1 0 0 1 263 1586)">Large</text>
 </g>
 <g id="Guides">
  <g id="H-reference" style="fill:#27AAE1;stroke:none;" transform="matrix(1 0 0 1 339 696)">
   <path d="M0.976562 0L3.66211 0L12.9883-24.4629L45.752-24.4629L55.127 0L57.7637 0L30.6152-70.459L28.125-70.459ZM29.3457-67.1387L29.4434-67.1387L44.873-26.709L13.8672-26.709Z"/>
  </g>
  <line id="Baseline-S" style="fill:none;stroke:#27AAE1;opacity:1;stroke-width:0.5;" x1="263" x2="3036" y1="696" y2="696"/>
  <line id="Capline-S" style="fill:none;stroke:#27AAE1;opacity:1;stroke-width:0.5;" x1="263" x2="3036" y1="625.541" y2="625.541"/>
  <g id="H-reference" style="fill:#27AAE1;stroke:none;" transform="matrix(1 0 0 1 339 1126)">
   <path d="M0.976562 0L3.66211 0L12.9883-24.4629L45.752-24.4629L55.127 0L57.7637 0L30.6152-70.459L28.125-70.459ZM29.3457-67.1387L29.4434-67.1387L44.873-26.709L13.8672-26.709Z"/>
  </g>
  <line id="Baseline-M" style="fill:none;stroke:#27AAE1;opacity:1;stroke-width:0.5;" x1="263" x2="3036" y1="1126" y2="1126"/>
  <line id="Capline-M" style="fill:none;stroke:#27AAE1;opacity:1;stroke-width:0.5;" x1="263" x2="3036" y1="1055.54" y2="1055.54"/>
  <g id="H-reference" style="fill:#27AAE1;stroke:none;" transform="matrix(1 0 0 1 339 1556)">
   <path d="M0.976562 0L3.66211 0L12.9883-24.4629L45.752-24.4629L55.127 0L57.7637 0L30.6152-70.459L28.125-70.459ZM29.3457-67.1387L29.4434-67.1387L44.873-26.709L13.8672-26.709Z"/>
  </g>
  <line id="Baseline-L" style="fill:none;stroke:#27AAE1;opacity:1;stroke-width:0.5;" x1="263" x2="3036" y1="1556" y2="1556"/>
  <line id="Capline-L" style="fill:none;stroke:#27AAE1;opacity:1;stroke-width:0.5;" x1="263" x2="3036" y1="1485.54" y2="1485.54"/>
  <line id="left-margin" x1="1414.660040922619" x2="1414.660040922619" y1="1030.79" y2="1150.12" style="fill:none;stroke:#00AEEF;stroke-width:0.5;opacity:1.0;"/>
  <line id="right-margin" x1="1487.5999590773808" x2="1487.5999590773808" y1="1030.79" y2="1150.12" style="fill:none;stroke:#00AEEF;stroke-width:0.5;opacity:1.0;"/>
 </g>
 <g id="Symbols">
  <g id="Black-L" transform="matrix(1.0,0.0,0.0,1.0,2887.6337527901783,1473.7237723214287)">  <path stroke-miterlimit="4" stroke-opacity="1" stroke-linejoin="round" fill-opacity="1" stroke-width="1.5px" clip-rule="evenodd" stroke-dasharray="none" fill="#000000" fill-rule="nonzero" stroke-linecap="round" stroke="none" d="M47.046,76.47C59.641,76.47,67.891,75.574,73.998,73.182C81.746,70.148,86.137,64.468,86.845,56.313C86.861,56.127,86.869,55.939,86.869,55.752C86.869,50.064,85.678,46.591,82.896,41.94C82.818,41.809,82.474,41.236,82.384,41.086C80.385,37.74,79.738,35.736,79.738,31.149C79.738,15.473,65.285,1.343,47.046,1.343C28.807,1.343,14.354,15.473,14.354,31.149C14.354,35.736,13.708,37.739,11.709,41.086C11.619,41.236,11.275,41.809,11.197,41.939C8.414,46.591,7.224,50.064,7.224,55.752C7.224,55.939,7.232,56.127,7.248,56.314C7.957,64.487,12.348,70.171,20.102,73.2C26.202,75.583,34.429,76.47,47.046,76.47ZM47.046,63.474C35.949,63.474,29.005,62.725,24.831,61.094C21.613,59.837,20.471,58.358,20.196,55.19L20.22,55.752C20.22,52.736,20.673,51.414,22.35,48.611C22.419,48.496,22.765,47.919,22.866,47.751C25.988,42.525,27.351,38.301,27.351,31.149C27.351,22.718,35.92,14.339,47.046,14.339C58.172,14.339,66.742,22.718,66.742,31.149C66.742,38.301,68.104,42.525,71.227,47.751C71.327,47.919,71.673,48.496,71.742,48.611C73.419,51.414,73.872,52.736,73.872,55.752L73.897,55.19C73.624,58.339,72.48,59.819,69.259,61.08C65.078,62.717,58.12,63.474,47.046,63.474Z"/>
  <path stroke="none" fill-rule="nonzero" stroke-opacity="1" stroke-dasharray="none" stroke-miterlimit="4" fill-opacity="1" stroke-linejoin="round" stroke-width="1.5px" stroke-linecap="round" fill="#000000" d="M51.582,77.423C48.789,80.524,44.946,80.534,42.155,77.428C39.756,74.758,35.647,74.539,32.978,76.937C30.308,79.336,30.089,83.445,32.487,86.114C40.451,94.977,53.293,94.944,61.24,86.12C63.642,83.453,63.427,79.344,60.76,76.942C58.093,74.541,53.984,74.756,51.582,77.423Z"/>
</g>
  <g id="Heavy-L" transform="matrix(1.0,0.0,0.0,1.0,2590.9237527901782,1473.7237723214287)">  <path fill="#000000" stroke-dasharray="none" stroke-width="1.5px" stroke-linecap="round" stroke="none" clip-rule="evenodd" fill-opacity="1" stroke-miterlimit="4" fill-rule="nonzero" stroke-linejoin="round" stroke-opacity="1" d="M47.046,75.759C59.558,75.759,67.737,74.87,73.739,72.519C81.239,69.582,85.452,64.132,86.136,56.252C86.15,56.086,86.157,55.919,86.157,55.752C86.157,50.21,85.007,46.855,82.285,42.305C82.208,42.175,81.864,41.602,81.773,41.451C79.712,38.002,79.027,35.876,79.027,31.149C79.027,15.87,64.896,2.054,47.046,2.054C29.197,2.054,15.066,15.87,15.066,31.149C15.066,35.876,14.38,38.001,12.32,41.451C12.229,41.602,11.885,42.175,11.807,42.305C9.086,46.855,7.935,50.21,7.935,55.752C7.935,55.919,7.942,56.086,7.957,56.252C8.642,64.151,12.856,69.605,20.361,72.537C26.356,74.879,34.512,75.759,47.046,75.759ZM47.046,64.185C35.866,64.185,28.851,63.429,24.572,61.757C21.106,60.403,19.786,58.694,19.487,55.251L19.509,55.752C19.509,52.59,20.002,51.15,21.74,48.246C21.809,48.13,22.155,47.553,22.255,47.386C25.316,42.263,26.639,38.161,26.639,31.149C26.639,22.321,35.531,13.628,47.046,13.628C58.562,13.628,67.453,22.321,67.453,31.149C67.453,38.161,68.777,42.263,71.838,47.386C71.937,47.553,72.284,48.13,72.353,48.245C74.09,51.15,74.584,52.59,74.584,55.752L74.606,55.252C74.309,58.675,72.987,60.384,69.519,61.743C65.232,63.421,58.203,64.185,47.046,64.185Z"/>
  <path stroke-width="1.5px" stroke-linejoin="round" stroke-dasharray="none" fill-rule="nonzero" stroke-opacity="1" fill-opacity="1" stroke-linecap="round" stroke-miterlimit="4" stroke="none" fill="#000000" d="M52.111,77.899C49.036,81.314,44.7,81.325,41.625,77.903C39.489,75.526,35.831,75.331,33.453,77.467C31.076,79.603,30.881,83.261,33.017,85.639C40.697,94.186,53.047,94.155,60.711,85.643C62.85,83.269,62.658,79.61,60.284,77.471C57.909,75.332,54.25,75.524,52.111,77.899Z"/>
</g>
  <g id="Bold-L" transform="matrix(1.0,0.0,0.0,1.0,2294.213752790178,1473.7237723214287)">  <path clip-rule="evenodd" fill="#000000" fill-rule="nonzero" stroke-linecap="round" stroke-width="1.5px" stroke="none" stroke-linejoin="round" fill-opacity="1" stroke-dasharray="none" stroke-opacity="1" stroke-miterlimit="4" d="M47.046,75.047C59.475,75.047,67.583,74.166,73.48,71.856C80.731,69.017,84.767,63.796,85.427,56.19C85.439,56.045,85.446,55.898,85.446,55.752C85.446,50.357,84.336,47.119,81.675,42.67C81.598,42.541,81.253,41.968,81.162,41.816C79.04,38.264,78.315,36.017,78.315,31.149C78.315,16.267,64.506,2.766,47.046,2.766C29.586,2.766,15.778,16.267,15.778,31.149C15.778,36.017,15.053,38.264,12.93,41.816C12.839,41.968,12.495,42.541,12.418,42.67C9.757,47.119,8.647,50.357,8.647,55.752C8.647,55.898,8.653,56.045,8.666,56.191C9.327,63.816,13.363,69.039,20.62,71.874C26.509,74.175,34.595,75.047,47.046,75.047ZM47.046,64.897C35.783,64.897,28.698,64.133,24.313,62.42C20.599,60.969,19.1,59.03,18.778,55.313L18.797,55.752C18.797,52.444,19.331,50.886,21.129,47.88C21.199,47.764,21.545,47.188,21.644,47.022C24.644,42.001,25.928,38.021,25.928,31.149C25.928,21.924,35.141,12.916,47.046,12.916C58.951,12.916,68.165,21.924,68.165,31.149C68.165,38.02,69.449,42.001,72.449,47.021C72.548,47.188,72.894,47.764,72.964,47.88C74.762,50.886,75.296,52.444,75.296,55.752L75.315,55.313C74.994,59.01,73.494,60.95,69.778,62.405C65.386,64.125,58.286,64.897,47.046,64.897Z"/>
  <path stroke-width="1.5px" stroke="none" stroke-linejoin="round" fill-opacity="1" stroke-opacity="1" fill-rule="nonzero" stroke-miterlimit="4" stroke-linecap="round" fill="#000000" stroke-dasharray="none" d="M52.64,78.375C49.282,82.103,44.454,82.116,41.096,78.379C39.223,76.294,36.014,76.123,33.929,77.996C31.844,79.869,31.673,83.078,33.546,85.163C40.943,93.396,52.8,93.365,60.183,85.167C62.058,83.084,61.89,79.875,59.807,78C57.724,76.124,54.515,76.292,52.64,78.375Z"/>
</g>
  <g id="Semibold-L" transform="matrix(1.0,0.0,0.0,1.0,1997.5037527901786,1473.7237723214287)">  <path stroke-linecap="round" stroke="none" fill="#000000" stroke-width="1.5px" stroke-opacity="1" fill-rule="nonzero" stroke-dasharray="none" stroke-miterlimit="4" fill-opacity="1" stroke-linejoin="round" clip-rule="evenodd" d="M47.046,74.335C59.391,74.335,67.429,73.462,73.22,71.194C80.224,68.451,84.082,63.461,84.718,56.129C84.729,56.003,84.734,55.878,84.734,55.752C84.734,50.503,83.665,47.383,81.064,43.035C80.987,42.907,80.643,42.334,80.551,42.181C78.368,38.526,77.604,36.157,77.604,31.149C77.604,16.663,64.117,3.478,47.046,3.478C29.976,3.478,16.489,16.663,16.489,31.149C16.489,36.157,15.725,38.526,13.541,42.181C13.45,42.334,13.105,42.907,13.029,43.035C10.428,47.383,9.358,50.503,9.358,55.752C9.358,55.878,9.364,56.004,9.375,56.129C10.013,63.48,13.87,68.474,20.879,71.211C26.663,73.471,34.679,74.335,47.046,74.335ZM47.046,65.608C35.699,65.608,28.545,64.837,24.054,63.083C20.091,61.534,18.415,59.365,18.069,55.374L18.085,55.752C18.085,52.297,18.66,50.622,20.518,47.515C20.589,47.398,20.935,46.822,21.033,46.657C23.971,41.739,25.216,37.88,25.216,31.149C25.216,21.528,34.752,12.205,47.046,12.205C59.341,12.205,68.876,21.528,68.876,31.149C68.876,37.88,70.121,41.739,73.059,46.657C73.158,46.822,73.504,47.397,73.574,47.515C75.433,50.622,76.007,52.297,76.007,55.752L76.023,55.375C75.679,59.346,74.002,61.515,70.038,63.068C65.54,64.829,58.37,65.608,47.046,65.608Z"/>
  <path stroke-opacity="1" fill="#000000" fill-opacity="1" stroke-miterlimit="4" stroke-width="1.5px" stroke="none" stroke-linejoin="round" fill-rule="nonzero" stroke-dasharray="none" stroke-linecap="round" d="M53.169,78.851C49.529,82.893,44.208,82.907,40.567,78.855C38.956,77.062,36.197,76.915,34.405,78.525C32.612,80.136,32.465,82.895,34.075,84.688C41.189,92.605,52.553,92.576,59.654,84.691C61.266,82.9,61.122,80.141,59.331,78.529C57.54,76.916,54.781,77.06,53.169,78.851Z"/>
</g>
  <g id="Medium-L" transform="matrix(1.0,0.0,0.0,1.0,1700.7937527901786,1473.7237723214287)">  <path stroke="none" stroke-width="1.5px" stroke-linejoin="round" fill-opacity="1" stroke-miterlimit="4" fill="#000000" fill-rule="nonzero" stroke-dasharray="none" stroke-linecap="round" clip-rule="evenodd" stroke-opacity="1" d="M47.046,73.624C59.308,73.624,67.275,72.758,72.961,70.531C79.717,67.886,83.397,63.125,84.009,56.067C84.018,55.962,84.023,55.857,84.023,55.752C84.023,50.649,82.993,47.647,80.453,43.401C80.377,43.274,80.033,42.7,79.94,42.546C77.695,38.788,76.892,36.298,76.892,31.149C76.892,17.06,63.727,4.189,47.046,4.189C30.365,4.189,17.201,17.06,17.201,31.149C17.201,36.298,16.397,38.788,14.152,42.546C14.06,42.7,13.715,43.274,13.639,43.401C11.099,47.647,10.07,50.649,10.07,55.752C10.07,55.857,10.074,55.963,10.084,56.068C10.698,63.145,14.377,67.908,21.138,70.549C26.816,72.767,34.762,73.624,47.046,73.624ZM47.046,66.32C25.137,66.32,18.065,63.557,17.36,55.436L17.374,55.752C17.374,52.151,17.989,50.358,19.908,47.15C19.978,47.031,20.324,46.456,20.422,46.292C23.299,41.477,24.505,37.74,24.505,31.149C24.505,21.131,34.363,11.493,47.046,11.493C59.73,11.493,69.588,21.131,69.588,31.149C69.588,37.74,70.794,41.477,73.67,46.292C73.768,46.456,74.114,47.031,74.185,47.15C76.104,50.358,76.719,52.151,76.719,55.752L76.732,55.436C76.03,63.534,68.915,66.32,47.046,66.32Z"/>
  <path stroke="none" stroke-opacity="1" stroke-width="1.5px" fill-opacity="1" stroke-dasharray="none" stroke-linecap="round" stroke-linejoin="round" fill="#000000" fill-rule="nonzero" stroke-miterlimit="4" d="M53.697,79.327C49.776,83.682,43.961,83.697,40.038,79.33C38.689,77.83,36.38,77.707,34.88,79.055C33.38,80.403,33.257,82.712,34.605,84.212C41.435,91.814,52.307,91.786,59.125,84.215C60.475,82.716,60.354,80.407,58.855,79.057C57.356,77.708,55.047,77.828,53.697,79.327Z"/>
</g>
  <g id="Regular-L" transform="matrix(1.0,0.0,0.0,1.0,1404.0837527901786,1473.7237723214287)">  <path stroke-width="1.5px" fill="#000000" stroke-dasharray="none" stroke="none" fill-opacity="1" stroke-linejoin="round" stroke-opacity="1" clip-rule="evenodd" fill-rule="nonzero" stroke-linecap="round" stroke-miterlimit="4" d="M47.046,72.912C59.225,72.912,67.121,72.054,72.701,69.869C79.209,67.32,82.712,62.79,83.3,56.006C83.307,55.921,83.311,55.837,83.311,55.752C83.311,50.796,82.322,47.912,79.843,43.766C79.767,43.64,79.422,43.066,79.33,42.911C77.023,39.05,76.18,36.438,76.18,31.149C76.18,17.457,63.338,4.901,47.046,4.901C30.755,4.901,17.912,17.456,17.912,31.149C17.912,36.438,17.07,39.05,14.763,42.911C14.67,43.066,14.326,43.64,14.25,43.766C11.77,47.912,10.781,50.796,10.781,55.752C10.781,55.837,10.785,55.921,10.792,56.006C11.383,62.809,14.885,67.342,21.397,69.886C26.97,72.063,34.845,72.912,47.046,72.912ZM47.046,67.031C24.799,67.031,17.401,64.142,16.651,55.498L16.662,55.752C16.662,52.005,17.317,50.094,19.297,46.784C19.368,46.665,19.714,46.09,19.811,45.927C22.626,41.215,23.793,37.599,23.793,31.149C23.793,20.734,33.973,10.781,47.046,10.781C60.119,10.781,70.3,20.734,70.3,31.149C70.3,37.599,71.466,41.215,74.281,45.927C74.379,46.09,74.724,46.665,74.796,46.784C76.775,50.094,77.43,52.005,77.43,55.752L77.441,55.498C76.693,64.118,69.253,67.031,47.046,67.031Z"/>
  <path stroke-width="1.5px" stroke-linecap="round" stroke-miterlimit="4" stroke="none" stroke-linejoin="round" stroke-opacity="1" fill-rule="nonzero" fill-opacity="1" fill="#000000" stroke-dasharray="none" d="M54.226,79.803C50.022,84.472,43.715,84.488,39.508,79.806C38.423,78.598,36.564,78.499,35.356,79.584C34.148,80.669,34.049,82.528,35.134,83.736C41.682,91.023,52.06,90.997,58.596,83.739C59.683,82.532,59.586,80.673,58.379,79.586C57.172,78.499,55.313,78.597,54.226,79.803Z"/>
</g>
  <g id="Light-L" transform="matrix(1.0,0.0,0.0,1.0,1107.3737527901787,1473.7237723214287)">  <path stroke="none" stroke-width="1.5px" stroke-opacity="1" fill-opacity="1" clip-rule="evenodd" stroke-linecap="round" stroke-dasharray="none" stroke-linejoin="round" stroke-miterlimit="4" fill="#000000" fill-rule="nonzero" d="M47.046,72.422C59.167,72.422,67.015,71.569,72.522,69.412C78.86,66.931,82.24,62.559,82.812,55.964C82.818,55.893,82.821,55.822,82.821,55.752C82.821,50.896,81.86,48.093,79.422,44.017C79.347,43.892,79.002,43.318,78.909,43.162C76.56,39.23,75.69,36.535,75.69,31.149C75.69,17.73,63.07,5.391,47.046,5.391C31.023,5.391,18.402,17.73,18.402,31.149C18.402,36.535,17.533,39.23,15.184,43.162C15.091,43.318,14.746,43.892,14.671,44.017C12.233,48.093,11.271,50.896,11.271,55.752C11.271,55.822,11.275,55.893,11.281,55.964C11.855,62.578,15.234,66.952,21.575,69.429C27.075,71.578,34.902,72.422,47.046,72.422ZM47.046,67.522C24.566,67.522,16.944,64.544,16.163,55.54L16.172,55.752C16.172,51.904,16.855,49.912,18.876,46.533C18.948,46.413,19.294,45.838,19.391,45.675C22.163,41.034,23.303,37.502,23.303,31.149C23.303,20.461,33.705,10.291,47.046,10.291C60.388,10.291,70.79,20.461,70.79,31.149C70.79,37.502,71.929,41.034,74.702,45.675C74.799,45.838,75.145,46.413,75.216,46.533C77.237,49.912,77.92,51.904,77.92,55.752L77.93,55.54C77.151,64.52,69.485,67.522,47.046,67.522Z"/>
  <path fill-rule="nonzero" stroke-width="1.5px" fill="#000000" stroke-miterlimit="4" stroke-opacity="1" stroke-linejoin="round" stroke-linecap="round" stroke-dasharray="none" fill-opacity="1" stroke="none" d="M54.59,80.131C50.192,85.016,43.546,85.033,39.144,80.133C38.239,79.127,36.69,79.044,35.683,79.948C34.677,80.853,34.594,82.402,35.498,83.409C41.851,90.479,51.89,90.453,58.232,83.411C59.138,82.405,59.057,80.856,58.051,79.95C57.045,79.045,55.496,79.126,54.59,80.131Z"/>
</g>
  <g id="Thin-L" transform="matrix(1.0,0.0,0.0,1.0,810.6637527901786,1473.7237723214287)">  <path stroke-opacity="1" stroke-miterlimit="4" fill-opacity="1" stroke-width="1.5px" stroke-linecap="round" fill="#000000" stroke-linejoin="round" fill-rule="nonzero" stroke="none" clip-rule="evenodd" stroke-dasharray="none" d="M47.046,71.932C59.11,71.932,66.909,71.085,72.344,68.956C78.51,66.541,81.768,62.328,82.324,55.921C82.328,55.865,82.331,55.808,82.331,55.752C82.331,50.997,81.398,48.275,79.001,44.269C78.927,44.144,78.582,43.57,78.488,43.413C76.097,39.41,75.2,36.632,75.2,31.149C75.2,18.003,62.801,5.881,47.046,5.881C31.291,5.881,18.892,18.003,18.892,31.149C18.892,36.632,17.996,39.41,15.604,43.413C15.511,43.57,15.166,44.144,15.091,44.269C12.695,48.275,11.762,50.997,11.762,55.752C11.762,55.808,11.764,55.865,11.769,55.921C12.327,62.347,15.583,66.563,21.753,68.973C27.181,71.093,34.96,71.932,47.046,71.932ZM47.046,68.012C24.333,68.012,16.487,64.947,15.675,55.582L15.682,55.752C15.682,51.803,16.393,49.73,18.456,46.281C18.528,46.161,18.873,45.586,18.97,45.424C21.7,40.854,22.813,37.406,22.813,31.149C22.813,20.188,33.437,9.801,47.046,9.801C60.656,9.801,71.28,20.188,71.28,31.149C71.28,37.406,72.392,40.854,75.123,45.424C75.219,45.586,75.565,46.161,75.637,46.281C77.7,49.73,78.41,51.803,78.41,55.752L78.418,55.582C77.608,64.922,69.718,68.012,47.046,68.012Z"/>
  <path fill-opacity="1" fill="#000000" fill-rule="nonzero" stroke="none" stroke-miterlimit="4" stroke-linejoin="round" stroke-linecap="round" stroke-opacity="1" stroke-width="1.5px" stroke-dasharray="none" d="M54.955,80.459C50.362,85.559,43.376,85.577,38.779,80.461C38.056,79.656,36.816,79.589,36.011,80.313C35.206,81.037,35.139,82.276,35.863,83.081C42.021,89.934,51.721,89.909,57.868,83.083C58.592,82.278,58.527,81.039,57.723,80.314C56.918,79.59,55.679,79.655,54.955,80.459Z"/>
</g>
  <g id="Ultralight-L" transform="matrix(1.0,0.0,0.0,1.0,513.9537527901786,1473.7237723214287)">  <path stroke="none" stroke-dasharray="none" fill-opacity="1" stroke-width="1.5px" clip-rule="evenodd" stroke-linecap="round" fill-rule="nonzero" stroke-linejoin="round" stroke-miterlimit="4" fill="#000000" stroke-opacity="1" d="M47.046,71.442C59.053,71.442,66.802,70.6,72.165,68.5C78.161,66.152,81.296,62.097,81.835,55.879L81.841,55.752C81.841,51.098,80.935,48.457,78.581,44.52C78.506,44.396,78.161,43.822,78.067,43.665C75.634,39.591,74.71,36.728,74.71,31.149C74.71,18.276,62.533,6.371,47.046,6.371C31.559,6.371,19.382,18.276,19.382,31.149C19.382,36.728,18.459,39.591,16.025,43.665C15.931,43.822,15.586,44.396,15.512,44.52C13.157,48.457,12.252,51.098,12.252,55.752L12.257,55.879C12.798,62.116,15.933,66.173,21.932,68.516C27.287,70.608,35.017,71.442,47.046,71.442ZM47.046,68.502C24.101,68.502,16.03,65.349,15.187,55.625L15.192,55.752C15.192,51.703,15.931,49.548,18.035,46.03C18.108,45.909,18.453,45.334,18.549,45.173C21.237,40.674,22.323,37.309,22.323,31.149C22.323,19.915,33.168,9.311,47.046,9.311C60.924,9.311,71.77,19.915,71.77,31.149C71.77,37.309,72.855,40.674,75.543,45.173C75.64,45.334,75.985,45.909,76.057,46.03C78.162,49.548,78.9,51.703,78.9,55.752L78.906,55.625C78.065,65.324,69.95,68.502,47.046,68.502Z"/>
  <path stroke-linejoin="round" stroke-opacity="1" fill="#000000" stroke-linecap="round" stroke-miterlimit="4" stroke-dasharray="none" fill-rule="nonzero" fill-opacity="1" stroke="none" stroke-width="1.5px" d="M55.319,80.787C50.532,86.103,43.207,86.122,38.415,80.788C37.872,80.184,36.942,80.135,36.338,80.678C35.734,81.22,35.685,82.15,36.227,82.754C42.19,89.39,51.551,89.366,57.504,82.755C58.047,82.152,57.998,81.222,57.395,80.679C56.792,80.135,55.862,80.184,55.319,80.787Z"/>
</g>
  <g id="Black-M" transform="matrix(1.0,0.0,0.0,1.0,2898.2100409226186,1054.300060453869)">  <path stroke-miterlimit="4" stroke-opacity="1" stroke-linejoin="round" fill-opacity="1" stroke-width="1.5px" clip-rule="evenodd" stroke-dasharray="none" fill="#000000" fill-rule="nonzero" stroke-linecap="round" stroke="none" d="M36.47,59.279C46.234,59.279,52.628,58.584,57.363,56.73C63.369,54.378,66.773,49.975,67.321,43.654C67.334,43.509,67.34,43.364,67.34,43.218C67.34,38.809,66.417,36.117,64.26,32.511C64.2,32.41,63.933,31.966,63.863,31.85C62.314,29.255,61.813,27.702,61.813,24.146C61.813,11.995,50.609,1.041,36.47,1.041C22.331,1.041,11.127,11.995,11.127,24.146C11.127,27.702,10.626,29.255,9.077,31.849C9.007,31.966,8.74,32.41,8.68,32.511C6.523,36.117,5.6,38.809,5.6,43.218C5.6,43.364,5.606,43.509,5.619,43.654C6.168,49.99,9.572,54.396,15.583,56.744C20.312,58.591,26.689,59.279,36.47,59.279ZM36.47,49.204C27.868,49.204,22.484,48.624,19.249,47.36C16.754,46.385,15.869,45.239,15.656,42.783L15.674,43.218C15.674,40.881,16.026,39.856,17.326,37.683C17.379,37.594,17.648,37.147,17.725,37.017C20.146,32.965,21.202,29.691,21.202,24.146C21.202,17.61,27.845,11.116,36.47,11.116C45.095,11.116,51.738,17.611,51.738,24.146C51.738,29.691,52.794,32.965,55.215,37.017C55.292,37.147,55.561,37.594,55.614,37.683C56.914,39.856,57.265,40.881,57.265,43.218L57.284,42.783C57.073,45.224,56.186,46.371,53.689,47.349C50.448,48.618,45.054,49.204,36.47,49.204Z"/>
  <path stroke="none" fill-rule="nonzero" stroke-opacity="1" stroke-dasharray="none" stroke-miterlimit="4" fill-opacity="1" stroke-linejoin="round" stroke-width="1.5px" stroke-linecap="round" fill="#000000" d="M39.986,60.018C37.821,62.422,34.842,62.43,32.678,60.022C30.819,57.952,27.634,57.782,25.564,59.641C23.495,61.501,23.325,64.686,25.184,66.755C31.357,73.626,41.313,73.6,47.473,66.759C49.335,64.692,49.168,61.507,47.101,59.645C45.033,57.783,41.848,57.95,39.986,60.018Z"/>
</g>
  <g id="Heavy-M" transform="matrix(1.0,0.0,0.0,1.0,2601.5000409226186,1054.300060453869)">  <path fill="#000000" stroke-dasharray="none" stroke-width="1.5px" stroke-linecap="round" stroke="none" clip-rule="evenodd" fill-opacity="1" stroke-miterlimit="4" fill-rule="nonzero" stroke-linejoin="round" stroke-opacity="1" d="M36.47,58.728C46.169,58.728,52.509,58.039,57.162,56.216C62.976,53.94,66.242,49.715,66.772,43.606C66.783,43.477,66.789,43.348,66.789,43.218C66.789,38.923,65.897,36.322,63.787,32.794C63.727,32.694,63.46,32.25,63.39,32.132C61.793,29.459,61.261,27.811,61.261,24.146C61.261,12.302,50.307,1.593,36.47,1.593C22.633,1.593,11.679,12.302,11.679,24.146C11.679,27.811,11.148,29.459,9.55,32.132C9.48,32.25,9.213,32.694,9.153,32.794C7.043,36.322,6.151,38.923,6.151,43.218C6.151,43.348,6.157,43.477,6.168,43.606C6.699,49.73,9.966,53.957,15.784,56.23C20.431,58.046,26.754,58.728,36.47,58.728ZM36.47,49.756C27.803,49.756,22.365,49.169,19.048,47.874C16.361,46.824,15.338,45.499,15.106,42.831L15.123,43.218C15.123,40.768,15.506,39.651,16.852,37.4C16.906,37.31,17.175,36.863,17.252,36.734C19.625,32.762,20.651,29.582,20.651,24.146C20.651,17.303,27.543,10.564,36.47,10.564C45.397,10.564,52.289,17.303,52.289,24.146C52.289,29.582,53.315,32.762,55.688,36.734C55.765,36.863,56.034,37.31,56.088,37.4C57.434,39.651,57.817,40.767,57.817,43.218L57.834,42.831C57.604,45.484,56.579,46.81,53.89,47.862C50.568,49.164,45.119,49.756,36.47,49.756Z"/>
  <path stroke-width="1.5px" stroke-linejoin="round" stroke-dasharray="none" fill-rule="nonzero" stroke-opacity="1" fill-opacity="1" stroke-linecap="round" stroke-miterlimit="4" stroke="none" fill="#000000" d="M40.396,60.387C38.012,63.034,34.651,63.043,32.268,60.39C30.612,58.547,27.776,58.396,25.933,60.052C24.09,61.708,23.939,64.544,25.594,66.387C31.548,73.013,41.121,72.988,47.063,66.39C48.721,64.549,48.572,61.713,46.731,60.055C44.89,58.397,42.054,58.546,40.396,60.387Z"/>
</g>
  <g id="Bold-M" transform="matrix(1.0,0.0,0.0,1.0,2304.7900409226186,1054.300060453869)">  <path clip-rule="evenodd" fill="#000000" fill-rule="nonzero" stroke-linecap="round" stroke-width="1.5px" stroke="none" stroke-linejoin="round" fill-opacity="1" stroke-dasharray="none" stroke-opacity="1" stroke-miterlimit="4" d="M36.47,58.176C46.104,58.176,52.39,57.493,56.961,55.703C62.582,53.501,65.711,49.455,66.222,43.558C66.232,43.445,66.237,43.332,66.237,43.218C66.237,39.036,65.377,36.527,63.314,33.078C63.254,32.978,62.987,32.534,62.916,32.415C61.271,29.662,60.709,27.92,60.709,24.146C60.709,12.61,50.005,2.144,36.47,2.144C22.935,2.144,12.231,12.61,12.231,24.146C12.231,27.92,11.669,29.662,10.024,32.415C9.953,32.534,9.686,32.978,9.626,33.078C7.563,36.527,6.703,39.036,6.703,43.218C6.703,43.332,6.708,43.445,6.718,43.559C7.231,49.47,10.359,53.519,15.984,55.716C20.55,57.5,26.818,58.176,36.47,58.176ZM36.47,50.308C27.738,50.308,22.246,49.715,18.847,48.387C15.968,47.263,14.807,45.759,14.557,42.878L14.571,43.218C14.571,40.654,14.985,39.447,16.379,37.116C16.433,37.026,16.701,36.58,16.778,36.451C19.104,32.559,20.099,29.473,20.099,24.146C20.099,16.996,27.241,10.013,36.47,10.013C45.698,10.013,52.841,16.996,52.841,24.146C52.841,29.473,53.837,32.559,56.162,36.451C56.239,36.579,56.507,37.026,56.561,37.116C57.955,39.447,58.369,40.654,58.369,43.218L58.383,42.878C58.135,45.744,56.972,47.248,54.092,48.376C50.687,49.709,45.183,50.308,36.47,50.308Z"/>
  <path stroke-width="1.5px" stroke="none" stroke-linejoin="round" fill-opacity="1" stroke-opacity="1" fill-rule="nonzero" stroke-miterlimit="4" stroke-linecap="round" fill="#000000" stroke-dasharray="none" d="M40.806,60.756C38.203,63.646,34.46,63.656,31.857,60.759C30.405,59.143,27.918,59.01,26.302,60.462C24.685,61.914,24.552,64.402,26.005,66.018C31.739,72.4,40.93,72.376,46.653,66.021C48.107,64.406,47.977,61.919,46.362,60.465C44.748,59.011,42.26,59.141,40.806,60.756Z"/>
</g>
  <g id="Semibold-M" transform="matrix(1.0,0.0,0.0,1.0,2008.080040922619,1054.300060453869)">  <path stroke-linecap="round" stroke="none" fill="#000000" stroke-width="1.5px" stroke-opacity="1" fill-rule="nonzero" stroke-dasharray="none" stroke-miterlimit="4" fill-opacity="1" stroke-linejoin="round" clip-rule="evenodd" d="M36.47,57.624C46.04,57.624,52.27,56.947,56.76,55.189C62.189,53.063,65.18,49.195,65.673,43.511C65.681,43.414,65.685,43.316,65.685,43.218C65.685,39.15,64.856,36.731,62.84,33.361C62.781,33.262,62.514,32.817,62.443,32.698C60.75,29.865,60.158,28.029,60.158,24.146C60.158,12.917,49.703,2.696,36.47,2.696C23.237,2.696,12.782,12.917,12.782,24.146C12.782,28.029,12.19,29.865,10.497,32.698C10.426,32.817,10.159,33.262,10.1,33.361C8.084,36.731,7.254,39.15,7.254,43.218C7.254,43.316,7.259,43.414,7.267,43.511C7.762,49.21,10.752,53.08,16.185,55.203C20.669,56.954,26.883,57.624,36.47,57.624ZM36.47,50.859C27.674,50.859,22.128,50.261,18.647,48.901C15.575,47.701,14.275,46.019,14.007,42.926L14.02,43.218C14.02,40.541,14.465,39.242,15.906,36.833C15.96,36.742,16.228,36.296,16.305,36.168C18.582,32.356,19.547,29.364,19.547,24.146C19.547,16.688,26.94,9.461,36.47,9.461C46,9.461,53.393,16.688,53.393,24.146C53.393,29.364,54.358,32.356,56.635,36.168C56.712,36.296,56.98,36.742,57.034,36.833C58.475,39.242,58.92,40.541,58.92,43.218L58.933,42.926C58.666,46.004,57.366,47.686,54.293,48.89C50.806,50.255,45.248,50.859,36.47,50.859Z"/>
  <path stroke-opacity="1" fill="#000000" fill-opacity="1" stroke-miterlimit="4" stroke-width="1.5px" stroke="none" stroke-linejoin="round" fill-rule="nonzero" stroke-dasharray="none" stroke-linecap="round" d="M41.216,61.125C38.395,64.258,34.269,64.269,31.447,61.128C30.199,59.738,28.06,59.624,26.67,60.872C25.281,62.121,25.166,64.26,26.415,65.649C31.93,71.787,40.739,71.764,46.243,65.652C47.493,64.264,47.381,62.125,45.993,60.875C44.605,59.625,42.466,59.737,41.216,61.125Z"/>
</g>
  <g id="Medium-M" transform="matrix(1.0,0.0,0.0,1.0,1711.370040922619,1054.300060453869)">  <path stroke="none" stroke-width="1.5px" stroke-linejoin="round" fill-opacity="1" stroke-miterlimit="4" fill="#000000" fill-rule="nonzero" stroke-dasharray="none" stroke-linecap="round" clip-rule="evenodd" stroke-opacity="1" d="M36.47,57.073C45.975,57.073,52.151,56.402,56.559,54.675C61.796,52.624,64.649,48.934,65.123,43.463C65.13,43.382,65.134,43.3,65.134,43.218C65.134,39.263,64.336,36.936,62.367,33.644C62.308,33.545,62.041,33.101,61.969,32.981C60.229,30.068,59.606,28.138,59.606,24.146C59.606,13.225,49.401,3.247,36.47,3.247C23.539,3.247,13.334,13.225,13.334,24.146C13.334,28.138,12.711,30.068,10.971,32.981C10.899,33.101,10.632,33.545,10.573,33.644C8.604,36.936,7.806,39.263,7.806,43.218C7.806,43.3,7.81,43.382,7.817,43.463C8.293,48.949,11.145,52.642,16.386,54.689C20.788,56.408,26.947,57.073,36.47,57.073ZM36.47,51.411C19.486,51.411,14.004,49.269,13.457,42.974L13.468,43.218C13.468,40.427,13.945,39.037,15.432,36.55C15.487,36.458,15.755,36.012,15.831,35.885C18.061,32.153,18.996,29.255,18.996,24.146C18.996,16.381,26.638,8.909,36.47,8.909C46.302,8.909,53.944,16.381,53.944,24.146C53.944,29.255,54.879,32.153,57.109,35.885C57.185,36.012,57.453,36.458,57.508,36.55C58.995,39.037,59.472,40.427,59.472,43.218L59.482,42.974C58.938,49.251,53.423,51.411,36.47,51.411Z"/>
  <path stroke="none" stroke-opacity="1" stroke-width="1.5px" fill-opacity="1" stroke-dasharray="none" stroke-linecap="round" stroke-linejoin="round" fill="#000000" fill-rule="nonzero" stroke-miterlimit="4" d="M41.626,61.494C38.586,64.87,34.079,64.882,31.037,61.496C29.992,60.333,28.202,60.238,27.039,61.283C25.876,62.328,25.78,64.118,26.825,65.281C32.121,71.174,40.548,71.152,45.833,65.283C46.88,64.121,46.786,62.331,45.624,61.285C44.462,60.238,42.672,60.332,41.626,61.494Z"/>
</g>
  <g id="Regular-M" transform="matrix(1.0,0.0,0.0,1.0,1414.660040922619,1054.300060453869)">  <path stroke-width="1.5px" fill="#000000" stroke-dasharray="none" stroke="none" fill-opacity="1" stroke-linejoin="round" stroke-opacity="1" clip-rule="evenodd" fill-rule="nonzero" stroke-linecap="round" stroke-miterlimit="4" d="M36.47,56.521C45.911,56.521,52.031,55.856,56.357,54.162C61.402,52.186,64.117,48.674,64.574,43.415C64.579,43.35,64.582,43.284,64.582,43.218C64.582,39.376,63.816,37.141,61.893,33.927C61.835,33.829,61.568,33.384,61.496,33.264C59.708,30.271,59.055,28.247,59.055,24.146C59.055,13.532,49.099,3.799,36.47,3.799C23.841,3.799,13.885,13.532,13.885,24.146C13.885,28.247,13.232,30.271,11.444,33.264C11.372,33.384,11.105,33.829,11.047,33.927C9.124,37.141,8.358,39.376,8.358,43.218C8.358,43.284,8.361,43.35,8.366,43.415C8.824,48.689,11.538,52.203,16.587,54.175C20.907,55.863,27.012,56.521,36.47,56.521ZM36.47,51.962C19.224,51.962,13.489,49.722,12.908,43.021L12.916,43.218C12.916,40.314,13.424,38.833,14.959,36.267C15.014,36.175,15.282,35.729,15.358,35.602C17.54,31.95,18.444,29.147,18.444,24.146C18.444,16.073,26.336,8.358,36.47,8.358C46.604,8.358,54.496,16.073,54.496,24.146C54.496,29.147,55.4,31.95,57.582,35.602C57.658,35.729,57.926,36.175,57.981,36.267C59.516,38.833,60.023,40.314,60.023,43.218L60.032,43.021C59.452,49.703,53.684,51.962,36.47,51.962Z"/>
  <path stroke-width="1.5px" stroke-linecap="round" stroke-miterlimit="4" stroke="none" stroke-linejoin="round" stroke-opacity="1" fill-rule="nonzero" fill-opacity="1" fill="#000000" stroke-dasharray="none" d="M42.036,61.863C38.777,65.482,33.888,65.495,30.627,61.865C29.785,60.929,28.344,60.852,27.408,61.693C26.471,62.534,26.394,63.976,27.236,64.912C32.311,70.561,40.357,70.54,45.423,64.914C46.266,63.978,46.19,62.537,45.255,61.695C44.319,60.852,42.878,60.928,42.036,61.863Z"/>
</g>
  <g id="Light-M" transform="matrix(1.0,0.0,0.0,1.0,1117.950040922619,1054.300060453869)">  <path stroke="none" stroke-width="1.5px" stroke-opacity="1" fill-opacity="1" clip-rule="evenodd" stroke-linecap="round" stroke-dasharray="none" stroke-linejoin="round" stroke-miterlimit="4" fill="#000000" fill-rule="nonzero" d="M36.47,56.141C45.866,56.141,51.949,55.48,56.219,53.808C61.132,51.884,63.752,48.495,64.195,43.383C64.2,43.328,64.202,43.273,64.202,43.218C64.202,39.455,63.457,37.282,61.567,34.122C61.509,34.025,61.242,33.58,61.17,33.459C59.349,30.411,58.675,28.322,58.675,24.146C58.675,13.744,48.891,4.179,36.47,4.179C24.049,4.179,14.265,13.744,14.265,24.146C14.265,28.322,13.591,30.411,11.77,33.459C11.698,33.58,11.431,34.025,11.373,34.122C9.483,37.282,8.738,39.455,8.738,43.218C8.738,43.273,8.74,43.328,8.745,43.383C9.19,48.51,11.809,51.901,16.725,53.821C20.989,55.487,27.056,56.141,36.47,56.141ZM36.47,52.342C19.043,52.342,13.135,50.034,12.529,43.054L12.537,43.218C12.537,40.236,13.066,38.692,14.633,36.072C14.688,35.979,14.956,35.533,15.032,35.407C17.181,31.81,18.064,29.072,18.064,24.146C18.064,15.861,26.128,7.978,36.47,7.978C46.812,7.978,54.876,15.861,54.876,24.146C54.876,29.072,55.759,31.81,57.908,35.407C57.984,35.533,58.252,35.979,58.307,36.072C59.874,38.692,60.403,40.236,60.403,43.218L60.41,43.054C59.807,50.015,53.865,52.342,36.47,52.342Z"/>
  <path fill-rule="nonzero" stroke-width="1.5px" fill="#000000" stroke-miterlimit="4" stroke-opacity="1" stroke-linejoin="round" stroke-linecap="round" stroke-dasharray="none" fill-opacity="1" stroke="none" d="M42.318,62.117C38.909,65.904,33.756,65.917,30.344,62.119C29.643,61.339,28.442,61.274,27.661,61.976C26.881,62.677,26.817,63.878,27.518,64.658C32.443,70.139,40.225,70.119,45.141,64.66C45.843,63.88,45.78,62.679,45.001,61.977C44.221,61.275,43.02,61.338,42.318,62.117Z"/>
</g>
  <g id="Thin-M" transform="matrix(1.0,0.0,0.0,1.0,821.2400409226191,1054.300060453869)">  <path stroke-opacity="1" stroke-miterlimit="4" fill-opacity="1" stroke-width="1.5px" stroke-linecap="round" fill="#000000" stroke-linejoin="round" fill-rule="nonzero" stroke="none" clip-rule="evenodd" stroke-dasharray="none" d="M36.47,55.761C45.822,55.761,51.867,55.104,56.08,53.454C60.861,51.582,63.386,48.316,63.817,43.35C63.821,43.306,63.822,43.262,63.822,43.218C63.822,39.533,63.099,37.423,61.241,34.317C61.183,34.22,60.916,33.775,60.844,33.654C58.99,30.551,58.295,28.397,58.295,24.146C58.295,13.956,48.683,4.559,36.47,4.559C24.257,4.559,14.645,13.956,14.645,24.146C14.645,28.397,13.95,30.551,12.096,33.654C12.024,33.775,11.757,34.22,11.699,34.317C9.841,37.423,9.117,39.533,9.117,43.218C9.117,43.262,9.119,43.306,9.123,43.35C9.555,48.331,12.08,51.599,16.863,53.467C21.071,55.111,27.101,55.761,36.47,55.761ZM36.47,52.722C18.863,52.722,12.781,50.346,12.151,43.087L12.157,43.218C12.157,40.158,12.708,38.551,14.307,35.877C14.363,35.784,14.63,35.338,14.705,35.212C16.822,31.67,17.684,28.997,17.684,24.146C17.684,15.65,25.92,7.598,36.47,7.598C47.02,7.598,55.256,15.65,55.256,24.146C55.256,28.997,56.118,31.67,58.235,35.212C58.309,35.338,58.577,35.784,58.633,35.877C60.232,38.551,60.783,40.158,60.783,43.218L60.789,43.087C60.161,50.327,54.045,52.722,36.47,52.722Z"/>
  <path fill-opacity="1" fill="#000000" fill-rule="nonzero" stroke="none" stroke-miterlimit="4" stroke-linejoin="round" stroke-linecap="round" stroke-opacity="1" stroke-width="1.5px" stroke-dasharray="none" d="M42.6,62.372C39.04,66.325,33.625,66.339,30.061,62.373C29.5,61.749,28.54,61.697,27.915,62.258C27.291,62.819,27.24,63.78,27.801,64.404C32.574,69.716,40.093,69.697,44.859,64.405C45.42,63.782,45.37,62.821,44.746,62.259C44.123,61.698,43.162,61.748,42.6,62.372Z"/>
</g>
  <g id="Ultralight-M" transform="matrix(1.0,0.0,0.0,1.0,524.530040922619,1054.300060453869)">  <path stroke="none" stroke-dasharray="none" fill-opacity="1" stroke-width="1.5px" clip-rule="evenodd" stroke-linecap="round" fill-rule="nonzero" stroke-linejoin="round" stroke-miterlimit="4" fill="#000000" stroke-opacity="1" d="M36.47,55.381C45.777,55.381,51.785,54.729,55.942,53.101C60.59,51.28,63.02,48.137,63.438,43.317L63.443,43.218C63.443,39.611,62.741,37.564,60.915,34.512C60.858,34.416,60.59,33.97,60.517,33.849C58.631,30.691,57.915,28.472,57.915,24.146C57.915,14.167,48.475,4.939,36.47,4.939C24.464,4.939,15.025,14.167,15.025,24.146C15.025,28.472,14.309,30.691,12.423,33.849C12.35,33.97,12.082,34.416,12.025,34.512C10.199,37.564,9.497,39.611,9.497,43.218L9.502,43.317C9.921,48.152,12.351,51.297,17.001,53.114C21.152,54.735,27.145,55.381,36.47,55.381ZM36.47,53.102C18.683,53.102,12.427,50.658,11.772,43.12L11.777,43.218C11.777,40.079,12.349,38.41,13.981,35.682C14.037,35.588,14.305,35.143,14.379,35.018C16.463,31.53,17.305,28.922,17.305,24.146C17.305,15.438,25.712,7.218,36.47,7.218C47.228,7.218,55.636,15.438,55.636,24.146C55.636,28.922,56.477,31.53,58.561,35.018C58.635,35.143,58.903,35.588,58.959,35.682C60.591,38.41,61.163,40.079,61.163,43.218L61.167,43.12C60.515,50.639,54.225,53.102,36.47,53.102Z"/>
  <path stroke-linejoin="round" stroke-opacity="1" fill="#000000" stroke-linecap="round" stroke-miterlimit="4" stroke-dasharray="none" fill-rule="nonzero" fill-opacity="1" stroke="none" stroke-width="1.5px" d="M42.883,62.626C39.172,66.747,33.494,66.761,29.779,62.627C29.358,62.159,28.638,62.12,28.169,62.541C27.701,62.961,27.663,63.682,28.083,64.15C32.705,69.294,39.962,69.276,44.577,64.151C44.998,63.683,44.96,62.963,44.492,62.542C44.025,62.12,43.304,62.158,42.883,62.626Z"/>
</g>
  <g id="Black-S" transform="matrix(1.0,0.0,0.0,1.0,2906.1240220424106,632.2140415736607)">  <path stroke-miterlimit="4" stroke-opacity="1" stroke-linejoin="round" fill-opacity="1" stroke-width="1.5px" clip-rule="evenodd" stroke-dasharray="none" fill="#000000" fill-rule="nonzero" stroke-linecap="round" stroke="none" d="M28.556,46.416C36.201,46.416,41.208,45.871,44.915,44.42C49.618,42.578,52.283,39.13,52.713,34.181C52.722,34.068,52.727,33.954,52.727,33.84C52.727,30.388,52.005,28.28,50.316,25.456C50.269,25.377,50.06,25.03,50.005,24.938C48.792,22.907,48.399,21.691,48.399,18.907C48.399,9.392,39.627,0.815,28.556,0.815C17.485,0.815,8.713,9.392,8.713,18.907C8.713,21.691,8.32,22.907,7.107,24.938C7.052,25.03,6.843,25.377,6.796,25.456C5.107,28.28,4.385,30.388,4.385,33.84C4.385,33.954,4.389,34.068,4.399,34.181C4.83,39.142,7.495,42.592,12.202,44.431C15.904,45.877,20.898,46.416,28.556,46.416ZM28.556,38.527C21.82,38.527,17.605,38.072,15.072,37.083C13.119,36.32,12.425,35.422,12.258,33.499L12.273,33.84C12.273,32.01,12.548,31.207,13.566,29.506C13.608,29.436,13.818,29.086,13.879,28.984C15.774,25.812,16.601,23.248,16.601,18.907C16.601,13.789,21.803,8.704,28.556,8.704C35.309,8.704,40.511,13.789,40.511,18.907C40.511,23.248,41.338,25.812,43.233,28.984C43.294,29.086,43.504,29.436,43.546,29.506C44.564,31.207,44.839,32.01,44.839,33.84L44.854,33.499C44.688,35.411,43.993,36.309,42.039,37.074C39.501,38.068,35.277,38.527,28.556,38.527Z"/>
  <path stroke="none" fill-rule="nonzero" stroke-opacity="1" stroke-dasharray="none" stroke-miterlimit="4" fill-opacity="1" stroke-linejoin="round" stroke-width="1.5px" stroke-linecap="round" fill="#000000" d="M31.309,46.994C29.614,48.876,27.281,48.882,25.587,46.997C24.131,45.377,21.637,45.243,20.017,46.699C18.396,48.155,18.263,50.649,19.719,52.269C24.553,57.649,32.348,57.629,37.171,52.273C38.629,50.654,38.498,48.16,36.88,46.702C35.261,45.244,32.767,45.375,31.309,46.994Z"/>
</g>
  <g id="Heavy-S" transform="matrix(1.0,0.0,0.0,1.0,2609.4140220424106,632.2140415736607)">  <path fill="#000000" stroke-dasharray="none" stroke-width="1.5px" stroke-linecap="round" stroke="none" clip-rule="evenodd" fill-opacity="1" stroke-miterlimit="4" fill-rule="nonzero" stroke-linejoin="round" stroke-opacity="1" d="M28.556,45.984C36.15,45.984,41.115,45.444,44.758,44.017C49.31,42.235,51.867,38.927,52.282,34.144C52.291,34.043,52.296,33.941,52.296,33.84C52.296,30.477,51.597,28.44,49.945,25.678C49.898,25.599,49.689,25.252,49.634,25.16C48.384,23.066,47.967,21.776,47.967,18.907C47.967,9.633,39.39,1.247,28.556,1.247C17.722,1.247,9.145,9.633,9.145,18.907C9.145,21.776,8.729,23.066,7.478,25.16C7.423,25.252,7.214,25.599,7.167,25.678C5.515,28.44,4.816,30.477,4.816,33.84C4.816,33.941,4.821,34.043,4.83,34.144C5.246,38.938,7.803,42.249,12.359,44.028C15.997,45.45,20.948,45.984,28.556,45.984ZM28.556,38.959C21.77,38.959,17.512,38.5,14.915,37.485C12.811,36.663,12.009,35.626,11.828,33.536L11.841,33.84C11.841,31.921,12.141,31.047,13.195,29.284C13.238,29.214,13.448,28.864,13.508,28.763C15.366,25.653,16.169,23.163,16.169,18.907C16.169,13.548,21.566,8.272,28.556,8.272C35.546,8.272,40.943,13.548,40.943,18.907C40.943,23.163,41.746,25.653,43.604,28.762C43.664,28.864,43.874,29.214,43.917,29.284C44.971,31.047,45.271,31.921,45.271,33.84L45.284,33.536C45.104,35.614,44.301,36.652,42.196,37.476C39.594,38.495,35.328,38.959,28.556,38.959Z"/>
  <path stroke-width="1.5px" stroke-linejoin="round" stroke-dasharray="none" fill-rule="nonzero" stroke-opacity="1" fill-opacity="1" stroke-linecap="round" stroke-miterlimit="4" stroke="none" fill="#000000" d="M31.63,47.283C29.764,49.356,27.132,49.362,25.266,47.286C23.969,45.843,21.748,45.724,20.305,47.021C18.863,48.317,18.744,50.538,20.04,51.981C24.702,57.169,32.198,57.15,36.85,51.984C38.148,50.542,38.032,48.321,36.591,47.023C35.149,45.725,32.928,45.841,31.63,47.283Z"/>
</g>
  <g id="Bold-S" transform="matrix(1.0,0.0,0.0,1.0,2312.7040220424105,632.2140415736607)">  <path clip-rule="evenodd" fill="#000000" fill-rule="nonzero" stroke-linecap="round" stroke-width="1.5px" stroke="none" stroke-linejoin="round" fill-opacity="1" stroke-dasharray="none" stroke-opacity="1" stroke-miterlimit="4" d="M28.556,45.552C36.1,45.552,41.021,45.017,44.6,43.615C49.002,41.891,51.452,38.723,51.852,34.106C51.86,34.018,51.864,33.929,51.864,33.84C51.864,30.565,51.19,28.6,49.575,25.9C49.528,25.822,49.319,25.474,49.264,25.381C47.975,23.225,47.535,21.861,47.535,18.907C47.535,9.873,39.154,1.679,28.556,1.679C17.958,1.679,9.577,9.873,9.577,18.907C9.577,21.861,9.137,23.225,7.848,25.381C7.793,25.474,7.584,25.822,7.537,25.9C5.922,28.6,5.248,30.565,5.248,33.84C5.248,33.929,5.252,34.018,5.26,34.106C5.662,38.735,8.111,41.905,12.516,43.626C16.091,45.022,20.999,45.552,28.556,45.552ZM28.556,39.391C21.719,39.391,17.419,38.927,14.758,37.887C12.503,37.007,11.594,35.83,11.398,33.574L11.409,33.84C11.409,31.832,11.733,30.887,12.825,29.062C12.867,28.991,13.077,28.642,13.137,28.541C14.958,25.494,15.738,23.078,15.738,18.907C15.738,13.308,21.33,7.84,28.556,7.84C35.782,7.84,41.375,13.308,41.375,18.907C41.375,23.078,42.154,25.494,43.975,28.541C44.035,28.642,44.245,28.991,44.287,29.062C45.379,30.887,45.703,31.832,45.703,33.84L45.714,33.574C45.52,35.818,44.609,36.995,42.354,37.878C39.688,38.923,35.378,39.391,28.556,39.391Z"/>
  <path stroke-width="1.5px" stroke="none" stroke-linejoin="round" fill-opacity="1" stroke-opacity="1" fill-rule="nonzero" stroke-miterlimit="4" stroke-linecap="round" fill="#000000" stroke-dasharray="none" d="M31.951,47.572C29.913,49.835,26.982,49.842,24.944,47.574C23.807,46.309,21.86,46.205,20.594,47.342C19.329,48.479,19.225,50.427,20.362,51.692C24.852,56.689,32.048,56.671,36.529,51.695C37.668,50.43,37.566,48.483,36.302,47.344C35.037,46.206,33.09,46.308,31.951,47.572Z"/>
</g>
  <g id="Semibold-S" transform="matrix(1.0,0.0,0.0,1.0,2015.9940220424107,632.2140415736607)">  <path stroke-linecap="round" stroke="none" fill="#000000" stroke-width="1.5px" stroke-opacity="1" fill-rule="nonzero" stroke-dasharray="none" stroke-miterlimit="4" fill-opacity="1" stroke-linejoin="round" clip-rule="evenodd" d="M28.556,45.12C36.049,45.12,40.928,44.59,44.443,43.213C48.694,41.548,51.036,38.519,51.422,34.069C51.428,33.993,51.432,33.916,51.432,33.84C51.432,30.654,50.782,28.761,49.204,26.121C49.157,26.044,48.948,25.696,48.893,25.603C47.567,23.384,47.104,21.947,47.104,18.907C47.104,10.114,38.917,2.111,28.556,2.111C18.195,2.111,10.009,10.114,10.009,18.907C10.009,21.947,9.545,23.384,8.219,25.603C8.164,25.696,7.955,26.044,7.908,26.121C6.33,28.761,5.68,30.654,5.68,33.84C5.68,33.916,5.684,33.993,5.69,34.069C6.077,38.531,8.419,41.562,12.673,43.224C16.184,44.595,21.049,45.12,28.556,45.12ZM28.556,39.823C21.669,39.823,17.326,39.354,14.6,38.29C12.195,37.35,11.178,36.033,10.967,33.611L10.977,33.84C10.977,31.743,11.326,30.727,12.454,28.841C12.497,28.769,12.707,28.42,12.767,28.319C14.55,25.335,15.306,22.992,15.306,18.907C15.306,13.067,21.094,7.408,28.556,7.408C36.018,7.408,41.806,13.067,41.806,18.907C41.806,22.992,42.562,25.335,44.345,28.319C44.405,28.42,44.615,28.769,44.658,28.84C45.786,30.727,46.135,31.743,46.135,33.84L46.144,33.611C45.935,36.021,44.917,37.338,42.511,38.281C39.781,39.35,35.429,39.823,28.556,39.823Z"/>
  <path stroke-opacity="1" fill="#000000" fill-opacity="1" stroke-miterlimit="4" stroke-width="1.5px" stroke="none" stroke-linejoin="round" fill-rule="nonzero" stroke-dasharray="none" stroke-linecap="round" d="M32.272,47.861C30.063,50.314,26.833,50.322,24.623,47.863C23.645,46.775,21.971,46.685,20.883,47.663C19.795,48.641,19.705,50.315,20.683,51.403C25.001,56.209,31.899,56.191,36.208,51.406C37.187,50.319,37.1,48.644,36.013,47.665C34.926,46.686,33.251,46.774,32.272,47.861Z"/>
</g>
  <g id="Medium-S" transform="matrix(1.0,0.0,0.0,1.0,1719.2840220424107,632.2140415736607)">  <path stroke="none" stroke-width="1.5px" stroke-linejoin="round" fill-opacity="1" stroke-miterlimit="4" fill="#000000" fill-rule="nonzero" stroke-dasharray="none" stroke-linecap="round" clip-rule="evenodd" stroke-opacity="1" d="M28.556,44.688C35.999,44.688,40.834,44.162,44.285,42.811C48.386,41.205,50.62,38.316,50.991,34.032C50.997,33.968,51,33.904,51,33.84C51,30.743,50.375,28.921,48.833,26.343C48.787,26.266,48.578,25.918,48.522,25.824C47.159,23.543,46.672,22.032,46.672,18.907C46.672,10.355,38.681,2.543,28.556,2.543C18.431,2.543,10.44,10.355,10.44,18.907C10.44,22.032,9.953,23.543,8.59,25.824C8.534,25.918,8.325,26.266,8.279,26.343C6.737,28.921,6.112,30.743,6.112,33.84C6.112,33.904,6.115,33.968,6.12,34.032C6.493,38.327,8.727,41.218,12.83,42.821C16.277,44.168,21.1,44.688,28.556,44.688ZM28.556,40.255C15.257,40.255,10.965,38.578,10.537,33.648L10.545,33.84C10.545,31.655,10.919,30.566,12.083,28.619C12.126,28.547,12.336,28.198,12.396,28.098C14.142,25.176,14.874,22.907,14.874,18.907C14.874,12.826,20.857,6.976,28.556,6.976C36.255,6.976,42.238,12.826,42.238,18.907C42.238,22.907,42.97,25.176,44.716,28.098C44.776,28.198,44.986,28.547,45.029,28.619C46.193,30.566,46.566,31.655,46.566,33.84L46.575,33.648C46.148,38.563,41.83,40.255,28.556,40.255Z"/>
  <path stroke="none" stroke-opacity="1" stroke-width="1.5px" fill-opacity="1" stroke-dasharray="none" stroke-linecap="round" stroke-linejoin="round" fill="#000000" fill-rule="nonzero" stroke-miterlimit="4" d="M32.593,48.15C30.213,50.793,26.684,50.802,24.302,48.152C23.484,47.241,22.082,47.166,21.171,47.984C20.261,48.803,20.186,50.204,21.004,51.115C25.15,55.729,31.749,55.712,35.887,51.116C36.707,50.207,36.633,48.805,35.724,47.986C34.814,47.167,33.412,47.24,32.593,48.15Z"/>
</g>
  <g id="Regular-S" transform="matrix(1.0,0.0,0.0,1.0,1422.5740220424107,632.2140415736607)">  <path stroke-width="1.5px" fill="#000000" stroke-dasharray="none" stroke="none" fill-opacity="1" stroke-linejoin="round" stroke-opacity="1" clip-rule="evenodd" fill-rule="nonzero" stroke-linecap="round" stroke-miterlimit="4" d="M28.556,44.256C35.948,44.256,40.741,43.735,44.128,42.409C48.078,40.862,50.204,38.112,50.561,33.994C50.566,33.943,50.568,33.892,50.568,33.84C50.568,30.832,49.968,29.081,48.463,26.565C48.417,26.488,48.208,26.14,48.151,26.046C46.751,23.702,46.24,22.117,46.24,18.907C46.24,10.596,38.445,2.975,28.556,2.975C18.667,2.975,10.872,10.596,10.872,18.907C10.872,22.117,10.361,23.702,8.961,26.046C8.904,26.14,8.695,26.488,8.649,26.565C7.144,29.081,6.544,30.832,6.544,33.84C6.544,33.892,6.546,33.943,6.551,33.994C6.909,38.124,9.035,40.875,12.987,42.419C16.37,43.74,21.15,44.256,28.556,44.256ZM28.556,40.687C15.052,40.687,10.562,38.933,10.107,33.686L10.114,33.84C10.114,31.566,10.511,30.406,11.713,28.397C11.756,28.325,11.966,27.975,12.025,27.876C13.734,25.016,14.442,22.822,14.442,18.907C14.442,12.585,20.621,6.544,28.556,6.544C36.491,6.544,42.67,12.585,42.67,18.907C42.67,22.822,43.378,25.016,45.087,27.876C45.146,27.975,45.356,28.325,45.399,28.397C46.601,30.406,46.998,31.566,46.998,33.84L47.005,33.686C46.551,38.918,42.035,40.687,28.556,40.687Z"/>
  <path stroke-width="1.5px" stroke-linecap="round" stroke-miterlimit="4" stroke="none" stroke-linejoin="round" stroke-opacity="1" fill-rule="nonzero" fill-opacity="1" fill="#000000" stroke-dasharray="none" d="M32.914,48.439C30.362,51.272,26.534,51.282,23.981,48.44C23.322,47.707,22.193,47.647,21.46,48.306C20.727,48.964,20.667,50.093,21.325,50.826C25.3,55.249,31.599,55.233,35.567,50.827C36.226,50.095,36.167,48.966,35.435,48.307C34.702,47.647,33.574,47.706,32.914,48.439Z"/>
</g>
  <g id="Light-S" transform="matrix(1.0,0.0,0.0,1.0,1125.8640220424109,632.2140415736607)">  <path stroke="none" stroke-width="1.5px" stroke-opacity="1" fill-opacity="1" clip-rule="evenodd" stroke-linecap="round" stroke-dasharray="none" stroke-linejoin="round" stroke-miterlimit="4" fill="#000000" fill-rule="nonzero" d="M28.556,43.959C35.913,43.959,40.676,43.441,44.019,42.132C47.866,40.625,49.918,37.972,50.265,33.969C50.269,33.926,50.27,33.883,50.27,33.84C50.27,30.893,49.687,29.192,48.207,26.718C48.162,26.641,47.952,26.293,47.896,26.198C46.47,23.812,45.942,22.176,45.942,18.907C45.942,10.762,38.282,3.272,28.556,3.272C18.83,3.272,11.17,10.761,11.17,18.907C11.17,22.176,10.642,23.812,9.216,26.198C9.16,26.293,8.95,26.641,8.905,26.718C7.425,29.192,6.842,30.893,6.842,33.84C6.842,33.883,6.843,33.926,6.847,33.969C7.196,37.983,9.247,40.638,13.096,42.142C16.434,43.446,21.185,43.959,28.556,43.959ZM28.556,40.984C14.911,40.984,10.285,39.177,9.811,33.711L9.816,33.84C9.816,31.505,10.231,30.296,11.458,28.244C11.501,28.172,11.711,27.823,11.77,27.724C13.453,24.907,14.144,22.763,14.144,18.907C14.144,12.419,20.458,6.247,28.556,6.247C36.654,6.247,42.968,12.42,42.968,18.907C42.968,22.763,43.659,24.907,45.342,27.724C45.401,27.823,45.611,28.172,45.654,28.244C46.881,30.296,47.296,31.505,47.296,33.84L47.301,33.711C46.829,39.162,42.176,40.984,28.556,40.984Z"/>
  <path fill-rule="nonzero" stroke-width="1.5px" fill="#000000" stroke-miterlimit="4" stroke-opacity="1" stroke-linejoin="round" stroke-linecap="round" stroke-dasharray="none" fill-opacity="1" stroke="none" d="M33.135,48.638C30.465,51.603,26.431,51.613,23.759,48.639C23.21,48.028,22.27,47.978,21.659,48.527C21.048,49.076,20.998,50.016,21.547,50.627C25.403,54.918,31.496,54.903,35.345,50.628C35.895,50.018,35.846,49.078,35.236,48.528C34.625,47.978,33.685,48.027,33.135,48.638Z"/>
</g>
  <g id="Thin-S" transform="matrix(1.0,0.0,0.0,1.0,829.1540220424107,632.2140415736607)">  <path stroke-opacity="1" stroke-miterlimit="4" fill-opacity="1" stroke-width="1.5px" stroke-linecap="round" fill="#000000" stroke-linejoin="round" fill-rule="nonzero" stroke="none" clip-rule="evenodd" stroke-dasharray="none" d="M28.556,43.661C35.878,43.661,40.612,43.147,43.911,41.855C47.654,40.389,49.631,37.831,49.969,33.943C49.971,33.909,49.973,33.874,49.973,33.84C49.973,30.954,49.406,29.302,47.952,26.87C47.907,26.794,47.697,26.446,47.64,26.351C46.189,23.921,45.645,22.235,45.645,18.907C45.645,10.927,38.119,3.569,28.556,3.569C18.993,3.569,11.467,10.927,11.467,18.907C11.467,22.235,10.923,23.921,9.472,26.351C9.415,26.446,9.205,26.794,9.16,26.87C7.706,29.302,7.139,30.954,7.139,33.84C7.139,33.874,7.14,33.909,7.143,33.943C7.482,37.843,9.459,40.402,13.204,41.865C16.498,43.152,21.22,43.661,28.556,43.661ZM28.556,41.281C14.77,41.281,10.007,39.421,9.514,33.737L9.519,33.84C9.519,31.443,9.95,30.185,11.202,28.092C11.246,28.019,11.456,27.67,11.514,27.571C13.172,24.797,13.847,22.704,13.847,18.907C13.847,12.254,20.295,5.949,28.556,5.949C36.817,5.949,43.265,12.254,43.265,18.907C43.265,22.704,43.94,24.797,45.598,27.571C45.656,27.67,45.866,28.019,45.91,28.092C47.162,30.185,47.593,31.443,47.593,33.84L47.598,33.737C47.106,39.406,42.317,41.281,28.556,41.281Z"/>
  <path fill-opacity="1" fill="#000000" fill-rule="nonzero" stroke="none" stroke-miterlimit="4" stroke-linejoin="round" stroke-linecap="round" stroke-opacity="1" stroke-width="1.5px" stroke-dasharray="none" d="M33.356,48.837C30.568,51.933,26.328,51.943,23.538,48.838C23.099,48.349,22.347,48.309,21.858,48.748C21.369,49.187,21.329,49.94,21.768,50.428C25.505,54.588,31.393,54.573,35.124,50.429C35.564,49.941,35.525,49.189,35.036,48.749C34.548,48.309,33.796,48.349,33.356,48.837Z"/>
</g>
  <g id="Ultralight-S" transform="matrix(1.0,0.0,0.0,1.0,532.4440220424107,632.2140415736607)">  <path stroke="none" stroke-dasharray="none" fill-opacity="1" stroke-width="1.5px" clip-rule="evenodd" stroke-linecap="round" fill-rule="nonzero" stroke-linejoin="round" stroke-miterlimit="4" fill="#000000" stroke-opacity="1" d="M28.556,43.364C35.844,43.364,40.548,42.852,43.802,41.578C47.442,40.152,49.345,37.691,49.672,33.917L49.676,33.84C49.676,31.015,49.126,29.412,47.697,27.023C47.652,26.947,47.442,26.599,47.385,26.503C45.908,24.031,45.347,22.293,45.347,18.907C45.347,11.093,37.956,3.867,28.556,3.867C19.156,3.867,11.765,11.093,11.765,18.907C11.765,22.293,11.204,24.031,9.727,26.503C9.67,26.599,9.46,26.947,9.415,27.023C7.986,29.412,7.436,31.015,7.436,33.84L7.44,33.917C7.768,37.703,9.671,40.165,13.312,41.588C16.562,42.858,21.254,43.364,28.556,43.364ZM28.556,41.579C14.629,41.579,9.73,39.665,9.218,33.763L9.221,33.84C9.221,31.382,9.67,30.075,10.947,27.939C10.991,27.866,11.201,27.517,11.259,27.419C12.891,24.688,13.549,22.646,13.549,18.907C13.549,12.088,20.132,5.652,28.556,5.652C36.979,5.652,43.563,12.088,43.563,18.907C43.563,22.646,44.222,24.688,45.853,27.419C45.911,27.517,46.121,27.866,46.165,27.939C47.442,30.075,47.891,31.382,47.891,33.84L47.894,33.763C47.383,39.65,42.458,41.579,28.556,41.579Z"/>
  <path stroke-linejoin="round" stroke-opacity="1" fill="#000000" stroke-linecap="round" stroke-miterlimit="4" stroke-dasharray="none" fill-rule="nonzero" fill-opacity="1" stroke="none" stroke-width="1.5px" d="M33.577,49.036C30.672,52.263,26.226,52.274,23.317,49.037C22.987,48.67,22.423,48.64,22.057,48.969C21.69,49.299,21.66,49.863,21.989,50.23C25.608,54.257,31.29,54.243,34.903,50.23C35.233,49.864,35.204,49.3,34.837,48.97C34.471,48.64,33.907,48.67,33.577,49.036Z"/>
</g>
 </g>
</svg>
