<svg width="131" height="219" viewBox="0 0 131 219" fill="none" xmlns="http://www.w3.org/2000/svg">
<path d="M111.282 207.221C85.889 221.847 44.8544 221.847 19.4616 207.017C-5.93112 192.391 -6.13427 168.624 19.2585 153.997C44.6512 139.371 85.6859 139.371 111.079 154.201C136.471 168.827 136.471 192.594 111.282 207.221Z" fill="#F2E8DF"/>
<path d="M40.9947 65.4276C40.9947 65.2244 40.7915 64.8181 40.7915 64.615C40.7915 63.8024 40.9946 62.9899 41.1978 62.1773C41.1978 61.5679 41.401 59.1302 42.0104 58.7239C37.5413 61.3647 34.0878 65.2244 31.0407 69.4904C28.603 72.7407 26.3684 76.1941 24.9464 80.2569C23.9307 83.304 23.7276 86.3512 23.7276 89.3983C23.7276 90.0077 24.1339 97.7271 24.5402 97.524C22.5087 98.1334 20.2742 98.946 18.2428 99.5554C16.0082 100.368 13.5705 101.181 11.3359 101.993C9.30452 102.806 7.06992 103.618 5.64793 105.447C4.63222 106.665 4.22595 108.29 3.81966 109.916C3.0071 113.775 2.19452 117.432 1.58509 121.292C0.975665 124.542 0.163148 127.589 0.366289 130.839C0.366289 132.668 0.569431 134.496 1.382 136.121C1.382 136.324 1.5851 136.527 1.78825 136.527H1.9914C2.39768 136.324 2.60081 136.121 2.80396 135.715C2.80396 136.527 2.80398 137.543 3.21026 138.152C3.21026 138.356 3.41342 138.355 3.41342 138.559C3.61656 138.762 3.81968 138.762 4.02282 138.559C5.24167 138.355 5.85112 137.543 6.46055 136.73C7.06997 135.918 8.08564 135.715 8.89821 135.105C10.9296 133.886 12.5548 132.058 13.5705 129.824C14.5862 127.792 14.9925 125.354 14.9925 123.12C14.9925 121.901 14.3831 120.682 14.1799 119.463C13.9768 117.635 14.383 115.807 16.0082 114.994C18.8522 113.369 22.3056 113.572 25.3527 113.166C29.6187 112.76 33.6815 111.338 37.5412 109.306C38.5569 108.697 39.5726 108.087 40.1821 107.275C41.1978 105.853 41.1978 104.025 40.9947 102.196C40.7915 100.571 40.5884 99.1491 39.7758 97.7271C39.3695 97.3208 37.5413 94.0706 36.9318 94.2737H36.7287C39.3695 86.9606 40.7915 79.2412 41.8072 71.725C42.0104 70.5061 42.0104 69.2873 41.6041 68.2715C41.6041 67.0527 41.1978 66.2401 40.9947 65.4276Z" fill="#929292"/>
<path d="M55.0115 152.779C53.1832 148.716 50.5423 144.856 47.2921 141.809C45.6669 140.184 43.8387 138.762 41.6041 137.949C39.5727 137.137 36.9318 137.543 35.1036 136.121C34.9004 135.918 33.6816 134.902 34.0878 134.496C32.2596 136.121 31.2439 138.356 30.6345 140.59C29.0093 145.669 28.8062 150.95 29.4156 156.232C29.8219 158.873 30.4313 161.514 31.2439 163.951C32.0564 166.389 33.2753 168.421 34.6973 170.655C36.5256 173.499 38.3539 176.343 40.9947 178.375C43.6356 180.406 47.2921 181.422 50.3392 180.203C52.7769 179.187 54.402 176.546 55.4177 174.109C58.4649 167.405 58.0586 159.482 55.0115 152.779Z" fill="#929292"/>
<path d="M32.2595 176.546C28.6029 177.765 24.1338 180.812 24.1338 184.672C24.5401 184.266 24.7432 183.859 24.9463 183.453C24.7432 184.672 24.5401 185.485 24.7433 186.703C24.9464 187.922 25.1495 189.141 25.5558 190.36C25.5558 190.563 25.7589 190.766 25.9621 190.766C26.1652 190.766 26.3684 190.766 26.3684 190.766C28.1966 190.766 30.0249 190.36 31.6501 189.751C31.6501 189.954 31.4469 190.36 31.4469 190.563C34.6972 189.954 37.7443 188.735 40.7914 187.516C43.026 186.5 45.2605 185.485 47.292 183.859C49.1202 182.641 50.7454 181.015 52.1674 179.593C52.98 178.781 53.7925 177.968 54.8082 177.156C55.6208 176.343 56.8397 175.327 57.246 174.312C58.0585 172.484 56.2302 170.452 54.6051 169.843C53.1831 169.233 51.3548 169.843 50.136 168.624C49.9328 168.421 49.9328 168.421 49.7297 168.218C49.3234 168.218 48.3077 168.827 47.9014 169.03C47.292 169.436 46.6826 169.64 46.0732 170.046C44.8543 170.858 43.6354 171.671 42.4166 172.484C40.9946 173.499 39.5726 174.515 37.9475 175.327C36.5255 175.937 35.1035 176.14 33.6815 176.343C33.2752 176.343 32.6657 176.546 32.2595 176.546Z" fill="#929292"/>
<path d="M90.5613 146.481C92.1864 141.2 93.2021 135.715 96.2492 131.042C100.109 124.948 107.422 121.292 114.735 121.698C113.719 122.307 112.704 123.12 112.094 124.136C116.97 123.526 122.251 126.573 125.502 130.23C128.955 134.09 130.58 139.371 130.58 144.653C130.58 146.481 130.377 148.106 129.768 149.731C129.158 151.357 127.736 152.779 126.111 153.185C124.283 153.591 122.861 152.372 121.236 151.763C116.36 150.138 110.672 151.966 110.063 157.857C110.063 158.467 110.063 159.279 110.469 159.685C111.079 160.092 111.891 160.092 112.501 159.482C113.11 159.076 113.516 158.263 113.719 157.654C112.501 162.529 110.469 167.405 107.219 171.468C102.343 177.562 95.4366 179.39 88.1235 181.015C86.0921 181.422 84.0607 181.828 82.0293 181.015C77.7633 179.39 79.7948 175.937 80.6073 172.687C81.4199 169.843 81.4199 166.592 79.9979 163.951C79.5916 163.342 79.1853 162.529 79.1853 161.717C79.3884 158.873 82.6387 159.076 84.467 157.857C86.7016 156.232 88.3267 152.575 89.1392 150.138C89.7487 148.919 90.155 147.7 90.5613 146.481Z" fill="#929292"/>
<path d="M30.8376 71.9283C30.6344 72.3346 30.4313 72.944 30.2281 73.3503C27.7904 78.632 26.3684 84.5231 25.9621 90.4142C25.5558 96.7116 26.9779 102.806 27.7904 109.103C29.4156 122.511 31.2438 136.121 33.6815 149.325C35.5098 159.482 40.7915 169.03 48.1046 176.343C52.3706 180.609 57.6523 184.266 63.7465 185.485C69.6376 186.703 76.5445 185.485 80.8104 181.015C85.0764 176.546 86.2953 170.046 86.9047 163.952C89.5455 138.559 85.889 112.76 86.7016 87.1639C86.9047 78.632 87.7173 69.8969 86.4985 61.3649C85.2796 52.8329 81.8262 44.301 75.1225 39.0193C72.2785 42.4727 66.7937 43.8947 62.7308 42.0664C58.0586 40.035 55.6209 37.8004 51.1518 41.6601C49.3235 43.2853 47.9015 45.3167 46.6826 47.3481C40.7915 55.4738 34.9004 63.3963 30.8376 71.9283Z" fill="#424242"/>
<path d="M65.778 147.7C64.1529 147.7 62.3246 147.903 60.9026 148.716C58.8712 149.732 57.2461 151.154 56.2304 153.185C55.0115 155.826 55.8241 159.076 57.0429 161.717C58.0586 164.561 59.6838 166.999 60.9026 169.843C62.1215 172.687 63.5434 175.328 65.5749 177.562C66.9969 179.39 68.622 181.015 70.6534 182.031C74.7162 184.063 79.998 183.656 83.6545 180.812C87.3111 177.765 87.3111 171.874 86.4985 167.811C85.6859 162.53 81.2168 157.654 77.5603 153.998C75.732 152.169 73.4974 150.341 71.0597 149.122C69.2314 148.31 67.4031 147.7 65.778 147.7Z" fill="#DAD6D3"/>
<path d="M52.7768 158.467C51.7611 161.107 51.5579 164.155 51.7611 166.795C52.1674 170.655 53.7925 174.109 55.2145 177.765C55.824 179.39 56.4334 180.812 57.2459 182.437C57.8554 184.063 59.8868 186.906 58.0585 188.328C57.0428 189.141 54.1988 191.579 53.3862 191.782C51.3548 192.391 49.5265 192.798 47.6983 194.016C47.0888 194.423 46.4794 194.829 46.0731 195.438C45.6669 196.048 45.4637 196.657 45.2605 197.267C44.8542 198.282 45.0574 199.298 44.8543 200.517C44.8543 200.72 44.6511 201.33 44.6511 201.736C44.6511 201.939 45.2605 202.345 45.2605 201.939C45.2605 203.158 45.4637 204.174 45.6668 205.392C47.0888 205.596 48.714 205.392 49.9328 204.58C49.9328 204.783 49.9328 205.189 49.7297 205.392C49.7297 205.392 51.5579 205.392 51.7611 205.189C52.5737 204.986 52.9799 204.783 53.7925 204.377C55.2145 203.767 56.4334 203.361 57.8553 202.548C63.3402 199.704 68.6219 196.454 72.2784 191.579C73.091 190.563 73.7004 189.547 73.4973 188.328C73.2942 186.703 73.091 184.875 73.091 183.25C72.8878 177.765 72.2784 172.077 70.8564 166.592C69.6376 161.92 68.4187 156.841 65.7779 152.779C64.9653 151.56 63.9496 150.544 62.7307 149.935C57.6522 147.7 53.9957 154.81 52.7768 158.467Z" fill="#DAD6D3"/>
<path d="M75.7318 77.8194C74.7161 75.5848 73.2941 73.3503 70.8564 72.3345C68.6218 71.3188 66.1841 71.1157 63.9496 71.3188C60.0899 71.9283 56.8396 74.1628 54.4019 77.21C48.7139 83.9136 45.6668 92.6487 44.0417 101.181C43.8385 102.4 43.6354 103.618 43.6354 105.04C39.7757 105.853 35.7129 106.666 31.8532 107.478C26.1652 108.697 20.0709 110.119 16.0081 114.182C13.5703 116.619 12.1484 119.87 10.5233 123.12C9.10126 125.761 7.88237 128.402 6.86666 131.043C5.85096 133.887 5.0384 137.543 7.06982 139.981C7.27296 139.778 7.27299 139.575 7.47613 139.371C7.47613 139.981 7.47608 140.59 7.67922 141.2C7.88236 141.809 8.0855 142.419 8.69493 142.419C9.10121 142.419 9.30436 142.215 9.71064 142.012C10.3201 141.606 11.1326 140.997 11.7421 140.387C11.7421 140.59 11.7421 140.997 11.7421 141.2C14.1798 140.59 16.4144 139.575 18.4458 138.153C20.4772 136.731 22.3054 134.902 23.9306 132.871C24.7431 131.652 25.7589 130.433 26.1651 129.011C26.5714 127.589 26.5715 125.964 25.7589 124.542C25.5558 124.136 25.3526 123.933 25.3526 123.526C25.1495 122.104 26.5715 121.292 27.7903 121.292C30.6343 121.089 33.4783 121.089 36.3222 121.292C41.4008 121.698 46.2762 122.511 51.3547 122.714C55.4176 122.917 59.4804 120.885 62.5275 118.245C70.4501 111.135 75.935 101.587 77.5601 91.0236C77.5601 86.7576 77.56 82.0854 75.7318 77.8194Z" fill="#DAD6D3"/>
<path d="M69.2313 6.51646C70.247 5.29761 71.669 4.48504 73.091 3.67247C73.9036 3.06305 74.9193 2.65677 75.935 2.45362C77.7633 2.04734 77.5601 8.34474 77.5601 9.56359C77.5601 12.0013 77.1538 14.2359 77.7632 16.6736C77.9664 17.4861 75.5287 16.8767 75.3256 16.6736C74.3099 16.2673 73.091 16.0641 71.8721 16.2673C70.247 16.4704 68.6219 17.283 67.1999 18.0955C66.3873 18.5018 64.9653 19.5175 64.1528 18.2987C62.7308 16.2673 65.3716 12.6107 66.3873 10.9856C66.9968 9.36045 68.0125 7.73531 69.2313 6.51646Z" fill="#424242"/>
<path d="M65.3716 15.6578C66.5904 15.2515 67.8093 14.642 69.0281 14.4389C70.247 14.2358 71.6689 14.4389 72.6846 15.0483C72.4815 13.6263 72.2784 12.2043 72.6846 10.7824C73.0909 9.36036 74.1066 7.93836 74.7161 6.51637C75.3255 5.09438 74.9192 3.67238 73.0909 4.68809C70.6532 6.11009 68.6218 8.34465 67.1998 10.7824C66.3873 12.4075 65.7779 14.0326 65.3716 15.6578Z" fill="#929292"/>
<path d="M88.7331 61.1617C89.5456 62.7868 90.7644 64.412 91.9833 65.834C90.9676 67.256 89.1393 67.4591 87.311 67.256C84.2639 67.0528 81.4199 66.4434 78.576 65.4277C76.1383 64.6151 73.7005 63.3963 71.466 62.1774C69.0283 60.9586 66.7937 59.7397 64.356 58.5209C63.3403 59.7397 62.5277 60.7554 61.512 61.9743C61.3088 62.3806 60.9026 62.7868 60.2932 62.5837C60.09 62.5837 59.8869 62.3806 59.6837 62.1774C57.6523 59.9429 51.1518 48.9732 50.7455 48.7701C50.1361 48.3638 47.2921 49.1763 46.4795 49.1763C47.9015 46.3324 49.3235 43.4884 50.3392 40.4412C50.5423 39.6287 50.9487 39.0192 51.1518 38.2067C51.3549 37.3941 51.1518 37.3941 50.5423 36.7847C49.5266 35.9721 48.5109 34.7533 48.5109 33.3313C48.5109 32.925 48.5109 32.5187 48.5109 32.3156C48.7141 31.7061 49.1203 30.8936 49.5266 30.4873C50.3392 29.6747 51.3549 29.2684 52.3706 29.0653C51.558 28.8621 50.7455 28.2527 50.3392 27.4402C50.136 27.0339 49.9329 26.4244 49.7298 25.815C49.7298 25.4087 49.5266 25.2056 49.5266 24.7993C49.3235 23.7836 49.3235 22.7679 49.7298 21.7522C49.9329 20.7365 50.5423 20.3302 51.558 19.7208C52.98 18.9082 54.6052 18.2988 56.4334 18.0956C58.0586 17.8925 59.8868 17.6893 61.512 17.4862H61.7151L61.9183 17.2831C62.1214 16.8768 62.5277 16.6736 62.7308 16.2674C63.3403 15.6579 63.9497 15.0485 64.7623 14.6422C65.5748 14.2359 66.5906 13.8296 67.4031 13.6265C69.2314 13.2202 71.2628 13.0171 73.0911 13.4234C74.1068 13.6265 75.1225 14.0328 76.1382 14.4391C76.9508 14.8454 77.9665 15.0485 78.779 15.4548C80.6073 16.2674 82.2325 17.4862 83.6545 18.7051C88.1236 22.7679 90.9676 28.4559 91.7802 34.347C92.5927 40.2381 91.7802 46.3324 89.7488 52.0203C89.1393 53.4423 88.3267 54.8643 87.9204 56.2863C87.311 57.9114 87.9205 59.7397 88.7331 61.1617Z" fill="#DAD6D3"/>
<path d="M70.0439 16.4704C68.0125 17.8924 66.1842 19.5176 65.5748 21.9553C65.1685 23.1741 65.1685 23.9867 65.7779 25.2055C66.3874 26.4244 67.1999 27.4401 67.8093 28.6589C70.4502 32.9249 70.4502 38.6129 69.4345 43.2852C67.8094 50.3951 65.5748 57.3019 62.934 64.2088C60.9025 63.8025 59.2774 62.3805 57.8554 60.9585C55.0114 57.9114 52.5737 54.458 50.7454 50.8014C48.5109 51.0045 46.0732 51.0045 43.8386 50.5983C45.4638 48.3637 47.0889 46.1291 48.3077 43.6914C48.9171 42.4726 49.7298 41.2537 50.136 40.0349C50.3392 39.4255 50.9486 38.6129 50.9486 38.0035C50.9486 37.5972 50.7454 37.394 50.3391 36.9878C49.3234 36.1752 48.3077 34.9563 48.3077 33.5343C48.3077 33.1281 48.3077 32.7218 48.3077 32.5186C48.5109 31.9092 48.9171 31.0966 49.3234 30.6904C50.136 29.8778 51.1517 29.4715 52.1675 29.2684C51.558 29.0652 51.1517 28.6589 50.7454 28.2527C52.98 27.4401 52.7769 25.2055 53.7926 23.3773C54.1988 22.7678 54.6051 22.1584 55.0114 21.3458C55.4177 20.7364 55.6209 20.127 56.0271 19.5176C56.4334 19.1113 56.8397 18.705 57.0428 18.0956C58.0586 17.8924 59.0743 17.8924 60.09 17.8924C60.4963 18.0956 60.9026 18.5018 61.3088 18.705C61.512 18.9081 61.9183 19.1113 62.1214 19.1113C62.5277 19.1113 62.7308 19.1113 63.1371 19.1113C63.3402 19.1113 63.5434 19.1113 63.7465 18.9081C64.7622 18.5018 65.5748 17.8924 66.3874 17.0799C67.2 16.2673 68.2157 15.4547 69.4345 15.0484C69.8408 14.8453 70.6533 14.439 71.0596 15.0484C71.4659 15.6579 70.6533 16.2673 70.0439 16.4704Z" fill="#F2F2F2"/>
<path d="M96.2492 14.4391C96.4524 15.2516 95.843 16.6736 95.4367 17.283C95.0304 18.705 94.2178 20.127 93.8116 21.549C93.4053 22.7679 93.2021 23.9867 92.9989 25.2056C92.7958 26.6276 92.3895 28.0496 91.9832 29.4716C91.3738 31.503 90.5613 33.7375 89.1393 35.3627C88.5298 36.1752 87.5142 36.7847 86.4984 36.5815C85.889 36.3784 85.4827 35.5658 85.2796 34.9564C84.8733 33.3313 84.8733 31.7061 84.8733 30.081C84.8733 28.4558 84.6702 27.237 84.2639 25.6119C84.0607 23.9867 83.6545 22.7679 82.6388 21.549C82.2325 21.1427 81.623 20.5333 81.623 19.9239C81.623 19.5176 81.8262 19.3145 82.0293 18.9082C84.6701 15.0485 89.3424 12.8139 94.0147 13.2202C94.6241 13.2202 95.2335 13.4233 95.6398 13.8296C96.2493 14.0328 96.2492 14.2359 96.2492 14.4391Z" fill="#424242"/>
<path d="M84.0606 18.5017C83.6543 18.908 83.248 19.1112 83.248 19.7206C83.248 20.5331 84.0606 21.1426 84.6701 21.5489C85.6858 22.3614 86.092 23.7834 86.2952 25.0023C86.4983 26.2211 86.2952 27.6431 86.2952 28.862C86.2952 29.6745 86.2952 30.284 86.7015 31.0965C86.9046 31.706 87.3109 32.3154 87.9203 32.1122C88.1234 32.1122 88.3266 31.9091 88.5297 31.9091C89.9517 30.8934 90.7643 29.0651 90.9674 27.2368C91.1706 25.4086 91.1706 23.5803 91.5769 21.9551C91.9832 20.9394 92.3895 19.9237 92.7957 18.7049C92.9989 18.0954 93.8114 16.064 93.202 15.4546C92.7957 15.0483 90.7643 15.4546 90.1549 15.6577C87.9203 16.064 85.8889 17.0797 84.0606 18.5017Z" fill="#DAD6D3"/>
<path d="M73.4973 21.5488C74.1067 21.752 74.7161 22.3614 75.1224 22.7677C75.7318 23.5803 76.1381 24.3928 76.3412 25.4085V25.6117C76.3412 25.8148 76.1381 25.8148 75.9349 25.8148C74.5129 25.8148 73.2941 25.6117 72.0753 24.7991C71.4658 24.3928 71.0595 23.9866 70.6532 23.5803C70.4501 23.174 69.6375 22.5646 69.8407 21.9551C70.0438 21.3457 70.8564 21.3457 71.4659 21.3457C72.0753 21.3457 72.8878 21.1426 73.4973 21.5488Z" fill="#424242"/>
<path d="M73.0909 25.0025C73.9885 25.0025 74.716 24.2749 74.716 23.3773C74.716 22.4798 73.9885 21.7522 73.0909 21.7522C72.1934 21.7522 71.4658 22.4798 71.4658 23.3773C71.4658 24.2749 72.1934 25.0025 73.0909 25.0025Z" fill="#78C5FF"/>
<path d="M73.0909 25.0025C73.9885 25.0025 74.716 24.2749 74.716 23.3773C74.716 22.4798 73.9885 21.7522 73.0909 21.7522C72.1934 21.7522 71.4658 22.4798 71.4658 23.3773C71.4658 24.2749 72.1934 25.0025 73.0909 25.0025Z" fill="#78C5FF"/>
<path d="M73.0911 24.1898C73.5399 24.1898 73.9037 23.826 73.9037 23.3773C73.9037 22.9285 73.5399 22.5647 73.0911 22.5647C72.6424 22.5647 72.2786 22.9285 72.2786 23.3773C72.2786 23.826 72.6424 24.1898 73.0911 24.1898Z" fill="#1A1A1A"/>
<path d="M72.6848 23.1741C72.9092 23.1741 73.0911 22.9922 73.0911 22.7679C73.0911 22.5435 72.9092 22.3616 72.6848 22.3616C72.4604 22.3616 72.2786 22.5435 72.2786 22.7679C72.2786 22.9922 72.4604 23.1741 72.6848 23.1741Z" fill="white"/>
<path d="M62.7308 18.5018C63.1371 18.5018 63.5434 18.5018 63.9497 18.5018C64.1528 18.5018 64.1528 18.2987 64.1528 18.2987C64.1528 18.0955 64.1528 17.8924 64.1528 17.8924C64.1528 17.6893 63.9497 17.4861 63.7465 17.283C63.5434 17.0798 63.5434 17.0798 63.3403 17.0798C63.1371 17.0798 63.1371 17.0798 62.934 17.0798C62.7308 17.0798 62.3246 17.0798 62.1214 17.283C61.9183 17.283 61.7151 17.4861 61.512 17.8924C61.512 18.0955 61.7151 18.5018 61.7151 18.705C62.3245 18.2987 62.5277 18.5018 62.7308 18.5018Z" fill="#424242"/>
<path d="M65.3718 35.3626C62.3247 37.394 58.6681 37.1909 55.2147 36.1752C53.5896 35.7689 51.9644 35.3626 50.3392 34.3469C49.5267 33.7375 48.7142 33.1281 48.1047 32.5186C48.3079 31.9092 48.7142 31.0966 49.1204 30.6904C49.933 29.8778 50.9487 29.4715 51.9644 29.2684C51.1519 29.0652 50.3393 28.4558 49.933 27.6432C49.7299 27.2369 49.5267 26.6275 49.3235 26.0181C49.7298 25.815 50.1361 25.815 50.5424 25.6118C51.5581 25.2055 51.9644 23.9867 52.5738 23.1741C52.777 22.971 52.9801 22.7678 53.1833 22.7678C53.3864 22.7678 53.7927 22.971 53.7927 23.1741C53.9958 23.3772 53.9958 23.7835 53.9958 23.9867C53.9958 25.4087 54.4021 26.8307 55.2147 27.8464C55.8241 28.6589 56.8398 29.2684 57.8555 29.8778C59.0744 30.6904 60.2932 31.2998 61.5121 31.9092C62.7309 32.3155 63.9498 32.7218 64.9655 33.5343C65.9812 33.9406 66.3875 34.7532 65.3718 35.3626Z" fill="#424242"/>
<path d="M58.668 21.1427C58.2617 21.549 57.8554 21.7522 57.4491 21.9553C57.0428 22.1585 56.6366 22.3616 56.0272 22.5647C55.824 22.5647 55.6209 22.7679 55.6209 22.7679C55.2146 22.971 54.8083 22.971 54.402 22.971C53.7926 22.971 53.1832 22.7679 53.1832 22.1584C52.98 21.549 52.98 20.7365 52.7769 20.127V19.9239C52.7769 19.9239 52.7769 19.7207 52.5737 19.7207C52.1674 19.3145 52.1675 18.705 52.1675 18.0956C52.1675 17.6893 52.3706 17.283 52.7769 17.0799C53.3863 16.4705 54.1989 16.2673 54.8083 16.2673C56.0272 16.2673 57.246 16.6736 58.0586 17.6893C58.2617 18.0956 58.4648 18.5019 58.668 18.9082C59.0743 19.5176 59.0743 20.5333 58.668 21.1427Z" fill="#424242"/>
<path d="M76.5444 18.5018C75.5287 17.6892 74.513 17.0798 73.2942 16.6735C72.2784 16.4704 71.2627 16.6735 70.247 16.8766C69.6376 17.0798 69.0281 17.2829 68.825 17.8924C68.6219 18.9081 69.6376 19.1112 70.247 19.3143C71.2627 19.7206 72.2784 19.7206 73.091 20.1269C74.9193 20.7363 76.3413 21.9552 77.5601 23.3772C77.7633 23.5803 77.7632 23.5803 77.9664 23.5803C78.1695 23.5803 78.3727 23.5803 78.3727 23.5803V23.3772C78.5758 22.1583 78.1696 20.9395 77.5601 19.7206C77.1539 19.5175 76.9507 18.9081 76.5444 18.5018Z" fill="#424242"/>
<path d="M64.9653 15.2516C64.559 14.8453 63.7465 14.8453 63.137 15.0485C62.7308 15.2516 62.3245 15.4548 62.1213 15.861V16.0642C62.1213 16.2673 62.1213 16.4705 62.1213 16.6736V16.8768L62.3245 16.6736C62.5276 16.6736 62.7308 16.4705 62.9339 16.4705C63.137 16.4705 63.3402 16.6736 63.5433 16.6736C63.9496 16.8768 64.559 17.283 64.9653 17.283C65.1685 17.283 65.1685 17.283 65.1685 17.283C65.1685 17.283 65.1685 17.0799 65.3716 17.0799C65.3716 16.6736 65.3716 16.2673 65.1685 15.861C65.3716 15.6579 65.1685 15.4548 64.9653 15.2516Z" fill="#424242"/>
<path d="M63.7465 17.689C63.7465 18.0953 63.1371 18.2985 62.7308 18.2985C62.3245 18.2985 61.9182 17.8922 61.9182 17.4859C61.9182 17.0796 62.5276 16.8765 62.9339 16.8765C63.5433 16.8765 63.9496 17.2827 63.7465 17.689Z" fill="#78C5FF"/>
<path d="M63.3402 17.486C63.3402 17.6892 63.137 17.8923 62.9339 17.6892C62.7308 17.6892 62.5276 17.486 62.5276 17.2829C62.5276 17.0798 62.7308 16.8766 62.9339 17.0797C63.137 17.2829 63.3402 17.2829 63.3402 17.486Z" fill="#1A1A1A"/>
<path d="M62.9339 17.283C62.9339 17.4861 62.7307 17.4861 62.5276 17.4861C62.3244 17.4861 62.3245 17.283 62.3245 17.283C62.3245 17.0798 62.5276 17.0798 62.7307 17.0798C62.9339 17.0798 62.9339 17.0798 62.9339 17.283Z" fill="white"/>
<path d="M57.4491 21.955C57.0428 22.1582 56.4334 22.3613 56.0272 22.5644C56.0272 22.3613 56.0272 22.1582 56.0272 21.955C55.824 21.5487 55.6208 21.1425 55.6208 20.7362C55.6208 20.533 55.6208 20.3299 55.6208 20.1267C55.6208 19.9236 55.824 19.7205 56.0272 19.7205C56.2303 19.7205 56.6366 19.9236 56.6366 20.1267C56.8397 20.3299 56.8397 20.7362 56.8397 20.9393C57.0429 21.3456 57.0428 21.7519 57.4491 21.955Z" fill="#1A1A1A"/>
<path d="M51.7612 32.5184C52.7769 33.1278 53.7926 33.331 54.8083 33.7373C56.2303 34.1435 57.4491 34.3467 58.8711 34.3467C59.4806 34.3467 60.2931 34.3467 60.9026 34.3467C61.3088 34.3467 62.1214 34.3467 62.1214 33.5341C62.1214 33.331 61.9183 33.1278 61.7151 32.9247C61.512 32.7215 61.3089 32.7215 61.1057 32.7215C60.09 32.5184 59.0743 32.1121 58.0586 31.5027C57.6523 31.2996 57.246 31.0964 56.8397 30.6901C56.4334 30.2838 56.2303 29.8776 56.2303 29.4713C56.2303 29.2681 56.2303 29.065 56.0272 28.8618C56.0272 28.8618 55.824 28.6587 55.6209 28.6587C55.2146 28.4556 55.0114 28.4556 54.6051 28.4556C53.5894 28.4556 52.5737 28.6587 51.558 29.065C50.9486 29.2681 50.3392 29.4713 49.7297 30.0807C49.5266 30.2838 49.5266 30.487 49.7297 30.8933C49.9329 31.2996 50.3392 31.5027 50.5423 31.909C50.9486 32.1121 51.3549 32.3153 51.7612 32.5184Z" fill="#FF7878"/>
<path d="M56.4335 17.486C61.0334 17.486 64.7623 13.7571 64.7623 9.15719C64.7623 4.55731 61.0334 0.828369 56.4335 0.828369C51.8336 0.828369 48.1047 4.55731 48.1047 9.15719C48.1047 13.7571 51.8336 17.486 56.4335 17.486Z" fill="#338259"/>
<path d="M55.0116 11.1886C57.7042 11.1886 59.887 9.00576 59.887 6.31315C59.887 3.62054 57.7042 1.43774 55.0116 1.43774C52.319 1.43774 50.1362 3.62054 50.1362 6.31315C50.1362 9.00576 52.319 11.1886 55.0116 11.1886Z" fill="#4BA677"/>
</svg>
