<svg width="194" height="305" viewBox="0 0 194 305" fill="none" xmlns="http://www.w3.org/2000/svg">
<path d="M182.198 240.272C168.791 247.992 147.055 247.992 133.647 240.272C120.24 232.553 120.24 219.958 133.444 212.239C146.851 204.519 168.588 204.519 181.995 212.239C195.402 219.958 195.606 232.553 182.198 240.272Z" fill="#F2E8DF"/>
<path d="M180.573 22.7074C180.776 23.1137 180.979 23.7231 181.182 24.1294C181.182 24.7388 181.183 25.3483 180.776 25.5514C181.183 25.5514 181.792 25.7545 181.995 26.1608C182.401 26.5671 182.605 26.9734 182.605 27.3797C182.808 28.3954 182.808 29.6142 181.792 30.4268C182.198 30.8331 182.198 31.6456 181.995 32.2551C181.792 32.8645 181.589 33.2708 181.182 33.6771C180.776 34.0834 180.167 34.2865 179.557 34.2865C179.354 34.2865 179.151 34.2865 179.151 34.0834C178.542 34.896 177.526 35.5054 176.51 35.7085C175.495 35.9116 174.276 35.5054 173.666 34.8959C173.057 35.5054 172.244 35.3022 171.635 34.8959C171.025 34.4897 170.822 33.6771 170.619 32.8645C170.619 31.8488 170.822 30.8331 171.635 30.2236C171.229 30.2236 170.822 29.8174 170.619 29.2079C170.416 28.8016 170.416 28.1923 170.619 27.786C170.822 26.7703 171.229 25.7546 171.838 24.942C172.447 24.1294 172.651 23.52 172.244 22.7074C172.041 21.8949 171.838 21.0823 172.041 20.0665C172.244 19.6603 172.447 19.254 172.651 18.8477C172.854 18.6446 173.057 18.4414 173.463 18.2383C174.073 18.0351 174.479 18.0351 175.088 18.0351C175.698 18.0351 175.901 17.6289 176.51 17.832C177.526 18.2383 178.339 18.8477 178.948 19.6603C179.151 20.0666 179.354 20.4729 179.151 20.676C179.964 21.2854 180.37 21.8949 180.573 22.7074Z" fill="#262626"/>
<path d="M136.491 68.8206C136.085 69.0238 135.882 69.2269 135.476 69.2269C135.069 69.2269 134.866 68.8207 134.663 68.6175C134.46 68.2113 134.257 67.805 134.257 67.3987C134.054 68.6175 134.257 72.4772 134.054 72.8835C133.85 73.2898 133.647 73.8992 133.444 74.5086C133.444 74.9149 133.444 75.3212 133.444 75.5244C133.85 77.1495 134.866 78.7746 136.288 79.7903C137.71 80.8061 139.538 81.4155 141.164 81.4155C141.164 78.5715 141.773 75.7275 141.57 72.8835C141.57 72.0709 141.367 71.2584 141.164 70.4458C140.96 69.6332 140.351 69.0238 139.742 68.6175C138.726 68.4144 137.507 68.4144 136.491 68.8206Z" fill="#663C33"/>
<path d="M134.663 71.2584C134.866 71.0552 135.069 70.8521 135.476 70.8521C135.679 70.6489 136.085 70.6489 136.288 70.8521C137.304 70.8521 138.523 71.2583 139.335 71.8678C140.96 72.8835 142.382 74.5086 142.789 76.3369C143.195 78.1652 142.789 80.3998 141.57 81.8218C140.148 83.4469 138.116 84.0563 136.288 84.6658C131.413 86.0877 126.537 87.1034 121.459 87.1034C120.037 87.1034 116.583 86.6972 115.974 86.494C115.365 86.2909 114.958 85.8846 114.755 85.2752C114.755 85.2752 114.755 85.2751 114.755 85.072C114.755 84.8689 114.958 84.8689 114.958 84.6658C115.568 84.2595 115.974 83.8532 116.38 83.2437C116.787 82.4312 117.193 81.4155 117.599 80.8061C118.209 79.9935 119.224 79.9935 120.037 79.5872C121.256 79.1809 122.678 78.5715 123.897 77.962C126.334 76.7432 128.772 75.3212 131.006 73.8992C132.225 73.2898 133.444 72.2741 134.663 71.2584Z" fill="#663C33"/>
<path d="M112.927 85.8846C112.114 85.2752 111.708 84.6658 111.099 83.8532C110.083 82.0249 109.677 79.9935 109.27 77.962C108.661 74.7118 108.458 71.2584 108.661 68.0081C108.661 67.6018 108.661 66.9924 108.864 66.5861C109.067 66.1799 109.677 65.7736 110.083 66.1798C110.286 65.5704 110.489 64.961 110.692 64.3516C110.895 63.7421 111.505 63.1327 112.114 62.9296C112.724 62.7264 113.536 63.1327 113.739 63.7421C114.146 63.539 114.755 63.539 115.161 63.9453C115.568 64.1484 115.771 64.7578 115.974 65.1641C116.787 66.7893 116.99 68.8207 117.193 70.649C117.599 73.493 118.209 76.3369 119.021 79.1809C119.427 80.3998 119.631 81.6186 119.631 82.8375C119.631 83.4469 119.427 83.8532 119.224 84.4626C119.021 84.8689 118.615 85.2752 118.209 85.6815C116.787 86.494 114.755 87.1035 112.927 85.8846Z" fill="#663C33"/>
<path d="M112.724 75.9306C112.724 76.3368 113.13 76.9463 113.13 77.3526C113.536 78.7746 112.724 80.3997 112.927 81.8217C112.927 82.8374 113.536 83.8531 114.349 84.2594C115.162 84.8688 116.38 84.6657 117.193 84.0562C117.599 83.6499 117.599 83.2437 117.802 82.8374C118.006 82.228 118.209 81.8217 118.209 81.2123C118.412 80.3997 118.209 79.384 117.802 78.5714C117.396 77.7589 116.787 77.1494 116.38 76.3369C115.974 75.9306 115.365 75.5243 115.161 74.9148C114.958 74.5086 114.958 74.1023 114.755 73.8991C114.349 73.4928 113.536 73.0866 113.13 73.696C112.927 74.3055 112.521 75.118 112.724 75.9306Z" fill="#874F43"/>
<path d="M138.523 220.161C137.913 220.974 137.304 221.787 136.898 222.802C136.085 224.834 135.882 227.068 137.507 228.693C138.32 229.506 139.335 229.709 140.554 229.912C143.398 230.115 146.242 229.1 148.883 227.881C150.711 227.068 152.54 226.052 153.962 224.63C155.18 223.412 156.196 221.583 158.024 220.974C158.634 220.771 159.243 220.771 159.853 220.568C161.071 220.365 162.493 219.755 163.306 218.739C165.337 216.708 165.337 213.458 164.525 210.614C164.119 209.598 163.712 208.582 163.103 207.77C162.697 207.16 162.493 207.77 162.087 207.567C161.884 207.567 161.478 206.957 161.478 206.754C160.868 206.145 160.056 205.535 159.04 205.535C158.634 205.535 158.227 205.738 157.821 205.738C157.009 205.941 156.196 206.145 155.587 206.551C154.977 206.957 154.368 207.363 153.758 207.77C153.149 207.973 152.54 208.176 151.93 208.582C148.274 210.817 139.538 218.739 138.523 220.161Z" fill="#262626"/>
<path d="M164.119 188.268C163.916 181.158 163.103 174.251 161.072 167.344C161.072 166.938 161.072 166.532 160.868 166.126C155.993 146.218 156.602 125.294 151.118 105.589C149.899 101.12 148.274 96.6511 145.226 92.9946C144.82 92.3852 144.211 91.9789 143.601 91.5726C143.195 91.3694 142.992 91.1663 142.586 91.1663C142.179 91.1663 141.976 91.3694 141.57 91.5726C140.351 92.3851 139.538 93.8071 138.929 95.2291C138.523 96.0417 138.116 97.0574 137.71 97.87C137.304 98.6825 137.304 99.6982 137.101 100.511C136.695 102.542 136.491 104.37 136.288 106.402C135.882 110.465 135.679 114.324 135.882 118.387C135.882 122.044 136.288 125.7 136.694 129.56C137.913 139.717 140.148 149.874 142.789 159.828C143.398 162.063 146.445 179.33 146.852 181.971C147.258 184.408 149.289 202.285 149.899 208.785C149.899 209.192 149.899 209.598 150.102 210.004C150.305 210.411 150.508 210.614 150.914 210.817C154.368 213.051 159.04 212.239 162.494 210.004C162.9 209.801 163.103 209.395 163.509 209.192C163.712 208.785 163.915 208.176 163.915 207.77C164.119 201.066 164.525 194.566 164.119 188.268Z" fill="#338259"/>
<path d="M140.148 46.6782C139.132 48.5064 138.32 50.5378 137.507 52.5693C136.695 55.007 135.882 57.4447 135.273 59.8824C134.663 62.3201 134.054 64.7578 133.444 66.9924C133.241 67.3986 133.241 67.8049 133.241 68.2112C133.241 68.6175 133.444 68.8206 133.647 69.2269C135.476 72.4772 139.335 74.5086 143.195 74.3055C142.179 67.8049 142.586 61.1012 144.414 55.007C145.227 52.163 146.445 49.5222 147.258 46.6782C147.664 45.4593 147.867 44.4436 147.867 43.2248C148.071 42.2091 148.68 41.1933 149.493 40.3808C150.305 39.5682 151.118 38.9588 151.93 38.1462C149.899 38.5525 148.071 39.1619 146.242 40.1777C145.836 40.3808 145.43 40.7871 145.023 40.9902C144.008 41.5996 143.195 42.4122 142.586 43.4279C141.57 44.4436 140.757 45.4593 140.148 46.6782Z" fill="#F2F2F2"/>
<path d="M151.93 231.741C151.118 233.366 150.305 235.397 150.914 237.022C151.524 238.444 153.149 239.46 154.977 239.663C158.634 240.272 162.087 238.444 165.134 236.616C166.76 235.6 168.385 234.381 169.4 232.756C170.822 230.928 171.432 228.49 173.26 227.068C174.073 226.256 175.291 225.646 176.104 224.834C176.917 223.818 177.526 222.599 177.932 221.583C178.745 219.146 178.745 216.505 177.729 214.067C177.729 214.27 176.917 214.88 176.713 215.083C176.104 215.286 176.104 215.083 175.698 214.473C175.088 213.661 174.276 212.848 173.463 212.239C172.651 211.833 171.025 211.223 170.213 211.426C169.197 211.833 168.182 212.848 167.166 213.661C165.338 215.286 163.712 216.911 162.087 218.739C159.65 221.38 157.415 224.021 155.18 226.865C153.962 228.287 152.743 229.912 151.93 231.741Z" fill="#404040"/>
<path d="M173.87 87.5098C171.635 91.7757 167.166 94.4166 162.494 95.2291C157.821 96.0417 152.946 95.026 148.477 93.604C147.867 93.4009 147.055 93.4009 146.242 92.9946C146.039 92.7915 144.211 91.3694 144.211 91.1663C143.398 97.4637 143.195 103.761 143.601 110.059C143.804 113.309 144.414 116.356 145.023 119.606C145.226 120.825 145.43 122.45 146.039 123.466C146.445 124.075 148.883 124.888 148.883 125.091C154.571 139.514 157.415 154.953 159.65 170.392C160.056 172.626 160.259 175.064 161.275 177.095C162.087 182.174 163.916 205.942 164.322 212.645C164.525 214.27 164.525 215.895 166.15 216.708C167.978 217.724 170.01 218.13 171.838 218.13C174.276 218.13 176.917 217.317 178.948 215.895C179.761 215.286 179.557 214.677 179.557 213.864C179.557 212.848 179.761 212.036 179.761 211.02C179.964 208.379 180.167 205.535 180.37 202.894C180.776 197.41 180.776 192.128 180.573 186.643C180.573 186.44 180.573 186.237 180.573 186.237C180.37 181.564 179.761 176.689 178.745 172.017C178.948 159.219 180.979 146.624 181.792 133.826C183.214 117.778 182.198 100.917 173.87 87.5098Z" fill="#4BA677"/>
<path d="M148.07 98.6825C146.242 98.2762 144.617 97.87 142.992 97.0574C142.179 96.6511 141.367 95.8385 140.554 95.2291C140.148 94.8228 139.741 94.4166 139.538 94.0103C139.538 93.604 139.132 92.7914 139.335 92.5882C138.523 94.6197 137.71 96.6511 137.507 98.6825C137.304 99.4951 138.116 100.308 138.32 100.917C139.132 102.339 140.148 103.558 141.57 104.37C142.992 105.386 144.617 105.996 146.242 106.402C149.695 107.214 153.352 107.214 156.805 106.605C160.462 105.996 164.119 104.98 167.572 103.761C170.822 102.542 173.869 100.917 176.51 98.4794C176.916 98.0731 177.323 97.6668 177.729 97.0574C178.135 96.6511 178.135 96.2448 178.135 95.6354C178.135 94.2134 178.135 92.7914 177.729 91.3694C177.526 91.7757 177.323 91.9788 177.12 92.3851C176.916 92.5882 176.713 92.9945 176.51 93.4008C176.307 93.6039 175.901 93.604 175.698 93.8071C175.291 94.0103 175.088 94.2134 174.682 94.2134C173.869 94.6196 173.057 95.0259 172.244 95.2291C170.619 95.8385 168.994 96.448 167.369 97.0574C165.744 97.6668 164.119 98.0731 162.493 98.4794C160.868 98.8856 159.446 99.4951 157.821 99.4951C154.774 99.4951 151.321 99.2919 148.07 98.6825Z" fill="#262626"/>
<path d="M144.617 42.6154C142.992 45.0531 142.179 48.3034 141.367 50.9443C140.148 54.6008 139.335 58.4605 138.726 62.3202C138.32 64.5548 137.71 66.9925 137.913 69.4302C138.117 72.071 138.523 74.7119 138.726 77.3527C139.335 82.2281 139.335 87.1035 139.335 91.979C139.335 94.4167 140.554 96.4481 142.586 97.8701C144.008 98.8858 145.836 99.6983 147.461 100.105C152.743 101.323 158.228 100.714 163.509 99.4952C168.588 98.2763 173.666 96.4481 177.729 92.9947C178.339 92.3852 179.151 91.7758 179.557 90.9632C179.964 89.9475 179.761 88.9318 179.964 87.9161C180.37 85.2753 180.776 82.6344 181.183 79.9935C182.198 74.7118 183.417 69.6333 184.839 64.5548C185.042 63.7422 185.245 63.1328 185.449 62.3202C186.058 60.2888 187.277 58.4605 188.699 56.6322C189.308 55.8196 189.918 55.0071 190.324 53.9914C190.527 52.9757 190.121 51.96 189.511 50.9443C188.902 50.1317 188.293 49.5223 187.48 48.7097C181.386 43.0217 174.885 37.5369 167.369 34.0835C166.15 33.4741 165.134 34.0835 163.916 34.4898C159.243 35.7086 154.165 36.7243 149.696 38.5526C148.274 39.162 147.055 39.7715 145.836 40.7872C145.633 40.9903 145.43 41.1934 145.43 41.3966C145.023 41.8029 144.82 42.2092 144.617 42.6154Z" fill="#D9D9D9"/>
<path d="M154.571 67.3987L151.321 82.6343L156.399 87.7129L164.525 84.6657L167.572 70.649L154.571 67.3987Z" fill="#F2F2F2"/>
<path d="M154.165 48.5064C153.961 48.7096 153.961 48.7096 153.758 48.9128C153.758 49.1159 153.758 49.5222 153.758 49.7253C153.758 50.3347 153.758 52.3662 153.758 52.7724C153.758 53.1787 153.758 53.3819 154.165 53.7881C154.977 54.3976 155.79 54.6007 156.805 54.6007C157.009 54.6007 157.415 54.6007 157.618 54.3976C157.821 54.1945 158.024 54.1944 158.024 53.9913C159.243 52.5693 160.462 51.1473 161.478 49.7253L161.681 49.5222C161.681 49.319 161.681 49.1159 161.478 49.1159C160.868 47.8971 160.462 46.6782 160.056 45.2562C159.243 45.8656 157.821 45.6625 157.212 44.8499C157.009 44.6468 156.805 44.4436 156.602 44.4436L156.399 44.6468C155.993 45.2562 155.79 46.0687 155.587 46.475C155.18 47.2876 154.571 47.897 154.165 48.5064Z" fill="#FFA600"/>
<path d="M153.758 52.9756C148.68 62.117 143.195 95.026 143.195 95.026L144.617 107.011L151.524 99.2919L157.618 54.6007L153.758 52.9756Z" fill="#FFA600"/>
<path d="M155.79 42.0058C155.587 43.2247 155.18 44.4435 155.79 45.6624C156.196 46.6781 157.009 47.2875 157.821 47.6938C158.837 48.1001 159.853 48.1001 160.665 48.1001C163.306 47.8969 165.947 46.6781 167.978 44.8498C170.01 43.2247 171.838 40.9901 173.666 38.9587C172.651 37.943 172.244 36.521 171.838 35.099C171.229 33.2707 170.822 31.4424 170.416 29.6142C170.01 28.1922 169.603 26.567 169.4 25.145C168.994 26.567 167.978 27.5827 166.963 28.5985C165.337 30.2236 163.509 31.8487 161.072 32.255C159.243 32.6613 157.212 32.4581 155.18 32.4581C155.384 33.8801 155.79 35.3021 155.993 36.7241C156.196 38.5524 156.196 40.3807 155.79 42.0058Z" fill="#663C33"/>
<path d="M169.807 35.9118C168.994 37.5369 167.775 38.7558 166.353 39.9746C164.119 42.006 161.478 43.8343 158.634 45.4594C157.821 45.8657 157.009 46.272 156.399 46.8814C156.196 46.8814 156.196 47.0846 156.196 47.2877C156.196 47.4909 156.399 47.4908 156.399 47.694C157.415 48.5066 158.431 49.7254 159.04 50.9443C159.446 51.7568 159.853 52.7726 160.665 53.382C161.275 52.3663 162.087 51.5537 162.9 50.7411C163.712 49.9285 164.728 49.116 165.541 48.3035C167.369 46.6783 169.197 45.2563 171.025 43.6312C171.432 43.2249 171.838 42.8186 172.244 42.4123C173.26 41.3966 174.479 39.9746 174.479 38.5526C174.479 38.3495 174.276 37.9432 174.073 37.74C173.869 37.5369 173.666 37.3338 173.463 37.1306C172.854 36.5212 172.447 35.7086 172.244 34.8961C172.041 34.2866 172.041 33.4741 172.041 32.8647C172.041 32.2552 171.635 31.4427 171.229 31.0364C171.025 30.8332 170.822 30.8332 170.822 31.0364V31.2395C170.822 32.052 171.025 32.8646 170.822 33.6772C170.619 34.2866 170.213 35.0992 169.807 35.9118Z" fill="#F2F2F2"/>
<path d="M156.806 38.7557C155.993 40.3808 155.587 42.2091 156.602 43.6311C157.009 44.2405 157.415 44.6468 157.821 45.2563C158.228 45.8657 158.024 45.8657 157.415 46.0688C156.806 46.272 156.806 46.8814 156.399 47.4908C156.196 48.1002 155.79 48.5065 155.384 48.9128C154.571 49.5222 153.555 49.7253 152.743 49.5222C153.962 48.7096 154.571 46.8814 154.571 45.2563C154.571 44.6468 154.368 43.8343 154.368 43.2248C154.368 42.6154 154.571 41.8029 154.774 41.1934C155.18 39.9746 155.993 38.7557 157.212 37.74C157.009 38.3494 156.806 38.5526 156.806 38.7557Z" fill="#F2F2F2"/>
<path d="M168.181 29.2079C169.4 29.2079 171.025 27.786 171.838 26.9734C172.854 25.7546 173.463 24.3326 173.869 22.9106C175.088 19.0509 174.885 14.5817 173.057 10.9251C172.854 10.722 172.854 10.5189 172.65 10.1126C169.4 4.22147 162.087 1.98693 155.993 4.42464C153.555 5.44035 151.321 6.8623 149.695 8.89372C146.445 12.5503 145.633 18.0351 146.445 22.7074C147.055 26.1608 147.867 29.6142 148.883 32.8645C149.492 34.4896 150.102 36.3179 150.914 37.7399C151.524 38.7556 152.336 39.5682 153.555 39.9745C154.571 40.1776 155.587 39.9744 156.602 39.5682C160.056 38.3493 163.509 36.9273 166.759 34.8959C167.166 34.6928 167.572 34.2865 167.978 33.8802C168.791 32.6614 168.384 30.833 168.181 29.2079Z" fill="#874F43"/>
<path d="M152.336 14.1755C152.946 14.1755 153.758 13.7692 154.165 13.3629C154.165 13.566 154.571 13.7692 154.774 13.9723C155.587 14.1754 156.196 14.1754 157.009 13.9723C157.009 14.3786 157.212 14.7849 157.212 15.1912C157.415 15.5975 157.212 16.2069 157.618 16.6132C158.024 17.0195 158.634 17.2226 159.243 17.2226C158.634 17.832 159.04 18.8477 159.649 19.254C160.259 19.6603 161.071 19.8635 161.884 19.8635C161.478 20.2698 161.478 21.0823 161.884 21.6917C162.29 22.3012 163.103 22.9106 163.915 22.9106C163.712 23.52 163.915 24.1294 164.322 24.7389C164.728 25.1451 165.337 25.5514 165.947 25.5514C166.15 26.1608 166.353 26.5671 166.759 26.7703C166.963 26.9734 167.369 27.1766 167.572 26.9734C167.775 26.9734 167.978 26.7703 167.978 26.7703C168.385 26.364 168.385 25.9577 168.385 25.5514C168.385 25.1451 167.978 24.942 167.978 24.7389C167.369 23.7232 167.978 22.3012 168.791 21.6917C169.4 21.0823 170.619 20.8791 171.432 21.2854C172.651 22.098 172.447 23.7232 171.838 24.942C171.229 26.1609 170.213 27.1766 170.01 28.5985C170.01 28.8017 170.01 28.8017 170.01 29.0049C170.01 29.208 170.213 29.2079 170.416 29.2079C171.635 29.4111 173.057 28.5985 173.26 27.1765C174.479 27.1765 175.698 25.7546 175.495 24.5357C176.104 23.9263 176.713 23.3168 177.12 22.3011C177.526 21.2854 177.526 20.4729 176.917 19.6603C177.526 18.8477 177.932 17.6289 177.729 16.6132C177.729 16.2069 177.526 15.5975 176.917 15.5975C177.323 14.5818 177.323 13.5661 176.917 12.5503C176.713 11.9409 176.104 11.3315 175.698 11.5346C176.104 10.3158 175.291 8.69063 174.072 8.0812C173.869 7.26863 173.666 6.25295 173.057 5.44038C172.447 4.62781 171.635 4.22153 170.619 4.42467C170.01 2.79954 167.978 1.78382 166.353 2.1901C166.15 2.1901 165.337 1.37754 165.337 1.37754C164.931 1.1744 164.525 0.971223 164.119 0.768081C162.9 0.361797 161.884 0.361822 161.071 1.17439C161.071 1.17439 161.071 1.17439 160.868 1.17439C160.259 0.768106 159.853 0.361847 159.243 0.564988C158.227 0.76813 157.415 1.17438 156.805 1.98694C154.774 1.58066 152.539 2.79954 151.727 4.42467C149.899 4.22153 148.07 6.04978 148.07 8.0812C147.664 7.87806 147.055 8.28438 146.851 8.69066C146.648 9.30009 146.851 9.9095 146.851 10.5189C146.445 10.7221 146.242 10.9252 146.039 11.3315C145.429 12.5503 147.664 13.5661 148.68 13.5661C149.086 13.5661 149.289 13.3629 149.492 12.9566C149.289 13.1597 149.492 13.3629 149.695 13.5661C149.899 13.7692 150.102 13.7692 150.305 13.7692C150.711 13.9724 151.524 14.1755 152.336 14.1755Z" fill="#424242"/>
<path d="M189.308 82.8374C189.105 82.6343 188.902 82.6343 188.699 82.6343C188.089 82.6343 187.48 83.0405 186.87 83.0405C186.261 83.0405 185.652 83.2437 185.042 83.0405C183.417 83.0405 181.589 82.4312 179.964 81.8217C179.76 81.8217 179.557 81.6186 179.354 81.8217C179.151 81.8217 178.948 82.0248 178.948 82.0248C177.932 83.0405 177.729 84.2594 177.729 85.6814C177.729 88.1191 177.729 90.3537 177.729 92.7914C177.729 93.8071 177.932 95.229 177.729 96.2448C177.526 97.0573 176.916 98.0731 176.51 98.8856C175.901 100.104 175.495 101.323 174.885 102.542C173.869 104.98 166.963 123.872 166.353 124.888C166.353 125.091 166.15 125.091 166.15 125.294C165.541 125.904 164.931 126.31 164.322 126.716C163.509 127.325 162.697 127.935 162.087 128.544C161.681 128.748 161.478 129.154 161.275 129.357C161.071 129.56 160.868 129.966 160.868 130.373C160.462 131.185 160.259 132.201 160.056 133.013C159.853 134.435 159.853 136.061 160.056 137.686C160.259 138.092 160.462 138.701 160.868 138.701H161.071C161.275 138.701 161.275 138.905 161.275 139.108C161.275 140.53 161.071 142.155 161.071 143.577C161.071 144.186 161.071 145.202 161.681 145.608C162.087 145.811 162.493 145.811 163.103 145.811C163.306 146.624 163.712 147.03 164.525 147.03C165.134 147.03 165.744 146.624 165.947 146.015C165.947 145.811 165.947 145.811 166.15 145.608L166.353 145.405C166.963 145.202 167.369 144.796 167.775 144.186C167.978 143.983 167.978 143.78 168.181 143.78C168.384 143.78 168.588 143.78 168.588 143.577C169.807 143.374 170.416 142.358 171.025 141.342C172.041 139.514 172.854 137.686 173.26 135.654C173.666 133.623 173.666 131.591 173.869 129.56C173.869 129.154 174.072 128.544 174.072 128.138C175.088 126.513 176.104 124.685 176.916 123.06C178.338 120.622 179.557 118.387 180.979 115.95C183.417 111.48 185.652 106.808 187.277 101.933C187.886 99.6982 188.902 97.4636 189.308 95.229C189.918 92.7913 190.121 90.1505 190.121 87.5097C190.121 86.2908 190.121 85.072 190.121 83.8531C190.121 83.8531 189.918 83.2437 189.308 82.8374Z" fill="#874F43"/>
<path d="M179.354 57.851C178.135 60.2887 177.729 62.7264 177.526 65.1641C177.12 68.8207 177.12 72.274 176.917 75.9306C176.713 79.9934 176.713 84.0563 176.51 88.1191C176.51 88.3223 176.51 88.5254 176.51 88.7286C176.51 88.9317 176.713 89.1348 176.917 89.1348C179.151 90.5568 181.792 90.9632 184.433 90.9632C187.074 90.9632 189.511 90.3537 191.949 89.338C192.558 83.65 192.965 77.962 193.168 72.0709C193.168 70.0395 193.371 68.0081 193.371 65.9767C193.168 62.7264 192.965 59.273 192.152 56.0227C191.34 53.3819 189.918 48.7096 186.464 49.9285C185.652 50.1316 185.042 50.741 184.433 51.1473C182.401 52.7725 180.776 54.8039 179.557 57.0384C179.557 57.6479 179.557 57.851 179.354 57.851Z" fill="#F2F2F2"/>
<path d="M152.539 107.214C152.743 108.027 153.555 108.636 154.165 108.84C154.165 108.84 154.165 108.84 154.368 108.84C154.368 108.84 154.368 108.84 154.571 108.84C154.774 108.636 154.977 108.636 154.977 108.433C155.18 108.433 155.18 108.23 155.383 108.23C155.383 108.027 155.383 107.824 155.383 107.621C155.383 107.418 155.18 107.214 155.18 106.808C154.977 106.808 154.571 106.808 154.774 106.402C154.774 105.996 154.774 105.589 154.774 105.183C154.774 104.371 154.977 101.73 155.383 101.526C155.587 101.323 155.993 101.12 155.79 100.714C155.587 100.511 155.18 100.308 154.774 100.308C154.368 100.308 153.961 100.511 153.555 100.714C153.149 100.917 153.149 101.323 153.149 101.73C153.149 102.136 152.946 102.745 152.946 103.152C152.946 104.167 152.946 104.98 152.946 105.996C152.336 106.199 152.336 106.808 152.539 107.214Z" fill="#4BA677"/>
<path d="M138.726 98.0732C138.523 99.0889 138.32 100.105 138.32 101.12C138.523 102.339 138.929 102.745 140.148 103.152C140.148 103.152 140.148 102.339 140.148 102.136C140.148 101.73 140.148 101.323 140.148 100.917C140.148 99.9015 140.351 99.0889 140.554 98.0732C140.554 97.8701 140.757 97.4638 140.96 97.2606C141.164 96.8543 141.367 97.0575 141.773 97.2606C141.773 96.8543 141.57 96.2449 141.367 95.8387C141.164 95.4324 140.554 94.8229 139.945 95.2292C139.945 95.2292 139.742 95.2292 139.742 95.4323C139.335 96.2449 138.929 97.0575 138.726 98.0732Z" fill="#338259"/>
<path d="M104.598 270.338C86.3151 280.901 56.8595 280.698 38.3736 270.134C19.8877 259.571 19.8877 242.507 38.1704 231.944C56.4532 221.38 85.9088 221.584 104.395 232.147C122.677 242.71 122.881 259.774 104.598 270.338Z" fill="#F2E8DF"/>
<path d="M20.9035 304.668C32.4825 304.465 44.4679 301.418 53.4062 293.902C62.3444 286.386 67.2198 273.588 63.3601 262.618C62.9538 261.602 62.5475 260.587 61.5318 260.383C60.5161 260.18 59.0942 260.383 58.0785 260.18C56.8596 259.977 55.8439 259.571 54.625 258.961C53.6093 258.352 52.5936 257.743 51.3747 257.336C48.5308 256.117 45.0774 256.93 42.6397 258.961C40.4051 260.993 39.3894 264.446 39.9988 267.493C40.4051 269.119 41.2177 270.744 41.624 272.369C42.4365 275.822 41.6239 279.479 40.2019 282.729C38.9831 285.776 35.936 287.604 33.092 289.433C27.6071 293.089 21.3097 296.136 14.606 295.73C12.5746 295.527 10.3401 295.121 8.30869 295.73C4.24585 297.152 5.05842 301.215 8.30869 302.637C12.1684 304.668 16.8406 304.872 20.9035 304.668Z" fill="#F2E8DF"/>
<path d="M88.9561 229.506C88.9561 233.163 88.753 237.022 90.5812 240.069C91.3938 241.491 92.8158 242.507 94.0346 243.726C95.4566 244.945 96.6755 245.96 98.3006 246.57C99.9257 247.179 101.957 247.179 103.176 245.961C103.989 245.148 104.395 244.132 104.801 243.117C105.207 242.101 105.614 240.882 105.614 239.663C105.614 238.444 105.004 237.225 103.989 236.616C102.567 235.803 100.535 236.413 99.3163 234.991C98.3006 233.975 98.3006 232.147 98.0975 230.725C97.8943 228.693 97.6912 226.662 97.8943 224.631C97.8943 223.209 98.9101 220.365 98.5038 218.943C98.9101 220.162 99.1132 221.177 99.5195 222.396C100.535 216.708 100.332 211.02 99.7226 205.332C99.1132 200.457 98.5038 195.175 97.4881 190.3C96.8786 187.862 96.2692 185.424 94.4409 183.799C95.0504 184.408 93.4252 187.456 93.2221 188.065C92.6126 189.284 91.8001 190.503 91.1906 191.925C89.5655 194.972 88.5498 198.019 87.331 201.269C85.5027 206.551 83.8775 212.036 84.8932 217.521C84.8932 217.927 85.0964 218.333 85.2995 218.74C85.5027 218.943 85.909 219.349 86.1121 219.552C89.3624 221.99 88.9561 226.053 88.9561 229.506Z" fill="#FF9726"/>
<path d="M86.7216 238.851C86.1121 236.819 84.2839 235.194 83.4713 233.366C82.2525 230.522 82.8619 227.068 84.0807 224.224C85.5027 221.38 87.5342 218.943 89.3624 216.302C94.8473 209.192 99.1133 200.863 98.5038 191.519C98.3007 187.659 97.4881 184.002 96.8787 180.346C96.2692 176.486 95.0504 172.22 93.019 168.97C92.2064 167.751 92.2064 166.329 91.597 164.907C90.7844 163.282 89.5656 161.86 87.9404 160.641C85.0964 158.406 81.643 157.797 78.1896 157.188C73.1111 156.375 69.0482 157.594 68.4388 162.876C67.6262 168.97 64.5791 174.455 62.7508 180.346C61.532 183.799 55.6409 203.504 52.3906 208.583C51.1717 210.411 51.5781 209.395 49.9529 209.192C48.5309 208.989 47.312 210.614 46.2963 211.63C44.2649 214.067 42.4366 216.911 41.2178 219.958C34.9204 234.382 31.6701 266.478 53 270.134C58.4849 271.15 64.376 269.525 69.0482 266.681C73.9237 263.837 77.7833 259.571 80.8305 254.696C82.2524 252.461 83.8776 249.82 84.8933 247.179C85.7059 244.945 87.331 241.085 86.7216 238.851Z" fill="#FFA645"/>
<path d="M66.6103 149.468C64.9851 151.296 64.5789 153.734 64.5789 156.172C64.5789 159.828 65.3915 163.485 66.204 167.141C67.4229 162.469 70.8763 158.813 73.1108 154.547C74.1266 152.718 74.736 149.468 72.7045 148.046C71.0794 146.827 67.8291 148.046 66.6103 149.468Z" fill="#FFA645"/>
<path d="M100.738 148.859C102.77 148.656 102.973 151.5 102.566 152.922C102.363 153.328 102.16 153.734 101.754 153.531C101.551 153.328 101.348 153.125 101.144 152.922C100.738 152.515 100.332 151.906 99.9256 151.296C99.113 150.281 99.113 149.062 100.738 148.859Z" fill="#424242"/>
<path d="M76.9707 145.812C79.0021 145.202 81.2367 144.999 83.4712 145.608C84.6901 146.015 85.9089 146.624 87.1277 147.234C90.1749 148.859 93.6283 149.468 97.0817 149.265C98.0974 149.265 99.1131 149.062 99.9257 149.468C100.535 149.671 100.941 150.281 101.145 150.687C101.754 151.296 102.16 151.906 102.363 152.922C102.567 153.734 102.567 154.547 102.567 155.156C102.363 156.375 101.957 157.391 101.348 158.61C100.738 159.625 100.129 160.438 99.3163 161.25C98.7068 161.86 97.488 162.063 98.5037 163.079C100.535 164.907 101.957 167.345 102.567 169.782C99.9257 169.173 97.0817 169.579 94.8471 171.001C95.2534 171.407 95.4566 172.22 95.4566 172.829C93.4252 173.236 91.3937 173.236 89.3623 173.033C87.9403 177.502 84.69 181.361 81.6429 185.018C81.4397 185.221 81.4398 185.424 81.2366 185.424C81.0335 185.424 80.8303 185.424 80.8303 185.424C77.9863 184.612 75.5486 182.987 73.5172 180.955C73.1109 181.768 72.5015 182.58 72.0953 183.393C71.8921 182.987 71.6889 182.58 71.4858 181.971C69.6575 177.502 68.0324 172.829 66.2042 168.36C64.7822 164.704 64.1727 160.641 65.3915 156.781C66.2041 154.14 68.0324 151.703 69.8607 149.468C71.689 147.64 73.9235 146.624 76.9707 145.812Z" fill="#FFB769"/>
<path d="M93.8314 154.547C94.0345 154.547 94.0345 154.75 93.8314 154.547C94.2377 154.75 94.4408 154.547 94.644 154.547C94.644 154.344 94.8471 154.344 94.8471 154.14C95.0502 153.531 95.0502 153.125 94.8471 152.515C94.6439 151.906 94.2377 151.5 93.8314 151.296C93.6282 151.296 93.4251 151.093 93.222 151.093H93.0188C92.8157 151.093 92.8157 151.296 93.0188 151.5C93.0188 151.703 93.222 151.703 93.222 151.906C93.222 152.109 93.222 152.109 93.222 152.312C93.222 152.718 93.4251 152.922 93.4251 153.125C93.4251 153.734 93.6282 154.14 93.8314 154.547Z" fill="#424242"/>
<path d="M93.6283 150.484C94.0346 151.093 94.2377 151.703 94.0345 152.515C94.0345 152.718 93.8314 153.125 93.6283 153.125C93.4251 153.328 93.0188 153.125 92.8157 153.125C92.6125 152.921 92.4094 152.718 92.4094 152.515C92.0031 151.703 91.8 150.89 91.1906 150.484C90.9874 150.281 90.5811 150.281 90.378 150.078C89.5654 149.265 90.7843 148.656 91.3937 148.859C92.4094 149.062 93.222 149.671 93.6283 150.484Z" fill="#FFA645"/>
<path d="M76.1582 163.688C76.1582 163.891 76.1582 164.094 76.1582 164.297C76.1582 164.704 76.1582 165.313 76.5644 165.719C76.9707 166.532 77.9865 166.938 78.799 167.345C82.2524 168.563 86.1121 168.97 89.9718 168.36C91.1907 168.157 94.0347 167.954 94.441 166.735C94.6441 166.126 94.6441 164.907 94.6441 164.297C94.8473 161.25 93.8315 158.406 91.8001 156.172C89.9718 154.14 88.3467 152.312 85.2996 152.109C79.6116 151.703 76.1582 158.813 76.1582 163.688Z" fill="#FFA645"/>
<path d="M80.6272 266.478C86.112 263.837 91.5969 260.384 95.4566 255.711C96.2692 254.696 96.8786 253.68 97.2849 252.461C97.488 251.445 97.8943 249.82 97.2849 249.008C97.0817 248.601 96.6754 248.398 96.2692 247.992C95.8629 247.586 95.8629 246.976 95.4566 246.773C95.0503 246.57 94.644 246.367 94.4409 246.367C92.6126 245.961 90.5812 246.367 88.7529 246.976C86.9246 247.586 85.2995 248.601 83.8775 249.82C80.4241 252.258 77.1738 254.899 73.9235 257.54C71.689 259.368 69.6576 261.196 67.6261 263.228C66.8136 264.243 65.7979 265.259 65.5947 266.681C65.3916 267.9 65.5947 269.322 66.6104 269.931C67.6261 270.744 69.8607 270.134 71.0796 269.931C74.533 269.119 77.5801 267.9 80.6272 266.478Z" fill="#FFA645"/>
<path d="M72.7046 268.306C70.6732 269.728 67.4229 271.15 65.3915 269.119C64.5789 268.306 64.1727 267.29 63.7664 266.275C61.735 261.196 60.9224 255.711 61.3287 250.226C60.7192 250.836 60.1099 251.648 60.1099 252.461C60.313 247.789 60.9224 243.117 62.7507 238.851C64.3758 235.194 66.8135 231.944 69.6575 229.1C72.0952 226.459 75.1424 223.615 78.3926 221.787C79.8146 220.974 81.2366 220.161 82.8617 219.552C83.8774 219.146 85.0963 218.943 86.112 219.349C87.1277 219.755 87.9403 220.568 88.3466 221.583C90.378 225.646 90.378 230.725 90.1748 235.194C89.7686 241.898 87.9403 248.601 84.69 254.492C84.69 253.477 84.4869 252.258 84.4869 251.242C84.69 254.086 82.0492 258.555 80.4241 260.79C78.1895 263.634 75.7518 266.275 72.7046 268.306Z" fill="#FFBA6E"/>
<path d="M43.2491 253.477C41.624 254.492 40.6082 256.727 39.1863 258.352C37.1548 260.993 34.9203 263.431 32.2794 265.665C27.6072 269.525 21.5129 272.775 19.4815 278.869C19.8878 278.666 20.294 278.463 20.7003 278.463C16.2312 284.151 8.91809 286.995 3.43326 291.871C1.60498 293.496 -1.03585 296.34 0.589287 298.98C1.80814 301.012 5.05845 302.637 7.29301 303.246C9.73071 304.059 12.3715 304.059 15.0124 304.262C20.2941 304.262 25.5758 304.059 30.6543 302.434C35.7329 301.012 40.4051 298.371 43.8586 294.511C43.6554 295.324 43.4522 296.136 43.4522 296.746C48.1245 293.089 49.1402 286.386 48.7339 280.495C48.5308 277.651 48.1245 274.807 47.3119 271.963C46.7025 269.525 46.9057 267.087 47.7182 264.65C48.3277 262.415 49.3433 260.384 49.3433 258.149C49.3433 255.914 47.9214 253.477 45.6868 253.07C44.6711 252.867 43.8585 253.07 43.2491 253.477Z" fill="#FFBA6E"/>
<path d="M29.8418 268.306C29.6386 268.509 29.4355 268.509 29.2324 268.713C26.7947 270.541 24.3569 272.369 22.7318 274.807C22.5287 275.213 22.1224 275.619 22.3256 276.229C22.3256 276.432 22.3256 276.432 22.5287 276.635C22.7319 276.635 22.7318 276.635 22.7318 276.635C23.1381 276.432 23.3413 276.026 23.5444 275.619C23.7476 278.87 20.7004 281.714 18.2627 283.542C15.4187 285.573 11.9653 286.995 8.91818 289.027C7.49618 290.042 6.27734 291.058 5.05849 292.277C4.44907 292.886 3.63647 293.699 3.63647 294.715C3.63647 296.137 4.85536 297.356 6.27736 297.965C8.10563 298.574 10.137 298.371 12.1685 297.965C19.4816 296.34 26.1852 291.464 29.8418 284.761C29.8418 285.776 29.8418 286.995 29.8418 288.011C32.4826 284.761 34.1078 280.698 34.1078 276.432C34.1078 275.213 33.9046 273.791 34.3109 272.572C34.7172 270.338 36.3423 268.712 37.9674 267.087C39.5926 265.462 41.0146 263.634 42.4366 261.806C43.046 260.993 43.6554 260.181 44.0617 259.165C44.2648 258.352 44.468 256.93 44.0617 256.118C43.8586 255.711 43.4523 255.508 43.046 255.508C42.6397 255.508 42.2334 255.711 42.0303 255.915C39.7957 257.743 38.5769 260.384 36.7486 262.415C34.5141 264.243 32.0763 266.478 29.8418 268.306Z" fill="#FFD09C"/>
<path d="M63.7665 163.891C61.9382 172.423 58.4848 180.346 54.8282 188.268C56.2502 188.268 57.6722 187.456 58.4848 186.44C58.891 198.832 48.3277 209.192 46.9057 221.38C47.312 220.771 47.7182 220.365 48.1245 219.755C46.0931 227.068 45.4837 234.991 46.2962 242.71C47.9214 242.71 49.1402 241.491 50.1559 240.273C54.4219 235.397 58.6879 230.319 60.9225 224.427C60.9225 225.443 61.1256 226.256 61.1256 227.271C64.5791 221.583 68.0324 215.692 70.4701 209.395C72.9078 203.098 74.3298 196.394 73.5173 189.69C73.9235 190.503 74.9393 191.112 75.7518 191.315C76.9707 180.346 74.3298 169.376 71.4858 158.609C70.8764 156.375 69.0481 153.937 66.6104 155.969C64.579 157.594 64.1727 161.453 63.7665 163.891Z" fill="#FFB769"/>
</svg>
