<svg width="157" height="131" viewBox="0 0 157 131" fill="none" xmlns="http://www.w3.org/2000/svg">
<g clip-path="url(#clip0_209_1980)">
<path d="M144.686 77.9403C144.686 77.9403 148.185 74.8619 149.584 73.7425C150.983 72.623 153.922 72.763 154.621 75.0018C155.321 77.2407 155.321 78.7799 156.021 82.8378C156.44 85.2166 157.84 87.0357 156.021 89.5544C154.201 92.0731 151.543 92.6328 149.024 92.4929C146.925 92.353 146.785 89.5544 148.744 85.6364C149.444 84.2371 148.045 82.558 147.345 81.9982C145.946 81.1587 144.686 77.9403 144.686 77.9403Z" fill="#8CA2FF"/>
<path d="M106.486 80.459C106.486 80.459 106.486 82.9777 104.667 85.4964C102.708 88.1551 98.6497 90.254 97.8102 91.7932C97.2505 92.9126 97.5303 94.0321 97.5303 95.7112C97.5303 98.6497 101.588 98.2299 104.667 95.8511C107.045 94.0321 110.824 91.6533 111.663 91.2335C112.363 90.9536 115.441 90.254 115.021 87.3155C114.602 84.377 112.922 80.459 112.922 80.459H106.486Z" fill="#8CA2FF"/>
<path d="M128.315 23.0882C128.315 23.0882 123.137 20.0097 120.619 23.0882C118.1 26.1666 115.581 32.0436 113.202 34.9821C110.824 38.0605 110.404 39.4598 109.704 43.6577C109.144 47.1559 109.144 54.712 109.144 54.712L114.602 53.8725C114.602 53.8725 116.421 48.6951 116.421 47.016C116.561 43.6577 116.421 42.3983 116.421 42.3983C116.421 42.3983 122.997 38.3404 123.837 36.1015C124.676 34.1425 128.315 23.0882 128.315 23.0882Z" fill="#FFB8A3"/>
<path d="M135.031 49.2548C130.553 47.4357 130.274 50.2343 126.356 53.1728C119.359 53.3127 107.605 51.0739 102.008 54.5721C100.469 55.5516 99.6292 57.3707 100.049 60.4491C100.189 61.1487 100.189 65.9063 102.148 71.2236C103.407 74.7218 104.947 78.6398 105.926 83.6772C108.025 86.6157 113.762 83.9571 113.622 82.5578C113.482 79.4794 114.182 75.4215 113.342 71.2236C113.062 69.4045 113.202 68.1452 112.503 66.466C117.26 69.8243 120.758 71.2236 126.356 71.2236C138.11 71.2236 139.229 64.507 139.649 61.8484C140.348 57.2307 139.789 51.2138 135.031 49.2548Z" fill="#2C1D1B"/>
<path d="M146.925 75.9813C142.727 77.8003 139.929 80.0392 137.83 81.2985C139.089 79.6194 146.925 72.9028 147.905 67.8654C149.304 61.0089 145.666 54.852 142.867 50.2344C141.608 51.6337 129.154 51.0739 128.734 51.9135C126.775 55.2718 125.516 62.1283 128.035 66.4661C126.915 68.1452 122.298 81.1586 122.158 85.9162C122.158 88.0151 124.257 92.6328 126.915 93.0526C136.57 94.3119 140.628 88.4349 148.884 84.377C150.563 83.6773 149.444 76.9608 146.925 75.9813Z" fill="#3F2A28"/>
<path d="M129.434 5.45722C129.434 5.45722 129.854 1.11943 134.471 3.77808C139.089 6.43672 138.11 10.0749 135.311 10.2148C132.373 10.4947 129.434 5.45722 129.434 5.45722Z" fill="#8CA2FF"/>
<path d="M143.567 32.0437C142.727 27.0063 138.11 24.9074 135.871 23.7879C126.635 19.3102 125.796 20.2897 126.076 20.5696C125.516 21.1293 124.676 22.5286 122.298 27.0063C121.038 29.2452 118.38 33.1632 118.38 34.4225C118.52 36.2416 119.499 38.2006 120.479 39.5999C121.598 41.1391 123.697 48.2755 123.837 52.7532C124.397 55.4118 126.076 60.4493 130.973 61.009C139.929 61.9885 144.826 56.5313 145.386 54.5723C143.987 50.7942 142.028 46.7363 142.447 42.6783C143.007 38.6204 144.127 35.1222 143.567 32.0437Z" fill="#8CA2FF"/>
<path d="M128.734 4.47768C128.734 4.47768 132.652 -2.79861 138.669 1.25932C143.987 4.75754 142.168 10.2148 140.628 13.713C139.089 17.2112 139.929 18.4705 141.748 18.1907C143.567 17.9108 144.546 16.3716 144.546 16.3716C144.546 16.3716 144.266 21.6889 138.949 21.549C133.632 21.409 132.932 15.2522 132.932 15.2522L128.734 4.47768Z" fill="#2C1D1B"/>
<path d="M133.632 18.1907C130.973 18.7504 128.035 19.59 125.656 19.3101C126.076 21.2691 126.775 21.8288 125.656 25.467C124.816 27.9857 122.857 30.6443 125.096 31.7638C126.076 32.3235 130.134 31.344 132.932 29.245C135.311 27.426 136.71 24.6274 135.451 23.0882C134.471 21.9687 134.192 19.8698 133.632 18.1907Z" fill="#FFB8A3"/>
<path d="M122.438 10.0748C125.936 9.23523 127.755 9.09531 130.833 10.3547C132.512 10.7744 134.192 11.614 135.731 12.5935C135.871 12.7335 136.011 12.8734 135.871 13.0133C135.031 17.631 133.492 22.5285 128.315 24.4875C124.117 26.1666 121.738 21.549 120.898 18.3306C120.339 14.8324 120.059 10.6345 122.438 10.0748Z" fill="#FFC8B5"/>
<path d="M133.632 5.45723C130.274 2.79858 126.076 3.07844 123.837 4.89751C121.458 6.85652 119.499 9.79502 120.619 12.8735C121.738 13.1533 123.417 12.0339 124.117 11.4742C125.516 13.0134 128.035 14.8325 130.973 14.4127C131.533 16.3717 132.652 20.7095 134.332 20.5695C137.83 13.4332 138.949 9.79502 133.632 5.45723Z" fill="#3F2A28"/>
<path d="M130.274 16.6514C130.274 16.6514 131.113 13.8529 132.932 15.2522C134.751 16.6514 132.233 19.5899 132.233 19.5899L130.274 16.6514Z" fill="#FFC8B5"/>
<path d="M125.656 41.4189C125.656 41.4189 127.895 44.0776 131.113 44.0776C134.332 44.0776 136.57 42.6783 136.57 42.6783C136.57 42.6783 135.591 46.0366 131.113 46.0366C126.915 46.0366 125.656 41.4189 125.656 41.4189Z" fill="#778CFC"/>
<path d="M148.884 44.2174C148.744 40.8591 148.324 37.0811 147.205 34.0026C146.365 31.4839 143.427 28.2656 141.188 27.426C138.529 26.4465 136.71 30.2246 136.57 33.0231C136.291 36.6613 136.99 39.4599 141.188 41.9786C141.468 45.1969 141.468 47.8556 142.028 49.8146C136.57 51.3538 128.315 54.0124 126.076 54.852C125.236 56.3912 124.117 56.9509 122.298 57.6506C119.919 58.6301 117.12 58.9099 117.82 61.2887C118.24 62.828 120.758 64.5071 123.837 63.2477C127.335 61.8485 128.315 60.0294 129.434 59.0499C131.533 59.0499 141.188 58.6301 142.727 57.9305C146.365 56.2513 147.485 55.1319 147.905 54.0124C148.184 53.0329 149.024 47.7157 148.884 44.2174Z" fill="#FFC8B5"/>
<path d="M129.434 54.1523L125.096 52.4731L126.356 55.6915L129.434 54.1523Z" fill="#FFC8B5"/>
<path d="M126.496 59.3297C126.496 59.1897 126.356 59.0498 126.356 59.0498L123.837 52.4731H107.465L104.947 59.0498C104.807 59.4696 104.667 59.8894 104.667 60.4491C104.667 63.6674 109.564 66.3261 115.721 66.3261C121.738 66.3261 126.635 63.6674 126.635 60.4491C126.635 60.0293 126.496 59.6095 126.496 59.3297Z" fill="#EE4335"/>
<path d="M115.581 57.7904C120.218 57.7904 123.977 55.7857 123.977 53.3127C123.977 50.8397 120.218 48.835 115.581 48.835C110.944 48.835 107.185 50.8397 107.185 53.3127C107.185 55.7857 110.944 57.7904 115.581 57.7904Z" fill="#FF5E4C"/>
<path d="M115.581 49.3948C111.383 49.3948 108.165 51.0739 108.165 53.3128C108.165 53.5926 108.165 53.8725 108.305 54.0124C109.004 55.8315 111.943 57.0909 115.581 57.0909C119.779 57.0909 122.997 55.4117 122.997 53.1729C123.137 51.0739 119.779 49.3948 115.581 49.3948Z" fill="#EE4335"/>
<path d="M122.857 54.4321C122.717 53.8724 122.298 53.8724 122.018 53.7325C122.018 53.3127 121.878 52.8929 121.738 52.4731C121.318 51.9134 120.758 51.6336 120.059 51.4936C119.919 51.0739 119.639 50.6541 119.079 50.5141C118.66 50.3742 118.24 50.5141 117.96 50.794C117.68 50.3742 117.4 49.9544 116.84 49.6746C115.861 49.2548 114.881 49.6746 114.322 50.3742C113.902 50.0944 113.482 50.0944 112.922 50.3742C112.643 50.5141 112.503 50.6541 112.363 50.9339C111.803 50.6541 111.243 50.6541 110.824 50.9339C110.124 51.3537 109.984 52.0534 110.124 52.753C109.424 52.8929 108.585 53.3127 108.305 54.0124C108.585 55.2717 110.963 56.9509 114.881 57.0908C117.68 57.2307 121.318 56.5311 122.857 54.4321Z" fill="#F8AA43"/>
<path d="M111.243 51.3538C110.824 51.6336 110.544 52.1933 110.824 52.6131C110.963 52.753 111.103 52.753 111.243 52.6131C111.523 52.3333 111.523 52.0534 111.663 51.7735C111.803 51.4937 111.383 51.3538 111.243 51.3538Z" fill="#FFBB6C"/>
<path d="M112.363 54.0124C112.223 53.7325 111.803 53.4527 111.383 53.3127H111.243C110.824 53.8725 111.523 54.5721 112.083 54.4322C112.363 54.4322 112.503 54.2922 112.363 54.0124Z" fill="#FFBB6C"/>
<path d="M114.042 52.3332C113.622 52.1933 112.922 52.3332 112.643 52.753V52.8929C112.783 53.3127 113.482 53.3127 113.762 53.1728C113.902 53.1728 114.042 53.0329 114.042 52.8929V52.753C114.322 52.6131 114.182 52.3332 114.042 52.3332Z" fill="#FFBB6C"/>
<path d="M116.421 50.3743C115.861 49.9545 115.161 50.3743 115.021 51.0739C115.021 51.2138 115.161 51.3538 115.301 51.3538C115.721 51.2138 116.141 51.0739 116.421 50.7941C116.421 50.6541 116.561 50.5142 116.421 50.3743Z" fill="#FFBB6C"/>
<path d="M113.342 50.9339C112.922 50.9339 112.503 51.2138 112.503 51.6336C112.503 51.7735 112.783 52.0533 112.922 51.9134C113.202 51.7735 113.342 51.6336 113.622 51.3537C113.762 51.2138 113.622 50.794 113.342 50.9339Z" fill="#FFBB6C"/>
<path d="M110.264 54.0122H110.124C109.704 54.2921 109.844 54.9917 110.264 55.2716C110.544 55.4115 110.824 55.1316 110.824 54.8518C110.684 54.432 110.404 54.1521 110.264 54.0122Z" fill="#FFBB6C"/>
<path d="M115.021 55.5516C114.602 55.4117 114.182 55.2717 113.762 55.2717C113.762 55.2717 113.622 55.2717 113.622 55.4117C113.622 56.1113 114.742 56.3912 115.161 55.8314C115.301 55.6915 115.161 55.5516 115.021 55.5516Z" fill="#FFBB6C"/>
<path d="M116.98 53.1726C116.281 52.7528 115.721 53.4525 115.721 54.1521C115.721 54.2921 115.861 54.2921 115.861 54.2921C116.281 54.1521 116.701 54.1521 116.98 53.7323C117.12 53.4525 117.12 53.1726 116.98 53.1726Z" fill="#FFBB6C"/>
<path d="M118.939 51.6335C118.799 51.4936 118.66 51.4936 118.52 51.6335C118.24 51.9134 118.1 53.0328 118.66 52.8929C118.939 52.8929 119.079 52.7529 119.079 52.613C119.219 52.1932 119.219 51.7734 118.939 51.6335Z" fill="#FFBB6C"/>
<path d="M118.66 54.5721C118.66 54.4321 118.52 54.4321 118.38 54.4321C117.96 54.5721 117.12 55.2717 117.68 55.6915C118.24 56.1113 118.799 54.9918 118.66 54.5721Z" fill="#FFBB6C"/>
<path d="M58.91 77.1007C58.91 77.1007 66.8859 81.9983 72.0633 86.6159C77.2406 91.2335 80.7389 96.271 83.6774 97.2505C86.6159 98.23 89.9742 96.271 90.3939 93.8922C90.8137 91.6533 88.295 90.8138 85.2166 91.2335C82.6979 90.254 77.8004 80.8788 73.7424 75.1417C69.5446 69.4047 58.91 77.1007 58.91 77.1007Z" fill="#AC5F25"/>
<path d="M85.0766 42.8181C85.0766 42.8181 82.418 33.8627 81.7184 31.7637C81.0187 29.6648 79.0597 30.5044 79.0597 33.5828C79.0597 34.7023 77.6604 36.6613 77.5205 38.9001C77.3806 41.139 77.6604 43.6577 78.3601 45.4768C79.8993 49.3948 85.0766 42.8181 85.0766 42.8181Z" fill="#2C1D1B"/>
<path d="M30.6444 86.0562C30.6444 86.0562 26.7264 95.2915 23.2282 100.469C19.7299 105.786 15.8119 107.745 14.2727 109.004C12.7335 110.264 13.2932 113.622 11.754 118.939C10.2148 124.257 9.65508 128.455 11.754 129.854C13.8529 131.113 21.549 129.294 21.4091 126.775C21.1292 122.438 17.0713 124.117 17.0713 124.117C17.0713 124.117 17.7709 117.12 19.8699 114.602C21.9688 112.083 27.0062 110.824 32.6034 105.086C38.2005 99.4893 41.5588 94.4519 41.5588 94.4519L30.6444 86.0562Z" fill="#AC5F25"/>
<path d="M101.868 44.777C100.889 44.4972 100.049 44.9169 99.0695 44.9169C96.131 45.0569 95.7112 44.2173 93.8922 42.5382C92.6328 41.4187 91.5134 40.5792 89.8342 40.2993C88.0151 40.0194 83.9572 39.8795 79.7594 43.7975C76.9608 46.4562 78.0802 52.613 80.1791 55.2717C82.5579 58.2102 86.8957 60.1692 90.9537 59.8893C93.1925 59.7494 95.5713 58.2102 96.271 56.2512C99.0695 54.8519 101.728 53.0328 102.988 50.654C104.107 48.695 104.387 45.4767 101.868 44.777Z" fill="#D28037"/>
<path d="M93.0526 42.5383C93.0526 42.5383 92.6328 45.057 93.7522 46.7362C94.8717 48.4153 97.5303 49.115 97.9501 50.6542C98.09 51.2139 98.23 52.3333 97.8102 53.3128C97.3904 54.8521 96.4109 56.2513 96.4109 56.2513C96.4109 56.2513 99.0695 55.2718 101.308 53.1729C103.547 51.074 105.086 46.7362 102.848 44.9171C102.008 44.2175 99.2095 45.3369 97.5303 44.9171C94.7317 44.3574 93.0526 42.5383 93.0526 42.5383Z" fill="#513231"/>
<path d="M93.0526 59.3296C93.1925 54.9918 90.3939 55.1317 89.6943 52.0533C88.8547 48.695 81.5784 41.9784 79.7594 43.9374C76.541 47.2957 78.0802 49.2547 74.1622 54.0123C70.8039 58.0702 61.0089 60.589 58.3503 61.9883C54.2923 64.2271 38.4804 71.0836 33.7228 79.4793C32.4635 81.5783 31.0642 84.3768 29.6649 87.1754C27.7059 90.9535 30.7843 94.8715 34.7023 99.3492C36.2415 101.168 47.4358 105.786 52.3333 104.527C57.2308 103.267 56.1114 92.4927 61.2888 90.5337C66.3262 88.5747 75.0018 89.8341 79.8993 86.056C82.5579 83.9571 84.7968 79.7592 86.336 76.4009C86.8957 75.1415 88.295 72.203 89.6943 69.1246C93.0526 67.1656 93.0526 61.0088 93.0526 59.3296Z" fill="#D28037"/>
<path d="M85.0766 61.9883C85.0766 61.9883 90.8137 63.9473 90.9537 68.1451C91.2335 75.8412 90.8137 79.4794 89.1346 83.6772C87.5954 87.8751 87.3155 97.5302 84.9367 103.267C82.6979 109.004 81.2986 112.223 78.6399 113.762C77.1007 114.601 74.582 113.762 74.0223 112.223C73.1827 109.704 74.0223 108.864 76.8209 106.765C78.6399 105.506 79.4795 96.8305 79.7594 94.1719C80.0392 91.6532 77.3806 86.1959 78.2201 79.1995C79.1996 72.2031 85.0766 61.9883 85.0766 61.9883Z" fill="#D28037"/>
<path d="M50.9341 87.0356C52.3333 87.5954 60.869 92.6328 62.828 95.5713C64.787 98.5098 62.6881 104.527 60.3093 108.725C57.9305 112.922 54.2923 116.84 54.2923 118.799C54.1524 120.758 59.0499 120.059 61.0089 118.799C62.828 117.54 63.9474 115.161 67.3057 118.1C70.5241 121.038 63.5276 122.997 59.4697 124.956C54.7121 127.195 51.6337 124.397 49.2549 123.417C46.5963 122.438 47.7157 118.52 48.5553 116.281C49.6747 113.342 50.5143 109.984 45.4768 103.967C40.5793 97.8102 50.9341 87.0356 50.9341 87.0356Z" fill="#D28037"/>
<path d="M22.5285 95.9911C17.3512 99.7691 9.79501 101.168 6.57665 101.168C3.35829 101.168 0.139929 100.469 0.139929 100.469C0.139929 100.469 -0.419785 104.946 2.37879 107.605C3.918 109.144 6.99644 109.424 9.51515 108.865C8.67558 110.404 7.27629 111.383 6.29679 111.803C10.2148 113.622 16.5116 114.602 23.3681 110.963C30.5045 107.185 33.1631 98.6497 34.1426 93.8921C35.6818 87.0356 38.7603 87.1756 42.2585 87.0356C45.7567 86.8957 51.074 89.8342 54.2923 88.9946C57.6506 88.1551 58.2103 83.6773 62.6881 83.6773C67.1658 83.6773 75.1417 85.4964 77.9403 82.278C80.7389 78.9198 84.9367 72.2032 84.9367 67.1658C84.9367 65.0668 83.6774 63.5276 82.2781 60.5891C80.7389 57.5107 81.8583 53.5927 81.1586 52.4732C79.1996 49.3948 76.4011 50.0944 76.4011 50.0944C76.4011 50.0944 74.7219 53.5927 71.7834 55.8315C68.1453 58.6301 62.6881 60.3092 58.0704 61.9884C45.7567 66.1862 39.0401 70.8039 35.402 74.3021C32.1836 77.6604 27.566 92.0731 22.5285 95.9911Z" fill="#513231"/>
<path d="M87.8752 43.7977C87.8752 43.7977 90.9537 38.0606 91.7932 35.1221C92.3529 33.443 92.9127 32.6034 94.172 33.5829C95.1515 34.2825 95.2914 35.9617 95.2914 37.5009C95.2914 38.7603 96.131 41.4189 96.131 44.9171C96.131 47.5758 95.7112 50.2344 94.172 52.0535C90.9537 50.6542 91.3734 48.1355 90.254 46.8761C88.9947 45.197 87.8752 43.7977 87.8752 43.7977Z" fill="#2C1D1B"/>
<path d="M99.6292 44.9172C99.6292 44.9172 101.728 45.7567 102.288 46.4564C102.848 47.156 103.827 48.1355 103.827 48.1355C103.827 48.1355 104.107 45.4769 102.708 44.9172C101.308 44.2175 99.6292 44.9172 99.6292 44.9172Z" fill="#2C1D1B"/>
</g>
<defs>
<clipPath id="clip0_209_1980">
<rect width="157" height="130.414" fill="white"/>
</clipPath>
</defs>
</svg>
