<svg id="Layer_1" enable-background="new 0 0 512 512" height="512" viewBox="0 0 512 512" width="512" xmlns="http://www.w3.org/2000/svg"><g><path d="m473.71 214.41c0 .31-.02.6-.06.91l-7.8 63.95-7.98 65.38-7.97 65.37-10.72 87.86h-25.19l-341.1.02-10.99-87.88-8.17-65.37-8.18-65.38-7.99-63.93c-.04-.31-.06-.62-.06-.93 0-2.12.89-4.15 2.49-5.58l66.3-59.47 71.78-64.38 67.64-60.68 5.28-4.73c2.86-2.56 7.18-2.55 10.03.01l72.64 65.4 71.51 64.38 66.06 59.47c1.58 1.44 2.48 3.47 2.48 5.58z" fill="#ffc599"/><g fill="#f7aa74"><path d="m473.71 214.41c0 .31-.02.6-.06.91l-7.8 63.95-7.98 65.38-7.97 65.37-10.72 87.86h-25.19l32.02-262.41-200.3-211.17 5.28-4.73c2.86-2.56 7.18-2.55 10.03.01l72.64 65.4 71.51 64.38 66.06 59.47c1.58 1.44 2.48 3.47 2.48 5.58z"/><path d="m333.66 84.98h-155.59l67.64-60.68 5.28-4.73c2.86-2.56 7.18-2.55 10.03.01z"/><path d="m473.71 214.41h-436.21c0-2.12.89-4.15 2.49-5.58l66.3-59.47h298.88l66.06 59.47c1.58 1.44 2.48 3.47 2.48 5.58z"/><path d="m465.85 279.27-7.98 65.38h-404.14l-8.18-65.38z"/><path d="m449.9 410.02-10.72 87.86h-25.19l-341.1.02-10.99-87.88z"/></g><path d="m261.02 19.58 72.64 65.4h-30.39l-57.56-60.68 5.28-4.73c2.86-2.56 7.18-2.55 10.03.01z" fill="#ea8857"/><path d="m424.71 410.02h25.19l-10.72 87.86h-25.19z" fill="#ea8857"/><path d="m440.67 279.27h25.18l-7.98 65.38h-25.18z" fill="#ea8857"/><path d="m426.03 214.41-61.7-65.05h40.84l66.06 59.47c1.58 1.44 2.48 3.47 2.48 5.58z" fill="#ea8857"/><path d="m332.23 355.56v138.72h-152.46v-138.72c0-37.85 27.57-69.25 63.73-75.21 4.06-.68 8.24-1.03 12.5-1.03 21.05 0 40.11 8.53 53.9 22.33 13.8 13.79 22.33 32.85 22.33 53.91z" fill="#7c5f56"/><path d="m332.23 355.56v138.72h-25v-138.72c0-21.06-8.53-40.12-22.33-53.91-11-11.01-25.35-18.66-41.4-21.3 4.06-.68 8.24-1.03 12.5-1.03 21.05 0 40.11 8.53 53.9 22.33 13.8 13.79 22.33 32.85 22.33 53.91z" fill="#6b4338"/><path d="m213.44 497.9h-185.07l12.55-80.65c.65-4.16 4.23-7.23 8.44-7.23h143.09c4.21 0 7.79 3.07 8.44 7.23z" fill="#ff6248"/><path d="m213.44 497.9h-30l-12.55-80.65c-.65-4.16-4.23-7.23-8.44-7.23h30c4.21 0 7.79 3.07 8.44 7.23z" fill="#f00"/><path d="m512 496.97c0 4.15-1.68 7.91-4.4 10.63-2.71 2.72-6.46 4.4-10.6 4.4h-482c-8.29 0-15-6.73-15-15.03 0-4.15 1.68-7.91 4.39-10.63s6.47-4.4 10.61-4.4h482c8.28 0 15 6.73 15 15.03z" fill="#4a555b"/><path d="m512 496.97c0 4.15-1.68 7.91-4.4 10.63-2.71 2.72-6.46 4.4-10.6 4.4h-30c4.14 0 7.89-1.68 10.6-4.4 2.72-2.72 4.4-6.48 4.4-10.63 0-8.3-6.72-15.03-15-15.03h30c8.28 0 15 6.73 15 15.03z" fill="#2d383d"/><path d="m508.16 240.71c-2.96 3.3-7.05 4.98-11.16 4.98-3.57 0-7.15-1.27-10.02-3.84l-230.98-206.69-230.98 208.1c-6.16 5.54-15.65 5.03-21.18-1.14-5.17-5.75-5.06-14.39-.02-20.02.36-.4.75-.79 1.16-1.16l241-217.1c5.7-5.12 14.34-5.12 20.04 0l241 215.68c.42.37.81.77 1.17 1.17 5.03 5.63 5.14 14.27-.03 20.02z" fill="#ffd85c"/><path d="m508.19 220.69c5.03 5.63 5.14 14.27-.03 20.02-2.96 3.3-7.05 4.98-11.16 4.98-3.57 0-7.15-1.27-10.02-3.84l-230.98-206.69-230.98 208.1c-6.16 5.54-15.65 5.03-21.18-1.14-5.17-5.75-5.06-14.39-.02-20.02l.02.02c5.53 6.17 15.02 6.68 21.18 1.14l230.98-208.1 230.98 206.69c2.87 2.57 6.45 3.84 10.02 3.84 4.11 0 8.2-1.68 11.16-4.98.01-.01.02-.02.03-.02z" fill="#ffb636"/><g><g><path d="m195.142 251.199c-8.46-.93-15.3-7.78-16.24-16.24-.38-3.39.17-6.63 1.42-9.49 1.49-3.39 3.96-6.25 7.06-8.21 2.12-1.35 2.12-4.36 0-5.71-5.71-3.62-9.3-10.28-8.48-17.7.94-8.46 7.78-15.3 16.24-16.24 11.13-1.23 20.56 7.46 20.56 18.34v.04c-.01 1.87 1.45 3.42 3.33 3.42h74.85c1.87 0 3.34-1.54 3.33-3.42v-.03c0-10.89 9.42-19.57 20.56-18.34 8.46.93 15.3 7.78 16.24 16.24.82 7.42-2.77 14.08-8.48 17.7-2.12 1.35-2.12 4.36 0 5.71 3.06 1.94 5.51 4.75 7.01 8.08 1.28 2.89 1.85 6.17 1.47 9.62-.94 8.46-7.78 15.3-16.24 16.24-11.13 1.23-20.56-7.46-20.56-18.34v-.04c.01-1.87-1.45-3.42-3.33-3.42h-74.85c-1.87 0-3.34 1.54-3.33 3.42v.03c0 10.89-9.42 19.57-20.56 18.34z" fill="#e1f9ff"/></g><path d="m195.142 251.199c-8.46-.93-15.3-7.78-16.24-16.24-.38-3.39.17-6.63 1.42-9.49.25.64.54 1.27.87 1.91 1.39 2.72 3.59 4.98 6.29 6.41 14.09 7.43 28.22-2.6 28.22-15.93l81.51.01c0 10.89 9.44 19.57 20.58 18.33 6.57-.73 12.14-5.02 14.75-10.85 1.28 2.89 1.85 6.17 1.47 9.62-.94 8.46-7.78 15.3-16.24 16.24-11.13 1.23-20.56-7.46-20.56-18.34v-.04c.01-1.87-1.45-3.42-3.33-3.42h-74.85c-1.87 0-3.34 1.54-3.33 3.42v.03c0 10.89-9.42 19.57-20.56 18.34z" fill="#c2e8ef"/></g></g></svg>