<svg width="152" height="197" viewBox="0 0 152 197" fill="none" xmlns="http://www.w3.org/2000/svg">
<path d="M60.8483 77.8608C60.8483 77.8608 63.8862 78.6203 64.8989 78.6203C65.9115 78.6203 73.2533 83.4304 72.4938 85.9621C71.7343 88.4937 71.4812 86.9747 69.4559 85.9621C67.4306 84.6962 65.6584 83.4304 65.1521 84.6962C64.8989 85.7089 66.9242 85.962 67.1774 86.9747C67.4306 87.7342 65.9116 87.4811 64.1394 86.7216C63.3799 86.4684 62.1141 85.962 61.6078 85.7089C58.823 84.4431 58.8229 83.1772 57.5571 83.1772C56.5445 82.4177 60.8483 77.8608 60.8483 77.8608Z" fill="#F4C297"/>
<path d="M24.3924 40.3925C24.3924 40.3925 37.0507 58.8735 39.5823 61.9115C41.8608 64.9494 64.8988 77.1013 64.8988 77.1013L60.8482 86.9748C60.8482 86.9748 32.7469 74.3166 31.9874 73.8102C31.2279 73.3039 16.5444 58.114 12.7469 53.0507C10.2153 49.7596 11.7343 43.9368 16.2912 41.152C18.3165 39.633 24.3924 40.3925 24.3924 40.3925Z" fill="#000E30"/>
<path d="M16.7977 180.645C16.7977 180.645 15.2787 185.709 16.7977 189.759L43.1268 189.506C43.1268 189.506 42.8736 185.202 39.5825 183.683C36.2913 182.164 28.4432 180.646 25.6584 174.063L16.7977 180.645Z" fill="#000E30"/>
<path d="M5.9116 182.924C5.9116 182.924 3.88625 187.987 5.40524 192.038L31.7344 193.81C31.7344 193.81 31.7344 189.506 28.4432 187.734C25.1521 185.962 17.5572 183.937 15.2787 177.354L5.9116 182.924Z" fill="#00265F"/>
<path d="M2.8733 95.8354C1.86064 100.646 1.10115 106.468 5.40494 113.81C9.70874 120.899 17.3037 134.063 19.329 142.924C21.3543 151.785 21.8606 180.392 21.8606 180.392H34.5189C34.5189 180.392 35.7847 150.013 35.0252 141.911C34.2657 133.81 32.2404 108.747 27.9367 94.5696L2.8733 95.8354Z" fill="#AB0C00"/>
<path d="M2.11401 90.2659C0.0886888 94.8228 -0.41764 102.418 2.11401 110.772C4.64565 119.127 8.69627 132.544 8.18994 141.911C7.93677 151.279 4.39247 183.177 4.39247 183.177L20.8482 184.696C20.8482 184.696 24.3925 153.81 25.6583 145.456C26.9241 137.101 27.9368 108.494 27.1773 93.0507L2.11401 90.2659Z" fill="#C90E00"/>
<path d="M24.8987 57.1011C27.4303 45.9618 27.1772 40.1391 26.6709 38.6201C26.4177 37.1011 26.4177 28.9998 32.4936 32.291C37.0506 34.8226 37.5569 32.7972 37.8101 31.2783C37.0506 30.7719 36.5442 31.0251 37.0505 30.0124L37.3037 29.5061L35.0253 25.4555C34.0126 25.9618 32.7467 25.9619 31.9873 24.696L23.886 10.2656C21.1012 15.5821 21.3544 22.9239 21.3544 24.1897C21.1012 26.4682 16.5442 32.5441 12.9999 36.8479C9.45561 41.1517 6.92396 47.4808 5.40497 58.3669C4.39232 65.4555 11.7341 90.5188 11.7341 90.5188C12.4936 87.734 22.367 68.2403 24.8987 57.1011Z" fill="#F4C297"/>
<path d="M38.5697 8.74683C39.0761 9.75948 42.6204 12.2911 42.6204 16.5949C42.6204 19.1266 42.6204 18.8734 41.8609 19.3798C40.8483 20.6456 41.6077 22.4177 42.114 23.1772C42.8735 24.6962 43.6331 25.7088 41.8609 26.2152C39.8356 26.7215 40.595 27.481 40.8482 27.9873C41.1014 28.4937 40.3419 29 39.8356 29.2532C39.8356 29.2532 40.595 30.2658 39.8356 30.519C39.0761 30.7722 38.5697 30.7721 38.3166 31.2785C38.0634 31.7848 38.0634 33.8101 37.0507 34.3165C36.0381 34.8228 33.7596 33.557 32.4938 33.3038C31.4811 33.0507 29.9621 32.5443 28.4431 33.3038C23.633 35.8355 23.8862 37.6076 23.8862 37.6076C23.8862 37.6076 21.1014 37.1013 18.3166 33.557C17.5571 32.5443 17.0508 34.0633 17.8103 32.5443C19.0761 29.7595 16.7976 14.8228 21.6078 15.8355C21.8609 15.8355 32.747 14.5697 32.747 14.5697L38.5697 8.74683Z" fill="#F4C297"/>
<path d="M16.2913 8.49353C19.5824 3.68341 23.3798 -0.873493 29.4558 0.645495C35.5317 2.16448 41.6077 6.21507 42.8735 3.68342C42.8735 3.68342 44.1394 10.2657 41.6077 12.5442C41.3546 11.2784 31.2279 19.1265 29.4558 20.3923C27.9368 21.6581 29.9621 17.3544 27.6837 17.1012C25.4052 16.5949 22.8735 20.8986 23.1267 23.1771C23.3798 24.9493 19.3292 26.7214 19.3292 26.7214L19.0761 28.2404L17.5571 24.1898C17.3039 23.9366 13.2533 13.3037 16.2913 8.49353Z" fill="#582D11"/>
<path d="M32.7466 33.0505C34.2656 33.5568 36.5441 34.5695 37.5567 34.0632C38.0631 33.81 38.3162 33.3037 38.5694 32.7973C38.5694 32.7973 31.4808 31.2783 30.215 28.7467C28.4428 25.4556 29.9618 22.1644 30.215 16.5948C30.4681 10.772 28.9492 19.8859 28.9492 19.8859C28.9492 19.8859 26.1643 30.2657 31.2276 32.2911C31.7339 32.5442 32.2403 32.7974 32.7466 33.0505Z" fill="#582D11"/>
<path d="M20.0885 83.6835V37.3544C20.0885 37.3544 17.3036 36.3417 14.772 34.0632C12.7467 35.8354 11.4808 37.8607 10.4682 39.3797C7.43019 44.1898 5.65804 48.2404 5.40488 59.3797C5.40488 66.4683 2.11377 90.519 2.11377 90.519L20.8479 92.5443L20.0885 83.6835Z" fill="#000E30"/>
<path d="M14.772 34.0632C12.7467 35.8354 11.4808 37.8607 10.4682 39.3797C7.43019 44.1898 5.65804 48.2404 5.40488 59.3797C5.40488 66.4683 2.11377 90.519 2.11377 90.519L27.4302 94.5696L31.4809 61.4051C33.253 48.2405 25.658 37.8607 25.658 37.8607C23.6327 37.8607 18.3163 36.3418 17.0505 36.0886C16.291 35.0759 15.5315 34.5696 14.772 34.0632Z" fill="#00265F"/>
<path d="M96.5446 107.734C95.0256 97.1011 99.5826 83.6834 98.8231 78.6201C98.3168 73.81 96.2915 73.0505 94.5193 71.0252C92.7471 68.9999 86.6712 66.4682 85.1522 67.4809C83.6332 68.4936 79.0762 70.5189 77.8104 68.9999C76.2914 67.4809 74.5193 64.9493 73.2535 66.2151C70.4687 68.7467 69.2028 70.772 69.9623 74.5695C70.4686 78.3669 70.4687 80.3923 72.7471 81.4049C75.0256 82.4176 74.013 82.1644 74.7725 83.6834C75.532 85.4556 80.0889 86.215 78.3168 89.5062C76.5446 92.7973 67.6838 98.367 65.1522 103.177C62.3674 107.987 63.1269 113.557 64.899 118.62C66.6712 123.937 76.5446 136.088 77.051 134.316C77.5573 132.797 83.6332 139.38 87.1775 139.633C90.7218 139.886 99.0763 144.696 101.102 146.721C106.418 144.19 98.5699 119.633 96.5446 107.734Z" fill="#6B2F07"/>
<path d="M89.4561 91.0251C87.4307 90.2656 88.1903 86.9745 88.6966 84.1897C88.6966 84.1897 87.6839 87.734 90.7219 88.7466C93.7598 89.7593 96.7978 83.6833 96.7978 83.6833C95.2788 87.9871 91.9877 92.0378 89.4561 91.0251Z" fill="#16171A"/>
<path d="M96.7977 81.405C96.7977 81.405 95.2787 84.9493 94.266 84.6961C93.0002 84.443 91.228 84.9493 90.2154 84.9493C89.2027 85.2025 88.9495 81.6582 88.9495 81.6582C88.9495 81.6582 87.1774 91.0253 89.4559 91.0253C91.4812 91.0253 97.0508 86.9747 96.7977 81.405Z" fill="#4A1F02"/>
<path d="M97.3039 78.1138C97.5571 80.6454 96.5444 82.9239 95.5317 85.2024C95.0254 86.2151 94.266 87.2277 93.7596 88.2404C93.0001 89.253 92.2406 90.0125 91.228 90.2657C90.4685 90.772 89.4558 90.5188 88.9494 89.7594C88.4431 88.9999 88.6963 87.7341 88.6963 86.4682C88.9495 85.2024 88.9495 83.9366 89.2026 82.6708C89.2026 82.1644 89.2026 81.4049 89.2026 80.6454C89.2026 79.8859 88.6963 79.3797 87.9368 79.1265C88.4431 79.3797 88.6963 80.1391 88.6963 80.6454C88.6963 81.1517 88.6963 81.9113 88.4432 82.4176C88.19 83.6834 87.6837 84.6961 87.4305 85.9619C87.1773 87.2277 86.9242 88.4935 87.4305 90.0125C88.19 91.7847 90.2153 92.0379 91.4811 91.5315C92.7469 91.0252 93.7596 90.0125 94.5191 88.9999C95.2786 87.9872 95.7849 86.7214 96.2913 85.7087C97.5571 83.1771 98.0634 80.6454 97.3039 78.1138Z" fill="#16171A"/>
<path d="M77.8105 69C79.0763 70.519 83.8864 68.4936 85.1522 67.481C85.1522 67.481 85.4054 67.481 85.4054 67.2278C85.4054 67.2278 85.4054 67.2278 85.6586 67.2278H85.9118H86.1649C86.1649 67.2278 86.1649 67.2278 86.418 67.2278C86.6712 67.2278 86.6712 67.2278 86.9244 67.2278C86.9244 67.2278 86.9244 67.2278 87.1776 67.2278C87.4307 67.2278 87.4307 67.2278 87.6839 67.2278C87.937 67.2278 88.1902 67.2278 88.1902 67.481C88.4434 67.481 88.6965 67.481 88.9497 67.7342C89.2029 67.7342 89.4561 67.9873 89.7092 67.9873C89.7092 67.9873 89.456 70.7721 88.1902 72.0379C86.9244 73.3037 84.3928 73.5569 83.1269 75.0759C82.6206 75.8354 75.0257 71.2784 74.2662 75.0759C74.013 76.3417 72.2409 77.8607 70.7219 78.6202C70.4687 77.6075 70.2155 76.3417 69.9623 74.5696C69.456 70.7721 70.4687 68.4936 73.2535 66.2152C74.5194 65.2025 76.5446 67.481 77.8105 69Z" fill="#141414"/>
<path d="M85.152 71.0252C85.152 71.2784 83.6331 73.8101 80.8483 72.5442C78.0634 71.2784 76.7976 70.2658 77.8103 69C79.0761 70.5189 83.8862 68.4936 85.152 67.481C86.4178 67.9873 85.152 70.7721 85.152 71.0252Z" fill="black"/>
<path d="M83.8864 70.5189C85.1522 68.4936 82.1143 70.2658 82.1143 70.2658C82.1143 70.2658 83.1269 72.0379 83.8864 70.5189Z" fill="#1E0F06"/>
<path d="M73.2533 66.2151C74.2659 65.4556 75.2786 66.4683 76.5444 67.4809C77.0507 69.5063 76.0381 68.4936 75.2786 68.4936C74.5191 68.4936 74.2659 69.5062 73.2533 69.2531C72.2406 69.2531 71.9874 70.5189 71.4811 71.0252C71.2279 71.7847 69.9621 71.0252 69.709 71.0252C70.2153 69.5062 71.4811 67.9873 73.2533 66.2151Z" fill="#5F6373"/>
<path d="M71.9873 67.734C72.4936 66.9745 72.7468 66.9745 73.5063 66.4682C74.2658 65.7087 75.5316 66.4682 76.5442 67.4809C75.0252 67.9872 73.7595 67.9872 71.9873 67.734Z" fill="black"/>
<path d="M75.2788 66.4683C76.2915 66.9746 77.051 68.2404 77.8105 69.253C78.5699 70.2657 80.5953 70.0125 82.3675 69.253C82.6206 69.5062 81.6079 70.2657 80.5953 70.5188C79.5826 70.772 79.3295 71.0252 78.57 70.772C77.8105 70.5188 76.2915 68.7467 76.2915 68.7467L75.2788 66.4683Z" fill="#E8DBCE"/>
<path d="M69.2027 119.886C66.1647 120.646 64.6457 123.937 61.8609 121.405C59.0761 118.873 54.2659 112.038 52.2406 111.785C50.2153 111.532 47.4305 111.532 46.4179 113.557C45.152 115.582 43.3799 116.848 41.1014 117.101C38.8229 117.354 37.0507 115.835 38.5697 114.316C40.0887 112.797 41.3545 111.785 43.3798 110.519C45.4052 109.253 49.2027 105.709 51.9875 106.215C55.0255 106.721 61.6077 111.278 63.8862 112.291C66.4178 113.304 69.2027 119.886 69.2027 119.886Z" fill="#4A1F02"/>
<path d="M63.3797 110.772C63.3797 110.772 61.8607 123.684 70.4683 135.582C79.0759 147.481 92.2405 146.975 92.2405 159.38C92.2405 165.203 106.165 175.329 108.443 176.089C110.468 176.848 113.253 174.316 116.038 169C118.823 163.684 120.089 163.43 120.089 157.354C120.089 157.354 120.595 153.051 118.063 146.975C115.532 140.899 111.228 136.089 106.165 128.241C101.101 120.392 95.0253 111.785 96.2911 100.899C97.557 90.2658 81.3544 114.57 81.3544 114.57L63.3797 110.772Z" fill="#6B2F07"/>
<path d="M73.0002 122.418C69.709 123.683 68.4432 127.481 65.152 125.202C61.8609 122.671 55.2787 115.835 53.0002 115.835C50.7217 115.835 47.6837 116.088 46.6711 118.873C45.6584 121.405 43.6331 122.924 41.3546 123.683C39.0761 124.19 36.5445 122.924 38.0635 121.152C39.3293 119.38 40.8483 117.861 43.1268 116.088C45.4052 114.316 48.9495 110.012 52.2406 110.012C55.5318 110.012 63.6331 114.316 66.4179 115.076C68.9495 115.582 73.0002 122.418 73.0002 122.418Z" fill="#6B2F07"/>
<path d="M105.911 168.747C107.43 173.557 106.418 175.329 107.937 177.861C109.456 180.392 114.266 182.671 109.203 184.696C106.671 185.709 101.861 188.24 103.38 189.506C104.899 190.772 101.608 193.05 108.443 190.772C114.519 188.747 118.317 185.202 118.317 182.418C118.317 181.152 112.241 174.063 114.772 169.759C118.317 164.443 107.684 163.683 107.684 163.683L105.911 168.747Z" fill="#4A1F02"/>
<path d="M91.7343 151.025C92.4938 154.063 86.1647 168.24 87.4305 172.038C88.6963 175.835 89.2026 179.633 95.2785 184.696C101.354 189.506 100.848 189.759 100.089 191.278C99.5824 192.544 89.9621 190.012 88.19 192.291C86.4178 194.316 85.9115 195.329 88.9494 196.088C91.9874 196.848 100.342 196.088 104.392 196.088C108.443 196.088 111.481 195.076 110.215 191.785C108.949 188.747 105.912 185.962 105.152 182.671C104.393 179.38 104.139 179.633 107.937 177.861C111.734 176.088 120.342 167.228 120.089 159.633C119.836 152.038 91.9874 149.253 91.9874 149.253L91.7343 151.025Z" fill="#6B2F07"/>
<path d="M119.076 149.759C119.076 149.759 122.114 161.658 131.481 164.949C140.342 167.987 151.735 169.253 151.735 170.772C151.735 171.531 143.38 171.278 139.076 170.772C133.254 170.012 120.342 170.772 117.811 154.569L119.076 149.759Z" fill="#6B2F07"/>
<path d="M91.4812 154.569C94.5192 139.633 79.0762 127.734 77.304 124.443C75.5319 120.899 75.785 121.405 71.4812 125.202C67.9369 128.24 65.9116 126.215 65.4053 125.456C66.4179 128.747 68.1901 132.038 70.4686 135.582C77.8103 145.709 88.4432 146.721 91.4812 154.569Z" fill="#4A1F02"/>
<path d="M78.8228 87.481C79.076 88.2405 79.076 88.7468 78.5697 89.7594C76.7976 93.0506 67.9368 98.6202 65.4051 103.43C63.633 106.468 63.3798 109.759 63.6329 113.304C65.6583 109.759 67.9368 109.759 71.7342 106.468C75.5317 103.177 74.0127 103.177 76.5444 98.367C79.076 93.3037 81.3545 90.2658 78.8228 87.481Z" fill="#E8DBCE"/>
<path d="M51.481 98.1139C51.481 98.1139 53.7595 100.646 54.2658 101.911C54.7721 102.924 63.3797 107.987 65.405 105.962C67.4303 103.937 65.9113 104.443 63.886 102.924C61.6075 101.405 59.3291 100.139 60.3417 99.3797C61.3544 98.3671 62.367 100.392 63.6328 100.139C64.6455 99.886 63.3797 98.6202 61.8607 97.1012C61.3544 96.5949 59.8354 95.3291 59.5823 95.0759C56.7974 93.0506 55.7847 93.5569 55.0252 92.2911C54.0126 91.2784 51.481 98.1139 51.481 98.1139Z" fill="#F4C297"/>
<path d="M14.2659 48.2405L9.70898 91.5316L27.6837 94.3165L30.9748 65.7088L14.2659 48.2405Z" fill="#000E30"/>
<path d="M26.418 46.9747C26.418 46.9747 34.7724 67.7342 36.2914 71.2786C37.8104 74.8229 57.5572 91.7849 57.5572 91.7849L51.2281 100.646C51.2281 100.646 26.6712 81.9115 26.1648 81.4051C25.6585 80.6456 14.7724 62.4178 11.9876 56.8481C10.2154 53.0507 13.2534 47.7343 18.0635 46.2153C20.5952 44.9495 26.418 46.9747 26.418 46.9747Z" fill="#00265F"/>
</svg>
