<svg id="Capa_1" enable-background="new 0 0 512 512" height="512" viewBox="0 0 512 512" width="512" xmlns="http://www.w3.org/2000/svg"><g><path d="m29.971 127.892c-4.821-7.571-14.857-9.806-22.44-4.988-7.575 4.821-9.806 14.869-4.988 22.44l53.213 84.43 24.582-21.932z" fill="#ffd18d"/><path d="m439.13 142.127-39.8-14.764c-4.561-1.811-5.439-7.887-1.577-10.915l34.698-27.212c9.428-7.394 13.927-19.274 12.017-30.86l-27.868-14.235-36.759 8.168-27.126-7.309c-11.994-3.232-24.769-1.764-35.718 4.102l-19.22 10.299-8.791 109.425-190.613 25.086c-37.391 3.739-58.29 31.49-58.29 69.068v38.751c0 12.023-3.809 23.738-10.881 33.461l-11.86 16.308c-6.26 8.608-8.893 19.328-7.333 29.856l17.043 79.379h46.092l7.871-5.626c-.979-5.449-4.697-10.106-9.961-12.212l-30.419-12.167v-55.535s47.659-10.042 82.503-57.959l133.026 8.889 10.792 130.326c.698 8.428 7.742 14.913 16.199 14.913h41.925c4.488 0 8.127-3.638 8.127-8.127v-6.209c0-6.156-3.478-11.784-8.985-14.537l-23.523-11.762s-2.322-59.369 33.222-124.952c28.471-52.531 34.316-104.958 35.508-125.689.237-4.122 3.609-7.381 7.738-7.384 23.352-.02 44.324-5.267 55.907-8.893 5.79-1.812 10.056-6.657 11.181-12.619.729-3.866-1.435-7.696-5.125-9.065z" fill="#ffd18d"/><path d="m321.19 73.005-.425-2.425c-1.856-10.582-13.517-16.253-22.986-11.179-24.4 13.075-33.838 49.315-32.005 73.624 1.716 22.767 22.088 54.354 52.533 33.51 28.405-19.447 1.92-55.482 3.293-78.763.289-4.942.445-9.891-.41-14.767z" fill="#fbbd80"/><path d="m455.103 121.905c-3.905 0-7.349-2.817-8.008-6.79-.738-4.429 2.254-8.615 6.683-9.353l48.762-8.127c4.444-.722 8.619 2.254 9.349 6.679.738 4.429-2.254 8.615-6.683 9.353l-48.762 8.127c-.453.075-.897.111-1.341.111z" fill="#ffeac6"/><path d="m471.364 89.397c-2.079 0-4.159-.794-5.746-2.381-3.175-3.175-3.175-8.317 0-11.492l8.127-8.127c3.175-3.175 8.317-3.175 11.492 0s3.175 8.317 0 11.492l-8.127 8.127c-1.587 1.588-3.666 2.381-5.746 2.381z" fill="#fff4d6"/><path d="m479.571 146.286c-4.492 0-8.167-3.639-8.167-8.127s3.595-8.127 8.087-8.127h.079c4.492 0 8.127 3.639 8.127 8.127.001 4.488-3.634 8.127-8.126 8.127z" fill="#fff4d6"/><path d="m98.373 186.921c-37.391 3.739-65.865 35.202-65.865 72.78v38.751c0 12.023-3.809 23.738-10.881 33.461l-11.86 16.308c-6.26 8.608-8.893 19.328-7.333 29.856l11.765 79.416c1.181 7.97 8.022 13.872 16.078 13.872h42.865c4.488 0 8.127-3.639 8.127-8.127v-5.249c0-.993-.096-1.924-.27-2.877h-43.709c-4.028 0-7.449-2.951-8.039-6.936l-10.736-72.496c-.935-6.313.644-12.741 4.398-17.902l11.857-16.302c9.094-12.502 13.992-27.564 13.992-43.024v-38.754c0-29.349 22.024-53.682 51.444-56.627l179.827-20.414c8.875-1.007 15.253-9.019 14.245-17.893l-.004-.035z" fill="#fbbd80"/><path d="m143.944 307.382c-8.475-2.352-17.383 1.754-20.806 9.855l-.08.189c.002-.003.004-.006.007-.009 28.612 12.093 89.189 20.637 133.099 8.709-2.342-8.621-10.822-13.822-19.656-12.488-31.627 4.776-68.22.499-92.564-6.256z" fill="#fbbd80"/><circle cx="361.932" cy="82.938" fill="#7a4646" r="8.127"/><path d="m443.396 53.891-2.384-7.568c-1.271-4.037-5.429-6.423-9.556-5.483l-14.856 3.301c4.533 8.662 13.5 14.637 23.954 14.637 1.331 0 2.633-.216 3.914-.401-.249-1.506-.604-3.001-1.072-4.486z" fill="#e29a6c"/></g></svg>