<svg height="449pt" viewBox="-8 0 449 449.254" width="449pt" xmlns="http://www.w3.org/2000/svg"><path d="m23.347656 108.378906 23.222656 69.671875v38.707031l-23.222656 92.898438 15.480469 85.15625v54.1875h61.933594l7.738281-54.1875 30.964844-77.417969-7.738282-92.894531 7.738282-38.707031 30.96875-77.414063zm0 0" fill="#ffd782"/><path d="m410.414062 108.378906-23.222656 69.671875v38.707031l23.222656 92.898438-15.480468 85.15625v54.1875h-61.929688l-7.742187-54.1875-30.964844-77.417969 7.738281-92.894531-7.738281-38.707031-30.96875-77.414063zm0 0" fill="#ffd782"/><g fill="#f7b166"><path d="m69.800781 410.292969c-.269531 0-.542969-.015625-.816406-.046875-4.246094-.441406-7.328125-4.238282-6.886719-8.488282 0-.003906 0-.007812 0-.015624l15.484375-147.085938c.457031-4.25 4.269531-7.324219 8.519531-6.867188 4.238282.457032 7.308594 4.25 6.871094 8.484376l-15.480468 147.085937c-.414063 3.9375-3.730469 6.929687-7.691407 6.933594zm0 0"/><path d="m93.019531 232.558594c-2.253906.003906-4.398437-.980469-5.867187-2.691406l-13.59375-15.800782c-1.207032-1.40625-1.871094-3.195312-1.875-5.050781v-37.753906l-15.246094-61.007813c-1.046875-4.144531 1.460938-8.351562 5.605469-9.398437 4.140625-1.046875 8.351562 1.460937 9.398437 5.605469.003906.015624.007813.027343.011719.042968l15.480469 61.933594c.15625.609375.238281 1.242188.234375 1.875v35.832031l11.71875 13.625c2.789062 3.238281 2.421875 8.125-.816407 10.914063-1.40625 1.210937-3.199218 1.875-5.050781 1.875zm0 0"/><path d="m363.960938 410.292969c-3.960938-.003907-7.277344-2.996094-7.691407-6.933594l-15.480469-147.085937c-.457031-4.246094 2.617188-8.0625 6.867188-8.519532 4.25-.453125 8.0625 2.621094 8.519531 6.871094 0 .011719.003907.019531.003907.03125l15.484374 147.085938c.449219 4.246093-2.628906 8.054687-6.871093 8.503906-.007813 0-.011719 0-.019531 0-.269532.03125-.539063.046875-.8125.046875zm0 0"/><path d="m340.742188 232.242188c-4.273438 0-7.738282-3.46875-7.738282-7.742188 0-2.054688.816406-4.019531 2.265625-5.472656l13.214844-13.214844v-27.761719c0-.507812.050781-1.019531.152344-1.519531l7.742187-38.707031c.824219-4.191407 4.898438-6.921875 9.089844-6.09375 4.195312.828125 6.925781 4.898437 6.097656 9.09375-.003906.011719-.007812.027343-.007812.042969l-7.59375 37.949218v30.203125c0 2.050781-.8125 4.019531-2.265625 5.472657l-15.484375 15.480468c-1.449219 1.453125-3.417969 2.269532-5.472656 2.269532zm0 0"/></g><path d="m433.640625 108.378906-15.484375-108.378906h-402.550781l-15.484375 108.378906h201.277344l15.484374-54.191406 15.480469 54.191406zm0 0" fill="#36afad"/></svg>