<svg width="25" height="25" viewBox="0 0 25 25" fill="none" xmlns="http://www.w3.org/2000/svg">
<path fill-rule="evenodd" clip-rule="evenodd" d="M7.935 2.5H16.316C19.405 2.5 21.125 4.28 21.125 7.33V17.66C21.125 20.76 19.405 22.5 16.316 22.5H7.935C4.895 22.5 3.125 20.76 3.125 17.66V7.33C3.125 4.28 4.895 2.5 7.935 2.5ZM8.205 7.16V7.15H11.194C11.625 7.15 11.975 7.5 11.975 7.929C11.975 8.37 11.625 8.72 11.194 8.72H8.205C7.774 8.72 7.425 8.37 7.425 7.94C7.425 7.51 7.774 7.16 8.205 7.16ZM8.205 13.24H16.045C16.475 13.24 16.825 12.89 16.825 12.46C16.825 12.03 16.475 11.679 16.045 11.679H8.205C7.774 11.679 7.425 12.03 7.425 12.46C7.425 12.89 7.774 13.24 8.205 13.24ZM8.205 17.81H16.045C16.444 17.77 16.745 17.429 16.745 17.03C16.745 16.62 16.444 16.28 16.045 16.24H8.205C7.905 16.21 7.615 16.35 7.455 16.61C7.295 16.86 7.295 17.19 7.455 17.45C7.615 17.7 7.905 17.85 8.205 17.81Z" fill="url(#paint0_linear_174_324)"/>
<defs>
<linearGradient id="paint0_linear_174_324" x1="12.125" y1="2.5" x2="12.125" y2="22.5" gradientUnits="userSpaceOnUse">
<stop stop-color="#3D50DF"/>
<stop offset="1" stop-color="#DA56FF"/>
</linearGradient>
</defs>
</svg>
