<svg width="25" height="25" viewBox="0 0 25 25" fill="none" xmlns="http://www.w3.org/2000/svg">
<path d="M20.6736 17.7085L20.6772 17.7188L20.6811 17.7291C20.8104 18.0658 20.8762 18.4235 20.8751 18.7842V18.7864C20.8751 20.3294 19.67 21.5 18.424 21.5C17.6735 21.5 16.7948 21.3128 15.7817 21.0971L15.7557 21.0915C14.7728 20.8822 13.6733 20.6502 12.6326 20.6502C11.5924 20.6502 10.4855 20.882 9.49739 21.0914L9.46139 21.099C8.44633 21.3141 7.56914 21.5 6.83133 21.5C5.60186 21.5 4.37509 20.3246 4.3751 18.7864L4.37507 18.7813C4.37261 18.4211 4.43706 18.0636 4.56513 17.727L4.56842 17.7184L4.57149 17.7096C4.88533 16.8193 5.60196 16.3478 6.5617 15.7512L6.56185 15.7511C6.58081 15.7393 6.59985 15.7274 6.61897 15.7156C7.3926 15.2347 8.29492 14.6739 8.88734 13.661L8.88747 13.6608C8.9214 13.6027 8.9548 13.5455 8.98772 13.4891C9.64545 12.3627 10.1061 11.5737 10.6395 11.034C11.1409 10.5267 11.7008 10.25 12.6279 10.25C13.555 10.25 14.1141 10.5266 14.6143 11.0335C15.1468 11.5732 15.6063 12.3623 16.2628 13.4897C16.2955 13.5458 16.3286 13.6027 16.3622 13.6604L16.363 13.6618C16.9564 14.6752 17.8576 15.2349 18.6327 15.7164C18.6496 15.7269 18.6665 15.7374 18.6834 15.7479L18.6835 15.748C19.6431 16.3441 20.3609 16.8167 20.6736 17.7085Z" stroke="#D2D2D2" stroke-width="1.5"/>
<path d="M5.875 10.625C5.875 12.2611 4.87104 13.25 4 13.25C3.12896 13.25 2.125 12.2611 2.125 10.625C2.125 8.98892 3.12896 8 4 8C4.87104 8 5.875 8.98892 5.875 10.625Z" stroke="#D2D2D2" stroke-width="1.5"/>
<path d="M11.125 6.125C11.125 7.76108 10.121 8.75 9.25 8.75C8.37896 8.75 7.375 7.76108 7.375 6.125C7.375 4.48892 8.37896 3.5 9.25 3.5C10.121 3.5 11.125 4.48892 11.125 6.125Z" stroke="#D2D2D2" stroke-width="1.5"/>
<path d="M17.875 6.125C17.875 7.76108 16.871 8.75 16 8.75C15.129 8.75 14.125 7.76108 14.125 6.125C14.125 4.48892 15.129 3.5 16 3.5C16.871 3.5 17.875 4.48892 17.875 6.125Z" stroke="#D2D2D2" stroke-width="1.5"/>
<path d="M23.125 10.625C23.125 12.2611 22.121 13.25 21.25 13.25C20.379 13.25 19.375 12.2611 19.375 10.625C19.375 8.98892 20.379 8 21.25 8C22.121 8 23.125 8.98892 23.125 10.625Z" stroke="#D2D2D2" stroke-width="1.5"/>
</svg>
