<svg width="157" height="135" viewBox="0 0 157 135" fill="none" xmlns="http://www.w3.org/2000/svg">
<path d="M113.993 20.3478C110.756 20.579 110.987 24.5098 109.137 27.0532C106.362 30.7528 105.437 36.0709 105.437 36.0709C105.437 36.0709 95.2636 43.2388 93.1826 45.0886C91.1016 46.9384 86.0147 44.3949 85.0899 46.2447C84.165 48.0945 86.9396 48.3257 87.6333 48.7881C88.327 49.2506 86.246 52.7189 86.0148 55.4936C85.7835 58.2682 87.6333 60.118 90.8704 57.3434C93.1826 55.2624 95.7261 50.1755 95.7261 50.1755C95.7261 50.1755 104.05 46.4759 107.981 45.3198C111.912 44.1637 117.923 35.3772 119.311 33.5275C121.392 30.984 120.698 19.8853 113.993 20.3478Z" fill="#FFB8A3"/>
<path d="M129.485 61.9676C124.398 57.5744 111.218 54.5685 107.75 61.9676C107.75 62.1989 107.75 62.1989 107.75 62.4301C103.588 67.517 101.275 74.2224 103.588 80.003C104.975 83.2401 106.825 84.165 110.987 84.165C115.149 84.3962 119.311 80.2342 121.623 78.8469C122.779 78.1532 128.328 73.2975 132.49 70.0604C137.346 66.3609 143.589 61.274 144.052 59.6554C144.745 57.5744 143.127 54.1061 135.728 56.8808C134.109 57.8056 131.797 59.4242 129.485 61.9676Z" fill="#FFB8A3"/>
<path d="M142.202 70.2916C137.115 65.8984 123.935 62.8925 120.467 70.2916C120.467 70.5228 120.467 70.5228 120.467 70.7541C116.305 75.841 113.993 82.5464 116.305 88.327C117.692 91.5641 119.542 92.489 123.704 92.489C127.866 92.7202 132.028 88.5582 134.34 87.1709C135.496 86.4772 141.046 81.6215 145.208 78.3844C150.063 74.6849 156.306 69.598 156.769 67.9794C157.462 65.8984 155.844 62.4301 148.445 65.2047C146.595 66.1296 144.514 67.7482 142.202 70.2916Z" fill="#FFC8B5"/>
<path d="M98.732 68.6733C101.044 69.1357 102.894 70.7543 104.975 72.604C106.594 74.2226 107.981 76.3036 110.062 77.6909C114.918 81.1593 116.305 79.3095 120.929 78.6158C125.554 77.9222 130.178 79.5407 132.49 79.5407C143.589 79.5407 146.826 72.604 148.676 68.9045C147.289 63.1239 144.514 57.8058 139.89 52.7189C141.739 38.3831 137.115 32.8338 132.49 30.2903C126.941 27.2845 121.854 24.2786 115.38 24.2786C114.455 24.2786 111.218 26.1283 108.906 31.9089C107.056 36.7646 107.518 46.9384 112.143 53.6438C107.981 56.4185 101.275 63.3551 98.732 68.6733Z" fill="#C8C857"/>
<path d="M112.605 31.6777C112.605 31.6777 111.449 34.2211 112.605 37.4582C113.761 40.6954 115.38 42.5451 115.38 42.5451C115.38 42.5451 122.085 40.2329 127.172 35.3772C129.253 33.2962 130.178 29.3655 130.178 29.3655C130.178 29.3655 126.941 26.3596 121.161 25.4347C115.149 24.5098 112.605 31.6777 112.605 31.6777Z" fill="white"/>
<path d="M113.761 28.903C113.761 28.903 113.068 33.5274 113.761 34.9148C115.38 38.1519 116.305 38.3831 120.236 36.5333C124.166 34.6835 126.941 30.7528 126.941 30.7528L124.86 24.5098L113.761 28.903Z" fill="#FFB8A3"/>
<path d="M117.461 7.86176C115.38 7.63053 108.906 9.94276 106.362 14.336C104.513 17.5731 105.9 22.4288 106.594 24.741C107.75 29.1342 111.449 33.9899 116.305 34.2211C121.161 34.4523 125.323 30.984 127.172 27.0532C130.872 18.498 126.941 9.01787 117.461 7.86176Z" fill="#FFC8B5"/>
<path d="M113.53 58.7307C113.53 58.7307 110.524 60.3493 108.906 64.28C107.287 68.2108 108.906 70.9855 108.906 70.9855C108.906 70.9855 110.062 67.5172 112.143 64.28C114.224 61.0429 113.53 58.7307 113.53 58.7307Z" fill="#B1AE3F"/>
<path d="M120.236 61.5054C120.236 61.5054 116.305 64.28 113.53 69.1357C112.143 71.4479 111.912 73.9914 111.912 73.9914C111.912 73.9914 113.761 73.0665 116.074 69.5982C118.848 65.8986 120.236 61.5054 120.236 61.5054Z" fill="#B1AE3F"/>
<path d="M133.415 62.6614C133.415 62.6614 132.953 65.8985 136.421 68.4419C139.89 70.9854 143.358 70.9854 143.358 70.9854C143.358 70.9854 141.739 68.6732 138.502 66.3609C134.803 64.0487 133.415 62.6614 133.415 62.6614Z" fill="#B1AE3F"/>
<path d="M112.143 53.875C112.143 53.875 113.761 57.8058 124.86 58.2682C138.502 58.7307 140.121 52.9501 140.121 52.9501V51.1003C140.121 51.1003 134.803 55.4936 126.71 55.7248C118.848 55.956 111.449 52.7189 111.449 52.7189L112.143 53.875Z" fill="#B1AE3F"/>
<path d="M132.49 0.462565C132.49 0.462565 128.56 -0.924769 125.554 1.38745C122.779 3.69968 123.704 7.63046 123.704 7.63046L127.172 10.8676C127.172 10.8676 131.103 11.5612 132.49 8.78657C133.878 6.0119 132.49 0.462565 132.49 0.462565Z" fill="#3F2A28"/>
<path d="M120.236 7.63042C120.236 7.63042 124.166 5.08697 126.941 8.55531C129.716 11.7924 127.172 14.7983 127.172 14.7983C127.172 14.7983 120.929 12.0236 120.236 7.63042Z" fill="#C8C857"/>
<path d="M128.791 15.0295C127.866 12.9485 125.785 11.0987 123.704 10.6363C123.473 8.09285 121.161 5.31818 118.848 4.62452C116.767 3.93085 114.224 4.39329 112.374 5.31818C110.062 6.47429 103.588 13.411 100.582 13.1797C100.582 17.1105 105.669 20.1164 109.137 20.8101C111.449 21.2725 117.461 21.2725 119.773 19.654C120.236 20.8101 125.091 28.6716 126.941 28.2092C129.947 24.5096 130.409 18.4979 128.791 15.0295Z" fill="#3F2A28"/>
<path d="M120.929 24.5098C120.929 24.5098 123.242 19.8853 125.554 22.4288C127.866 24.741 123.704 28.4405 123.704 28.4405L120.929 24.5098Z" fill="#FFC8B5"/>
<path d="M134.34 31.6776C131.103 31.9088 130.872 37.6894 129.716 40.6953C128.791 43.0075 126.941 48.0944 126.941 48.0944C126.941 48.0944 115.38 54.5686 113.53 56.4184C111.449 58.2682 106.362 55.7247 105.437 57.5745C104.513 59.4243 107.287 59.6555 107.981 60.118C108.675 60.5804 106.594 64.0487 106.362 66.8234C106.131 69.5981 107.981 71.4479 111.218 68.6732C113.53 66.5922 116.074 61.5053 116.074 61.5053C116.074 61.5053 124.398 57.8057 128.328 56.6496C132.259 55.4935 138.271 46.7071 139.658 44.8573C141.739 42.3138 141.046 31.2152 134.34 31.6776Z" fill="#FFC8B5"/>
<path d="M18.9603 103.588C21.2725 104.975 20.81 103.588 19.4227 107.75C18.4978 110.756 16.648 114.455 16.1856 116.305C15.4919 119.542 18.729 122.086 23.5847 122.317C28.6716 122.779 33.9897 121.623 37.6893 119.542C44.3947 115.611 43.7011 113.299 42.3137 111.912C40.6952 110.062 38.1517 109.831 35.8395 110.756C29.1341 112.837 27.9779 111.912 27.9779 111.912C27.9779 111.912 28.9028 111.218 31.6775 107.287C34.4522 102.894 36.5332 97.576 32.1399 93.8764C24.0472 86.7085 9.24893 97.3447 18.9603 103.588Z" fill="#AC5F25"/>
<path d="M79.7718 73.7602C79.7718 73.7602 76.5347 62.8928 74.2224 63.124C71.9102 63.5864 72.6039 67.7484 71.2165 71.448C69.8292 75.1476 73.0663 81.6218 73.0663 81.6218L79.7718 73.7602Z" fill="#2C1D1B"/>
<path d="M104.744 79.7719C104.744 76.0724 102.663 74.685 99.6569 75.3787C97.1134 76.0724 95.2636 75.1475 93.6451 75.3787C86.4772 69.3669 81.6215 75.1475 75.1473 81.1593C68.6731 87.1711 58.0368 83.7027 50.8689 82.3154C42.0825 80.4656 34.9146 78.1534 30.7526 78.3846C26.3594 78.6158 19.8851 73.5289 15.7231 85.3213C14.3358 89.2521 13.4109 96.6512 16.4168 101.738C19.4227 107.056 23.8159 109.368 26.5906 110.987C31.215 113.53 34.4522 105.438 41.1576 108.906C48.3255 112.837 54.3373 115.149 61.5052 113.762C66.8233 112.837 70.5229 110.987 75.1473 104.975C80.6966 104.975 85.0899 102.432 86.4772 98.9634C91.5641 99.4258 96.651 93.6453 97.1134 90.4082C101.275 87.6335 104.744 83.9339 104.744 79.7719Z" fill="#D28037"/>
<path d="M23.8159 93.6453C23.8159 93.6453 19.1915 97.8073 18.0354 100.582C16.8793 103.357 21.5037 109.137 31.2151 115.38C33.5273 116.768 33.0648 115.38 31.6775 119.542C30.7526 122.317 28.9028 126.248 28.4404 128.097C27.7467 131.335 30.9838 133.878 35.8395 134.109C40.9264 134.572 46.2445 133.416 49.9441 131.335C56.6495 127.404 55.9559 125.092 54.5685 123.704C52.95 121.854 50.4065 121.623 48.0943 122.548C41.3888 124.629 40.2327 123.704 40.2327 123.704C40.2327 123.704 41.1576 123.011 43.9323 119.08C46.707 114.686 48.788 109.368 44.3947 105.669C36.0707 98.5009 23.8159 93.6453 23.8159 93.6453Z" fill="#D28037"/>
<path d="M72.8351 91.5642C76.3034 92.0267 77.922 95.2638 82.7776 99.8882C85.3211 102.2 89.0206 102.894 91.3329 101.276C94.1075 99.4258 97.3446 99.1946 98.9632 100.351C101.044 101.969 101.044 104.975 97.1134 107.75C90.1767 112.837 85.0899 115.611 78.3844 111.912C76.9971 111.218 70.0604 108.212 68.4418 107.056C60.5803 101.507 68.9043 91.1018 72.8351 91.5642Z" fill="#D28037"/>
<path d="M15.4919 87.171C15.4919 87.171 16.8793 89.7145 20.5788 93.6453C22.8911 95.9575 27.5155 94.8014 30.9838 95.0326C39.0766 95.495 43.0074 99.6571 50.1753 103.357C57.5744 107.056 61.274 104.281 65.6672 101.738C70.0604 99.1946 72.3727 89.7145 76.0722 91.333C83.0089 94.5702 91.7953 92.7204 90.1768 87.4023C88.5582 82.0841 96.8822 69.3669 85.5523 70.9855C84.165 71.2167 81.3903 71.2167 78.3844 72.604C74.4537 74.4538 73.9912 80.2344 67.7482 81.3905C63.5862 82.3154 52.2563 80.2344 44.8572 76.0724C40.0015 73.2977 29.8277 72.1416 23.3535 74.685C18.4978 77.2285 17.1105 83.2403 15.4919 87.171Z" fill="#513231"/>
<path d="M80.6967 76.3035C80.6967 76.3035 83.2401 78.8469 85.0899 81.1591C86.4772 83.2401 88.5582 87.1709 88.5582 87.1709C88.5582 87.1709 92.2578 84.6275 92.0265 78.3845C91.7953 72.1415 93.6451 67.517 90.6392 66.5921C88.5582 65.8985 87.4021 69.598 85.5523 70.9854C82.084 74.2225 80.6967 76.3035 80.6967 76.3035Z" fill="#2C1D1B"/>
<path d="M93.6451 75.3787C93.6451 75.3787 96.4197 76.9972 97.8071 79.7719C98.9632 82.3154 98.5008 85.3212 98.0383 86.9398C97.1134 89.7145 95.2636 90.8706 93.4139 92.4891C92.7202 93.1828 92.2578 97.3448 92.2578 97.3448C92.2578 97.3448 96.1885 95.2638 97.8071 92.4891C98.732 90.8706 103.125 86.9398 104.744 82.5466C106.362 78.1534 104.975 75.1475 102.2 75.1475C99.1944 75.1475 93.6451 75.3787 93.6451 75.3787Z" fill="#513231"/>
<path d="M100.351 75.1474C100.351 75.1474 101.738 77.2284 102.894 78.3845C104.05 79.5406 105.669 80.2343 105.669 80.2343C105.669 80.2343 106.594 77.6908 104.975 75.841C102.894 74.2225 100.351 75.1474 100.351 75.1474Z" fill="#2C1D1B"/>
<path d="M23.3535 76.0724C23.3535 76.0724 25.8969 77.9221 23.1223 80.6968C21.2725 82.5466 14.3358 82.0842 10.6363 80.6968C6.9367 79.0783 3.01339e-05 76.0724 0.693697 70.2918C2.08103 70.2918 4.62448 69.8294 4.62448 69.8294C4.62448 69.8294 -1.61853 62.6615 0.462475 58.037C1.61859 59.8868 5.54937 59.8868 5.54937 59.8868C5.54937 59.8868 1.61859 52.7189 4.39326 46.4759C5.31814 48.0945 9.24893 51.1004 9.24893 51.1004C9.24893 51.1004 10.1738 44.3949 13.4109 41.389C17.3417 37.6895 23.1223 37.6895 23.1223 37.6895C23.1223 37.6895 16.8793 48.7881 16.1856 54.7999C15.4919 64.0488 18.729 72.3728 23.3535 76.0724Z" fill="#2C1D1B"/>
</svg>
