<svg width="65" height="98" viewBox="0 0 65 98" fill="none" xmlns="http://www.w3.org/2000/svg">
<g clip-path="url(#clip0_211_4897)">
<path fill-rule="evenodd" clip-rule="evenodd" d="M14.8279 66.6445C14.8009 67.0489 14.8818 67.4533 15.421 67.6151C16.3646 67.8847 18.6023 68.0464 18.7371 67.4533C18.764 67.3185 18.7371 67.0489 18.7371 66.7254C18.3057 66.8333 17.7935 66.9411 17.1195 66.968C16.122 67.022 15.394 66.8332 14.8279 66.6445Z" fill="#C2DAE8"/>
<path fill-rule="evenodd" clip-rule="evenodd" d="M22.2148 66.6715C22.1879 67.0759 22.2688 67.4803 22.808 67.6421C23.7516 67.9117 25.9892 68.0734 26.124 67.4803C26.151 67.3455 26.124 67.0759 26.124 66.7524C25.6927 66.8602 25.1804 66.9681 24.5064 66.995C23.5089 67.0759 22.754 66.8602 22.2148 66.6715Z" fill="#C2DAE8"/>
<path fill-rule="evenodd" clip-rule="evenodd" d="M15.6636 63.3015C15.6636 63.3015 15.2323 65.2157 15.0436 65.7818C14.9627 66.0244 14.8548 66.321 14.8279 66.6176C15.3671 66.8063 16.1219 67.022 17.1195 66.9411C17.7935 66.8872 18.3327 66.8063 18.737 66.6984C18.6292 65.5122 18.2518 63.4363 18.2518 63.4363L15.6636 63.3015Z" fill="#00ACC1"/>
<path fill-rule="evenodd" clip-rule="evenodd" d="M23.0506 63.3555C23.0506 63.3555 22.6192 65.2696 22.4305 65.8358C22.3496 66.0784 22.2418 66.375 22.2148 66.6715C22.754 66.8602 23.5089 67.0759 24.5064 66.995C25.1804 66.9411 25.7196 66.8602 26.124 66.7524C26.0162 65.5662 25.6387 63.4903 25.6387 63.4903L23.0506 63.3555Z" fill="#00ACC1"/>
<path fill-rule="evenodd" clip-rule="evenodd" d="M32.0822 21.2983C32.0822 21.2983 33.8076 22.7002 34.1311 23.0506C34.4277 23.4281 35.3443 24.7491 37.2315 25.3961C39.1187 26.0432 43.5131 27.5529 43.5131 27.5529L44.5645 26.0162C44.5645 26.0162 41.6259 24.3447 40.5475 23.5898C39.4422 22.835 36.0992 21.1095 36.0992 21.1095L34.4816 19.1415L32.0822 21.2983Z" fill="#F9B7A2"/>
<path fill-rule="evenodd" clip-rule="evenodd" d="M32.0822 21.2982C32.0822 21.2982 32.9179 21.9722 33.538 22.5114C34.0502 21.9722 34.9399 21.0825 35.533 20.4624L34.4816 19.1953L32.0822 21.2982Z" fill="#F2AD97"/>
<path fill-rule="evenodd" clip-rule="evenodd" d="M15.7445 11.9701C13.9922 13.7764 11.6197 17.7395 10.2448 20.5703L14.5044 22.5922C14.5044 22.5922 16.1489 20.5703 16.4185 18.6831C16.7421 16.4454 16.7151 14.019 15.7445 11.9701Z" fill="#D4E6F1"/>
<path fill-rule="evenodd" clip-rule="evenodd" d="M14.9627 32.9449C14.9627 32.9449 15.0436 36.9079 15.0975 38.8221C15.1514 40.7362 14.747 44.6993 14.8548 46.4787C14.9357 48.258 14.5583 52.248 14.6931 53.7848C14.8279 55.3215 14.5313 58.0714 14.4774 59.0149C14.4235 59.9585 13.8304 62.2501 14.6392 63.1398C15.448 64.0295 18.7101 64.5417 19.1954 63.7868C19.6537 63.032 19.6537 60.4708 19.8424 59.1228C20.0042 57.7748 20.1389 53.3534 20.3546 51.7628C20.5703 50.1991 20.2737 46.4517 20.4894 44.8072C20.7051 43.1356 20.8399 38.6064 20.8399 38.6064C20.8399 38.6064 21.6487 47.7458 21.7296 49.3094C21.8105 50.8731 22.107 55.2136 22.1609 56.319C22.2149 57.4243 22.2149 60.7404 22.1609 61.4683C22.107 62.1962 21.8105 63.679 23.3472 64.0564C24.8839 64.4339 26.2858 64.1912 26.6632 63.3824C27.0407 62.5736 27.0137 56.8042 27.0137 55.5102C27.0137 54.2431 27.2294 47.4762 27.3102 46.4247C27.3911 45.3733 28.119 34.6972 27.9034 33.6458C27.6877 32.5944 22.3227 31.1385 22.3227 31.1385L14.9627 32.9449Z" fill="#7C92AC"/>
<path fill-rule="evenodd" clip-rule="evenodd" d="M14.9626 32.9449L15.0166 35.0477C19.1684 34.6433 23.6167 35.1286 27.8494 35.6948C27.8764 34.6164 27.8764 33.8345 27.8225 33.5919C27.6607 32.8101 24.776 31.8395 23.2123 31.3542L21.8374 31.1655L14.9626 32.9449Z" fill="#647B97"/>
<path fill-rule="evenodd" clip-rule="evenodd" d="M20.6512 6.82078C20.7051 8.33053 20.6242 9.32804 20.4355 10.7839C20.3816 11.2422 19.6806 11.3231 19.3841 11.8083C18.9258 12.5902 21.433 13.8842 22.5384 13.9921C23.6437 14.1269 24.8299 13.6146 24.8299 13.6146C24.8299 13.6146 25.45 12.7789 25.5039 11.7544C25.5039 11.5657 24.9647 11.1074 24.9917 10.9187C25.0187 10.1099 25.0187 9.54372 24.9917 9.0854C24.9378 7.89917 24.8299 6.41638 24.8299 6.41638L20.6512 6.82078Z" fill="#F9B7A2"/>
<path fill-rule="evenodd" clip-rule="evenodd" d="M20.6512 8.62718C20.6242 8.9507 20.6242 9.27421 20.5703 9.59773C21.0556 10.2448 21.8913 11.0805 23.1045 10.9727C23.9403 10.8918 24.5604 10.5952 24.9917 10.2448C24.9917 9.78645 24.9917 9.40901 24.9648 9.11245C24.9378 8.43846 24.8839 7.65663 24.8569 7.11743C23.6976 7.52183 21.6217 8.2767 20.6512 8.62718Z" fill="#F2AD97"/>
<path fill-rule="evenodd" clip-rule="evenodd" d="M29.2784 12.4015C31.7047 14.5583 33.511 16.7959 35.6409 19.1954C35.6409 19.1954 34.185 20.2468 33.565 21.0286C32.9449 21.8104 32.5674 22.5923 32.5674 22.5923C32.5674 22.5923 29.3053 19.6267 28.5774 18.8449C26.9059 17.0655 28.2269 14.0191 29.2784 12.4015Z" fill="#D4E6F1"/>
<path fill-rule="evenodd" clip-rule="evenodd" d="M20.2737 10.9457C20.2737 10.9457 17.1734 11.5388 16.3376 11.6736C15.5288 11.8084 15.1514 12.6981 15.1514 13.2642C15.1514 13.8304 15.6366 18.117 15.6097 19.1954C15.5827 20.2738 15.2592 24.2368 15.0166 25.6927C14.7739 27.1215 14.2347 33.8345 14.2347 33.8345C14.2347 33.8345 18.1978 33.484 20.5164 33.7267C22.8079 33.9424 28.82 34.6433 28.82 34.6433C28.82 34.6433 28.6313 29.9793 28.7391 27.8495C28.8469 25.7196 29.0626 20.3816 29.0896 19.2493C29.1435 18.09 29.3053 12.4285 29.3053 12.4285C29.3053 12.4285 27.2563 11.8084 26.6362 11.6197C26.0162 11.431 25.3152 11.1883 25.3152 11.1883C25.3152 11.1883 24.4255 12.1858 22.8349 12.2397C21.2443 12.2937 20.2737 10.9457 20.2737 10.9457Z" fill="#D4E6F1"/>
<path fill-rule="evenodd" clip-rule="evenodd" d="M14.747 27.9034C14.5043 30.3837 14.2078 33.8346 14.2078 33.8346C14.2078 33.8346 18.1708 33.4841 20.4894 33.7267C22.781 33.9424 28.793 34.6433 28.793 34.6433C28.793 34.6433 28.6043 29.9793 28.7121 27.8495C28.766 26.7981 28.8469 24.9378 28.9008 23.2124C27.6607 24.9109 25.8813 26.9329 24.2907 27.499C22.2687 28.173 17.4699 28.0382 14.747 27.9034Z" fill="#C2DAE8"/>
<path fill-rule="evenodd" clip-rule="evenodd" d="M11.0266 20.9478L10.4335 22.6732C10.4335 22.6732 8.51932 24.3986 8.03405 25.8544C7.54877 27.3103 5.60767 31.4621 5.60767 31.4621L7.41397 32.2439C7.41397 32.2439 9.22028 29.8714 10.083 28.82C10.9457 27.7686 11.6197 26.798 12.1589 25.8544C12.6981 24.9108 13.2373 23.7785 13.2373 23.7785L13.9382 22.2957L11.0266 20.9478Z" fill="#F9B7A2"/>
<path fill-rule="evenodd" clip-rule="evenodd" d="M11.0266 20.9478L10.7839 21.6487C11.5658 22.0531 12.752 22.6462 13.6147 23.0237L13.9382 22.3227L11.0266 20.9478Z" fill="#F2AD97"/>
<path fill-rule="evenodd" clip-rule="evenodd" d="M0.296563 40.8171C0.754879 38.6873 1.61759 36.854 2.69598 35.5869C3.85525 34.2389 5.2302 33.538 6.60515 33.7806C6.65907 33.7806 6.68603 33.8076 6.73995 33.8076C8.08794 34.1311 9.08545 35.3173 9.59768 37.0158C10.056 38.5794 10.1369 40.6014 9.70552 42.7043C9.70552 42.7312 9.70552 42.7852 9.67856 42.8121C9.22025 44.915 8.35753 46.7213 7.27914 47.9614C6.11987 49.3094 4.74492 50.0104 3.36998 49.7677C3.31606 49.7677 3.2891 49.7408 3.23518 49.7408C1.88719 49.4173 0.889678 48.231 0.377442 46.5326C-0.080874 44.9689 -0.134794 42.9469 0.296563 40.8171ZM3.82829 36.5575C2.91166 37.6358 2.15679 39.2265 1.75239 41.1137C1.34799 43.0008 1.40191 44.7532 1.83327 46.1282C2.18375 47.3144 2.83078 48.1502 3.61261 48.3119C4.42141 48.4737 5.31108 47.9614 6.14683 47.0178C7.06346 45.9664 7.81834 44.3758 8.19578 42.5156V42.4886C8.60017 40.6014 8.54625 38.8221 8.14186 37.4741C7.79138 36.2879 7.14434 35.4521 6.36251 35.2903C5.55372 35.1016 4.63709 35.6139 3.82829 36.5575Z" fill="#EA6448"/>
<path fill-rule="evenodd" clip-rule="evenodd" d="M43.1356 26.9329L43.6209 27.499C43.6209 27.499 44.1331 28.3348 44.4836 28.7392C44.8341 29.1436 45.1037 29.3592 45.562 29.6288C46.0203 29.8715 46.4517 30.3298 46.4786 29.8984C46.5056 29.4671 46.2899 29.3053 45.9934 29.0627C45.7238 28.8201 45.4272 28.5774 45.3733 28.3078C45.3194 28.0382 45.6968 27.7417 46.0203 27.9304C46.3438 28.1191 46.7482 28.4965 46.9909 28.8201C47.2335 29.1436 47.3144 29.8984 47.7997 29.8176C48.2849 29.7367 48.231 29.6019 48.0962 29.0357C47.9614 28.4696 47.8536 27.7147 47.3683 27.2294C46.883 26.7441 44.5914 26.0162 44.5914 26.0162L43.1356 26.9329Z" fill="#F9B7A2"/>
<path fill-rule="evenodd" clip-rule="evenodd" d="M49.1476 65.2966C49.1476 65.2966 48.6084 71.2277 48.9589 73.5193C49.3094 75.7839 49.3903 78.3451 49.552 80.3401C49.7407 82.3082 49.7947 86.5139 49.6329 87.2418C49.4711 87.9697 49.1207 89.156 48.7702 89.2099C48.4197 89.2638 48.4197 90.8544 50.0912 90.1265C51.7627 89.3986 51.6549 87.7541 51.6818 85.9478C51.7088 84.1145 51.6818 74.2742 52.1671 72.7644C52.6524 71.2816 52.0862 67.2916 51.3583 66.2941C50.6304 65.2696 49.1476 65.2966 49.1476 65.2966Z" fill="#D19A36"/>
<path fill-rule="evenodd" clip-rule="evenodd" d="M52.8682 81.2297C52.8682 81.2297 53.1917 84.4649 53.7848 86.0286C54.3779 87.5922 55.7259 88.8863 55.4024 90.2343C55.3215 90.6117 54.7823 93.4964 54.5936 93.7121C54.5127 93.793 54.0814 93.5234 53.5961 93.793C53.0299 94.1165 52.4638 95.0062 53.9735 95.3836C55.4024 95.7341 56.2921 95.5723 57.0739 93.6582C57.8557 91.744 57.3704 87.9697 57.3974 86.8913C57.4244 85.8129 57.1817 83.4135 57.2087 82.7395C57.2356 82.0655 56.3999 80.8253 55.8068 80.7984C55.2137 80.7714 52.8682 81.2297 52.8682 81.2297Z" fill="#D19A36"/>
<path fill-rule="evenodd" clip-rule="evenodd" d="M64.5686 82.2543C64.5686 82.2543 63.2206 86.5679 63.0319 87.5384C62.8432 88.482 62.924 91.5824 63.0049 93.0652C63.0588 93.9818 63.1397 95.195 63.1397 96.0847C63.1397 96.6778 63.1936 97.0552 62.924 97.3248C62.3579 97.9179 61.1717 97.9179 60.6325 97.3518C59.9854 96.6239 60.5246 95.842 60.5785 94.7097C60.6325 93.5774 60.282 89.83 60.282 89.6413C60.282 89.4256 59.5541 83.1709 60.3359 82.6317C61.1177 82.0386 64.5686 82.2543 64.5686 82.2543Z" fill="#D19A36"/>
<path fill-rule="evenodd" clip-rule="evenodd" d="M5.60758 31.489C5.60758 31.489 4.77183 32.4056 4.20567 33.0257C3.63951 33.6458 3.12728 33.9963 2.96552 34.7511C2.80376 35.506 2.69592 35.6139 2.69592 35.6139C3.42384 34.8859 4.23263 34.4276 5.23014 34.1311C5.23014 34.1311 5.74238 34.3737 5.58062 35.0207C5.44582 35.6678 4.90662 36.9618 5.60758 36.3957C6.30853 35.8565 6.41637 35.3982 6.55117 34.859C6.71293 34.3198 6.60509 33.8884 6.79381 33.4301C6.98253 32.9718 7.30604 32.163 7.30604 32.163L5.60758 31.489Z" fill="#F9B7A2"/>
<path fill-rule="evenodd" clip-rule="evenodd" d="M47.5301 55.9955C47.5301 55.9955 47.0988 54.5936 47.0988 53.2456C47.0988 51.8976 47.1527 49.6599 47.8806 49.9026C48.6085 50.1452 49.8756 52.4907 50.1722 52.976C50.4687 53.4613 50.8462 54.0544 51.601 54.0274C52.3559 54.0005 53.0838 53.8117 53.2186 53.4613C53.3265 53.1108 54.4049 51.1697 54.6745 50.6574C54.944 50.1452 55.7798 49.3095 56.0494 49.9834C56.319 50.6305 56.3999 54.1353 56.3999 54.6745C56.3999 55.2136 56.292 57.1278 56.292 57.64C56.292 58.1523 56.5616 58.5567 56.8312 59.1767C57.1008 59.7698 59.0419 62.8163 59.8777 63.8947C60.7134 64.9731 63.2207 67.723 64.0564 69.8798C64.8922 72.0365 65.2427 76.4579 64.7844 80.6906C64.2991 84.9233 64.0564 83.3866 61.8457 84.2224C59.635 85.0581 55.0249 84.7616 53.4882 82.4969C51.9246 80.2323 52.4098 77.0511 51.8167 74.6786C51.2236 72.2792 50.6844 72.5218 50.6844 71.3356C50.6844 70.1494 50.0913 68.0465 49.4982 66.5637C48.9051 65.0809 49.1477 64.5956 49.1477 63.2207C49.1477 61.8457 49.1207 60.8213 48.6355 59.662C48.1502 58.5027 48.258 57.3704 48.0423 57.0469C47.8267 56.6425 47.5301 55.9955 47.5301 55.9955Z" fill="#CE952F"/>
<path fill-rule="evenodd" clip-rule="evenodd" d="M56.319 57.8287C56.3729 58.2331 56.6156 58.6105 56.8312 59.1228C57.1008 59.7159 59.0419 62.7623 59.8777 63.8407C60.336 64.4339 61.2796 65.4853 62.1693 66.6985C61.2796 68.2082 58.9341 68.9361 58.3679 68.8283C57.7209 68.7205 53.7578 69.7719 52.1672 68.2352C50.5496 66.6715 50.0643 64.6226 50.1452 64.1373C50.1991 63.652 49.6869 61.657 49.6869 60.7404C49.6869 59.7159 50.7653 58.4488 51.5471 57.5861C52.5716 56.4807 53.5152 56.0224 55.3484 57.4782C55.5911 57.6669 55.9146 57.7478 56.319 57.8287Z" fill="#231F20"/>
<path fill-rule="evenodd" clip-rule="evenodd" d="M56.8042 75.4334C56.8851 77.2667 56.9929 79.6661 56.9659 80.9871C56.912 83.3865 55.8336 86.8913 56.3189 89.5873C56.8042 92.2833 57.4512 95.3836 57.4512 95.3836C57.4512 95.3836 62.1692 91.798 62.2231 88.7515C62.277 85.7051 61.8726 83.2517 61.7378 81.2298C61.63 79.2078 62.0883 74.8942 61.4952 73.2766C60.9021 71.659 60.2281 70.9581 59.4732 70.7694C56.5885 70.1223 56.6963 73.5732 56.8042 75.4334Z" fill="#C38E2C"/>
<path d="M20.8263 5.69902C20.7688 5.18107 20.3743 4.79979 19.9451 4.84742C19.516 4.89504 19.2147 5.35354 19.2721 5.87149C19.3296 6.38944 19.7241 6.77072 20.1533 6.72309C20.5824 6.67546 20.8838 6.21697 20.8263 5.69902Z" fill="#F2AD97"/>
<path d="M26.6247 5.96637C26.718 5.45368 26.4493 4.97537 26.0245 4.89804C25.5997 4.8207 25.1797 5.17363 25.0864 5.68632C24.993 6.19901 25.2617 6.67732 25.6865 6.75465C26.1113 6.83198 26.5314 6.47906 26.6247 5.96637Z" fill="#F2AD97"/>
<path fill-rule="evenodd" clip-rule="evenodd" d="M20.9748 1.83328C20.9748 1.83328 20.3547 2.34552 20.139 3.07343C19.9233 3.80135 19.8155 4.58318 19.8425 5.12238C19.8694 5.66157 19.9233 6.68604 20.112 7.41396C20.3008 8.14187 20.8939 9.24722 21.7027 9.92121C22.5115 10.5952 23.1046 10.3256 23.6977 10.1369C24.2908 9.94817 24.6413 9.43594 25.1805 8.33059C25.6927 7.22524 25.9084 6.38948 26.0162 5.58069C26.1241 4.7719 26.151 4.42142 25.8814 3.55871C25.6388 2.696 25.2614 1.94112 24.803 1.67152C24.3447 1.40193 22.9698 0.889691 22.5654 1.13233C22.2149 1.40193 20.9748 1.83328 20.9748 1.83328Z" fill="#F9B7A2"/>
<path fill-rule="evenodd" clip-rule="evenodd" d="M19.4919 2.31854C19.2762 3.12733 19.5728 4.87972 19.7884 5.68851C19.7884 5.68851 20.4355 4.87972 21.2982 4.34052C21.5139 4.20573 24.9377 3.07341 25.1265 3.28909C25.6117 3.90917 26.1779 5.41891 26.1779 5.41891C26.1779 5.41891 26.5014 4.12485 26.4475 3.39693C26.3936 2.69598 25.8005 1.07839 25.2613 0.620076C24.7221 0.16176 23.8054 -0.0808778 22.5922 1.50502e-06C21.3791 0.0808808 20.9747 0.350478 20.3815 0.889674C19.7615 1.48279 19.7076 1.61759 19.4919 2.31854Z" fill="#7F351A"/>
</g>
<defs>
<clipPath id="clip0_211_4897">
<rect width="65" height="97.7561" fill="white"/>
</clipPath>
</defs>
</svg>
