<svg width="340" height="329" viewBox="0 0 340 329" fill="none" xmlns="http://www.w3.org/2000/svg">
<path d="M31.1238 162.537V166.106L31.0964 166.132V162.563L31.1238 162.537Z" fill="#5A61FF"/>
<path d="M31.1238 162.537L31.0964 166.132V162.563L31.1238 162.537Z" fill="#5A61FF"/>
<g filter="url(#filter0_d_440_142)">
<rect x="8" y="8" width="324" height="312.789" rx="8" fill="#AC5AE2"/>
</g>
<path d="M8 300.109H332V312.789C332 317.207 328.418 320.789 324 320.789H16C11.5817 320.789 8 317.207 8 312.789V300.109Z" fill="#3A2F7B"/>
<path d="M8 300H159.5V321H16C11.5817 321 8 317.418 8 313V300Z" fill="white"/>
<path d="M234.875 168.68C234.875 168.68 238.863 165.176 240.459 163.902C242.055 162.628 245.405 162.787 246.203 165.335C247.001 167.884 247.001 169.636 247.799 174.254C248.277 176.962 249.873 179.032 247.799 181.899C245.724 184.766 242.693 185.403 239.821 185.244C237.427 185.085 237.268 181.899 239.502 177.44C240.299 175.847 238.704 173.936 237.906 173.299C236.311 172.343 234.875 168.68 234.875 168.68Z" fill="#8CA2FF"/>
<path d="M191.315 171.547C191.315 171.547 191.315 174.414 189.241 177.281C187.007 180.307 182.38 182.696 181.423 184.448C180.785 185.722 181.104 186.996 181.104 188.907C181.104 192.252 185.731 191.774 189.241 189.066C191.954 186.996 196.262 184.288 197.219 183.811C198.017 183.492 201.527 182.696 201.048 179.351C200.57 176.006 198.655 171.547 198.655 171.547H191.315Z" fill="#8CA2FF"/>
<path d="M216.206 106.247C216.206 106.247 210.303 102.743 207.431 106.247C204.559 109.751 201.687 116.44 198.974 119.785C196.262 123.288 195.783 124.881 194.985 129.659C194.347 133.641 194.347 142.241 194.347 142.241L200.57 141.286C200.57 141.286 202.644 135.393 202.644 133.482C202.804 129.659 202.644 128.226 202.644 128.226C202.644 128.226 210.143 123.607 211.101 121.059C212.058 118.829 216.206 106.247 216.206 106.247Z" fill="#FFB8A3"/>
<path d="M223.865 136.03C218.759 133.959 218.44 137.145 213.973 140.489C205.995 140.649 192.592 138.1 186.21 142.082C184.454 143.197 183.497 145.268 183.976 148.771C184.135 149.568 184.135 154.983 186.369 161.035C187.805 165.017 189.56 169.476 190.677 175.21C193.071 178.555 199.612 175.529 199.453 173.936C199.293 170.432 200.091 165.813 199.134 161.035C198.815 158.965 198.974 157.531 198.176 155.62C203.601 159.442 207.59 161.035 213.973 161.035C227.375 161.035 228.652 153.39 229.13 150.364C229.928 145.108 229.29 138.26 223.865 136.03Z" fill="#2C1D1B"/>
<path d="M237.427 166.45C232.641 168.521 229.45 171.069 227.056 172.502C228.492 170.591 237.427 162.946 238.544 157.213C240.14 149.409 235.991 142.401 232.8 137.145C231.364 138.738 217.164 138.101 216.685 139.056C214.451 142.879 213.015 150.683 215.887 155.62C214.611 157.531 209.345 172.343 209.186 177.758C209.186 180.147 211.579 185.403 214.611 185.881C225.62 187.314 230.247 180.625 239.661 176.006C241.576 175.21 240.299 167.565 237.427 166.45Z" fill="#3F2A28"/>
<path d="M217.483 86.179C217.483 86.179 217.961 81.2416 223.227 84.2677C228.492 87.2938 227.375 91.4348 224.184 91.5941C220.833 91.9126 217.483 86.179 217.483 86.179Z" fill="#8CA2FF"/>
<path d="M233.598 116.44C232.641 110.706 227.375 108.317 224.822 107.043C214.292 101.946 213.334 103.061 213.653 103.38C213.015 104.017 212.058 105.61 209.345 110.706C207.909 113.255 204.878 117.714 204.878 119.147C205.037 121.218 206.154 123.448 207.271 125.04C208.548 126.792 210.941 134.915 211.101 140.012C211.739 143.038 213.653 148.771 219.238 149.408C229.45 150.523 235.034 144.312 235.672 142.082C234.077 137.782 231.843 133.163 232.322 128.544C232.96 123.926 234.236 119.944 233.598 116.44Z" fill="#8CA2FF"/>
<path d="M216.685 85.064C216.685 85.064 221.153 76.7821 228.014 81.4009C234.077 85.3826 232.002 91.594 230.247 95.5758C228.492 99.5575 229.45 100.991 231.524 100.672C233.598 100.354 234.715 98.6019 234.715 98.6019C234.715 98.6019 234.396 104.654 228.333 104.495C222.269 104.336 221.472 97.3277 221.472 97.3277L216.685 85.064Z" fill="#2C1D1B"/>
<path d="M222.27 100.672C219.238 101.309 215.887 102.265 213.175 101.947C213.653 104.176 214.451 104.813 213.175 108.954C212.217 111.821 209.984 114.847 212.537 116.121C213.653 116.758 218.281 115.644 221.472 113.255C224.184 111.184 225.78 107.999 224.344 106.247C223.227 104.973 222.908 102.584 222.27 100.672Z" fill="#FFB8A3"/>
<path d="M209.505 91.4349C213.494 90.4793 215.568 90.32 219.078 91.7534C220.993 92.2312 222.908 93.1868 224.663 94.3017C224.822 94.461 224.982 94.6203 224.822 94.7795C223.865 100.035 222.11 105.61 216.206 107.84C211.42 109.751 208.707 104.495 207.75 100.832C207.112 96.85 206.792 92.072 209.505 91.4349Z" fill="#FFC8B5"/>
<path d="M222.269 86.179C218.44 83.1529 213.653 83.4715 211.101 85.5419C208.388 87.7717 206.154 91.1163 207.431 94.6202C208.707 94.9388 210.622 93.6646 211.42 93.0276C213.015 94.7795 215.887 96.85 219.238 96.3722C219.876 98.602 221.153 103.539 223.067 103.38C227.056 95.2573 228.333 91.1163 222.269 86.179Z" fill="#3F2A28"/>
<path d="M218.44 98.9205C218.44 98.9205 219.397 95.7351 221.472 97.3278C223.546 98.9205 220.674 102.265 220.674 102.265L218.44 98.9205Z" fill="#FFC8B5"/>
<path d="M213.175 127.111C213.175 127.111 215.728 130.137 219.397 130.137C223.067 130.137 225.62 128.544 225.62 128.544C225.62 128.544 224.503 132.367 219.397 132.367C214.611 132.367 213.175 127.111 213.175 127.111Z" fill="#778CFC"/>
<path d="M239.661 130.296C239.502 126.474 239.023 122.174 237.747 118.67C236.789 115.803 233.438 112.14 230.886 111.184C227.854 110.069 225.78 114.369 225.62 117.555C225.301 121.696 226.099 124.881 230.886 127.748C231.205 131.411 231.205 134.437 231.843 136.667C225.62 138.419 216.206 141.445 213.653 142.401C212.696 144.153 211.42 144.79 209.345 145.586C206.633 146.701 203.442 147.019 204.24 149.727C204.718 151.479 207.59 153.39 211.101 151.957C215.089 150.364 216.206 148.294 217.483 147.179C219.876 147.179 230.886 146.701 232.641 145.905C236.789 143.993 238.066 142.719 238.544 141.445C238.863 140.33 239.821 134.278 239.661 130.296Z" fill="#FFC8B5"/>
<path d="M217.483 141.604L212.537 139.693L213.973 143.356L217.483 141.604Z" fill="#FFC8B5"/>
<path d="M214.132 147.497C214.132 147.338 213.973 147.179 213.973 147.179L211.101 139.693H192.432L189.56 147.179C189.401 147.657 189.241 148.134 189.241 148.772C189.241 152.435 194.826 155.461 201.846 155.461C208.707 155.461 214.292 152.435 214.292 148.772C214.292 148.294 214.132 147.816 214.132 147.497Z" fill="#EE4335"/>
<path d="M201.687 145.745C206.974 145.745 211.26 143.463 211.26 140.649C211.26 137.834 206.974 135.552 201.687 135.552C196.399 135.552 192.113 137.834 192.113 140.649C192.113 143.463 196.399 145.745 201.687 145.745Z" fill="#FF5E4C"/>
<path d="M201.687 136.189C196.9 136.189 193.23 138.1 193.23 140.649C193.23 140.967 193.23 141.286 193.39 141.445C194.187 143.516 197.538 144.949 201.687 144.949C206.473 144.949 210.143 143.038 210.143 140.489C210.303 138.1 206.473 136.189 201.687 136.189Z" fill="#EE4335"/>
<path d="M209.984 141.923C209.824 141.286 209.345 141.286 209.026 141.127C209.026 140.649 208.867 140.171 208.707 139.693C208.228 139.056 207.59 138.738 206.792 138.578C206.633 138.1 206.314 137.623 205.676 137.463C205.197 137.304 204.718 137.463 204.399 137.782C204.08 137.304 203.761 136.826 203.123 136.508C202.006 136.03 200.889 136.508 200.251 137.304C199.772 136.986 199.293 136.986 198.655 137.304C198.336 137.463 198.176 137.623 198.017 137.941C197.379 137.623 196.74 137.623 196.262 137.941C195.464 138.419 195.304 139.215 195.464 140.012C194.666 140.171 193.709 140.649 193.39 141.445C193.709 142.879 196.421 144.79 200.889 144.949C204.08 145.108 208.228 144.312 209.984 141.923Z" fill="#F8AA43"/>
<path d="M196.74 138.419C196.262 138.737 195.943 139.375 196.262 139.852C196.421 140.012 196.581 140.012 196.74 139.852C197.059 139.534 197.06 139.215 197.219 138.897C197.379 138.578 196.9 138.419 196.74 138.419Z" fill="#FFBB6C"/>
<path d="M198.017 141.445C197.857 141.126 197.379 140.808 196.9 140.649H196.74C196.262 141.286 197.059 142.082 197.698 141.923C198.017 141.923 198.176 141.764 198.017 141.445Z" fill="#FFBB6C"/>
<path d="M199.932 139.534C199.453 139.375 198.655 139.534 198.336 140.012V140.171C198.496 140.649 199.293 140.649 199.612 140.49C199.772 140.49 199.932 140.33 199.932 140.171V140.012C200.251 139.853 200.091 139.534 199.932 139.534Z" fill="#FFBB6C"/>
<path d="M202.644 137.304C202.006 136.826 201.208 137.304 201.048 138.1C201.048 138.26 201.208 138.419 201.368 138.419C201.846 138.26 202.325 138.1 202.644 137.782C202.644 137.623 202.804 137.463 202.644 137.304Z" fill="#FFBB6C"/>
<path d="M199.134 137.941C198.655 137.941 198.176 138.26 198.176 138.738C198.176 138.897 198.495 139.215 198.655 139.056C198.974 138.897 199.134 138.738 199.453 138.419C199.612 138.26 199.453 137.782 199.134 137.941Z" fill="#FFBB6C"/>
<path d="M195.623 141.445H195.464C194.985 141.764 195.145 142.56 195.623 142.878C195.943 143.038 196.262 142.719 196.262 142.401C196.102 141.923 195.783 141.604 195.623 141.445Z" fill="#FFBB6C"/>
<path d="M201.048 143.197C200.57 143.038 200.091 142.879 199.612 142.879C199.612 142.879 199.453 142.879 199.453 143.038C199.453 143.834 200.729 144.153 201.208 143.516C201.368 143.356 201.208 143.197 201.048 143.197Z" fill="#FFBB6C"/>
<path d="M203.282 140.489C202.484 140.012 201.846 140.808 201.846 141.604C201.846 141.764 202.006 141.764 202.006 141.764C202.484 141.604 202.963 141.604 203.282 141.127C203.442 140.808 203.442 140.489 203.282 140.489Z" fill="#FFBB6C"/>
<path d="M205.516 138.737C205.356 138.578 205.197 138.578 205.037 138.737C204.718 139.056 204.559 140.33 205.197 140.171C205.516 140.171 205.676 140.012 205.676 139.852C205.835 139.375 205.835 138.897 205.516 138.737Z" fill="#FFBB6C"/>
<path d="M205.197 142.082C205.197 141.923 205.037 141.923 204.878 141.923C204.399 142.082 203.442 142.879 204.08 143.356C204.718 143.834 205.356 142.56 205.197 142.082Z" fill="#FFBB6C"/>
<path d="M137.066 167.724C137.066 167.724 146.161 173.299 152.064 178.555C157.968 183.81 161.957 189.544 165.308 190.659C168.658 191.774 172.488 189.544 172.966 186.837C173.445 184.288 170.573 183.333 167.063 183.81C164.191 182.696 158.606 172.025 153.979 165.495C149.192 158.965 137.066 167.724 137.066 167.724Z" fill="#AC5F25"/>
<path d="M166.903 128.704C166.903 128.704 163.872 118.51 163.074 116.121C162.276 113.732 160.042 114.688 160.042 118.192C160.042 119.466 158.447 121.696 158.287 124.244C158.128 126.792 158.447 129.659 159.244 131.73C161 136.189 166.903 128.704 166.903 128.704Z" fill="#2C1D1B"/>
<path d="M104.836 177.917C104.836 177.917 100.368 188.429 96.379 194.322C92.3901 200.374 87.9225 202.604 86.1674 204.038C84.4122 205.471 85.0505 209.293 83.2953 215.346C81.5402 221.398 80.902 226.176 83.2953 227.769C85.6887 229.202 94.4643 227.131 94.3048 224.265C93.9857 219.327 89.3585 221.239 89.3585 221.239C89.3585 221.239 90.1563 213.275 92.5496 210.408C94.943 207.541 100.687 206.108 107.069 199.578C113.452 193.207 117.281 187.474 117.281 187.474L104.836 177.917Z" fill="#AC5F25"/>
<path d="M186.05 130.933C184.933 130.615 183.976 131.093 182.859 131.093C179.508 131.252 179.03 130.296 176.955 128.385C175.519 127.111 174.243 126.155 172.328 125.837C170.254 125.518 165.627 125.359 160.84 129.818C157.649 132.845 158.925 139.852 161.319 142.878C164.031 146.223 168.977 148.453 173.605 148.134C176.158 147.975 178.87 146.223 179.668 143.993C182.859 142.401 185.89 140.33 187.327 137.623C188.603 135.393 188.922 131.73 186.05 130.933Z" fill="#D28037"/>
<path d="M175.998 128.385C175.998 128.385 175.519 131.252 176.796 133.163C178.072 135.074 181.104 135.871 181.582 137.623C181.742 138.26 181.902 139.534 181.423 140.649C180.944 142.401 179.827 143.993 179.827 143.993C179.827 143.993 182.859 142.878 185.412 140.489C187.965 138.1 189.72 133.163 187.167 131.093C186.21 130.296 183.018 131.57 181.104 131.093C177.913 130.455 175.998 128.385 175.998 128.385Z" fill="#513231"/>
<path d="M175.998 147.497C176.158 142.56 172.966 142.719 172.169 139.215C171.211 135.393 162.914 127.748 160.84 129.978C157.17 133.8 158.925 136.03 154.458 141.445C150.628 146.064 139.459 148.931 136.428 150.523C131.801 153.072 113.771 160.876 108.346 170.432C106.91 172.821 105.314 176.006 103.719 179.192C101.485 183.492 104.995 187.951 109.463 193.048C111.218 195.119 123.982 200.374 129.567 198.941C135.151 197.508 133.875 185.244 139.779 183.014C145.523 180.784 155.415 182.218 161 177.918C164.031 175.529 166.584 170.75 168.339 166.928C168.977 165.495 170.573 162.15 172.169 158.646C175.998 156.416 175.998 149.408 175.998 147.497Z" fill="#D28037"/>
<path d="M166.903 150.523C166.903 150.523 173.445 152.753 173.605 157.531C173.924 166.291 173.445 170.432 171.53 175.21C169.775 179.988 169.456 190.978 166.744 197.508C164.191 204.038 162.595 207.701 159.564 209.453C157.808 210.408 154.936 209.453 154.298 207.701C153.341 204.834 154.298 203.878 157.489 201.489C159.564 200.056 160.521 190.181 160.84 187.155C161.159 184.288 158.128 178.077 159.085 170.113C160.202 162.15 166.903 150.523 166.903 150.523Z" fill="#D28037"/>
<path d="M127.971 179.032C129.567 179.67 139.3 185.403 141.534 188.748C143.767 192.092 141.374 198.941 138.662 203.719C135.949 208.497 131.801 212.957 131.801 215.186C131.641 217.416 137.226 216.62 139.459 215.186C141.534 213.753 142.81 211.045 146.639 214.39C150.309 217.735 142.331 219.964 137.704 222.194C132.279 224.743 128.769 221.557 126.057 220.442C123.025 219.327 124.301 214.868 125.259 212.32C126.535 208.975 127.493 205.153 121.749 198.304C116.164 191.296 127.971 179.032 127.971 179.032Z" fill="#D28037"/>
<path d="M95.5812 189.226C89.6776 193.526 81.0615 195.119 77.3917 195.119C73.7219 195.119 70.0521 194.322 70.0521 194.322C70.0521 194.322 69.4139 199.419 72.605 202.445C74.3601 204.197 77.8704 204.515 80.7424 203.878C79.7851 205.63 78.1895 206.745 77.0726 207.223C81.5402 209.294 88.7203 210.408 96.5386 206.267C104.676 201.967 107.708 192.252 108.824 186.837C110.58 179.032 114.09 179.192 118.079 179.032C122.068 178.873 128.131 182.218 131.801 181.262C135.63 180.307 136.268 175.21 141.374 175.21C146.48 175.21 155.575 177.281 158.766 173.617C161.957 169.795 166.744 162.15 166.744 156.416C166.744 154.027 165.308 152.275 163.712 148.931C161.957 145.427 163.233 140.967 162.436 139.693C160.202 136.189 157.011 136.986 157.011 136.986C157.011 136.986 155.096 140.967 151.745 143.516C147.597 146.701 141.374 148.612 136.109 150.523C122.068 155.301 114.409 160.557 110.26 164.539C106.591 168.361 101.325 184.766 95.5812 189.226Z" fill="#513231"/>
<path d="M170.094 129.818C170.094 129.818 173.605 123.288 174.562 119.944C175.2 118.033 175.838 117.077 177.274 118.192C178.391 118.988 178.551 120.899 178.551 122.651C178.551 124.085 179.508 127.111 179.508 131.093C179.508 134.119 179.03 137.145 177.274 139.215C173.605 137.623 174.083 134.756 172.807 133.322C171.371 131.411 170.094 129.818 170.094 129.818Z" fill="#2C1D1B"/>
<path d="M183.497 131.093C183.497 131.093 185.89 132.048 186.529 132.845C187.167 133.641 188.284 134.756 188.284 134.756C188.284 134.756 188.603 131.73 187.007 131.093C185.412 130.296 183.497 131.093 183.497 131.093Z" fill="#2C1D1B"/>
<defs>
<filter id="filter0_d_440_142" x="0" y="0" width="340" height="328.789" filterUnits="userSpaceOnUse" color-interpolation-filters="sRGB">
<feFlood flood-opacity="0" result="BackgroundImageFix"/>
<feColorMatrix in="SourceAlpha" type="matrix" values="0 0 0 0 0 0 0 0 0 0 0 0 0 0 0 0 0 0 127 0" result="hardAlpha"/>
<feOffset/>
<feGaussianBlur stdDeviation="4"/>
<feComposite in2="hardAlpha" operator="out"/>
<feColorMatrix type="matrix" values="0 0 0 0 0 0 0 0 0 0 0 0 0 0 0 0 0 0 0.15 0"/>
<feBlend mode="normal" in2="BackgroundImageFix" result="effect1_dropShadow_440_142"/>
<feBlend mode="normal" in="SourceGraphic" in2="effect1_dropShadow_440_142" result="shape"/>
</filter>
</defs>
</svg>
