<svg width="157" height="137" viewBox="0 0 157 137" fill="none" xmlns="http://www.w3.org/2000/svg">
<g clip-path="url(#clip0_209_2275)">
<path d="M92.6114 61.0088C92.6114 61.0088 91.7664 68.2757 90.9214 73.0077C90.0765 77.7397 89.2315 80.2747 85.5135 81.9647C81.4575 83.8236 73.0076 86.8656 67.5996 88.8936C63.8816 92.7806 61.3466 94.9776 56.7837 95.1466C52.2207 95.3156 50.5307 92.9496 53.2347 90.5836C54.4177 89.5696 56.4457 88.7246 58.3047 87.3726C60.5016 85.6826 62.1916 83.3166 63.7126 82.8097C70.6416 80.1057 76.3875 76.0497 76.3875 76.0497L92.6114 61.0088Z" fill="#984F1D"/>
<path d="M132.664 29.4059C136.213 25.6879 138.917 21.97 140.607 17.069C141.959 13.351 141.114 8.61904 143.48 5.23906C147.029 9.5129e-05 154.803 1.18309 157 6.92905C156.155 6.25306 155.141 6.08406 154.296 6.42205C155.31 7.26705 156.155 8.78804 156.324 9.97103C155.479 9.46404 154.634 9.12604 153.789 9.46404C155.141 10.816 156.493 13.013 156.324 14.872C155.479 14.196 154.465 13.689 153.789 13.858C154.296 14.703 156.155 16.9 155.817 18.421C154.634 17.914 152.775 17.238 152.099 17.914C154.296 19.435 155.141 22.477 155.31 25.0119C153.282 23.6599 150.916 23.4909 149.733 23.3219C151.423 24.5049 152.268 26.7019 152.268 28.7299C151.254 27.7159 148.888 27.5469 147.367 27.0399C149.057 28.5609 149.902 30.5889 150.071 32.9549C149.226 32.4479 146.86 30.5889 144.663 30.9269C141.114 31.4339 137.058 33.9689 134.185 32.9549C132.495 32.2789 130.298 31.7719 132.664 29.4059Z" fill="#BE6E2C"/>
<path d="M129.284 30.2509C130.298 29.575 133.509 27.716 135.199 25.688C137.903 22.646 139.255 18.928 140.1 16.055C141.283 11.8301 141.79 7.60509 143.649 4.90111C144.832 3.21112 146.86 2.02813 149.902 1.85913C148.55 2.53513 146.691 3.71812 146.184 4.73211C145.001 6.9291 145.677 8.78809 146.015 11.1541C146.522 10.8161 149.057 10.3091 150.747 10.6471C149.902 11.1541 148.55 11.9991 147.874 12.5061C147.536 12.8441 147.198 13.1821 146.86 13.6891H147.029C147.874 13.5201 149.226 13.8581 150.24 14.872C149.057 15.041 147.029 15.717 146.184 16.562C145.846 16.9 145.677 17.238 145.339 17.407C146.522 17.407 147.705 17.914 148.381 18.928C146.184 18.759 145.508 19.097 144.494 19.942C143.987 20.449 143.48 20.956 143.142 21.294C144.663 21.294 146.353 22.139 146.691 23.66C146.691 23.66 144.832 23.153 143.48 23.491C142.466 23.829 141.452 24.674 140.945 25.35C137.734 29.575 133.34 31.0959 131.481 31.6029C129.453 31.9409 129.115 30.2509 129.284 30.2509Z" fill="#3F2A28"/>
<path d="M140.438 37.1798C143.649 41.5738 143.311 44.9538 143.311 51.7137C143.311 52.5587 144.832 54.5867 145.677 55.6007C146.522 56.7837 148.212 57.6287 148.212 58.9807C148.043 64.2197 143.142 77.4016 141.959 79.0916C140.776 80.7816 135.368 81.9645 133.678 80.2746C131.988 78.5846 132.326 77.5706 134.692 76.2186C137.227 74.6976 140.607 65.0647 139.931 64.0507C139.255 63.0367 132.833 57.9667 132.664 55.6007C132.326 53.2347 137.058 32.7859 140.438 37.1798Z" fill="#AC5F25"/>
<path d="M124.89 31.4341C128.101 35.828 127.763 45.123 128.777 46.644C129.791 48.1649 132.495 53.2349 132.495 53.2349C132.495 53.2349 127.425 71.6558 126.242 73.3458C125.059 75.0358 119.651 76.2188 117.961 74.5288C116.271 72.8388 116.609 71.8248 118.975 70.4728C121.51 68.9518 124.89 59.3189 124.214 58.3049C123.538 57.2909 117.116 52.2209 116.947 49.8549C116.778 47.4889 121.51 26.8711 124.89 31.4341Z" fill="#984F1D"/>
<path d="M75.2045 64.5577C76.5565 56.6147 79.0915 54.4177 88.3864 52.3897C94.3014 51.0378 101.906 50.8688 107.821 49.8548C113.398 48.8408 132.664 29.7439 137.396 33.1239C140.945 35.8279 141.959 39.7148 142.297 42.0808C143.142 46.3058 139.593 52.3897 135.368 56.4457C125.228 66.0787 125.228 70.1346 120.665 75.8806C114.919 83.1475 108.328 87.3725 104.779 89.5695C101.061 91.7665 96.3294 91.9355 92.1044 91.4285C88.0485 90.9215 83.8235 90.4145 80.2745 88.3865C77.0635 86.6965 76.2185 83.9925 74.8665 81.1196C73.3455 77.2326 74.3595 68.7826 75.2045 64.5577Z" fill="#AC5F25"/>
<path d="M114.074 73.6836C114.074 73.6836 113.229 80.9506 112.384 85.6825C111.539 90.4145 110.694 92.9495 106.976 94.6395C102.92 96.4985 94.4705 99.5404 89.0625 101.568C85.3445 105.455 82.8095 107.652 78.2466 107.821C73.6836 107.99 71.9936 105.624 74.6976 103.258C75.8806 102.244 77.9086 101.399 79.7675 100.047C81.9645 98.3574 83.6545 95.9915 85.1755 95.4845C92.1045 92.7805 97.8504 88.7245 97.8504 88.7245L114.074 73.6836Z" fill="#AC5F25"/>
<path d="M84.6685 53.5728C84.6685 53.5728 93.9634 57.7978 95.9914 58.1358C98.0194 58.3048 103.934 59.1498 106.3 62.3608C109.173 66.5857 107.99 72.8387 110.694 76.8947C112.046 78.9226 116.271 75.0357 118.806 68.2757C121.172 61.8538 126.749 54.0798 134.523 48.5028C142.973 42.4189 140.776 36.8419 137.565 33.2929C132.833 28.054 127.594 26.871 118.468 33.4619C110.018 39.5459 107.314 45.4609 100.723 45.7989C91.9354 46.1369 86.8654 50.1928 84.6685 53.5728Z" fill="#513231"/>
<path d="M99.7094 56.7837C99.7094 56.7837 104.441 62.3607 102.075 71.8246C99.2024 83.1475 89.7385 86.5275 84.3305 85.3445C73.5146 83.1475 74.6976 75.7116 76.5565 69.2896C78.0775 63.8816 99.7094 56.7837 99.7094 56.7837Z" fill="#F8AA43"/>
<path d="M73.8526 60.5019C76.3875 55.9389 78.5845 52.8969 81.9645 49.179C87.2035 49.855 90.7525 49.517 95.8224 52.7279C99.8784 55.4319 101.23 59.6569 101.23 65.4029C101.23 72.1628 93.7944 82.1337 86.6965 82.9787C78.4155 83.9927 77.2325 79.2608 73.0076 69.2898C71.6556 65.9098 72.1626 63.3749 73.8526 60.5019Z" fill="#BE6E2C"/>
<path d="M75.0356 36.166C75.0356 36.166 76.0496 36.335 76.2186 38.87C76.5566 41.405 79.5985 48.5029 79.5985 48.5029L74.8666 49.1789L73.5146 40.391L75.0356 36.166Z" fill="#2C1D1B"/>
<path d="M77.4015 47.9959C77.4015 47.9959 74.8666 43.0949 75.0356 41.0669C75.2045 38.8699 75.8805 36.6729 75.0356 36.335C74.1906 35.997 72.3316 38.7009 71.9936 42.2499C71.6556 45.7989 72.3316 49.3479 72.3316 49.3479L77.4015 47.9959Z" fill="#513231"/>
<path d="M66.0786 59.9948C67.0926 58.9808 68.1066 57.7978 68.7826 56.6148C69.4586 55.2628 69.6276 54.2488 70.3036 52.8968C70.8106 51.8828 70.8106 50.6998 72.5006 49.3478C75.0356 47.4888 78.9225 46.9818 80.6125 47.3198C82.1335 47.6578 85.0065 48.6718 86.6965 50.1928C89.9075 52.8968 89.7385 55.7698 90.4145 58.9808C91.4285 63.8817 91.2595 68.1067 86.5275 71.4867C83.9925 73.1767 78.4156 73.0077 75.5426 70.8107C70.9796 72.1627 69.2896 74.3597 64.3886 70.9797C63.2056 70.1347 60.8397 68.1067 60.8397 66.4167C60.8397 65.4027 64.3886 61.6847 66.0786 59.9948Z" fill="#D28037"/>
<path d="M60.8397 65.4029C62.1916 64.0509 64.2196 61.8539 65.5716 60.3329C66.7546 58.812 67.5996 57.629 68.4446 55.939C69.2896 54.418 70.4726 51.545 70.9796 50.531C71.8246 51.038 70.8106 54.418 70.3036 55.263C69.7966 56.277 69.2896 57.46 68.7826 58.474C68.4446 59.1499 68.2756 60.5019 70.8106 60.5019C72.8386 60.5019 76.2186 55.601 77.0636 55.263C79.0915 54.249 80.2745 54.756 81.1195 56.615C81.6265 57.629 81.6265 60.5019 80.6125 61.8539C80.2745 62.1919 78.5845 64.5579 78.7535 65.5719C78.9225 66.0789 79.7675 67.2619 79.7675 67.9379C80.1055 69.9659 79.2605 71.6559 77.9085 71.8249C76.8946 71.9939 74.6976 70.6419 72.8386 71.4869C69.4586 73.0079 65.2336 73.6839 63.7126 72.6699C60.8397 70.3039 58.6427 67.4309 60.8397 65.4029Z" fill="#513231"/>
<path d="M75.3735 59.4878C75.7115 59.1498 77.2325 57.6288 77.7395 57.2908C78.2465 56.9528 78.5845 57.1218 79.2605 57.7978C79.9365 58.6428 80.2745 59.8258 79.2605 60.5018C78.4155 61.1778 77.2325 61.0088 76.3875 60.3328C76.2185 60.3328 76.2185 60.1638 76.0495 59.9948C76.0495 59.9948 76.0495 59.9948 75.8805 60.1638C75.3735 60.6708 74.6975 59.9948 75.3735 59.4878Z" fill="#2C1D1B"/>
<path d="M77.5752 58.2539C77.2968 58.2247 77.0394 58.5019 77.0005 58.8732C76.9615 59.2445 77.1556 59.5692 77.4341 59.5984C77.7126 59.6277 77.9699 59.3504 78.0089 58.9791C78.0478 58.6078 77.8537 58.2831 77.5752 58.2539Z" fill="white"/>
<path d="M62.0226 64.2197C62.3606 64.2197 64.8956 65.5717 65.5716 66.7547C66.2476 67.9377 65.0646 68.7827 63.8816 69.4587C62.6986 69.9657 61.5156 70.3037 61.5156 70.3037C61.5156 70.3037 59.8257 69.1207 60.1637 67.2617C60.1637 65.5717 62.0226 64.2197 62.0226 64.2197Z" fill="#2C1D1B"/>
<path d="M70.1346 52.5588C70.1346 52.5588 70.3036 54.2488 69.6276 55.0938C68.6136 56.2768 68.2756 56.2768 68.2756 56.2768C68.2756 56.2768 68.2756 54.9248 68.7826 54.0798C69.2896 53.2348 70.1346 52.5588 70.1346 52.5588Z" fill="#2C1D1B"/>
<path d="M90.5834 43.771C90.5834 43.771 92.4424 50.869 92.7804 53.4039C93.1184 55.9389 92.4424 57.4599 92.1044 58.9809C91.7664 60.5019 90.7524 61.8539 90.7524 61.8539C90.7524 61.8539 90.2455 61.8539 89.4005 60.6709C88.5555 59.4879 89.4005 54.0799 89.4005 54.0799L90.5834 43.771Z" fill="#2C1D1B"/>
<path d="M83.6545 50.5308C83.6545 50.5308 85.5135 46.1368 86.5275 43.0949C87.3725 40.0529 89.0625 39.5459 90.0765 41.9119C91.0905 44.1089 91.2595 46.8128 91.9355 49.8548C92.6115 52.8968 91.0905 53.9108 90.9215 56.2768C90.5835 58.4738 89.5695 60.8397 89.5695 60.8397C89.5695 60.8397 88.0485 58.9808 87.0345 56.2768C83.6545 54.2488 83.6545 50.5308 83.6545 50.5308Z" fill="#513231"/>
<path d="M36.5037 91.4284C36.5037 91.4284 29.7438 93.4564 28.0538 95.8224C26.3638 98.0194 25.5188 99.8784 25.1808 102.751C24.8428 105.624 26.0258 107.314 29.0678 107.145C31.7718 106.976 32.9548 105.624 33.4618 104.103C33.4618 104.103 40.8977 103.258 44.6157 100.723C48.5027 98.0194 42.7567 90.7524 36.5037 91.4284Z" fill="#C8C857"/>
<path d="M53.0657 57.2906C47.1507 55.9386 43.0947 57.4596 36.8418 60.3326C36.6728 60.3326 36.5038 60.3326 36.3348 60.5016C28.8988 64.0506 11.3229 72.3315 11.4919 72.6695C8.78796 78.5845 12.8439 87.7104 20.6179 86.6964C24.5049 89.0624 29.0678 89.4004 33.1238 87.8794C32.9548 88.0484 32.2788 89.0624 31.2648 90.5834C34.9828 90.7524 39.2078 92.6114 41.9117 94.6394C42.5877 95.1464 43.2637 95.8224 43.7707 96.4984C44.6157 94.8084 45.2917 93.1184 46.4747 92.2734C49.5167 89.9074 55.9387 78.9225 57.9666 68.9515C59.3186 62.0226 59.9946 58.8116 53.0657 57.2906Z" fill="#2C1D1B"/>
<path d="M57.6286 98.1884C57.2906 93.9634 54.7556 88.0484 52.8966 85.3445C48.1647 78.2465 46.3057 73.6835 41.4047 70.4726C35.3208 66.5856 31.4338 73.5145 25.0118 74.5285C25.0118 74.5285 18.4209 71.8246 17.9139 71.6556C18.0829 71.8246 18.0829 81.6265 20.6179 86.6965C22.1388 89.5694 26.0258 92.1044 31.9408 92.2734C34.3068 96.3294 38.0247 99.3714 39.2077 99.8784C36.5038 100.892 32.2788 102.751 29.2368 105.624C24.6738 109.849 23.1528 111.37 17.7449 115.088C19.0969 115.933 19.4349 119.989 20.1109 120.665C20.9559 121.848 21.4628 122.693 21.8008 124.552C31.9408 122.186 41.2357 115.933 49.5167 110.018C52.3897 107.99 55.2626 103.258 57.6286 98.1884Z" fill="#3F2A28"/>
<path d="M35.3208 21.801C35.3208 21.801 27.8848 13.6891 20.6179 22.984C18.4209 25.857 18.5899 29.744 17.9139 31.2649C15.2099 35.9969 13.6889 43.0949 13.6889 48.1648C13.5199 55.9388 22.3079 57.2908 26.1948 52.8968C33.9688 44.2779 35.3208 21.801 35.3208 21.801Z" fill="#EEE7EA"/>
<path d="M44.1087 28.5608C44.6157 28.5608 47.8267 27.7158 51.2067 28.3918C54.4177 29.0678 55.7697 31.0957 54.9247 33.1237C54.0797 34.9827 51.5447 37.8557 51.5447 37.8557L43.6017 35.6587L44.1087 28.5608Z" fill="#FFC8B5"/>
<path d="M47.6577 25.6879L41.7427 30.5888C38.5318 29.4058 36.1658 25.6879 34.6448 21.9699C35.8278 20.9559 40.0527 18.5899 40.2217 17.4069C39.0387 13.8579 40.8977 10.9849 44.1087 7.94297C47.4887 4.73199 53.5727 4.73199 57.2906 7.60497C57.7976 7.77397 60.5016 9.80196 60.1636 13.0129C59.8256 16.7309 57.6286 25.5189 54.5866 27.2088C52.3897 28.2228 49.6857 26.3638 47.6577 25.6879Z" fill="#FFC8B5"/>
<path d="M56.2766 2.19704C51.3756 -1.18294 42.0807 -1.35193 40.7287 5.91502C39.2077 6.25302 39.0387 7.94301 38.3627 9.464C37.0107 12.675 39.0387 17.7449 37.0107 20.6179C38.7007 21.6319 43.4327 22.3079 45.9677 21.2939C48.5027 20.1109 52.8966 17.2379 53.9106 14.365C53.9106 14.365 53.9106 14.365 53.9106 14.196C58.6426 16.8999 63.8816 14.027 65.0646 9.126C60.1636 6.59101 58.6426 3.88703 56.2766 2.19704Z" fill="#3F2A28"/>
<path d="M54.0796 16.562C54.0796 16.562 53.4036 14.196 51.2067 15.717C49.0097 17.238 51.7137 21.463 51.7137 21.463L54.0796 16.562Z" fill="#FFC8B5"/>
<path d="M33.1238 20.4488C36.8418 21.9698 36.5038 22.6458 44.1087 28.5608C51.7137 34.4757 52.0517 37.8557 51.3757 41.4047C50.6997 44.9537 49.5167 46.6436 47.1507 53.9106C44.4467 62.3605 44.9537 63.8815 42.2498 69.2895C43.4328 69.9655 45.1227 71.8245 43.9397 73.6835C41.2358 78.0774 23.1529 87.7104 10.309 74.8665C10.816 64.8955 14.5339 44.4467 17.0689 36.5037C20.2799 27.7158 29.9128 19.0968 33.1238 20.4488Z" fill="#C8C857"/>
<path d="M37.8557 69.9656C37.8557 69.9656 33.1238 72.5006 28.7298 73.6835C24.3358 74.8665 23.8288 74.6975 20.6179 75.3735C21.8009 75.3735 28.5608 76.0495 31.4338 74.3595C34.3068 72.6696 37.8557 69.9656 37.8557 69.9656Z" fill="#B1AE3F"/>
<path d="M22.9839 67.9377C22.9839 67.9377 25.5189 69.9657 29.2368 69.6277C32.9548 69.2897 35.3208 68.7827 35.3208 68.7827C35.3208 68.7827 31.2648 67.5997 29.2368 67.9377C27.2089 68.1067 22.9839 67.9377 22.9839 67.9377Z" fill="#B1AE3F"/>
<path d="M21.9699 114.074C21.9699 114.074 16.3929 113.736 14.1959 114.074C11.9989 114.412 11.6609 118.468 9.63294 120.496C7.60495 122.355 1.85899 123.369 0.338001 127.425C-1.18299 131.312 1.52099 137.565 5.23897 136.044C11.1539 133.509 22.9839 123.707 22.9839 123.707C22.9839 123.707 25.6878 119.313 21.9699 114.074Z" fill="#C8C857"/>
<path d="M76.5565 46.9817C75.2045 47.6576 74.6975 47.9956 73.5146 48.6716C73.5146 47.4886 74.6975 46.4747 74.0216 45.2917C73.5146 44.4467 72.8386 45.4607 71.8246 46.9817C70.9796 48.6716 70.3036 50.1926 68.9516 51.3756C68.9516 51.3756 67.9376 55.9386 69.6276 56.6146C71.3176 57.2906 76.2185 54.7556 77.7395 53.9106C79.2605 53.0656 82.1335 52.3896 83.4855 49.1786C84.6685 47.1507 80.7815 44.9537 76.5565 46.9817Z" fill="#FFC8B5"/>
<path d="M70.1346 49.8546C66.7546 50.3616 62.1916 51.7136 59.9946 53.0656C59.1496 51.2066 57.2907 46.3056 56.2767 42.7567C54.0797 34.6447 50.5307 32.1097 47.4887 31.4337C43.0947 30.4197 39.3768 33.6307 39.3768 38.5317C39.3768 47.8266 43.6017 52.7276 45.9677 53.2346C45.7987 55.6006 48.5027 58.9806 51.0377 62.0225C52.7277 63.8815 54.2487 65.9095 56.7837 65.5715C64.0506 64.5575 69.7966 58.8116 73.3456 56.6146C73.8526 54.7556 72.6696 51.7136 70.1346 49.8546Z" fill="#EEE7EA"/>
<path d="M31.0958 20.4489C31.0958 20.4489 34.8138 17.5759 36.5038 18.4209C38.1938 19.2659 43.7707 23.1529 44.7847 25.0119C45.7987 27.0399 46.4747 30.4199 46.4747 30.4199C46.4747 30.4199 40.3908 28.2229 35.6588 24.3359C31.0958 20.4489 31.0958 20.4489 31.0958 20.4489Z" fill="#EEE7EA"/>
</g>
<defs>
<clipPath id="clip0_209_2275">
<rect width="157" height="136.044" fill="white"/>
</clipPath>
</defs>
</svg>
