<svg width="150" height="131" viewBox="0 0 150 131" fill="none" xmlns="http://www.w3.org/2000/svg">
<g clip-path="url(#clip0_209_2134)">
<path d="M72.3757 102.624C70.8564 101.657 69.6133 100.138 69.1989 98.6188C69.0608 98.0663 70.0276 96.4089 70.0276 95.7183C67.9558 96.4089 64.6409 97.2376 62.8453 98.4807C61.326 99.4475 61.8785 104.972 62.2928 107.044C63.2597 112.431 64.5028 116.16 69.4751 116.16C70.9945 116.16 72.0995 114.641 71.9613 112.431C71.8232 108.84 72.2376 105.939 72.3757 102.624Z" fill="#FF5E4C"/>
<path d="M63.9503 97.6519C63.9503 97.6519 63.8122 100.138 63.5359 103.039C63.2597 105.801 62.7072 109.53 64.0884 111.878C65.4696 114.226 67.6796 113.674 69.1989 113.674C70.7182 113.536 71.2707 115.193 71.2707 115.193C71.2707 115.193 70.5801 116.851 67.2652 116.16C63.9503 115.331 62.8453 112.569 62.1547 109.807C61.4641 107.044 61.4641 102.624 61.326 100.829C61.326 99.9999 61.7404 98.895 62.431 98.4806C63.1216 97.9281 63.9503 97.6519 63.9503 97.6519Z" fill="#3F2A28"/>
<path d="M69.0608 101.105C69.0608 101.105 68.6464 103.453 68.6464 105.111C68.6464 106.768 69.4752 109.392 70.9945 109.392C72.0995 109.392 72.0995 107.182 72.0995 104.696C72.0995 102.21 69.0608 101.105 69.0608 101.105Z" fill="#3F2A28"/>
<path d="M67.1271 103.729C67.1271 103.729 68.7845 103.591 70.0276 104.006C71.2707 104.42 72.0995 105.249 72.0995 105.249V105.939C72.0995 105.939 70.9945 105.249 69.7514 104.834C68.5083 104.42 66.989 104.696 66.989 104.696V103.729H67.1271Z" fill="white"/>
<path d="M67.1271 105.939C67.1271 105.939 68.7845 105.801 70.0276 106.216C71.2707 106.63 72.0995 107.044 72.0995 107.044V107.873C72.0995 107.873 71.1326 107.321 69.8895 107.044C68.6464 106.63 67.1271 106.906 67.1271 106.906V105.939Z" fill="white"/>
<path d="M130.663 121.961C130.663 121.961 131.63 124.171 132.32 126.105C132.873 128.039 133.978 129.558 135.912 129.42C137.845 129.282 139.365 128.591 142.403 127.21C147.376 125 150.138 123.343 150 121.409C149.862 119.475 148.619 118.232 145.166 118.785C144.199 118.923 141.713 119.475 140.47 119.061C139.365 118.785 138.812 118.508 137.845 118.232C135.774 117.68 130.663 121.961 130.663 121.961Z" fill="#FF5E4C"/>
<path d="M135.635 119.613C135.635 119.613 136.188 120.856 138.26 121.271C140.332 121.685 141.851 120.994 142.818 120.442C143.923 119.751 144.89 118.923 144.89 118.923C144.89 118.923 141.851 119.475 140.332 119.199C138.812 118.923 138.536 118.37 138.536 118.37L135.635 119.613Z" fill="#3F2A28"/>
<path d="M147.514 119.889C145.856 120.028 144.199 122.237 143.508 123.066C141.298 125.552 140.332 125.691 137.707 126.796C135.083 127.762 132.597 127.072 132.597 127.072C132.597 127.072 133.287 129.144 133.978 129.696C134.669 130.11 137.155 129.972 139.088 129.42C141.022 128.867 145.995 126.519 148.066 124.724C150.138 122.928 151.243 119.475 147.514 119.889Z" fill="#3F2A28"/>
<path d="M150 121.409C150 121.409 148.619 120.718 146.409 122.376C144.199 124.033 143.508 126.243 140.746 127.901C137.983 129.558 134.669 129.834 134.669 129.834C134.669 129.834 135.359 130.11 136.879 129.834C138.812 129.42 141.851 128.315 144.337 126.934C148.895 124.586 150 123.066 150 121.409Z" fill="#2C1D1B"/>
<path d="M137.431 121.547L140.47 119.061L139.503 118.785C139.503 118.785 137.293 120.304 136.326 120.995C136.464 121.271 136.878 121.409 137.431 121.547Z" fill="white"/>
<path d="M141.022 119.199L138.674 121.685C138.674 121.685 139.503 121.823 139.917 121.685C140.47 121.271 142.127 119.199 142.127 119.199H141.022Z" fill="white"/>
<path d="M145.442 32.4586C145.166 30.5249 140.746 27.0718 138.674 29.9724C137.293 31.9061 137.155 33.5636 138.398 34.8066C135.912 37.8453 133.149 38.8122 131.492 41.2984C130.939 39.6409 129.144 34.8066 127.072 31.6299C126.934 31.3536 120.304 34.2542 121.133 37.431C121.823 39.9171 122.514 41.1602 123.619 43.5083C124.862 46.2707 126.796 48.0663 128.315 49.0332C129.972 50.1381 131.906 50.1381 135.359 47.3757C138.536 44.7514 140.055 40.6078 141.851 38.3978C142.956 36.8785 145.995 35.221 145.442 32.4586Z" fill="#FFC8B5"/>
<path d="M132.597 97.0995C131.63 93.3702 131.354 91.2984 130.525 89.5028C129.282 86.326 123.481 73.757 121.547 70.0277C119.751 66.5746 116.436 59.9448 117.127 57.1824C113.95 58.978 100.276 63.6741 98.6188 64.7791C95.442 66.8509 98.7569 71.1326 100.138 73.8951C102.072 78.0387 115.47 91.7128 117.541 94.0608C118.508 103.729 127.624 119.475 130.525 124.171C133.287 122.376 135.635 119.89 139.641 118.37C138.674 113.398 134.254 103.591 132.597 97.0995Z" fill="#2C1D1B"/>
<path d="M114.088 60.3592C113.812 56.6299 105.525 49.5857 105.525 49.5857H96.1326C92.2652 56.6299 88.6741 58.8398 89.0884 68.3702C85.3592 77.21 86.8785 80.663 87.5691 88.536C83.0111 89.6409 72.7901 92.9559 68.6465 96.2708C66.5746 102.348 69.3371 104.282 72.0995 105.939C77.6244 103.591 85.6354 102.624 92.4034 100.829C95.8564 99.8619 96.6851 99.1713 98.4807 97.0995C102.21 89.7791 106.216 81.768 107.735 73.6188C112.845 71.9614 114.227 63.6741 114.088 60.3592Z" fill="#3F2A28"/>
<path d="M118.785 17.8179C117.818 19.061 117.68 18.9229 116.713 20.166C116.713 22.7903 116.989 25.2765 117.68 27.9008C118.646 31.7682 117.956 40.0555 120.58 39.6411C123.895 39.0886 128.315 37.4312 130.663 34.8068C128.177 29.0057 123.757 17.5416 118.785 17.8179Z" fill="#EE4335"/>
<path d="M121.961 21.1328C117.403 15.746 112.569 18.2322 106.354 21.8234C102.21 24.7239 96.6851 27.3482 96.1326 34.6687C95.8563 38.9505 95.442 41.5748 95.3039 45.5803C95.1657 50.0002 93.232 52.3482 91.5746 56.7681C92.5414 62.293 109.392 68.6466 117.956 60.4974C119.337 54.2819 119.889 50.8289 123.757 41.4366C126.657 31.3538 126.243 26.1052 121.961 21.1328Z" fill="#FF5E4C"/>
<path d="M107.459 20.4422L105.249 22.6521C105.249 22.6521 105.663 24.724 109.53 27.9008C113.398 31.0775 120.028 35.9118 120.028 35.9118C120.028 35.9118 121.685 33.5637 120.58 27.9008C119.751 23.619 117.68 18.9229 117.68 18.9229L107.459 20.4422Z" fill="#EE4335"/>
<path d="M102.486 58.5636C102.486 58.5636 108.287 60.4973 111.188 60.2211C114.088 59.9448 116.022 57.7349 116.022 57.7349C116.022 57.7349 112.845 58.7017 110.497 58.5636C108.149 58.4255 102.486 58.5636 102.486 58.5636Z" fill="#EE4335"/>
<path d="M111.326 15.0552C111.326 15.0552 116.851 14.3646 118.646 17.1271C116.989 21.4088 120.028 27.7624 119.475 33.5635C116.022 30.1105 107.459 25.2762 106.354 21.8232C107.459 20.442 111.326 15.0552 111.326 15.0552Z" fill="#FFB8A3"/>
<path d="M123.481 11.6024C123.343 9.25431 122.928 6.35376 121.133 4.83442C119.337 3.17696 116.436 3.03884 114.088 3.17696C110.635 3.45321 108.149 7.32061 108.702 11.8786C109.254 16.0223 112.017 22.3759 116.713 23.3427C119.061 23.7571 120.856 21.9615 121.961 19.7515C123.343 16.9891 123.619 13.5361 123.481 11.6024Z" fill="#FFC8B5"/>
<path d="M110.221 2.62442C107.735 2.62442 105.387 5.38685 106.354 11.4642C106.768 13.8123 107.735 16.4366 108.84 19.0609C108.978 19.4752 112.707 14.7791 113.26 10.083C117.265 11.4642 122.652 10.4973 126.519 8.97801C125 2.62442 114.917 -3.72917 110.221 2.62442Z" fill="#3F2A28"/>
<path d="M112.707 14.9172C112.707 14.9172 111.74 12.5692 110.359 13.536C108.978 14.5029 110.773 17.8178 110.773 17.8178L112.707 14.9172Z" fill="#FFC8B5"/>
<path d="M102.486 59.3923C101.519 59.1161 100.138 59.2542 99.0331 59.5305C97.5138 55.1106 95.9945 49.862 95.1657 49.1714C95.7182 48.3426 97.7901 45.8564 99.1713 43.6465C98.3425 43.094 97.6519 42.5415 97.0994 42.1272C95.7182 41.0222 93.3702 38.2598 92.6795 36.6023C90.1934 40.3316 89.3646 41.7128 87.7072 44.6133C86.326 47.0995 86.326 48.2045 87.7072 51.1051C89.3646 54.6962 91.9889 59.8067 94.8895 63.1216C94.8895 63.1216 96.6851 67.2653 99.4475 67.8178C102.21 68.3702 104.144 67.5415 105.249 65.0553C106.354 62.2929 104.282 59.8067 102.486 59.3923Z" fill="#FFC8B5"/>
<path d="M97.652 46.9613C99.1713 45.7182 100.829 44.1989 101.657 43.0939C103.867 40.1934 106.63 36.4641 106.354 32.4586C106.216 29.558 104.834 26.105 101.934 25C97.5139 25.9669 93.9227 28.3149 91.989 34.3923C91.4365 36.1878 89.6409 39.0884 88.9503 40.884C88.9503 42.2652 91.989 46.9613 97.652 46.9613Z" fill="#EE4335"/>
<path d="M101.934 61.4643C101.934 61.4643 102.486 56.9063 105.939 54.8345C109.254 52.6245 112.155 55.2488 112.431 57.3206C112.707 59.3925 112.569 60.9118 110.359 61.7405C108.149 62.5693 102.762 62.4311 102.762 62.4311L101.934 61.4643C101.934 61.4643 107.459 61.4643 109.116 60.6356C110.773 59.8068 111.74 58.1494 110.497 56.2157C109.392 54.5582 108.011 54.8344 105.939 56.3538C104.282 57.5969 102.624 62.293 102.624 62.293L101.934 61.4643Z" fill="#F8AA43"/>
<path d="M20.9945 63.2599C21.1326 63.2599 21.1326 63.2599 20.9945 63.2599C17.6796 60.3593 15.0552 57.5969 13.5359 53.4533C12.4309 50.2765 12.9834 46.2709 11.1878 43.5085C8.28729 39.0886 1.65746 40.0555 -0.138123 44.8897C0.690607 44.3372 1.38121 44.1991 2.07182 44.4754C1.24309 45.166 0.414364 46.5472 0.276242 47.514C1.10497 47.0997 1.79558 46.8234 2.34807 47.0997C1.24309 48.3428 0.138121 50.1383 0.276242 51.5196C1.24309 51.1052 2.07182 50.829 2.76243 50.9671C2.34807 51.6577 0.690607 53.5914 0.96685 54.6964C1.9337 54.282 3.45304 53.7295 4.14365 54.282C2.34807 55.5251 1.51934 58.1494 1.51934 60.2212C3.1768 59.1162 5.1105 58.9781 6.21547 58.84C4.83425 59.8068 4.00552 61.6024 4.00552 63.398C4.83425 62.5693 6.90608 62.293 8.14917 62.0168C6.76796 63.2599 6.07735 65.0555 5.8011 66.9892C6.49171 66.5748 8.42541 65.0555 10.3591 65.3317C13.2597 65.7461 16.7127 67.956 19.0608 66.9892C20.442 66.2986 20.9945 63.2599 20.9945 63.2599Z" fill="#BE6E2C"/>
<path d="M20.3039 62.0168C17.9558 60.3594 15.3315 56.6301 14.2265 52.6245C13.2597 49.0334 12.8453 45.5803 11.1879 43.2323C10.0829 41.7129 8.56355 40.8842 5.93924 40.7461C7.04421 41.2986 8.70167 42.4036 9.11603 43.2323C10.0829 45.0279 9.5304 46.6853 9.25415 48.4809C8.83979 48.2047 6.76796 47.6522 5.38675 48.0665C6.07736 48.4809 7.18233 49.1715 7.73482 49.724C8.01106 50.0002 8.2873 50.4146 8.56354 50.6908H8.42542C7.73482 50.5527 6.62984 50.829 5.66299 51.6577C6.62984 51.7958 8.42542 52.4864 9.11603 53.0389C9.11603 53.3152 9.39227 53.5914 9.66852 53.8676C8.70167 53.8676 7.59669 54.282 7.04421 55.1107C8.83979 54.9726 9.5304 55.2489 10.3591 56.0776C10.7735 56.4919 11.1879 56.9063 11.6022 57.1826C10.221 57.1826 8.83979 57.8732 8.56354 59.2544C8.56354 59.2544 10.0829 58.84 11.1879 59.1163C12.0166 59.3925 12.7072 60.2212 13.2597 60.6356C13.8122 61.3262 15.3315 62.8455 16.8508 63.1218C18.6464 63.398 20.3039 62.1549 20.3039 62.0168Z" fill="#3F2A28"/>
<path d="M21.6851 67.6797C21.6851 67.6797 20.9945 80.9394 20.0276 82.1824C19.1989 83.4255 16.8508 87.7073 16.8508 87.7073C16.8508 87.7073 20.9945 103.177 22.0994 104.42C23.0663 105.801 27.6243 106.906 29.0055 105.387C30.3867 103.868 30.1105 103.177 28.0387 101.934C25.9669 100.691 23.0663 92.5416 23.6188 91.7128C24.1713 90.8841 29.558 86.6023 29.6961 84.6686C29.8343 82.7349 21.6851 67.6797 21.6851 67.6797Z" fill="#984F1D"/>
<path d="M71.8232 89.9172C71.8232 89.9172 72.3757 94.8896 70.3038 101.658C69.8895 103.177 69.4751 106.077 69.7514 109.116C69.8895 112.293 70.7182 117.127 71.1326 119.89C71.6851 123.205 74.8618 124.724 75.9668 125.967C77.348 127.624 79.0055 128.729 75.9668 130.525C73.4806 132.044 67.9558 128.315 67.2652 126.934C66.1602 124.724 65.0552 120.442 62.9834 115.193C60.9116 109.945 61.3259 100.553 61.3259 100.553L71.8232 89.9172Z" fill="#984F1D"/>
<path d="M17.9558 82.1826C16.4365 81.2157 14.779 80.2489 13.674 78.7296C12.4309 77.2102 11.8785 72.0997 11.326 70.166C8.56353 75.4146 10.221 80.6633 9.80663 83.5638C9.25414 84.5307 7.0442 86.1881 6.21547 86.7406C5.1105 87.5693 2.90055 87.7075 2.34806 88.8124C1.65746 90.3318 1.65746 92.8179 2.34806 97.376C2.62431 98.7572 3.31492 105.249 4.28177 108.149C5.1105 110.774 9.39226 108.702 9.66851 106.354C10.221 101.105 7.0442 94.6135 8.14917 93.0942C8.9779 91.9892 9.11602 91.9892 10.4972 91.9892C11.8785 91.9892 13.9503 91.8511 15.3315 91.1605C19.0608 89.2268 20.8564 86.8787 23.4807 84.5307C22.2376 83.7019 19.1989 83.0113 17.9558 82.1826Z" fill="#AC5F25"/>
<path d="M71.8232 80.1106C70.5801 73.4808 68.6464 71.6852 60.7735 69.8896C55.8011 68.7846 49.4475 68.6465 44.4752 67.8178C39.779 66.9891 34.3923 64.3647 29.8343 63.1217C26.9337 62.2929 25 61.6023 22.0995 62.0167C16.989 62.5692 15.884 62.7073 13.1216 66.7128C12.0166 68.3703 11.1879 70.304 10.6354 72.3758C10.6354 77.21 13.5359 81.3537 17.9558 83.7018C19.6133 84.5305 20.7182 84.8067 22.5138 85.9117C26.2431 87.0167 29.2818 89.9172 34.116 93.7846C38.9503 97.652 44.337 99.3095 47.2376 100.967C50.2763 102.763 54.2818 102.901 57.8729 102.486C61.326 102.072 64.779 101.519 67.8177 100C70.5801 98.6189 71.2707 96.4089 72.2376 93.9228C73.4807 90.746 72.5138 83.7018 71.8232 80.1106Z" fill="#AC5F25"/>
<path d="M39.2265 87.8455C39.2265 87.8455 39.9171 94.0609 40.6077 97.9283C41.2983 101.796 41.9889 104.006 45.1657 105.525C48.6188 107.044 55.663 109.669 60.221 111.326C63.2596 114.641 65.4696 116.437 69.337 116.575C73.2044 116.713 74.5856 114.779 72.2375 112.707C71.2707 111.879 69.4751 111.188 67.9558 109.945C66.1602 108.564 64.779 106.492 63.3978 106.078C57.5967 103.868 52.9005 100.415 52.9005 100.415L39.2265 87.8455Z" fill="#AC5F25"/>
<path d="M63.9503 70.8565C63.9503 70.8565 56.2154 74.4476 54.558 74.5857C52.9005 74.7239 47.79 75.4145 45.9945 78.1769C43.5083 81.6299 46.8232 87.5692 44.6132 91.0222C43.3701 92.8178 37.2928 89.5029 33.4254 85.9117C29.558 82.3205 29.1436 80.2487 21.6851 77.0719C14.2265 73.8951 12.2928 66.4366 15.6077 63.9504C19.6132 60.7736 22.79 59.9449 33.5635 63.2598C38.9503 64.9172 43.9226 66.9891 49.4475 67.2653C56.2154 67.6797 62.0165 68.094 63.9503 70.8565Z" fill="#513231"/>
<path d="M68.7845 90.6079C68.7845 90.6079 73.7569 93.3704 79.8342 92.956C83.9779 92.6797 87.569 91.0223 89.6409 83.1494C91.7127 75.8289 97.3757 66.7129 97.3757 66.7129L98.7569 67.5416C98.7569 67.5416 97.3757 69.8897 95.3038 73.8952C93.6464 77.2101 92.2652 79.5582 91.2983 83.1494C89.6409 89.7792 87.9834 92.4035 84.3922 93.6466C80.8011 94.8897 75.6906 95.5803 69.337 93.2322C66.8508 92.2654 68.7845 90.6079 68.7845 90.6079Z" fill="#F8AA43"/>
<path d="M51.2431 78.4534C51.2431 78.4534 48.6188 82.8733 50.8287 90.7462C52.3481 96.1329 60.3591 100.415 64.779 99.0335C69.1989 97.5141 72.7901 91.0224 71.2707 85.6357C70.0276 81.0777 51.2431 78.4534 51.2431 78.4534Z" fill="#F8AA43"/>
<path d="M72.9282 76.6576C70.7182 72.7902 68.0939 69.3372 65.1934 66.1604C63.2597 68.6466 58.1492 68.9228 54.0055 71.6853C50.5525 73.8952 50.5525 77.9007 50.5525 82.735C50.5525 88.398 55.3867 95.7184 61.326 96.409C68.2321 97.2378 70.1658 92.2654 73.7569 83.9781C74.8619 81.2156 74.3094 79.1438 72.9282 76.6576Z" fill="#BE6E2C"/>
<path d="M71.9613 56.3538C71.9613 56.3538 71.1326 56.4919 70.8564 58.5637C70.5801 60.6355 67.9558 66.5748 67.9558 66.5748L71.8232 67.2654L72.9282 59.9449L71.9613 56.3538Z" fill="#2C1D1B"/>
<path d="M69.8895 66.2984C69.8895 66.2984 71.9614 62.2929 71.8232 60.4973C71.6851 58.7018 70.9945 56.7681 71.8232 56.4918C72.652 56.2156 74.0332 58.4255 74.3094 61.4642C74.5857 64.5029 74.0332 67.4034 74.0332 67.4034L69.8895 66.2984Z" fill="#513231"/>
<path d="M79.4199 76.2433C78.5912 75.4145 77.7624 74.4477 77.21 73.3427C76.6575 72.2377 76.3812 71.2709 75.9669 70.1659C75.5525 69.3372 75.5525 68.3703 74.0332 67.2654C71.9613 65.746 68.6464 65.3317 67.2652 65.6079C66.0221 65.8841 63.5359 66.7129 62.1547 67.956C59.5304 70.1659 59.5304 72.6521 59.116 75.2764C58.2873 79.2819 58.4254 82.8731 62.4309 85.6355C64.5028 87.1549 69.337 87.0167 71.547 84.9449C75.1381 86.4643 76.6575 88.2598 80.8011 85.3593C81.768 84.6687 83.8398 82.8731 83.8398 81.4919C83.8398 80.9394 80.9392 77.7626 79.4199 76.2433Z" fill="#D28037"/>
<path d="M83.8398 80.8013C82.5967 79.6963 80.9392 77.9008 79.9724 76.5195C79.0055 75.2764 78.3149 74.1715 77.4862 72.9284C76.7956 71.6853 75.8287 69.1991 75.2763 68.3704C74.5857 68.7847 75.4144 71.5472 75.8288 72.3759C76.2431 73.3427 76.6575 74.1715 77.0718 75.0002C77.3481 75.5527 77.4862 76.7958 75.2763 76.7958C73.6188 76.7958 70.7183 72.6521 70.0276 72.3759C68.3702 71.409 67.4033 71.8234 66.5746 73.4809C66.1602 74.3096 66.1602 76.7958 66.989 77.7626C67.2652 78.0389 68.7845 79.9726 68.5083 80.8013C68.3702 81.2157 67.6796 82.1825 67.6796 82.735C67.4033 84.3925 68.0939 85.9118 69.337 86.0499C70.3039 86.188 71.9613 85.0831 73.6188 85.7737C76.5194 87.1549 79.9724 87.7074 81.2155 86.7405C83.8398 84.9449 85.6354 82.5969 83.8398 80.8013Z" fill="#513231"/>
<path d="M71.6851 75.9669C71.4088 75.6907 70.1657 74.3094 69.6132 74.1713C69.1989 73.8951 68.7845 74.0332 68.3701 74.5857C67.8177 75.2763 67.5414 76.2431 68.3701 76.7956C69.0608 77.3481 70.0276 77.21 70.7182 76.6575C70.8563 76.6575 70.8563 76.5194 70.9945 76.3813C70.9945 76.3813 70.9945 76.3813 71.1326 76.5194C71.6851 76.7956 72.2375 76.2431 71.6851 75.9669Z" fill="#2C1D1B"/>
<path d="M69.9473 75.97C70.1748 75.9461 70.3335 75.6808 70.3017 75.3773C70.2699 75.0739 70.0596 74.8472 69.832 74.8711C69.6044 74.895 69.4457 75.1603 69.4775 75.4638C69.5094 75.7672 69.7197 75.9939 69.9473 75.97Z" fill="white"/>
<path d="M82.8729 79.8345C82.5967 79.8345 80.5248 80.9394 79.9724 81.9063C79.4199 82.8731 80.3867 83.7019 81.4917 84.1162C82.4585 84.5306 83.5635 84.8069 83.5635 84.8069C83.5635 84.8069 84.9447 83.84 84.6685 82.3207C84.3922 80.9394 82.8729 79.8345 82.8729 79.8345Z" fill="#2C1D1B"/>
<path d="M76.1049 70.0278C76.1049 70.0278 75.9668 71.409 76.5193 72.2378C77.348 73.2046 77.6243 73.2046 77.6243 73.2046C77.6243 73.2046 77.6243 72.0997 77.2099 71.2709C76.7956 70.5803 76.1049 70.0278 76.1049 70.0278Z" fill="#2C1D1B"/>
<path d="M58.9779 62.7073C58.9779 62.7073 57.4586 68.6465 57.1823 70.7183C56.9061 72.7901 57.4586 74.1714 57.7348 75.4145C58.0111 76.7957 58.8398 77.7625 58.8398 77.7625C58.8398 77.7625 59.2542 77.7625 59.9448 76.7957C60.6354 75.8288 59.9448 71.2708 59.9448 71.2708L58.9779 62.7073Z" fill="#2C1D1B"/>
<path d="M64.779 68.5083C64.779 68.5083 63.1216 64.9172 62.431 62.2929C61.7404 59.6686 60.3592 59.3923 59.5304 61.326C58.7017 63.2597 58.5636 65.4697 57.873 67.9559C57.3205 70.442 58.5636 71.4089 58.8398 73.3426C59.1161 75.2763 59.9448 77.21 59.9448 77.21C59.9448 77.21 61.326 75.6907 62.0166 73.3426C64.779 71.547 64.779 68.5083 64.779 68.5083Z" fill="#513231"/>
</g>
<defs>
<clipPath id="clip0_209_2134">
<rect width="150" height="130.801" fill="white"/>
</clipPath>
</defs>
</svg>
