<svg width="52" height="52" viewBox="0 0 52 52" fill="none" xmlns="http://www.w3.org/2000/svg">
<path d="M24.6999 7.79998C22.3265 7.79955 19.9903 8.38989 17.902 9.51775C15.8136 10.6456 14.0389 12.2755 12.7377 14.2605C11.4366 16.2455 10.65 18.5232 10.4488 20.8881C10.2477 23.253 10.6383 25.6307 11.5855 27.807C10.8091 28.2449 10.0932 28.7825 9.45614 29.406C8.30585 27.0018 7.74047 24.3597 7.80616 21.6954C7.87185 19.031 8.56676 16.42 9.83413 14.0754C11.1015 11.7309 12.9054 9.71932 15.0986 8.20499C17.2917 6.69066 19.8119 5.7165 22.4534 5.36204C25.0949 5.00759 27.7828 5.2829 30.2976 6.16548C32.8123 7.04806 35.0827 8.5129 36.9234 10.4404C38.764 12.3679 40.1227 14.7034 40.8884 17.2561C41.6542 19.8089 41.8053 22.5066 41.3295 25.129C40.6007 24.5251 39.7868 24.0319 38.9141 23.6652C39.1341 21.6673 38.9305 19.6455 38.3165 17.7316C37.7025 15.8177 36.6919 14.0547 35.3507 12.5577C34.0094 11.0607 32.3677 9.86325 30.5325 9.04346C28.6973 8.22367 26.7099 7.79996 24.6999 7.79998ZM36.3687 22.9684C36.4997 21.1953 36.2248 19.4157 35.5651 17.7648C34.9053 16.1138 33.8779 14.635 32.561 13.4405C31.2442 12.246 29.6724 11.3674 27.9651 10.8713C26.2578 10.3752 24.4599 10.2748 22.708 10.5776C20.9561 10.8803 19.2962 11.5784 17.8544 12.6187C16.4127 13.659 15.2269 15.0142 14.3873 16.5814C13.5477 18.1486 13.0763 19.8864 13.0089 21.6631C12.9415 23.4397 13.2799 25.2083 13.9983 26.8346C14.8882 26.6035 15.8037 26.4856 16.7231 26.4836C16.0466 25.252 15.6645 23.8805 15.6067 22.4766C15.5488 21.0727 15.8169 19.6744 16.3899 18.3914C16.9629 17.1084 17.8252 15.9755 18.9093 15.0815C19.9933 14.1876 21.2697 13.5568 22.6383 13.2386C24.007 12.9204 25.4307 12.9235 26.7979 13.2476C28.1652 13.5717 29.4388 14.208 30.519 15.1067C31.5992 16.0054 32.4566 17.142 33.024 18.4274C33.5914 19.7129 33.8534 21.1123 33.7895 22.516L36.3687 22.9684ZM24.6999 15.6C23.6656 15.6 22.6736 16.0109 21.9422 16.7423C21.2108 17.4737 20.7999 18.4656 20.7999 19.5V30.5526C19.2815 30.0404 17.5681 29.731 15.9483 29.9078C14.7575 30.0378 13.5667 30.4304 12.5657 31.2468C11.5517 32.071 10.8237 33.2488 10.4389 34.7828C10.3936 34.9628 10.3874 35.1505 10.4207 35.3332C10.454 35.5158 10.526 35.6892 10.632 35.8417C10.7379 35.9942 10.8753 36.1222 11.0348 36.2172C11.1944 36.3121 11.3724 36.3718 11.5569 36.3922C18.2961 37.141 21.7333 40.8122 23.3947 43.485C24.6427 45.4922 27.0607 47.1432 29.7257 46.6804L33.6699 45.994C34.7926 45.7989 35.8443 45.3122 36.7196 44.5825C37.5948 43.8528 38.2629 42.9059 38.6567 41.8366L41.2125 34.8946C41.5417 34.0014 41.6707 33.0468 41.5904 32.0983C41.5101 31.1498 41.2225 30.2305 40.7478 29.4054C40.2731 28.5803 39.623 27.8695 38.8434 27.3233C38.0638 26.7771 37.1737 26.4088 36.2361 26.2444L28.5999 24.908V19.5C28.5999 18.4656 28.189 17.4737 27.4577 16.7423C26.7263 16.0109 25.7343 15.6 24.6999 15.6ZM23.3999 19.5C23.3999 19.1552 23.5369 18.8245 23.7807 18.5807C24.0245 18.3369 24.3552 18.2 24.6999 18.2C25.0447 18.2 25.3754 18.3369 25.6192 18.5807C25.863 18.8245 25.9999 19.1552 25.9999 19.5V26C26.0003 26.3057 26.1084 26.6016 26.3052 26.8356C26.5021 27.0695 26.7751 27.2266 27.0763 27.2792L35.7863 28.8054C36.349 28.9038 36.8831 29.1247 37.351 29.4523C37.8189 29.7799 38.2091 30.2063 38.4941 30.7013C38.779 31.1963 38.9518 31.7479 39.0001 32.317C39.0484 32.8862 38.9712 33.459 38.7737 33.995L36.2153 40.937C35.9794 41.5786 35.579 42.1469 35.0542 42.5849C34.5295 43.023 33.8988 43.3155 33.2253 43.433L29.2811 44.1194C27.9759 44.3456 26.4809 43.5292 25.6021 42.1122C23.7821 39.1794 20.1577 35.3002 13.5147 34.0574C13.7227 33.7246 13.9567 33.4672 14.2063 33.2644C14.7341 32.8354 15.4127 32.5806 16.2265 32.4922C17.8957 32.3102 19.9159 32.8614 21.5175 33.6622C21.7157 33.7615 21.936 33.8085 22.1575 33.7987C22.379 33.7888 22.5943 33.7225 22.7829 33.6061C22.9715 33.4896 23.1272 33.3269 23.2352 33.1333C23.3432 32.9397 23.3999 32.7217 23.3999 32.5V19.5Z" fill="white"/>
</svg>
